<?xml version="1.0" encoding="utf-8"?>
<!-- Generator: Adobe Illustrator 16.0.3, SVG Export Plug-In . SVG Version: 6.00 Build 0)  -->
<!DOCTYPE svg PUBLIC "-//W3C//DTD SVG 1.1//EN" "http://www.w3.org/Graphics/SVG/1.1/DTD/svg11.dtd">
<svg version="1.1" id="Layer_1" xmlns="http://www.w3.org/2000/svg" xmlns:xlink="http://www.w3.org/1999/xlink" x="0px" y="0px"
	 width="3456px" height="2811.967px" viewBox="0 0 3456 2811.967" enable-background="new 0 0 3456 2811.967" xml:space="preserve">
<line fill="none" stroke="#000000" x1="316.797" y1="1125.857" x2="1006.637" y2="1125.857"/>
<line fill="none" stroke="#000000" x1="1006.637" y1="1681.691" x2="1006.637" y2="1125.857"/>
<line fill="none" stroke="#000000" x1="1006.637" y1="1681.691" x2="1006.637" y2="2235.96"/>
<line fill="none" stroke="#000000" x1="1006.637" y1="2235.96" x2="316.797" y2="2235.96"/>
<line fill="none" stroke="#000000" x1="316.797" y1="1681.1" x2="316.797" y2="2235.96"/>
<line fill="none" stroke="#000000" x1="316.797" y1="1681.1" x2="316.797" y2="1125.857"/>
<line fill="none" stroke="#0000FF" x1="623.245" y1="1283.011" x2="597.597" y2="1283.011"/>
<line fill="none" stroke="#0000FF" x1="700.189" y1="1283.011" x2="725.838" y2="1283.011"/>
<line fill="none" stroke="#0000FF" x1="623.245" y1="1233.25" x2="700.189" y2="1233.25"/>
<line fill="none" stroke="#0000FF" x1="623.245" y1="1332.771" x2="648.893" y2="1332.771"/>
<line fill="none" stroke="#0000FF" x1="674.541" y1="1332.771" x2="700.189" y2="1332.771"/>
<line fill="none" stroke="#0000FF" x1="751.486" y1="1332.771" x2="777.134" y2="1332.771"/>
<line fill="none" stroke="#0000FF" x1="571.948" y1="1332.771" x2="546.3" y2="1332.771"/>
<line fill="none" stroke="#0000FF" x1="648.893" y1="1382.534" x2="674.541" y2="1382.534"/>
<line fill="none" stroke="#0000FF" x1="571.948" y1="1432.294" x2="597.597" y2="1432.294"/>
<line fill="none" stroke="#0000FF" x1="623.245" y1="1432.294" x2="648.893" y2="1432.294"/>
<line fill="none" stroke="#0000FF" x1="674.541" y1="1432.294" x2="700.189" y2="1432.294"/>
<line fill="none" stroke="#0000FF" x1="725.838" y1="1432.294" x2="751.486" y2="1432.294"/>
<line fill="none" stroke="#0000FF" x1="520.652" y1="1382.534" x2="495.003" y2="1382.534"/>
<line fill="none" stroke="#0000FF" x1="802.782" y1="1382.534" x2="828.432" y2="1382.534"/>
<line fill="none" stroke="#0000FF" x1="469.355" y1="1432.294" x2="443.708" y2="1432.294"/>
<line fill="none" stroke="#0000FF" x1="854.079" y1="1432.294" x2="879.727" y2="1432.294"/>
<line fill="none" stroke="#0000FF" x1="597.597" y1="1482.057" x2="623.245" y2="1482.057"/>
<line fill="none" stroke="#0000FF" x1="700.189" y1="1482.057" x2="725.838" y2="1482.057"/>
<line fill="none" stroke="#0000FF" x1="520.652" y1="1531.816" x2="546.3" y2="1531.816"/>
<line fill="none" stroke="#0000FF" x1="571.948" y1="1531.816" x2="597.597" y2="1531.816"/>
<line fill="none" stroke="#0000FF" x1="623.245" y1="1531.816" x2="648.893" y2="1531.816"/>
<line fill="none" stroke="#0000FF" x1="674.541" y1="1531.816" x2="700.189" y2="1531.816"/>
<line fill="none" stroke="#0000FF" x1="725.838" y1="1531.816" x2="751.486" y2="1531.816"/>
<line fill="none" stroke="#0000FF" x1="777.134" y1="1531.816" x2="802.782" y2="1531.816"/>
<line fill="none" stroke="#0000FF" x1="546.3" y1="1581.578" x2="571.948" y2="1581.578"/>
<line fill="none" stroke="#0000FF" x1="648.893" y1="1581.578" x2="674.541" y2="1581.578"/>
<line fill="none" stroke="#0000FF" x1="751.486" y1="1581.578" x2="777.134" y2="1581.578"/>
<line fill="none" stroke="#0000FF" x1="469.355" y1="1631.339" x2="495.003" y2="1631.339"/>
<line fill="none" stroke="#0000FF" x1="520.652" y1="1631.339" x2="546.3" y2="1631.339"/>
<line fill="none" stroke="#0000FF" x1="571.948" y1="1631.339" x2="597.597" y2="1631.339"/>
<line fill="none" stroke="#0000FF" x1="623.245" y1="1631.339" x2="648.893" y2="1631.339"/>
<line fill="none" stroke="#0000FF" x1="674.541" y1="1631.339" x2="700.189" y2="1631.339"/>
<line fill="none" stroke="#0000FF" x1="725.838" y1="1631.388" x2="751.486" y2="1631.866"/>
<line fill="none" stroke="#0000FF" x1="777.134" y1="1631.339" x2="802.782" y2="1631.339"/>
<line fill="none" stroke="#0000FF" x1="828.432" y1="1631.339" x2="854.079" y2="1631.866"/>
<line fill="none" stroke="#0000FF" x1="495.003" y1="1680.909" x2="520.652" y2="1680.909"/>
<line fill="none" stroke="#0000FF" x1="597.597" y1="1680.909" x2="623.245" y2="1680.909"/>
<line fill="none" stroke="#0000FF" x1="905.375" y1="1680.909" x2="1006.637" y2="1681.691"/>
<line fill="none" stroke="#0000FF" x1="418.061" y1="1680.909" x2="316.797" y2="1681.1"/>
<line fill="none" stroke="#0000FF" x1="700.189" y1="2078.807" x2="725.838" y2="2078.807"/>
<line fill="none" stroke="#0000FF" x1="623.245" y1="2078.807" x2="597.597" y2="2078.807"/>
<line fill="none" stroke="#0000FF" x1="700.189" y1="2128.568" x2="623.245" y2="2128.568"/>
<line fill="none" stroke="#0000FF" x1="700.189" y1="2029.046" x2="674.541" y2="2029.046"/>
<line fill="none" stroke="#0000FF" x1="648.893" y1="2029.046" x2="623.245" y2="2029.046"/>
<line fill="none" stroke="#0000FF" x1="571.948" y1="2029.046" x2="546.3" y2="2029.046"/>
<line fill="none" stroke="#0000FF" x1="751.486" y1="2029.046" x2="777.134" y2="2029.046"/>
<line fill="none" stroke="#0000FF" x1="674.541" y1="1979.285" x2="648.893" y2="1979.285"/>
<line fill="none" stroke="#0000FF" x1="751.486" y1="1929.523" x2="725.838" y2="1929.523"/>
<line fill="none" stroke="#0000FF" x1="700.189" y1="1929.524" x2="674.541" y2="1929.524"/>
<line fill="none" stroke="#0000FF" x1="648.893" y1="1929.524" x2="623.245" y2="1929.524"/>
<line fill="none" stroke="#0000FF" x1="597.597" y1="1929.524" x2="571.948" y2="1929.524"/>
<line fill="none" stroke="#0000FF" x1="802.782" y1="1979.285" x2="828.432" y2="1979.285"/>
<line fill="none" stroke="#0000FF" x1="520.652" y1="1979.285" x2="495.003" y2="1979.285"/>
<line fill="none" stroke="#0000FF" x1="854.079" y1="1929.523" x2="879.727" y2="1929.523"/>
<line fill="none" stroke="#0000FF" x1="469.355" y1="1929.524" x2="443.708" y2="1929.524"/>
<line fill="none" stroke="#0000FF" x1="725.838" y1="1879.763" x2="700.189" y2="1879.763"/>
<line fill="none" stroke="#0000FF" x1="623.245" y1="1879.763" x2="597.597" y2="1879.763"/>
<line fill="none" stroke="#0000FF" x1="802.782" y1="1830.001" x2="777.134" y2="1830.001"/>
<line fill="none" stroke="#0000FF" x1="751.486" y1="1830.001" x2="725.838" y2="1830.001"/>
<line fill="none" stroke="#0000FF" x1="700.189" y1="1830.001" x2="674.541" y2="1830.001"/>
<line fill="none" stroke="#0000FF" x1="648.893" y1="1830.001" x2="623.245" y2="1830.001"/>
<line fill="none" stroke="#0000FF" x1="597.597" y1="1830.001" x2="571.948" y2="1830.001"/>
<line fill="none" stroke="#0000FF" x1="546.3" y1="1830.001" x2="520.652" y2="1830.001"/>
<line fill="none" stroke="#0000FF" x1="777.134" y1="1780.24" x2="751.486" y2="1780.24"/>
<line fill="none" stroke="#0000FF" x1="674.541" y1="1780.241" x2="648.893" y2="1780.241"/>
<line fill="none" stroke="#0000FF" x1="571.948" y1="1780.241" x2="546.3" y2="1780.241"/>
<line fill="none" stroke="#0000FF" x1="854.079" y1="1730.48" x2="828.432" y2="1730.48"/>
<line fill="none" stroke="#0000FF" x1="802.782" y1="1730.48" x2="777.134" y2="1730.48"/>
<line fill="none" stroke="#0000FF" x1="751.486" y1="1730.48" x2="725.838" y2="1730.48"/>
<line fill="none" stroke="#0000FF" x1="700.189" y1="1730.48" x2="674.541" y2="1730.48"/>
<line fill="none" stroke="#0000FF" x1="648.893" y1="1730.48" x2="623.245" y2="1730.48"/>
<line fill="none" stroke="#0000FF" x1="597.597" y1="1730.432" x2="571.948" y2="1729.953"/>
<line fill="none" stroke="#0000FF" x1="546.3" y1="1730.48" x2="520.652" y2="1730.48"/>
<line fill="none" stroke="#0000FF" x1="495.003" y1="1730.48" x2="469.355" y2="1729.953"/>
<line fill="none" stroke="#0000FF" x1="700.189" y1="1680.909" x2="725.838" y2="1680.909"/>
<line fill="none" stroke="#0000FF" x1="802.782" y1="1680.909" x2="828.432" y2="1680.909"/>
<line fill="none" stroke="#FF0000" x1="623.245" y1="1283.011" x2="700.189" y2="1283.011"/>
<line fill="none" stroke="#FF0000" x1="648.893" y1="1382.534" x2="571.948" y2="1382.534"/>
<line fill="none" stroke="#FF0000" x1="674.541" y1="1382.534" x2="751.486" y2="1382.534"/>
<line fill="none" stroke="#FF0000" x1="802.782" y1="1482.057" x2="725.838" y2="1482.057"/>
<line fill="none" stroke="#FF0000" x1="700.189" y1="1482.057" x2="623.245" y2="1482.057"/>
<line fill="none" stroke="#FF0000" x1="597.597" y1="1482.057" x2="520.652" y2="1482.057"/>
<line fill="none" stroke="#FF0000" x1="571.948" y1="1581.578" x2="648.893" y2="1581.578"/>
<line fill="none" stroke="#FF0000" x1="674.541" y1="1581.578" x2="751.486" y2="1581.578"/>
<line fill="none" stroke="#FF0000" x1="777.134" y1="1581.578" x2="854.079" y2="1581.578"/>
<line fill="none" stroke="#FF0000" x1="546.3" y1="1581.578" x2="469.355" y2="1581.578"/>
<line fill="none" stroke="#FF0000" x1="418.061" y1="1680.909" x2="495.003" y2="1680.909"/>
<line fill="none" stroke="#FF0000" x1="520.652" y1="1680.909" x2="597.597" y2="1680.909"/>
<line fill="none" stroke="#FF0000" x1="828.432" y1="1680.909" x2="905.375" y2="1680.909"/>
<line fill="none" stroke="#FF0000" x1="700.189" y1="2078.807" x2="623.245" y2="2078.807"/>
<line fill="none" stroke="#FF0000" x1="674.541" y1="1979.285" x2="751.486" y2="1979.285"/>
<line fill="none" stroke="#FF0000" x1="648.893" y1="1979.285" x2="571.948" y2="1979.285"/>
<line fill="none" stroke="#FF0000" x1="520.652" y1="1879.763" x2="597.597" y2="1879.763"/>
<line fill="none" stroke="#FF0000" x1="623.245" y1="1879.763" x2="700.189" y2="1879.763"/>
<line fill="none" stroke="#FF0000" x1="725.838" y1="1879.763" x2="802.782" y2="1879.763"/>
<line fill="none" stroke="#FF0000" x1="751.486" y1="1780.24" x2="674.541" y2="1780.241"/>
<line fill="none" stroke="#FF0000" x1="648.893" y1="1780.241" x2="571.948" y2="1780.241"/>
<line fill="none" stroke="#FF0000" x1="546.3" y1="1780.241" x2="469.355" y2="1780.241"/>
<line fill="none" stroke="#FF0000" x1="777.134" y1="1780.24" x2="854.079" y2="1780.24"/>
<line fill="none" stroke="#FF0000" x1="623.245" y1="1680.909" x2="700.189" y2="1680.909"/>
<line fill="none" stroke="#FF0000" x1="725.838" y1="1680.909" x2="802.782" y2="1680.909"/>
<line fill="none" stroke="#00FF00" x1="418.061" y1="1631.339" x2="418.061" y2="1680.909"/>
<line fill="none" stroke="#00FF00" x1="495.003" y1="1631.339" x2="495.003" y2="1680.909"/>
<line fill="none" stroke="#00FF00" x1="520.652" y1="1631.339" x2="520.652" y2="1680.909"/>
<line fill="none" stroke="#00FF00" x1="597.597" y1="1631.339" x2="597.597" y2="1680.909"/>
<line fill="none" stroke="#00FF00" x1="623.245" y1="1631.339" x2="623.245" y2="1680.909"/>
<line fill="none" stroke="#00FF00" x1="700.189" y1="1680.909" x2="700.189" y2="1631.339"/>
<line fill="none" stroke="#00FF00" x1="700.189" y1="1680.909" x2="700.189" y2="1682.285"/>
<line fill="none" stroke="#00FF00" x1="725.838" y1="1680.909" x2="725.838" y2="1631.388"/>
<line fill="none" stroke="#00FF00" x1="725.838" y1="1680.909" x2="725.838" y2="1682.285"/>
<line fill="none" stroke="#00FF00" x1="802.782" y1="1631.339" x2="802.782" y2="1680.909"/>
<line fill="none" stroke="#00FF00" x1="828.432" y1="1631.339" x2="828.432" y2="1680.909"/>
<line fill="none" stroke="#00FF00" x1="905.375" y1="1631.339" x2="905.375" y2="1680.909"/>
<line fill="none" stroke="#00FF00" x1="571.948" y1="1332.771" x2="597.597" y2="1332.771"/>
<line fill="none" stroke="#00FF00" x1="725.838" y1="1332.771" x2="751.486" y2="1332.771"/>
<line fill="none" stroke="#00FF00" x1="597.597" y1="1283.011" x2="597.597" y2="1332.771"/>
<line fill="none" stroke="#00FF00" x1="725.838" y1="1283.011" x2="725.838" y2="1332.771"/>
<line fill="none" stroke="#00FF00" x1="623.245" y1="1283.011" x2="623.245" y2="1233.25"/>
<line fill="none" stroke="#00FF00" x1="623.245" y1="1283.011" x2="623.245" y2="1332.771"/>
<line fill="none" stroke="#00FF00" x1="700.189" y1="1283.011" x2="700.189" y2="1233.25"/>
<line fill="none" stroke="#00FF00" x1="700.189" y1="1283.011" x2="700.189" y2="1332.771"/>
<line fill="none" stroke="#00FF00" x1="777.134" y1="1432.294" x2="802.782" y2="1432.294"/>
<line fill="none" stroke="#00FF00" x1="546.3" y1="1432.294" x2="520.652" y2="1432.294"/>
<line fill="none" stroke="#00FF00" x1="546.3" y1="1332.771" x2="546.3" y2="1432.294"/>
<line fill="none" stroke="#00FF00" x1="571.948" y1="1382.534" x2="571.948" y2="1332.771"/>
<line fill="none" stroke="#00FF00" x1="571.948" y1="1382.534" x2="571.948" y2="1432.294"/>
<line fill="none" stroke="#00FF00" x1="751.486" y1="1382.534" x2="751.486" y2="1332.771"/>
<line fill="none" stroke="#00FF00" x1="751.486" y1="1382.534" x2="751.486" y2="1432.294"/>
<line fill="none" stroke="#00FF00" x1="777.134" y1="1332.771" x2="777.134" y2="1432.294"/>
<line fill="none" stroke="#00FF00" x1="828.432" y1="1531.816" x2="854.079" y2="1531.816"/>
<line fill="none" stroke="#00FF00" x1="495.003" y1="1531.816" x2="469.355" y2="1531.816"/>
<line fill="none" stroke="#00FF00" x1="648.893" y1="1382.534" x2="648.893" y2="1332.771"/>
<line fill="none" stroke="#00FF00" x1="648.893" y1="1382.534" x2="648.893" y2="1432.294"/>
<line fill="none" stroke="#00FF00" x1="674.541" y1="1382.534" x2="674.541" y2="1332.771"/>
<line fill="none" stroke="#00FF00" x1="674.541" y1="1382.534" x2="674.541" y2="1432.294"/>
<line fill="none" stroke="#00FF00" x1="495.003" y1="1382.534" x2="495.003" y2="1531.816"/>
<line fill="none" stroke="#00FF00" x1="520.652" y1="1432.294" x2="520.652" y2="1382.534"/>
<line fill="none" stroke="#00FF00" x1="520.652" y1="1482.057" x2="520.652" y2="1432.294"/>
<line fill="none" stroke="#00FF00" x1="520.652" y1="1482.057" x2="520.652" y2="1531.816"/>
<line fill="none" stroke="#00FF00" x1="802.782" y1="1432.294" x2="802.782" y2="1382.534"/>
<line fill="none" stroke="#00FF00" x1="802.782" y1="1482.057" x2="802.782" y2="1432.294"/>
<line fill="none" stroke="#00FF00" x1="802.782" y1="1482.057" x2="802.782" y2="1531.816"/>
<line fill="none" stroke="#00FF00" x1="828.432" y1="1382.534" x2="828.432" y2="1531.816"/>
<line fill="none" stroke="#00FF00" x1="597.597" y1="1482.057" x2="597.597" y2="1432.294"/>
<line fill="none" stroke="#00FF00" x1="597.597" y1="1482.057" x2="597.597" y2="1531.816"/>
<line fill="none" stroke="#00FF00" x1="623.245" y1="1482.057" x2="623.245" y2="1432.294"/>
<line fill="none" stroke="#00FF00" x1="623.245" y1="1482.057" x2="623.245" y2="1531.816"/>
<line fill="none" stroke="#00FF00" x1="700.189" y1="1482.057" x2="700.189" y2="1432.294"/>
<line fill="none" stroke="#00FF00" x1="700.189" y1="1482.057" x2="700.189" y2="1531.816"/>
<line fill="none" stroke="#00FF00" x1="725.838" y1="1482.057" x2="725.838" y2="1432.294"/>
<line fill="none" stroke="#00FF00" x1="725.838" y1="1482.057" x2="725.838" y2="1531.816"/>
<line fill="none" stroke="#00FF00" x1="879.727" y1="1631.339" x2="905.375" y2="1631.339"/>
<line fill="none" stroke="#00FF00" x1="443.708" y1="1631.339" x2="418.061" y2="1631.339"/>
<line fill="none" stroke="#00FF00" x1="879.727" y1="1432.294" x2="879.727" y2="1631.339"/>
<line fill="none" stroke="#00FF00" x1="443.708" y1="1432.294" x2="443.708" y2="1631.339"/>
<line fill="none" stroke="#00FF00" x1="469.355" y1="1531.816" x2="469.355" y2="1432.294"/>
<line fill="none" stroke="#00FF00" x1="469.355" y1="1581.578" x2="469.355" y2="1531.816"/>
<line fill="none" stroke="#00FF00" x1="469.355" y1="1581.578" x2="469.355" y2="1631.339"/>
<line fill="none" stroke="#00FF00" x1="854.079" y1="1531.816" x2="854.079" y2="1432.294"/>
<line fill="none" stroke="#00FF00" x1="854.079" y1="1581.578" x2="854.079" y2="1531.816"/>
<line fill="none" stroke="#00FF00" x1="854.079" y1="1581.578" x2="854.079" y2="1631.866"/>
<line fill="none" stroke="#00FF00" x1="571.948" y1="1581.578" x2="571.948" y2="1531.816"/>
<line fill="none" stroke="#00FF00" x1="571.948" y1="1581.578" x2="571.948" y2="1631.339"/>
<line fill="none" stroke="#00FF00" x1="546.3" y1="1581.578" x2="546.3" y2="1531.816"/>
<line fill="none" stroke="#00FF00" x1="546.3" y1="1581.578" x2="546.3" y2="1631.339"/>
<line fill="none" stroke="#00FF00" x1="648.893" y1="1581.578" x2="648.893" y2="1531.816"/>
<line fill="none" stroke="#00FF00" x1="648.893" y1="1581.578" x2="648.893" y2="1631.339"/>
<line fill="none" stroke="#00FF00" x1="674.541" y1="1581.578" x2="674.541" y2="1531.816"/>
<line fill="none" stroke="#00FF00" x1="674.541" y1="1581.578" x2="674.541" y2="1631.339"/>
<line fill="none" stroke="#00FF00" x1="751.486" y1="1581.578" x2="751.486" y2="1531.816"/>
<line fill="none" stroke="#00FF00" x1="751.486" y1="1581.578" x2="751.486" y2="1631.866"/>
<line fill="none" stroke="#00FF00" x1="777.134" y1="1581.578" x2="777.134" y2="1531.816"/>
<line fill="none" stroke="#00FF00" x1="777.134" y1="1581.578" x2="777.134" y2="1631.339"/>
<line fill="none" stroke="#00FF00" x1="905.375" y1="1730.48" x2="905.375" y2="1680.909"/>
<line fill="none" stroke="#00FF00" x1="828.432" y1="1730.48" x2="828.432" y2="1680.909"/>
<line fill="none" stroke="#00FF00" x1="802.782" y1="1730.48" x2="802.782" y2="1680.909"/>
<line fill="none" stroke="#00FF00" x1="725.838" y1="1730.48" x2="725.838" y2="1680.909"/>
<line fill="none" stroke="#00FF00" x1="700.189" y1="1730.48" x2="700.189" y2="1680.909"/>
<line fill="none" stroke="#00FF00" x1="623.245" y1="1730.48" x2="623.245" y2="1680.909"/>
<line fill="none" stroke="#00FF00" x1="597.597" y1="1730.432" x2="597.597" y2="1680.909"/>
<line fill="none" stroke="#00FF00" x1="520.652" y1="1730.48" x2="520.652" y2="1680.909"/>
<line fill="none" stroke="#00FF00" x1="495.003" y1="1730.48" x2="495.003" y2="1680.909"/>
<line fill="none" stroke="#00FF00" x1="418.061" y1="1730.48" x2="418.061" y2="1680.909"/>
<line fill="none" stroke="#00FF00" x1="751.486" y1="2029.046" x2="725.838" y2="2029.046"/>
<line fill="none" stroke="#00FF00" x1="597.597" y1="2029.046" x2="571.948" y2="2029.046"/>
<line fill="none" stroke="#00FF00" x1="725.838" y1="2078.807" x2="725.838" y2="2029.046"/>
<line fill="none" stroke="#00FF00" x1="597.597" y1="2078.807" x2="597.597" y2="2029.046"/>
<line fill="none" stroke="#00FF00" x1="700.189" y1="2078.807" x2="700.189" y2="2128.568"/>
<line fill="none" stroke="#00FF00" x1="700.189" y1="2078.807" x2="700.189" y2="2029.046"/>
<line fill="none" stroke="#00FF00" x1="623.245" y1="2078.807" x2="623.245" y2="2128.568"/>
<line fill="none" stroke="#00FF00" x1="623.245" y1="2078.807" x2="623.245" y2="2029.046"/>
<line fill="none" stroke="#00FF00" x1="546.3" y1="1929.524" x2="520.652" y2="1929.524"/>
<line fill="none" stroke="#00FF00" x1="777.134" y1="1929.523" x2="802.782" y2="1929.523"/>
<line fill="none" stroke="#00FF00" x1="777.134" y1="2029.046" x2="777.134" y2="1929.523"/>
<line fill="none" stroke="#00FF00" x1="751.486" y1="1979.285" x2="751.486" y2="2029.046"/>
<line fill="none" stroke="#00FF00" x1="751.486" y1="1979.285" x2="751.486" y2="1929.523"/>
<line fill="none" stroke="#00FF00" x1="571.948" y1="1979.285" x2="571.948" y2="2029.046"/>
<line fill="none" stroke="#00FF00" x1="571.948" y1="1979.285" x2="571.948" y2="1929.524"/>
<line fill="none" stroke="#00FF00" x1="546.3" y1="2029.046" x2="546.3" y2="1929.524"/>
<line fill="none" stroke="#00FF00" x1="495.003" y1="1830.001" x2="469.355" y2="1830.001"/>
<line fill="none" stroke="#00FF00" x1="828.432" y1="1830.001" x2="854.079" y2="1830.001"/>
<line fill="none" stroke="#00FF00" x1="674.541" y1="1979.285" x2="674.541" y2="2029.046"/>
<line fill="none" stroke="#00FF00" x1="674.541" y1="1979.285" x2="674.541" y2="1929.524"/>
<line fill="none" stroke="#00FF00" x1="648.893" y1="1979.285" x2="648.893" y2="2029.046"/>
<line fill="none" stroke="#00FF00" x1="648.893" y1="1979.285" x2="648.893" y2="1929.524"/>
<line fill="none" stroke="#00FF00" x1="828.432" y1="1979.285" x2="828.432" y2="1830.001"/>
<line fill="none" stroke="#00FF00" x1="802.782" y1="1929.523" x2="802.782" y2="1979.285"/>
<line fill="none" stroke="#00FF00" x1="802.782" y1="1879.763" x2="802.782" y2="1929.523"/>
<line fill="none" stroke="#00FF00" x1="802.782" y1="1879.763" x2="802.782" y2="1830.001"/>
<line fill="none" stroke="#00FF00" x1="520.652" y1="1929.524" x2="520.652" y2="1979.285"/>
<line fill="none" stroke="#00FF00" x1="520.652" y1="1879.763" x2="520.652" y2="1929.524"/>
<line fill="none" stroke="#00FF00" x1="520.652" y1="1879.763" x2="520.652" y2="1830.001"/>
<line fill="none" stroke="#00FF00" x1="495.003" y1="1979.285" x2="495.003" y2="1830.001"/>
<line fill="none" stroke="#00FF00" x1="725.838" y1="1879.763" x2="725.838" y2="1929.523"/>
<line fill="none" stroke="#00FF00" x1="725.838" y1="1879.763" x2="725.838" y2="1830.001"/>
<line fill="none" stroke="#00FF00" x1="700.189" y1="1879.763" x2="700.189" y2="1929.524"/>
<line fill="none" stroke="#00FF00" x1="700.189" y1="1879.763" x2="700.189" y2="1830.001"/>
<line fill="none" stroke="#00FF00" x1="623.245" y1="1879.763" x2="623.245" y2="1929.524"/>
<line fill="none" stroke="#00FF00" x1="623.245" y1="1879.763" x2="623.245" y2="1830.001"/>
<line fill="none" stroke="#00FF00" x1="597.597" y1="1879.763" x2="597.597" y2="1929.524"/>
<line fill="none" stroke="#00FF00" x1="597.597" y1="1879.763" x2="597.597" y2="1830.001"/>
<line fill="none" stroke="#00FF00" x1="443.708" y1="1730.48" x2="418.061" y2="1730.48"/>
<line fill="none" stroke="#00FF00" x1="879.727" y1="1730.48" x2="905.375" y2="1730.48"/>
<line fill="none" stroke="#00FF00" x1="443.708" y1="1929.524" x2="443.708" y2="1730.48"/>
<line fill="none" stroke="#00FF00" x1="879.727" y1="1929.523" x2="879.727" y2="1730.48"/>
<line fill="none" stroke="#00FF00" x1="854.079" y1="1830.001" x2="854.079" y2="1929.523"/>
<line fill="none" stroke="#00FF00" x1="854.079" y1="1780.24" x2="854.079" y2="1830.001"/>
<line fill="none" stroke="#00FF00" x1="854.079" y1="1780.24" x2="854.079" y2="1730.48"/>
<line fill="none" stroke="#00FF00" x1="469.355" y1="1830.001" x2="469.355" y2="1929.524"/>
<line fill="none" stroke="#00FF00" x1="469.355" y1="1780.241" x2="469.355" y2="1830.001"/>
<line fill="none" stroke="#00FF00" x1="469.355" y1="1780.241" x2="469.355" y2="1729.953"/>
<line fill="none" stroke="#00FF00" x1="751.486" y1="1780.24" x2="751.486" y2="1830.001"/>
<line fill="none" stroke="#00FF00" x1="751.486" y1="1780.24" x2="751.486" y2="1730.48"/>
<line fill="none" stroke="#00FF00" x1="777.134" y1="1780.24" x2="777.134" y2="1830.001"/>
<line fill="none" stroke="#00FF00" x1="777.134" y1="1780.24" x2="777.134" y2="1730.48"/>
<line fill="none" stroke="#00FF00" x1="674.541" y1="1780.241" x2="674.541" y2="1830.001"/>
<line fill="none" stroke="#00FF00" x1="674.541" y1="1780.241" x2="674.541" y2="1730.48"/>
<line fill="none" stroke="#00FF00" x1="648.893" y1="1780.241" x2="648.893" y2="1830.001"/>
<line fill="none" stroke="#00FF00" x1="648.893" y1="1780.241" x2="648.893" y2="1730.48"/>
<line fill="none" stroke="#00FF00" x1="571.948" y1="1780.241" x2="571.948" y2="1830.001"/>
<line fill="none" stroke="#00FF00" x1="571.948" y1="1780.241" x2="571.948" y2="1729.953"/>
<line fill="none" stroke="#00FF00" x1="546.3" y1="1780.241" x2="546.3" y2="1830.001"/>
<line fill="none" stroke="#00FF00" x1="546.3" y1="1780.241" x2="546.3" y2="1730.48"/>
<line fill="none" stroke="#FFFF00" x1="648.893" y1="1332.771" x2="674.541" y2="1332.771"/>
<line fill="none" stroke="#FFFF00" x1="700.189" y1="1332.771" x2="725.838" y2="1332.771"/>
<line fill="none" stroke="#FFFF00" x1="597.597" y1="1332.771" x2="623.245" y2="1332.771"/>
<line fill="none" stroke="#FFFF00" x1="597.597" y1="1432.294" x2="623.245" y2="1432.294"/>
<line fill="none" stroke="#FFFF00" x1="648.893" y1="1432.294" x2="674.541" y2="1432.294"/>
<line fill="none" stroke="#FFFF00" x1="700.189" y1="1432.294" x2="725.838" y2="1432.294"/>
<line fill="none" stroke="#FFFF00" x1="751.486" y1="1432.294" x2="777.134" y2="1432.294"/>
<line fill="none" stroke="#FFFF00" x1="623.245" y1="1432.294" x2="597.597" y2="1432.294"/>
<line fill="none" stroke="#FFFF00" x1="495.003" y1="1531.816" x2="520.652" y2="1531.816"/>
<line fill="none" stroke="#FFFF00" x1="597.597" y1="1531.816" x2="623.245" y2="1531.816"/>
<line fill="none" stroke="#FFFF00" x1="700.189" y1="1531.816" x2="725.838" y2="1531.816"/>
<line fill="none" stroke="#FFFF00" x1="802.782" y1="1531.816" x2="828.432" y2="1531.816"/>
<line fill="none" stroke="#FFFF00" x1="802.782" y1="1631.339" x2="828.432" y2="1631.339"/>
<line fill="none" stroke="#FFFF00" x1="725.838" y1="1631.388" x2="700.189" y2="1631.339"/>
<line fill="none" stroke="#FFFF00" x1="623.245" y1="1631.339" x2="597.597" y2="1631.339"/>
<line fill="none" stroke="#FFFF00" x1="520.652" y1="1631.339" x2="495.003" y2="1631.339"/>
<line fill="none" stroke="#FFFF00" x1="492.646" y1="1730.432" x2="520.652" y2="1730.48"/>
<line fill="none" stroke="#FFFF00" x1="546.3" y1="1730.48" x2="571.948" y2="1729.953"/>
<line fill="none" stroke="#FFFF00" x1="469.355" y1="1729.953" x2="443.708" y2="1730.48"/>
<line fill="none" stroke="#FFFF00" x1="597.597" y1="1730.432" x2="623.245" y2="1730.48"/>
<line fill="none" stroke="#FFFF00" x1="648.893" y1="1730.48" x2="674.541" y2="1730.48"/>
<line fill="none" stroke="#FFFF00" x1="700.189" y1="1730.48" x2="725.838" y2="1730.48"/>
<line fill="none" stroke="#FFFF00" x1="751.486" y1="1730.48" x2="777.134" y2="1730.48"/>
<line fill="none" stroke="#FFFF00" x1="828.432" y1="1730.48" x2="802.782" y2="1730.48"/>
<line fill="none" stroke="#FFFF00" x1="854.079" y1="1730.48" x2="879.727" y2="1730.48"/>
<line fill="none" stroke="#FFFF00" x1="854.079" y1="1631.866" x2="879.727" y2="1631.339"/>
<line fill="none" stroke="#FFFF00" x1="443.708" y1="1631.339" x2="469.355" y2="1631.339"/>
<line fill="none" stroke="#FFFF00" x1="495.003" y1="1830.001" x2="520.652" y2="1830.001"/>
<line fill="none" stroke="#FFFF00" x1="546.3" y1="1830.001" x2="571.948" y2="1830.001"/>
<line fill="none" stroke="#FFFF00" x1="597.597" y1="1830.001" x2="623.245" y2="1830.001"/>
<line fill="none" stroke="#FFFF00" x1="648.893" y1="1830.001" x2="674.541" y2="1830.001"/>
<line fill="none" stroke="#FFFF00" x1="700.189" y1="1830.001" x2="725.838" y2="1830.001"/>
<line fill="none" stroke="#FFFF00" x1="751.486" y1="1830.001" x2="777.134" y2="1830.001"/>
<line fill="none" stroke="#FFFF00" x1="802.782" y1="1830.001" x2="828.432" y2="1830.001"/>
<line fill="none" stroke="#FFFF00" x1="777.134" y1="1929.523" x2="751.486" y2="1929.523"/>
<line fill="none" stroke="#FFFF00" x1="674.541" y1="1929.524" x2="648.893" y2="1929.524"/>
<line fill="none" stroke="#FFFF00" x1="571.948" y1="1929.524" x2="546.3" y2="1929.524"/>
<line fill="none" stroke="#FFFF00" x1="597.597" y1="2029.046" x2="623.245" y2="2029.046"/>
<line fill="none" stroke="#FFFF00" x1="648.893" y1="2029.046" x2="674.541" y2="2029.046"/>
<line fill="none" stroke="#FFFF00" x1="700.189" y1="2029.046" x2="725.838" y2="2029.046"/>
<line fill="none" stroke="#FFFF00" x1="546.3" y1="1531.816" x2="571.948" y2="1531.816"/>
<line fill="none" stroke="#FFFF00" x1="648.893" y1="1531.816" x2="674.541" y2="1531.816"/>
<line fill="none" stroke="#FFFF00" x1="751.486" y1="1531.816" x2="777.134" y2="1531.816"/>
<line fill="none" stroke="#FFFF00" x1="546.3" y1="1432.294" x2="571.948" y2="1432.294"/>
<line fill="none" stroke="#FFFF00" x1="802.782" y1="1382.534" x2="777.134" y2="1332.773"/>
<line fill="none" stroke="#FFFF00" x1="802.782" y1="1382.534" x2="777.134" y2="1432.294"/>
<line fill="none" stroke="#FFFF00" x1="854.079" y1="1432.295" x2="828.432" y2="1382.534"/>
<line fill="none" stroke="#FFFF00" x1="854.079" y1="1432.295" x2="828.432" y2="1531.816"/>
<line fill="none" stroke="#FFFF00" x1="854.079" y1="1929.523" x2="828.432" y2="1830.001"/>
<line fill="none" stroke="#FFFF00" x1="854.079" y1="1929.523" x2="828.432" y2="1979.285"/>
<line fill="none" stroke="#FFFF00" x1="802.782" y1="1979.285" x2="777.134" y2="1929.523"/>
<line fill="none" stroke="#FFFF00" x1="802.782" y1="1979.285" x2="777.134" y2="2029.046"/>
<line fill="none" stroke="#FFFF00" x1="520.652" y1="1979.285" x2="546.3" y2="1929.524"/>
<line fill="none" stroke="#FFFF00" x1="469.355" y1="1929.524" x2="495.003" y2="1979.285"/>
<line fill="none" stroke="#FFFF00" x1="469.355" y1="1929.524" x2="495.003" y2="1830.001"/>
<line fill="none" stroke="#FFFF00" x1="469.355" y1="1432.294" x2="495.003" y2="1531.816"/>
<line fill="none" stroke="#FFFF00" x1="469.355" y1="1432.294" x2="495.108" y2="1382.533"/>
<line fill="none" stroke="#FFFF00" x1="520.652" y1="1382.534" x2="546.3" y2="1432.294"/>
<line fill="none" stroke="#FFFF00" x1="520.652" y1="1382.534" x2="546.405" y2="1332.771"/>
<line fill="none" stroke="#FFFF00" x1="700.189" y1="2128.568" x2="725.838" y2="2078.807"/>
<line fill="none" stroke="#FFFF00" x1="597.597" y1="2078.807" x2="623.245" y2="2128.569"/>
<line fill="none" stroke="#FFFF00" x1="725.838" y1="2078.807" x2="751.486" y2="2029.046"/>
<line fill="none" stroke="#FFFF00" x1="597.597" y1="2078.807" x2="571.948" y2="2029.046"/>
<line fill="none" stroke="#FFFF00" x1="546.3" y1="2029.046" x2="597.597" y2="2078.807"/>
<line fill="none" stroke="#FFFF00" x1="725.838" y1="2078.807" x2="777.134" y2="2029.046"/>
<line fill="none" stroke="#FFFF00" x1="777.134" y1="2029.046" x2="828.432" y2="1979.285"/>
<line fill="none" stroke="#FFFF00" x1="828.432" y1="1979.285" x2="879.727" y2="1929.523"/>
<line fill="none" stroke="#FFFF00" x1="546.3" y1="2029.046" x2="495.003" y2="1979.285"/>
<line fill="none" stroke="#FFFF00" x1="546.3" y1="2029.046" x2="520.652" y2="1979.285"/>
<line fill="none" stroke="#FFFF00" x1="495.003" y1="1979.285" x2="443.708" y2="1929.524"/>
<line fill="none" stroke="#FFFF00" x1="443.708" y1="1929.524" x2="418.061" y2="1730.48"/>
<line fill="none" stroke="#FFFF00" x1="879.727" y1="1929.523" x2="905.375" y2="1730.48"/>
<line fill="none" stroke="#FFFF00" x1="879.727" y1="1432.295" x2="905.375" y2="1631.339"/>
<line fill="none" stroke="#FFFF00" x1="443.708" y1="1432.294" x2="418.164" y2="1631.339"/>
<line fill="none" stroke="#FFFF00" x1="495.108" y1="1382.533" x2="443.708" y2="1432.294"/>
<line fill="none" stroke="#FFFF00" x1="546.405" y1="1332.771" x2="495.108" y2="1382.533"/>
<line fill="none" stroke="#FFFF00" x1="597.702" y1="1283.011" x2="571.948" y2="1332.771"/>
<line fill="none" stroke="#FFFF00" x1="597.702" y1="1283.011" x2="546.405" y2="1332.771"/>
<line fill="none" stroke="#FFFF00" x1="623.35" y1="1233.25" x2="597.702" y2="1283.011"/>
<line fill="none" stroke="#FFFF00" x1="700.189" y1="1233.25" x2="725.838" y2="1283.012"/>
<line fill="none" stroke="#FFFF00" x1="725.838" y1="1283.012" x2="751.486" y2="1332.771"/>
<line fill="none" stroke="#FFFF00" x1="777.134" y1="1332.773" x2="725.838" y2="1283.012"/>
<line fill="none" stroke="#FFFF00" x1="828.432" y1="1382.534" x2="777.134" y2="1332.773"/>
<line fill="none" stroke="#FFFF00" x1="879.727" y1="1432.295" x2="828.432" y2="1382.534"/>
<line fill="none" stroke="#FFFF00" x1="725.838" y1="1482.057" x2="751.486" y2="1432.294"/>
<line fill="none" stroke="#FFFF00" x1="879.727" y1="1929.523" x2="1006.637" y2="2235.96"/>
<line fill="none" stroke="#FFFF00" x1="828.432" y1="1979.285" x2="1006.637" y2="2235.96"/>
<line fill="none" stroke="#FFFF00" x1="777.134" y1="2029.046" x2="1006.637" y2="2235.96"/>
<line fill="none" stroke="#FFFF00" x1="725.838" y1="2078.807" x2="1006.637" y2="2235.96"/>
<line fill="none" stroke="#FFFF00" x1="700.189" y1="2128.568" x2="1006.637" y2="2235.96"/>
<line fill="none" stroke="#FFFF00" x1="905.375" y1="1730.48" x2="1006.637" y2="2235.96"/>
<line fill="none" stroke="#FFFF00" x1="905.375" y1="1730.48" x2="1006.637" y2="1681.691"/>
<line fill="none" stroke="#FFFF00" x1="418.061" y1="1730.48" x2="316.797" y2="1681.1"/>
<line fill="none" stroke="#FFFF00" x1="418.061" y1="1730.48" x2="316.797" y2="2235.96"/>
<line fill="none" stroke="#FFFF00" x1="443.708" y1="1929.524" x2="316.797" y2="2235.96"/>
<line fill="none" stroke="#FFFF00" x1="495.003" y1="1979.285" x2="316.797" y2="2235.96"/>
<line fill="none" stroke="#FFFF00" x1="546.3" y1="2029.046" x2="316.797" y2="2235.96"/>
<line fill="none" stroke="#FFFF00" x1="597.597" y1="2078.807" x2="316.797" y2="2235.96"/>
<line fill="none" stroke="#FFFF00" x1="623.245" y1="2128.569" x2="316.797" y2="2235.96"/>
<line fill="none" stroke="#FFFF00" x1="700.189" y1="2128.568" x2="661.717" y2="2235.96"/>
<line fill="none" stroke="#FFFF00" x1="623.245" y1="2128.569" x2="661.717" y2="2235.96"/>
<line fill="none" stroke="#FFFF00" x1="418.164" y1="1631.339" x2="316.797" y2="1681.1"/>
<line fill="none" stroke="#FFFF00" x1="905.375" y1="1631.339" x2="1006.637" y2="1681.691"/>
<line fill="none" stroke="#FFFF00" x1="905.375" y1="1631.339" x2="1006.637" y2="1125.857"/>
<line fill="none" stroke="#FFFF00" x1="879.727" y1="1432.295" x2="1006.637" y2="1125.857"/>
<line fill="none" stroke="#FFFF00" x1="828.432" y1="1382.534" x2="1006.637" y2="1125.857"/>
<line fill="none" stroke="#FFFF00" x1="777.134" y1="1332.773" x2="1006.637" y2="1125.857"/>
<line fill="none" stroke="#FFFF00" x1="725.838" y1="1283.012" x2="1006.637" y2="1125.857"/>
<line fill="none" stroke="#FFFF00" x1="700.189" y1="1233.25" x2="1006.637" y2="1125.857"/>
<line fill="none" stroke="#FFFF00" x1="623.35" y1="1233.25" x2="316.797" y2="1125.857"/>
<line fill="none" stroke="#FFFF00" x1="597.702" y1="1283.011" x2="316.797" y2="1125.857"/>
<line fill="none" stroke="#FFFF00" x1="546.405" y1="1332.771" x2="316.797" y2="1125.857"/>
<line fill="none" stroke="#FFFF00" x1="495.108" y1="1382.533" x2="316.797" y2="1125.857"/>
<line fill="none" stroke="#FFFF00" x1="443.708" y1="1432.294" x2="316.797" y2="1125.857"/>
<line fill="none" stroke="#FFFF00" x1="418.164" y1="1631.339" x2="316.797" y2="1125.857"/>
<line fill="none" stroke="#FFFF00" x1="623.35" y1="1233.25" x2="661.717" y2="1125.857"/>
<line fill="none" stroke="#FFFF00" x1="700.189" y1="1233.25" x2="661.717" y2="1125.857"/>
<line fill="none" stroke="#FFFF00" x1="777.134" y1="1432.294" x2="802.782" y2="1482.057"/>
<line fill="none" stroke="#FFFF00" x1="777.134" y1="1432.294" x2="725.838" y2="1482.057"/>
<line fill="none" stroke="#FFFF00" x1="751.486" y1="1531.816" x2="725.838" y2="1482.057"/>
<line fill="none" stroke="#FFFF00" x1="777.134" y1="1531.816" x2="802.782" y2="1482.057"/>
<line fill="none" stroke="#FFFF00" x1="751.486" y1="1531.816" x2="802.782" y2="1482.057"/>
<line fill="none" stroke="#FFFF00" x1="623.245" y1="1482.059" x2="648.893" y2="1432.296"/>
<line fill="none" stroke="#FFFF00" x1="674.541" y1="1432.296" x2="700.189" y2="1482.059"/>
<line fill="none" stroke="#FFFF00" x1="674.541" y1="1432.296" x2="623.245" y2="1482.059"/>
<line fill="none" stroke="#FFFF00" x1="648.893" y1="1531.818" x2="623.245" y2="1482.059"/>
<line fill="none" stroke="#FFFF00" x1="674.541" y1="1531.818" x2="700.189" y2="1482.059"/>
<line fill="none" stroke="#FFFF00" x1="648.893" y1="1531.818" x2="700.189" y2="1482.059"/>
<line fill="none" stroke="#FFFF00" x1="520.652" y1="1482.059" x2="546.3" y2="1432.296"/>
<line fill="none" stroke="#FFFF00" x1="571.948" y1="1432.296" x2="597.596" y2="1482.059"/>
<line fill="none" stroke="#FFFF00" x1="571.948" y1="1432.296" x2="520.652" y2="1482.059"/>
<line fill="none" stroke="#FFFF00" x1="546.3" y1="1531.818" x2="520.652" y2="1482.059"/>
<line fill="none" stroke="#FFFF00" x1="571.948" y1="1531.818" x2="597.596" y2="1482.059"/>
<line fill="none" stroke="#FFFF00" x1="546.3" y1="1531.818" x2="597.596" y2="1482.059"/>
<line fill="none" stroke="#FFFF00" x1="571.949" y1="1382.536" x2="597.597" y2="1332.773"/>
<line fill="none" stroke="#FFFF00" x1="623.245" y1="1332.773" x2="648.893" y2="1382.536"/>
<line fill="none" stroke="#FFFF00" x1="623.245" y1="1332.773" x2="571.949" y2="1382.536"/>
<line fill="none" stroke="#FFFF00" x1="597.597" y1="1432.296" x2="571.949" y2="1382.536"/>
<line fill="none" stroke="#FFFF00" x1="623.245" y1="1432.296" x2="648.893" y2="1382.536"/>
<line fill="none" stroke="#FFFF00" x1="597.597" y1="1432.296" x2="648.893" y2="1382.536"/>
<line fill="none" stroke="#FFFF00" x1="674.542" y1="1382.536" x2="700.19" y2="1332.773"/>
<line fill="none" stroke="#FFFF00" x1="725.837" y1="1332.773" x2="751.486" y2="1382.536"/>
<line fill="none" stroke="#FFFF00" x1="725.837" y1="1332.773" x2="674.542" y2="1382.536"/>
<line fill="none" stroke="#FFFF00" x1="700.19" y1="1432.296" x2="674.542" y2="1382.536"/>
<line fill="none" stroke="#FFFF00" x1="725.837" y1="1432.296" x2="751.486" y2="1382.536"/>
<line fill="none" stroke="#FFFF00" x1="700.19" y1="1432.296" x2="751.486" y2="1382.536"/>
<line fill="none" stroke="#FFFF00" x1="648.894" y1="1332.772" x2="623.245" y2="1283.012"/>
<line fill="none" stroke="#FFFF00" x1="674.541" y1="1332.772" x2="700.189" y2="1283.012"/>
<line fill="none" stroke="#FFFF00" x1="648.894" y1="1332.772" x2="700.189" y2="1283.012"/>
<line fill="none" stroke="#FFFF00" x1="469.355" y1="1581.579" x2="495.004" y2="1531.816"/>
<line fill="none" stroke="#FFFF00" x1="520.651" y1="1531.816" x2="546.3" y2="1581.579"/>
<line fill="none" stroke="#FFFF00" x1="520.651" y1="1531.816" x2="469.355" y2="1581.579"/>
<line fill="none" stroke="#FFFF00" x1="495.004" y1="1631.339" x2="469.355" y2="1581.579"/>
<line fill="none" stroke="#FFFF00" x1="520.651" y1="1631.339" x2="546.3" y2="1581.579"/>
<line fill="none" stroke="#FFFF00" x1="495.004" y1="1631.339" x2="546.3" y2="1581.579"/>
<line fill="none" stroke="#FFFF00" x1="571.949" y1="1581.579" x2="597.597" y2="1531.816"/>
<line fill="none" stroke="#FFFF00" x1="623.245" y1="1531.816" x2="648.893" y2="1581.579"/>
<line fill="none" stroke="#FFFF00" x1="623.245" y1="1531.816" x2="571.949" y2="1581.579"/>
<line fill="none" stroke="#FFFF00" x1="597.597" y1="1631.339" x2="571.949" y2="1581.579"/>
<line fill="none" stroke="#FFFF00" x1="623.245" y1="1631.339" x2="648.893" y2="1581.579"/>
<line fill="none" stroke="#FFFF00" x1="597.597" y1="1631.339" x2="648.893" y2="1581.579"/>
<line fill="none" stroke="#FFFF00" x1="674.542" y1="1581.579" x2="700.19" y2="1531.816"/>
<line fill="none" stroke="#FFFF00" x1="725.837" y1="1531.816" x2="751.486" y2="1581.579"/>
<line fill="none" stroke="#FFFF00" x1="725.837" y1="1531.816" x2="674.542" y2="1581.579"/>
<line fill="none" stroke="#FFFF00" x1="700.19" y1="1631.339" x2="674.542" y2="1581.579"/>
<line fill="none" stroke="#FFFF00" x1="725.837" y1="1631.339" x2="751.486" y2="1581.579"/>
<line fill="none" stroke="#FFFF00" x1="700.19" y1="1631.339" x2="751.486" y2="1581.579"/>
<line fill="none" stroke="#FFFF00" x1="777.135" y1="1581.579" x2="802.783" y2="1531.816"/>
<line fill="none" stroke="#FFFF00" x1="828.431" y1="1531.816" x2="854.079" y2="1581.579"/>
<line fill="none" stroke="#FFFF00" x1="828.431" y1="1531.816" x2="777.135" y2="1581.579"/>
<line fill="none" stroke="#FFFF00" x1="802.783" y1="1631.339" x2="777.135" y2="1581.579"/>
<line fill="none" stroke="#FFFF00" x1="828.431" y1="1631.339" x2="854.079" y2="1581.579"/>
<line fill="none" stroke="#FFFF00" x1="802.783" y1="1631.339" x2="854.079" y2="1581.579"/>
<line fill="none" stroke="#FFFF00" x1="418.059" y1="1681.302" x2="443.708" y2="1631.539"/>
<line fill="none" stroke="#FFFF00" x1="469.355" y1="1631.539" x2="495.003" y2="1681.302"/>
<line fill="none" stroke="#FFFF00" x1="469.355" y1="1631.539" x2="418.059" y2="1681.302"/>
<line fill="none" stroke="#FFFF00" x1="443.708" y1="1731.062" x2="418.059" y2="1681.302"/>
<line fill="none" stroke="#FFFF00" x1="469.355" y1="1731.062" x2="495.003" y2="1681.302"/>
<line fill="none" stroke="#FFFF00" x1="443.708" y1="1731.062" x2="495.003" y2="1681.302"/>
<line fill="none" stroke="#FFFF00" x1="520.652" y1="1681.302" x2="546.3" y2="1631.539"/>
<line fill="none" stroke="#FFFF00" x1="571.948" y1="1631.539" x2="597.596" y2="1681.302"/>
<line fill="none" stroke="#FFFF00" x1="571.948" y1="1631.539" x2="520.652" y2="1681.302"/>
<line fill="none" stroke="#FFFF00" x1="546.3" y1="1731.062" x2="520.652" y2="1681.302"/>
<line fill="none" stroke="#FFFF00" x1="571.948" y1="1731.062" x2="597.596" y2="1681.302"/>
<line fill="none" stroke="#FFFF00" x1="546.3" y1="1731.062" x2="597.596" y2="1681.302"/>
<line fill="none" stroke="#FFFF00" x1="623.245" y1="1681.302" x2="648.894" y2="1631.539"/>
<line fill="none" stroke="#FFFF00" x1="674.541" y1="1631.539" x2="700.189" y2="1681.302"/>
<line fill="none" stroke="#FFFF00" x1="674.541" y1="1631.539" x2="623.245" y2="1681.302"/>
<line fill="none" stroke="#FFFF00" x1="648.894" y1="1731.062" x2="623.245" y2="1681.302"/>
<line fill="none" stroke="#FFFF00" x1="674.541" y1="1731.062" x2="700.189" y2="1681.302"/>
<line fill="none" stroke="#FFFF00" x1="648.894" y1="1731.062" x2="700.189" y2="1681.302"/>
<line fill="none" stroke="#FFFF00" x1="725.837" y1="1681.302" x2="751.486" y2="1631.539"/>
<line fill="none" stroke="#FFFF00" x1="777.133" y1="1631.539" x2="802.782" y2="1681.302"/>
<line fill="none" stroke="#FFFF00" x1="777.133" y1="1631.539" x2="725.837" y2="1681.302"/>
<line fill="none" stroke="#FFFF00" x1="751.486" y1="1731.062" x2="725.837" y2="1681.302"/>
<line fill="none" stroke="#FFFF00" x1="777.133" y1="1731.062" x2="802.782" y2="1681.302"/>
<line fill="none" stroke="#FFFF00" x1="751.486" y1="1731.062" x2="802.782" y2="1681.302"/>
<line fill="none" stroke="#FFFF00" x1="828.431" y1="1681.302" x2="854.079" y2="1631.539"/>
<line fill="none" stroke="#FFFF00" x1="879.727" y1="1631.539" x2="905.375" y2="1681.302"/>
<line fill="none" stroke="#FFFF00" x1="879.727" y1="1631.539" x2="828.431" y2="1681.302"/>
<line fill="none" stroke="#FFFF00" x1="854.079" y1="1731.062" x2="828.431" y2="1681.302"/>
<line fill="none" stroke="#FFFF00" x1="879.727" y1="1731.062" x2="905.375" y2="1681.302"/>
<line fill="none" stroke="#FFFF00" x1="854.079" y1="1731.062" x2="905.375" y2="1681.302"/>
<line fill="none" stroke="#FFFF00" x1="469.355" y1="1780.243" x2="495.004" y2="1730.48"/>
<line fill="none" stroke="#FFFF00" x1="520.651" y1="1730.48" x2="546.3" y2="1780.243"/>
<line fill="none" stroke="#FFFF00" x1="520.651" y1="1730.48" x2="469.355" y2="1780.243"/>
<line fill="none" stroke="#FFFF00" x1="495.004" y1="1830.003" x2="469.355" y2="1780.243"/>
<line fill="none" stroke="#FFFF00" x1="520.651" y1="1830.003" x2="546.3" y2="1780.243"/>
<line fill="none" stroke="#FFFF00" x1="495.004" y1="1830.003" x2="546.3" y2="1780.243"/>
<line fill="none" stroke="#FFFF00" x1="571.948" y1="1780.243" x2="597.597" y2="1730.48"/>
<line fill="none" stroke="#FFFF00" x1="623.244" y1="1730.48" x2="648.893" y2="1780.243"/>
<line fill="none" stroke="#FFFF00" x1="623.244" y1="1730.48" x2="571.948" y2="1780.243"/>
<line fill="none" stroke="#FFFF00" x1="597.597" y1="1830.003" x2="571.948" y2="1780.243"/>
<line fill="none" stroke="#FFFF00" x1="623.244" y1="1830.003" x2="648.893" y2="1780.243"/>
<line fill="none" stroke="#FFFF00" x1="597.597" y1="1830.003" x2="648.893" y2="1780.243"/>
<line fill="none" stroke="#FFFF00" x1="674.542" y1="1780.243" x2="700.19" y2="1730.48"/>
<line fill="none" stroke="#FFFF00" x1="725.837" y1="1730.48" x2="751.486" y2="1780.243"/>
<line fill="none" stroke="#FFFF00" x1="725.837" y1="1730.48" x2="674.542" y2="1780.243"/>
<line fill="none" stroke="#FFFF00" x1="700.19" y1="1830.003" x2="674.542" y2="1780.243"/>
<line fill="none" stroke="#FFFF00" x1="725.837" y1="1830.003" x2="751.486" y2="1780.243"/>
<line fill="none" stroke="#FFFF00" x1="700.19" y1="1830.003" x2="751.486" y2="1780.243"/>
<line fill="none" stroke="#FFFF00" x1="777.134" y1="1780.243" x2="802.783" y2="1730.48"/>
<line fill="none" stroke="#FFFF00" x1="828.43" y1="1730.48" x2="854.079" y2="1780.243"/>
<line fill="none" stroke="#FFFF00" x1="828.43" y1="1730.48" x2="777.134" y2="1780.243"/>
<line fill="none" stroke="#FFFF00" x1="802.783" y1="1830.003" x2="777.134" y2="1780.243"/>
<line fill="none" stroke="#FFFF00" x1="828.43" y1="1830.003" x2="854.079" y2="1780.243"/>
<line fill="none" stroke="#FFFF00" x1="802.783" y1="1830.003" x2="854.079" y2="1780.243"/>
<line fill="none" stroke="#FFFF00" x1="520.652" y1="1879.764" x2="546.3" y2="1830.001"/>
<line fill="none" stroke="#FFFF00" x1="571.948" y1="1830.001" x2="597.596" y2="1879.764"/>
<line fill="none" stroke="#FFFF00" x1="571.948" y1="1830.001" x2="520.652" y2="1879.764"/>
<line fill="none" stroke="#FFFF00" x1="546.3" y1="1929.523" x2="520.652" y2="1879.764"/>
<line fill="none" stroke="#FFFF00" x1="571.948" y1="1929.523" x2="597.596" y2="1879.764"/>
<line fill="none" stroke="#FFFF00" x1="546.3" y1="1929.523" x2="597.596" y2="1879.764"/>
<line fill="none" stroke="#FFFF00" x1="623.245" y1="1879.764" x2="648.893" y2="1830.001"/>
<line fill="none" stroke="#FFFF00" x1="674.541" y1="1830.001" x2="700.189" y2="1879.764"/>
<line fill="none" stroke="#FFFF00" x1="674.541" y1="1830.001" x2="623.245" y2="1879.764"/>
<line fill="none" stroke="#FFFF00" x1="648.893" y1="1929.523" x2="623.245" y2="1879.764"/>
<line fill="none" stroke="#FFFF00" x1="674.541" y1="1929.523" x2="700.189" y2="1879.764"/>
<line fill="none" stroke="#FFFF00" x1="648.893" y1="1929.523" x2="700.189" y2="1879.764"/>
<line fill="none" stroke="#FFFF00" x1="725.838" y1="1879.764" x2="751.486" y2="1830.001"/>
<line fill="none" stroke="#FFFF00" x1="777.134" y1="1830.001" x2="802.782" y2="1879.764"/>
<line fill="none" stroke="#FFFF00" x1="777.134" y1="1830.001" x2="725.838" y2="1879.764"/>
<line fill="none" stroke="#FFFF00" x1="751.486" y1="1929.523" x2="725.838" y2="1879.764"/>
<line fill="none" stroke="#FFFF00" x1="777.134" y1="1929.523" x2="802.782" y2="1879.764"/>
<line fill="none" stroke="#FFFF00" x1="751.486" y1="1929.523" x2="802.782" y2="1879.764"/>
<line fill="none" stroke="#FFFF00" x1="571.948" y1="1979.286" x2="597.597" y2="1929.523"/>
<line fill="none" stroke="#FFFF00" x1="623.244" y1="1929.523" x2="648.893" y2="1979.286"/>
<line fill="none" stroke="#FFFF00" x1="623.244" y1="1929.523" x2="571.948" y2="1979.286"/>
<line fill="none" stroke="#FFFF00" x1="597.597" y1="2029.046" x2="571.948" y2="1979.286"/>
<line fill="none" stroke="#FFFF00" x1="623.244" y1="2029.046" x2="648.893" y2="1979.286"/>
<line fill="none" stroke="#FFFF00" x1="597.597" y1="2029.046" x2="648.893" y2="1979.286"/>
<line fill="none" stroke="#FFFF00" x1="674.542" y1="1979.286" x2="700.19" y2="1929.523"/>
<line fill="none" stroke="#FFFF00" x1="725.837" y1="1929.523" x2="751.486" y2="1979.286"/>
<line fill="none" stroke="#FFFF00" x1="725.837" y1="1929.523" x2="674.542" y2="1979.286"/>
<line fill="none" stroke="#FFFF00" x1="700.19" y1="2029.046" x2="674.542" y2="1979.286"/>
<line fill="none" stroke="#FFFF00" x1="725.837" y1="2029.046" x2="751.486" y2="1979.286"/>
<line fill="none" stroke="#FFFF00" x1="700.19" y1="2029.046" x2="751.486" y2="1979.286"/>
<line fill="none" stroke="#FFFF00" x1="623.245" y1="2078.808" x2="648.894" y2="2029.045"/>
<line fill="none" stroke="#FFFF00" x1="674.541" y1="2029.045" x2="700.189" y2="2078.808"/>
<line fill="none" stroke="#FFFF00" x1="674.541" y1="2029.045" x2="623.245" y2="2078.808"/>
</svg>
