<?xml version="1.0" encoding="utf-8"?>
<!-- Generator: Adobe Illustrator 16.0.3, SVG Export Plug-In . SVG Version: 6.00 Build 0)  -->
<!DOCTYPE svg PUBLIC "-//W3C//DTD SVG 1.1//EN" "http://www.w3.org/Graphics/SVG/1.1/DTD/svg11.dtd">
<svg version="1.1" id="Layer_1" xmlns="http://www.w3.org/2000/svg" xmlns:xlink="http://www.w3.org/1999/xlink" x="0px" y="0px"
	 width="3456px" height="6912px" viewBox="0 0 3456 6912" enable-background="new 0 0 3456 6912" xml:space="preserve">
<line fill="none" stroke="#000000" stroke-width="6.8053" x1="304.742" y1="1306.519" x2="3184.742" y2="1306.519"/>
<line fill="none" stroke="#000000" stroke-width="6.8053" x1="3184.742" y1="3366.477" x2="3184.742" y2="1306.519"/>
<line fill="none" stroke="#000000" stroke-width="6.8053" x1="3184.742" y1="3366.477" x2="3184.742" y2="5426.471"/>
<line fill="none" stroke="#000000" stroke-width="6.8053" x1="3184.742" y1="5426.471" x2="304.742" y2="5426.471"/>
<line fill="none" stroke="#000000" stroke-width="6.8053" x1="304.742" y1="3366.477" x2="304.742" y2="5426.471"/>
<line fill="none" stroke="#000000" stroke-width="6.8053" x1="304.742" y1="3366.477" x2="304.742" y2="1306.519"/>
<line fill="none" stroke="#0000FF" stroke-width="6.8053" x1="704.747" y1="3366.477" x2="304.742" y2="3366.477"/>
<line fill="none" stroke="#0000FF" stroke-width="6.8053" x1="3184.742" y1="3366.477" x2="2784.736" y2="3366.477"/>
<line fill="none" stroke="#0000FF" stroke-width="6.8053" x1="2220.738" y1="2366.512" x2="2304.753" y2="2366.512"/>
<line fill="none" stroke="#0000FF" stroke-width="6.8053" x1="1981.988" y1="2186.533" x2="2064.759" y2="2186.533"/>
<line fill="none" stroke="#0000FF" stroke-width="6.8053" x1="2064.759" y1="2246.534" x2="2144.747" y2="2246.534"/>
<line fill="none" stroke="#0000FF" stroke-width="6.8053" x1="2144.747" y1="2306.516" x2="2224.756" y2="2306.516"/>
<line fill="none" stroke="#0000FF" stroke-width="6.8053" x1="1904.76" y1="2126.536" x2="1984.77" y2="2126.536"/>
<line fill="none" stroke="#0000FF" stroke-width="6.8053" x1="1744.77" y1="2006.557" x2="1824.766" y2="2006.557"/>
<line fill="none" stroke="#0000FF" stroke-width="6.8053" x1="1824.766" y1="2066.554" x2="1904.76" y2="2066.554"/>
<line fill="none" stroke="#0000FF" stroke-width="6.8053" x1="2304.753" y1="2426.509" x2="2384.747" y2="2426.509"/>
<line fill="none" stroke="#0000FF" stroke-width="6.8053" x1="2384.747" y1="2486.491" x2="2464.754" y2="2486.491"/>
<line fill="none" stroke="#0000FF" stroke-width="6.8053" x1="1104.725" y1="2366.512" x2="1024.729" y2="2366.512"/>
<line fill="none" stroke="#0000FF" stroke-width="6.8053" x1="1344.725" y1="2186.533" x2="1264.716" y2="2186.533"/>
<line fill="none" stroke="#0000FF" stroke-width="6.8053" x1="1264.716" y1="2246.534" x2="1184.732" y2="2246.534"/>
<line fill="none" stroke="#0000FF" stroke-width="6.8053" x1="1184.732" y1="2306.516" x2="1104.725" y2="2306.516"/>
<line fill="none" stroke="#0000FF" stroke-width="6.8053" x1="1424.761" y1="2126.522" x2="1344.725" y2="2126.522"/>
<line fill="none" stroke="#0000FF" stroke-width="6.8053" x1="1584.724" y1="2006.546" x2="1504.729" y2="2006.546"/>
<line fill="none" stroke="#0000FF" stroke-width="6.8053" x1="1504.729" y1="2066.54" x2="1424.735" y2="2066.54"/>
<line fill="none" stroke="#0000FF" stroke-width="6.8053" x1="1744.77" y1="1946.587" x2="1584.752" y2="1946.558"/>
<line fill="none" stroke="#0000FF" stroke-width="6.8053" x1="1024.729" y1="2426.509" x2="944.732" y2="2426.509"/>
<line fill="none" stroke="#0000FF" stroke-width="6.8053" x1="944.732" y1="2486.491" x2="864.725" y2="2486.491"/>
<line fill="none" stroke="#0000FF" stroke-width="6.8053" x1="2464.754" y1="3426.475" x2="2364.736" y2="3426.462"/>
<line fill="none" stroke="#0000FF" stroke-width="6.8053" x1="2784.736" y1="2886.485" x2="2464.754" y2="2886.485"/>
<line fill="none" stroke="#0000FF" stroke-width="6.8053" x1="2084.742" y1="3906.462" x2="1704.752" y2="3906.462"/>
<line fill="none" stroke="#0000FF" stroke-width="6.8053" x1="2184.738" y1="4386.447" x2="2084.742" y2="4386.461"/>
<line fill="none" stroke="#0000FF" stroke-width="6.8053" x1="1704.752" y1="4146.46" x2="1144.742" y2="4146.46"/>
<line fill="none" stroke="#0000FF" stroke-width="6.8053" x1="964.744" y1="4146.46" x2="704.747" y2="4146.46"/>
<line fill="none" stroke="#0000FF" stroke-width="6.8053" x1="2784.736" y1="4386.461" x2="2684.749" y2="4386.461"/>
<line fill="none" stroke="#0000FF" stroke-width="6.8053" x1="2384.732" y1="4386.461" x2="2484.737" y2="4386.461"/>
<line fill="none" stroke="#0000FF" stroke-width="6.8053" x1="2184.738" y1="3426.462" x2="2084.742" y2="3426.462"/>
<line fill="none" stroke="#0000FF" stroke-width="6.8053" x1="1744.756" y1="3106.47" x2="1744.756" y2="3306.459"/>
<line fill="none" stroke="#0000FF" stroke-width="6.8053" x1="2024.746" y1="3106.47" x2="2024.746" y2="3306.459"/>
<line fill="none" stroke="#0000FF" stroke-width="6.8053" x1="1304.748" y1="3106.47" x2="1304.748" y2="3306.459"/>
<line fill="none" stroke="#0000FF" stroke-width="6.8053" x1="1584.752" y1="3106.47" x2="1584.752" y2="3306.459"/>
<line fill="none" stroke="#0000FF" stroke-width="6.8053" x1="864.725" y1="2886.485" x2="704.747" y2="2886.485"/>
<line fill="none" stroke="#0000FF" stroke-width="6.8053" x1="1384.756" y1="3506.458" x2="1304.773" y2="3506.458"/>
<line fill="none" stroke="#0000FF" stroke-width="6.8053" x1="1464.766" y1="3586.452" x2="1384.756" y2="3586.452"/>
<line fill="none" stroke="#0000FF" stroke-width="6.8053" x1="1304.773" y1="3426.475" x2="1144.742" y2="3426.475"/>
<line fill="none" stroke="#0000FF" stroke-width="6.8053" x1="964.744" y1="3426.462" x2="864.725" y2="3426.462"/>
<line fill="none" stroke="#0000FF" stroke-width="6.8053" x1="1544.747" y1="3666.477" x2="1464.766" y2="3666.477"/>
<line fill="none" stroke="#0000FF" stroke-width="6.8053" x1="1624.729" y1="3746.472" x2="1629.609" y2="3746.472"/>
<line fill="none" stroke="#0000FF" stroke-width="6.8053" x1="1624.729" y1="3746.472" x2="1544.747" y2="3746.472"/>
<line fill="none" stroke="#0000FF" stroke-width="6.8053" x1="1704.752" y1="3826.466" x2="1624.729" y2="3826.466"/>
<line fill="none" stroke="#FF0000" stroke-width="6.8053" x1="2784.736" y1="3906.462" x2="2084.742" y2="3906.462"/>
<line fill="none" stroke="#FF0000" stroke-width="6.8053" x1="1304.773" y1="3666.462" x2="704.747" y2="3666.462"/>
<line fill="none" stroke="#FF0000" stroke-width="6.8053" x1="1384.756" y1="3746.457" x2="1304.773" y2="3746.457"/>
<line fill="none" stroke="#FF0000" stroke-width="6.8053" x1="1464.766" y1="3826.452" x2="1384.756" y2="3826.452"/>
<line fill="none" stroke="#FF0000" stroke-width="6.8053" x1="1624.729" y1="3986.457" x2="1544.747" y2="3986.457"/>
<line fill="none" stroke="#FF0000" stroke-width="6.8053" x1="1544.747" y1="3906.447" x2="1464.766" y2="3906.447"/>
<line fill="none" stroke="#FF0000" stroke-width="6.8053" x1="1704.752" y1="4066.453" x2="1624.729" y2="4066.453"/>
<line fill="none" stroke="#FF0000" stroke-width="6.8053" x1="964.744" y1="2966.488" x2="944.732" y2="2966.488"/>
<line fill="none" stroke="#FF0000" stroke-width="6.8053" x1="1044.752" y1="2906.49" x2="1024.729" y2="2906.478"/>
<line fill="none" stroke="#FF0000" stroke-width="6.8053" x1="1124.746" y1="2846.479" x2="1104.738" y2="2846.479"/>
<line fill="none" stroke="#FF0000" stroke-width="6.8053" x1="1204.74" y1="2786.485" x2="1184.732" y2="2786.485"/>
<line fill="none" stroke="#FF0000" stroke-width="6.8053" x1="1284.737" y1="2726.488" x2="1264.729" y2="2726.488"/>
<line fill="none" stroke="#FF0000" stroke-width="6.8053" x1="1364.747" y1="2666.492" x2="1344.738" y2="2666.492"/>
<line fill="none" stroke="#FF0000" stroke-width="6.8053" x1="1444.742" y1="2606.494" x2="1424.735" y2="2606.494"/>
<line fill="none" stroke="#FF0000" stroke-width="6.8053" x1="884.748" y1="3026.488" x2="864.725" y2="3026.488"/>
<line fill="none" stroke="#FF0000" stroke-width="6.8053" x1="1524.751" y1="2546.495" x2="1504.729" y2="2546.495"/>
<line fill="none" stroke="#FF0000" stroke-width="6.8053" x1="1604.746" y1="2486.484" x2="1584.736" y2="2486.484"/>
<line fill="none" stroke="#FF0000" stroke-width="6.8053" x1="1724.747" y1="2486.484" x2="1744.756" y2="2486.484"/>
<line fill="none" stroke="#FF0000" stroke-width="6.8053" x1="1804.742" y1="2546.495" x2="1824.766" y2="2546.495"/>
<line fill="none" stroke="#FF0000" stroke-width="6.8053" x1="1884.752" y1="2606.494" x2="1904.76" y2="2606.494"/>
<line fill="none" stroke="#FF0000" stroke-width="6.8053" x1="1964.747" y1="2666.492" x2="1984.756" y2="2666.492"/>
<line fill="none" stroke="#FF0000" stroke-width="6.8053" x1="2044.736" y1="2726.488" x2="2064.744" y2="2726.488"/>
<line fill="none" stroke="#FF0000" stroke-width="6.8053" x1="2124.737" y1="2786.485" x2="2144.747" y2="2786.485"/>
<line fill="none" stroke="#FF0000" stroke-width="6.8053" x1="2204.732" y1="2846.479" x2="2224.742" y2="2846.479"/>
<line fill="none" stroke="#FF0000" stroke-width="6.8053" x1="2284.729" y1="2906.49" x2="2304.753" y2="2906.478"/>
<line fill="none" stroke="#FF0000" stroke-width="6.8053" x1="2364.736" y1="2966.488" x2="2384.747" y2="2966.488"/>
<line fill="none" stroke="#FF0000" stroke-width="6.8053" x1="2444.732" y1="3026.488" x2="2464.754" y2="3026.488"/>
<line fill="none" stroke="#FFFF00" stroke-width="6.8053" x1="1664.761" y1="2426.502" x2="1584.736" y2="2486.484"/>
<line fill="none" stroke="#FFFF00" stroke-width="6.8053" x1="1664.761" y1="2426.502" x2="1744.756" y2="2486.484"/>
<line fill="none" stroke="#FFFF00" stroke-width="6.8053" x1="1824.766" y1="2546.495" x2="1744.756" y2="2486.484"/>
<line fill="none" stroke="#FFFF00" stroke-width="6.8053" x1="1904.76" y1="2606.494" x2="1824.766" y2="2546.495"/>
<line fill="none" stroke="#FFFF00" stroke-width="6.8053" x1="1984.756" y1="2666.492" x2="1904.76" y2="2606.494"/>
<line fill="none" stroke="#FFFF00" stroke-width="6.8053" x1="2064.744" y1="2726.488" x2="1984.756" y2="2666.492"/>
<line fill="none" stroke="#FFFF00" stroke-width="6.8053" x1="2144.747" y1="2786.485" x2="2064.744" y2="2726.488"/>
<line fill="none" stroke="#FFFF00" stroke-width="6.8053" x1="2224.742" y1="2846.479" x2="2144.747" y2="2786.485"/>
<line fill="none" stroke="#FFFF00" stroke-width="6.8053" x1="2304.753" y1="2906.478" x2="2224.742" y2="2846.479"/>
<line fill="none" stroke="#FFFF00" stroke-width="6.8053" x1="2384.747" y1="2966.488" x2="2304.753" y2="2906.478"/>
<line fill="none" stroke="#FFFF00" stroke-width="6.8053" x1="864.725" y1="3026.488" x2="944.732" y2="2966.488"/>
<line fill="none" stroke="#FFFF00" stroke-width="6.8053" x1="1024.729" y1="2906.478" x2="944.732" y2="2966.488"/>
<line fill="none" stroke="#FFFF00" stroke-width="6.8053" x1="1104.738" y1="2846.479" x2="1024.729" y2="2906.478"/>
<line fill="none" stroke="#FFFF00" stroke-width="6.8053" x1="1184.732" y1="2786.485" x2="1104.738" y2="2846.479"/>
<line fill="none" stroke="#FFFF00" stroke-width="6.8053" x1="1264.729" y1="2726.488" x2="1184.732" y2="2786.485"/>
<line fill="none" stroke="#FFFF00" stroke-width="6.8053" x1="1344.738" y1="2666.492" x2="1264.729" y2="2726.488"/>
<line fill="none" stroke="#FFFF00" stroke-width="6.8053" x1="1424.735" y1="2606.494" x2="1344.738" y2="2666.492"/>
<line fill="none" stroke="#FFFF00" stroke-width="6.8053" x1="1504.729" y1="2546.495" x2="1424.735" y2="2606.494"/>
<line fill="none" stroke="#FFFF00" stroke-width="6.8053" x1="1584.736" y1="2486.484" x2="1504.729" y2="2546.495"/>
<line fill="none" stroke="#FFFF00" stroke-width="6.8053" x1="1664.761" y1="2426.502" x2="1744.77" y2="1946.587"/>
<line fill="none" stroke="#FFFF00" stroke-width="6.8053" x1="1664.761" y1="2426.502" x2="1584.752" y2="1946.558"/>
<line fill="none" stroke="#FFFF00" stroke-width="6.8053" x1="2384.747" y1="2966.488" x2="2464.754" y2="3026.488"/>
<line fill="none" stroke="#FFFF00" stroke-width="6.8053" x1="964.744" y1="3106.47" x2="864.725" y2="3026.488"/>
<line fill="none" stroke="#FFFF00" stroke-width="6.8053" x1="1144.742" y1="3106.47" x2="1304.748" y2="3106.47"/>
<line fill="none" stroke="#FFFF00" stroke-width="6.8053" x1="1584.752" y1="3106.47" x2="1744.756" y2="3106.47"/>
<line fill="none" stroke="#FFFF00" stroke-width="6.8053" x1="2024.746" y1="3106.47" x2="2184.738" y2="3106.47"/>
<line fill="none" stroke="#FFFF00" stroke-width="6.8053" x1="2364.736" y1="3106.47" x2="2464.754" y2="3026.488"/>
<line fill="none" stroke="#FFFF00" stroke-width="6.8053" x1="1744.756" y1="3106.47" x2="1664.761" y2="2426.502"/>
<line fill="none" stroke="#FFFF00" stroke-width="6.8053" x1="1584.752" y1="3106.47" x2="1664.761" y2="2426.502"/>
<line fill="none" stroke="#FFFF00" stroke-width="6.8053" x1="1304.748" y1="3306.459" x2="1304.773" y2="3426.475"/>
<line fill="none" stroke="#FFFF00" stroke-width="6.8053" x1="1304.773" y1="3426.475" x2="1384.756" y2="3506.458"/>
<line fill="none" stroke="#FFFF00" stroke-width="6.8053" x1="1384.756" y1="3506.458" x2="1464.766" y2="3586.452"/>
<line fill="none" stroke="#FFFF00" stroke-width="6.8053" x1="1464.766" y1="3586.452" x2="1544.747" y2="3666.477"/>
<line fill="none" stroke="#FFFF00" stroke-width="6.8053" x1="1544.747" y1="3666.477" x2="1624.729" y2="3746.472"/>
<line fill="none" stroke="#FFFF00" stroke-width="6.8053" x1="1624.729" y1="3746.472" x2="1704.752" y2="3826.466"/>
<line fill="none" stroke="#FFFF00" stroke-width="6.8053" x1="1704.752" y1="3826.466" x2="2084.742" y2="3906.462"/>
<line fill="none" stroke="#FFFF00" stroke-width="6.8053" x1="1704.752" y1="3826.466" x2="2084.742" y2="3426.462"/>
<line fill="none" stroke="#FFFF00" stroke-width="6.8053" x1="1624.729" y1="3746.472" x2="2084.742" y2="3426.462"/>
<line fill="none" stroke="#FFFF00" stroke-width="6.8053" x1="1544.747" y1="3666.477" x2="2084.742" y2="3426.462"/>
<line fill="none" stroke="#FFFF00" stroke-width="6.8053" x1="1464.766" y1="3586.452" x2="2084.742" y2="3426.462"/>
<line fill="none" stroke="#FFFF00" stroke-width="6.8053" x1="1384.756" y1="3506.458" x2="2084.742" y2="3426.462"/>
<line fill="none" stroke="#FFFF00" stroke-width="6.8053" x1="1304.773" y1="3426.475" x2="2084.742" y2="3426.462"/>
<line fill="none" stroke="#FFFF00" stroke-width="6.8053" x1="2084.742" y1="3426.462" x2="2024.746" y2="3306.459"/>
<line fill="none" stroke="#FFFF00" stroke-width="6.8053" x1="1744.756" y1="3306.459" x2="2084.742" y2="3426.462"/>
<line fill="none" stroke="#FFFF00" stroke-width="6.8053" x1="1584.752" y1="3306.459" x2="1304.773" y2="3426.475"/>
<line fill="none" stroke="#FFFF00" stroke-width="6.8053" x1="1584.752" y1="3306.459" x2="1744.756" y2="3306.459"/>
<line fill="none" stroke="#FFFF00" stroke-width="6.8053" x1="864.725" y1="3426.462" x2="704.747" y2="3666.462"/>
<line fill="none" stroke="#FFFF00" stroke-width="6.8053" x1="964.744" y1="3426.462" x2="1144.742" y2="3426.475"/>
<line fill="none" stroke="#FFFF00" stroke-width="6.8053" x1="704.747" y1="3666.462" x2="964.744" y2="3426.462"/>
<line fill="none" stroke="#FFFF00" stroke-width="6.8053" x1="1144.742" y1="3426.475" x2="1304.773" y2="3666.462"/>
<line fill="none" stroke="#FFFF00" stroke-width="6.8053" x1="964.744" y1="3826.466" x2="704.747" y2="3666.462"/>
<line fill="none" stroke="#FFFF00" stroke-width="6.8053" x1="1144.742" y1="3826.466" x2="1304.773" y2="3666.462"/>
<line fill="none" stroke="#FFFF00" stroke-width="6.8053" x1="1304.773" y1="3746.457" x2="1384.756" y2="3826.452"/>
<line fill="none" stroke="#FFFF00" stroke-width="6.8053" x1="1464.766" y1="3906.447" x2="1384.756" y2="3826.452"/>
<line fill="none" stroke="#FFFF00" stroke-width="6.8053" x1="1544.747" y1="3986.457" x2="1464.766" y2="3906.447"/>
<line fill="none" stroke="#FFFF00" stroke-width="6.8053" x1="1624.729" y1="4066.453" x2="1544.747" y2="3986.457"/>
<line fill="none" stroke="#FFFF00" stroke-width="6.8053" x1="1704.752" y1="4146.46" x2="1624.729" y2="4066.453"/>
<line fill="none" stroke="#FFFF00" stroke-width="6.8053" x1="1144.742" y1="4146.46" x2="1624.729" y2="4066.453"/>
<line fill="none" stroke="#FFFF00" stroke-width="6.8053" x1="1144.742" y1="4146.46" x2="1544.747" y2="3986.457"/>
<line fill="none" stroke="#FFFF00" stroke-width="6.8053" x1="1464.766" y1="3906.447" x2="1144.742" y2="4146.46"/>
<line fill="none" stroke="#FFFF00" stroke-width="6.8053" x1="1384.756" y1="3826.452" x2="1144.742" y2="4146.46"/>
<line fill="none" stroke="#FFFF00" stroke-width="6.8053" x1="1304.773" y1="3746.457" x2="1144.742" y2="4146.46"/>
<line fill="none" stroke="#FFFF00" stroke-width="6.8053" x1="1144.742" y1="3826.466" x2="1304.773" y2="3746.457"/>
<line fill="none" stroke="#FFFF00" stroke-width="6.8053" x1="964.744" y1="4146.46" x2="1144.742" y2="4146.46"/>
<line fill="none" stroke="#FFFF00" stroke-width="6.8053" x1="2184.738" y1="3426.462" x2="2364.736" y2="3426.462"/>
<line fill="none" stroke="#FFFF00" stroke-width="6.8053" x1="2464.754" y1="3426.475" x2="2784.736" y2="3906.462"/>
<line fill="none" stroke="#FFFF00" stroke-width="6.8053" x1="2084.742" y1="3906.462" x2="2464.754" y2="3426.475"/>
<line fill="none" stroke="#FFFF00" stroke-width="6.8053" x1="2364.736" y1="3426.462" x2="2084.742" y2="3906.462"/>
<line fill="none" stroke="#FFFF00" stroke-width="6.8053" x1="2184.738" y1="3426.462" x2="2084.742" y2="3906.462"/>
<line fill="none" stroke="#FFFF00" stroke-width="6.8053" x1="2184.726" y1="4006.452" x2="2084.742" y2="3906.462"/>
<line fill="none" stroke="#FFFF00" stroke-width="6.8053" x1="2384.732" y1="4006.452" x2="2484.737" y2="4006.452"/>
<line fill="none" stroke="#FFFF00" stroke-width="6.8053" x1="2684.749" y1="4006.452" x2="2784.736" y2="3906.462"/>
<line fill="none" stroke="#FFFF00" stroke-width="6.8053" x1="2484.737" y1="4006.452" x2="2784.736" y2="3906.462"/>
<line fill="none" stroke="#FFFF00" stroke-width="6.8053" x1="2384.732" y1="4006.452" x2="2084.742" y2="3906.462"/>
<line fill="none" stroke="#FFFF00" stroke-width="6.8053" x1="2184.738" y1="4386.447" x2="2384.732" y2="4386.461"/>
<line fill="none" stroke="#FFFF00" stroke-width="6.8053" x1="2484.737" y1="4386.461" x2="2684.749" y2="4386.461"/>
<line fill="none" stroke="#FFFF00" stroke-width="6.8053" x1="1704.752" y1="4146.46" x2="2084.742" y2="4386.461"/>
<line fill="none" stroke="#FFFF00" stroke-width="6.8053" x1="2784.736" y1="4386.461" x2="3184.742" y2="5426.471"/>
<line fill="none" stroke="#FFFF00" stroke-width="6.8053" x1="2684.749" y1="4386.461" x2="3184.742" y2="5426.471"/>
<line fill="none" stroke="#FFFF00" stroke-width="6.8053" x1="2484.737" y1="4386.461" x2="3184.742" y2="5426.471"/>
<line fill="none" stroke="#FFFF00" stroke-width="6.8053" x1="2384.732" y1="4386.461" x2="3184.742" y2="5426.471"/>
<line fill="none" stroke="#FFFF00" stroke-width="6.8053" x1="2184.738" y1="4386.447" x2="3184.742" y2="5426.471"/>
<line fill="none" stroke="#FFFF00" stroke-width="6.8053" x1="2084.742" y1="4386.461" x2="3184.742" y2="5426.471"/>
<line fill="none" stroke="#FFFF00" stroke-width="6.8053" x1="2084.742" y1="4386.461" x2="304.742" y2="5426.471"/>
<line fill="none" stroke="#FFFF00" stroke-width="6.8053" x1="1704.752" y1="4146.46" x2="304.742" y2="5426.471"/>
<line fill="none" stroke="#FFFF00" stroke-width="6.8053" x1="1144.742" y1="4146.46" x2="304.742" y2="5426.471"/>
<line fill="none" stroke="#FFFF00" stroke-width="6.8053" x1="964.744" y1="4146.46" x2="304.742" y2="5426.471"/>
<line fill="none" stroke="#FFFF00" stroke-width="6.8053" x1="704.747" y1="4146.46" x2="304.742" y2="5426.471"/>
<line fill="none" stroke="#FFFF00" stroke-width="6.8053" x1="704.747" y1="2886.485" x2="304.742" y2="1306.519"/>
<line fill="none" stroke="#FFFF00" stroke-width="6.8053" x1="864.725" y1="2486.491" x2="304.742" y2="1306.519"/>
<line fill="none" stroke="#FFFF00" stroke-width="6.8053" x1="864.725" y1="2886.485" x2="304.742" y2="1306.519"/>
<line fill="none" stroke="#FFFF00" stroke-width="6.8053" x1="1424.735" y1="2066.54" x2="1504.729" y2="2006.546"/>
<line fill="none" stroke="#FFFF00" stroke-width="6.8053" x1="1344.725" y1="2126.522" x2="1424.735" y2="2066.54"/>
<line fill="none" stroke="#FFFF00" stroke-width="6.8053" x1="1264.716" y1="2186.533" x2="1344.725" y2="2126.522"/>
<line fill="none" stroke="#FFFF00" stroke-width="6.8053" x1="1184.732" y1="2246.534" x2="1264.716" y2="2186.533"/>
<line fill="none" stroke="#FFFF00" stroke-width="6.8053" x1="1104.725" y1="2306.516" x2="1184.732" y2="2246.534"/>
<line fill="none" stroke="#FFFF00" stroke-width="6.8053" x1="1024.729" y1="2366.512" x2="1104.725" y2="2306.516"/>
<line fill="none" stroke="#FFFF00" stroke-width="6.8053" x1="944.732" y1="2426.509" x2="1024.729" y2="2366.512"/>
<line fill="none" stroke="#FFFF00" stroke-width="6.8053" x1="944.732" y1="2426.509" x2="864.725" y2="2486.491"/>
<line fill="none" stroke="#FFFF00" stroke-width="6.8053" x1="1504.729" y1="2006.546" x2="1584.752" y2="1946.558"/>
<line fill="none" stroke="#FFFF00" stroke-width="6.8053" x1="1904.76" y1="2066.554" x2="1824.766" y2="2006.557"/>
<line fill="none" stroke="#FFFF00" stroke-width="6.8053" x1="1984.77" y1="2126.536" x2="1904.76" y2="2066.554"/>
<line fill="none" stroke="#FFFF00" stroke-width="6.8053" x1="2064.759" y1="2186.533" x2="1984.77" y2="2126.536"/>
<line fill="none" stroke="#FFFF00" stroke-width="6.8053" x1="2144.747" y1="2246.534" x2="2064.759" y2="2186.533"/>
<line fill="none" stroke="#FFFF00" stroke-width="6.8053" x1="2224.756" y1="2306.516" x2="2144.747" y2="2246.534"/>
<line fill="none" stroke="#FFFF00" stroke-width="6.8053" x1="2304.753" y1="2366.512" x2="2224.756" y2="2306.516"/>
<line fill="none" stroke="#FFFF00" stroke-width="6.8053" x1="2384.747" y1="2426.509" x2="2304.753" y2="2366.512"/>
<line fill="none" stroke="#FFFF00" stroke-width="6.8053" x1="2384.747" y1="2426.509" x2="2464.754" y2="2486.491"/>
<line fill="none" stroke="#FFFF00" stroke-width="6.8053" x1="1824.766" y1="2006.557" x2="1744.77" y2="1946.587"/>
<line fill="none" stroke="#FFFF00" stroke-width="6.8053" x1="944.732" y1="2426.509" x2="304.742" y2="1306.519"/>
<line fill="none" stroke="#FFFF00" stroke-width="6.8053" x1="1024.729" y1="2366.512" x2="304.742" y2="1306.519"/>
<line fill="none" stroke="#FFFF00" stroke-width="6.8053" x1="1104.725" y1="2306.516" x2="304.742" y2="1306.519"/>
<line fill="none" stroke="#FFFF00" stroke-width="6.8053" x1="1184.732" y1="2246.534" x2="304.742" y2="1306.519"/>
<line fill="none" stroke="#FFFF00" stroke-width="6.8053" x1="1264.716" y1="2186.533" x2="304.742" y2="1306.519"/>
<line fill="none" stroke="#FFFF00" stroke-width="6.8053" x1="1344.725" y1="2126.522" x2="304.742" y2="1306.519"/>
<line fill="none" stroke="#FFFF00" stroke-width="6.8053" x1="1424.735" y1="2066.54" x2="304.742" y2="1306.519"/>
<line fill="none" stroke="#FFFF00" stroke-width="6.8053" x1="1504.729" y1="2006.546" x2="304.742" y2="1306.519"/>
<line fill="none" stroke="#FFFF00" stroke-width="6.8053" x1="1584.752" y1="1946.558" x2="304.742" y2="1306.519"/>
<line fill="none" stroke="#FFFF00" stroke-width="6.8053" x1="2464.754" y1="2486.491" x2="3184.742" y2="1306.519"/>
<line fill="none" stroke="#FFFF00" stroke-width="6.8053" x1="3184.742" y1="1306.519" x2="2384.747" y2="2426.509"/>
<line fill="none" stroke="#FFFF00" stroke-width="6.8053" x1="2304.753" y1="2366.512" x2="3184.742" y2="1306.519"/>
<line fill="none" stroke="#FFFF00" stroke-width="6.8053" x1="3184.742" y1="1306.519" x2="2224.756" y2="2306.516"/>
<line fill="none" stroke="#FFFF00" stroke-width="6.8053" x1="2144.747" y1="2246.534" x2="3184.742" y2="1306.519"/>
<line fill="none" stroke="#FFFF00" stroke-width="6.8053" x1="3184.742" y1="1306.519" x2="2064.759" y2="2186.533"/>
<line fill="none" stroke="#FFFF00" stroke-width="6.8053" x1="1984.77" y1="2126.536" x2="3184.742" y2="1306.519"/>
<line fill="none" stroke="#FFFF00" stroke-width="6.8053" x1="3184.742" y1="1306.519" x2="1904.76" y2="2066.554"/>
<line fill="none" stroke="#FFFF00" stroke-width="6.8053" x1="1824.766" y1="2006.557" x2="3184.742" y2="1306.519"/>
<line fill="none" stroke="#FFFF00" stroke-width="6.8053" x1="1744.77" y1="1946.587" x2="3184.742" y2="1306.519"/>
<line fill="none" stroke="#FFFF00" stroke-width="6.8053" x1="2784.736" y1="2886.485" x2="2464.754" y2="2486.491"/>
<line fill="none" stroke="#FFFF00" stroke-width="6.8053" x1="2784.736" y1="2886.485" x2="3184.742" y2="1306.519"/>
<line fill="none" stroke="#FFFF00" stroke-width="6.8053" x1="2444.732" y1="3026.488" x2="2364.736" y2="3106.47"/>
<line fill="none" stroke="#FFFF00" stroke-width="6.8053" x1="2444.732" y1="3026.488" x2="2364.736" y2="2966.488"/>
<line fill="none" stroke="#FFFF00" stroke-width="6.8053" x1="2364.736" y1="2966.488" x2="2284.729" y2="2906.49"/>
<line fill="none" stroke="#FFFF00" stroke-width="6.8053" x1="2284.729" y1="2906.49" x2="2204.732" y2="2846.479"/>
<line fill="none" stroke="#FFFF00" stroke-width="6.8053" x1="2204.732" y1="2846.479" x2="2124.737" y2="2786.485"/>
<line fill="none" stroke="#FFFF00" stroke-width="6.8053" x1="2124.737" y1="2786.485" x2="2044.736" y2="2726.488"/>
<line fill="none" stroke="#FFFF00" stroke-width="6.8053" x1="2044.736" y1="2726.488" x2="1964.747" y2="2666.492"/>
<line fill="none" stroke="#FFFF00" stroke-width="6.8053" x1="1964.747" y1="2666.492" x2="1884.752" y2="2606.494"/>
<line fill="none" stroke="#FFFF00" stroke-width="6.8053" x1="1884.752" y1="2606.494" x2="1804.742" y2="2546.495"/>
<line fill="none" stroke="#FFFF00" stroke-width="6.8053" x1="1804.742" y1="2546.495" x2="1724.747" y2="2486.484"/>
<line fill="none" stroke="#FFFF00" stroke-width="6.8053" x1="1604.746" y1="2486.484" x2="1524.751" y2="2546.495"/>
<line fill="none" stroke="#FFFF00" stroke-width="6.8053" x1="1524.751" y1="2546.495" x2="1444.742" y2="2606.494"/>
<line fill="none" stroke="#FFFF00" stroke-width="6.8053" x1="1444.742" y1="2606.494" x2="1364.747" y2="2666.492"/>
<line fill="none" stroke="#FFFF00" stroke-width="6.8053" x1="1364.747" y1="2666.492" x2="1284.737" y2="2726.488"/>
<line fill="none" stroke="#FFFF00" stroke-width="6.8053" x1="884.748" y1="3026.488" x2="964.744" y2="3106.47"/>
<line fill="none" stroke="#FFFF00" stroke-width="6.8053" x1="884.748" y1="3026.488" x2="964.744" y2="2966.488"/>
<line fill="none" stroke="#FFFF00" stroke-width="6.8053" x1="964.744" y1="2966.488" x2="1044.752" y2="2906.49"/>
<line fill="none" stroke="#FFFF00" stroke-width="6.8053" x1="1044.752" y1="2906.49" x2="1124.746" y2="2846.479"/>
<line fill="none" stroke="#FFFF00" stroke-width="6.8053" x1="1124.746" y1="2846.479" x2="1204.74" y2="2786.485"/>
<line fill="none" stroke="#FFFF00" stroke-width="6.8053" x1="1284.737" y1="2726.488" x2="1204.74" y2="2786.485"/>
<line fill="none" stroke="#FFFF00" stroke-width="6.8053" x1="1444.756" y1="3106.47" x2="1444.742" y2="2606.494"/>
<line fill="none" stroke="#FFFF00" stroke-width="6.8053" x1="1304.748" y1="3106.47" x2="1364.747" y2="2666.492"/>
<line fill="none" stroke="#FFFF00" stroke-width="6.8053" x1="1524.751" y1="2546.495" x2="1444.756" y2="3106.47"/>
<line fill="none" stroke="#FFFF00" stroke-width="6.8053" x1="1604.746" y1="2486.484" x2="1584.752" y2="3106.47"/>
<line fill="none" stroke="#FFFF00" stroke-width="6.8053" x1="1724.747" y1="2486.484" x2="1744.756" y2="3106.47"/>
<line fill="none" stroke="#FFFF00" stroke-width="6.8053" x1="1804.742" y1="2546.495" x2="1884.752" y2="3106.47"/>
<line fill="none" stroke="#FFFF00" stroke-width="6.8053" x1="1884.752" y1="2606.494" x2="1884.752" y2="3106.47"/>
<line fill="none" stroke="#FFFF00" stroke-width="6.8053" x1="2024.746" y1="3106.47" x2="1964.747" y2="2666.492"/>
<line fill="none" stroke="#FFFF00" stroke-width="6.8053" x1="2044.736" y1="2726.488" x2="2024.746" y2="3106.47"/>
<line fill="none" stroke="#FFFF00" stroke-width="6.8053" x1="2124.737" y1="2786.485" x2="2184.738" y2="3106.47"/>
<line fill="none" stroke="#FFFF00" stroke-width="6.8053" x1="2204.732" y1="2846.479" x2="2184.738" y2="3106.47"/>
<line fill="none" stroke="#FFFF00" stroke-width="6.8053" x1="2364.736" y1="3106.47" x2="2284.729" y2="2906.49"/>
<line fill="none" stroke="#FFFF00" stroke-width="6.8053" x1="2364.736" y1="3106.47" x2="2364.736" y2="2966.488"/>
<line fill="none" stroke="#FFFF00" stroke-width="6.8053" x1="1304.748" y1="3106.47" x2="1284.737" y2="2726.488"/>
<line fill="none" stroke="#FFFF00" stroke-width="6.8053" x1="1144.742" y1="3106.47" x2="1204.74" y2="2786.485"/>
<line fill="none" stroke="#FFFF00" stroke-width="6.8053" x1="1144.742" y1="3106.47" x2="1124.746" y2="2846.479"/>
<line fill="none" stroke="#FFFF00" stroke-width="6.8053" x1="964.744" y1="3106.47" x2="1044.752" y2="2906.49"/>
<line fill="none" stroke="#FFFF00" stroke-width="6.8053" x1="964.744" y1="3106.47" x2="964.744" y2="2966.488"/>
<line fill="none" stroke="#00FF00" stroke-width="6.8053" x1="2464.754" y1="2886.485" x2="2464.754" y2="3026.488"/>
<line fill="none" stroke="#00FF00" stroke-width="6.8053" x1="2464.754" y1="2886.485" x2="2464.754" y2="2486.491"/>
<line fill="none" stroke="#00FF00" stroke-width="6.8053" x1="2464.754" y1="3026.488" x2="2464.754" y2="3426.475"/>
<line fill="none" stroke="#00FF00" stroke-width="6.8053" x1="2384.747" y1="2486.491" x2="2384.747" y2="2426.509"/>
<line fill="none" stroke="#00FF00" stroke-width="6.8053" x1="2384.747" y1="2486.491" x2="2384.747" y2="2966.488"/>
<line fill="none" stroke="#00FF00" stroke-width="6.8053" x1="2304.753" y1="2426.509" x2="2304.753" y2="2366.512"/>
<line fill="none" stroke="#00FF00" stroke-width="6.8053" x1="2304.753" y1="2426.509" x2="2304.753" y2="2906.478"/>
<line fill="none" stroke="#00FF00" stroke-width="6.8053" x1="2220.738" y1="2366.512" x2="2224.756" y2="2306.516"/>
<line fill="none" stroke="#00FF00" stroke-width="6.8053" x1="2220.738" y1="2366.512" x2="2224.742" y2="2846.479"/>
<line fill="none" stroke="#00FF00" stroke-width="6.8053" x1="2144.747" y1="2306.516" x2="2144.747" y2="2246.534"/>
<line fill="none" stroke="#00FF00" stroke-width="6.8053" x1="2144.747" y1="2306.516" x2="2144.747" y2="2786.485"/>
<line fill="none" stroke="#00FF00" stroke-width="6.8053" x1="2064.759" y1="2246.534" x2="2064.759" y2="2186.533"/>
<line fill="none" stroke="#00FF00" stroke-width="6.8053" x1="2064.759" y1="2246.534" x2="2064.744" y2="2726.488"/>
<line fill="none" stroke="#00FF00" stroke-width="6.8053" x1="1981.988" y1="2186.533" x2="1984.77" y2="2126.536"/>
<line fill="none" stroke="#00FF00" stroke-width="6.8053" x1="1981.988" y1="2186.533" x2="1984.756" y2="2666.492"/>
<line fill="none" stroke="#00FF00" stroke-width="6.8053" x1="1904.76" y1="2126.536" x2="1904.76" y2="2066.554"/>
<line fill="none" stroke="#00FF00" stroke-width="6.8053" x1="1904.76" y1="2126.536" x2="1904.76" y2="2606.494"/>
<line fill="none" stroke="#00FF00" stroke-width="6.8053" x1="1824.766" y1="2066.554" x2="1824.766" y2="2006.557"/>
<line fill="none" stroke="#00FF00" stroke-width="6.8053" x1="1824.766" y1="2066.554" x2="1824.766" y2="2546.495"/>
<line fill="none" stroke="#00FF00" stroke-width="6.8053" x1="1744.77" y1="2006.557" x2="1744.77" y2="1946.587"/>
<line fill="none" stroke="#00FF00" stroke-width="6.8053" x1="1744.77" y1="2006.557" x2="1744.756" y2="2486.484"/>
<line fill="none" stroke="#00FF00" stroke-width="6.8053" x1="1804.742" y1="2546.495" x2="1744.756" y2="2486.484"/>
<line fill="none" stroke="#00FF00" stroke-width="6.8053" x1="1884.752" y1="2606.494" x2="1824.766" y2="2546.495"/>
<line fill="none" stroke="#00FF00" stroke-width="6.8053" x1="1964.747" y1="2666.492" x2="1904.76" y2="2606.494"/>
<line fill="none" stroke="#00FF00" stroke-width="6.8053" x1="2044.736" y1="2726.488" x2="1984.756" y2="2666.492"/>
<line fill="none" stroke="#00FF00" stroke-width="6.8053" x1="2124.737" y1="2786.485" x2="2064.744" y2="2726.488"/>
<line fill="none" stroke="#00FF00" stroke-width="6.8053" x1="2204.732" y1="2846.479" x2="2144.747" y2="2786.485"/>
<line fill="none" stroke="#00FF00" stroke-width="6.8053" x1="2284.729" y1="2906.49" x2="2224.742" y2="2846.479"/>
<line fill="none" stroke="#00FF00" stroke-width="6.8053" x1="2364.736" y1="2966.488" x2="2304.753" y2="2906.478"/>
<line fill="none" stroke="#00FF00" stroke-width="6.8053" x1="2444.732" y1="3026.488" x2="2384.747" y2="2966.488"/>
<line fill="none" stroke="#00FF00" stroke-width="6.8053" x1="1724.747" y1="2486.484" x2="1664.761" y2="2426.502"/>
<line fill="none" stroke="#00FF00" stroke-width="6.8053" x1="864.725" y1="2886.485" x2="864.725" y2="2486.491"/>
<line fill="none" stroke="#00FF00" stroke-width="6.8053" x1="864.725" y1="3026.488" x2="864.725" y2="2886.485"/>
<line fill="none" stroke="#00FF00" stroke-width="6.8053" x1="864.725" y1="3026.488" x2="864.725" y2="3426.462"/>
<line fill="none" stroke="#00FF00" stroke-width="6.8053" x1="944.732" y1="2486.491" x2="944.732" y2="2426.509"/>
<line fill="none" stroke="#00FF00" stroke-width="6.8053" x1="944.732" y1="2486.491" x2="944.732" y2="2966.488"/>
<line fill="none" stroke="#00FF00" stroke-width="6.8053" x1="1024.729" y1="2426.509" x2="1024.729" y2="2366.512"/>
<line fill="none" stroke="#00FF00" stroke-width="6.8053" x1="1024.729" y1="2426.509" x2="1024.729" y2="2906.478"/>
<line fill="none" stroke="#00FF00" stroke-width="6.8053" x1="1104.725" y1="2366.512" x2="1104.725" y2="2306.516"/>
<line fill="none" stroke="#00FF00" stroke-width="6.8053" x1="1104.725" y1="2366.512" x2="1104.738" y2="2846.479"/>
<line fill="none" stroke="#00FF00" stroke-width="6.8053" x1="1184.732" y1="2306.516" x2="1184.732" y2="2246.534"/>
<line fill="none" stroke="#00FF00" stroke-width="6.8053" x1="1184.732" y1="2306.516" x2="1184.732" y2="2786.485"/>
<line fill="none" stroke="#00FF00" stroke-width="6.8053" x1="1264.716" y1="2246.534" x2="1264.716" y2="2186.533"/>
<line fill="none" stroke="#00FF00" stroke-width="6.8053" x1="1264.716" y1="2246.534" x2="1264.729" y2="2726.488"/>
<line fill="none" stroke="#00FF00" stroke-width="6.8053" x1="1344.725" y1="2186.533" x2="1344.725" y2="2126.522"/>
<line fill="none" stroke="#00FF00" stroke-width="6.8053" x1="1344.725" y1="2186.533" x2="1344.738" y2="2666.492"/>
<line fill="none" stroke="#00FF00" stroke-width="6.8053" x1="1424.761" y1="2126.522" x2="1424.735" y2="2066.54"/>
<line fill="none" stroke="#00FF00" stroke-width="6.8053" x1="1424.761" y1="2126.522" x2="1424.735" y2="2606.494"/>
<line fill="none" stroke="#00FF00" stroke-width="6.8053" x1="1504.729" y1="2066.54" x2="1504.729" y2="2006.546"/>
<line fill="none" stroke="#00FF00" stroke-width="6.8053" x1="1504.729" y1="2066.54" x2="1504.729" y2="2546.495"/>
<line fill="none" stroke="#00FF00" stroke-width="6.8053" x1="1584.724" y1="2006.546" x2="1584.752" y2="1946.558"/>
<line fill="none" stroke="#00FF00" stroke-width="6.8053" x1="1584.724" y1="2006.546" x2="1584.736" y2="2486.484"/>
<line fill="none" stroke="#00FF00" stroke-width="6.8053" x1="1524.751" y1="2546.495" x2="1584.736" y2="2486.484"/>
<line fill="none" stroke="#00FF00" stroke-width="6.8053" x1="1444.742" y1="2606.494" x2="1504.729" y2="2546.495"/>
<line fill="none" stroke="#00FF00" stroke-width="6.8053" x1="1364.747" y1="2666.492" x2="1424.735" y2="2606.494"/>
<line fill="none" stroke="#00FF00" stroke-width="6.8053" x1="1284.737" y1="2726.488" x2="1344.738" y2="2666.492"/>
<line fill="none" stroke="#00FF00" stroke-width="6.8053" x1="1204.74" y1="2786.485" x2="1264.729" y2="2726.488"/>
<line fill="none" stroke="#00FF00" stroke-width="6.8053" x1="1124.746" y1="2846.479" x2="1184.732" y2="2786.485"/>
<line fill="none" stroke="#00FF00" stroke-width="6.8053" x1="1044.752" y1="2906.49" x2="1104.738" y2="2846.479"/>
<line fill="none" stroke="#00FF00" stroke-width="6.8053" x1="964.744" y1="2966.488" x2="1024.729" y2="2906.478"/>
<line fill="none" stroke="#00FF00" stroke-width="6.8053" x1="884.748" y1="3026.488" x2="944.732" y2="2966.488"/>
<line fill="none" stroke="#00FF00" stroke-width="6.8053" x1="1604.746" y1="2486.484" x2="1664.761" y2="2426.502"/>
<line fill="none" stroke="#00FF00" stroke-width="6.8053" x1="2784.736" y1="3366.477" x2="2784.736" y2="3906.462"/>
<line fill="none" stroke="#00FF00" stroke-width="6.8053" x1="2784.736" y1="3366.477" x2="2784.736" y2="2886.485"/>
<line fill="none" stroke="#00FF00" stroke-width="6.8053" x1="2784.736" y1="3906.462" x2="2784.736" y2="4386.461"/>
<line fill="none" stroke="#00FF00" stroke-width="6.8053" x1="2084.742" y1="3906.462" x2="2084.742" y2="3426.462"/>
<line fill="none" stroke="#00FF00" stroke-width="6.8053" x1="2084.742" y1="3906.462" x2="2084.742" y2="4386.461"/>
<line fill="none" stroke="#00FF00" stroke-width="6.8053" x1="704.747" y1="3366.477" x2="704.747" y2="3666.462"/>
<line fill="none" stroke="#00FF00" stroke-width="6.8053" x1="704.747" y1="3366.477" x2="704.747" y2="2886.485"/>
<line fill="none" stroke="#00FF00" stroke-width="6.8053" x1="704.747" y1="3666.462" x2="704.747" y2="4146.46"/>
<line fill="none" stroke="#00FF00" stroke-width="6.8053" x1="1884.752" y1="3306.459" x2="2024.746" y2="3306.459"/>
<line fill="none" stroke="#00FF00" stroke-width="6.8053" x1="1884.752" y1="3306.459" x2="1744.756" y2="3306.459"/>
<line fill="none" stroke="#00FF00" stroke-width="6.8053" x1="1884.752" y1="3106.47" x2="1744.756" y2="3106.47"/>
<line fill="none" stroke="#00FF00" stroke-width="6.8053" x1="1884.752" y1="3106.47" x2="2024.746" y2="3106.47"/>
<line fill="none" stroke="#00FF00" stroke-width="6.8053" x1="1884.752" y1="3106.47" x2="1884.752" y2="3306.459"/>
<line fill="none" stroke="#00FF00" stroke-width="6.8053" x1="1444.756" y1="3306.459" x2="1584.752" y2="3306.459"/>
<line fill="none" stroke="#00FF00" stroke-width="6.8053" x1="1444.756" y1="3306.459" x2="1304.748" y2="3306.459"/>
<line fill="none" stroke="#00FF00" stroke-width="6.8053" x1="1444.756" y1="3106.47" x2="1304.748" y2="3106.47"/>
<line fill="none" stroke="#00FF00" stroke-width="6.8053" x1="1444.756" y1="3106.47" x2="1584.752" y2="3106.47"/>
<line fill="none" stroke="#00FF00" stroke-width="6.8053" x1="1444.756" y1="3106.47" x2="1444.756" y2="3306.459"/>
<line fill="none" stroke="#00FF00" stroke-width="6.8053" x1="1464.766" y1="3666.477" x2="1464.766" y2="3826.452"/>
<line fill="none" stroke="#00FF00" stroke-width="6.8053" x1="1464.766" y1="3666.477" x2="1464.766" y2="3586.452"/>
<line fill="none" stroke="#00FF00" stroke-width="6.8053" x1="1464.766" y1="3826.452" x2="1464.766" y2="3906.447"/>
<line fill="none" stroke="#00FF00" stroke-width="6.8053" x1="1384.756" y1="3586.452" x2="1384.756" y2="3746.457"/>
<line fill="none" stroke="#00FF00" stroke-width="6.8053" x1="1384.756" y1="3586.452" x2="1384.756" y2="3506.458"/>
<line fill="none" stroke="#00FF00" stroke-width="6.8053" x1="1384.756" y1="3746.457" x2="1384.756" y2="3826.452"/>
<line fill="none" stroke="#00FF00" stroke-width="6.8053" x1="1304.773" y1="3506.458" x2="1304.773" y2="3666.462"/>
<line fill="none" stroke="#00FF00" stroke-width="6.8053" x1="1304.773" y1="3506.458" x2="1304.773" y2="3426.475"/>
<line fill="none" stroke="#00FF00" stroke-width="6.8053" x1="1304.773" y1="3666.462" x2="1304.773" y2="3746.457"/>
<line fill="none" stroke="#00FF00" stroke-width="6.8053" x1="1704.752" y1="3906.462" x2="1704.752" y2="4066.453"/>
<line fill="none" stroke="#00FF00" stroke-width="6.8053" x1="1704.752" y1="3906.462" x2="1704.752" y2="3826.466"/>
<line fill="none" stroke="#00FF00" stroke-width="6.8053" x1="1704.752" y1="4066.453" x2="1704.752" y2="4146.46"/>
<line fill="none" stroke="#00FF00" stroke-width="6.8053" x1="1624.729" y1="3826.466" x2="1624.729" y2="3986.457"/>
<line fill="none" stroke="#00FF00" stroke-width="6.8053" x1="1624.729" y1="3826.466" x2="1624.729" y2="3746.472"/>
<line fill="none" stroke="#00FF00" stroke-width="6.8053" x1="1624.729" y1="3986.457" x2="1624.729" y2="4066.453"/>
<line fill="none" stroke="#00FF00" stroke-width="6.8053" x1="1544.747" y1="3746.472" x2="1544.747" y2="3906.447"/>
<line fill="none" stroke="#00FF00" stroke-width="6.8053" x1="1544.747" y1="3746.472" x2="1544.747" y2="3666.477"/>
<line fill="none" stroke="#00FF00" stroke-width="6.8053" x1="1544.747" y1="3906.447" x2="1544.747" y2="3986.457"/>
<line fill="none" stroke="#00FF00" stroke-width="6.8053" x1="1144.742" y1="3826.466" x2="1144.742" y2="4146.46"/>
<line fill="none" stroke="#00FF00" stroke-width="6.8053" x1="964.744" y1="3826.466" x2="1144.742" y2="3826.466"/>
<line fill="none" stroke="#00FF00" stroke-width="6.8053" x1="964.744" y1="4146.46" x2="964.744" y2="3826.466"/>
<line fill="none" stroke="#00FF00" stroke-width="6.8053" x1="2184.726" y1="4006.452" x2="2184.738" y2="4386.447"/>
<line fill="none" stroke="#00FF00" stroke-width="6.8053" x1="2384.732" y1="4006.452" x2="2184.726" y2="4006.452"/>
<line fill="none" stroke="#00FF00" stroke-width="6.8053" x1="2384.732" y1="4386.461" x2="2384.732" y2="4006.452"/>
<line fill="none" stroke="#00FF00" stroke-width="6.8053" x1="2684.749" y1="4006.452" x2="2684.749" y2="4386.461"/>
<line fill="none" stroke="#00FF00" stroke-width="6.8053" x1="2484.737" y1="4006.452" x2="2684.749" y2="4006.452"/>
<line fill="none" stroke="#00FF00" stroke-width="6.8053" x1="2484.737" y1="4386.461" x2="2484.737" y2="4006.452"/>
<line fill="none" stroke="#00FF00" stroke-width="6.8053" x1="2364.736" y1="3106.47" x2="2364.736" y2="3426.462"/>
<line fill="none" stroke="#00FF00" stroke-width="6.8053" x1="2184.738" y1="3106.47" x2="2364.736" y2="3106.47"/>
<line fill="none" stroke="#00FF00" stroke-width="6.8053" x1="2184.738" y1="3426.462" x2="2184.738" y2="3106.47"/>
<line fill="none" stroke="#00FF00" stroke-width="6.8053" x1="1144.742" y1="3106.47" x2="1144.742" y2="3426.475"/>
<line fill="none" stroke="#00FF00" stroke-width="6.8053" x1="964.744" y1="3106.47" x2="1144.742" y2="3106.47"/>
<line fill="none" stroke="#00FF00" stroke-width="6.8053" x1="964.744" y1="3426.462" x2="964.744" y2="3106.47"/>
</svg>
