<?xml version="1.0" encoding="utf-8"?>
<!-- Generator: Adobe Illustrator 16.0.3, SVG Export Plug-In . SVG Version: 6.00 Build 0)  -->
<!DOCTYPE svg PUBLIC "-//W3C//DTD SVG 1.1//EN" "http://www.w3.org/Graphics/SVG/1.1/DTD/svg11.dtd">
<svg version="1.1" id="Layer_1" xmlns="http://www.w3.org/2000/svg" xmlns:xlink="http://www.w3.org/1999/xlink" x="0px" y="0px"
	 width="3456px" height="6912px" viewBox="0 0 3456 6912" enable-background="new 0 0 3456 6912" xml:space="preserve">
<rect x="390.25" y="393.25" fill="none" stroke="#000000" stroke-miterlimit="10" width="2787.5" height="1971.875"/>
<line fill="none" stroke="#00FF00" stroke-miterlimit="10" x1="671.5" y1="582.312" x2="2896.5" y2="582.312"/>
<line fill="none" stroke="#00FF00" stroke-miterlimit="10" x1="671.5" y1="676.062" x2="2896.5" y2="676.062"/>
<line fill="none" stroke="#00FF00" stroke-miterlimit="10" x1="671.5" y1="769.812" x2="2896.5" y2="769.812"/>
<line fill="none" stroke="#00FF00" stroke-miterlimit="10" x1="671.5" y1="863.562" x2="2896.5" y2="863.562"/>
<line fill="none" stroke="#00FF00" stroke-miterlimit="10" x1="671.5" y1="957.312" x2="2896.5" y2="957.312"/>
<line fill="none" stroke="#00FF00" stroke-miterlimit="10" x1="671.5" y1="1051.062" x2="2896.5" y2="1051.062"/>
<line fill="none" stroke="#00FF00" stroke-miterlimit="10" x1="671.5" y1="1144.812" x2="2896.5" y2="1144.812"/>
<line fill="none" stroke="#00FF00" stroke-miterlimit="10" x1="671.5" y1="1238.562" x2="2896.5" y2="1238.562"/>
<line fill="none" stroke="#00FF00" stroke-miterlimit="10" x1="671.5" y1="1332.312" x2="2896.5" y2="1332.312"/>
<line fill="none" stroke="#00FF00" stroke-miterlimit="10" x1="671.5" y1="1426.062" x2="2896.5" y2="1426.062"/>
<line fill="none" stroke="#00FF00" stroke-miterlimit="10" x1="671.5" y1="1519.812" x2="2896.5" y2="1519.812"/>
<line fill="none" stroke="#00FF00" stroke-miterlimit="10" x1="671.5" y1="1613.562" x2="2896.5" y2="1613.562"/>
<line fill="none" stroke="#00FF00" stroke-miterlimit="10" x1="671.5" y1="1707.312" x2="2896.5" y2="1707.312"/>
<line fill="none" stroke="#00FF00" stroke-miterlimit="10" x1="671.5" y1="1801.062" x2="2896.5" y2="1801.062"/>
<line fill="none" stroke="#00FF00" stroke-miterlimit="10" x1="671.5" y1="1894.812" x2="2896.5" y2="1894.812"/>
<line fill="none" stroke="#00FF00" stroke-miterlimit="10" x1="671.5" y1="1988.562" x2="2896.5" y2="1988.562"/>
<line fill="none" stroke="#00FF00" stroke-miterlimit="10" x1="671.5" y1="2082.312" x2="2896.5" y2="2082.312"/>
<line fill="none" stroke="#00FF00" stroke-miterlimit="10" x1="671.5" y1="2176.062" x2="2896.5" y2="2176.062"/>
<line fill="none" stroke="#FF0000" stroke-miterlimit="10" enable-background="new    " x1="1783.75" y1="769.812" x2="1783.75" y2="863.562"/>
<line fill="none" stroke="#0000FF" stroke-miterlimit="10" enable-background="new    " x1="1783.75" y1="676.062" x2="1783.75" y2="769.812"/>
<line fill="none" stroke="#FF0000" stroke-miterlimit="10" enable-background="new    " x1="1783.75" y1="582.312" x2="1783.75" y2="676.062"/>
<line fill="none" stroke="#0000FF" stroke-miterlimit="10" enable-background="new    " x1="1783.75" y1="863.562" x2="1783.75" y2="957.312"/>
<line fill="none" stroke="#FF0000" stroke-miterlimit="10" enable-background="new    " x1="1783.75" y1="957.312" x2="1783.75" y2="1051.062"/>
<line fill="none" stroke="#0000FF" stroke-miterlimit="10" enable-background="new    " x1="1783.75" y1="1051.062" x2="1783.75" y2="1144.812"/>
<line fill="none" stroke="#FF0000" stroke-miterlimit="10" enable-background="new    " x1="1783.75" y1="1144.812" x2="1783.75" y2="1238.562"/>
<line fill="none" stroke="#0000FF" stroke-miterlimit="10" enable-background="new    " x1="1783.75" y1="1238.562" x2="1783.75" y2="1332.312"/>
<line fill="none" stroke="#FF0000" stroke-miterlimit="10" enable-background="new    " x1="1783.75" y1="1332.312" x2="1783.75" y2="1426.062"/>
<line fill="none" stroke="#0000FF" stroke-miterlimit="10" enable-background="new    " x1="1783.75" y1="1426.062" x2="1783.75" y2="1519.812"/>
<line fill="none" stroke="#FF0000" stroke-miterlimit="10" enable-background="new    " x1="1783.75" y1="1519.812" x2="1783.75" y2="1613.562"/>
<line fill="none" stroke="#0000FF" stroke-miterlimit="10" enable-background="new    " x1="1783.75" y1="1613.562" x2="1783.75" y2="1707.312"/>
<line fill="none" stroke="#FF0000" stroke-miterlimit="10" enable-background="new    " x1="1783.75" y1="1707.312" x2="1783.75" y2="1801.062"/>
<line fill="none" stroke="#0000FF" stroke-miterlimit="10" enable-background="new    " x1="1783.75" y1="1801.062" x2="1783.75" y2="1894.812"/>
<line fill="none" stroke="#FF0000" stroke-miterlimit="10" enable-background="new    " x1="1783.75" y1="1894.812" x2="1783.75" y2="1988.562"/>
<line fill="none" stroke="#0000FF" stroke-miterlimit="10" enable-background="new    " x1="1783.75" y1="1988.562" x2="1783.75" y2="2082.312"/>
<line fill="none" stroke="#FF0000" stroke-miterlimit="10" enable-background="new    " x1="1783.75" y1="2082.312" x2="1783.75" y2="2176.062"/>
<line fill="none" stroke="#0000FF" stroke-miterlimit="10" enable-background="new    " x1="2896.5" y1="769.812" x2="2896.5" y2="863.562"/>
<line fill="none" stroke="#0000FF" stroke-miterlimit="10" enable-background="new    " x1="2896.5" y1="582.312" x2="2896.5" y2="676.062"/>
<line fill="none" stroke="#0000FF" stroke-miterlimit="10" enable-background="new    " x1="2896.5" y1="957.312" x2="2896.5" y2="1051.062"/>
<line fill="none" stroke="#0000FF" stroke-miterlimit="10" enable-background="new    " x1="2896.5" y1="1144.812" x2="2896.5" y2="1238.562"/>
<line fill="none" stroke="#0000FF" stroke-miterlimit="10" enable-background="new    " x1="2896.5" y1="1332.312" x2="2896.5" y2="1426.062"/>
<line fill="none" stroke="#0000FF" stroke-miterlimit="10" enable-background="new    " x1="2896.5" y1="1519.812" x2="2896.5" y2="1613.562"/>
<line fill="none" stroke="#0000FF" stroke-miterlimit="10" enable-background="new    " x1="2896.5" y1="1707.312" x2="2896.5" y2="1801.062"/>
<line fill="none" stroke="#0000FF" stroke-miterlimit="10" enable-background="new    " x1="2896.5" y1="1894.812" x2="2896.5" y2="1988.562"/>
<line fill="none" stroke="#0000FF" stroke-miterlimit="10" enable-background="new    " x1="2896.5" y1="2082.312" x2="2896.5" y2="2176.062"/>
<line fill="none" stroke="#0000FF" stroke-miterlimit="10" enable-background="new    " x1="671.5" y1="769.812" x2="671.5" y2="863.562"/>
<line fill="none" stroke="#0000FF" stroke-miterlimit="10" enable-background="new    " x1="671.5" y1="582.312" x2="671.5" y2="676.062"/>
<line fill="none" stroke="#0000FF" stroke-miterlimit="10" enable-background="new    " x1="671.5" y1="957.312" x2="671.5" y2="1051.062"/>
<line fill="none" stroke="#0000FF" stroke-miterlimit="10" enable-background="new    " x1="671.5" y1="1144.812" x2="671.5" y2="1238.562"/>
<line fill="none" stroke="#0000FF" stroke-miterlimit="10" enable-background="new    " x1="671.5" y1="1332.312" x2="671.5" y2="1426.062"/>
<line fill="none" stroke="#0000FF" stroke-miterlimit="10" enable-background="new    " x1="671.5" y1="1519.812" x2="671.5" y2="1613.562"/>
<line fill="none" stroke="#0000FF" stroke-miterlimit="10" enable-background="new    " x1="671.5" y1="1707.312" x2="671.5" y2="1801.062"/>
<line fill="none" stroke="#0000FF" stroke-miterlimit="10" enable-background="new    " x1="671.5" y1="1894.812" x2="671.5" y2="1988.562"/>
<line fill="none" stroke="#0000FF" stroke-miterlimit="10" enable-background="new    " x1="671.5" y1="2082.312" x2="671.5" y2="2176.062"/>
<line fill="none" stroke="#0000FF" stroke-miterlimit="10" enable-background="new    " x1="1783.75" y1="2176.062" x2="1783.75" y2="2365.125"/>
<line fill="none" stroke="#0000FF" stroke-miterlimit="10" enable-background="new    " x1="1784.25" y1="393.25" x2="1784.25" y2="582.312"/>
<line fill="none" stroke="#FFFF00" stroke-miterlimit="10" x1="2896.5" y1="582.312" x2="3177.75" y2="582.312"/>
<line fill="none" stroke="#FFFF00" stroke-miterlimit="10" x1="2896.5" y1="676.062" x2="3177.75" y2="676.062"/>
<line fill="none" stroke="#FFFF00" stroke-miterlimit="10" x1="2896.5" y1="769.812" x2="3177.75" y2="769.812"/>
<line fill="none" stroke="#FFFF00" stroke-miterlimit="10" x1="2896.5" y1="863.562" x2="3177.75" y2="863.562"/>
<line fill="none" stroke="#FFFF00" stroke-miterlimit="10" x1="2896.5" y1="957.312" x2="3177.75" y2="957.312"/>
<line fill="none" stroke="#FFFF00" stroke-miterlimit="10" x1="2896.5" y1="1051.062" x2="3177.75" y2="1051.062"/>
<line fill="none" stroke="#FFFF00" stroke-miterlimit="10" x1="2896.5" y1="1144.812" x2="3177.75" y2="1144.812"/>
<line fill="none" stroke="#FFFF00" stroke-miterlimit="10" x1="2896.5" y1="1238.562" x2="3177.75" y2="1238.562"/>
<line fill="none" stroke="#FFFF00" stroke-miterlimit="10" x1="2896.5" y1="1332.312" x2="3177.75" y2="1332.312"/>
<line fill="none" stroke="#FFFF00" stroke-miterlimit="10" x1="2896.5" y1="1426.062" x2="3177.75" y2="1426.062"/>
<line fill="none" stroke="#FFFF00" stroke-miterlimit="10" x1="2896.5" y1="1519.812" x2="3177.75" y2="1519.812"/>
<line fill="none" stroke="#FFFF00" stroke-miterlimit="10" x1="2896.5" y1="1613.562" x2="3177.75" y2="1613.562"/>
<line fill="none" stroke="#FFFF00" stroke-miterlimit="10" x1="2896.5" y1="1707.312" x2="3177.75" y2="1707.312"/>
<line fill="none" stroke="#FFFF00" stroke-miterlimit="10" x1="2896.5" y1="1801.062" x2="3177.75" y2="1801.062"/>
<line fill="none" stroke="#FFFF00" stroke-miterlimit="10" x1="2896.5" y1="1894.812" x2="3177.75" y2="1894.812"/>
<line fill="none" stroke="#FFFF00" stroke-miterlimit="10" x1="2896.5" y1="1988.562" x2="3177.75" y2="1988.562"/>
<line fill="none" stroke="#FFFF00" stroke-miterlimit="10" x1="2896.5" y1="2082.312" x2="3177.75" y2="2082.312"/>
<line fill="none" stroke="#FFFF00" stroke-miterlimit="10" x1="2896.5" y1="2176.062" x2="3177.75" y2="2176.062"/>
<line fill="none" stroke="#FFFF00" stroke-miterlimit="10" x1="390.25" y1="582.312" x2="671.5" y2="582.312"/>
<line fill="none" stroke="#FFFF00" stroke-miterlimit="10" x1="390.25" y1="676.062" x2="671.5" y2="676.062"/>
<line fill="none" stroke="#FFFF00" stroke-miterlimit="10" x1="390.25" y1="769.812" x2="671.5" y2="769.812"/>
<line fill="none" stroke="#FFFF00" stroke-miterlimit="10" x1="390.25" y1="863.562" x2="671.5" y2="863.562"/>
<line fill="none" stroke="#FFFF00" stroke-miterlimit="10" x1="390.25" y1="957.312" x2="671.5" y2="957.312"/>
<line fill="none" stroke="#FFFF00" stroke-miterlimit="10" x1="390.25" y1="1051.062" x2="671.5" y2="1051.062"/>
<line fill="none" stroke="#FFFF00" stroke-miterlimit="10" x1="390.25" y1="1144.812" x2="671.5" y2="1144.812"/>
<line fill="none" stroke="#FFFF00" stroke-miterlimit="10" x1="390.25" y1="1238.562" x2="671.5" y2="1238.562"/>
<line fill="none" stroke="#FFFF00" stroke-miterlimit="10" x1="390.25" y1="1332.312" x2="671.5" y2="1332.312"/>
<line fill="none" stroke="#FFFF00" stroke-miterlimit="10" x1="390.25" y1="1426.062" x2="671.5" y2="1426.062"/>
<line fill="none" stroke="#FFFF00" stroke-miterlimit="10" x1="390.25" y1="1519.812" x2="671.5" y2="1519.812"/>
<line fill="none" stroke="#FFFF00" stroke-miterlimit="10" x1="390.25" y1="1613.562" x2="671.5" y2="1613.562"/>
<line fill="none" stroke="#FFFF00" stroke-miterlimit="10" x1="390.25" y1="1707.312" x2="671.5" y2="1707.312"/>
<line fill="none" stroke="#FFFF00" stroke-miterlimit="10" x1="390.25" y1="1801.062" x2="671.5" y2="1801.062"/>
<line fill="none" stroke="#FFFF00" stroke-miterlimit="10" x1="390.25" y1="1894.812" x2="671.5" y2="1894.812"/>
<line fill="none" stroke="#FFFF00" stroke-miterlimit="10" x1="390.25" y1="1988.562" x2="671.5" y2="1988.562"/>
<line fill="none" stroke="#FFFF00" stroke-miterlimit="10" x1="390.25" y1="2082.312" x2="671.5" y2="2082.312"/>
<line fill="none" stroke="#FFFF00" stroke-miterlimit="10" x1="390.25" y1="2176.062" x2="671.5" y2="2176.062"/>
<line fill="none" stroke="#FFFF00" stroke-miterlimit="10" x1="2896.5" y1="676.062" x2="2896.5" y2="769.812"/>
<line fill="none" stroke="#FFFF00" stroke-miterlimit="10" x1="2896.5" y1="863.562" x2="2896.5" y2="957.312"/>
<line fill="none" stroke="#FFFF00" stroke-miterlimit="10" x1="2896.5" y1="1051.062" x2="2896.5" y2="1144.812"/>
<line fill="none" stroke="#FFFF00" stroke-miterlimit="10" x1="2896.5" y1="1238.562" x2="2896.5" y2="1332.312"/>
<line fill="none" stroke="#FFFF00" stroke-miterlimit="10" x1="2896.5" y1="1426.062" x2="2896.5" y2="1519.812"/>
<line fill="none" stroke="#FFFF00" stroke-miterlimit="10" x1="2896.5" y1="1613.562" x2="2896.5" y2="1707.312"/>
<line fill="none" stroke="#FFFF00" stroke-miterlimit="10" x1="2896.5" y1="1801.062" x2="2896.5" y2="1894.812"/>
<line fill="none" stroke="#FFFF00" stroke-miterlimit="10" x1="2896.5" y1="1988.562" x2="2896.5" y2="2082.312"/>
<line fill="none" stroke="#FFFF00" stroke-miterlimit="10" x1="671.5" y1="1988.562" x2="671.5" y2="2082.312"/>
<line fill="none" stroke="#FFFF00" stroke-miterlimit="10" x1="671.5" y1="1801.062" x2="671.5" y2="1894.812"/>
<line fill="none" stroke="#FFFF00" stroke-miterlimit="10" x1="671.5" y1="1613.562" x2="671.5" y2="1707.312"/>
<line fill="none" stroke="#FFFF00" stroke-miterlimit="10" x1="671.5" y1="1426.062" x2="671.5" y2="1519.812"/>
<line fill="none" stroke="#FFFF00" stroke-miterlimit="10" x1="671.5" y1="1238.562" x2="671.5" y2="1332.312"/>
<line fill="none" stroke="#FFFF00" stroke-miterlimit="10" x1="671.5" y1="1051.062" x2="671.5" y2="1144.812"/>
<line fill="none" stroke="#FFFF00" stroke-miterlimit="10" x1="671.5" y1="863.562" x2="671.5" y2="957.312"/>
<line fill="none" stroke="#FFFF00" stroke-miterlimit="10" x1="671.5" y1="676.062" x2="671.5" y2="769.812"/>
</svg>
