<?xml version="1.0" encoding="utf-8"?>
<!-- Generator: Adobe Illustrator 16.0.3, SVG Export Plug-In . SVG Version: 6.00 Build 0)  -->
<!DOCTYPE svg PUBLIC "-//W3C//DTD SVG 1.1//EN" "http://www.w3.org/Graphics/SVG/1.1/DTD/svg11.dtd">
<svg version="1.1" id="Layer_1" xmlns="http://www.w3.org/2000/svg" xmlns:xlink="http://www.w3.org/1999/xlink" x="0px" y="0px"
	 width="596px" height="842.4px" viewBox="0 0 596 842.4" enable-background="new 0 0 596 842.4" xml:space="preserve">
<line fill="none" stroke="#00FF00" stroke-width="1.018" stroke-linecap="round" stroke-linejoin="round" x1="419.168" y1="373.375" x2="419.168" y2="350.27"/>
<line opacity="0.5" fill="none" stroke="#FF0000" stroke-width="0.9072" stroke-linecap="round" stroke-linejoin="round" stroke-dasharray="4.536,1.8144,0.9072,1.8144,0.9072,1.8144" x1="174.957" y1="578.727" x2="194.383" y2="578.727"/>
<line opacity="0.5" fill="none" stroke="#FF0000" stroke-width="0.9072" stroke-linecap="round" stroke-linejoin="round" stroke-dasharray="4.536,1.8144,0.9072,1.8144,0.9072,1.8144" x1="399.738" y1="598.152" x2="399.738" y2="578.727"/>
<line opacity="0.5" fill="none" stroke="#FF0000" stroke-width="0.9072" stroke-linecap="round" stroke-linejoin="round" stroke-dasharray="4.536,1.8144,0.9072,1.8144,0.9072,1.8144" x1="419.168" y1="373.375" x2="399.738" y2="373.375"/>
<line opacity="0.5" fill="none" stroke="#FF0000" stroke-width="0.9072" stroke-linecap="round" stroke-linejoin="round" stroke-dasharray="4.536,1.8144,0.9072,1.8144,0.9072,1.8144" x1="469.742" y1="330.844" x2="442.27" y2="330.844"/>
<line opacity="0.5" fill="none" stroke="#FF0000" stroke-width="0.9072" stroke-linecap="round" stroke-linejoin="round" stroke-dasharray="4.536,1.8144,0.9072,1.8144,0.9072,1.8144" x1="194.387" y1="353.945" x2="194.387" y2="373.375"/>
<line opacity="0.5" fill="none" stroke="#FF0000" stroke-width="0.9072" stroke-linecap="round" stroke-linejoin="round" stroke-dasharray="4.536,1.8144,0.9072,1.8144,0.9072,1.8144" x1="151.855" y1="303.367" x2="151.855" y2="330.844"/>
<line opacity="0.5" fill="none" stroke="#FF0000" stroke-width="0.9072" stroke-linecap="round" stroke-linejoin="round" stroke-dasharray="4.536,1.8144,0.9072,1.8144,0.9072,1.8144" x1="442.27" y1="648.734" x2="442.27" y2="621.253"/>
<line opacity="0.5" fill="none" stroke="#FF0000" stroke-width="0.9072" stroke-linecap="round" stroke-linejoin="round" stroke-dasharray="4.536,1.8144,0.9072,1.8144,0.9072,1.8144" x1="124.379" y1="621.253" x2="151.855" y2="621.253"/>
<line fill="none" stroke="#00FF00" stroke-width="0.9072" stroke-linecap="round" stroke-linejoin="round" x1="224.457" y1="578.727" x2="369.664" y2="578.727"/>
<line fill="none" stroke="#00FF00" stroke-width="0.9072" stroke-linecap="round" stroke-linejoin="round" x1="194.387" y1="578.727" x2="213.812" y2="598.152"/>
<line fill="none" stroke="#00FF00" stroke-width="0.9072" stroke-linecap="round" stroke-linejoin="round" x1="213.812" y1="598.152" x2="399.738" y2="598.152"/>
<line fill="none" stroke="#00FF00" stroke-width="0.9072" stroke-linecap="round" stroke-linejoin="round" x1="399.738" y1="578.727" x2="419.168" y2="559.301"/>
<line fill="none" stroke="#00FF00" stroke-width="0.9072" stroke-linecap="round" stroke-linejoin="round" x1="399.738" y1="598.152" x2="422.844" y2="598.152"/>
<line fill="none" stroke="#00FF00" stroke-width="0.9072" stroke-linecap="round" stroke-linejoin="round" x1="422.844" y1="598.152" x2="442.27" y2="578.727"/>
<line fill="none" stroke="#00FF00" stroke-width="0.9072" stroke-linecap="round" stroke-linejoin="round" x1="194.387" y1="403.445" x2="194.387" y2="548.652"/>
<line fill="none" stroke="#00FF00" stroke-width="0.9072" stroke-linecap="round" stroke-linejoin="round" x1="369.666" y1="373.375" x2="224.459" y2="373.375"/>
<line fill="none" stroke="#00FF00" stroke-width="0.9072" stroke-linecap="round" stroke-linejoin="round" x1="419.168" y1="559.301" x2="419.168" y2="373.375"/>
<line fill="none" stroke="#00FF00" stroke-width="0.9072" stroke-linecap="round" stroke-linejoin="round" x1="399.738" y1="548.652" x2="399.738" y2="403.445"/>
<line fill="none" stroke="#00FF00" stroke-width="0.9072" stroke-linecap="round" stroke-linejoin="round" x1="442.27" y1="578.727" x2="442.27" y2="373.375"/>
<line fill="none" stroke="#00FF00" stroke-width="0.9072" stroke-linecap="round" stroke-linejoin="round" x1="174.957" y1="578.727" x2="174.957" y2="601.832"/>
<line fill="none" stroke="#00FF00" stroke-width="0.9072" stroke-linecap="round" stroke-linejoin="round" x1="469.742" y1="330.844" x2="469.742" y2="298.168"/>
<line fill="none" stroke="#00FF00" stroke-width="0.9072" stroke-linecap="round" stroke-linejoin="round" x1="151.855" y1="621.253" x2="179.328" y2="648.734"/>
<line fill="none" stroke="#00FF00" stroke-width="0.9072" stroke-linecap="round" stroke-linejoin="round" x1="442.27" y1="648.734" x2="474.941" y2="648.734"/>
<line fill="none" stroke="#00FF00" stroke-width="0.9072" stroke-linecap="round" stroke-linejoin="round" x1="419.168" y1="350.27" x2="399.738" y2="330.844"/>
<line fill="none" stroke="#00FF00" stroke-width="0.9072" stroke-linecap="round" stroke-linejoin="round" x1="174.957" y1="601.832" x2="194.383" y2="621.253"/>
<line fill="none" stroke="#00FF00" stroke-width="0.9072" stroke-linecap="round" stroke-linejoin="round" x1="194.387" y1="621.253" x2="399.738" y2="621.253"/>
<line fill="none" stroke="#00FF00" stroke-width="0.9072" stroke-linecap="round" stroke-linejoin="round" x1="399.738" y1="373.375" x2="380.312" y2="353.941"/>
<line fill="none" stroke="#00FF00" stroke-width="0.9072" stroke-linecap="round" stroke-linejoin="round" x1="124.379" y1="621.253" x2="124.379" y2="653.934"/>
<line fill="none" stroke="#00FF00" stroke-width="0.9072" stroke-linecap="round" stroke-linejoin="round" x1="442.27" y1="330.844" x2="414.797" y2="303.367"/>
<line fill="none" stroke="#00FF00" stroke-width="0.9072" stroke-linecap="round" stroke-linejoin="round" x1="469.742" y1="298.168" x2="442.27" y2="270.695"/>
<line fill="none" stroke="#00FF00" stroke-width="0.9072" stroke-linecap="round" stroke-linejoin="round" x1="179.328" y1="648.734" x2="442.27" y2="648.734"/>
<line fill="none" stroke="#00FF00" stroke-width="0.9072" stroke-linecap="round" stroke-linejoin="round" x1="194.387" y1="353.945" x2="171.281" y2="353.945"/>
<line fill="none" stroke="#00FF00" stroke-width="0.9072" stroke-linecap="round" stroke-linejoin="round" x1="442.27" y1="621.253" x2="469.742" y2="593.785"/>
<line fill="none" stroke="#00FF00" stroke-width="0.9072" stroke-linecap="round" stroke-linejoin="round" x1="469.742" y1="593.785" x2="469.742" y2="330.844"/>
<line fill="none" stroke="#00FF00" stroke-width="0.9072" stroke-linecap="round" stroke-linejoin="round" x1="194.387" y1="373.375" x2="174.957" y2="392.801"/>
<line fill="none" stroke="#00FF00" stroke-width="0.9072" stroke-linecap="round" stroke-linejoin="round" x1="151.855" y1="330.844" x2="124.379" y2="358.316"/>
<line fill="none" stroke="#00FF00" stroke-width="0.9072" stroke-linecap="round" stroke-linejoin="round" x1="151.855" y1="303.367" x2="119.18" y2="303.367"/>
<line fill="none" stroke="#00FF00" stroke-width="0.9072" stroke-linecap="round" stroke-linejoin="round" x1="119.18" y1="303.367" x2="91.707" y2="330.844"/>
<line fill="none" stroke="#00FF00" stroke-width="0.9072" stroke-linecap="round" stroke-linejoin="round" x1="474.941" y1="648.734" x2="502.414" y2="621.253"/>
<line fill="none" stroke="#00FF00" stroke-width="0.9072" stroke-linecap="round" stroke-linejoin="round" x1="502.418" y1="621.253" x2="502.418" y2="330.844"/>
<line fill="none" stroke="#00FF00" stroke-width="0.9072" stroke-linecap="round" stroke-linejoin="round" x1="399.738" y1="330.844" x2="194.387" y2="330.844"/>
<line fill="none" stroke="#00FF00" stroke-width="0.9072" stroke-linecap="round" stroke-linejoin="round" x1="380.312" y1="353.945" x2="194.383" y2="353.945"/>
<line fill="none" stroke="#00FF00" stroke-width="0.9072" stroke-linecap="round" stroke-linejoin="round" x1="124.379" y1="653.93" x2="151.855" y2="681.406"/>
<line fill="none" stroke="#00FF00" stroke-width="0.9072" stroke-linecap="round" stroke-linejoin="round" x1="151.855" y1="681.406" x2="442.27" y2="681.406"/>
<line fill="none" stroke="#00FF00" stroke-width="0.9072" stroke-linecap="round" stroke-linejoin="round" x1="414.797" y1="303.367" x2="151.855" y2="303.367"/>
<line fill="none" stroke="#00FF00" stroke-width="0.9072" stroke-linecap="round" stroke-linejoin="round" x1="442.27" y1="270.695" x2="151.855" y2="270.695"/>
<line fill="none" stroke="#00FF00" stroke-width="0.9072" stroke-linecap="round" stroke-linejoin="round" x1="171.281" y1="353.945" x2="151.855" y2="373.375"/>
<line fill="none" stroke="#00FF00" stroke-width="0.9072" stroke-linecap="round" stroke-linejoin="round" x1="151.855" y1="373.375" x2="151.855" y2="578.727"/>
<line fill="none" stroke="#00FF00" stroke-width="0.9072" stroke-linecap="round" stroke-linejoin="round" x1="174.957" y1="392.801" x2="174.957" y2="578.727"/>
<line fill="none" stroke="#00FF00" stroke-width="0.9072" stroke-linecap="round" stroke-linejoin="round" x1="124.379" y1="358.316" x2="124.379" y2="621.258"/>
<line fill="none" stroke="#00FF00" stroke-width="0.9072" stroke-linecap="round" stroke-linejoin="round" x1="91.707" y1="330.844" x2="91.707" y2="621.253"/>
<line opacity="0.5" fill="none" stroke="#0000FF" stroke-width="0.9072" stroke-linecap="round" stroke-linejoin="round" stroke-dasharray="5.4432,1.8144" x1="442.27" y1="648.734" x2="442.27" y2="681.406"/>
<line opacity="0.5" fill="none" stroke="#0000FF" stroke-width="0.9072" stroke-linecap="round" stroke-linejoin="round" stroke-dasharray="5.4432,1.8144" x1="399.738" y1="578.727" x2="399.738" y2="548.652"/>
<line opacity="0.5" fill="none" stroke="#0000FF" stroke-width="0.9072" stroke-linecap="round" stroke-linejoin="round" stroke-dasharray="5.4432,1.8144" x1="369.664" y1="578.727" x2="399.738" y2="578.727"/>
<line opacity="0.5" fill="none" stroke="#0000FF" stroke-width="0.9072" stroke-linecap="round" stroke-linejoin="round" stroke-dasharray="5.4432,1.8144" x1="194.387" y1="578.727" x2="224.457" y2="578.727"/>
<line opacity="0.5" fill="none" stroke="#0000FF" stroke-width="0.9072" stroke-linecap="round" stroke-linejoin="round" stroke-dasharray="5.4432,1.8144" x1="194.387" y1="548.652" x2="194.387" y2="578.727"/>
<line opacity="0.5" fill="none" stroke="#0000FF" stroke-width="0.9072" stroke-linecap="round" stroke-linejoin="round" stroke-dasharray="5.4432,1.8144" x1="151.855" y1="621.253" x2="194.383" y2="621.253"/>
<line opacity="0.5" fill="none" stroke="#0000FF" stroke-width="0.9072" stroke-linecap="round" stroke-linejoin="round" stroke-dasharray="5.4432,1.8144" x1="174.957" y1="578.727" x2="151.855" y2="578.727"/>
<line opacity="0.5" fill="none" stroke="#0000FF" stroke-width="0.9072" stroke-linecap="round" stroke-linejoin="round" stroke-dasharray="5.4432,1.8144" x1="151.855" y1="578.727" x2="151.855" y2="621.253"/>
<line opacity="0.5" fill="none" stroke="#0000FF" stroke-width="0.9072" stroke-linecap="round" stroke-linejoin="round" stroke-dasharray="5.4432,1.8144" x1="442.27" y1="621.253" x2="442.27" y2="578.727"/>
<line opacity="0.5" fill="none" stroke="#0000FF" stroke-width="0.9072" stroke-linecap="round" stroke-linejoin="round" stroke-dasharray="5.4432,1.8144" x1="399.738" y1="598.152" x2="399.738" y2="621.253"/>
<line opacity="0.5" fill="none" stroke="#0000FF" stroke-width="0.9072" stroke-linecap="round" stroke-linejoin="round" stroke-dasharray="5.4432,1.8144" x1="399.738" y1="621.253" x2="442.27" y2="621.253"/>
<line opacity="0.5" fill="none" stroke="#0000FF" stroke-width="0.9072" stroke-linecap="round" stroke-linejoin="round" stroke-dasharray="5.4432,1.8144" x1="124.379" y1="621.253" x2="91.707" y2="621.253"/>
<line opacity="0.5" fill="none" stroke="#0000FF" stroke-width="0.9072" stroke-linecap="round" stroke-linejoin="round" stroke-dasharray="5.4432,1.8144" x1="399.74" y1="373.375" x2="369.666" y2="373.375"/>
<line opacity="0.5" fill="none" stroke="#0000FF" stroke-width="0.9072" stroke-linecap="round" stroke-linejoin="round" stroke-dasharray="5.4432,1.8144" x1="399.738" y1="403.445" x2="399.738" y2="373.375"/>
<line opacity="0.5" fill="none" stroke="#0000FF" stroke-width="0.9072" stroke-linecap="round" stroke-linejoin="round" stroke-dasharray="5.4432,1.8144" x1="442.27" y1="330.844" x2="399.738" y2="330.844"/>
<line opacity="0.5" fill="none" stroke="#0000FF" stroke-width="0.9072" stroke-linecap="round" stroke-linejoin="round" stroke-dasharray="5.4432,1.8144" x1="419.168" y1="373.375" x2="442.27" y2="373.375"/>
<line opacity="0.5" fill="none" stroke="#0000FF" stroke-width="0.9072" stroke-linecap="round" stroke-linejoin="round" stroke-dasharray="5.4432,1.8144" x1="442.27" y1="373.375" x2="442.27" y2="330.84"/>
<line opacity="0.5" fill="none" stroke="#0000FF" stroke-width="0.9072" stroke-linecap="round" stroke-linejoin="round" stroke-dasharray="5.4432,1.8144" x1="469.742" y1="330.844" x2="502.418" y2="330.844"/>
<line opacity="0.5" fill="none" stroke="#0000FF" stroke-width="0.9072" stroke-linecap="round" stroke-linejoin="round" stroke-dasharray="5.4432,1.8144" x1="194.387" y1="373.375" x2="194.387" y2="403.445"/>
<line opacity="0.5" fill="none" stroke="#0000FF" stroke-width="0.9072" stroke-linecap="round" stroke-linejoin="round" stroke-dasharray="5.4432,1.8144" x1="224.459" y1="373.375" x2="194.389" y2="373.375"/>
<line opacity="0.5" fill="none" stroke="#0000FF" stroke-width="0.9072" stroke-linecap="round" stroke-linejoin="round" stroke-dasharray="5.4432,1.8144" x1="151.855" y1="330.844" x2="151.855" y2="373.375"/>
<line opacity="0.5" fill="none" stroke="#0000FF" stroke-width="0.9072" stroke-linecap="round" stroke-linejoin="round" stroke-dasharray="5.4432,1.8144" x1="194.387" y1="353.945" x2="194.387" y2="330.844"/>
<line opacity="0.5" fill="none" stroke="#0000FF" stroke-width="0.9072" stroke-linecap="round" stroke-linejoin="round" stroke-dasharray="5.4432,1.8144" x1="194.387" y1="330.844" x2="151.855" y2="330.844"/>
<line opacity="0.5" fill="none" stroke="#0000FF" stroke-width="0.9072" stroke-linecap="round" stroke-linejoin="round" stroke-dasharray="5.4432,1.8144" x1="151.855" y1="303.367" x2="151.855" y2="270.695"/>
<line fill="none" stroke="#FFFF00" stroke-width="0.9072" stroke-linecap="round" stroke-linejoin="round" x1="119.18" y1="303.367" x2="52.855" y2="231.84"/>
<line fill="none" stroke="#FFFF00" stroke-width="0.9072" stroke-linecap="round" stroke-linejoin="round" x1="91.707" y1="330.844" x2="52.855" y2="231.84"/>
<line fill="none" stroke="#FFFF00" stroke-width="0.9072" stroke-linecap="round" stroke-linejoin="round" x1="151.855" y1="270.695" x2="52.855" y2="231.84"/>
<line fill="none" stroke="#FFFF00" stroke-width="0.9072" stroke-linecap="round" stroke-linejoin="round" x1="442.27" y1="270.695" x2="541.273" y2="231.84"/>
<line fill="none" stroke="#FFFF00" stroke-width="0.9072" stroke-linecap="round" stroke-linejoin="round" x1="469.742" y1="298.168" x2="541.273" y2="231.84"/>
<line fill="none" stroke="#FFFF00" stroke-width="0.9072" stroke-linecap="round" stroke-linejoin="round" x1="502.418" y1="330.844" x2="541.273" y2="231.84"/>
<line fill="none" stroke="#FFFF00" stroke-width="0.9072" stroke-linecap="round" stroke-linejoin="round" x1="502.414" y1="621.253" x2="541.273" y2="720.262"/>
<line fill="none" stroke="#FFFF00" stroke-width="0.9072" stroke-linecap="round" stroke-linejoin="round" x1="474.941" y1="648.734" x2="541.273" y2="720.262"/>
<line fill="none" stroke="#FFFF00" stroke-width="0.9072" stroke-linecap="round" stroke-linejoin="round" x1="442.27" y1="681.406" x2="541.273" y2="720.262"/>
<line fill="none" stroke="#FFFF00" stroke-width="0.9072" stroke-linecap="round" stroke-linejoin="round" x1="91.707" y1="621.253" x2="52.855" y2="720.262"/>
<line fill="none" stroke="#FFFF00" stroke-width="0.9072" stroke-linecap="round" stroke-linejoin="round" x1="124.379" y1="653.934" x2="52.855" y2="720.262"/>
<line fill="none" stroke="#FFFF00" stroke-width="0.9072" stroke-linecap="round" stroke-linejoin="round" x1="151.855" y1="681.406" x2="52.855" y2="720.262"/>
<line fill="none" stroke="#FFFF00" stroke-width="0.9072" stroke-linecap="round" stroke-linejoin="round" x1="179.328" y1="648.734" x2="151.855" y2="681.406"/>
<line fill="none" stroke="#FFFF00" stroke-width="0.9072" stroke-linecap="round" stroke-linejoin="round" x1="151.855" y1="681.406" x2="151.855" y2="621.253"/>
<line fill="none" stroke="#FFFF00" stroke-width="0.9072" stroke-linecap="round" stroke-linejoin="round" x1="502.414" y1="621.253" x2="469.742" y2="593.785"/>
<line fill="none" stroke="#FFFF00" stroke-width="0.9072" stroke-linecap="round" stroke-linejoin="round" x1="502.414" y1="621.253" x2="442.27" y2="621.253"/>
<line fill="none" stroke="#FFFF00" stroke-width="0.9072" stroke-linecap="round" stroke-linejoin="round" x1="442.27" y1="270.695" x2="442.27" y2="330.84"/>
<line fill="none" stroke="#FFFF00" stroke-width="0.9072" stroke-linecap="round" stroke-linejoin="round" x1="442.27" y1="270.695" x2="414.797" y2="303.367"/>
<line fill="none" stroke="#FFFF00" stroke-width="0.9072" stroke-linecap="round" stroke-linejoin="round" x1="91.707" y1="330.844" x2="124.379" y2="358.316"/>
<line fill="none" stroke="#FFFF00" stroke-width="0.9072" stroke-linecap="round" stroke-linejoin="round" x1="91.707" y1="330.844" x2="151.855" y2="330.844"/>
<line fill="none" stroke="#FFFF00" stroke-width="0.9072" stroke-linecap="round" stroke-linejoin="round" x1="414.797" y1="303.367" x2="194.387" y2="330.844"/>
<line fill="none" stroke="#FFFF00" stroke-width="0.9072" stroke-linecap="round" stroke-linejoin="round" x1="399.738" y1="330.844" x2="380.312" y2="353.945"/>
<line fill="none" stroke="#FFFF00" stroke-width="0.9072" stroke-linecap="round" stroke-linejoin="round" x1="399.738" y1="330.844" x2="399.738" y2="373.375"/>
<line fill="none" stroke="#FFFF00" stroke-width="0.9072" stroke-linecap="round" stroke-linejoin="round" x1="380.312" y1="353.945" x2="224.457" y2="373.375"/>
<line fill="none" stroke="#FFFF00" stroke-width="0.9072" stroke-linecap="round" stroke-linejoin="round" x1="171.281" y1="353.945" x2="151.855" y2="330.844"/>
<line fill="none" stroke="#FFFF00" stroke-width="0.9072" stroke-linecap="round" stroke-linejoin="round" x1="419.168" y1="350.27" x2="442.27" y2="330.84"/>
<line fill="none" stroke="#FFFF00" stroke-width="0.9072" stroke-linecap="round" stroke-linejoin="round" x1="422.844" y1="598.152" x2="442.27" y2="621.253"/>
<line fill="none" stroke="#FFFF00" stroke-width="0.9072" stroke-linecap="round" stroke-linejoin="round" x1="174.957" y1="601.832" x2="151.855" y2="621.253"/>
<line fill="none" stroke="#FFFF00" stroke-width="0.9072" stroke-linecap="round" stroke-linejoin="round" x1="151.855" y1="578.727" x2="124.379" y2="358.316"/>
<line fill="none" stroke="#FFFF00" stroke-width="0.9072" stroke-linecap="round" stroke-linejoin="round" x1="151.855" y1="373.375" x2="174.957" y2="392.801"/>
<line fill="none" stroke="#FFFF00" stroke-width="0.9072" stroke-linecap="round" stroke-linejoin="round" x1="151.855" y1="373.375" x2="194.387" y2="373.375"/>
<line fill="none" stroke="#FFFF00" stroke-width="0.9072" stroke-linecap="round" stroke-linejoin="round" x1="174.957" y1="392.801" x2="194.387" y2="548.652"/>
<line fill="none" stroke="#FFFF00" stroke-width="0.9072" stroke-linecap="round" stroke-linejoin="round" x1="194.383" y1="621.253" x2="213.812" y2="598.152"/>
<line fill="none" stroke="#FFFF00" stroke-width="0.9072" stroke-linecap="round" stroke-linejoin="round" x1="194.383" y1="621.253" x2="194.383" y2="578.727"/>
<line fill="none" stroke="#FFFF00" stroke-width="0.9072" stroke-linecap="round" stroke-linejoin="round" x1="179.328" y1="648.734" x2="399.738" y2="621.253"/>
<line fill="none" stroke="#FFFF00" stroke-width="0.9072" stroke-linecap="round" stroke-linejoin="round" x1="369.664" y1="578.727" x2="213.812" y2="598.152"/>
<line fill="none" stroke="#FFFF00" stroke-width="0.9072" stroke-linecap="round" stroke-linejoin="round" x1="399.738" y1="578.727" x2="442.27" y2="578.727"/>
<line fill="none" stroke="#FFFF00" stroke-width="0.9072" stroke-linecap="round" stroke-linejoin="round" x1="442.27" y1="578.727" x2="419.168" y2="559.301"/>
<line fill="none" stroke="#FFFF00" stroke-width="0.9072" stroke-linecap="round" stroke-linejoin="round" x1="419.168" y1="559.301" x2="399.738" y2="403.445"/>
<line fill="none" stroke="#FFFF00" stroke-width="0.9072" stroke-linecap="round" stroke-linejoin="round" x1="469.742" y1="593.785" x2="442.27" y2="373.375"/>
<line fill="none" stroke="#00FF00" stroke-width="1.018" stroke-linecap="round" stroke-linejoin="round" x1="340.229" y1="439.749" x2="340.229" y2="431.581"/>
<line fill="none" stroke="#00FF00" stroke-width="1.018" stroke-linecap="round" stroke-linejoin="round" x1="358.112" y1="424.713" x2="358.112" y2="413.161"/>
<line fill="none" stroke="#00FF00" stroke-width="1.018" stroke-linecap="round" stroke-linejoin="round" x1="333.36" y1="519.22" x2="341.53" y2="519.22"/>
<path opacity="0.5" fill="none" stroke="#FF0000" stroke-width="0.9072" stroke-linecap="round" stroke-linejoin="round" stroke-dasharray="4.536,1.8144,0.9072,1.8144,0.9072,1.8144" d="
	M333.36,519.22v-6.869 M253.888,512.351h6.869 M236.008,527.388h9.712 M348.398,537.102v-9.714 M340.229,439.749h-6.865
	 M358.112,424.713h-9.714 M383.399,403.45h-13.738 M260.757,432.882v6.866 M245.723,414.997v9.717 M224.459,389.709v13.74
	 M369.661,562.391v-13.74 M210.72,548.651h13.74"/>
<line fill="none" stroke="#00FF00" stroke-width="0.9072" stroke-linecap="round" stroke-linejoin="round" x1="267.629" y1="519.22" x2="333.363" y2="519.22"/>
<line fill="none" stroke="#00FF00" stroke-width="0.9072" stroke-linecap="round" stroke-linejoin="round" x1="260.757" y1="512.351" x2="267.629" y2="519.22"/>
<line fill="none" stroke="#00FF00" stroke-width="0.9072" stroke-linecap="round" stroke-linejoin="round" x1="253.888" y1="512.351" x2="253.888" y2="520.52"/>
<line fill="none" stroke="#00FF00" stroke-width="0.9072" stroke-linecap="round" stroke-linejoin="round" x1="253.888" y1="520.52" x2="260.757" y2="527.388"/>
<line fill="none" stroke="#00FF00" stroke-width="0.9072" stroke-linecap="round" stroke-linejoin="round" x1="260.757" y1="527.388" x2="333.36" y2="527.388"/>
<line fill="none" stroke="#00FF00" stroke-width="0.9072" stroke-linecap="round" stroke-linejoin="round" x1="245.723" y1="527.388" x2="255.438" y2="537.102"/>
<line fill="none" stroke="#00FF00" stroke-width="0.9072" stroke-linecap="round" stroke-linejoin="round" x1="255.438" y1="537.102" x2="348.398" y2="537.102"/>
<line fill="none" stroke="#00FF00" stroke-width="0.9072" stroke-linecap="round" stroke-linejoin="round" x1="348.398" y1="527.388" x2="358.112" y2="517.675"/>
<line fill="none" stroke="#00FF00" stroke-width="0.9072" stroke-linecap="round" stroke-linejoin="round" x1="341.53" y1="519.22" x2="348.398" y2="512.351"/>
<line fill="none" stroke="#00FF00" stroke-width="0.9072" stroke-linecap="round" stroke-linejoin="round" x1="348.398" y1="537.102" x2="359.951" y2="537.102"/>
<line fill="none" stroke="#00FF00" stroke-width="0.9072" stroke-linecap="round" stroke-linejoin="round" x1="359.951" y1="537.102" x2="369.661" y2="527.388"/>
<line fill="none" stroke="#00FF00" stroke-width="0.9072" stroke-linecap="round" stroke-linejoin="round" x1="245.723" y1="439.749" x2="245.723" y2="512.351"/>
<line fill="none" stroke="#00FF00" stroke-width="0.9072" stroke-linecap="round" stroke-linejoin="round" x1="253.888" y1="446.618" x2="253.888" y2="512.351"/>
<line fill="none" stroke="#00FF00" stroke-width="0.9072" stroke-linecap="round" stroke-linejoin="round" x1="333.36" y1="512.351" x2="340.229" y2="505.485"/>
<line fill="none" stroke="#00FF00" stroke-width="0.9072" stroke-linecap="round" stroke-linejoin="round" x1="333.36" y1="439.749" x2="326.493" y2="432.882"/>
<line fill="none" stroke="#00FF00" stroke-width="0.9072" stroke-linecap="round" stroke-linejoin="round" x1="326.493" y1="432.882" x2="260.757" y2="432.882"/>
<line fill="none" stroke="#00FF00" stroke-width="0.9072" stroke-linecap="round" stroke-linejoin="round" x1="260.757" y1="432.882" x2="252.591" y2="432.882"/>
<line fill="none" stroke="#00FF00" stroke-width="0.9072" stroke-linecap="round" stroke-linejoin="round" x1="252.591" y1="432.882" x2="245.72" y2="439.749"/>
<line fill="none" stroke="#00FF00" stroke-width="0.9072" stroke-linecap="round" stroke-linejoin="round" x1="260.757" y1="439.749" x2="253.89" y2="446.618"/>
<line fill="none" stroke="#00FF00" stroke-width="0.9072" stroke-linecap="round" stroke-linejoin="round" x1="340.229" y1="431.581" x2="333.363" y2="424.713"/>
<line fill="none" stroke="#00FF00" stroke-width="0.9072" stroke-linecap="round" stroke-linejoin="round" x1="333.36" y1="424.713" x2="260.757" y2="424.713"/>
<line fill="none" stroke="#00FF00" stroke-width="0.9072" stroke-linecap="round" stroke-linejoin="round" x1="358.112" y1="517.675" x2="358.112" y2="424.713"/>
<line fill="none" stroke="#00FF00" stroke-width="0.9072" stroke-linecap="round" stroke-linejoin="round" x1="348.398" y1="512.351" x2="348.398" y2="439.749"/>
<line fill="none" stroke="#00FF00" stroke-width="0.9072" stroke-linecap="round" stroke-linejoin="round" x1="340.229" y1="505.482" x2="340.229" y2="439.749"/>
<line fill="none" stroke="#00FF00" stroke-width="0.9072" stroke-linecap="round" stroke-linejoin="round" x1="369.661" y1="527.388" x2="369.661" y2="424.713"/>
<line fill="none" stroke="#00FF00" stroke-width="0.9072" stroke-linecap="round" stroke-linejoin="round" x1="236.008" y1="527.388" x2="236.008" y2="538.941"/>
<line fill="none" stroke="#00FF00" stroke-width="0.9072" stroke-linecap="round" stroke-linejoin="round" x1="383.399" y1="403.45" x2="383.399" y2="387.111"/>
<line fill="none" stroke="#00FF00" stroke-width="0.9072" stroke-linecap="round" stroke-linejoin="round" x1="224.459" y1="548.651" x2="238.194" y2="562.391"/>
<line fill="none" stroke="#00FF00" stroke-width="0.9072" stroke-linecap="round" stroke-linejoin="round" x1="369.661" y1="562.391" x2="385.997" y2="562.391"/>
<line fill="none" stroke="#00FF00" stroke-width="0.9072" stroke-linecap="round" stroke-linejoin="round" x1="358.112" y1="413.161" x2="348.398" y2="403.45"/>
<line fill="none" stroke="#00FF00" stroke-width="0.9072" stroke-linecap="round" stroke-linejoin="round" x1="236.008" y1="538.941" x2="245.72" y2="548.651"/>
<line fill="none" stroke="#00FF00" stroke-width="0.9072" stroke-linecap="round" stroke-linejoin="round" x1="245.723" y1="548.651" x2="348.398" y2="548.651"/>
<line fill="none" stroke="#00FF00" stroke-width="0.9072" stroke-linecap="round" stroke-linejoin="round" x1="348.398" y1="424.713" x2="338.683" y2="414.996"/>
<line fill="none" stroke="#00FF00" stroke-width="0.9072" stroke-linecap="round" stroke-linejoin="round" x1="210.72" y1="548.651" x2="210.72" y2="564.992"/>
<line fill="none" stroke="#00FF00" stroke-width="0.9072" stroke-linecap="round" stroke-linejoin="round" x1="369.661" y1="403.45" x2="355.927" y2="389.709"/>
<line fill="none" stroke="#00FF00" stroke-width="0.9072" stroke-linecap="round" stroke-linejoin="round" x1="383.399" y1="387.111" x2="369.661" y2="373.375"/>
<line fill="none" stroke="#00FF00" stroke-width="0.9072" stroke-linecap="round" stroke-linejoin="round" x1="238.194" y1="562.391" x2="369.661" y2="562.391"/>
<line fill="none" stroke="#00FF00" stroke-width="0.9072" stroke-linecap="round" stroke-linejoin="round" x1="245.723" y1="414.997" x2="234.17" y2="414.997"/>
<line fill="none" stroke="#00FF00" stroke-width="0.9072" stroke-linecap="round" stroke-linejoin="round" x1="369.661" y1="548.651" x2="383.399" y2="534.92"/>
<line fill="none" stroke="#00FF00" stroke-width="0.9072" stroke-linecap="round" stroke-linejoin="round" x1="383.399" y1="534.92" x2="383.399" y2="403.45"/>
<line fill="none" stroke="#00FF00" stroke-width="0.9072" stroke-linecap="round" stroke-linejoin="round" x1="245.723" y1="424.713" x2="236.008" y2="434.427"/>
<line fill="none" stroke="#00FF00" stroke-width="0.9072" stroke-linecap="round" stroke-linejoin="round" x1="224.459" y1="403.45" x2="210.72" y2="417.184"/>
<line fill="none" stroke="#00FF00" stroke-width="0.9072" stroke-linecap="round" stroke-linejoin="round" x1="224.459" y1="389.709" x2="208.121" y2="389.709"/>
<line fill="none" stroke="#00FF00" stroke-width="0.9072" stroke-linecap="round" stroke-linejoin="round" x1="208.121" y1="389.709" x2="194.384" y2="403.45"/>
<line fill="none" stroke="#00FF00" stroke-width="0.9072" stroke-linecap="round" stroke-linejoin="round" x1="385.997" y1="562.391" x2="399.733" y2="548.651"/>
<line fill="none" stroke="#00FF00" stroke-width="0.9072" stroke-linecap="round" stroke-linejoin="round" x1="399.735" y1="548.651" x2="399.735" y2="403.45"/>
<line fill="none" stroke="#00FF00" stroke-width="0.9072" stroke-linecap="round" stroke-linejoin="round" x1="348.398" y1="403.45" x2="245.723" y2="403.45"/>
<line fill="none" stroke="#00FF00" stroke-width="0.9072" stroke-linecap="round" stroke-linejoin="round" x1="338.683" y1="414.997" x2="245.72" y2="414.997"/>
<line fill="none" stroke="#00FF00" stroke-width="0.9072" stroke-linecap="round" stroke-linejoin="round" x1="210.72" y1="564.988" x2="224.459" y2="578.726"/>
<line fill="none" stroke="#00FF00" stroke-width="0.9072" stroke-linecap="round" stroke-linejoin="round" x1="224.459" y1="578.726" x2="369.661" y2="578.726"/>
<line fill="none" stroke="#00FF00" stroke-width="0.9072" stroke-linecap="round" stroke-linejoin="round" x1="355.927" y1="389.709" x2="224.459" y2="389.709"/>
<line fill="none" stroke="#00FF00" stroke-width="0.9072" stroke-linecap="round" stroke-linejoin="round" x1="369.661" y1="373.375" x2="224.459" y2="373.375"/>
<line fill="none" stroke="#00FF00" stroke-width="0.9072" stroke-linecap="round" stroke-linejoin="round" x1="234.17" y1="414.997" x2="224.459" y2="424.713"/>
<line fill="none" stroke="#00FF00" stroke-width="0.9072" stroke-linecap="round" stroke-linejoin="round" x1="224.459" y1="424.713" x2="224.459" y2="527.388"/>
<line fill="none" stroke="#00FF00" stroke-width="0.9072" stroke-linecap="round" stroke-linejoin="round" x1="236.008" y1="434.427" x2="236.008" y2="527.388"/>
<line fill="none" stroke="#00FF00" stroke-width="0.9072" stroke-linecap="round" stroke-linejoin="round" x1="210.72" y1="417.184" x2="210.72" y2="548.652"/>
<line fill="none" stroke="#00FF00" stroke-width="0.9072" stroke-linecap="round" stroke-linejoin="round" x1="194.384" y1="403.45" x2="194.384" y2="548.651"/>
<path opacity="0.5" fill="none" stroke="#0000FF" stroke-width="0.9072" stroke-linecap="round" stroke-linejoin="round" stroke-dasharray="5.4432,1.8144" d="
	M369.661,562.391v16.335 M348.398,527.388v-15.037 M333.36,519.22v8.168 M333.36,527.388h15.038 M245.723,527.388h15.034
	 M253.888,512.351h-8.165 M245.723,512.351v15.037 M224.459,548.651h21.261 M236.008,527.388h-11.548 M224.459,527.388v21.263
	 M369.661,548.651v-21.263 M348.398,537.102v11.549 M348.398,548.651h21.263 M210.72,548.651h-16.335 M348.398,424.713H333.36
	 M340.229,439.749h8.17 M348.398,439.749v-15.035 M369.661,403.45h-21.263 M358.112,424.713h11.549 M369.661,424.713v-21.266
	 M383.399,403.45h16.336 M245.723,424.713v15.035 M260.757,432.882v-8.169 M260.757,424.713h-15.034 M224.459,403.45v21.264
	 M245.723,414.997V403.45 M245.723,403.45h-21.264 M224.459,389.709v-16.334 M333.36,512.351h-72.604 M260.757,512.351v-72.603
	 M333.36,439.749v72.603 M260.757,439.749h72.604"/>
<line fill="none" stroke="#FFFF00" stroke-width="0.9072" stroke-linecap="round" stroke-linejoin="round" x1="238.194" y1="562.391" x2="224.459" y2="578.726"/>
<line fill="none" stroke="#FFFF00" stroke-width="0.9072" stroke-linecap="round" stroke-linejoin="round" x1="224.459" y1="578.726" x2="224.459" y2="548.651"/>
<line fill="none" stroke="#FFFF00" stroke-width="0.9072" stroke-linecap="round" stroke-linejoin="round" x1="399.733" y1="548.651" x2="383.399" y2="534.92"/>
<line fill="none" stroke="#FFFF00" stroke-width="0.9072" stroke-linecap="round" stroke-linejoin="round" x1="399.733" y1="548.651" x2="369.661" y2="548.651"/>
<line fill="none" stroke="#FFFF00" stroke-width="0.9072" stroke-linecap="round" stroke-linejoin="round" x1="369.661" y1="373.375" x2="369.661" y2="403.448"/>
<line fill="none" stroke="#FFFF00" stroke-width="0.9072" stroke-linecap="round" stroke-linejoin="round" x1="369.661" y1="373.375" x2="355.927" y2="389.709"/>
<line fill="none" stroke="#FFFF00" stroke-width="0.9072" stroke-linecap="round" stroke-linejoin="round" x1="194.384" y1="403.45" x2="210.72" y2="417.184"/>
<line fill="none" stroke="#FFFF00" stroke-width="0.9072" stroke-linecap="round" stroke-linejoin="round" x1="194.384" y1="403.45" x2="224.459" y2="403.45"/>
<line fill="none" stroke="#FFFF00" stroke-width="0.9072" stroke-linecap="round" stroke-linejoin="round" x1="355.927" y1="389.709" x2="245.723" y2="403.45"/>
<line fill="none" stroke="#FFFF00" stroke-width="0.9072" stroke-linecap="round" stroke-linejoin="round" x1="348.398" y1="403.45" x2="338.683" y2="414.997"/>
<line fill="none" stroke="#FFFF00" stroke-width="0.9072" stroke-linecap="round" stroke-linejoin="round" x1="348.398" y1="403.45" x2="348.398" y2="424.713"/>
<line fill="none" stroke="#FFFF00" stroke-width="0.9072" stroke-linecap="round" stroke-linejoin="round" x1="338.683" y1="414.997" x2="260.757" y2="424.713"/>
<line fill="none" stroke="#FFFF00" stroke-width="0.9072" stroke-linecap="round" stroke-linejoin="round" x1="333.363" y1="424.713" x2="333.363" y2="439.749"/>
<line fill="none" stroke="#FFFF00" stroke-width="0.9072" stroke-linecap="round" stroke-linejoin="round" x1="333.363" y1="424.713" x2="326.493" y2="432.882"/>
<line fill="none" stroke="#FFFF00" stroke-width="0.9072" stroke-linecap="round" stroke-linejoin="round" x1="234.17" y1="414.997" x2="224.459" y2="403.45"/>
<line fill="none" stroke="#FFFF00" stroke-width="0.9072" stroke-linecap="round" stroke-linejoin="round" x1="252.591" y1="432.882" x2="245.723" y2="424.713"/>
<line fill="none" stroke="#FFFF00" stroke-width="0.9072" stroke-linecap="round" stroke-linejoin="round" x1="340.229" y1="431.581" x2="348.398" y2="424.713"/>
<line fill="none" stroke="#FFFF00" stroke-width="0.9072" stroke-linecap="round" stroke-linejoin="round" x1="358.112" y1="413.161" x2="369.661" y2="403.448"/>
<line fill="none" stroke="#FFFF00" stroke-width="0.9072" stroke-linecap="round" stroke-linejoin="round" x1="359.951" y1="537.102" x2="369.661" y2="548.651"/>
<line fill="none" stroke="#FFFF00" stroke-width="0.9072" stroke-linecap="round" stroke-linejoin="round" x1="341.53" y1="519.22" x2="348.398" y2="527.388"/>
<line fill="none" stroke="#FFFF00" stroke-width="0.9072" stroke-linecap="round" stroke-linejoin="round" x1="253.888" y1="520.52" x2="245.72" y2="527.388"/>
<line fill="none" stroke="#FFFF00" stroke-width="0.9072" stroke-linecap="round" stroke-linejoin="round" x1="236.008" y1="538.941" x2="224.459" y2="548.651"/>
<line fill="none" stroke="#FFFF00" stroke-width="0.9072" stroke-linecap="round" stroke-linejoin="round" x1="224.459" y1="527.388" x2="210.72" y2="417.184"/>
<line fill="none" stroke="#FFFF00" stroke-width="0.9072" stroke-linecap="round" stroke-linejoin="round" x1="224.459" y1="424.713" x2="236.008" y2="434.427"/>
<line fill="none" stroke="#FFFF00" stroke-width="0.9072" stroke-linecap="round" stroke-linejoin="round" x1="224.459" y1="424.713" x2="245.723" y2="424.713"/>
<line fill="none" stroke="#FFFF00" stroke-width="0.9072" stroke-linecap="round" stroke-linejoin="round" x1="245.72" y1="439.749" x2="253.89" y2="446.618"/>
<line fill="none" stroke="#FFFF00" stroke-width="0.9072" stroke-linecap="round" stroke-linejoin="round" x1="245.72" y1="439.749" x2="260.757" y2="439.749"/>
<line fill="none" stroke="#FFFF00" stroke-width="0.9072" stroke-linecap="round" stroke-linejoin="round" x1="236.008" y1="434.427" x2="245.723" y2="512.351"/>
<line fill="none" stroke="#FFFF00" stroke-width="0.9072" stroke-linecap="round" stroke-linejoin="round" x1="253.89" y1="446.618" x2="260.757" y2="512.351"/>
<line fill="none" stroke="#FFFF00" stroke-width="0.9072" stroke-linecap="round" stroke-linejoin="round" x1="267.629" y1="519.22" x2="333.36" y2="512.351"/>
<line fill="none" stroke="#FFFF00" stroke-width="0.9072" stroke-linecap="round" stroke-linejoin="round" x1="245.72" y1="548.651" x2="255.438" y2="537.102"/>
<line fill="none" stroke="#FFFF00" stroke-width="0.9072" stroke-linecap="round" stroke-linejoin="round" x1="245.72" y1="548.651" x2="245.72" y2="527.388"/>
<line fill="none" stroke="#FFFF00" stroke-width="0.9072" stroke-linecap="round" stroke-linejoin="round" x1="238.194" y1="562.391" x2="348.398" y2="548.651"/>
<line fill="none" stroke="#FFFF00" stroke-width="0.9072" stroke-linecap="round" stroke-linejoin="round" x1="333.36" y1="527.388" x2="255.438" y2="537.102"/>
<line fill="none" stroke="#FFFF00" stroke-width="0.9072" stroke-linecap="round" stroke-linejoin="round" x1="348.398" y1="527.388" x2="369.661" y2="527.388"/>
<line fill="none" stroke="#FFFF00" stroke-width="0.9072" stroke-linecap="round" stroke-linejoin="round" x1="369.661" y1="527.388" x2="358.112" y2="517.675"/>
<line fill="none" stroke="#FFFF00" stroke-width="0.9072" stroke-linecap="round" stroke-linejoin="round" x1="348.398" y1="512.351" x2="333.36" y2="512.351"/>
<line fill="none" stroke="#FFFF00" stroke-width="0.9072" stroke-linecap="round" stroke-linejoin="round" x1="348.398" y1="512.351" x2="340.229" y2="505.485"/>
<line fill="none" stroke="#FFFF00" stroke-width="0.9072" stroke-linecap="round" stroke-linejoin="round" x1="333.363" y1="439.749" x2="340.229" y2="505.485"/>
<line fill="none" stroke="#FFFF00" stroke-width="0.9072" stroke-linecap="round" stroke-linejoin="round" x1="260.757" y1="439.749" x2="326.493" y2="432.882"/>
<line fill="none" stroke="#FFFF00" stroke-width="0.9072" stroke-linecap="round" stroke-linejoin="round" x1="358.112" y1="517.675" x2="348.398" y2="439.749"/>
<line fill="none" stroke="#FFFF00" stroke-width="0.9072" stroke-linecap="round" stroke-linejoin="round" x1="383.399" y1="534.92" x2="369.661" y2="424.713"/>
<rect x="52.855" y="231.84" fill="none" stroke="#000000" stroke-width="0.9072" stroke-linecap="round" stroke-linejoin="round" width="488.418" height="488.422"/>
<line fill="none" stroke="#FFFF00" stroke-width="0.9072" stroke-linecap="round" stroke-linejoin="round" x1="385.997" y1="562.391" x2="399.738" y2="578.727"/>
<line fill="none" stroke="#FFFF00" stroke-width="0.9072" stroke-linecap="round" stroke-linejoin="round" x1="383.399" y1="387.111" x2="399.738" y2="373.375"/>
<line fill="none" stroke="#FFFF00" stroke-width="0.9072" stroke-linecap="round" stroke-linejoin="round" x1="208.121" y1="389.709" x2="194.387" y2="373.375"/>
<line fill="none" stroke="#FFFF00" stroke-width="0.9072" stroke-linecap="round" stroke-linejoin="round" x1="210.72" y1="564.992" x2="194.383" y2="578.727"/>
<line fill="none" stroke="#FFFF00" stroke-width="0.9072" stroke-linecap="round" stroke-linejoin="round" x1="267.629" y1="519.22" x2="260.757" y2="527.388"/>
<line fill="none" stroke="#FFFF00" stroke-width="0.9072" stroke-linecap="round" stroke-linejoin="round" x1="260.757" y1="512.351" x2="260.757" y2="527.388"/>
</svg>
