<?xml version="1.0" encoding="utf-8"?>
<!-- Generator: Adobe Illustrator 16.0.3, SVG Export Plug-In . SVG Version: 6.00 Build 0)  -->
<!DOCTYPE svg PUBLIC "-//W3C//DTD SVG 1.1//EN" "http://www.w3.org/Graphics/SVG/1.1/DTD/svg11.dtd">
<svg version="1.1" id="Layer_1" xmlns="http://www.w3.org/2000/svg" xmlns:xlink="http://www.w3.org/1999/xlink" x="0px" y="0px"
	 width="699px" height="630px" viewBox="0 0 699 630" enable-background="new 0 0 699 630" xml:space="preserve">
<path fill="none" stroke="#0000FF" stroke-width="0.5" stroke-linecap="round" stroke-linejoin="round" stroke-miterlimit="3.864" d="
	M127.254,188.087l10.467-18.129 M190.056,151.828h-20.934 M137.721,242.474l-10.467-18.129 M116.787,206.216l10.467-18.129
	 M116.787,206.216l10.467,18.129 M116.787,206.216H95.853 M95.853,206.216l13.269,13.276 M109.122,219.492l18.132,4.853
	 M95.842,242.469l13.279-22.976 M127.253,188.087l-18.131,4.858 M95.854,206.216l13.269-13.271 M95.842,169.952l13.28,22.993
	 M158.655,206.215l-26.543,0.003 M132.112,206.218l-4.858-18.132 M127.254,224.344l4.859-18.127 M137.721,169.956l10.467-18.129
	 M148.188,151.827h20.933 M137.721,133.697l10.467,18.13 M137.721,133.698l18.132,4.853 M169.121,151.828l-13.269-13.276
	 M169.111,115.563l-13.258,22.988 M137.721,169.958l-4.856-18.132 M132.863,151.827l4.856-18.127 M106.31,151.822l26.552,0.004
	 M169.121,188.088L155.852,165.1 M137.72,169.958l18.132-4.859 M169.12,151.829L155.851,165.1 M608.741,224.343l-10.467,18.129
	 M608.741,188.085l-10.467-18.129 M608.741,296.859l-10.467-18.129 M545.938,260.601h20.937 M587.806,260.601l10.47-18.129
	 M598.273,278.73l-10.47-18.129 M587.806,260.601h-20.934 M580.141,273.877l-13.269-13.276 M598.273,278.73l-18.135-4.853
	 M580.14,273.878l-13.276,22.976 M598.273,242.472l-18.135,4.858 M566.873,260.601l13.269-13.271 M566.862,224.337l13.277,22.993
	 M629.675,260.6l-26.543,0.003 M598.273,242.471l4.857,18.132 M598.273,278.729l4.857-18.127 M619.208,206.212l-10.467,18.129
	 M619.208,206.212h20.935 M619.208,206.212l-10.467-18.13 M626.872,192.937l-18.132-4.853 M640.141,206.214l-13.27-13.276
	 M626.872,192.937l13.258-22.988 M608.74,224.343l-4.858-18.132 M608.74,188.085l-4.859,18.127 M577.329,206.207l26.552,0.004
	 M626.872,219.485l13.269,22.986 M608.74,224.343l18.132-4.856 M640.141,206.214l-13.27,13.271 M525.003,260.602l-10.467,18.129
	 M525.003,260.602h20.933 M514.536,242.472l10.467,18.13 M514.536,242.471l18.132,4.854 M545.936,260.601l-13.268-13.276
	 M545.926,224.336l-13.258,22.988 M514.536,278.73l-4.858-18.132 M514.536,242.472l-4.859,18.127 M483.125,260.594l26.552,0.004
	 M545.936,296.86l-13.269-22.988 M514.535,278.73l18.132-4.858 M545.936,260.601l-13.269,13.271 M587.806,151.826l10.47-18.129
	 M598.273,169.955l-10.47-18.129 M587.806,151.826h-20.934 M566.873,151.827l13.269,13.276 M598.273,169.956l-18.134-4.853
	 M566.863,188.08l13.276-22.976 M598.275,133.698l-18.133,4.856 M566.874,151.827l13.269-13.271 M580.143,138.556l-13.277-22.993
	 M629.676,151.826l-26.543,0.003 M598.275,133.697l4.855,18.132 M598.275,169.955l4.856-18.126 M504.07,188.085l10.467-18.129
	 M566.873,151.826h-20.934 M514.537,133.698l-10.467-18.129 M504.07,224.343l10.467,18.129 M451.735,206.215h20.934 M504.07,188.085
	l-10.469,18.129 M493.604,206.214l10.469,18.129 M493.604,206.214h-20.935 M485.938,219.49l-13.269-13.276 M504.07,224.343
	l-18.133-4.853 M472.659,242.467l13.278-22.976 M504.071,188.085l-18.132,4.858 M472.671,206.214l13.271-13.271 M485.939,192.943
	L472.66,169.95 M535.473,206.213l-26.543,0.003 M504.072,188.084l4.855,18.132 M504.072,224.342l4.856-18.126 M525.006,151.825
	l-10.467,18.129 M525.006,151.825h20.934 M514.539,133.695l10.467,18.13 M532.669,138.55l-18.132-4.853 M545.938,151.827
	l-13.269-13.276 M545.927,115.562l-13.258,22.988 M514.537,169.957l-4.858-18.132 M514.537,133.699l-4.859,18.127 M483.126,151.821
	l26.552,0.004 M545.938,188.087l-13.27-22.988 M514.536,169.957l18.132-4.858 M545.936,151.828l-13.268,13.271 M430.798,206.216
	l-10.466,18.129 M430.798,206.216h20.937 M430.798,206.216l-10.467-18.13 M420.333,188.085l18.132,4.853 M451.733,206.215
	l-13.271-13.276 M451.722,169.95l-13.258,22.988 M420.332,224.344l-4.858-18.132 M420.332,188.086l-4.859,18.126 M388.921,206.208
	l26.553,0.004 M451.733,242.474l-13.271-22.988 M420.332,224.344l18.132-4.856 M451.732,206.215l-13.271,13.271 M504.07,79.311
	L493.604,97.44 M493.604,97.44l10.469,18.129 M493.604,97.44h-20.935 M472.67,97.44l13.268,13.276 M504.071,115.569l-18.132-4.854
	 M472.659,133.693l13.28-22.976 M485.939,84.169l18.132-4.858 M472.671,97.44l13.271-13.271 M485.939,84.169L472.66,61.176
	 M535.473,97.439l-26.543,0.003 M504.072,79.31l4.855,18.132 M504.072,115.568l4.856-18.126 M409.866,133.698l10.467-18.129
	 M472.669,97.44h-20.934 M409.867,61.182l10.467,18.129 M409.866,169.956l10.467,18.129 M357.531,151.828h20.934 M399.398,151.827
	l10.468-18.129 M399.398,151.827l10.468,18.129 M399.398,151.827h-20.936 M378.465,151.828l13.271,13.276 M391.734,165.104
	l18.132,4.853 M378.454,188.081l13.279-22.976 M409.866,133.699l-18.132,4.858 M378.466,151.828l13.271-13.271 M378.455,115.564
	l13.28,22.993 M441.268,151.827l-26.543,0.003 M409.867,133.698l4.855,18.132 M409.867,169.956l4.856-18.126 M430.801,97.439
	l-10.466,18.13 M430.801,97.439h20.937 M430.801,97.439l-10.467-18.13 M420.333,79.31l18.132,4.853 M451.733,97.44l-13.271-13.276
	 M438.464,84.163l13.258-22.988 M420.332,115.569l-4.858-18.132 M415.473,97.438l4.859-18.127 M388.921,97.433l26.553,0.004
	 M451.733,133.699l-13.271-22.988 M420.332,115.569l18.131-4.858 M451.732,97.44l-13.271,13.271 M336.594,151.828l-10.467,18.129
	 M336.594,151.828h20.935 M336.594,151.828l-10.467-18.129 M326.129,133.698l18.132,4.853 M357.529,151.828l-13.271-13.276
	 M357.52,115.563l-13.259,22.988 M326.129,169.957l-4.857-18.132 M321.271,151.825l4.856-18.126 M294.718,151.821l26.552,0.004
	 M357.529,188.087l-13.271-22.988 M326.128,169.957l18.132-4.858 M357.528,151.828l-13.271,13.271 M399.398,43.053l10.468-18.129
	 M399.398,43.053l10.468,18.129 M399.398,43.053h-20.936 M378.466,43.053l13.271,13.276 M409.867,61.182l-18.132-4.853
	 M378.455,79.306l13.279-22.976 M409.867,24.924l-18.132,4.858 M391.736,29.782l-13.271,13.271 M391.736,29.782l-13.28-22.993
	 M441.27,43.052l-26.543,0.003 M409.868,24.923l4.855,18.132 M414.727,43.054l-4.856,18.127 M315.663,79.311l10.467-18.129
	 M378.465,43.053h-20.934 M326.129,133.698l-10.467-18.129 M263.327,97.441h20.934 M315.662,79.311L305.195,97.44 M305.195,97.44
	l10.467,18.129 M305.195,97.44H284.26 M297.53,110.717L284.26,97.441 M297.53,110.717l18.132,4.854 M284.25,133.694l13.279-22.978
	 M315.662,79.312L297.53,84.17 M297.531,84.17l-13.271,13.271 M297.531,84.17l-13.28-22.993 M347.064,97.44l-26.543,0.003
	 M315.663,79.311l4.858,18.132 M315.663,115.569l4.858-18.127 M336.597,43.052l-10.466,18.129 M336.597,43.052h20.935
	 M336.597,43.052l-10.467-18.13 M326.129,24.923l18.132,4.853 M344.26,29.777l13.271,13.274 M357.52,6.788l-13.259,22.988
	 M326.129,61.183l-4.857-18.132 M321.271,43.051l4.856-18.126 M321.27,43.051l-26.552-0.004 M357.53,79.313L344.26,56.325
	 M326.129,61.183l18.132-4.858 M357.529,43.054l-13.271,13.271 M242.391,97.442l-10.467,18.129 M242.391,97.442h20.934
	 M231.924,79.312l10.467,18.13 M231.925,79.311l18.132,4.853 M263.325,97.441l-13.269-13.276 M263.315,61.176l-13.258,22.988
	 M227.067,97.438l4.858,18.132 M231.925,79.312l-4.859,18.127 M200.514,97.434l26.552,0.004 M250.056,110.712l13.269,22.988
	 M231.924,115.57l18.132-4.858 M263.324,97.441l-13.269,13.271 M504.068,405.634l10.467-18.129 M566.871,369.375h-20.936
	 M504.069,333.118l10.467,18.129 M514.535,460.021l-10.467-18.132 M451.733,423.764h20.934 M504.069,296.859l10.467-18.129
	 M493.602,423.763l10.469-18.129 M504.068,441.893l-10.47-18.13 M493.602,423.763h-20.935 M472.667,423.764l13.269,13.276
	 M504.068,441.893l-18.133-4.853 M472.656,460.018l13.276-22.977 M485.936,410.493l18.135-4.858 M472.668,423.764l13.268-13.271
	 M485.938,410.493L472.658,387.5 M535.47,423.763l-26.543,0.003 M504.069,405.634l4.855,18.132 M508.927,423.766l-4.855,18.127
	 M525.002,369.375l-10.466,18.129 M525.002,369.375h20.934 M514.535,351.245l10.467,18.13 M514.535,351.246l18.132,4.854
	 M545.936,369.376l-13.27-13.276 M545.925,333.111l-13.258,22.985 M514.535,387.506l-4.858-18.132 M514.535,351.248l-4.859,18.126
	 M483.124,369.37l26.552,0.004 M532.666,382.648l13.27,22.985 M514.534,387.506l18.132-4.857 M532.666,382.648l13.268-13.271
	 M430.796,423.766l-10.466,18.129 M430.796,423.766h20.935 M430.796,423.766l-10.467-18.131 M420.331,405.634l18.132,4.854
	 M451.73,423.764L438.46,410.49 M451.72,387.499l-13.258,22.988 M420.33,441.895l-4.859-18.133 M420.33,405.636l-4.859,18.127
	 M388.919,423.758l26.552,0.004 M451.73,460.023l-13.271-22.987 M420.33,441.895l18.131-4.856 M451.73,423.766l-13.271,13.271
	 M493.6,314.99l10.47-18.129 M493.6,314.99l10.47,18.129 M493.6,314.99h-20.934 M472.668,314.989l13.268,13.273 M504.069,333.118
	l-18.134-4.854 M485.936,328.266l-13.276,22.979 M504.069,296.86l-18.134,4.858 M472.669,314.989l13.269-13.271 M485.938,301.718
	l-13.278-22.993 M535.471,314.988l-26.543,0.003 M504.07,296.859l4.855,18.132 M504.07,333.117l4.856-18.127 M409.865,351.247
	l10.467-18.129 M472.667,314.989h-20.934 M409.865,278.731l10.467,18.129 M409.864,387.505l10.467,18.129 M357.529,369.377h20.934
	 M420.332,224.343l-10.467,18.129 M399.398,369.377l10.467-18.129 M399.398,369.377l10.467,18.129 M399.398,369.377h-20.937
	 M378.463,369.377l13.271,13.276 M391.732,382.653l18.132,4.853 M391.73,382.654l-13.278,22.976 M391.732,356.105l18.132-4.857
	 M378.464,369.377l13.271-13.271 M378.453,333.113l13.28,22.992 M441.266,369.376l-26.543,0.003 M409.865,351.247l4.855,18.132
	 M409.865,387.505l4.856-18.127 M430.799,314.988l-10.466,18.129 M430.799,314.988h20.937 M420.332,296.858l10.467,18.13
	 M438.463,301.712l-18.132-4.853 M451.73,314.989l-13.271-13.276 M451.72,278.724l-13.258,22.988 M420.33,333.119l-4.859-18.132
	 M420.33,296.861l-4.859,18.127 M388.919,314.983l26.552,0.004 M451.73,351.249l-13.271-22.988 M420.33,333.119l18.132-4.858
	 M451.73,314.99l-13.271,13.271 M336.592,369.378l-10.466,18.129 M336.592,369.378h20.936 M336.592,369.378l-10.467-18.13
	 M344.259,356.1l-18.132-4.853 M357.528,369.377l-13.271-13.275 M344.259,356.1l13.258-22.985 M321.27,369.375l4.857,18.132
	 M326.127,351.249l-4.859,18.126 M321.268,369.375l-26.552-0.004 M344.258,382.648l13.271,22.986 M326.126,387.507l18.132-4.856
	 M344.258,382.648l13.271-13.271 M399.398,260.603l10.467-18.129 M399.398,260.603l10.467,18.129 M399.398,260.603h-20.937
	 M378.464,260.602l13.271,13.276 M391.733,273.878l18.132,4.853 M378.453,296.855l13.28-22.976 M409.865,242.473l-18.131,4.858
	 M378.465,260.602l13.271-13.271 M378.454,224.338l13.28,22.993 M441.267,260.601l-26.543,0.003 M409.865,242.472l4.856,18.132
	 M409.865,278.73l4.856-18.127 M315.661,296.86l10.467-18.129 M378.463,260.602h-20.934 M315.661,224.344l10.467,18.129
	 M326.128,351.247l-10.467-18.129 M263.326,314.99h20.934 M315.661,188.085l10.467-18.129 M305.194,314.99l10.467-18.129
	 M305.194,314.99l10.467,18.129 M305.194,314.99H284.26 M284.26,314.99l13.271,13.273 M297.529,328.266l18.132,4.854
	 M297.528,328.268l-13.279,22.978 M315.661,296.861l-18.132,4.856 M284.261,314.99l13.27-13.271 M284.25,278.726l13.28,22.993
	 M347.062,314.989l-26.543,0.003 M320.52,314.992l-4.856-18.132 M315.662,333.118l4.859-18.126 M336.596,260.601l-10.467,18.129
	 M336.596,260.601h20.935 M336.596,260.601l-10.467-18.13 M344.26,247.325l-18.132-4.854 M357.529,260.602l-13.271-13.276
	 M357.518,224.337l-13.258,22.988 M326.128,278.732L321.27,260.6 M326.128,242.474l-4.858,18.127 M294.717,260.596l26.553,0.004
	 M357.529,296.862l-13.271-22.988 M326.128,278.732l18.132-4.858 M357.528,260.603l-13.271,13.271 M242.39,314.991l-10.467,18.129
	 M242.39,314.991h20.934 M231.923,296.861l10.467,18.13 M231.924,296.86l18.132,4.853 M263.324,314.99l-13.269-13.276
	 M263.314,278.725l-13.258,22.988 M231.924,333.119l-4.858-18.132 M231.924,296.861l-4.859,18.127 M200.513,314.983l26.552,0.004
	 M263.325,351.249l-13.269-22.988 M231.924,333.119l18.132-4.858 M263.324,314.99l-13.269,13.271 M305.195,206.215l10.467-18.129
	 M305.195,206.215l10.467,18.129 M305.195,206.215H284.26 M284.26,206.215l13.271,13.276 M315.661,224.344l-18.132-4.853
	 M284.249,242.468l13.279-22.976 M315.661,188.086l-18.132,4.858 M284.261,206.215l13.271-13.271 M284.25,169.951l13.28,22.993
	 M347.062,206.214l-26.543,0.003 M320.52,206.217l-4.856-18.132 M315.662,224.343l4.859-18.127 M221.457,242.473l10.467-18.129
	 M284.26,206.215h-20.934 M221.458,169.957l10.467,18.129 M231.924,296.861l-10.467-18.129 M169.122,260.603h20.934
	 M231.925,115.569l-10.467,18.129 M210.99,260.603l10.467-18.129 M210.99,260.603l10.467,18.129 M210.99,260.603h-20.934
	 M190.056,260.603l13.269,13.276 M221.457,278.732l-18.132-4.853 M190.046,296.856l13.279-22.976 M221.457,242.474l-18.131,4.858
	 M190.057,260.603l13.269-13.271 M190.046,224.339l13.28,22.993 M252.859,260.602l-26.543,0.003 M226.316,260.605l-4.859-18.132
	 M221.457,278.731l4.859-18.127 M242.391,206.214l-10.466,18.129 M242.391,206.214h20.933 M231.924,188.084l10.467,18.13
	 M231.924,188.085l18.132,4.853 M263.324,206.215l-13.269-13.276 M263.314,169.95l-13.258,22.988 M231.924,224.344l-4.858-18.132
	 M227.065,206.213l4.859-18.127 M200.513,206.208l26.552,0.004 M263.325,242.474l-13.269-22.988 M250.056,219.485l-18.132,4.857
	 M263.324,206.215l-13.269,13.271 M148.186,260.603l-10.467,18.129 M148.186,260.603h20.933 M148.186,260.603l-10.467-18.13
	 M155.852,247.326l-18.132-4.854 M169.12,260.603l-13.269-13.276 M169.109,224.338l-13.258,22.988 M137.719,278.733l-4.858-18.132
	 M137.719,242.475l-4.859,18.126 M132.861,260.601l-26.553-0.004 M155.851,273.875l13.269,22.988 M137.719,278.733l18.132-4.858
	 M169.119,260.604l-13.269,13.271 M221.457,133.7l-10.467,18.129 M210.99,151.829l10.467,18.129 M210.99,151.829h-20.934
	 M190.057,151.828l13.269,13.276 M221.458,169.957l-18.132-4.853 M190.046,188.081l13.279-22.976 M221.458,133.699l-18.132,4.858
	 M190.058,151.828l13.268-13.271 M190.047,115.564l13.28,22.993 M252.86,151.827l-26.543,0.003 M221.459,133.698l4.858,18.132
	 M221.459,169.956l4.859-18.126 M598.271,460.021l10.468-18.132 M608.739,405.634l-10.468-18.129 M545.936,478.15h20.937
	 M598.273,351.246l10.467-18.129 M587.805,478.15l10.467-18.129 M587.805,478.15l10.467,18.129 M587.805,478.15h-20.934
	 M566.871,478.15l13.269,13.273 M580.14,491.426l18.134,4.854 M566.861,514.403l13.276-22.979 M598.273,460.021l-18.135,4.855
	 M566.873,478.15l13.269-13.271 M566.862,441.886l13.277,22.993 M629.675,478.148l-26.543,0.004 M598.273,460.02l4.856,18.135
	 M598.273,496.278l4.857-18.128 M619.208,423.761l-10.467,18.129 M619.208,423.761h20.933 M619.208,423.761l-10.467-18.13
	 M608.739,405.633l18.132,4.854 M640.139,423.763l-13.268-13.273 M640.129,387.498l-13.258,22.988 M608.739,441.893l-4.858-18.133
	 M603.88,423.76l4.859-18.126 M577.328,423.756l26.552,0.004 M626.87,437.034l13.269,22.987 M608.738,441.893l18.132-4.856
	 M640.138,423.763l-13.268,13.271 M525,478.15l-10.466,18.13 M525,478.15h20.934 M525,478.15l-10.467-18.129 M514.535,460.021
	l18.132,4.853 M545.936,478.15l-13.27-13.275 M545.924,441.886l-13.258,22.988 M514.534,496.281l-4.858-18.133 M514.534,460.023
	l-4.859,18.125 M483.123,478.145l26.552,0.006 M545.934,514.411l-13.269-22.988 M514.533,496.281l18.131-4.858 M532.664,491.423
	l13.269-13.271 M587.804,369.377l10.468-18.129 M587.804,369.377l10.468,18.129 M587.804,369.377H566.87 M566.871,369.376
	l13.269,13.276 M598.271,387.505l-18.134-4.853 M566.86,405.629l13.276-22.976 M598.271,351.247l-18.134,4.858 M566.872,369.376
	l13.269-13.271 M580.141,356.105l-13.277-22.993 M629.674,369.375l-26.543,0.003 M598.273,351.246l4.855,18.132 M598.273,387.504
	l4.856-18.126 M608.74,333.117l10.467-18.129 M619.207,314.988h20.934 M619.207,314.988l-10.467-18.13 M626.872,301.711
	l-18.132-4.853 M640.141,314.988l-13.27-13.276 M626.872,301.711l13.258-22.988 M608.74,333.117l-4.859-18.132 M603.881,314.986
	l4.859-18.127 M577.329,314.981l26.552,0.004 M626.871,328.259l13.269,22.988 M608.739,333.117l18.132-4.858 M626.87,328.259
	l13.269-13.271 M409.863,568.796l10.467-18.129 M472.665,532.538H451.73 M409.863,496.28l10.467,18.129 M357.527,586.926h20.934
	 M409.863,460.021l10.467-18.132 M399.396,586.926l10.467-18.129 M399.396,586.926l10.467,18.129 M399.396,586.926H378.46
	 M378.462,586.926l13.271,13.276 M409.863,605.055l-18.133-4.853 M378.451,623.179l13.279-22.976 M409.863,568.797l-18.133,4.858
	 M378.463,586.926l13.271-13.271 M378.452,550.662l13.28,22.993 M441.265,586.925l-26.543,0.003 M409.864,568.796l4.855,18.132
	 M409.864,605.054l4.856-18.127 M430.798,532.537l-10.467,18.129 M430.798,532.537h20.936 M430.798,532.537l-10.467-18.13
	 M420.33,514.408l18.132,4.853 M451.73,532.538l-13.271-13.276 M451.72,496.273l-13.258,22.985 M420.33,550.667l-4.858-18.132
	 M420.33,514.409l-4.858,18.127 M388.919,532.531l26.552,0.004 M451.729,568.797l-13.269-22.988 M420.329,550.667l18.132-4.858
	 M451.729,532.538l-13.269,13.271 M336.591,586.926l-10.467,18.129 M336.591,586.926h20.936 M336.591,586.926l-10.467-18.13
	 M326.125,568.796l18.132,4.854 M357.525,586.926l-13.271-13.275 M357.515,550.661l-13.258,22.987 M326.125,605.057l-4.858-18.133
	 M326.125,568.798l-4.859,18.127 M321.266,586.924l-26.552-0.004 M344.256,600.198l13.271,22.987 M344.256,600.198l-18.132,4.855
	 M344.255,600.198l13.271-13.271 M399.395,478.152l10.47-18.129 M399.395,478.152l10.47,18.129 M399.395,478.152h-20.934
	 M378.462,478.15l13.269,13.274 M409.863,496.28l-18.133-4.854 M391.73,491.428l-13.279,22.979 M409.863,460.021l-18.133,4.856
	 M378.463,478.15l13.271-13.271 M378.452,441.887l13.28,22.993 M441.265,478.15l-26.543,0.003 M409.864,460.021l4.855,18.132
	 M409.864,496.279l4.856-18.127 M315.659,514.409l10.467-18.129 M378.462,478.15h-20.934 M315.66,441.893l10.467,18.131
	 M326.126,568.797l-10.467-18.129 M263.324,532.539h20.934 M315.66,405.634l10.467-18.129 M305.192,532.539l10.467-18.129
	 M305.192,532.539l10.467,18.129 M305.192,532.539h-20.934 M284.258,532.539l13.269,13.275 M315.659,550.668l-18.132-4.854
	 M284.247,568.792l13.279-22.976 M315.659,514.41l-18.132,4.857 M284.259,532.539l13.268-13.271 M297.528,519.268l-13.28-22.992
	 M347.061,532.538l-26.543,0.003 M320.52,532.541l-4.858-18.132 M315.66,550.667l4.859-18.127 M336.594,478.15l-10.466,18.129
	 M336.594,478.15h20.936 M336.594,478.15l-10.467-18.131 M326.126,460.021l18.132,4.853 M357.527,478.15l-13.271-13.275
	 M357.516,441.886l-13.258,22.988 M321.268,478.148l4.858,18.133 M326.126,460.023l-4.859,18.127 M294.715,478.145l26.552,0.006
	 M357.527,514.411l-13.271-22.988 M326.126,496.281l18.132-4.858 M357.527,478.152l-13.271,13.271 M231.922,550.669l10.467-18.129
	 M242.389,532.54h20.933 M231.922,514.41l10.467,18.13 M231.922,514.409l18.132,4.853 M250.053,519.263l13.271,13.276
	 M263.312,496.273l-13.258,22.986 M227.064,532.536l4.858,18.132 M231.922,514.41l-4.859,18.127 M200.511,532.532l26.552,0.004
	 M250.053,545.811l13.271,22.987 M231.921,550.668l18.132-4.857 M263.321,532.539l-13.271,13.271 M315.659,405.635l-10.467,18.129
	 M305.192,423.764l10.467,18.129 M305.192,423.764h-20.934 M284.259,423.764l13.271,13.276 M315.66,441.893l-18.132-4.853
	 M284.248,460.018l13.279-22.977 M315.66,405.635l-18.132,4.858 M284.26,423.764l13.27-13.271 M284.249,387.5l13.28,22.993
	 M347.062,423.763l-26.543,0.003 M320.52,423.766l-4.857-18.132 M320.52,423.766l-4.857,18.127 M221.456,460.021l10.467-18.129
	 M284.258,423.764h-20.934 M221.456,387.506l10.467,18.129 M231.922,514.41l-10.467-18.129 M169.12,478.152h20.934 M221.456,351.247
	l10.467-18.129 M210.988,478.152l10.467-18.129 M221.455,496.281l-10.467-18.129 M210.988,478.152h-20.936 M190.054,478.152
	l13.271,13.273 M203.323,491.428l18.132,4.854 M190.044,514.405l13.279-22.979 M221.456,460.023l-18.131,4.855 M190.056,478.152
	l13.269-13.271 M190.045,441.888l13.28,22.993 M252.858,478.15l-26.543,0.004 M226.315,478.154l-4.858-18.133 M221.457,496.28
	l4.859-18.127 M242.391,423.763l-10.467,18.13 M242.391,423.763h20.933 M231.924,405.633l10.467,18.13 M231.922,405.634
	l18.132,4.854 M263.322,423.764l-13.27-13.273 M250.054,410.487l13.258-22.988 M231.922,441.895l-4.858-18.133 M231.922,405.636
	l-4.859,18.126 M200.511,423.758l26.552,0.004 M250.053,437.036l13.271,22.987 M231.921,441.895l18.132-4.856 M263.321,423.766
	l-13.27,13.271 M148.183,478.153l-10.466,18.129 M148.183,478.153h20.934 M148.183,478.153l-10.467-18.13 M137.718,460.021
	l18.132,4.854 M169.118,478.152l-13.269-13.276 M169.107,441.887l-13.258,22.988 M137.717,496.281l-4.858-18.133 M137.717,460.023
	l-4.858,18.125 M106.306,478.145l26.553,0.006 M169.118,514.411l-13.269-22.988 M137.717,496.281l18.131-4.858 M169.117,478.152
	l-13.269,13.271 M210.988,369.377l10.467-18.129 M221.455,387.506l-10.467-18.129 M210.988,369.377h-20.936 M190.055,369.377
	l13.271,13.276 M203.324,382.653l18.132,4.853 M190.044,405.63l13.28-22.976 M203.324,356.105l18.132-4.857 M190.056,369.377
	l13.269-13.271 M190.045,333.113l13.28,22.992 M252.858,369.376l-26.543,0.003 M226.315,369.379l-4.858-18.132 M221.457,387.505
	l4.859-18.126 M127.252,405.636l10.467-18.129 M190.054,369.377H169.12 M127.252,333.12l10.467,18.129 M137.719,460.023
	l-10.467-18.131 M137.719,278.732l-10.467,18.129 M116.785,423.766l10.467-18.13 M127.252,441.895l-10.467-18.129 M116.785,423.766
	H95.851 M95.851,423.766l13.268,13.275 M127.252,441.895l-18.132-4.854 M95.84,460.018l13.279-22.976 M127.252,405.636
	l-18.132,4.858 M95.852,423.766l13.269-13.271 M95.84,387.501l13.28,22.993 M158.653,423.764l-26.543,0.004 M127.252,405.635
	l4.858,18.133 M127.252,441.893l4.859-18.127 M148.187,369.376l-10.466,18.129 M148.187,369.376h20.934 M148.187,369.376
	l-10.467-18.13 M137.719,351.248l18.132,4.854 M155.85,356.102l13.269,13.276 M169.108,333.113L155.85,356.1 M132.86,369.375
	l4.858,18.132 M137.718,351.249l-4.859,18.126 M132.86,369.375l-26.553-0.004 M155.85,382.648l13.269,22.986 M137.718,387.507
	l18.132-4.856 M169.118,369.378l-13.269,13.271 M116.784,314.991l10.467-18.129 M116.784,314.991l10.467,18.129 M116.784,314.991
	H95.85 M95.852,314.991l13.268,13.273 M127.252,333.12l-18.132-4.854 M95.841,351.244l13.279-22.977 M127.253,296.862l-18.132,4.856
	 M95.854,314.991l13.269-13.271 M95.842,278.727l13.28,22.993 M158.655,314.99l-26.543,0.003 M127.254,296.861l4.858,18.132
	 M132.113,314.993l-4.859,18.126 M504.067,514.408l10.467-18.129 M493.6,532.538l10.47-18.129 M493.6,532.538l10.47,18.129
	 M493.6,532.538h-20.934 M472.666,532.538l13.27,13.276 M485.936,545.814l18.134,4.853 M472.656,568.791l13.276-22.977
	 M504.068,514.409l-18.133,4.856 M472.668,532.538l13.27-13.271 M472.657,496.273l13.278,22.992 M535.47,532.537l-26.543,0.003
	 M504.069,514.408l4.855,18.132 M508.928,532.539l-4.856,18.127"/>
<path fill="none" stroke="#000000" stroke-linecap="round" stroke-linejoin="round" stroke-miterlimit="3.864" d="M368.008,0.743
	L640.16,157.865 M368.014,0.743L95.85,157.867l0.039,314.247L368.027,629.23l272.107-157.117l0.029-314.249"/>
<path opacity="0.6667" fill="none" stroke="#FF0000" stroke-width="0.5" stroke-linecap="round" stroke-linejoin="round" stroke-miterlimit="3.864" enable-background="new    " d="
	M95.853,169.958l31.401,18.129 M106.32,151.828l31.401,18.129 M190.056,188.086l0.001-36.258 M169.122,188.086v-36.258
	 M158.655,206.215l-31.401-18.128 M169.122,188.086l-31.401-18.129 M169.122,224.344l-31.401,18.13 M158.655,206.215l-31.401,18.13
	 M190.057,115.57v36.258 M169.123,115.57l-0.001,36.258 M106.319,260.603l31.402-18.129 M95.853,242.474l31.401-18.129
	 M566.872,224.343l31.401,18.129 M577.34,206.214l31.401,18.129 M629.676,151.826l-31.399,18.13 M640.143,169.955l-31.399,18.13
	 M629.675,260.6l-31.398-18.128 M640.143,242.471l-31.399-18.128 M640.143,278.729l-31.399,18.13 M629.675,260.6l-31.401,18.13
	 M566.872,188.085l31.401-18.129 M577.34,206.214l31.401-18.129 M545.938,296.86v-36.259 M566.872,296.859v-36.258 M577.339,314.988
	l31.402-18.129 M566.872,296.859l31.401-18.129 M545.938,224.343v36.258 M566.873,224.343l-0.001,36.258 M472.669,169.956
	l31.401,18.129 M483.136,151.827l31.401,18.129 M566.872,188.085l0.001-36.259 M545.938,188.085v-36.259 M535.471,206.214
	l-31.398-18.129 M545.938,188.084l-31.398-18.128 M535.472,97.439l-31.399,18.13 M545.939,115.568l-31.402,18.13 M566.873,115.568
	v36.258 M545.939,115.568l-0.002,36.258 M545.938,224.343l-31.398,18.129 M535.471,206.214l-31.398,18.129 M472.669,133.698
	l31.401-18.129 M483.136,151.827l31.401-18.129 M451.734,242.473v-36.258 M472.669,242.473v-36.259 M483.135,260.601l31.402-18.129
	 M472.668,242.472l31.402-18.129 M451.735,169.956l-0.001,36.259 M472.669,169.956v36.258 M378.465,115.569l31.401,18.129
	 M388.932,97.44l31.402,18.129 M472.669,133.698V97.44 M451.734,133.698l0.001-36.258 M441.268,151.827l-31.399-18.129
	 M451.735,133.698l-31.401-18.129 M441.268,43.052l-31.398,18.13 M451.735,61.181l-31.401,18.13 M472.669,61.181V97.44
	 M451.735,61.181V97.44 M451.735,169.956l-31.402,18.129 M441.268,151.827l-31.399,18.129 M378.465,79.311l31.402-18.129
	 M388.932,97.44l31.402-18.129 M357.531,188.086v-36.258 M378.465,188.086v-36.258 M388.932,206.215l31.401-18.13 M378.465,188.085
	l31.401-18.129 M357.531,115.569v36.259 M378.465,115.569v36.259 M284.261,61.182l31.402,18.129 M294.729,43.053l31.401,18.129
	 M378.465,79.311V43.053 M357.531,79.311V43.053 M347.064,97.44l-31.401-18.129 M357.531,79.311L326.13,61.182 M357.531,115.569
	l-31.402,18.129 M347.064,97.44l-31.402,18.129 M378.466,6.794l-0.001,36.259 M357.531,6.795v36.258 M263.327,133.699V97.441
	 M284.261,133.699V97.441 M294.728,151.828l31.401-18.13 M284.261,133.699l31.401-18.13 M263.327,61.182v36.259 M284.262,61.182
	l-0.001,36.259 M472.667,387.505l31.401,18.129 M483.134,369.376l31.401,18.129 M566.871,405.634v-36.259 M545.936,405.634
	l0.002-36.258 M535.47,423.763l-31.399-18.129 M545.938,405.634l-31.4-18.129 M535.47,314.988l-31.398,18.13 M545.938,333.118
	l-31.399,18.129 M566.871,333.117v36.258 M545.938,333.117v36.259 M545.938,441.893l-31.4,18.129 M535.47,423.763l-31.399,18.13
	 M472.667,351.247l31.402-18.129 M483.134,369.376l31.402-18.129 M451.733,460.021v-36.26 M472.667,460.021v-36.26 M483.134,478.15
	l31.401-18.129 M472.667,460.021l31.401-18.132 M472.668,278.73l31.401,18.129 M451.733,387.505v36.259 M472.667,387.505v36.259
	 M545.938,296.859l-31.398-18.129 M483.135,260.601l31.402,18.129 M535.47,314.988l-31.398-18.129 M378.463,333.118l31.402,18.129
	 M388.931,314.989l31.401,18.129 M472.667,351.247v-36.258 M451.733,351.247v-36.258 M441.266,369.376l-31.398-18.129
	 M451.733,351.247l-31.401-18.129 M441.267,260.601l-31.399,18.13 M451.734,278.731l-31.402,18.129 M472.668,278.73l-0.001,36.259
	 M451.733,278.731v36.258 M451.733,387.505l-31.402,18.129 M441.266,369.376l-31.399,18.129 M378.463,296.86l31.402-18.129
	 M388.931,314.989l31.401-18.129 M357.529,405.635v-36.258 M378.463,405.635v-36.258 M388.93,423.764l31.401-18.13 M378.463,405.635
	l31.401-18.13 M378.464,224.343l31.401,18.129 M357.529,333.119v36.258 M378.463,333.118v36.259 M451.734,242.472l-31.401-18.129
	 M388.932,206.215l31.401,18.128 M441.267,260.601l-31.399-18.129 M284.26,278.731l31.401,18.129 M294.727,260.602l31.401,18.129
	 M378.463,296.86v-36.258 M357.529,296.86v-36.258 M347.062,314.989l-31.401-18.129 M357.529,296.86l-31.401-18.129
	 M347.062,206.215l-31.401,18.129 M357.53,224.344l-31.402,18.129 M378.464,224.343l-0.001,36.259 M357.53,224.344l-0.001,36.258
	 M357.529,333.118l-31.401,18.129 M347.062,314.989l-31.401,18.129 M284.26,242.473l31.401-18.129 M294.727,260.603l31.401-18.13
	 M263.325,351.248V314.99 M284.26,351.248V314.99 M294.726,369.377l31.402-18.13 M284.259,351.248l31.402-18.13 M284.26,169.956
	l31.401,18.129 M263.326,278.732l-0.001,36.258 M284.26,278.732v36.258 M357.53,188.085l-31.401-18.128 M294.728,151.828
	l31.401,18.129 M347.062,206.214l-31.401-18.129 M190.056,224.345l31.401,18.128 M200.523,206.215l31.401,18.129 M284.26,242.473
	v-36.258 M263.325,242.473l0.001-36.258 M252.859,260.602l-31.402-18.129 M263.326,242.473l-31.402-18.129 M252.859,151.828
	l-31.401,18.129 M263.326,169.957l-31.401,18.129 M284.26,169.957v36.258 M263.326,169.957v36.258 M263.326,278.731l-31.402,18.13
	 M252.859,260.602l-31.402,18.13 M190.056,188.087l31.402-18.13 M200.523,206.216l31.402-18.13 M169.122,296.862v-36.259
	 M190.056,296.861v-36.258 M200.523,314.99l31.401-18.129 M190.055,296.861l31.402-18.129 M190.056,115.569l31.402,18.129
	 M169.122,224.345v36.258 M190.056,224.345v36.258 M263.327,133.699l-31.402-18.129 M200.524,97.441l31.401,18.129 M252.859,151.827
	l-31.401-18.129 M566.871,441.893l31.4,18.129 M577.338,423.763l31.401,18.13 M629.674,369.375l-31.4,18.13 M640.141,387.504
	l-31.399,18.13 M629.673,478.15l-31.399-18.129 M640.141,460.02l-31.399-18.127 M545.936,514.409V478.15 M566.87,514.409
	l0.001-36.259 M566.871,405.634l31.4-18.129 M577.338,423.763l31.401-18.129 M566.871,333.117l31.402,18.129 M545.936,441.893
	v36.261 M566.871,441.893v36.258 M640.141,351.246l-31.398-18.129 M577.339,314.988l31.401,18.129 M629.674,369.375l-31.4-18.129
	 M378.462,550.667l31.401,18.129 M388.929,532.538l31.401,18.129 M472.665,568.796v-36.258 M451.73,568.796v-36.258
	 M441.264,586.925l-31.398-18.129 M451.73,568.796l-31.4-18.129 M441.265,478.15l-31.399,18.13 M451.732,496.28l-31.402,18.129
	 M472.666,496.279l-0.001,36.259 M451.732,496.28l-0.002,36.258 M357.527,623.186v-36.26 M378.462,623.186v-36.26 M378.462,514.409
	l31.401-18.129 M388.929,532.538l31.401-18.129 M378.462,441.893l31.401,18.129 M357.527,550.668v36.258 M378.462,550.668v36.258
	 M451.733,460.021l-31.402-18.129 M388.93,423.764l31.401,18.129 M441.264,478.15l-31.398-18.129 M284.258,496.281l31.401,18.128
	 M294.725,478.15l31.401,18.13 M378.462,514.409V478.15 M357.527,514.409l0.001-36.259 M347.061,532.538l-31.4-18.129
	 M357.528,514.409l-31.402-18.129 M347.061,423.764l-31.399,18.129 M357.528,441.893l-31.401,18.131 M378.462,441.893v36.261
	 M357.528,441.893v36.261 M357.527,550.667l-31.401,18.13 M347.061,532.538l-31.4,18.13 M284.258,460.023l31.402-18.131
	 M294.725,478.152l31.402-18.131 M263.324,568.798v-36.259 M284.258,568.797v-36.258 M294.725,586.926l31.401-18.129
	 M284.257,568.797l31.402-18.129 M284.259,387.506l31.401,18.128 M263.324,496.281v36.258 M284.258,496.281v36.258 M357.529,405.635
	l-31.401-18.129 M294.726,369.377l31.402,18.129 M347.061,423.763l-31.399-18.129 M190.054,441.895l31.401,18.129 M200.521,423.766
	l31.402,18.127 M284.258,460.021v-36.26 M263.324,460.021v-36.26 M252.857,478.15l-31.402-18.127 M263.324,460.021l-31.401-18.129
	 M252.857,369.377l-31.401,18.129 M263.325,387.506l-31.402,18.129 M284.259,387.506l-0.001,36.258 M263.324,387.506v36.258
	 M263.324,496.28l-31.402,18.13 M252.857,478.15l-31.402,18.131 M190.054,405.636l31.402-18.13 M200.521,423.766l31.402-18.131
	 M169.12,514.411v-36.259 M190.054,514.41v-36.258 M200.521,532.539l31.401-18.129 M190.054,514.41l31.401-18.129 M190.055,333.119
	l31.401,18.129 M169.12,441.895v36.26 M190.054,441.895v36.26 M263.325,351.248l-31.401-18.129 M200.523,314.99l31.401,18.129
	 M252.857,369.376l-31.401-18.128 M95.851,387.507l31.401,18.129 M106.318,369.378l31.401,18.129 M190.054,405.635l0.001-36.258
	 M169.12,405.636v-36.259 M158.653,423.764l-31.401-18.128 M169.12,405.635l-31.401-18.128 M158.654,314.99l-31.402,18.129
	 M169.121,333.119l-31.402,18.13 M190.055,333.119v36.258 M169.12,333.119v36.258 M169.12,441.893l-31.401,18.131 M158.653,423.764
	l-31.401,18.131 M95.851,351.249l31.401-18.13 M106.318,369.378l31.401-18.129 M95.851,278.732l31.401,18.129 M106.317,478.152
	l31.402-18.129 M95.85,460.023l31.402-18.131 M169.121,296.861l-31.401-18.129 M106.319,260.603l31.401,18.129 M158.654,314.989
	l-31.402-18.128 M472.666,496.279l31.401,18.129 M545.936,514.408l-31.398-18.129 M483.134,478.15l31.401,18.129 M535.468,532.537
	l-31.398-18.129"/>
<path opacity="0.3333" fill="none" stroke="#FF0000" stroke-width="0.5" stroke-linecap="round" stroke-linejoin="round" stroke-miterlimit="3.864" d="
	M109.121,219.492l7.666-13.276 M109.122,192.945l7.665,13.271 M132.112,206.218l-15.325-0.002 M155.853,138.551l-7.665,13.277
	 M132.862,151.826l15.326,0.002 M155.852,165.099l-7.665-13.271 M580.141,273.878l7.665-13.277 M580.143,247.33l7.663,13.271
	 M603.132,260.603l-15.326-0.002 M626.872,192.936l-7.665,13.277 M603.882,206.211l15.325,0.002 M626.872,219.484l-7.665-13.271
	 M532.668,247.324l-7.665,13.277 M509.678,260.599l15.325,0.002 M532.668,273.872l-7.665-13.271 M580.143,165.103l7.664-13.277
	 M580.143,138.555l7.664,13.271 M603.133,151.829l-15.326-0.003 M485.938,219.491l7.666-13.277 M485.938,192.943l7.666,13.271
	 M508.928,206.217l-15.324-0.003 M532.669,138.55l-7.665,13.276 M509.678,151.824l15.326,0.002 M532.669,165.098l-7.666-13.271
	 M438.464,192.937l-7.665,13.277 M415.474,206.212l15.325,0.002 M438.464,219.485l-7.665-13.271 M485.938,110.716l7.666-13.276
	 M485.939,84.169l7.664,13.271 M508.929,97.442l-15.325-0.003 M391.734,165.104l7.665-13.277 M391.735,138.556l7.663,13.271
	 M414.725,151.83l-15.323-0.003 M438.465,84.163L430.8,97.44 M415.475,97.437l15.325,0.002 M438.465,110.711L430.8,97.44
	 M344.261,138.551l-7.665,13.276 M321.271,151.825l15.323,0.002 M344.261,165.098l-7.666-13.271 M391.735,56.329l7.665-13.276
	 M391.735,29.782l7.665,13.271 M414.725,43.055L399.4,43.052 M297.53,110.717l7.665-13.277 M297.531,84.169l7.664,13.271
	 M320.521,97.443l-15.326-0.003 M344.261,29.776l-7.665,13.277 M321.271,43.05l15.323,0.003 M344.261,56.324l-7.665-13.271
	 M250.057,84.164l-7.665,13.276 M227.067,97.438l15.325,0.002 M250.057,110.712l-7.665-13.271 M485.936,437.04l7.666-13.277
	 M485.936,410.492l7.666,13.271 M508.927,423.766l-15.325-0.003 M532.667,356.1l-7.665,13.275 M509.677,369.373l15.325,0.002
	 M532.667,382.646l-7.666-13.271 M438.463,410.487l-7.665,13.273 M415.472,423.761l15.326,0.002 M438.462,437.034l-7.665-13.271
	 M485.936,328.266l7.666-13.274 M485.938,301.718l7.664,13.271 M508.928,314.991l-15.326-0.003 M391.732,382.653l7.666-13.277
	 M391.733,356.105l7.665,13.271 M414.723,369.379l-15.324-0.003 M438.463,301.712l-7.665,13.277 M415.473,314.986l15.325,0.003
	 M438.463,328.26l-7.665-13.271 M344.259,356.1l-7.665,13.276 M321.27,369.374l15.324,0.002 M344.259,382.648l-7.665-13.271
	 M391.733,273.878l7.665-13.276 M391.734,247.331l7.664,13.271 M414.724,260.604l-15.325-0.003 M297.528,328.266l7.666-13.273
	 M297.529,301.719l7.665,13.271 M320.52,314.992l-15.326-0.003 M344.26,247.325l-7.665,13.277 M321.27,260.6l15.325,0.002
	 M344.259,273.873l-7.665-13.271 M250.055,301.713l-7.665,13.277 M227.065,314.987l15.325,0.003 M250.055,328.261l-7.665-13.271
	 M297.529,219.491l7.666-13.276 M297.53,192.944l7.665,13.271 M320.52,206.217l-15.325-0.003 M203.325,273.879l7.665-13.276
	 M203.326,247.332l7.664,13.271 M226.316,260.605l-15.326-0.003 M250.056,192.938l-7.665,13.277 M227.066,206.213l15.325,0.002
	 M250.056,219.486l-7.666-13.271 M155.852,247.326l-7.665,13.277 M132.861,260.6l15.326,0.003 M155.851,273.874l-7.665-13.271
	 M203.325,165.104l7.666-13.276 M203.326,138.557l7.665,13.271 M226.317,151.83l-15.326-0.002 M580.139,491.427l7.666-13.276
	 M580.14,464.879l7.665,13.271 M603.13,478.153l-15.325-0.003 M626.871,410.486l-7.665,13.273 M603.88,423.76l15.326,0.002
	 M626.87,437.033l-7.665-13.271 M532.666,464.873l-7.665,13.277 M509.676,478.148l15.325,0.002 M532.666,491.421l-7.665-13.271
	 M580.14,382.652l7.666-13.276 M580.141,356.105l7.665,13.271 M603.131,369.378l-15.325-0.003 M626.872,301.711l-7.665,13.277
	 M603.881,314.986l15.326,0.002 M626.872,328.259l-7.666-13.271 M391.73,600.202l7.666-13.276 M391.73,573.655l7.666,13.271
	 M414.721,586.928l-15.324-0.003 M438.462,519.261l-7.665,13.277 M415.471,532.536l15.326,0.002 M438.461,545.809l-7.665-13.271
	 M344.257,573.648l-7.665,13.275 M321.267,586.923l15.325,0.003 M344.257,600.197l-7.665-13.271 M391.73,491.427l7.666-13.273
	 M391.732,464.88l7.664,13.271 M414.722,478.153l-15.325-0.003 M297.527,545.814l7.665-13.275 M297.527,519.268l7.665,13.271
	 M320.518,532.541l-15.326-0.003 M344.258,464.874l-7.665,13.276 M321.268,478.148l15.325,0.002 M344.258,491.422l-7.666-13.271
	 M250.054,519.262l-7.665,13.277 M227.063,532.537l15.326,0.002 M250.053,545.811l-7.665-13.271 M297.527,437.041l7.666-13.277
	 M297.528,410.493l7.665,13.271 M320.518,423.766l-15.325-0.002 M203.323,491.428l7.665-13.273 M203.324,464.881l7.664,13.271
	 M226.314,478.154l-15.326-0.002 M250.054,410.487l-7.665,13.274 M227.064,423.762l15.325,0.002 M250.054,437.035l-7.665-13.271
	 M155.85,464.875l-7.665,13.277 M132.86,478.15l15.325,0.002 M155.85,491.423l-7.665-13.271 M203.324,382.654l7.665-13.277
	 M203.325,356.105l7.664,13.271 M226.315,369.38l-15.326-0.003 M109.119,437.042l7.666-13.277 M109.12,410.494l7.665,13.271
	 M132.11,423.768l-15.326-0.002 M155.851,356.1l-7.666,13.277 M132.86,369.375l15.325,0.002 M155.85,382.648l-7.665-13.271
	 M109.12,328.268l7.665-13.275 M109.121,301.719l7.664,13.271 M132.111,314.993l-15.326-0.003 M485.936,545.814l7.664-13.276
	 M485.936,519.268l7.664,13.271 M508.926,532.54l-15.326-0.003"/>
<path opacity="0.5" fill="none" stroke="#FF0000" stroke-width="0.5" stroke-linecap="round" stroke-linejoin="round" stroke-miterlimit="3.864" enable-background="new    " d="
	M357.532,6.795h20.934 M106.32,151.828l-10.467,18.13 M169.122,188.086l-10.467,18.13 M169.122,188.086h20.934 M169.122,224.345
	l-10.467-18.129 M169.123,115.57h20.935 M200.525,97.441l-10.467,18.129 M577.34,206.214l-10.467-18.129 M566.872,224.343h-20.935
	 M577.34,206.214l-10.468,18.129 M640.143,169.955l-10.467-18.129 M640.143,242.472l-10.469,18.129 M640.141,278.73l-10.467-18.129
	 M483.136,151.827l-10.467-18.129 M472.669,169.956h-20.935 M483.136,151.827l-10.467,18.129 M545.938,188.085l-10.467,18.129
	 M545.938,188.085h20.937 M545.938,224.343l-10.467-18.129 M545.939,115.568h20.934 M545.939,115.568l-10.47-18.129 M388.932,97.44
	l-10.467-18.129 M378.465,115.569h-20.934 M388.932,97.44l-10.467,18.129 M451.734,133.698l-10.47,18.129 M451.734,133.698h20.935
	 M451.734,169.956l-10.47-18.129 M451.735,61.181h20.935 M451.735,61.181l-10.47-18.129 M284.261,61.182h-20.934 M294.729,43.053
	l-10.468,18.129 M357.531,79.311L347.062,97.44 M357.531,79.311h20.934 M357.53,115.569L347.062,97.44 M483.134,369.376
	l-10.467-18.129 M472.667,387.505h-20.934 M483.134,369.376l-10.467,18.129 M545.936,405.634l-10.467,18.129 M545.936,405.634
	h20.938 M545.936,441.893l-10.467-18.13 M545.938,333.118h20.937 M535.47,314.988l10.468-18.129 M545.938,333.118l-10.468-18.13
	 M577.339,314.988l-10.467,18.13 M566.872,296.859l10.467,18.129 M566.872,296.859l-20.935,0.001 M388.931,314.989l-10.467-18.129
	 M378.463,333.118h-20.934 M388.931,314.989l-10.468,18.129 M451.733,351.247l-10.471,18.129 M451.733,351.247h20.934
	 M451.732,387.505l-10.47-18.129 M451.734,278.731h20.934 M441.267,260.601l10.47-18.129 M451.734,278.731l-10.47-18.13
	 M483.135,260.601l-10.467,18.13 M472.668,242.472l10.467,18.129 M472.668,242.472l-20.934,0.001 M294.727,260.602l-10.467-18.129
	 M284.26,278.731h-20.935 M294.727,260.602l-10.467,18.129 M357.529,296.86l-10.467,18.129 M357.529,296.86h20.934 M357.529,333.118
	l-10.467-18.129 M357.53,224.344h20.934 M347.062,206.215l10.468-18.13 M357.53,224.344l-10.468-18.129 M388.932,206.215
	l-10.468,18.129 M378.464,188.085l10.468,18.13 M378.464,188.085l-20.934,0.001 M200.523,206.215l-10.467-18.129 M190.056,224.345
	h-20.934 M200.523,206.215l-10.467,18.13 M263.325,242.473l-10.467,18.13 M263.325,242.473h20.935 M263.325,278.731l-10.467-18.128
	 M263.326,169.957h20.935 M252.859,151.828l10.468-18.129 M263.326,169.957l-10.467-18.129 M294.728,151.828l-10.467,18.129
	 M284.261,133.699l10.467,18.129 M284.261,133.699h-20.935 M577.338,423.763l-10.467-18.129 M566.871,441.893h-20.936
	 M577.338,423.763l-10.467,18.13 M629.674,369.375l10.467-18.129 M640.141,387.504l-10.467-18.129 M640.141,460.021l-10.468,18.129
	 M388.929,532.538l-10.467-18.129 M378.462,550.667l-20.935,0.001 M388.929,532.538l-10.467,18.129 M451.73,568.796l-10.469,18.129
	 M451.73,568.796h20.935 M451.732,496.28h20.934 M441.265,478.15l10.471-18.129 M451.732,496.28l-10.47-18.13 M483.134,478.15
	l-10.468,18.13 M472.666,460.021l10.468,18.129 M472.666,460.021h-20.934 M294.725,478.15l-10.466-18.129 M284.258,496.281h-20.934
	 M294.725,478.15l-10.467,18.131 M357.527,514.409l-10.467,18.129 M357.527,514.409h20.935 M357.527,550.667l-10.467-18.129
	 M357.528,441.893h20.934 M347.061,423.764l10.47-18.129 M357.528,441.893l-10.468-18.129 M388.93,423.764l-10.468,18.129
	 M378.463,405.635l10.467,18.129 M378.463,405.635h-20.935 M200.521,423.766l-10.466-18.131 M190.054,441.895H169.12
	 M200.521,423.766l-10.467,18.129 M263.324,460.021l-10.468,18.131 M263.324,460.021h20.934 M263.323,496.281l-10.467-18.129
	 M263.325,387.506h20.934 M252.857,369.377l10.468-18.129 M263.325,387.506l-10.468-18.129 M294.726,369.377l-10.467,18.129
	 M284.259,351.248l10.467,18.129 M284.259,351.248h-20.934 M106.319,260.603l-10.466-18.129 M106.319,260.603l-10.467,18.129
	 M169.12,405.636l-10.468,18.129 M169.12,405.636l20.934-0.001 M169.119,441.895l-10.467-18.129 M169.121,333.119h20.934
	 M158.654,314.99l10.467-18.129 M169.121,333.119l-10.467-18.129 M200.523,314.99l-10.468,18.129 M190.055,296.861l10.468,18.129
	 M190.055,296.861h-20.934 M566.87,514.408l-20.935,0.001 M535.469,532.538l10.467-18.13 M106.319,369.604l-10.466-18.129
	 M106.319,369.604l-10.467,18.129 M284.258,568.798l-20.935-0.002 M284.258,568.798l10.467,18.129 M190.055,514.409l-20.935-0.002
	 M190.055,514.409l10.467,18.129 M95.84,460.018l10.466,18.127 M357.525,623.186l20.926-0.007"/>
</svg>
