<?xml version="1.0" encoding="utf-8"?>
<!-- Generator: Adobe Illustrator 16.0.3, SVG Export Plug-In . SVG Version: 6.00 Build 0)  -->
<!DOCTYPE svg PUBLIC "-//W3C//DTD SVG 1.1//EN" "http://www.w3.org/Graphics/SVG/1.1/DTD/svg11.dtd">
<svg version="1.1" id="Layer_1" xmlns="http://www.w3.org/2000/svg" xmlns:xlink="http://www.w3.org/1999/xlink" x="0px" y="0px"
	 width="3456px" height="6912px" viewBox="0 0 3456 6912" enable-background="new 0 0 3456 6912" xml:space="preserve">
<path fill="none" stroke="#FF0000" stroke-miterlimit="10" d="M567.593,321.989l-83.981,83.982 M483.61,489.955l83.981,83.982
	 M231.661,573.938l83.983,83.983 M399.627,657.92l83.983-83.982 M315.645,909.869l-83.982,83.982 M399.628,909.869l83.982,83.982
	 M483.61,657.92l83.981,83.982 M483.61,909.869l83.981-83.983 M903.523,657.92l-83.981,83.982 M819.542,825.886l83.981,83.983
	 M651.576,573.938l-83.983,83.983 M819.542,657.92l-83.983-83.982 M567.593,909.869l83.983,83.982 M735.559,993.852l83.983-83.982
	 M819.542,573.938l83.981-83.982 M903.523,405.972l-83.981-83.982 M1155.475,405.972l83.981-83.982 M1239.456,573.938
	l-83.981-83.982 M987.508,657.92l-83.982-83.982 M1155.475,573.938l-83.983,83.983 M987.508,909.869l-83.982,83.982
	 M1155.475,993.852l-83.982-83.982 M1155.475,657.92l83.981,83.982 M1155.475,909.869l83.981-83.983 M1491.405,741.903
	l83.981-83.983 M1575.388,909.869l-83.981-83.983 M1239.456,657.92l83.983-83.982 M1491.405,657.92l-83.983-83.982
	 M1239.456,909.869l83.983,83.982 M1407.422,993.852l83.983-83.982 M1491.405,573.938l83.981-83.982 M1491.405,321.989
	l83.981,83.982 M1911.318,321.989l-83.981,83.982 M1827.337,489.955l83.982,83.982 M1575.388,573.938l83.983,83.983
	 M1827.337,573.938l-83.983,83.983 M1659.371,909.869l-83.983,83.982 M1827.337,993.852l-83.981-83.982 M1827.337,657.92
	l83.982,83.982 M1827.337,909.869l83.982-83.983 M2163.27,741.903l83.981-83.983 M2163.27,825.886l83.981,83.983 M1911.318,657.92
	l83.983-83.982 M2163.27,657.92l-83.983-83.982 M1911.318,909.869l83.983,83.982 M2079.285,993.852l83.982-83.982 M2247.251,489.955
	l-83.981,83.982 M2247.251,405.972l-83.981-83.982 M2583.184,321.989l-83.982,83.982 M2583.184,573.938l-83.982-83.982
	 M2331.234,657.92l-83.983-83.982 M2499.2,573.938l-83.983,83.983 M2331.234,909.869l-83.983,83.982 M2499.2,993.852l-83.982-83.982
	 M2499.2,657.92l83.981,83.982 M2583.184,825.886l-83.982,83.983 M2583.184,657.92l83.982-83.982 M2835.132,657.92l-83.982-83.982
	 M2583.184,909.869l83.982,83.982 M2751.148,993.852l83.982-83.982 M567.593,993.852l-83.981,83.983 M483.61,1161.818l83.981,83.982
	 M231.661,1245.801l83.983,83.983 M483.61,1245.801l-83.983,83.983 M315.645,1581.732l-83.982,83.982 M399.628,1581.732
	l83.982,83.982 M567.593,1413.768l-83.981-83.983 M483.61,1581.732l83.981-83.983 M819.542,1413.768l83.981-83.983 M819.542,1497.75
	l83.981,83.982 M567.593,1329.784l83.983-83.983 M819.542,1329.784l-83.983-83.983 M567.593,1581.732l83.983,83.982
	 M735.559,1665.715l83.983-83.982 M819.542,1245.801l83.981-83.982 M903.523,1077.835l-83.981-83.983 M1239.456,993.852
	l-83.981,83.983 M1239.456,1245.801l-83.981-83.982 M987.508,1329.784l-83.982-83.983 M1155.475,1245.801l-83.983,83.983
	 M987.508,1581.732l-83.982,83.982 M1071.491,1581.732l83.981,83.982 M1155.475,1329.784l83.981,83.983 M1239.456,1497.75
	l-83.981,83.982 M1491.405,1413.768l83.981-83.983 M1575.388,1581.732l-83.981-83.983 M1239.456,1329.784l83.983-83.983
	 M1491.405,1329.784l-83.983-83.983 M1239.456,1581.732l83.983,83.982 M1407.422,1665.715l83.983-83.982 M1491.405,1245.801
	l83.981-83.982 M1491.405,993.852l83.981,83.983 M1911.318,993.852l-83.981,83.983 M1827.337,1161.818l83.982,83.982
	 M1575.388,1245.801l83.983,83.983 M1827.337,1245.801l-83.983,83.983 M1659.371,1581.732l-83.983,83.982 M1743.354,1581.732
	l83.982,83.982 M1911.318,1413.768l-83.981-83.983 M1827.337,1581.732l83.982-83.983 M2163.27,1413.768l83.981-83.983
	 M2163.27,1497.75l83.981,83.982 M1911.318,1329.784l83.983-83.983 M2163.27,1329.784l-83.983-83.983 M1911.318,1581.732
	l83.983,83.982 M2079.285,1665.715l83.982-83.982 M2163.27,1245.801l83.981-83.982 M2247.251,1077.835l-83.981-83.983
	 M2583.184,993.852l-83.982,83.983 M2583.184,1245.801l-83.982-83.982 M2331.234,1329.784l-83.983-83.983 M2499.2,1245.801
	l-83.983,83.983 M2331.234,1581.732l-83.983,83.982 M2415.218,1581.732l83.982,83.982 M2499.2,1329.784l83.981,83.983
	 M2499.2,1581.732l83.981-83.983 M2583.184,1329.784l83.982-83.983 M2835.132,1329.784l-83.982-83.983 M2583.184,1581.732
	l83.982,83.982 M2751.148,1665.715l83.982-83.982 M567.593,1665.715l-83.981,83.983 M567.593,1917.664l-83.981-83.983
	 M231.661,1917.664l83.983,83.982 M483.61,1917.664l-83.983,83.982 M315.645,2253.596l-83.982,83.983 M399.628,2253.596
	l83.982,83.983 M483.61,2001.646l83.981,83.983 M483.61,2253.596l83.981-83.982 M903.523,2001.646l-83.981,83.983 M819.542,2169.613
	l83.981,83.982 M567.593,2001.646l83.983-83.982 M819.542,2001.646l-83.983-83.982 M567.593,2253.596l83.983,83.983
	 M735.559,2337.579l83.983-83.983 M903.523,1833.681l-83.981,83.983 M903.523,1749.698l-83.981-83.983 M1239.456,1665.715
	l-83.981,83.983 M1239.456,1917.664l-83.981-83.983 M987.508,2001.646l-83.982-83.982 M1155.475,1917.664l-83.983,83.982
	 M987.508,2253.596l-83.982,83.983 M1071.491,2253.596l83.981,83.983 M1155.475,2001.646l83.981,83.983 M1155.475,2253.596
	l83.981-83.982 M1491.405,2085.63l83.981-83.983 M1491.405,2169.613l83.981,83.982 M1239.456,2001.646l83.983-83.982
	 M1491.405,2001.646l-83.983-83.982 M1239.456,2253.596l83.983,83.983 M1407.422,2337.579l83.983-83.983 M1491.405,1917.664
	l83.981-83.983 M1491.405,1665.715l83.981,83.983 M1911.318,1665.715l-83.981,83.983 M1911.318,1917.664l-83.981-83.983
	 M1575.388,1917.664l83.983,83.982 M1827.337,1917.664l-83.983,83.982 M1659.371,2253.596l-83.983,83.983 M1743.354,2253.596
	l83.982,83.983 M1827.337,2001.646l83.982,83.983 M1827.337,2253.596l83.982-83.982 M2247.251,2001.646l-83.981,83.983
	 M2163.27,2169.613l83.981,83.982 M1911.318,2001.646l83.983-83.982 M2163.27,2001.646l-83.983-83.982 M1911.318,2253.596
	l83.983,83.983 M2079.285,2337.579l83.982-83.983 M2163.27,1917.664l83.981-83.983 M2247.251,1749.698l-83.981-83.983
	 M2583.184,1665.715l-83.982,83.983 M2583.184,1917.664l-83.982-83.983 M2331.234,2001.646l-83.983-83.982 M2499.2,1917.664
	l-83.983,83.982 M2331.234,2253.596l-83.983,83.983 M2415.218,2253.596l83.982,83.983 M2499.2,2001.646l83.981,83.983
	 M2583.184,2169.613l-83.982,83.982 M2583.184,2001.646l83.982-83.982 M2835.132,2001.646l-83.982-83.982 M2583.184,2253.596
	l83.982,83.983 M2751.148,2337.579l83.982-83.983 M567.593,2337.579l-83.981,83.983 M483.61,2505.544l83.981,83.983
	 M231.661,2589.527l83.983,83.982 M483.61,2589.527l-83.983,83.982 M567.593,2757.493l-83.981-83.983 M483.61,2925.459
	l83.981-83.982 M819.542,2757.493l83.981-83.983 M819.542,2841.477l83.981,83.982 M567.593,2673.51l83.983-83.982 M819.542,2673.51
	l-83.983-83.982 M819.542,2589.527l83.981-83.983 M903.523,2421.562l-83.981-83.983 M1239.456,2337.579l-83.981,83.983
	 M1239.456,2589.527l-83.981-83.983 M987.508,2673.51l-83.982-83.982 M1155.475,2589.527l-83.983,83.982 M1155.475,2673.51
	l83.981,83.983 M1155.475,2925.459l83.981-83.982 M1491.405,2757.493l83.981-83.983 M1491.405,2841.477l83.981,83.982
	 M1239.456,2673.51l83.983-83.982 M1491.405,2673.51l-83.983-83.982 M1491.405,2589.527l83.981-83.983 M1491.405,2337.579
	l83.981,83.983 M1911.318,2337.579l-83.981,83.983 M1827.337,2505.544l83.982,83.983 M1575.388,2589.527l83.983,83.982
	 M1827.337,2589.527l-83.983,83.982 M1911.318,2757.493l-83.981-83.983 M1827.337,2925.459l83.982-83.982 M2163.27,2757.493
	l83.981-83.983 M2163.27,2841.477l83.981,83.982 M1911.318,2673.51l83.983-83.982 M2163.27,2673.51l-83.983-83.982
	 M2163.27,2589.527l83.981-83.983 M2247.251,2421.562l-83.981-83.983 M2583.184,2337.579l-83.982,83.983 M2583.184,2589.527
	l-83.982-83.983 M2331.234,2673.51l-83.983-83.982 M2499.2,2589.527l-83.983,83.982 M2499.2,2673.51l83.981,83.983 M2499.2,2925.459
	l83.981-83.982 M2583.184,2673.51l83.982-83.982 M2835.132,2673.51l-83.982-83.982"/>
<path opacity="0.5" fill="none" stroke="#FF0000" stroke-miterlimit="10" d="M231.661,405.972H483.61 M231.661,489.955H483.61
	 M315.645,657.92v251.949 M399.627,657.92l0.001,251.949 M567.593,825.886h251.949 M567.593,741.903h251.949 M651.576,573.938
	V321.989 M735.559,573.938V321.989 M903.523,405.972h251.949 M903.523,489.955h251.949 M987.508,657.92v251.949 M1071.49,657.92
	l0.001,251.949 M1239.456,825.886h251.949 M1239.456,741.903h251.949 M1323.439,573.938V321.989 M1407.422,573.938V321.989
	 M1575.388,405.972h251.949 M1575.388,489.955h251.949 M1659.371,657.92v251.949 M1743.354,657.92l0.002,251.949 M1911.318,825.886
	h251.949 M1911.318,741.903h251.949 M1995.303,573.938V321.989 M2079.285,573.938V321.989 M2247.251,405.972H2499.2
	 M2247.251,489.955H2499.2 M2331.234,657.92v251.949 M2415.217,657.92l0.001,251.949 M2583.184,825.886h251.948 M2583.184,741.903
	h251.948 M2667.166,573.938V321.989 M2751.148,573.938V321.989 M231.661,1077.835H483.61 M231.661,1161.818H483.61
	 M315.645,1329.784v251.948 M399.627,1329.784l0.001,251.948 M567.593,1497.75h251.949 M567.593,1413.768h251.949 M651.576,1245.801
	V993.852 M735.559,1245.801V993.852 M903.523,1077.835h251.949 M903.523,1161.818h251.949 M987.508,1329.784v251.948
	 M1071.49,1329.784l0.001,251.948 M1239.456,1497.75h251.949 M1239.456,1413.768h251.949 M1323.439,1245.801V993.852
	 M1407.422,1245.801V993.852 M1575.388,1077.835h251.949 M1575.388,1161.818h251.949 M1659.371,1329.784v251.948 M1743.354,1329.784
	l0.002,251.948 M1911.318,1497.75h251.949 M1911.318,1413.768h251.949 M1995.303,1245.801V993.852 M2079.285,1245.801V993.852
	 M2247.251,1077.835H2499.2 M2247.251,1161.818H2499.2 M2331.234,1329.784v251.948 M2415.217,1329.784l0.001,251.948
	 M2583.184,1497.75h251.948 M2583.184,1413.768h251.948 M2667.166,1245.801V993.852 M2751.148,1245.801V993.852 M231.661,1749.698
	H483.61 M231.661,1833.681H483.61 M315.645,2001.646v251.949 M399.627,2001.646l0.001,251.949 M567.593,2169.613h251.949
	 M567.593,2085.63h251.949 M651.576,1917.664v-251.949 M735.559,1917.664v-251.949 M903.523,1749.698h251.949 M903.523,1833.681
	h251.949 M987.508,2001.646v251.949 M1071.49,2001.646l0.001,251.949 M1239.456,2169.613h251.949 M1239.456,2085.63h251.949
	 M1323.439,1917.664v-251.949 M1407.422,1917.664v-251.949 M1575.388,1749.698h251.949 M1575.388,1833.681h251.949
	 M1659.371,2001.646v251.949 M1743.354,2001.646l0.002,251.949 M1911.318,2169.613h251.949 M1911.318,2085.63h251.949
	 M1995.303,1917.664v-251.949 M2079.285,1917.664v-251.949 M2247.251,1749.698H2499.2 M2247.251,1833.681H2499.2 M2331.234,2001.646
	v251.949 M2415.217,2001.646l0.001,251.949 M2583.184,2169.613h251.948 M2583.184,2085.63h251.948 M2667.166,1917.664v-251.949
	 M2751.148,1917.664v-251.949 M231.661,2421.562H483.61 M231.661,2505.544H483.61 M315.645,2673.51v251.949 M399.627,2673.51
	l0.001,251.949 M567.593,2841.477h251.949 M567.593,2757.493h251.949 M651.576,2589.527v-251.949 M735.559,2589.527v-251.949
	 M903.523,2421.562h251.949 M903.523,2505.544h251.949 M987.508,2673.51v251.949 M1071.49,2673.51l0.001,251.949 M1239.456,2841.477
	h251.949 M1239.456,2757.493h251.949 M1323.439,2589.527v-251.949 M1407.422,2589.527v-251.949 M1575.388,2421.562h251.949
	 M1575.388,2505.544h251.949 M1659.371,2673.51v251.949 M1743.354,2673.51l0.002,251.949 M1911.318,2841.477h251.949
	 M1911.318,2757.493h251.949 M1995.303,2589.527v-251.949 M2079.285,2589.527v-251.949 M2247.251,2421.562H2499.2
	 M2247.251,2505.544H2499.2 M2331.234,2673.51v251.949 M2415.217,2673.51l0.001,251.949 M2583.184,2841.477h251.948
	 M2583.184,2757.493h251.948 M2667.166,2589.527v-251.949 M2751.148,2589.527v-251.949 M651.576,2589.527h83.982 M1323.439,2589.527
	h83.982 M1995.303,2589.527h83.982 M2667.166,2589.527h83.982 M2415.217,2673.51h-83.982 M1743.354,2673.51h-83.982
	 M1071.49,2673.51h-83.982 M399.627,2673.51h-83.982 M651.576,2337.578h83.982 M1323.439,2337.578h83.982 M1995.303,2337.578h83.982
	 M2667.166,2337.578h83.982 M2415.217,2253.596h-83.982 M1743.354,2253.596h-83.982 M1071.49,2253.596h-83.982 M399.627,2253.596
	h-83.982 M651.576,1917.664h83.982 M1323.439,1917.664h83.982 M1995.303,1917.664h83.982 M2667.166,1917.664h83.982
	 M2415.217,2001.646h-83.982 M1743.354,2001.646h-83.982 M1071.49,2001.646h-83.982 M399.627,2001.646h-83.982 M651.576,1665.715
	h83.982 M1323.439,1665.715h83.982 M1995.303,1665.715h83.982 M2667.166,1665.715h83.982 M2415.217,1581.732h-83.982
	 M1743.354,1581.732h-83.982 M1071.49,1581.732h-83.982 M399.627,1581.732h-83.982 M651.576,1245.802h83.982 M1323.439,1245.802
	h83.982 M1995.303,1245.802h83.982 M2667.166,1245.802h83.982 M2415.217,1329.784h-83.982 M1743.354,1329.784h-83.982
	 M1071.49,1329.784h-83.982 M399.627,1329.784h-83.982 M651.576,993.853h83.982 M1323.439,993.853h83.982 M1995.303,993.853h83.982
	 M2667.166,993.853h83.982 M2415.217,909.87h-83.982 M1743.354,909.87h-83.982 M1071.49,909.87h-83.982 M399.627,909.87h-83.982
	 M650.729,573.938h83.982 M1322.593,573.938h83.982 M1994.456,573.938h83.982 M2666.319,573.938h83.982 M2414.37,657.921h-83.982
	 M1742.507,657.921h-83.982 M1070.644,657.921h-83.982 M398.78,657.921h-83.982 M2498.354,2505.546v-83.982 M2498.354,1833.683
	V1749.7 M2498.354,1161.819v-83.982 M2498.354,489.956v-83.982 M2582.337,741.905v83.982 M2582.337,1413.769v83.982
	 M2582.337,2085.632v83.982 M2582.337,2757.495v83.982 M2246.405,2505.546v-83.982 M2246.405,1833.683V1749.7 M2246.405,1161.819
	v-83.982 M2246.405,489.956v-83.982 M2162.423,741.905v83.982 M2162.423,1413.769v83.982 M2162.423,2085.632v83.982
	 M2162.423,2757.495v83.982 M1826.491,2505.546v-83.982 M1826.491,1833.683V1749.7 M1826.491,1161.819v-83.982 M1826.491,489.956
	v-83.982 M1910.474,741.905v83.982 M1910.474,1413.769v83.982 M1910.474,2085.632v83.982 M1910.474,2757.495v83.982
	 M1574.542,2505.546v-83.982 M1574.542,1833.683V1749.7 M1574.542,1161.819v-83.982 M1574.542,489.956v-83.982 M1490.56,741.905
	v83.982 M1490.56,1413.769v83.982 M1490.56,2085.632v83.982 M1490.56,2757.495v83.982 M1154.629,2505.546v-83.982
	 M1154.629,1833.683V1749.7 M1154.629,1161.819v-83.982 M1154.629,489.956v-83.982 M1238.611,741.905v83.982 M1238.611,1413.769
	v83.982 M1238.611,2085.632v83.982 M1238.611,2757.495v83.982 M902.68,2505.546v-83.982 M902.68,1833.683V1749.7 M902.68,1161.819
	v-83.982 M902.68,489.956v-83.982 M818.697,741.905v83.982 M818.697,1413.769v83.982 M818.697,2085.632v83.982 M818.697,2757.495
	v83.982 M482.766,2506.393v-83.982 M482.766,1834.529v-83.982 M482.766,1162.666v-83.982 M482.766,490.803V406.82 M566.748,742.752
	v83.982 M566.748,1414.615v83.982 M566.748,2086.479v83.982 M566.748,2758.342v83.982"/>
<path fill="none" stroke="#0000FF" stroke-miterlimit="10" d="M231.661,2589.527H483.61 M903.525,2589.527h251.949
	 M1575.388,2589.527h251.949 M2247.251,2589.527H2499.2 M2835.132,2673.51h-251.948 M2163.27,2673.51h-251.951 M1491.405,2673.51
	h-251.949 M819.542,2673.51H567.593 M231.661,2337.578H483.61 M903.525,2337.578h251.949 M1575.388,2337.578h251.949
	 M2247.251,2337.578H2499.2 M2835.132,2253.596h-251.948 M2163.27,2253.596h-251.951 M1491.405,2253.596h-251.949 M819.542,2253.596
	H567.593 M231.661,1917.664H483.61 M903.525,1917.664h251.949 M1575.388,1917.664h251.949 M2247.251,1917.664H2499.2
	 M2835.132,2001.646h-251.948 M2163.27,2001.646h-251.951 M1491.405,2001.646h-251.949 M819.542,2001.646H567.593 M231.661,1665.715
	H483.61 M903.525,1665.715h251.949 M1575.388,1665.715h251.949 M2247.251,1665.715H2499.2 M2835.132,1581.732h-251.948
	 M2163.27,1581.732h-251.951 M1491.405,1581.732h-251.949 M819.542,1581.732H567.593 M231.661,1245.802H483.61 M903.525,1245.802
	h251.949 M1575.388,1245.802h251.949 M2247.251,1245.802H2499.2 M2835.132,1329.784h-251.948 M2163.27,1329.784h-251.951
	 M1491.405,1329.784h-251.949 M819.542,1329.784H567.593 M231.661,993.853H483.61 M903.525,993.853h251.949 M1575.388,993.853
	h251.949 M2247.251,993.853H2499.2 M2835.132,909.87h-251.948 M2163.27,909.87h-251.951 M1491.405,909.87h-251.949 M819.542,909.87
	H567.593 M230.814,573.938h251.949 M902.679,573.938h251.949 M1574.541,573.938h251.949 M2246.404,573.938h251.949
	 M2834.285,657.921h-251.948 M2162.423,657.921h-251.951 M1490.559,657.921h-251.949 M818.695,657.921H566.746 M2498.354,2925.461
	v-251.949 M2498.354,2253.597v-251.949 M2498.354,1581.734v-251.949 M2498.354,909.871V657.922 M2582.337,321.99v251.948
	 M2582.337,993.853v251.951 M2582.337,1665.717v251.949 M2582.337,2337.58v251.949 M2246.405,2925.461v-251.949 M2246.405,2253.597
	v-251.949 M2246.405,1581.734v-251.949 M2246.405,909.871V657.922 M2162.423,321.99v251.948 M2162.423,993.853v251.951
	 M2162.423,1665.717v251.949 M2162.423,2337.58v251.949 M1826.491,2925.461v-251.949 M1826.491,2253.597v-251.949
	 M1826.491,1581.734v-251.949 M1826.491,909.871V657.922 M1910.474,321.99v251.948 M1910.474,993.853v251.951 M1910.474,1665.717
	v251.949 M1910.474,2337.58v251.949 M1574.542,2925.461v-251.949 M1574.542,2253.597v-251.949 M1574.542,1581.734v-251.949
	 M1574.542,909.871V657.922 M1490.56,321.99v251.948 M1490.56,993.853v251.951 M1490.56,1665.717v251.949 M1490.56,2337.58v251.949
	 M1154.629,2925.461v-251.949 M1154.629,2253.597v-251.949 M1154.629,1581.734v-251.949 M1154.629,909.871V657.922 M1238.611,321.99
	v251.948 M1238.611,993.853v251.951 M1238.611,1665.717v251.949 M1238.611,2337.58v251.949 M902.68,2925.461v-251.949
	 M902.68,2253.597v-251.949 M902.68,1581.734v-251.949 M902.68,909.871V657.922 M818.697,321.99v251.948 M818.697,993.853v251.951
	 M818.697,1665.717v251.949 M818.697,2337.58v251.949 M482.766,2926.308v-251.949 M482.766,2254.443v-251.949 M482.766,1582.581
	v-251.949 M482.766,910.718V658.769 M566.748,322.837v251.948 M566.748,994.699v251.951 M566.748,1666.563v251.949
	 M566.748,2338.427v251.949"/>
<path opacity="0.5" fill="none" stroke="#0000FF" stroke-miterlimit="10" d="M483.61,2589.527h83.981 M567.592,2589.527h83.984
	 M735.559,2589.527h83.983 M819.542,2589.527h83.983 M1155.475,2589.527h83.981 M1239.456,2589.527h83.983 M1407.422,2589.527
	h83.983 M1491.405,2589.527h83.982 M1827.337,2589.527h83.982 M1911.319,2589.527h83.983 M2079.285,2589.527h83.984
	 M2163.27,2589.527h83.981 M2499.2,2589.527h83.983 M2583.184,2589.527h83.982 M2751.148,2589.527h83.983 M2583.184,2673.51H2499.2
	 M2499.2,2673.51h-83.983 M2331.234,2673.51h-83.983 M2247.251,2673.51h-83.981 M1911.318,2673.51h-167.965 M1659.371,2673.51
	h-83.984 M1575.387,2673.51h-83.981 M1239.456,2673.51h-83.981 M1155.475,2673.51h-83.984 M987.508,2673.51h-83.984
	 M903.523,2673.51h-83.981 M567.593,2673.51h-83.981 M483.611,2673.51h-83.984 M315.645,2673.51h-83.983 M483.61,2337.578h83.981
	 M567.592,2337.578h83.984 M735.559,2337.578h83.983 M819.542,2337.578h83.983 M1155.475,2337.578h83.981 M1239.456,2337.578h83.983
	 M1407.422,2337.578h83.983 M1491.405,2337.578h83.982 M1827.337,2337.578h83.982 M1911.319,2337.578h83.983 M2079.285,2337.578
	h83.984 M2163.27,2337.578h83.981 M2499.2,2337.578h83.983 M2583.184,2337.578h83.982 M2751.148,2337.578h83.983 M2583.184,2253.596
	H2499.2 M2499.2,2253.596h-83.983 M2331.234,2253.596h-83.983 M2247.251,2253.596h-83.981 M1911.318,2253.596h-167.965
	 M1659.371,2253.596h-83.984 M1575.387,2253.596h-83.981 M1239.456,2253.596h-83.981 M1155.475,2253.596h-83.984 M987.508,2253.596
	h-83.984 M903.523,2253.596h-83.981 M567.593,2253.596h-83.981 M483.611,2253.596h-83.984 M315.645,2253.596h-83.983
	 M483.61,1917.664h83.981 M567.592,1917.664h83.984 M735.559,1917.664h83.983 M819.542,1917.664h83.983 M1155.475,1917.664h83.981
	 M1239.456,1917.664h83.983 M1407.422,1917.664h83.983 M1491.405,1917.664h83.982 M1827.337,1917.664h83.982 M1911.319,1917.664
	h83.983 M2079.285,1917.664h83.984 M2163.27,1917.664h83.981 M2499.2,1917.664h83.983 M2583.184,1917.664h83.982 M2751.148,1917.664
	h83.983 M2583.184,2001.646H2499.2 M2499.2,2001.646h-83.983 M2331.234,2001.646h-83.983 M2247.251,2001.646h-83.981
	 M1911.318,2001.646h-167.965 M1659.371,2001.646h-83.984 M1575.387,2001.646h-83.981 M1239.456,2001.646h-83.981
	 M1155.475,2001.646h-83.984 M987.508,2001.646h-83.984 M903.523,2001.646h-83.981 M567.593,2001.646h-83.981 M483.611,2001.646
	h-83.984 M315.645,2001.646h-83.983 M483.61,1665.715h83.981 M567.592,1665.715h83.984 M735.559,1665.715h83.983 M819.542,1665.715
	h83.983 M1155.475,1665.715h83.981 M1239.456,1665.715h83.983 M1407.422,1665.715h83.983 M1491.405,1665.715h83.982
	 M1827.337,1665.715h83.982 M1911.319,1665.715h83.983 M2079.285,1665.715h83.984 M2163.27,1665.715h83.981 M2499.2,1665.715h83.983
	 M2583.184,1665.715h83.982 M2751.148,1665.715h83.983 M2583.184,1581.732H2499.2 M2499.2,1581.732h-83.983 M2331.234,1581.732
	h-83.983 M2247.251,1581.732h-83.981 M1911.318,1581.732h-167.965 M1659.371,1581.732h-83.984 M1575.387,1581.732h-83.981
	 M1239.456,1581.732h-83.981 M1155.475,1581.732h-83.984 M987.508,1581.732h-83.984 M903.523,1581.732h-83.981 M567.593,1581.732
	h-83.981 M483.611,1581.732h-83.984 M315.645,1581.732h-83.983 M483.61,1245.802h83.981 M567.592,1245.802h83.984 M735.559,1245.802
	h83.983 M819.542,1245.802h83.983 M1155.475,1245.802h83.981 M1239.456,1245.802h83.983 M1407.422,1245.802h83.983
	 M1491.405,1245.802h83.982 M1827.337,1245.802h83.982 M1911.319,1245.802h83.983 M2079.285,1245.802h83.984 M2163.27,1245.802
	h83.981 M2499.2,1245.802h83.983 M2583.184,1245.802h83.982 M2751.148,1245.802h83.983 M2583.184,1329.784H2499.2 M2499.2,1329.784
	h-83.983 M2331.234,1329.784h-83.983 M2247.251,1329.784h-83.981 M1911.318,1329.784h-167.965 M1659.371,1329.784h-83.984
	 M1575.387,1329.784h-83.981 M1239.456,1329.784h-83.981 M1155.475,1329.784h-83.984 M987.508,1329.784h-83.984 M903.523,1329.784
	h-83.981 M567.593,1329.784h-83.981 M483.611,1329.784h-83.984 M315.645,1329.784h-83.983 M483.61,993.853h83.981 M567.592,993.853
	h83.984 M735.559,993.853h83.983 M819.542,993.853h83.983 M1155.475,993.853h83.981 M1239.456,993.853h83.983 M1407.422,993.853
	h83.983 M1491.405,993.853h83.982 M1827.337,993.853h83.982 M1911.319,993.853h83.983 M2079.285,993.853h83.984 M2163.27,993.853
	h83.981 M2499.2,993.853h83.983 M2583.184,993.853h83.982 M2751.148,993.853h83.983 M2583.184,909.87H2499.2 M2499.2,909.87h-83.983
	 M2331.234,909.87h-83.983 M2247.251,909.87h-83.981 M1911.318,909.87h-167.965 M1659.371,909.87h-83.984 M1575.387,909.87h-83.981
	 M1239.456,909.87h-83.981 M1155.475,909.87h-83.984 M987.508,909.87h-83.984 M903.523,909.87h-83.981 M567.593,909.87h-83.981
	 M483.611,909.87h-83.984 M315.645,909.87h-83.983 M482.764,573.938h83.981 M566.745,573.938h83.984 M734.712,573.938h83.983
	 M818.695,573.938h83.983 M1154.628,573.938h83.981 M1238.609,573.938h83.983 M1406.575,573.938h83.983 M1490.559,573.938h83.982
	 M1826.49,573.938h83.982 M1910.473,573.938h83.983 M2078.438,573.938h83.984 M2162.423,573.938h83.981 M2498.354,573.938h83.983
	 M2582.337,573.938h83.982 M2750.302,573.938h83.983 M2582.337,657.921h-83.983 M2498.354,657.921h-83.983 M2330.388,657.921
	h-83.983 M2246.404,657.921h-83.981 M1910.472,657.921h-167.965 M1658.524,657.921h-83.984 M1574.54,657.921h-83.981
	 M1238.609,657.921h-83.981 M1154.628,657.921h-83.984 M986.661,657.921h-83.984 M902.677,657.921h-83.981 M566.746,657.921h-83.981
	 M482.765,657.921H398.78 M314.798,657.921h-83.983 M2498.354,2673.512v-83.981 M2498.354,2589.53v-83.984 M2498.354,2421.563
	v-83.983 M2498.354,2337.58v-83.983 M2498.354,2001.647v-83.981 M2498.354,1917.666v-83.983 M2498.354,1749.7v-83.983
	 M2498.354,1665.717v-83.982 M2498.354,1329.785v-83.982 M2498.354,1245.803v-83.983 M2498.354,1077.837v-83.984 M2498.354,993.853
	v-83.981 M2498.354,657.922v-83.983 M2498.354,573.938v-83.982 M2498.354,405.974V321.99 M2582.337,573.938v83.983
	 M2582.337,657.922v83.983 M2582.337,825.888v83.983 M2582.337,909.871v83.981 M2582.337,1245.804v167.965 M2582.337,1497.751
	v83.984 M2582.337,1581.735v83.981 M2582.337,1917.666v83.981 M2582.337,2001.647v83.984 M2582.337,2169.614v83.984
	 M2582.337,2253.599v83.981 M2582.337,2589.529v83.981 M2582.337,2673.511v83.984 M2582.337,2841.478v83.983 M2246.405,2673.512
	v-83.981 M2246.405,2589.53v-83.984 M2246.405,2421.563v-83.983 M2246.405,2337.58v-83.983 M2246.405,2001.647v-83.981
	 M2246.405,1917.666v-83.983 M2246.405,1749.7v-83.983 M2246.405,1665.717v-83.982 M2246.405,1329.785v-83.982 M2246.405,1245.803
	v-83.983 M2246.405,1077.837v-83.984 M2246.405,993.853v-83.981 M2246.405,657.922v-83.983 M2246.405,573.938v-83.982
	 M2246.405,405.974V321.99 M2162.423,573.938v83.983 M2162.423,657.922v83.983 M2162.423,825.888v83.983 M2162.423,909.871v83.981
	 M2162.423,1245.804v167.965 M2162.423,1497.751v83.984 M2162.423,1581.735v83.981 M2162.423,1917.666v83.981 M2162.423,2001.647
	v83.984 M2162.423,2169.614v83.984 M2162.423,2253.599v83.981 M2162.423,2589.529v83.981 M2162.423,2673.511v83.984
	 M2162.423,2841.478v83.983 M1826.491,2673.512v-83.981 M1826.491,2589.53v-83.984 M1826.491,2421.563v-83.983 M1826.491,2337.58
	v-83.983 M1826.491,2001.647v-83.981 M1826.491,1917.666v-83.983 M1826.491,1749.7v-83.983 M1826.491,1665.717v-83.982
	 M1826.491,1329.785v-83.982 M1826.491,1245.803v-83.983 M1826.491,1077.837v-83.984 M1826.491,993.853v-83.981 M1826.491,657.922
	v-83.983 M1826.491,573.938v-83.982 M1826.491,405.974V321.99 M1910.474,573.938v83.983 M1910.474,657.922v83.983 M1910.474,825.888
	v83.983 M1910.474,909.871v83.981 M1910.474,1245.804v167.965 M1910.474,1497.751v83.984 M1910.474,1581.735v83.981
	 M1910.474,1917.666v83.981 M1910.474,2001.647v83.984 M1910.474,2169.614v83.984 M1910.474,2253.599v83.981 M1910.474,2589.529
	v83.981 M1910.474,2673.511v83.984 M1910.474,2841.478v83.983 M1574.542,2673.512v-83.981 M1574.542,2589.53v-83.984
	 M1574.542,2421.563v-83.983 M1574.542,2337.58v-83.983 M1574.542,2001.647v-83.981 M1574.542,1917.666v-83.983 M1574.542,1749.7
	v-83.983 M1574.542,1665.717v-83.982 M1574.542,1329.785v-83.982 M1574.542,1245.803v-83.983 M1574.542,1077.837v-83.984
	 M1574.542,993.853v-83.981 M1574.542,657.922v-83.983 M1574.542,573.938v-83.982 M1574.542,405.974V321.99 M1490.56,573.938v83.983
	 M1490.56,657.922v83.983 M1490.56,825.888v83.983 M1490.56,909.871v83.981 M1490.56,1245.804v167.965 M1490.56,1497.751v83.984
	 M1490.56,1581.735v83.981 M1490.56,1917.666v83.981 M1490.56,2001.647v83.984 M1490.56,2169.614v83.984 M1490.56,2253.599v83.981
	 M1490.56,2589.529v83.981 M1490.56,2673.511v83.984 M1490.56,2841.478v83.983 M1154.629,2673.512v-83.981 M1154.629,2589.53
	v-83.984 M1154.629,2421.563v-83.983 M1154.629,2337.58v-83.983 M1154.629,2001.647v-83.981 M1154.629,1917.666v-83.983
	 M1154.629,1749.7v-83.983 M1154.629,1665.717v-83.982 M1154.629,1329.785v-83.982 M1154.629,1245.803v-83.983 M1154.629,1077.837
	v-83.984 M1154.629,993.853v-83.981 M1154.629,657.922v-83.983 M1154.629,573.938v-83.982 M1154.629,405.974V321.99
	 M1238.611,573.938v83.983 M1238.611,657.922v83.983 M1238.611,825.888v83.983 M1238.611,909.871v83.981 M1238.611,1245.804v167.965
	 M1238.611,1497.751v83.984 M1238.611,1581.735v83.981 M1238.611,1917.666v83.981 M1238.611,2001.647v83.984 M1238.611,2169.614
	v83.984 M1238.611,2253.599v83.981 M1238.611,2589.529v83.981 M1238.611,2673.511v83.984 M1238.611,2841.478v83.983
	 M902.68,2673.512v-83.981 M902.68,2589.53v-83.984 M902.68,2421.563v-83.983 M902.68,2337.58v-83.983 M902.68,2001.647v-83.981
	 M902.68,1917.666v-83.983 M902.68,1749.7v-83.983 M902.68,1665.717v-83.982 M902.68,1329.785v-83.982 M902.68,1245.803v-83.983
	 M902.68,1077.837v-83.984 M902.68,993.853v-83.981 M902.68,657.922v-83.983 M902.68,573.938v-83.982 M902.68,405.974V321.99
	 M818.697,573.938v83.983 M818.697,657.922v83.983 M818.697,825.888v83.983 M818.697,909.871v83.981 M818.697,1245.804v167.965
	 M818.697,1497.751v83.984 M818.697,1581.735v83.981 M818.697,1917.666v83.981 M818.697,2001.647v83.984 M818.697,2169.614v83.984
	 M818.697,2253.599v83.981 M818.697,2589.529v83.981 M818.697,2673.511v83.984 M818.697,2841.478v83.983 M482.766,2674.358v-83.981
	 M482.766,2590.377v-83.984 M482.766,2422.41v-83.983 M482.766,2338.427v-83.983 M482.766,2002.494v-83.981 M482.766,1918.513
	v-83.983 M482.766,1750.547v-83.983 M482.766,1666.563v-83.982 M482.766,1330.632v-83.982 M482.766,1246.649v-83.983
	 M482.766,1078.684v-83.984 M482.766,994.699v-83.981 M482.766,658.769v-83.983 M482.766,574.785v-83.982 M482.766,406.82v-83.983
	 M566.748,574.785v83.983 M566.748,658.769v83.983 M566.748,826.734v83.983 M566.748,910.718v83.981 M566.748,1246.65v167.965
	 M566.748,1498.598v83.984 M566.748,1582.582v83.981 M566.748,1918.513v83.981 M566.748,2002.494v83.984 M566.748,2170.461v83.984
	 M566.748,2254.445v83.981 M566.748,2590.376v83.981 M566.748,2674.357v83.984 M566.748,2842.324v83.983"/>
<path fill="none" stroke="#000000" stroke-miterlimit="10" d="M231.661,2925.459h2603.471 M231.661,2925.459V321.989
	 M2835.132,2925.459V321.989 M231.661,321.989h2603.471"/>
</svg>
