<?xml version="1.0" encoding="utf-8"?>
<!-- Generator: Adobe Illustrator 16.0.3, SVG Export Plug-In . SVG Version: 6.00 Build 0)  -->
<!DOCTYPE svg PUBLIC "-//W3C//DTD SVG 1.1//EN" "http://www.w3.org/Graphics/SVG/1.1/DTD/svg11.dtd">
<svg version="1.1" id="Layer_1" xmlns="http://www.w3.org/2000/svg" xmlns:xlink="http://www.w3.org/1999/xlink" x="0px" y="0px"
	 width="2672.654px" height="2569.027px" viewBox="0 0 2672.654 2569.027" enable-background="new 0 0 2672.654 2569.027"
	 xml:space="preserve">
<path fill="none" stroke="#0000FF" stroke-miterlimit="10" d="M334.715,471.416h178.571 M513.287,649.987h178.57 M156.143,649.986
	h178.571 M156.143,292.845h178.571 M691.857,471.416h178.569 M513.287,292.845h178.57 M1049.001,471.417h178.571 M1227.573,649.988
	h178.571 M870.429,649.987H1049 M870.429,292.846H1049 M1406.143,471.417h178.571 M1227.573,292.846h178.571 M1763.287,471.417
	h178.57 M1941.859,649.989h178.569 M1584.715,649.988h178.572 M1584.715,292.847h178.571 M2120.43,471.418H2299 M1941.859,292.847
	h178.57 M334.719,1185.705h178.572 M513.291,1364.277h178.57 M156.148,1364.275h178.571 M156.147,1007.136h178.571
	 M691.861,1185.706h178.57 M513.292,1007.136h178.571 M1049.005,1185.706h178.572 M1227.577,1364.277h178.571 M870.434,1364.277
	h178.571 M870.434,1007.136h178.57 M1406.148,1185.707h178.569 M1227.578,1007.136h178.57 M1763.291,1185.707h178.572
	 M1941.863,1364.279h178.57 M1584.72,1364.277h178.571 M1584.719,1007.138h178.572 M2120.434,1185.708h178.57 M1941.863,1007.138
	h178.572 M334.721,1899.989h178.571 M513.293,2078.562h178.571 M156.149,2078.561H334.72 M156.149,1721.42H334.72 M691.862,1899.99
	h178.571 M513.293,1721.42h178.571 M1049.007,1899.99h178.571 M1227.579,2078.562h178.569 M870.436,2078.562h178.57
	 M870.436,1721.42h178.57 M1406.148,1899.991h178.57 M1227.579,1721.42h178.571 M1763.292,1899.991h178.572 M1941.864,2078.562
	h178.569 M1584.721,2078.562h178.571 M1584.721,1721.42h178.571 M2120.436,1899.992h178.569 M1941.864,1721.422h178.571
	 M2299.004,649.989h178.571 M2299.004,292.847h178.57 M2299.008,1364.279h178.572 M2299.008,1007.138h178.571 M2299.01,2078.562
	h178.571 M2299.009,1721.422h178.572 M334.719,828.561H513.29 M691.861,828.561h178.57 M1049.005,828.561h178.571 M1406.146,828.561
	h178.57 M1763.291,828.561h178.57 M2120.434,828.562h178.57 M334.714,1542.848h178.571 M691.855,1542.848h178.57 M1049,1542.85
	h178.571 M1406.143,1542.85h178.571 M1763.286,1542.85h178.569 M2120.429,1542.85h178.57"/>
<path opacity="0.46" fill="none" stroke="#0000FF" stroke-miterlimit="10" d="M245.429,382.13l89.285,89.286 M334.715,471.415
	l-89.286,89.286 M513.286,471.416l89.286,89.285 M602.572,382.13l-89.286,89.286 M424,560.701l89.286,89.286 M513.287,649.986
	L424,739.271 M691.857,649.987l89.287,89.284 M781.145,560.701l-89.287,89.286 M334.714,649.986L424,739.271 M424,560.701
	l-89.286,89.286 M334.714,292.845L424,382.13 M424,203.559l-89.286,89.286 M602.571,382.13l89.284,89.286 M691.857,471.416
	l-89.286,89.286 M870.428,471.416l89.286,89.286 M959.714,382.13l-89.286,89.287 M424.001,203.56l89.286,89.285 M513.287,292.845
	l-89.286,89.286 M691.857,292.845l89.287,89.286 M781.145,203.56l-89.287,89.286 M781.143,560.7l89.285,89.286 M870.429,649.984
	l-89.286,89.287 M781.143,203.559l89.285,89.285 M870.428,292.844l-89.285,89.286 M959.715,382.131L1049,471.417 M1049.001,471.416
	l-89.286,89.286 M1227.572,471.417l89.285,89.285 M1316.857,382.131l-89.285,89.286 M1138.287,560.702l89.285,89.286
	 M1227.573,649.987l-89.286,89.286 M1406.145,649.988l89.285,89.285 M1495.43,560.702l-89.285,89.286 M1049,649.987l89.287,89.286
	 M1138.287,560.702L1049,649.988 M1049,292.846l89.286,89.285 M1138.286,203.56L1049,292.846 M1316.857,382.131l89.285,89.286
	 M1406.143,471.417l-89.285,89.286 M1584.714,471.417L1674,560.703 M1674,382.131l-89.286,89.286 M1138.287,203.561l89.286,89.285
	 M1227.573,292.846l-89.286,89.286 M1406.145,292.846l89.287,89.286 M1495.432,203.561l-89.287,89.286 M1495.429,560.701
	l89.285,89.286 M1584.715,649.986l-89.286,89.285 M1495.428,203.56l89.286,89.285 M1584.714,292.845l-89.286,89.286
	 M1674.001,382.132l89.286,89.285 M1763.287,471.417l-89.286,89.286 M1941.857,471.417l89.287,89.286 M2031.145,382.132
	l-89.287,89.286 M1852.572,560.703l89.285,89.286 M1941.859,649.988l-89.287,89.285 M2120.43,649.989l89.287,89.284
	 M2209.717,560.703l-89.287,89.286 M1763.287,649.988l89.285,89.285 M1852.572,560.703l-89.285,89.286 M1763.286,292.847
	l89.286,89.285 M1852.572,203.561l-89.286,89.286 M2031.143,382.132l89.286,89.286 M2120.43,471.417l-89.287,89.287 M2299,471.418
	l89.287,89.286 M2388.287,382.132L2299,471.418 M1852.573,203.562l89.286,89.285 M1941.859,292.847l-89.286,89.286
	 M2120.431,292.847l89.286,89.286 M2209.717,203.562l-89.285,89.286 M2209.715,560.702L2299,649.988 M2299.001,649.987
	l-89.286,89.286 M2209.715,203.561L2299,292.846 M2299,292.846l-89.285,89.286 M245.433,1096.42l89.286,89.285 M334.719,1185.705
	l-89.286,89.286 M602.577,1274.991l-89.286-89.286 M602.577,1096.42l-89.286,89.286 M424.005,1274.991l89.286,89.286
	 M513.291,1364.275l-89.286,89.285 M781.148,1453.562l-89.287-89.284 M781.148,1274.991l-89.287,89.286 M424.005,1453.562
	l-89.286-89.285 M424.005,1274.991l-89.286,89.286 M334.718,1007.136l89.286,89.284 M334.718,1007.136l89.286-89.286
	 M602.575,1096.42l89.286,89.286 M691.861,1185.705l-89.286,89.287 M959.719,1274.992l-89.285-89.286 M959.719,1096.42
	l-89.285,89.286 M513.291,1007.136l-89.286-89.286 M513.292,1007.136l-89.287,89.285 M691.863,1007.136l89.285,89.285
	 M781.148,917.85l-89.285,89.286 M781.146,1274.99l89.285,89.285 M870.434,1364.275l-89.287,89.285 M870.432,1007.134
	l-89.285-89.284 M870.434,1007.134l-89.287,89.286 M959.719,1096.421l89.286,89.285 M959.719,1274.992l89.286-89.286
	 M1227.577,1185.706l89.286,89.286 M1316.863,1096.421l-89.286,89.286 M1138.291,1274.992l89.286,89.285 M1138.291,1453.562
	l89.286-89.285 M1406.148,1364.277l89.287,89.285 M1495.436,1274.992l-89.287,89.285 M1049.005,1364.277l89.286,89.285
	 M1138.291,1274.992l-89.286,89.285 M1049.004,1007.136l89.287,89.285 M1138.291,917.852l-89.287,89.284 M1316.861,1096.421
	l89.285,89.286 M1406.148,1185.706l-89.287,89.287 M1584.719,1185.707l89.286,89.286 M1584.719,1185.707l89.286-89.286
	 M1227.577,1007.136l-89.285-89.284 M1227.578,1007.136l-89.286,89.286 M1406.148,1007.136l89.287,89.286 M1495.436,917.852
	l-89.287,89.286 M1584.719,1364.277l-89.285-89.286 M1584.719,1364.275l-89.285,89.285 M1495.434,917.85l89.284,89.286
	 M1584.719,1007.136l-89.285,89.285 M1674.005,1096.422l89.286,89.285 M1763.291,1185.707l-89.286,89.286 M1941.863,1185.707
	l89.285,89.286 M2031.148,1096.422l-89.285,89.286 M1852.576,1274.993l89.287,89.286 M1852.576,1453.564l89.287-89.287
	 M2120.434,1364.279l89.287,89.285 M2209.721,1274.993l-89.287,89.286 M1852.576,1453.564l-89.285-89.287 M1852.576,1274.993
	l-89.285,89.286 M1763.291,1007.138l89.285,89.284 M1852.576,917.852l-89.285,89.286 M2031.146,1096.422l89.287,89.286
	 M2120.434,1185.707l-89.287,89.287 M2299.004,1185.708l89.287,89.286 M2299.004,1185.708l89.287-89.286 M1852.578,917.852
	l89.285,89.286 M1941.863,1007.138l-89.285,89.285 M2120.436,1007.138l89.285,89.285 M2209.721,917.852l-89.285,89.286
	 M2209.719,1274.992l89.285,89.285 M2299.006,1364.277l-89.287,89.285 M2299.004,1007.136l-89.285-89.284 M2299.004,1007.136
	l-89.285,89.286 M245.435,1810.705l89.285,89.284 M334.721,1899.989l-89.286,89.286 M513.292,1899.989l89.286,89.286
	 M602.578,1810.705l-89.286,89.285 M513.292,2078.562l-89.286-89.286 M513.293,2078.561l-89.287,89.286 M691.864,2078.562
	l89.284,89.284 M781.148,1989.275l-89.284,89.285 M334.72,2078.561l89.286,89.286 M424.006,1989.274l-89.286,89.286 M334.72,1721.42
	l89.286,89.285 M424.006,1632.133l-89.286,89.287 M602.577,1810.705l89.285,89.285 M691.862,1899.989l-89.285,89.286
	 M959.72,1989.275l-89.286-89.285 M870.434,1899.99l89.286-89.285 M424.007,1632.133l89.286,89.287 M513.293,1721.42l-89.286,89.285
	 M691.864,1721.42l89.286,89.285 M781.15,1632.133l-89.286,89.287 M781.148,1989.274l89.285,89.286 M870.436,2078.561
	l-89.285,89.285 M781.146,1632.133l89.287,89.285 M870.434,1721.418l-89.285,89.287 M959.721,1810.705l89.285,89.285
	 M1049.007,1899.99l-89.286,89.286 M1227.578,1899.99l89.286,89.286 M1316.864,1810.705l-89.286,89.286 M1138.293,1989.276
	l89.285,89.286 M1227.579,2078.562l-89.286,89.285 M1406.148,2078.562l89.287,89.284 M1495.438,1989.276l-89.287,89.286
	 M1049.006,2078.562l89.287,89.285 M1138.293,1989.275l-89.287,89.287 M1049.006,1721.42l89.286,89.285 M1138.292,1632.135
	l-89.286,89.285 M1316.862,1810.705l89.286,89.286 M1406.148,1899.99l-89.286,89.286 M1584.72,1899.991l89.286,89.285
	 M1674.006,1810.705l-89.286,89.286 M1138.293,1632.135l89.286,89.285 M1227.579,1721.42l-89.286,89.287 M1406.15,1721.42
	l89.285,89.287 M1495.438,1632.135l-89.285,89.285 M1495.436,1989.275l89.285,89.285 M1584.721,2078.561l-89.285,89.286
	 M1584.72,1721.42l-89.286-89.287 M1584.72,1721.42l-89.286,89.285 M1674.007,1810.707l89.285,89.284 M1763.292,1899.991
	l-89.285,89.286 M1941.864,1899.991l89.284,89.286 M2031.148,1810.707l-89.284,89.285 M1852.577,1989.277l89.287,89.285
	 M1941.864,2078.562l-89.287,89.285 M2120.436,2078.562l89.287,89.285 M2209.722,1989.277l-89.287,89.285 M1763.292,2078.562
	l89.285,89.285 M1852.577,1989.276l-89.285,89.286 M1763.292,1721.42l89.285,89.287 M1852.577,1632.136l-89.285,89.286
	 M2031.146,1810.707l89.287,89.285 M2120.436,1899.991l-89.287,89.286 M2299.005,1899.992l89.287,89.285 M2388.292,1810.707
	l-89.287,89.285 M1941.864,1721.422l-89.285-89.286 M1941.864,1721.42l-89.285,89.287 M2120.438,1721.422l89.284,89.285
	 M2209.722,1632.136l-89.284,89.286 M2209.72,1989.276l89.285,89.286 M2299.007,2078.562l-89.287,89.285 M2209.72,1632.135
	l89.285,89.285 M2299.005,1721.42l-89.285,89.287 M245.433,739.273l89.285,89.285 M334.719,828.559l-89.286,89.286 M602.576,917.845
	l-89.286-89.284 M602.576,739.273l-89.286,89.287 M602.575,739.273l89.284,89.285 M691.861,828.561l-89.286,89.285 M870.432,828.561
	l89.286,89.285 M959.718,739.273l-89.286,89.287 M959.719,739.273l89.285,89.287 M1049.005,828.561l-89.286,89.285
	 M1227.576,828.561l89.285,89.285 M1316.861,739.273l-89.285,89.287 M1316.861,739.273l89.285,89.287 M1406.146,828.561
	l-89.285,89.286 M1584.718,828.561l89.286,89.286 M1674.004,739.273l-89.286,89.287 M1674.005,739.275l89.286,89.285
	 M1763.291,828.561l-89.286,89.286 M2031.148,917.847l-89.287-89.286 M2031.148,739.275l-89.287,89.285 M2120.434,828.562
	l-89.287-89.287 M2120.434,828.561l-89.287,89.287 M2299.004,828.562l89.287,89.285 M2388.291,739.275l-89.287,89.285
	 M245.428,1453.562l89.285,89.285 M334.714,1542.848l-89.286,89.285 M513.285,1542.848l89.286,89.285 M602.571,1453.562
	l-89.286,89.285 M602.57,1453.562l89.283,89.285 M691.855,1542.848l-89.285,89.286 M870.427,1542.848l89.286,89.286
	 M959.713,1453.562l-89.286,89.287 M1048.999,1542.85l-89.285-89.287 M1049,1542.848l-89.286,89.286 M1227.571,1542.85
	l89.284,89.284 M1316.855,1453.562l-89.285,89.285 M1406.143,1542.85l-89.285-89.287 M1406.143,1542.85l-89.285,89.285
	 M1584.714,1542.85l89.285,89.285 M1673.999,1453.562l-89.285,89.285 M1674.001,1453.562l89.285,89.285 M1763.286,1542.85
	l-89.285,89.285 M2031.145,1632.135l-89.287-89.285 M1941.855,1542.85l89.287-89.285 M2031.143,1453.562l89.286,89.287
	 M2120.429,1542.85l-89.286,89.286 M2298.999,1542.85l89.287,89.286 M2388.286,1453.562l-89.287,89.287"/>
<path fill="none" stroke="#000000" stroke-miterlimit="10" d="M245.435,2167.846H959.72 M959.721,2167.847h714.285
	 M1674.007,2167.848h714.285 M245.429,560.701V382.13 M245.433,1274.991V1096.42 M245.435,1989.275v-178.57 M245.429,203.559
	h714.285 M156.143,292.845l89.286,89.285 M245.429,203.559l-89.286,89.286 M156.143,649.986l89.286,89.285 M245.429,560.7
	l-89.286,89.286 M959.715,203.56H1674 M1674.001,203.561h714.285 M156.147,1007.136l89.286,89.284 M245.433,917.85l-89.286,89.286
	 M156.147,1364.275l89.286,89.285 M245.433,1274.99l-89.286,89.285 M156.149,1721.42l89.286,89.285 M245.435,1632.133
	l-89.286,89.287 M156.149,2078.561l89.286,89.285 M156.149,2078.561l89.286-89.285 M2388.285,560.704V382.132 M2388.289,1274.994
	v-178.572 M2388.29,1989.277v-178.57 M2388.291,1989.274l89.286,89.286 M2388.291,2167.846l89.286-89.285 M2477.577,1721.42
	l-89.286-89.287 M2388.291,1810.705l89.286-89.287 M2388.289,1274.99l89.287,89.285 M2388.289,1453.562l89.287-89.287
	 M2477.576,1007.136l-89.287-89.286 M2388.289,1096.42l89.287-89.286 M2477.571,649.986l-89.286-89.286 M2388.285,739.271
	l89.285-89.287 M2477.571,292.845l-89.286-89.286 M2388.285,382.13l89.285-89.286 M245.433,917.845V739.273 M2388.289,917.848
	V739.275 M245.428,1632.133v-178.57 M2388.284,1632.136v-178.571"/>
<path opacity="0.46" fill="none" stroke="#FF0000" stroke-miterlimit="10" d="M245.429,382.13h714.285 M245.429,560.701h714.285
	 M424,382.13V203.559 M424,739.271v-178.57 M602.571,560.701l0.001-178.571 M781.143,382.13V203.559 M781.145,739.271l-0.002-178.57
	 M334.715,471.416l89.286,89.285 M424.001,382.13l-89.286,89.286 M424,382.13l89.286,89.286 M513.286,471.415L424,560.701
	 M513.287,649.987l89.286,89.284 M602.573,560.701l-89.286,89.286 M602.572,560.701l89.285,89.286 M691.857,649.986l-89.285,89.285
	 M245.428,560.701l89.286,89.285 M334.714,649.986l-89.286,89.285 M245.428,203.559l89.285,89.286 M334.714,292.844l-89.286,89.286
	 M691.857,471.416l89.285,89.286 M781.143,382.13l-89.285,89.287 M781.143,382.13l89.285,89.286 M870.428,471.416l-89.285,89.286
	 M513.287,292.845l89.286,89.286 M602.573,203.56l-89.286,89.286 M602.572,203.56l89.285,89.285 M691.857,292.845l-89.285,89.286
	 M959.715,382.131H1674 M959.715,560.702H1674 M959.715,560.702V382.131 M1138.287,382.131l-0.001-178.571 M1138.286,739.273
	V560.702 M1316.857,560.702V382.131 M1495.429,382.131V203.56 M1495.43,739.273V560.702 M1049.001,471.417l89.286,89.285
	 M1138.287,382.131l-89.286,89.286 M1138.286,382.131l89.286,89.286 M1227.572,471.416l-89.286,89.286 M1227.573,649.988
	l89.286,89.285 M1316.859,560.702l-89.286,89.286 M1316.857,560.702l89.287,89.286 M1406.145,649.987l-89.287,89.286
	 M959.714,560.702L1049,649.987 M1049,649.987l-89.286,89.286 M870.429,292.846l89.286,89.285 M959.715,203.56l-89.286,89.286
	 M959.714,203.56L1049,292.846 M1049,292.845l-89.286,89.286 M870.429,649.987l89.286,89.284 M959.715,560.701l-89.286,89.286
	 M1406.143,471.417l89.286,89.286 M1495.429,382.131l-89.286,89.286 M1495.428,382.131l89.286,89.286 M1584.714,471.417
	l-89.286,89.286 M1227.573,292.846l89.286,89.286 M1316.859,203.561l-89.286,89.286 M1316.857,203.561l89.287,89.285
	 M1406.145,292.846l-89.287,89.286 M1674.001,382.132h714.286 M1674.001,560.703h714.285 M1674.001,560.703V382.132
	 M1852.572,382.132V203.561 M1852.572,739.273v-178.57 M2031.145,560.703V382.132 M2209.715,382.132V203.561 M2209.716,739.273
	l-0.001-178.57 M1763.287,471.417l89.286,89.286 M1852.573,382.132l-89.286,89.286 M1852.572,382.132l89.285,89.285
	 M1941.857,471.417l-89.285,89.286 M1941.859,649.989l89.285,89.284 M2031.145,560.703l-89.285,89.286 M2031.145,560.703
	l89.285,89.286 M2120.43,649.988l-89.285,89.285 M1674,560.703l89.286,89.285 M1763.287,649.988L1674,739.273 M1584.715,292.847
	l89.286,89.285 M1674.001,203.561l-89.286,89.286 M1674,203.561l89.285,89.286 M1763.286,292.846L1674,382.132 M1584.715,649.988
	l89.286,89.285 M1674.001,560.702l-89.286,89.286 M2120.43,471.418l89.285,89.286 M2209.715,382.132l-89.285,89.286
	 M2209.715,382.132L2299,471.418 M2299,471.417l-89.285,89.287 M1941.859,292.847l89.287,89.286 M2031.146,203.562l-89.287,89.286
	 M2031.145,203.562l89.285,89.285 M2120.431,292.847l-89.286,89.286 M245.429,739.271h714.285 M245.433,1096.42h714.286
	 M245.433,1274.991h714.285 M424.004,917.85l0.001,178.57 M424.004,1453.562v-178.57 M602.576,1274.991V1096.42 M781.146,1096.42
	V917.85 M781.148,1453.562v-178.57 M334.719,1185.705l89.286,89.286 M424.005,1096.42l-89.286,89.286 M424.004,1096.42
	l89.286,89.285 M424.004,1274.991l89.287-89.286 M602.577,1453.562l-89.286-89.284 M602.577,1274.991l-89.286,89.286
	 M602.576,1274.991l89.285,89.286 M691.861,1364.275l-89.285,89.285 M334.718,1364.275l-89.285-89.284 M334.719,1364.275
	l-89.286,89.285 M245.432,917.85l89.286,89.286 M334.718,1007.134l-89.286,89.286 M691.861,1185.706l89.287,89.286 M781.148,1096.42
	l-89.287,89.286 M781.146,1096.42l89.285,89.286 M870.434,1185.705l-89.287,89.287 M513.292,1007.136l89.286,89.285 M602.578,917.85
	l-89.286,89.286 M691.861,1007.136l-89.284-89.286 M691.863,1007.136l-89.286,89.285 M959.715,739.271H1674 M959.719,1096.421
	h714.286 M959.719,1274.992h714.285 M959.719,1274.992v-178.571 M1138.291,1096.421V917.852 M1138.291,1453.562v-178.57
	 M1316.861,1274.992v-178.571 M1495.434,1096.421V917.85 M1495.434,1453.562v-178.57 M1138.292,1274.992l-89.287-89.286
	 M1049.005,1185.707l89.287-89.286 M1227.576,1185.706l-89.285-89.285 M1227.577,1185.706l-89.286,89.286 M1227.577,1364.277
	l89.286,89.285 M1316.863,1274.992l-89.286,89.285 M1316.861,1274.992l89.287,89.285 M1316.861,1453.562l89.287-89.285
	 M1049.004,1364.277l-89.285-89.285 M959.719,1453.562l89.286-89.285 M959.719,1096.421l-89.285-89.285 M959.719,917.852
	l-89.285,89.284 M959.718,917.852l89.286,89.284 M1049.004,1007.136l-89.286,89.285 M870.434,1364.277l89.285,89.283
	 M959.719,1274.991l-89.285,89.286 M1406.148,1185.707l89.285,89.286 M1495.434,1096.421l-89.285,89.286 M1495.434,1096.421
	l89.284,89.286 M1584.719,1185.706l-89.285,89.287 M1227.578,1007.136l89.285,89.286 M1316.863,917.852l-89.285,89.286
	 M1406.148,1007.136l-89.285-89.284 M1406.148,1007.136l-89.285,89.286 M1674.001,739.273h714.286 M1674.005,1096.422h714.286
	 M1674.005,1274.993h714.286 M1674.005,1274.993v-178.571 M1852.576,1096.422v-178.57 M1852.576,1453.564v-178.571
	 M2031.148,1274.993v-178.571 M2209.719,1096.422v-178.57 M2209.721,1453.564l-0.002-178.571 M1763.291,1185.707l89.287,89.286
	 M1852.578,1096.422l-89.287,89.286 M1852.576,1096.422l89.285,89.285 M1941.863,1185.707l-89.287,89.286 M1941.863,1364.279
	l89.285,89.285 M2031.148,1274.993l-89.285,89.286 M2031.148,1274.993l89.284,89.286 M2120.434,1364.277l-89.285,89.287
	 M1674.005,1274.993l89.286,89.285 M1763.291,1364.277l-89.286,89.287 M1674.005,1096.422l-89.286-89.284 M1674.005,917.852
	l-89.286,89.286 M1674.004,917.852l89.285,89.286 M1763.291,1007.136l-89.287,89.286 M1584.719,1364.277l89.286,89.285
	 M1674.005,1274.992l-89.286,89.285 M2209.719,1274.994l-89.285-89.286 M2209.719,1096.422l-89.285,89.286 M2209.719,1096.422
	l89.285,89.286 M2299.004,1185.707l-89.285,89.287 M1941.863,1007.138l89.287,89.285 M2031.15,917.852l-89.287,89.286
	 M2031.148,917.852l89.284,89.286 M2120.436,1007.138l-89.287,89.285 M245.434,1453.562h714.285 M245.435,1810.705H959.72
	 M245.435,1989.275H959.72 M424.006,1810.705v-178.572 M424.006,2167.847v-178.571 M602.577,1989.275l0.001-178.57
	 M781.148,1810.705v-178.572 M781.148,2167.847v-178.571 M334.721,1899.989l89.286,89.286 M424.007,1810.705l-89.286,89.285
	 M424.006,1810.705l89.286,89.284 M513.292,1899.989l-89.286,89.286 M513.293,2078.562l89.286,89.284 M602.579,1989.275
	l-89.286,89.285 M602.578,1989.275l89.284,89.285 M691.864,2078.561l-89.286,89.286 M245.434,1989.274l89.286,89.286
	 M334.72,2078.561l-89.286,89.286 M245.434,1632.133l89.285,89.287 M334.72,1721.418l-89.286,89.287 M691.862,1899.99l89.286,89.285
	 M781.148,1810.705l-89.286,89.285 M781.146,1810.705l89.287,89.285 M870.434,1899.989l-89.285,89.286 M513.293,1721.42
	l89.286,89.285 M602.579,1632.133l-89.286,89.287 M691.864,1721.42l-89.286-89.287 M691.864,1721.42l-89.286,89.285
	 M959.72,1453.562h714.285 M959.721,1810.705h714.285 M959.721,1989.276h714.285 M959.721,1989.276v-178.571 M1138.293,1810.705
	l-0.001-178.57 M1138.292,2167.848v-178.57 M1316.862,1989.276l0.002-178.571 M1495.436,1810.705v-178.572 M1495.438,2167.848
	l-0.002-178.57 M1049.007,1899.99l89.286,89.286 M1138.293,1810.705l-89.286,89.286 M1138.292,1810.705l89.286,89.285
	 M1227.578,1899.99l-89.286,89.286 M1227.579,2078.562l89.285,89.284 M1316.864,1989.276l-89.285,89.286 M1316.864,1989.276
	l89.284,89.286 M1406.148,2078.562l-89.284,89.285 M959.72,1989.275l89.286,89.285 M1049.006,2078.562l-89.286,89.285
	 M870.436,1721.42l89.285,89.285 M959.721,1632.135l-89.285,89.285 M959.72,1632.135l89.285,89.285 M1049.006,1721.42
	l-89.286,89.285 M870.436,2078.562l89.285,89.284 M959.721,1989.275l-89.285,89.285 M1406.148,1899.991l89.285,89.285
	 M1495.436,1810.705l-89.285,89.286 M1495.434,1810.705l89.286,89.286 M1584.72,1899.99l-89.286,89.286 M1227.579,1721.42
	l89.285,89.287 M1316.864,1632.135l-89.285,89.285 M1316.864,1632.135l89.284,89.285 M1406.15,1721.42l-89.286,89.287
	 M1674.006,1453.562h714.285 M1674.007,1810.707h714.285 M1674.007,1989.277h714.285 M1674.007,1989.277v-178.57 M1852.577,1810.707
	v-178.571 M1852.577,2167.85v-178.571 M2031.148,1989.277v-178.57 M2209.72,1810.707v-178.572 M2209.722,2167.85l-0.002-178.571
	 M1763.292,1899.991l89.287,89.286 M1852.579,1810.707l-89.287,89.285 M1852.577,1810.707l89.285,89.284 M1941.864,1899.991
	l-89.287,89.286 M1941.864,2078.562l89.284,89.285 M2031.148,1989.277l-89.284,89.285 M2031.148,1989.277l89.285,89.285
	 M2120.436,2078.562l-89.285,89.285 M1674.006,1989.276l89.286,89.286 M1763.292,2078.562l-89.286,89.285 M1584.721,1721.42
	l89.286,89.287 M1674.007,1632.136l-89.286,89.286 M1674.006,1632.136l89.284,89.284 M1763.292,1721.42l-89.286,89.287
	 M1584.721,2078.562l89.286,89.284 M1674.007,1989.276l-89.286,89.286 M2120.436,1899.992l89.284,89.285 M2209.72,1810.707
	l-89.284,89.285 M2209.72,1810.707l89.285,89.285 M2299.005,1899.991l-89.285,89.286 M1941.864,1721.422l89.286,89.285
	 M2031.15,1632.136l-89.286,89.286 M2031.148,1632.136l89.285,89.286 M2120.438,1721.42l-89.287,89.287 M2299.004,292.847
	l89.285,89.286 M2388.289,203.562l-89.285,89.286 M2299.004,649.988l89.285,89.285 M2388.289,560.703l-89.285,89.286
	 M2299.008,1007.138l89.286,89.285 M2388.294,917.852l-89.286,89.286 M2299.008,1364.277l89.286,89.287 M2388.294,1274.993
	l-89.286,89.286 M2299.009,1721.422l89.287,89.285 M2388.296,1632.136l-89.287,89.286 M2299.009,2078.562l89.287,89.285
	 M2388.296,1989.276l-89.287,89.286 M602.575,917.845l0.001-178.571 M334.719,828.561l89.286,89.284 M334.719,828.561l89.286-89.287
	 M424.004,739.273l89.286,89.285 M513.29,828.559l-89.286,89.286 M691.861,828.561l89.285,89.285 M781.146,739.273l-89.285,89.287
	 M781.146,739.273l89.285,89.285 M870.432,828.561l-89.285,89.285 M959.719,917.846V739.273 M1316.861,917.846V739.273
	 M1049.005,828.561l89.286,89.285 M1138.291,739.273l-89.286,89.287 M1138.29,739.273l89.286,89.287 M1227.576,828.561
	l-89.286,89.285 M1406.146,828.561l89.285,89.286 M1495.434,739.273l-89.287,89.287 M1495.432,739.273l89.286,89.287
	 M1584.718,828.561l-89.286,89.286 M1674.005,917.847V739.275 M2031.148,917.847V739.275 M1763.291,828.561l89.286,89.286
	 M1852.577,739.275l-89.286,89.285 M1852.576,739.275l89.285,89.285 M1941.861,828.561l-89.285,89.286 M2209.719,917.848
	l-89.285-89.285 M2209.719,739.275l-89.285,89.285 M2209.719,739.275l89.285,89.285 M2299.004,828.561l-89.285,89.287
	 M245.429,917.847h714.285 M959.715,917.848H1674 M1674.001,917.85h714.285 M602.57,1632.133l0.001-178.57 M334.714,1542.848
	L424,1632.133 M424,1453.562l-89.286,89.285 M423.999,1453.562l89.286,89.285 M513.285,1542.848l-89.286,89.285 M691.855,1542.848
	l89.285,89.286 M781.143,1453.562l-89.285,89.287 M781.143,1453.562l89.284,89.285 M870.427,1542.848l-89.284,89.286
	 M959.714,1632.134v-178.571 M1316.855,1632.134v-178.571 M1049,1542.85l89.286,89.284 M1138.286,1453.562L1049,1542.85
	 M1138.285,1453.562l89.286,89.285 M1227.571,1542.848l-89.286,89.286 M1406.143,1542.85l89.286,89.285 M1495.429,1453.562
	l-89.286,89.285 M1584.714,1542.85l-89.287-89.287 M1584.714,1542.85l-89.287,89.285 M1674.001,1632.135v-178.57 M2031.145,1632.135
	v-178.57 M1763.286,1542.85l89.287,89.285 M1852.573,1453.562l-89.287,89.287 M1852.571,1453.562l89.284,89.285 M1941.855,1542.85
	l-89.285,89.285 M2120.429,1542.85l89.285,89.286 M2209.714,1453.562l-89.284,89.287 M2209.714,1453.562l89.285,89.287
	 M2209.714,1632.136l89.285-89.286 M245.427,1632.135h714.285 M959.713,1632.136h714.286 M1673.999,1632.137h714.287"/>
</svg>
