<?xml version="1.0" encoding="utf-8"?>
<!-- Generator: Adobe Illustrator 16.0.3, SVG Export Plug-In . SVG Version: 6.00 Build 0)  -->
<!DOCTYPE svg PUBLIC "-//W3C//DTD SVG 1.1//EN" "http://www.w3.org/Graphics/SVG/1.1/DTD/svg11.dtd">
<svg version="1.1" id="Layer_1" xmlns="http://www.w3.org/2000/svg" xmlns:xlink="http://www.w3.org/1999/xlink" x="0px" y="0px"
	 width="3456px" height="6912px" viewBox="0 0 3456 6912" enable-background="new 0 0 3456 6912" xml:space="preserve">
<path fill="none" stroke="#FF0000" stroke-miterlimit="10" d="M434.175,497.646l76.47-76.471 M587.115,421.175l76.471,76.47
	 M281.234,574.116l76.471,76.47 M281.234,497.646l76.47-76.471 M434.174,574.116l-76.47-76.47 M510.645,574.116l76.471-76.47
	 M587.114,574.116l76.47,76.47 M587.114,803.525l76.47-76.469 M740.055,727.057l76.471,76.469 M816.523,574.116l-76.47,76.47
	 M357.705,727.057l76.47-76.471 M510.645,650.586l76.472,76.471 M128.294,421.175l76.47,76.47 M128.294,650.586l76.47-76.47
	 M204.765,803.525l76.47,76.471 M204.765,727.057l76.47-76.471 M357.705,803.525l-76.47-76.469 M281.235,956.467l76.47-76.47
	 M510.646,956.467l-76.472-76.47 M434.175,803.525l76.47-76.469 M128.294,1032.938l76.471,76.47 M128.294,956.467l76.47-76.47
	 M204.764,956.467l76.47,76.471 M357.705,1032.938l76.47-76.471 M510.645,803.525l76.471,76.471 M587.115,956.467l-76.471,76.471
	 M663.585,956.467l76.472,76.471 M663.585,879.997l76.47-76.47 M434.174,1032.938l76.471,76.47 M434.174,1262.348l76.471-76.47
	 M663.585,1262.348l-76.471-76.47 M587.115,1109.407l76.47-76.47 M204.765,1185.877l76.47-76.47 M357.705,1109.407l76.471,76.47
	 M663.584,574.116l76.47-76.47 M816.523,497.646l76.471,76.47 M1198.875,497.646l76.47-76.471 M1351.814,421.175l76.472,76.47
	 M1045.934,574.116l76.471,76.47 M1045.934,497.646l76.471-76.471 M1122.404,497.646l76.47,76.47 M1275.344,574.116l76.471-76.47
	 M1351.814,574.116l76.47,76.47 M1351.814,803.525l76.47-76.469 M1504.754,727.057l76.471,76.469 M1581.225,574.116l-76.471,76.47
	 M1122.404,727.057l76.47-76.471 M1275.345,650.586l76.472,76.471 M892.994,421.175l76.47,76.47 M892.994,650.586l76.47-76.47
	 M816.523,650.586l76.471,76.471 M816.523,879.997l76.471-76.47 M969.465,803.525l76.471,76.471 M969.465,727.057l76.471-76.471
	 M1045.936,727.057l76.47,76.469 M1122.405,879.997l-76.47,76.47 M1275.346,956.467l-76.471-76.47 M1198.875,803.525l76.47-76.469
	 M892.994,1032.938l76.471,76.47 M892.994,956.467l76.47-76.47 M969.464,956.467l76.47,76.471 M1122.404,1032.938l76.47-76.471
	 M1275.345,803.525l76.47,76.471 M1351.814,956.467l-76.471,76.471 M1428.285,956.467l76.471,76.471 M1428.285,879.997l76.47-76.47
	 M1198.874,1032.938l76.47,76.47 M1198.874,1262.348l76.47-76.47 M1428.285,1262.348l-76.471-76.47 M1351.814,1109.407l76.47-76.47
	 M969.464,1185.877l76.47-76.47 M1198.875,1185.877l-76.471-76.47 M740.054,879.997l76.47,76.47 M740.054,1109.407l76.47-76.47
	 M1428.284,574.116l76.47-76.47 M1581.225,497.646l76.469,76.47 M1963.574,497.646l76.471-76.471 M2116.515,421.175l76.472,76.47
	 M1810.634,574.116l76.472,76.47 M1810.634,497.646l76.47-76.471 M1887.104,497.646l76.472,76.47 M2040.044,574.116l76.47-76.47
	 M2116.514,574.116l76.471,76.47 M2116.514,803.525l76.471-76.469 M1887.104,727.057l76.472-76.471 M2116.516,727.057
	l-76.471-76.471 M1734.164,497.646l-76.471-76.471 M1657.693,650.586l76.471-76.47 M1581.225,650.586l76.469,76.471
	 M1581.225,879.997l76.469-76.47 M1734.164,803.525l76.471,76.471 M1734.164,727.057l76.471-76.471 M1810.635,727.057l76.471,76.469
	 M1810.635,956.467l76.471-76.47 M1963.574,879.997l76.471,76.47 M1963.574,803.525l76.471-76.469 M1657.693,1032.938l76.471,76.47
	 M1657.693,956.467l76.471-76.47 M1734.164,956.467l76.47,76.471 M1887.104,1032.938l76.472-76.471 M2116.514,879.997l-76.469-76.47
	 M2040.045,1032.938l76.469-76.471 M2269.455,1032.938l-76.471-76.471 M2192.984,879.997l76.471-76.47 M1963.574,1032.938
	l76.47,76.47 M1963.574,1262.348l76.47-76.47 M2116.514,1185.877l76.471,76.47 M2116.514,1109.407l76.471-76.47 M1734.164,1185.877
	l76.471-76.47 M1963.575,1185.877l-76.472-76.47 M1504.753,879.997l76.47,76.47 M1504.754,1109.407l76.471-76.47 M2192.982,574.116
	l76.471-76.47 M128.294,1185.877l76.47,76.47 M128.294,1415.288l76.47-76.47 M281.234,1338.818l76.471,76.47 M281.234,1262.348
	l76.47-76.47 M204.764,1491.758l76.47-76.47 M357.704,1568.229l-76.47-76.47 M281.233,1721.169l76.47-76.47 M434.174,1644.699
	l76.471,76.47 M434.174,1568.229l76.471-76.47 M204.764,1568.229l76.471,76.471 M128.294,1797.639l76.471,76.471 M128.294,1721.169
	l76.47-76.47 M204.764,1721.169l76.47,76.47 M204.764,1950.58l76.47-76.47 M357.705,1874.109l76.471,76.47 M357.705,1797.639
	l76.47-76.47 M128.293,1950.58l76.47,76.47 M128.293,2179.99l76.47-76.471 M281.234,2103.52l76.471,76.471 M281.234,2027.05
	l76.47-76.47 M357.703,1262.348l76.47,76.471 M357.703,1491.758l76.47-76.47 M510.645,1415.288l76.47,76.47 M587.113,1262.348
	l-76.471,76.471 M740.054,1185.877l-76.47-76.47 M663.583,1338.818l76.47-76.471 M816.523,1262.348l76.471,76.471 M816.523,1185.877
	l76.471-76.47 M892.994,1185.877l76.47,76.47 M892.994,1415.288l76.47-76.47 M1045.934,1338.818l76.471,76.47 M1045.934,1262.348
	l76.471-76.47 M740.053,1491.758l76.471,76.471 M740.053,1415.288l76.471-76.47 M816.523,1415.288l76.47,76.47 M1045.934,1415.288
	l-76.471,76.47 M1122.402,1568.229l-76.469-76.47 M1045.934,1721.169l76.469-76.47 M1198.874,1644.699l76.471,76.47
	 M1198.874,1568.229l76.47-76.47 M816.523,1644.699l76.47-76.471 M1045.936,1644.699l-76.472-76.471 M587.113,1338.818l76.47,76.47
	 M587.113,1568.229l76.47-76.47 M510.645,1568.229l76.47,76.471 M510.645,1797.639l76.47-76.47 M663.584,1721.169l76.47,76.47
	 M663.584,1644.699l76.47-76.471 M740.054,1644.699l76.47,76.47 M740.054,1874.109l76.47-76.471 M892.994,1797.639l76.471,76.471
	 M969.464,1644.699l-76.47,76.47 M587.113,1950.58l76.471,76.47 M587.113,1874.109l76.47-76.471 M740.053,1950.58l-76.47-76.47
	 M816.523,1950.58l76.47-76.47 M1045.934,1797.639l-76.47-76.47 M969.464,1950.58l76.47-76.47 M1122.404,1874.109l76.471,76.47
	 M1122.404,1797.639l76.47-76.47 M892.993,1950.58l76.47,76.47 M892.993,2179.99l76.47-76.471 M1045.934,2103.52l76.471,76.471
	 M1045.934,2027.05l76.471-76.47 M663.583,2103.52l76.47-76.47 M816.523,2027.05l76.472,76.47 M434.173,1797.639l76.47,76.471
	 M434.173,2027.05l76.47-76.47 M1122.402,1262.348l76.471,76.471 M1122.402,1491.758l76.471-76.47 M1275.343,1415.288l76.47,76.47
	 M1275.343,1338.818l76.47-76.471 M1428.283,1109.407l76.471,76.47 M1428.283,1338.818l76.471-76.471 M1581.225,1262.348
	l76.469,76.471 M1581.225,1185.877l76.469-76.47 M1734.164,1262.348l-76.471-76.47 M1657.693,1415.288l76.471-76.47
	 M1810.634,1338.818l76.472,76.47 M1810.634,1262.348l76.47-76.47 M1504.753,1491.758l76.472,76.471 M1504.753,1415.288l76.47-76.47
	 M1581.223,1415.288l76.471,76.47 M1810.633,1415.288l-76.47,76.47 M1887.104,1568.229l-76.471-76.47 M1810.633,1721.169
	l76.471-76.47 M1963.573,1644.699l76.471,76.47 M1963.573,1568.229l76.47-76.47 M1581.223,1644.699l76.471-76.471
	 M1734.164,1568.229l76.471,76.471 M1351.812,1338.818l76.471,76.47 M1351.812,1568.229l76.471-76.47 M1275.343,1568.229
	l76.47,76.471 M1275.343,1797.639l76.47-76.47 M1428.283,1721.169l76.471,76.47 M1428.283,1644.699l76.471-76.471
	 M1581.225,1721.169l-76.471-76.47 M1504.754,1874.109l76.471-76.471 M1734.164,1874.109l-76.471-76.471 M1657.693,1721.169
	l76.471-76.47 M1351.812,1950.58l76.471,76.47 M1351.812,1874.109l76.471-76.471 M1504.753,1950.58l-76.47-76.47 M1657.693,1874.109
	l-76.471,76.47 M1734.164,1721.169l76.469,76.47 M1810.633,1874.109l-76.469,76.47 M1887.104,1874.109l76.472,76.47
	 M1887.104,1797.639l76.472-76.47 M1734.163,2027.05l-76.47-76.47 M1657.693,2179.99l76.47-76.471 M1887.104,2179.99l-76.471-76.471
	 M1810.633,2027.05l76.471-76.47 M1504.754,2027.05l-76.471,76.47 M1581.225,2027.05l76.471,76.47 M1198.873,1797.639l76.47,76.471
	 M1198.873,2027.05l76.47-76.47 M1887.104,1262.348l76.47,76.471 M1887.104,1491.758l76.47-76.47 M2040.043,1415.288l76.471,76.47
	 M2040.043,1338.818l76.47-76.471 M128.293,2485.871l76.47-76.47 M204.763,2332.931l76.47,76.47 M281.232,2179.99l-76.47,76.47
	 M357.703,2027.05l76.47,76.47 M357.703,2256.46l76.47-76.47 M510.643,2179.99l76.471,76.47 M510.643,2103.52l76.471-76.47
	 M663.583,2179.99l-76.47-76.471 M587.113,2332.931l76.47-76.47 M740.053,2256.46l76.471,76.47 M740.053,2179.99l76.471-76.471
	 M434.172,2409.4l76.471,76.471 M434.172,2332.931l76.47-76.47 M510.642,2332.931l76.471,76.47 M663.583,2409.4l76.47-76.47
	 M740.052,2409.4l76.47,76.471 M892.993,2485.871l76.47-76.47 M510.643,2562.341l76.471-76.47 M663.583,2485.871l76.471,76.47
	 M281.232,2256.46l76.47,76.47 M281.232,2485.871l76.47-76.47 M204.763,2485.871l76.47,76.47 M434.173,2485.871l-76.47,76.47
	 M816.521,2179.99l76.471,76.47 M816.521,2409.4l76.471-76.47 M969.462,2332.931l76.47,76.47 M969.462,2256.46l76.47-76.47
	 M1198.873,2103.52l-76.471-76.47 M1122.402,2256.46l76.471-76.47 M1275.343,2179.99l76.47,76.47 M1275.343,2103.52l76.47-76.47
	 M1351.812,2103.52l76.471,76.471 M1351.812,2332.931l76.471-76.47 M1504.753,2256.46l76.472,76.47 M1504.753,2179.99l76.47-76.471
	 M1198.872,2409.4l76.471,76.471 M1198.872,2332.931l76.47-76.47 M1351.812,2409.4l-76.472-76.47 M1428.282,2409.4l76.47-76.47
	 M1504.752,2409.4l76.471,76.471 M1657.691,2485.871l76.471-76.47 M1275.342,2562.341l76.471-76.47 M1428.283,2485.871l76.471,76.47
	 M1045.932,2256.46l76.471,76.47 M1045.932,2485.871l76.471-76.47 M969.462,2485.871l76.47,76.47 M1122.402,2562.341l76.471-76.47
	 M1581.223,2179.99l76.469,76.47 M1581.223,2409.4l76.469-76.47 M1734.162,2332.931l76.471,76.47 M1734.162,2256.46l76.47-76.47
	 M2192.982,1109.407l76.47,76.47 M2192.982,1338.818l76.47-76.471 M2192.98,1415.288l-76.47-76.47 M2116.512,1568.229l76.471-76.47
	 M2040.042,1568.229l76.47,76.471 M2116.512,1721.169l-76.47,76.47 M2192.982,1721.169l76.471,76.47 M2192.982,1644.699
	l76.47-76.471 M2192.982,2027.05l-76.472-76.47 M2116.512,1874.109l76.471-76.471 M2192.98,1874.109l76.471,76.47 M2269.452,2027.05
	l-76.47,76.47 M1963.571,1797.639l76.47,76.471 M1963.572,2027.05l76.47-76.47 M1963.571,2103.52l-76.47-76.47 M1887.102,2256.46
	l76.471-76.47 M2040.041,2179.99l76.471,76.47 M2116.512,2027.05l-76.471,76.47 M2192.98,2179.99l-76.47-76.471 M2116.512,2332.931
	l76.471-76.47 M1963.57,2409.4l76.471,76.471 M1963.57,2332.931l76.471-76.47 M2040.041,2332.931l76.47,76.47 M2192.98,2409.4
	l76.471-76.47 M2040.041,2562.341l76.471-76.47 M2192.98,2485.871l76.472,76.47 M1810.631,2256.46l76.471,76.47 M1887.102,2409.4
	l-76.471,76.471 M1734.161,2485.871l76.47,76.47 M1887.102,2562.341l76.471-76.47"/>
<path opacity="0.5" fill="none" stroke="#FF0000" stroke-miterlimit="10" enable-background="new    " d="M204.764,574.116h76.47
	 M281.234,574.116v-76.47 M281.234,497.646h-76.47 M434.174,574.116v76.47 M434.174,650.586h76.471 M510.645,650.586v-76.47
	 M510.645,574.116h-76.47 M663.584,650.586v76.471 M663.584,727.057h76.47 M740.055,727.057v-76.471 M740.055,650.586h-76.47
	 M204.764,497.646v76.47 M128.295,803.525h76.47 M204.765,803.525v-76.469 M204.765,727.057h-76.47 M357.705,803.525v76.471
	 M357.705,879.997h76.47 M434.175,879.997v-76.47 M434.175,803.525h-76.47 M281.234,1032.938v76.47 M281.234,1109.407h76.47
	 M357.705,1109.407v-76.47 M357.705,1032.938h-76.47 M587.115,879.997v76.47 M587.115,956.467h76.471 M663.585,956.467v-76.47
	 M663.585,879.997h-76.471 M510.645,1109.407v76.47 M510.645,1185.877h76.471 M587.115,1185.877v-76.47 M587.115,1109.407h-76.471
	 M740.054,421.175v76.47 M740.054,497.646h76.47 M816.523,497.646v-76.471 M969.464,574.116h76.47 M1045.934,574.116v-76.47
	 M1045.934,497.646h-76.47 M1198.874,574.116v76.47 M1198.874,650.586h76.47 M1275.344,650.586v-76.47 M1275.344,574.116h-76.47
	 M1428.284,650.586v76.471 M1428.284,727.057h76.47 M1504.754,727.057v-76.471 M1504.754,650.586h-76.47 M969.464,497.646v76.47
	 M892.995,727.057v76.469 M892.995,803.525h76.47 M969.465,803.525v-76.469 M969.465,727.057h-76.47 M1122.405,803.525v76.471
	 M1122.405,879.997h76.47 M1198.875,879.997v-76.47 M1198.875,803.525h-76.47 M816.523,1032.938h76.471 M892.994,1032.938v-76.471
	 M892.994,956.467h-76.471 M1045.934,1032.938v76.47 M1045.934,1109.407h76.471 M1122.404,1109.407v-76.47 M1122.404,1032.938
	h-76.471 M1351.814,879.997v76.47 M1351.814,956.467h76.471 M1428.285,956.467v-76.47 M1428.285,879.997h-76.471 M1275.344,1109.407
	v76.47 M1275.344,1185.877h76.471 M1351.814,1185.877v-76.47 M1351.814,1109.407h-76.471 M816.523,956.467v76.471 M1504.754,421.175
	v76.47 M1504.754,497.646h76.471 M1581.225,497.646v-76.471 M1734.164,574.116h76.47 M1810.634,574.116v-76.47 M1810.634,497.646
	h-76.47 M1963.574,574.116v76.47 M1963.574,650.586h76.47 M2040.044,650.586v-76.47 M2040.044,574.116h-76.47 M2192.984,650.586
	v76.471 M2192.984,727.057h76.47 M2269.454,727.057v-76.471 M2269.454,650.586h-76.47 M1734.164,497.646v76.47 M1657.693,727.057
	v76.469 M1657.693,803.525h76.471 M1734.164,803.525v-76.469 M1734.164,727.057h-76.471 M1887.104,803.525v76.471 M1887.104,879.997
	h76.471 M1963.574,879.997v-76.47 M1963.574,803.525h-76.471 M1581.225,1032.938h76.469 M1657.693,1032.938v-76.471
	 M1657.693,956.467h-76.469 M1810.634,1032.938v76.47 M1810.634,1109.407h76.47 M1887.104,1109.407v-76.47 M1887.104,1032.938
	h-76.47 M2116.514,879.997v76.47 M2116.514,956.467h76.471 M2192.984,956.467v-76.47 M2192.984,879.997h-76.472 M2040.044,1109.407
	v76.47 M2040.044,1185.877h76.47 M2116.514,1185.877v-76.47 M2116.514,1109.407h-76.47 M1581.225,956.467v76.471 M2269.453,421.175
	v76.47 M204.764,1262.348v76.471 M204.764,1338.818h76.47 M281.234,1338.818v-76.471 M281.234,1262.348h-76.47 M128.293,1568.229
	h76.47 M204.764,1568.229v-76.47 M204.764,1491.758h-76.47 M357.704,1568.229v76.471 M357.704,1644.699h76.47 M434.174,1644.699
	v-76.471 M434.174,1568.229h-76.47 M281.234,1797.639v76.471 M281.234,1874.109h76.471 M357.705,1874.109v-76.471 M357.705,1797.639
	h-76.471 M204.764,2027.05v76.47 M204.764,2103.52h76.47 M281.234,2103.52v-76.47 M281.234,2027.05h-76.47 M434.173,1338.818v76.47
	 M434.173,1415.288h76.47 M510.645,1415.288v-76.47 M510.645,1338.818h-76.471 M740.054,1185.877v76.47 M740.054,1262.348h76.47
	 M816.523,1262.348v-76.47 M816.523,1185.877h-76.47 M969.464,1262.348v76.471 M969.464,1338.818h76.47 M1045.934,1338.818v-76.471
	 M1045.934,1262.348h-76.47 M663.583,1491.758h76.47 M740.053,1491.758v-76.47 M740.053,1415.288h-76.47 M892.993,1491.758v76.471
	 M892.993,1568.229h76.47 M969.463,1568.229v-76.47 M969.463,1491.758h-76.47 M1122.402,1568.229v76.471 M1122.402,1644.699h76.471
	 M1198.874,1644.699v-76.471 M1198.874,1568.229h-76.47 M663.583,1415.288v76.47 M587.114,1644.699v76.47 M587.114,1721.169h76.47
	 M663.584,1721.169v-76.47 M663.584,1644.699h-76.47 M816.523,1721.169v76.47 M816.523,1797.639h76.471 M892.994,1797.639v-76.47
	 M892.994,1721.169h-76.471 M510.643,1950.58h76.471 M587.113,1950.58v-76.47 M587.113,1874.109h-76.471 M740.053,1950.58v76.47
	 M740.053,2027.05h76.471 M816.523,2027.05v-76.47 M816.523,1950.58h-76.471 M1045.934,1797.639v76.471 M1045.934,1874.109h76.471
	 M1122.404,1874.109v-76.471 M1122.404,1797.639h-76.471 M969.463,2027.05v76.47 M969.463,2103.52h76.471 M1045.934,2103.52v-76.47
	 M1045.934,2027.05h-76.47 M510.643,1874.109v76.47 M1198.873,1338.818v76.47 M1198.873,1415.288h76.47 M1275.343,1415.288v-76.47
	 M1275.343,1338.818h-76.47 M1504.754,1185.877v76.47 M1504.754,1262.348h76.471 M1581.225,1262.348v-76.47 M1581.225,1185.877
	h-76.471 M1734.164,1262.348v76.471 M1734.164,1338.818h76.47 M1810.634,1338.818v-76.471 M1810.634,1262.348h-76.47
	 M1428.283,1491.758h76.47 M1504.753,1491.758v-76.47 M1504.753,1415.288h-76.47 M1657.693,1491.758v76.471 M1657.693,1568.229
	h76.47 M1734.163,1568.229v-76.47 M1734.163,1491.758h-76.47 M1887.104,1568.229v76.471 M1887.104,1644.699h76.471
	 M1963.573,1644.699v-76.471 M1963.573,1568.229h-76.47 M1428.283,1415.288v76.47 M1351.812,1644.699v76.47 M1351.812,1721.169
	h76.471 M1428.283,1721.169v-76.47 M1428.283,1644.699h-76.471 M1581.225,1721.169v76.47 M1581.225,1797.639h76.469
	 M1657.693,1797.639v-76.47 M1657.693,1721.169h-76.471 M1275.343,1950.58h76.47 M1351.812,1950.58v-76.47 M1351.812,1874.109
	h-76.47 M1504.753,1950.58v76.47 M1504.753,2027.05h76.47 M1581.223,2027.05v-76.47 M1581.223,1950.58h-76.47 M1810.633,1797.639
	v76.471 M1810.633,1874.109h76.471 M1887.104,1874.109v-76.471 M1887.104,1797.639h-76.471 M1734.163,2027.05v76.47
	 M1734.163,2103.52h76.47 M1810.633,2103.52v-76.47 M1810.633,2027.05h-76.47 M1275.343,1874.109v76.47 M1963.572,1338.818v76.47
	 M1963.572,1415.288h76.471 M2040.043,1415.288v-76.47 M2040.043,1338.818h-76.471 M128.292,2332.931h76.47 M204.763,2332.931
	v-76.47 M204.763,2256.46h-76.47 M434.173,2103.52v76.471 M434.173,2179.99h76.47 M510.643,2179.99v-76.471 M510.643,2103.52h-76.47
	 M663.583,2179.99v76.47 M663.583,2256.46h76.47 M740.053,2256.46v-76.47 M740.053,2179.99h-76.47 M357.702,2409.4h76.47
	 M434.172,2409.4v-76.47 M434.172,2332.931h-76.47 M587.112,2409.4v76.471 M587.112,2485.871h76.47 M663.583,2485.871v-76.47
	 M663.583,2409.4h-76.47 M816.521,2485.871v76.47 M816.521,2562.341h76.471 M892.993,2562.341v-76.47 M892.993,2485.871h-76.47
	 M357.703,2409.4v-76.47 M357.703,2562.341h-76.47 M892.992,2256.46v76.47 M892.992,2332.931h76.47 M969.462,2332.931v-76.47
	 M969.462,2256.46h-76.47 M1198.873,2103.52v76.471 M1198.873,2179.99h76.47 M1275.343,2179.99v-76.471 M1275.343,2103.52h-76.47
	 M1428.283,2179.99v76.47 M1428.283,2256.46h76.47 M1504.753,2256.46v-76.47 M1504.753,2179.99h-76.47 M1122.402,2409.4h76.47
	 M1198.872,2409.4v-76.47 M1198.872,2332.931h-76.47 M1351.812,2409.4v76.471 M1351.812,2485.871h76.47 M1428.282,2485.871v-76.47
	 M1428.282,2409.4h-76.47 M1581.223,2485.871v76.47 M1581.223,2562.341h76.471 M1657.691,2562.341v-76.47 M1657.691,2485.871
	h-76.469 M1122.402,2332.931v76.47 M1122.402,2562.341h-76.471 M1657.691,2256.46v76.47 M1657.691,2332.931h76.471
	 M1734.162,2332.931v-76.47 M1734.162,2256.46h-76.471 M2269.452,1185.877v76.47 M2192.98,1491.758h76.471 M2269.451,1491.758
	v-76.47 M2269.451,1415.288h-76.471 M2192.98,1415.288l0.002,76.47 M2116.512,1644.699v76.47 M2116.512,1721.169h76.471
	 M2192.982,1721.169v-76.47 M2192.982,1644.699h-76.472 M2040.041,1950.58h76.471 M2116.512,1950.58v-76.47 M2116.512,1874.109
	h-76.471 M2269.451,1950.58v76.47 M2040.041,1874.109l0.001,76.47 M1963.571,2103.52v76.471 M1963.571,2179.99h76.47
	 M2040.041,2179.99v-76.471 M2040.041,2103.52h-76.47 M2192.98,2179.99v76.47 M2192.98,2256.46h76.471 M2269.451,2256.46v-76.47
	 M2269.451,2179.99h-76.471 M1887.102,2409.4h76.469 M1963.57,2409.4v-76.47 M1963.57,2332.931H1887.1 M2116.511,2409.4v76.471
	 M2116.511,2485.871h76.47 M2192.98,2485.871v-76.47 M2192.98,2409.4h-76.471 M1887.102,2409.4v-76.47 M1887.102,2562.341h-76.471"
	/>
<path opacity="0.5" fill="none" stroke="#0000FF" stroke-miterlimit="10" enable-background="new    " d="M587.115,421.175v76.47
	 M434.175,497.646v-76.471 M281.234,574.116v76.47 M434.174,574.116v-76.47 M510.645,574.116h76.471 M434.174,650.586h-76.47
	 M357.704,497.646h-76.47 M357.704,497.646h76.47 M357.704,421.175v76.47 M663.586,497.646h-76.472 M357.704,650.586h-76.47
	 M587.114,497.646v76.47 M663.585,497.646v76.47 M663.584,574.116v76.47 M740.055,727.057v76.469 M740.055,650.586h76.471
	 M663.584,727.057h-76.47 M663.584,574.116h-76.47 M587.114,727.057v76.469 M740.055,803.525h76.471 M816.523,650.586v-76.47
	 M510.645,650.586v76.471 M357.705,650.586v76.471 M510.645,727.057h76.472 M204.764,574.116h-76.47 M204.765,421.175v76.47
	 M204.765,803.525v76.471 M204.765,727.057h76.47 M357.705,727.057v76.469 M434.175,879.997v76.47 M434.175,803.525h76.47
	 M357.705,879.997h-76.47 M281.235,879.997h-76.471 M281.235,956.467v-76.47 M281.234,1032.938v-76.471 M357.705,1032.938h76.47
	 M281.234,1109.407h-76.47 M281.235,650.586v76.471 M281.235,727.057h76.47 M204.764,956.467h-76.47 M204.764,956.467h76.47
	 M204.764,879.997v76.47 M510.645,727.057v76.469 M510.646,956.467h-76.473 M204.764,1109.407h-76.47 M434.174,956.467v76.471
	 M587.115,879.997v-76.47 M663.585,956.467v76.471 M663.585,879.997h76.47 M587.115,956.467h-76.471 M740.055,803.525v76.471
	 M510.645,803.525h76.471 M510.645,956.467v76.471 M510.645,1109.407v-76.47 M587.115,1185.877v76.47 M587.115,1109.407h76.47
	 M510.645,1185.877h-76.47 M510.645,1032.938h-76.471 M434.174,1185.877v76.47 M587.115,1262.348h76.471 M663.584,1109.407v-76.47
	 M357.705,1109.407v76.47 M204.765,1109.407v76.47 M357.705,1185.877h76.471 M663.584,1032.938h76.471 M816.523,497.646v76.47
	 M740.054,497.646h-76.47 M892.994,574.116h-76.471 M1351.814,421.175v76.47 M1198.875,497.646v-76.471 M1045.934,574.116v76.47
	 M1198.874,574.116v-76.47 M1275.344,574.116h76.471 M1198.874,650.586h-76.47 M1122.404,497.646h-76.471 M1122.404,497.646h76.47
	 M1122.404,421.175v76.47 M1428.286,497.646h-76.472 M1122.404,650.586h-76.471 M1351.814,497.646v76.47 M1428.285,497.646v76.47
	 M1428.284,574.116v76.47 M1504.754,727.057v76.469 M1504.754,650.586h76.471 M1428.284,727.057h-76.47 M1428.284,574.116h-76.47
	 M1351.814,727.057v76.469 M1504.754,803.525h76.471 M1581.225,650.586v-76.47 M1275.345,650.586v76.471 M1122.404,650.586v76.471
	 M1275.345,727.057h76.472 M969.464,574.116h-76.47 M892.994,650.586v-76.47 M969.464,497.646v-76.471 M892.995,727.057v-76.471
	 M969.465,803.525v76.471 M969.465,727.057h76.471 M892.995,803.525h-76.47 M1122.405,803.525v-76.469 M1198.875,879.997v76.47
	 M1198.875,803.525h76.47 M1122.405,879.997h-76.47 M1045.936,879.997h-76.471 M1045.936,956.467v-76.47 M892.994,1032.938v76.47
	 M1045.934,1032.938v-76.471 M1122.404,1032.938h76.47 M1045.934,1109.407h-76.47 M1045.936,650.586v76.471 M1045.936,727.057h76.47
	 M969.464,956.467h-76.47 M969.464,956.467h76.47 M969.464,879.997v76.47 M1275.345,727.057v76.469 M1275.346,956.467h-76.472
	 M969.464,1109.407h-76.47 M1198.874,956.467v76.471 M1351.814,879.997v-76.47 M1428.285,956.467v76.471 M1428.285,879.997h76.47
	 M1351.814,956.467h-76.471 M1504.755,803.525v76.471 M1275.345,803.525h76.47 M1275.345,956.467v76.471 M1275.344,1109.407v-76.47
	 M1351.814,1185.877v76.47 M1351.814,1109.407h76.47 M1275.344,1185.877h-76.47 M1275.344,1032.938h-76.47 M1198.874,1185.877v76.47
	 M1351.814,1262.348h76.471 M1428.284,1109.407v-76.47 M1122.405,1109.407v76.47 M969.464,1109.407v76.47 M1122.405,1185.877h76.471
	 M816.523,879.997v-76.47 M816.523,650.586h76.471 M816.523,1032.938h-76.47 M816.523,879.997h-76.471 M740.054,1032.938v76.47
	 M816.523,879.997v76.47 M1428.284,1032.938h76.471 M1581.225,497.646v76.47 M1504.754,497.646h-76.47 M1657.693,574.116h-76.471
	 M2116.515,421.175v76.47 M1963.574,497.646v-76.471 M1810.634,574.116v76.47 M1963.574,574.116l-0.001-76.47 M2040.044,574.116
	h76.47 M1963.574,650.586h-76.471 M1887.104,497.646h-76.47 M1887.104,497.646h76.471 M1887.104,421.175v76.47 M2192.985,497.646
	h-76.472 M1887.104,650.586h-76.47 M2116.514,497.646v76.47 M2192.984,497.646v76.47 M2192.984,650.586l-0.002-76.47
	 M2269.454,727.057v76.469 M2192.984,727.057h-76.472 M2192.982,574.116h-76.47 M2116.514,727.057v76.469 M2040.045,650.586v76.471
	 M1887.104,650.586v76.471 M2040.045,727.057h76.471 M1734.164,574.116h-76.471 M1657.693,650.586v-76.47 M1734.164,497.646v-76.471
	 M1657.693,727.057v-76.471 M1734.164,803.525v76.471 M1734.164,727.057h76.471 M1657.693,803.525h-76.469 M1887.104,803.525
	v-76.469 M1963.574,879.997v76.47 M1963.574,803.525h76.471 M1887.104,879.997h-76.47 M1810.635,879.997h-76.471 M1810.635,956.467
	v-76.47 M1657.693,1032.938v76.47 M1810.634,1032.938l-0.001-76.471 M1887.104,1032.938h76.472 M1810.634,1109.407h-76.47
	 M1810.635,650.586v76.471 M1810.635,727.057h76.469 M1734.164,956.467h-76.471 M1734.164,956.467h76.469 M1734.164,879.997v76.47
	 M2040.045,727.057v76.469 M2040.045,956.467h-76.471 M1734.164,1109.407h-76.471 M1963.574,956.467v76.471 M2116.514,879.997
	v-76.47 M2192.984,956.467v76.471 M2192.984,879.997h76.471 M2116.514,956.467h-76.469 M2269.455,803.525v76.471 M2040.045,803.525
	h76.469 M2040.045,956.467v76.471 M2040.044,1109.407l-0.001-76.47 M2116.514,1185.877v76.47 M2116.514,1109.407h76.471
	 M2040.044,1185.877h-76.47 M2040.043,1032.938h-76.469 M1963.574,1185.877v76.47 M2116.514,1262.348h76.471 M2192.984,1109.407
	v-76.47 M1887.104,1109.407v76.47 M1734.164,1109.407v76.47 M1887.104,1185.877h76.472 M1581.225,879.997v-76.47 M1581.225,650.586
	h76.469 M1581.225,1032.938h-76.471 M1581.225,879.997h-76.472 M1504.753,1032.938v76.47 M1581.225,879.997v76.47
	 M2192.984,1032.938h76.471 M2269.453,497.646h-76.471 M204.764,1262.348v-76.47 M281.234,1338.818v76.47 M281.234,1262.348h76.47
	 M204.764,1338.818h-76.47 M204.764,1491.758h76.47 M128.294,1185.877h76.47 M357.704,1185.877v76.47 M357.705,1415.288h-76.472
	 M281.233,1415.288v76.47 M357.704,1415.288v76.47 M357.704,1568.229v-76.47 M434.174,1644.699v76.47 M434.174,1568.229h76.471
	 M357.704,1644.699h-76.47 M357.703,1491.758h-76.47 M281.233,1644.699v76.47 M434.174,1721.169h76.471 M510.645,1568.229v-76.47
	 M204.764,1568.229v76.471 M204.764,1644.699h76.471 M128.294,1721.169h76.47 M204.764,1644.699v76.47 M204.765,1874.109h-76.472
	 M281.234,1797.639v-76.47 M357.705,1874.109v76.47 M357.705,1797.639h76.47 M281.234,1874.109h-76.47 M434.174,1721.169v76.47
	 M204.764,1721.169h76.47 M204.764,1874.109v76.47 M204.763,1950.58v76.47 M281.234,2103.52v76.471 M281.234,2027.05h76.47
	 M204.764,2103.52h-76.47 M204.763,1950.58h-76.47 M281.234,2179.99h76.471 M357.704,2027.05v-76.47 M357.704,1950.58h76.471
	 M434.173,1338.818v-76.471 M510.645,1415.288v76.47 M510.645,1338.818h76.47 M434.173,1415.288h-76.47 M357.703,1262.348h76.47
	 M587.114,1262.348v76.471 M587.113,1491.758h-76.471 M740.054,1185.877v-76.47 M816.523,1262.348v76.471 M816.523,1185.877h76.471
	 M740.054,1262.348h-76.47 M969.464,1262.348v-76.47 M1045.934,1338.818v76.47 M1045.934,1262.348h76.471 M969.464,1338.818h-76.47
	 M892.994,1415.288v-76.47 M740.053,1491.758v76.471 M892.993,1491.758v-76.47 M969.463,1491.758h76.471 M892.993,1568.229h-76.47
	 M892.994,1109.407v76.47 M892.994,1185.877h76.47 M816.523,1415.288h-76.471 M816.523,1415.288h76.47 M816.523,1338.818v76.47
	 M1122.404,1185.877v76.47 M1122.405,1415.288h-76.472 M816.523,1568.229h-76.471 M1045.934,1415.288v76.47 M1122.404,1415.288
	v76.47 M1122.402,1568.229v-76.47 M1198.874,1644.699v76.47 M1198.874,1568.229h76.47 M1122.402,1644.699h-76.469
	 M1122.402,1491.758h-76.469 M1045.934,1644.699v76.47 M1198.874,1721.169h76.471 M1275.343,1568.229v-76.47 M969.464,1568.229
	v76.471 M816.523,1568.229v76.471 M969.464,1644.699h76.472 M663.583,1338.818v-76.471 M663.583,1109.407h76.47 M663.583,1491.758
	h-76.47 M663.583,1338.818h-76.471 M587.113,1491.758v76.471 M663.583,1415.288v-76.47 M587.113,1568.229v76.471 M663.584,1721.169
	v76.47 M663.584,1644.699h76.47 M587.114,1721.169h-76.47 M816.523,1721.169v-76.47 M892.994,1797.639v76.471 M892.994,1721.169
	h76.47 M816.523,1797.639h-76.47 M740.054,1797.639h-76.471 M740.054,1874.109v-76.471 M587.113,1950.58v76.47 M740.053,1950.58
	v-76.47 M816.523,1950.58h76.47 M740.053,2027.05h-76.47 M740.054,1568.229v76.471 M740.054,1644.699h76.47 M663.583,1874.109
	h-76.47 M663.583,1874.109h76.47 M663.583,1797.639v76.471 M969.464,1644.699v76.47 M969.465,1874.109h-76.472 M663.583,2027.05
	h-76.47 M892.993,1874.109v76.47 M1045.934,1797.639v-76.47 M1122.404,1874.109v76.47 M1122.404,1797.639h76.47 M1045.934,1874.109
	h-76.47 M1198.874,1721.169v76.47 M969.464,1721.169h76.47 M969.464,1874.109v76.47 M969.463,1950.58v76.47 M1045.934,2103.52
	v76.471 M1045.934,2027.05h76.471 M969.463,2103.52h-76.47 M969.463,1950.58h-76.47 M892.993,2103.52v76.471 M1045.934,2179.99
	h76.471 M1122.402,2027.05v-76.47 M816.523,2027.05v76.47 M663.583,2027.05v76.47 M816.523,2103.52h76.472 M510.645,1797.639v-76.47
	 M510.645,1568.229h76.47 M510.643,1950.58h-76.47 M510.645,1797.639h-76.472 M434.173,2027.05v-76.47 M510.643,1874.109v-76.471
	 M1122.402,1950.58h76.472 M1198.873,1338.818v-76.471 M1275.343,1415.288v76.47 M1275.343,1338.818h76.47 M1198.873,1415.288
	h-76.47 M1122.402,1262.348h76.471 M892.993,1338.818h-76.47 M1351.812,1262.348v76.471 M1351.812,1491.758h-76.471
	 M1504.754,1185.877l-0.001-76.47 M1581.225,1262.348v76.471 M1581.225,1185.877h76.469 M1504.754,1262.348h-76.471
	 M1734.164,1262.348l-0.001-76.47 M1810.634,1338.818v76.47 M1810.634,1262.348h76.47 M1734.164,1338.818h-76.471
	 M1657.693,1415.288v-76.47 M1504.753,1491.758v76.471 M1657.693,1491.758l-0.002-76.47 M1734.163,1491.758h76.47
	 M1657.693,1568.229h-76.471 M1657.693,1109.407v76.47 M1657.693,1185.877h76.47 M1581.223,1415.288h-76.47 M1581.223,1415.288
	h76.471 M1581.223,1338.818v76.47 M1887.104,1185.877v76.47 M1887.104,1415.288h-76.472 M1581.223,1568.229h-76.47
	 M1810.633,1415.288v76.47 M1887.104,1415.288v76.47 M1887.104,1568.229v-76.47 M1963.573,1644.699v76.47 M1963.573,1568.229h76.47
	 M1887.104,1644.699h-76.471 M1887.104,1491.758h-76.471 M1810.633,1644.699v76.47 M1963.573,1721.169h76.471 M2040.043,1568.229
	v-76.47 M1734.164,1568.229v76.471 M1581.223,1568.229v76.471 M1734.164,1644.699h76.471 M1428.283,1338.818v-76.471
	 M1428.283,1109.407h76.47 M1428.283,1491.758h-76.471 M1428.283,1338.818h-76.471 M1351.812,1491.758v76.471 M1428.283,1415.288
	v-76.47 M1351.812,1568.229v76.471 M1428.283,1721.169v76.47 M1428.283,1644.699h76.471 M1351.812,1721.169h-76.47
	 M1581.225,1721.169l-0.002-76.47 M1657.693,1797.639v76.471 M1657.693,1721.169h76.471 M1581.225,1797.639h-76.471
	 M1504.754,1797.639h-76.471 M1504.754,1874.109v-76.471 M1351.812,1950.58v76.47 M1504.753,1950.58l-0.001-76.47 M1581.223,1950.58
	h76.471 M1504.753,2027.05h-76.47 M1504.754,1568.229v76.471 M1504.754,1644.699h76.469 M1428.283,1874.109h-76.471
	 M1428.283,1874.109h76.469 M1428.283,1797.639v76.471 M1734.164,1644.699v76.47 M1734.164,1874.109h-76.471 M1428.283,2027.05
	h-76.471 M1657.693,1874.109v76.47 M1810.633,1797.639v-76.47 M1887.104,1874.109v76.47 M1887.104,1797.639h76.472
	 M1810.633,1874.109h-76.469 M1963.574,1721.169v76.47 M1734.164,1721.169h76.469 M1734.164,1874.109v76.47 M1734.162,1950.58
	l0.001,76.47 M1810.633,2103.52v76.471 M1810.633,2027.05h76.471 M1734.163,2103.52h-76.47 M1734.162,1950.58h-76.469
	 M1657.693,2103.52v76.471 M1810.633,2179.99h76.471 M1887.104,2027.05v-76.47 M1581.225,2027.05v76.47 M1428.283,2027.05v76.47
	 M1581.225,2103.52h76.471 M1275.343,1797.639v-76.47 M1275.343,1568.229h76.47 M1275.343,1950.58h-76.47 M1275.343,1797.639
	h-76.471 M1198.873,2027.05v-76.47 M1275.343,1874.109v-76.471 M1887.104,1950.58h76.472 M1963.572,1338.818v-76.471
	 M2040.043,1415.288v76.47 M2040.043,1338.818h76.47 M1963.572,1415.288h-76.471 M1887.104,1262.348h76.47 M1657.691,1338.818
	h-76.469 M2116.514,1262.348v76.471 M2116.512,1491.758h-76.469 M128.293,2485.871h76.47 M204.763,2485.871v-76.47
	 M204.763,2332.931v76.47 M204.763,2256.46h76.47 M281.233,2179.99v76.47 M281.232,2409.4h-76.47 M434.173,2103.52v-76.47
	 M510.643,2179.99v76.47 M510.643,2103.52h76.471 M434.173,2179.99h-76.47 M663.583,2103.52v76.471 M740.053,2256.46v76.47
	 M740.053,2179.99h76.471 M663.583,2256.46h-76.47 M587.113,2332.931v-76.47 M434.172,2409.4v76.471 M587.112,2409.4v-76.47
	 M663.583,2409.4h76.47 M587.112,2485.871h-76.471 M587.113,2027.05v76.47 M587.113,2103.52h76.47 M510.642,2332.931h-76.47
	 M510.642,2332.931h76.471 M510.642,2256.46v76.47 M816.523,2103.52v76.471 M816.523,2332.931h-76.472 M510.642,2485.871h-76.47
	 M740.052,2332.931v76.47 M816.523,2332.931v76.47 M816.521,2485.871v-76.47 M892.993,2485.871h76.47 M816.521,2562.341h-76.47
	 M816.521,2409.4h-76.47 M969.462,2485.871v-76.47 M663.583,2485.871v76.47 M510.643,2485.871v76.47 M663.583,2562.341h76.471
	 M357.703,2256.46v-76.47 M357.703,2027.05h76.47 M357.702,2409.4h-76.47 M357.703,2256.46h-76.471 M281.232,2409.4v76.471
	 M357.702,2332.931v-76.47 M281.233,2562.341v-76.47 M357.703,2562.341h76.47 M434.173,2485.871v76.47 M434.173,2562.341h76.47
	 M204.763,2485.871h76.47 M892.992,2256.46v-76.47 M969.462,2332.931v76.47 M969.462,2256.46h76.47 M892.992,2332.931h-76.471
	 M816.521,2179.99h76.471 M587.112,2256.46h-76.471 M1045.934,2179.99v76.47 M1045.932,2409.4h-76.47 M1198.873,2103.52
	l-0.001-76.47 M1275.343,2179.99v76.47 M1275.343,2103.52h76.47 M1198.873,2179.99h-76.471 M1428.283,2179.99l-0.001-76.471
	 M1504.753,2256.46v76.47 M1504.753,2179.99h76.47 M1428.283,2256.46h-76.471 M1351.812,2332.931v-76.47 M1198.872,2409.4v76.471
	 M1351.812,2332.931v76.47 M1428.282,2409.4h76.47 M1351.812,2485.871h-76.472 M1351.812,2027.05v76.47 M1351.812,2103.52h76.47
	 M1275.342,2332.931h-76.47 M1275.342,2332.931h76.471 M1275.342,2256.46v76.47 M1581.223,2103.52v76.471 M1581.225,2332.931
	h-76.473 M1275.342,2485.871h-76.47 M1504.752,2332.931v76.47 M1581.223,2332.931v76.47 M1581.223,2485.871v-76.47
	 M1657.691,2485.871h76.471 M1581.223,2562.341h-76.471 M1581.223,2409.4h-76.471 M1734.162,2485.871v-76.47 M1428.283,2485.871
	v76.47 M1275.342,2485.871v76.47 M1428.283,2562.341h76.471 M1122.402,2256.46v-76.47 M1122.402,2027.05h76.47 M1122.402,2409.4
	h-76.471 M1122.402,2256.46h-76.471 M1045.932,2409.4v76.471 M1122.402,2332.931v-76.47 M1045.934,2562.341v-76.47
	 M1122.402,2562.341h76.471 M1198.873,2485.871v76.47 M1198.873,2562.341h76.469 M969.462,2485.871h76.47 M1657.691,2256.46v-76.47
	 M1734.162,2332.931v76.47 M1734.162,2256.46h76.47 M1657.691,2332.931h-76.471 M1581.223,2179.99h76.469 M1351.812,2256.46h-76.471
	 M1810.633,2179.99v76.47 M1810.631,2409.4h-76.469 M2269.452,1032.938l0.001,76.47 M2269.451,1109.407l0.001,76.47
	 M2269.452,1262.348h-76.47 M2269.451,1491.758v76.471 M2192.982,1338.818v-76.471 M2192.982,1109.407h76.469 M2192.98,1491.758
	h-76.47 M2192.982,1338.818h-76.472 M2116.512,1491.758v76.471 M2192.98,1415.288l0.002-76.47 M2116.512,1644.699v-76.471
	 M2192.982,1721.169v76.47 M2192.982,1644.699h76.47 M2116.512,1721.169h-76.47 M2269.452,1797.639h-76.47 M2269.452,1874.109
	v-76.471 M2116.512,1950.58v76.47 M2269.451,1950.58v-76.47 M2269.451,2027.05h-76.471 M2269.452,1568.229v76.471 M2192.98,1874.109
	h-76.47 M2192.98,1874.109h76.471 M2192.98,1797.639v76.471 M2192.98,2027.05h-76.47 M2192.982,2027.05v76.47 M2040.042,1797.639
	v-76.47 M2040.042,1568.229h76.47 M2040.041,1950.58h-76.47 M2040.042,1797.639h-76.471 M1963.571,1950.58l0.001,76.47
	 M2040.041,1874.109l0.001-76.471 M1963.571,2103.52l-0.001-76.47 M2040.041,2179.99v76.47 M2040.041,2103.52h76.471
	 M1963.571,2179.99h-76.47 M2192.98,2179.99v-76.471 M2269.451,2256.46v76.47 M2192.98,2256.46h-76.47 M2116.512,2332.931v-76.47
	 M1963.57,2409.4v76.471 M2116.51,2332.931l0.001,76.47 M2192.98,2409.4h76.471 M2116.511,2485.871h-76.47 M2116.512,2027.05v76.47
	 M2116.512,2103.52h76.469 M2040.041,2332.931h-76.471 M2040.041,2332.931h76.469 M2040.041,2256.46v76.47 M2040.041,2485.871
	h-76.471 M2269.451,2332.931v76.47 M2192.98,2485.871v76.47 M2040.041,2485.871v76.47 M2192.98,2562.341h76.472 M1887.102,2256.46
	v-76.47 M1887.102,2027.05h76.47 M1887.102,2409.4h-76.471 M1887.102,2256.46h-76.471 M1810.631,2409.4v76.471 M1887.102,2332.931
	v-76.47 M1810.631,2562.341v-76.47 M1887.102,2562.341h76.471 M1963.571,2485.871v76.47 M1963.571,2562.341h76.47
	 M1734.161,2485.871h76.47 M2116.51,2256.46h-76.469"/>
<path fill="none" stroke="#000000" stroke-miterlimit="10" d="M2269.451,2562.34H128.294V421.175h2141.157V2562.34z"/>
<g id="Layer_2" display="none">
	<g display="inline">
		<line fill="none" stroke="#3953A4" stroke-miterlimit="10" x1="204.765" y1="191.765" x2="3110.633" y2="191.765"/>
		<line fill="none" stroke="#3953A4" stroke-miterlimit="10" x1="204.765" y1="268.235" x2="3110.633" y2="268.235"/>
		<line fill="none" stroke="#3953A4" stroke-miterlimit="10" x1="204.765" y1="344.705" x2="3110.633" y2="344.705"/>
		<line fill="none" stroke="#3953A4" stroke-miterlimit="10" x1="204.765" y1="421.175" x2="3110.633" y2="421.175"/>
		<line fill="none" stroke="#3953A4" stroke-miterlimit="10" x1="204.765" y1="497.646" x2="3110.633" y2="497.646"/>
		<line fill="none" stroke="#3953A4" stroke-miterlimit="10" x1="204.765" y1="574.116" x2="3110.633" y2="574.116"/>
		<line fill="none" stroke="#3953A4" stroke-miterlimit="10" x1="204.765" y1="650.586" x2="3110.633" y2="650.586"/>
		<line fill="none" stroke="#3953A4" stroke-miterlimit="10" x1="204.765" y1="727.057" x2="3110.633" y2="727.057"/>
		<line fill="none" stroke="#3953A4" stroke-miterlimit="10" x1="204.765" y1="803.525" x2="3110.633" y2="803.525"/>
		<line fill="none" stroke="#3953A4" stroke-miterlimit="10" x1="204.765" y1="879.997" x2="3110.633" y2="879.997"/>
		<line fill="none" stroke="#3953A4" stroke-miterlimit="10" x1="204.765" y1="956.467" x2="3110.633" y2="956.467"/>
		<line fill="none" stroke="#3953A4" stroke-miterlimit="10" x1="204.765" y1="1032.938" x2="3110.633" y2="1032.938"/>
		<line fill="none" stroke="#3953A4" stroke-miterlimit="10" x1="204.765" y1="1109.407" x2="3110.633" y2="1109.407"/>
		<line fill="none" stroke="#3953A4" stroke-miterlimit="10" x1="204.765" y1="1185.877" x2="3110.633" y2="1185.877"/>
		<line fill="none" stroke="#3953A4" stroke-miterlimit="10" x1="204.765" y1="1262.348" x2="3110.633" y2="1262.348"/>
		<line fill="none" stroke="#3953A4" stroke-miterlimit="10" x1="204.765" y1="1338.818" x2="3110.633" y2="1338.818"/>
		<line fill="none" stroke="#3953A4" stroke-miterlimit="10" x1="204.765" y1="1415.288" x2="3110.633" y2="1415.288"/>
		<line fill="none" stroke="#3953A4" stroke-miterlimit="10" x1="204.765" y1="1491.758" x2="3110.633" y2="1491.758"/>
		<line fill="none" stroke="#3953A4" stroke-miterlimit="10" x1="204.765" y1="1568.229" x2="3110.633" y2="1568.229"/>
		<line fill="none" stroke="#3953A4" stroke-miterlimit="10" x1="204.765" y1="1644.699" x2="3110.633" y2="1644.699"/>
		<line fill="none" stroke="#3953A4" stroke-miterlimit="10" x1="204.765" y1="1721.169" x2="3110.633" y2="1721.169"/>
		<line fill="none" stroke="#3953A4" stroke-miterlimit="10" x1="204.765" y1="1797.639" x2="3110.633" y2="1797.639"/>
		<line fill="none" stroke="#3953A4" stroke-miterlimit="10" x1="204.765" y1="1874.109" x2="3110.633" y2="1874.109"/>
		<line fill="none" stroke="#3953A4" stroke-miterlimit="10" x1="204.765" y1="1950.58" x2="3110.633" y2="1950.58"/>
		<line fill="none" stroke="#3953A4" stroke-miterlimit="10" x1="204.765" y1="2027.05" x2="3110.633" y2="2027.05"/>
		<line fill="none" stroke="#3953A4" stroke-miterlimit="10" x1="204.765" y1="2103.52" x2="3110.633" y2="2103.52"/>
		<line fill="none" stroke="#3953A4" stroke-miterlimit="10" x1="204.765" y1="2179.99" x2="3110.633" y2="2179.99"/>
		<line fill="none" stroke="#3953A4" stroke-miterlimit="10" x1="204.765" y1="2256.46" x2="3110.633" y2="2256.46"/>
		<line fill="none" stroke="#3953A4" stroke-miterlimit="10" x1="204.765" y1="2332.931" x2="3110.633" y2="2332.931"/>
		<line fill="none" stroke="#3953A4" stroke-miterlimit="10" x1="204.765" y1="2409.4" x2="3110.633" y2="2409.4"/>
		<line fill="none" stroke="#3953A4" stroke-miterlimit="10" x1="204.765" y1="2485.871" x2="3110.633" y2="2485.871"/>
		<line fill="none" stroke="#3953A4" stroke-miterlimit="10" x1="204.765" y1="2562.341" x2="3110.633" y2="2562.341"/>
		<line fill="none" stroke="#3953A4" stroke-miterlimit="10" x1="204.765" y1="2638.812" x2="3110.633" y2="2638.812"/>
		<line fill="none" stroke="#3953A4" stroke-miterlimit="10" x1="204.765" y1="2715.282" x2="3110.633" y2="2715.282"/>
		<line fill="none" stroke="#3953A4" stroke-miterlimit="10" x1="204.765" y1="2791.752" x2="3110.633" y2="2791.752"/>
		<line fill="none" stroke="#3953A4" stroke-miterlimit="10" x1="204.765" y1="2868.222" x2="3110.633" y2="2868.222"/>
		<line fill="none" stroke="#3953A4" stroke-miterlimit="10" x1="204.765" y1="2944.691" x2="3110.633" y2="2944.691"/>
		<line fill="none" stroke="#3953A4" stroke-miterlimit="10" x1="204.765" y1="3021.163" x2="3110.633" y2="3021.163"/>
		<line fill="none" stroke="#3953A4" stroke-miterlimit="10" x1="204.765" y1="3097.633" x2="3110.633" y2="3097.633"/>
	</g>
	<g display="inline">
		<line fill="none" stroke="#3953A4" stroke-miterlimit="10" x1="204.765" y1="3097.633" x2="204.765" y2="191.765"/>
		<line fill="none" stroke="#3953A4" stroke-miterlimit="10" x1="281.235" y1="3097.633" x2="281.234" y2="191.765"/>
		<line fill="none" stroke="#3953A4" stroke-miterlimit="10" x1="357.705" y1="3097.633" x2="357.705" y2="191.765"/>
		<line fill="none" stroke="#3953A4" stroke-miterlimit="10" x1="434.175" y1="3097.633" x2="434.175" y2="191.765"/>
		<line fill="none" stroke="#3953A4" stroke-miterlimit="10" x1="510.646" y1="3097.633" x2="510.646" y2="191.765"/>
		<line fill="none" stroke="#3953A4" stroke-miterlimit="10" x1="587.116" y1="3097.633" x2="587.115" y2="191.765"/>
		<line fill="none" stroke="#3953A4" stroke-miterlimit="10" x1="663.586" y1="3097.633" x2="663.586" y2="191.765"/>
		<line fill="none" stroke="#3953A4" stroke-miterlimit="10" x1="740.057" y1="3097.633" x2="740.057" y2="191.765"/>
		<line fill="none" stroke="#3953A4" stroke-miterlimit="10" x1="816.525" y1="3097.633" x2="816.525" y2="191.765"/>
		<line fill="none" stroke="#3953A4" stroke-miterlimit="10" x1="892.997" y1="3097.633" x2="892.996" y2="191.765"/>
		<line fill="none" stroke="#3953A4" stroke-miterlimit="10" x1="969.467" y1="3097.633" x2="969.467" y2="191.765"/>
		<line fill="none" stroke="#3953A4" stroke-miterlimit="10" x1="1045.938" y1="3097.633" x2="1045.938" y2="191.765"/>
		<line fill="none" stroke="#3953A4" stroke-miterlimit="10" x1="1122.407" y1="3097.633" x2="1122.407" y2="191.765"/>
		<line fill="none" stroke="#3953A4" stroke-miterlimit="10" x1="1198.878" y1="3097.633" x2="1198.877" y2="191.765"/>
		<line fill="none" stroke="#3953A4" stroke-miterlimit="10" x1="1275.348" y1="3097.633" x2="1275.348" y2="191.765"/>
		<line fill="none" stroke="#3953A4" stroke-miterlimit="10" x1="1351.816" y1="3097.633" x2="1351.816" y2="191.765"/>
		<line fill="none" stroke="#3953A4" stroke-miterlimit="10" x1="1428.288" y1="3097.633" x2="1428.288" y2="191.765"/>
		<line fill="none" stroke="#3953A4" stroke-miterlimit="10" x1="1504.759" y1="3097.633" x2="1504.758" y2="191.765"/>
		<line fill="none" stroke="#3953A4" stroke-miterlimit="10" x1="1581.229" y1="3097.633" x2="1581.229" y2="191.765"/>
		<line fill="none" stroke="#3953A4" stroke-miterlimit="10" x1="1657.699" y1="3097.633" x2="1657.699" y2="191.765"/>
		<line fill="none" stroke="#3953A4" stroke-miterlimit="10" x1="1734.169" y1="3097.633" x2="1734.169" y2="191.765"/>
		<line fill="none" stroke="#3953A4" stroke-miterlimit="10" x1="1810.639" y1="3097.633" x2="1810.639" y2="191.765"/>
		<line fill="none" stroke="#3953A4" stroke-miterlimit="10" x1="1887.109" y1="3097.633" x2="1887.109" y2="191.765"/>
		<line fill="none" stroke="#3953A4" stroke-miterlimit="10" x1="1963.58" y1="3097.633" x2="1963.58" y2="191.765"/>
		<line fill="none" stroke="#3953A4" stroke-miterlimit="10" x1="2040.05" y1="3097.633" x2="2040.05" y2="191.765"/>
		<line fill="none" stroke="#3953A4" stroke-miterlimit="10" x1="2116.52" y1="3097.633" x2="2116.52" y2="191.765"/>
		<line fill="none" stroke="#3953A4" stroke-miterlimit="10" x1="2192.99" y1="3097.633" x2="2192.99" y2="191.765"/>
		<line fill="none" stroke="#3953A4" stroke-miterlimit="10" x1="2269.461" y1="3097.633" x2="2269.461" y2="191.765"/>
		<line fill="none" stroke="#3953A4" stroke-miterlimit="10" x1="2345.931" y1="3097.633" x2="2345.931" y2="191.765"/>
		<line fill="none" stroke="#3953A4" stroke-miterlimit="10" x1="2422.4" y1="3097.633" x2="2422.4" y2="191.765"/>
		<line fill="none" stroke="#3953A4" stroke-miterlimit="10" x1="2498.871" y1="3097.633" x2="2498.871" y2="191.765"/>
		<line fill="none" stroke="#3953A4" stroke-miterlimit="10" x1="2575.342" y1="3097.633" x2="2575.342" y2="191.765"/>
		<line fill="none" stroke="#3953A4" stroke-miterlimit="10" x1="2651.812" y1="3097.633" x2="2651.812" y2="191.765"/>
		<line fill="none" stroke="#3953A4" stroke-miterlimit="10" x1="2728.281" y1="3097.633" x2="2728.281" y2="191.765"/>
		<line fill="none" stroke="#3953A4" stroke-miterlimit="10" x1="2804.752" y1="3097.633" x2="2804.752" y2="191.765"/>
		<line fill="none" stroke="#3953A4" stroke-miterlimit="10" x1="2881.223" y1="3097.633" x2="2881.223" y2="191.765"/>
		<line fill="none" stroke="#3953A4" stroke-miterlimit="10" x1="2957.691" y1="3097.633" x2="2957.691" y2="191.765"/>
		<line fill="none" stroke="#3953A4" stroke-miterlimit="10" x1="3034.162" y1="3097.633" x2="3034.162" y2="191.765"/>
		<line fill="none" stroke="#3953A4" stroke-miterlimit="10" x1="3110.633" y1="3097.633" x2="3110.633" y2="191.765"/>
	</g>
</g>
<path fill="none" stroke="#0000FF" stroke-miterlimit="10" d="M357.704,497.646v152.939 M663.586,497.646l-0.001-76.472
	 M587.114,497.646h-152.94 M587.114,574.116v152.94 M587.114,803.525h152.939 M816.525,803.525l-0.002-152.939 M357.705,727.057
	h152.939 M128.294,650.586h152.94 M281.235,879.997v-152.94 M204.764,956.467v152.94 M510.645,803.525l0.002,152.94
	 M434.174,956.467h-152.94 M434.174,1032.938v152.939 M740.055,1032.938v-152.94 M434.174,1262.348h152.94 M663.585,1262.348
	l-0.001-152.939 M204.765,1185.877h152.94 M510.645,1032.938h152.939 M663.584,574.116h152.939 M892.995,574.116v-152.94
	 M1122.404,497.646v152.939 M1428.285,421.175l0.001,76.472 M1351.814,497.646h-152.94 M1351.814,574.116v152.94 M1351.814,803.525
	h152.939 M1581.225,803.525V650.586 M1122.404,727.057h152.939 M892.994,650.586h152.939 M1045.936,879.997v-152.94
	 M969.464,956.467v152.94 M1275.345,803.525l0.001,152.94 M1198.874,956.467h-152.94 M1198.874,1032.938v152.939 M1504.755,1032.938
	v-152.94 M1198.874,1262.348h152.94 M1428.285,1262.348l-0.001-152.939 M969.464,1185.877h152.94 M740.054,1109.407h152.94
	 M1275.344,1032.938h152.94 M1428.284,574.116h152.94 M1657.693,574.116v-152.94 M1887.104,497.646v152.939 M2192.984,421.175
	v76.472 M2116.514,497.646h-152.939 M2116.514,574.116v152.94 M2116.514,803.525h152.94 M1887.104,727.057h152.941
	 M1657.693,650.586h152.941 M1810.635,879.997v-152.94 M1734.164,956.467v152.94 M2040.045,803.525v152.94 M1963.574,956.467
	h-152.941 M1963.574,1032.938v152.939 M2269.455,1032.938v-152.94 M1963.574,1262.348h152.938 M2192.984,1262.348v-152.939
	 M1734.164,1185.877h152.939 M1504.754,1109.407h152.94 M2040.043,1032.938h152.941 M2192.981,574.116h76.472 M357.704,1262.348
	l0.001,152.94 M281.233,1415.288h-152.94 M281.233,1491.758v152.94 M281.233,1721.169h152.94 M510.645,1721.169v-152.94
	 M128.295,1644.699h76.469 M204.764,1721.169l0.001,152.94 M434.174,1950.58v-152.94 M128.293,2179.99h152.94 M357.705,2179.99
	l-0.001-152.94 M204.763,1950.58h152.94 M357.703,1491.758h152.939 M587.114,1491.758v-152.939 M892.994,1338.818v-152.94
	 M816.523,1415.288v152.94 M1122.404,1262.348l0.001,152.94 M1045.934,1415.288h-152.94 M1045.934,1491.758v152.94
	 M1045.934,1721.169h152.939 M1275.344,1721.169l-0.001-152.94 M816.523,1644.699h152.939 M587.113,1568.229h152.939
	 M740.054,1797.639v-152.939 M663.583,1874.109v152.939 M969.465,1874.109l-0.001-152.94 M892.993,1874.109h-152.94
	 M892.993,1950.58v152.939 M1198.874,1950.58v-152.94 M892.993,2179.99h152.94 M1122.404,2179.99l-0.001-152.94 M663.583,2103.52
	h152.94 M434.173,2027.05h152.94 M969.463,1950.58h152.94 M1122.402,1491.758h152.94 M663.583,1338.818h152.94 M1351.812,1491.758
	v-152.939 M1657.693,1338.818v-152.94 M1581.223,1415.288v152.94 M1887.104,1262.348l0.002,152.94 M1810.633,1415.288h-152.939
	 M1810.633,1491.758v152.94 M1810.633,1721.169h152.94 M2040.044,1721.169l-0.001-152.94 M1581.223,1644.699h152.941
	 M1351.812,1568.229h152.941 M1504.754,1797.639v-152.939 M1428.283,1874.109v152.939 M1734.164,1721.169v152.94 M1657.693,1874.109
	h-152.941 M1657.693,1950.58v152.939 M1963.574,1950.58v-152.94 M1657.693,2179.99h152.938 M1887.104,2179.99v-152.94
	 M1428.283,2103.52h152.939 M1198.873,2027.05h152.939 M1734.162,1950.58h152.941 M1887.104,1491.758h152.939 M1428.283,1338.818
	h152.938 M2116.514,1491.758v-152.939 M204.764,2563.168l-0.001-77.297 M128.294,2409.4h76.469 M281.233,2409.4v-152.939
	 M587.113,2256.46v-152.94 M510.642,2332.931v152.94 M816.523,2179.99v152.939 M740.052,2332.931H587.112 M740.052,2409.4v152.94
	 M969.462,2485.871l0.001,77.296 M510.643,2562.341h152.94 M281.232,2485.871h152.94 M816.521,2409.4h152.94 M357.702,2256.46
	h152.939 M1045.934,2409.4v-152.939 M1351.812,2256.46v-152.94 M1275.342,2332.931v152.94 M1581.223,2179.99l0.002,152.939
	 M1504.752,2332.931h-152.939 M1504.752,2409.4v152.94 M1734.162,2485.871l0.001,77.296 M1275.342,2562.341h152.941
	 M1045.932,2485.871h152.941 M1581.223,2409.4h152.939 M1122.402,2256.46h152.938 M1810.633,2409.4v-152.939 M2116.512,1568.229
	h152.94 M2269.452,1797.639v-152.939 M2192.98,1874.109v152.939 M2192.981,2103.52h76.47 M1963.572,2027.05h152.938
	 M2192.98,1338.818h76.471 M2116.512,2256.46v-152.94 M2040.041,2332.931v152.94 M2269.451,2332.931H2116.51 M2269.451,2409.4
	v152.94 M2040.041,2562.341h152.939 M1810.631,2485.871h152.94 M1887.102,2256.46h152.939 M204.764,879.997h-76.47
	 M510.643,1797.639h152.94 M1275.343,1797.639h152.94 M2040.042,1797.639h152.938 M816.523,879.997h152.94 M1581.225,879.997
	h152.939"/>
</svg>
