<?xml version="1.0" encoding="utf-8"?>
<!-- Generator: Adobe Illustrator 16.0.3, SVG Export Plug-In . SVG Version: 6.00 Build 0)  -->
<!DOCTYPE svg PUBLIC "-//W3C//DTD SVG 1.1//EN" "http://www.w3.org/Graphics/SVG/1.1/DTD/svg11.dtd">
<svg version="1.1" id="Layer_1" xmlns="http://www.w3.org/2000/svg" xmlns:xlink="http://www.w3.org/1999/xlink" x="0px" y="0px"
	 width="2261.271px" height="2084px" viewBox="0 0 2261.271 2084" enable-background="new 0 0 2261.271 2084" xml:space="preserve">
<line opacity="0.5" fill="none" stroke="#FF0000" stroke-width="4.3568" stroke-miterlimit="10" enable-background="new    " x1="135.014" y1="48.805" x2="135.014" y2="1075.503"/>
<line opacity="0.5" fill="none" stroke="#FF0000" stroke-width="4.3568" stroke-miterlimit="10" enable-background="new    " x1="189.019" y1="48.805" x2="189.019" y2="1075.503"/>
<line opacity="0.5" fill="none" stroke="#FF0000" stroke-width="4.3568" stroke-miterlimit="10" enable-background="new    " x1="243.024" y1="48.805" x2="243.024" y2="1075.503"/>
<line opacity="0.5" fill="none" stroke="#FF0000" stroke-width="4.3568" stroke-miterlimit="10" enable-background="new    " x1="297.03" y1="48.805" x2="297.03" y2="1075.503"/>
<line opacity="0.5" fill="none" stroke="#FF0000" stroke-width="4.3568" stroke-miterlimit="10" enable-background="new    " x1="351.035" y1="48.805" x2="351.035" y2="1075.503"/>
<line opacity="0.5" fill="none" stroke="#FF0000" stroke-width="4.3568" stroke-miterlimit="10" enable-background="new    " x1="405.041" y1="48.805" x2="405.041" y2="1075.503"/>
<line opacity="0.5" fill="none" stroke="#FF0000" stroke-width="4.3568" stroke-miterlimit="10" enable-background="new    " x1="459.046" y1="48.805" x2="459.046" y2="1075.503"/>
<line opacity="0.5" fill="none" stroke="#FF0000" stroke-width="4.3568" stroke-miterlimit="10" enable-background="new    " x1="513.051" y1="48.805" x2="513.051" y2="1075.503"/>
<line opacity="0.5" fill="none" stroke="#FF0000" stroke-width="4.3568" stroke-miterlimit="10" enable-background="new    " x1="567.057" y1="48.805" x2="567.057" y2="1075.503"/>
<line opacity="0.5" fill="none" stroke="#FF0000" stroke-width="4.3568" stroke-miterlimit="10" enable-background="new    " x1="621.062" y1="48.805" x2="621.062" y2="1075.503"/>
<line opacity="0.5" fill="none" stroke="#FF0000" stroke-width="4.3568" stroke-miterlimit="10" enable-background="new    " x1="675.066" y1="48.805" x2="675.066" y2="1075.503"/>
<line opacity="0.5" fill="none" stroke="#FF0000" stroke-width="4.3568" stroke-miterlimit="10" enable-background="new    " x1="729.073" y1="48.805" x2="729.073" y2="1075.503"/>
<line opacity="0.5" fill="none" stroke="#FF0000" stroke-width="4.3568" stroke-miterlimit="10" enable-background="new    " x1="783.078" y1="48.805" x2="783.078" y2="1075.503"/>
<line opacity="0.5" fill="none" stroke="#FF0000" stroke-width="4.3568" stroke-miterlimit="10" enable-background="new    " x1="837.083" y1="48.805" x2="837.083" y2="1075.503"/>
<line opacity="0.5" fill="none" stroke="#FF0000" stroke-width="4.3568" stroke-miterlimit="10" enable-background="new    " x1="891.089" y1="48.805" x2="891.089" y2="1075.503"/>
<line opacity="0.5" fill="none" stroke="#FF0000" stroke-width="4.3568" stroke-miterlimit="10" enable-background="new    " x1="945.094" y1="48.805" x2="945.094" y2="1075.503"/>
<line opacity="0.5" fill="none" stroke="#FF0000" stroke-width="4.3568" stroke-miterlimit="10" enable-background="new    " x1="999.1" y1="48.805" x2="999.1" y2="1075.503"/>
<line opacity="0.5" fill="none" stroke="#FF0000" stroke-width="4.3568" stroke-miterlimit="10" enable-background="new    " x1="1053.105" y1="48.805" x2="1053.105" y2="1075.503"/>
<line opacity="0.5" fill="none" stroke="#FF0000" stroke-width="4.3568" stroke-miterlimit="10" enable-background="new    " x1="1107.111" y1="48.805" x2="1107.111" y2="1075.503"/>
<line opacity="0.5" fill="none" stroke="#FF0000" stroke-width="4.3568" stroke-miterlimit="10" enable-background="new    " x1="1161.117" y1="48.805" x2="1161.117" y2="1075.503"/>
<line opacity="0.5" fill="none" stroke="#FF0000" stroke-width="4.3568" stroke-miterlimit="10" enable-background="new    " x1="81.008" y1="1020.908" x2="1215.092" y2="1020.908"/>
<line opacity="0.5" fill="none" stroke="#FF0000" stroke-width="4.3568" stroke-miterlimit="10" enable-background="new    " x1="81.008" y1="966.902" x2="1215.092" y2="966.902"/>
<line opacity="0.5" fill="none" stroke="#FF0000" stroke-width="4.3568" stroke-miterlimit="10" enable-background="new    " x1="81.008" y1="912.896" x2="1215.092" y2="912.896"/>
<line opacity="0.5" fill="none" stroke="#FF0000" stroke-width="4.3568" stroke-miterlimit="10" enable-background="new    " x1="81.008" y1="858.893" x2="1215.092" y2="858.893"/>
<line opacity="0.5" fill="none" stroke="#FF0000" stroke-width="4.3568" stroke-miterlimit="10" enable-background="new    " x1="81.008" y1="804.887" x2="1215.092" y2="804.887"/>
<line opacity="0.5" fill="none" stroke="#FF0000" stroke-width="4.3568" stroke-miterlimit="10" enable-background="new    " x1="81.008" y1="750.881" x2="1215.092" y2="750.881"/>
<line opacity="0.5" fill="none" stroke="#FF0000" stroke-width="4.3568" stroke-miterlimit="10" enable-background="new    " x1="81.008" y1="696.875" x2="1215.092" y2="696.875"/>
<line opacity="0.5" fill="none" stroke="#FF0000" stroke-width="4.3568" stroke-miterlimit="10" enable-background="new    " x1="81.008" y1="642.869" x2="1215.092" y2="642.869"/>
<line opacity="0.5" fill="none" stroke="#FF0000" stroke-width="4.3568" stroke-miterlimit="10" enable-background="new    " x1="81.008" y1="588.863" x2="1215.092" y2="588.863"/>
<line opacity="0.5" fill="none" stroke="#FF0000" stroke-width="4.3568" stroke-miterlimit="10" enable-background="new    " x1="81.008" y1="534.857" x2="1215.092" y2="534.857"/>
<line opacity="0.5" fill="none" stroke="#FF0000" stroke-width="4.3568" stroke-miterlimit="10" enable-background="new    " x1="81.008" y1="480.852" x2="1215.092" y2="480.852"/>
<line opacity="0.5" fill="none" stroke="#FF0000" stroke-width="4.3568" stroke-miterlimit="10" enable-background="new    " x1="81.008" y1="426.846" x2="1215.092" y2="426.846"/>
<line opacity="0.5" fill="none" stroke="#FF0000" stroke-width="4.3568" stroke-miterlimit="10" enable-background="new    " x1="81.008" y1="372.84" x2="1215.092" y2="372.84"/>
<line opacity="0.5" fill="none" stroke="#FF0000" stroke-width="4.3568" stroke-miterlimit="10" enable-background="new    " x1="81.008" y1="318.834" x2="1215.092" y2="318.834"/>
<line opacity="0.5" fill="none" stroke="#FF0000" stroke-width="4.3568" stroke-miterlimit="10" enable-background="new    " x1="81.008" y1="264.828" x2="1215.092" y2="264.828"/>
<line opacity="0.5" fill="none" stroke="#FF0000" stroke-width="4.3568" stroke-miterlimit="10" enable-background="new    " x1="81.008" y1="210.822" x2="1215.092" y2="210.822"/>
<line opacity="0.5" fill="none" stroke="#FF0000" stroke-width="4.3568" stroke-miterlimit="10" enable-background="new    " x1="81.008" y1="156.816" x2="1215.092" y2="156.816"/>
<line opacity="0.5" fill="none" stroke="#FF0000" stroke-width="4.3568" stroke-miterlimit="10" enable-background="new    " x1="81.008" y1="102.811" x2="1215.092" y2="102.811"/>
<path fill="none" stroke="#000000" stroke-width="4.3568" stroke-miterlimit="10" d="M81.008,48.805v1026.111 M1215.121,48.805
	v1026.111 M81.008,1074.916h1134.113 M81.008,48.805h1134.113"/>
<line fill="none" stroke="#0000FF" stroke-width="4.3568" stroke-miterlimit="10" x1="81.008" y1="48.805" x2="189.019" y2="156.817"/>
<line fill="none" stroke="#0000FF" stroke-width="4.3568" stroke-miterlimit="10" x1="81.008" y1="156.816" x2="189.019" y2="48.805"/>
<line fill="none" stroke="#0000FF" stroke-width="4.3568" stroke-miterlimit="10" x1="243.024" y1="48.805" x2="189.019" y2="102.811"/>
<line fill="none" stroke="#0000FF" stroke-width="4.3568" stroke-miterlimit="10" x1="297.03" y1="102.811" x2="243.025" y2="48.805"/>
<line fill="none" stroke="#0000FF" stroke-width="4.3568" stroke-miterlimit="10" x1="351.035" y1="210.822" x2="243.024" y2="102.811"/>
<line fill="none" stroke="#0000FF" stroke-width="4.3568" stroke-miterlimit="10" x1="351.035" y1="102.811" x2="243.024" y2="210.822"/>
<line fill="none" stroke="#0000FF" stroke-width="4.3568" stroke-miterlimit="10" x1="351.035" y1="156.816" x2="459.046" y2="48.805"/>
<line fill="none" stroke="#0000FF" stroke-width="4.3568" stroke-miterlimit="10" x1="351.035" y1="48.805" x2="459.046" y2="156.817"/>
<line fill="none" stroke="#0000FF" stroke-width="4.3568" stroke-miterlimit="10" x1="135.014" y1="156.816" x2="243.025" y2="264.828"/>
<line fill="none" stroke="#0000FF" stroke-width="4.3568" stroke-miterlimit="10" x1="243.024" y1="156.816" x2="135.014" y2="264.828"/>
<line fill="none" stroke="#0000FF" stroke-width="4.3568" stroke-miterlimit="10" x1="135.014" y1="210.822" x2="81.008" y2="264.828"/>
<line fill="none" stroke="#0000FF" stroke-width="4.3568" stroke-miterlimit="10" x1="81.008" y1="264.828" x2="135.014" y2="318.834"/>
<line fill="none" stroke="#0000FF" stroke-width="4.3568" stroke-miterlimit="10" x1="189.019" y1="264.828" x2="297.03" y2="372.84"/>
<line fill="none" stroke="#0000FF" stroke-width="4.3568" stroke-miterlimit="10" x1="297.03" y1="264.828" x2="189.019" y2="372.84"/>
<line fill="none" stroke="#0000FF" stroke-width="4.3568" stroke-miterlimit="10" x1="297.03" y1="210.822" x2="405.041" y2="318.834"/>
<line fill="none" stroke="#0000FF" stroke-width="4.3568" stroke-miterlimit="10" x1="405.041" y1="210.822" x2="297.03" y2="318.834"/>
<line fill="none" stroke="#0000FF" stroke-width="4.3568" stroke-miterlimit="10" x1="405.041" y1="156.816" x2="513.052" y2="264.828"/>
<line fill="none" stroke="#0000FF" stroke-width="4.3568" stroke-miterlimit="10" x1="513.051" y1="156.816" x2="405.041" y2="264.828"/>
<line fill="none" stroke="#0000FF" stroke-width="4.3568" stroke-miterlimit="10" x1="459.046" y1="102.811" x2="513.051" y2="48.805"/>
<line fill="none" stroke="#0000FF" stroke-width="4.3568" stroke-miterlimit="10" x1="567.057" y1="102.811" x2="513.052" y2="48.805"/>
<line fill="none" stroke="#0000FF" stroke-width="4.3568" stroke-miterlimit="10" x1="621.062" y1="210.822" x2="513.051" y2="102.811"/>
<line fill="none" stroke="#0000FF" stroke-width="4.3568" stroke-miterlimit="10" x1="621.062" y1="102.811" x2="513.051" y2="210.822"/>
<line fill="none" stroke="#0000FF" stroke-width="4.3568" stroke-miterlimit="10" x1="621.062" y1="156.816" x2="729.073" y2="48.805"/>
<line fill="none" stroke="#0000FF" stroke-width="4.3568" stroke-miterlimit="10" x1="621.062" y1="48.805" x2="729.073" y2="156.817"/>
<line fill="none" stroke="#0000FF" stroke-width="4.3568" stroke-miterlimit="10" x1="675.066" y1="156.816" x2="783.078" y2="264.828"/>
<line fill="none" stroke="#0000FF" stroke-width="4.3568" stroke-miterlimit="10" x1="783.078" y1="156.816" x2="675.066" y2="264.828"/>
<line fill="none" stroke="#0000FF" stroke-width="4.3568" stroke-miterlimit="10" x1="729.073" y1="102.811" x2="783.078" y2="48.805"/>
<line fill="none" stroke="#0000FF" stroke-width="4.3568" stroke-miterlimit="10" x1="837.083" y1="102.811" x2="783.078" y2="48.805"/>
<line fill="none" stroke="#0000FF" stroke-width="4.3568" stroke-miterlimit="10" x1="783.078" y1="102.811" x2="891.089" y2="210.823"/>
<line fill="none" stroke="#0000FF" stroke-width="4.3568" stroke-miterlimit="10" x1="891.089" y1="102.811" x2="783.078" y2="210.822"/>
<line fill="none" stroke="#0000FF" stroke-width="4.3568" stroke-miterlimit="10" x1="891.089" y1="156.816" x2="999.1" y2="48.805"/>
<line fill="none" stroke="#0000FF" stroke-width="4.3568" stroke-miterlimit="10" x1="891.089" y1="48.805" x2="999.1" y2="156.816"/>
<line fill="none" stroke="#0000FF" stroke-width="4.3568" stroke-miterlimit="10" x1="945.094" y1="156.816" x2="1053.105" y2="264.828"/>
<line fill="none" stroke="#0000FF" stroke-width="4.3568" stroke-miterlimit="10" x1="1053.105" y1="156.816" x2="945.094" y2="264.828"/>
<line fill="none" stroke="#0000FF" stroke-width="4.3568" stroke-miterlimit="10" x1="999.1" y1="102.811" x2="1053.105" y2="48.805"/>
<line fill="none" stroke="#0000FF" stroke-width="4.3568" stroke-miterlimit="10" x1="1107.109" y1="102.811" x2="1053.105" y2="48.805"/>
<line fill="none" stroke="#0000FF" stroke-width="4.3568" stroke-miterlimit="10" x1="1161.115" y1="210.822" x2="1053.105" y2="102.81"/>
<line fill="none" stroke="#0000FF" stroke-width="4.3568" stroke-miterlimit="10" x1="1161.115" y1="102.811" x2="1053.105" y2="210.823"/>
<line fill="none" stroke="#0000FF" stroke-width="4.3568" stroke-miterlimit="10" x1="1161.115" y1="156.816" x2="1215.092" y2="102.811"/>
<line fill="none" stroke="#0000FF" stroke-width="4.3568" stroke-miterlimit="10" x1="1215.092" y1="102.811" x2="1161.115" y2="48.805"/>
<line fill="none" stroke="#0000FF" stroke-width="4.3568" stroke-miterlimit="10" x1="243.01" y1="534.857" x2="134.999" y2="426.846"/>
<line fill="none" stroke="#0000FF" stroke-width="4.3568" stroke-miterlimit="10" x1="243.01" y1="426.846" x2="134.999" y2="534.857"/>
<line fill="none" stroke="#0000FF" stroke-width="4.3568" stroke-miterlimit="10" x1="513.037" y1="534.857" x2="405.026" y2="426.846"/>
<line fill="none" stroke="#0000FF" stroke-width="4.3568" stroke-miterlimit="10" x1="513.037" y1="426.846" x2="405.026" y2="534.857"/>
<line fill="none" stroke="#0000FF" stroke-width="4.3568" stroke-miterlimit="10" x1="783.062" y1="534.857" x2="675.052" y2="426.845"/>
<line fill="none" stroke="#0000FF" stroke-width="4.3568" stroke-miterlimit="10" x1="783.062" y1="426.846" x2="675.052" y2="534.857"/>
<line fill="none" stroke="#0000FF" stroke-width="4.3568" stroke-miterlimit="10" x1="945.079" y1="426.846" x2="1053.091" y2="534.857"/>
<line fill="none" stroke="#0000FF" stroke-width="4.3568" stroke-miterlimit="10" x1="1053.091" y1="426.846" x2="945.079" y2="534.857"/>
<line fill="none" stroke="#0000FF" stroke-width="4.3568" stroke-miterlimit="10" x1="134.984" y1="696.875" x2="242.995" y2="804.887"/>
<line fill="none" stroke="#0000FF" stroke-width="4.3568" stroke-miterlimit="10" x1="242.995" y1="696.875" x2="134.984" y2="804.887"/>
<line fill="none" stroke="#0000FF" stroke-width="4.3568" stroke-miterlimit="10" x1="405.011" y1="696.875" x2="513.021" y2="804.887"/>
<line fill="none" stroke="#0000FF" stroke-width="4.3568" stroke-miterlimit="10" x1="513.021" y1="696.875" x2="405.011" y2="804.887"/>
<line fill="none" stroke="#0000FF" stroke-width="4.3568" stroke-miterlimit="10" x1="675.038" y1="696.875" x2="783.049" y2="804.887"/>
<line fill="none" stroke="#0000FF" stroke-width="4.3568" stroke-miterlimit="10" x1="783.049" y1="696.875" x2="675.038" y2="804.887"/>
<line fill="none" stroke="#0000FF" stroke-width="4.3568" stroke-miterlimit="10" x1="945.064" y1="696.875" x2="1053.076" y2="804.887"/>
<line fill="none" stroke="#0000FF" stroke-width="4.3568" stroke-miterlimit="10" x1="1053.076" y1="696.875" x2="945.064" y2="804.887"/>
<line fill="none" stroke="#0000FF" stroke-width="4.3568" stroke-miterlimit="10" x1="134.97" y1="966.904" x2="242.981" y2="1074.916"/>
<line fill="none" stroke="#0000FF" stroke-width="4.3568" stroke-miterlimit="10" x1="242.98" y1="966.904" x2="134.97" y2="1074.916"/>
<line fill="none" stroke="#0000FF" stroke-width="4.3568" stroke-miterlimit="10" x1="404.997" y1="966.904" x2="513.008" y2="1074.916"/>
<line fill="none" stroke="#0000FF" stroke-width="4.3568" stroke-miterlimit="10" x1="513.007" y1="966.904" x2="404.996" y2="1074.916"/>
<line fill="none" stroke="#0000FF" stroke-width="4.3568" stroke-miterlimit="10" x1="675.023" y1="966.904" x2="783.034" y2="1074.916"/>
<line fill="none" stroke="#0000FF" stroke-width="4.3568" stroke-miterlimit="10" x1="783.034" y1="966.904" x2="675.023" y2="1074.916"/>
<line fill="none" stroke="#0000FF" stroke-width="4.3568" stroke-miterlimit="10" x1="945.05" y1="966.904" x2="1053.062" y2="1074.916"/>
<line fill="none" stroke="#0000FF" stroke-width="4.3568" stroke-miterlimit="10" x1="1053.062" y1="966.904" x2="945.05" y2="1074.916"/>
<line fill="none" stroke="#0000FF" stroke-width="4.3568" stroke-miterlimit="10" x1="351.035" y1="318.834" x2="459.046" y2="426.846"/>
<line fill="none" stroke="#0000FF" stroke-width="4.3568" stroke-miterlimit="10" x1="459.046" y1="318.834" x2="351.035" y2="426.846"/>
<line fill="none" stroke="#0000FF" stroke-width="4.3568" stroke-miterlimit="10" x1="351.035" y1="372.84" x2="243.024" y2="480.852"/>
<line fill="none" stroke="#0000FF" stroke-width="4.3568" stroke-miterlimit="10" x1="243.024" y1="372.84" x2="351.035" y2="480.852"/>
<line fill="none" stroke="#0000FF" stroke-width="4.3568" stroke-miterlimit="10" x1="459.046" y1="264.828" x2="567.057" y2="372.84"/>
<line fill="none" stroke="#0000FF" stroke-width="4.3568" stroke-miterlimit="10" x1="567.057" y1="264.828" x2="459.046" y2="372.84"/>
<line fill="none" stroke="#0000FF" stroke-width="4.3568" stroke-miterlimit="10" x1="567.057" y1="210.822" x2="675.07" y2="318.834"/>
<line fill="none" stroke="#0000FF" stroke-width="4.3568" stroke-miterlimit="10" x1="675.066" y1="210.822" x2="567.056" y2="318.834"/>
<line fill="none" stroke="#0000FF" stroke-width="4.3568" stroke-miterlimit="10" x1="621.062" y1="318.834" x2="729.073" y2="426.846"/>
<line fill="none" stroke="#0000FF" stroke-width="4.3568" stroke-miterlimit="10" x1="621.062" y1="426.846" x2="729.073" y2="318.834"/>
<line fill="none" stroke="#0000FF" stroke-width="4.3568" stroke-miterlimit="10" x1="621.062" y1="372.84" x2="513.051" y2="480.852"/>
<line fill="none" stroke="#0000FF" stroke-width="4.3568" stroke-miterlimit="10" x1="513.051" y1="372.84" x2="621.062" y2="480.852"/>
<line fill="none" stroke="#0000FF" stroke-width="4.3568" stroke-miterlimit="10" x1="729.073" y1="264.828" x2="837.083" y2="372.84"/>
<line fill="none" stroke="#0000FF" stroke-width="4.3568" stroke-miterlimit="10" x1="837.083" y1="264.828" x2="729.073" y2="372.84"/>
<line fill="none" stroke="#0000FF" stroke-width="4.3568" stroke-miterlimit="10" x1="837.083" y1="210.822" x2="945.093" y2="318.834"/>
<line fill="none" stroke="#0000FF" stroke-width="4.3568" stroke-miterlimit="10" x1="945.094" y1="210.822" x2="837.084" y2="318.834"/>
<line fill="none" stroke="#0000FF" stroke-width="4.3568" stroke-miterlimit="10" x1="891.089" y1="318.834" x2="999.1" y2="426.846"/>
<line fill="none" stroke="#0000FF" stroke-width="4.3568" stroke-miterlimit="10" x1="999.1" y1="318.834" x2="891.089" y2="426.846"/>
<line fill="none" stroke="#0000FF" stroke-width="4.3568" stroke-miterlimit="10" x1="891.089" y1="372.84" x2="783.078" y2="480.852"/>
<line fill="none" stroke="#0000FF" stroke-width="4.3568" stroke-miterlimit="10" x1="891.089" y1="480.852" x2="783.078" y2="372.84"/>
<line fill="none" stroke="#0000FF" stroke-width="4.3568" stroke-miterlimit="10" x1="999.1" y1="264.828" x2="1107.109" y2="372.84"/>
<line fill="none" stroke="#0000FF" stroke-width="4.3568" stroke-miterlimit="10" x1="1107.109" y1="264.828" x2="999.1" y2="372.84"/>
<line fill="none" stroke="#0000FF" stroke-width="4.3568" stroke-miterlimit="10" x1="1107.109" y1="210.822" x2="1215.121" y2="318.834"/>
<line fill="none" stroke="#0000FF" stroke-width="4.3568" stroke-miterlimit="10" x1="1215.121" y1="210.822" x2="1107.109" y2="318.834"/>
<line fill="none" stroke="#0000FF" stroke-width="4.3568" stroke-miterlimit="10" x1="1161.115" y1="318.834" x2="1215.092" y2="372.84"/>
<line fill="none" stroke="#0000FF" stroke-width="4.3568" stroke-miterlimit="10" x1="1215.092" y1="372.84" x2="1161.115" y2="426.846"/>
<line fill="none" stroke="#0000FF" stroke-width="4.3568" stroke-miterlimit="10" x1="1161.115" y1="372.84" x2="1053.105" y2="480.852"/>
<line fill="none" stroke="#0000FF" stroke-width="4.3568" stroke-miterlimit="10" x1="1161.115" y1="480.852" x2="1053.105" y2="372.84"/>
<line fill="none" stroke="#0000FF" stroke-width="4.3568" stroke-miterlimit="10" x1="189.019" y1="318.834" x2="81.008" y2="426.846"/>
<line fill="none" stroke="#0000FF" stroke-width="4.3568" stroke-miterlimit="10" x1="189.019" y1="426.846" x2="81.008" y2="318.834"/>
<line fill="none" stroke="#0000FF" stroke-width="4.3568" stroke-miterlimit="10" x1="135.011" y1="480.852" x2="81.005" y2="534.857"/>
<line fill="none" stroke="#0000FF" stroke-width="4.3568" stroke-miterlimit="10" x1="135.011" y1="588.863" x2="81.005" y2="534.857"/>
<line fill="none" stroke="#0000FF" stroke-width="4.3568" stroke-miterlimit="10" x1="189.016" y1="534.857" x2="297.027" y2="642.869"/>
<line fill="none" stroke="#0000FF" stroke-width="4.3568" stroke-miterlimit="10" x1="297.027" y1="534.857" x2="189.016" y2="642.869"/>
<line fill="none" stroke="#0000FF" stroke-width="4.3568" stroke-miterlimit="10" x1="297.027" y1="480.852" x2="405.038" y2="588.869"/>
<line fill="none" stroke="#0000FF" stroke-width="4.3568" stroke-miterlimit="10" x1="405.038" y1="480.852" x2="297.027" y2="588.863"/>
<line fill="none" stroke="#0000FF" stroke-width="4.3568" stroke-miterlimit="10" x1="351.032" y1="588.863" x2="459.043" y2="696.875"/>
<line fill="none" stroke="#0000FF" stroke-width="4.3568" stroke-miterlimit="10" x1="459.043" y1="588.863" x2="351.032" y2="696.875"/>
<line fill="none" stroke="#0000FF" stroke-width="4.3568" stroke-miterlimit="10" x1="351.032" y1="642.869" x2="243.021" y2="750.881"/>
<line fill="none" stroke="#0000FF" stroke-width="4.3568" stroke-miterlimit="10" x1="243.021" y1="642.869" x2="351.032" y2="750.881"/>
<line fill="none" stroke="#0000FF" stroke-width="4.3568" stroke-miterlimit="10" x1="459.043" y1="534.857" x2="567.054" y2="642.869"/>
<line fill="none" stroke="#0000FF" stroke-width="4.3568" stroke-miterlimit="10" x1="567.054" y1="534.857" x2="459.043" y2="642.869"/>
<line fill="none" stroke="#0000FF" stroke-width="4.3568" stroke-miterlimit="10" x1="567.054" y1="480.852" x2="675.064" y2="588.869"/>
<line fill="none" stroke="#0000FF" stroke-width="4.3568" stroke-miterlimit="10" x1="675.064" y1="480.852" x2="567.054" y2="588.863"/>
<line fill="none" stroke="#0000FF" stroke-width="4.3568" stroke-miterlimit="10" x1="621.059" y1="588.863" x2="729.07" y2="696.875"/>
<line fill="none" stroke="#0000FF" stroke-width="4.3568" stroke-miterlimit="10" x1="621.059" y1="696.875" x2="729.07" y2="588.863"/>
<line fill="none" stroke="#0000FF" stroke-width="4.3568" stroke-miterlimit="10" x1="621.059" y1="642.869" x2="513.048" y2="750.881"/>
<line fill="none" stroke="#0000FF" stroke-width="4.3568" stroke-miterlimit="10" x1="513.048" y1="642.869" x2="621.059" y2="750.881"/>
<line fill="none" stroke="#0000FF" stroke-width="4.3568" stroke-miterlimit="10" x1="729.07" y1="534.857" x2="837.081" y2="642.869"/>
<line fill="none" stroke="#0000FF" stroke-width="4.3568" stroke-miterlimit="10" x1="837.081" y1="534.857" x2="729.07" y2="642.869"/>
<line fill="none" stroke="#0000FF" stroke-width="4.3568" stroke-miterlimit="10" x1="837.081" y1="480.852" x2="945.091" y2="588.869"/>
<line fill="none" stroke="#0000FF" stroke-width="4.3568" stroke-miterlimit="10" x1="945.091" y1="480.852" x2="837.081" y2="588.869"/>
<line fill="none" stroke="#0000FF" stroke-width="4.3568" stroke-miterlimit="10" x1="891.086" y1="588.863" x2="999.097" y2="696.875"/>
<line fill="none" stroke="#0000FF" stroke-width="4.3568" stroke-miterlimit="10" x1="891.086" y1="696.875" x2="999.097" y2="588.863"/>
<line fill="none" stroke="#0000FF" stroke-width="4.3568" stroke-miterlimit="10" x1="891.086" y1="642.869" x2="783.075" y2="750.881"/>
<line fill="none" stroke="#0000FF" stroke-width="4.3568" stroke-miterlimit="10" x1="783.075" y1="642.869" x2="891.086" y2="750.881"/>
<line fill="none" stroke="#0000FF" stroke-width="4.3568" stroke-miterlimit="10" x1="999.097" y1="534.857" x2="1107.107" y2="642.869"/>
<line fill="none" stroke="#0000FF" stroke-width="4.3568" stroke-miterlimit="10" x1="1107.107" y1="534.857" x2="999.097" y2="642.869"/>
<line fill="none" stroke="#0000FF" stroke-width="4.3568" stroke-miterlimit="10" x1="1107.107" y1="480.852" x2="1215.118" y2="588.869"/>
<line fill="none" stroke="#0000FF" stroke-width="4.3568" stroke-miterlimit="10" x1="1215.118" y1="480.852" x2="1107.107" y2="588.869"/>
<line fill="none" stroke="#0000FF" stroke-width="4.3568" stroke-miterlimit="10" x1="1161.112" y1="588.863" x2="1215.091" y2="642.869"/>
<line fill="none" stroke="#0000FF" stroke-width="4.3568" stroke-miterlimit="10" x1="1215.092" y1="642.869" x2="1161.113" y2="696.875"/>
<line fill="none" stroke="#0000FF" stroke-width="4.3568" stroke-miterlimit="10" x1="1161.112" y1="642.869" x2="1053.102" y2="750.881"/>
<line fill="none" stroke="#0000FF" stroke-width="4.3568" stroke-miterlimit="10" x1="1161.112" y1="750.881" x2="1053.102" y2="642.869"/>
<line fill="none" stroke="#0000FF" stroke-width="4.3568" stroke-miterlimit="10" x1="189.016" y1="588.863" x2="81.005" y2="696.875"/>
<line fill="none" stroke="#0000FF" stroke-width="4.3568" stroke-miterlimit="10" x1="81.005" y1="588.863" x2="189.016" y2="696.875"/>
<line fill="none" stroke="#0000FF" stroke-width="4.3568" stroke-miterlimit="10" x1="135.008" y1="750.881" x2="81.002" y2="804.887"/>
<line fill="none" stroke="#0000FF" stroke-width="4.3568" stroke-miterlimit="10" x1="81.002" y1="804.887" x2="135.008" y2="858.893"/>
<line fill="none" stroke="#0000FF" stroke-width="4.3568" stroke-miterlimit="10" x1="189.013" y1="804.887" x2="297.024" y2="912.898"/>
<line fill="none" stroke="#0000FF" stroke-width="4.3568" stroke-miterlimit="10" x1="297.024" y1="804.887" x2="189.013" y2="912.898"/>
<line fill="none" stroke="#0000FF" stroke-width="4.3568" stroke-miterlimit="10" x1="297.024" y1="750.881" x2="405.035" y2="858.893"/>
<line fill="none" stroke="#0000FF" stroke-width="4.3568" stroke-miterlimit="10" x1="405.035" y1="750.881" x2="297.024" y2="858.893"/>
<line fill="none" stroke="#0000FF" stroke-width="4.3568" stroke-miterlimit="10" x1="351.029" y1="858.893" x2="459.04" y2="966.904"/>
<line fill="none" stroke="#0000FF" stroke-width="4.3568" stroke-miterlimit="10" x1="459.04" y1="858.893" x2="351.029" y2="966.904"/>
<line fill="none" stroke="#0000FF" stroke-width="4.3568" stroke-miterlimit="10" x1="351.029" y1="912.898" x2="243.019" y2="1020.91"/>
<line fill="none" stroke="#0000FF" stroke-width="4.3568" stroke-miterlimit="10" x1="243.019" y1="912.898" x2="351.03" y2="1020.91"/>
<line fill="none" stroke="#0000FF" stroke-width="4.3568" stroke-miterlimit="10" x1="459.04" y1="804.887" x2="567.051" y2="912.898"/>
<line fill="none" stroke="#0000FF" stroke-width="4.3568" stroke-miterlimit="10" x1="567.051" y1="804.887" x2="459.04" y2="912.898"/>
<line fill="none" stroke="#0000FF" stroke-width="4.3568" stroke-miterlimit="10" x1="567.051" y1="750.881" x2="675.062" y2="858.893"/>
<line fill="none" stroke="#0000FF" stroke-width="4.3568" stroke-miterlimit="10" x1="675.062" y1="750.881" x2="567.051" y2="858.893"/>
<line fill="none" stroke="#0000FF" stroke-width="4.3568" stroke-miterlimit="10" x1="621.056" y1="858.893" x2="729.066" y2="966.91"/>
<line fill="none" stroke="#0000FF" stroke-width="4.3568" stroke-miterlimit="10" x1="621.056" y1="966.904" x2="729.066" y2="858.893"/>
<line fill="none" stroke="#0000FF" stroke-width="4.3568" stroke-miterlimit="10" x1="621.056" y1="912.898" x2="513.045" y2="1020.91"/>
<line fill="none" stroke="#0000FF" stroke-width="4.3568" stroke-miterlimit="10" x1="513.045" y1="912.898" x2="621.056" y2="1020.91"/>
<line fill="none" stroke="#0000FF" stroke-width="4.3568" stroke-miterlimit="10" x1="729.066" y1="804.887" x2="837.078" y2="912.898"/>
<line fill="none" stroke="#0000FF" stroke-width="4.3568" stroke-miterlimit="10" x1="837.078" y1="804.887" x2="729.066" y2="912.898"/>
<line fill="none" stroke="#0000FF" stroke-width="4.3568" stroke-miterlimit="10" x1="837.078" y1="750.881" x2="945.088" y2="858.893"/>
<line fill="none" stroke="#0000FF" stroke-width="4.3568" stroke-miterlimit="10" x1="945.088" y1="750.881" x2="837.078" y2="858.893"/>
<line fill="none" stroke="#0000FF" stroke-width="4.3568" stroke-miterlimit="10" x1="891.083" y1="858.893" x2="999.094" y2="966.91"/>
<line fill="none" stroke="#0000FF" stroke-width="4.3568" stroke-miterlimit="10" x1="891.083" y1="966.904" x2="999.094" y2="858.893"/>
<line fill="none" stroke="#0000FF" stroke-width="4.3568" stroke-miterlimit="10" x1="891.083" y1="912.898" x2="783.072" y2="1020.91"/>
<line fill="none" stroke="#0000FF" stroke-width="4.3568" stroke-miterlimit="10" x1="783.072" y1="912.898" x2="891.083" y2="1020.91"/>
<line fill="none" stroke="#0000FF" stroke-width="4.3568" stroke-miterlimit="10" x1="999.094" y1="804.887" x2="1107.105" y2="912.898"/>
<line fill="none" stroke="#0000FF" stroke-width="4.3568" stroke-miterlimit="10" x1="1107.104" y1="804.887" x2="999.094" y2="912.898"/>
<line fill="none" stroke="#0000FF" stroke-width="4.3568" stroke-miterlimit="10" x1="1107.104" y1="750.881" x2="1215.12" y2="858.893"/>
<line fill="none" stroke="#0000FF" stroke-width="4.3568" stroke-miterlimit="10" x1="1215.115" y1="750.881" x2="1107.104" y2="858.893"/>
<line fill="none" stroke="#0000FF" stroke-width="4.3568" stroke-miterlimit="10" x1="1215.092" y1="912.896" x2="1161.109" y2="858.893"/>
<line fill="none" stroke="#0000FF" stroke-width="4.3568" stroke-miterlimit="10" x1="1215.092" y1="912.896" x2="1161.109" y2="966.907"/>
<line fill="none" stroke="#0000FF" stroke-width="4.3568" stroke-miterlimit="10" x1="1161.109" y1="912.898" x2="1053.1" y2="1020.91"/>
<line fill="none" stroke="#0000FF" stroke-width="4.3568" stroke-miterlimit="10" x1="1161.109" y1="1020.91" x2="1053.1" y2="912.898"/>
<line fill="none" stroke="#0000FF" stroke-width="4.3568" stroke-miterlimit="10" x1="189.013" y1="858.893" x2="81.002" y2="966.904"/>
<line fill="none" stroke="#0000FF" stroke-width="4.3568" stroke-miterlimit="10" x1="81.002" y1="858.893" x2="189.013" y2="966.91"/>
<line fill="none" stroke="#0000FF" stroke-width="4.3568" stroke-miterlimit="10" x1="80.999" y1="1074.916" x2="135.005" y2="1020.91"/>
<line fill="none" stroke="#0000FF" stroke-width="4.3568" stroke-miterlimit="10" x1="297.021" y1="1020.91" x2="351.035" y2="1075.503"/>
<line fill="none" stroke="#0000FF" stroke-width="4.3568" stroke-miterlimit="10" x1="405.032" y1="1020.91" x2="351.035" y2="1075.503"/>
<line fill="none" stroke="#0000FF" stroke-width="4.3568" stroke-miterlimit="10" x1="567.048" y1="1020.91" x2="621.062" y2="1075.503"/>
<line fill="none" stroke="#0000FF" stroke-width="4.3568" stroke-miterlimit="10" x1="621.062" y1="1075.503" x2="675.059" y2="1020.91"/>
<line fill="none" stroke="#0000FF" stroke-width="4.3568" stroke-miterlimit="10" x1="837.075" y1="1020.91" x2="891.089" y2="1075.503"/>
<line fill="none" stroke="#0000FF" stroke-width="4.3568" stroke-miterlimit="10" x1="945.085" y1="1020.91" x2="891.089" y2="1075.503"/>
<line fill="none" stroke="#0000FF" stroke-width="4.3568" stroke-miterlimit="10" x1="1107.102" y1="1020.91" x2="1161.12" y2="1075.503"/>
<line fill="none" stroke="#0000FF" stroke-width="4.3568" stroke-miterlimit="10" x1="1215.112" y1="1020.91" x2="1161.117" y2="1075.503"/>
</svg>
