<?xml version="1.0" encoding="utf-8"?>
<!-- Generator: Adobe Illustrator 16.0.3, SVG Export Plug-In . SVG Version: 6.00 Build 0)  -->
<!DOCTYPE svg PUBLIC "-//W3C//DTD SVG 1.1//EN" "http://www.w3.org/Graphics/SVG/1.1/DTD/svg11.dtd">
<svg version="1.1" id="Layer_1" xmlns="http://www.w3.org/2000/svg" xmlns:xlink="http://www.w3.org/1999/xlink" x="0px" y="0px"
	 width="2048px" height="2056.48px" viewBox="0 0 2048 2056.48" enable-background="new 0 0 2048 2056.48" xml:space="preserve">
<path fill="none" stroke="#FF0000" stroke-width="0.7" stroke-linecap="round" stroke-linejoin="round" stroke-miterlimit="3.239" d="
	M662.785,1341.52l223.161-293.392 M885.946,1048.128l35.108-113.017 M552.535,943.562l368.52-8.45 M921.055,935.112l110.25-43.017
	 M794.929,609.245l236.375,282.851 M1031.305,892.096l102.371,59.379 M1207.439,590.312l-73.765,361.162 M1133.676,951.475
	l17.404,117.058 M1479.438,901.021l-328.356,167.511 M1151.08,1068.532l-80.669,86.591 M1406.104,1307.402l-335.691-152.279
	 M1070.411,1155.123l-117.995-9.08 M1042.659,1503.443l-90.243-357.4 M952.416,1146.042l-66.47-97.914 M697.895,1228.501
	L552.535,943.562 M552.535,943.562l-80.023-74.549 M976.189,1405.527l-313.404-64.008 M662.785,1341.52l-108.178,16.082
	 M671.176,1586.105l-116.568-228.504 M554.607,1357.602l-64.174-59.782 M425.994,1514.63l64.439-216.812 M486.027,1224.646
	l4.406,73.172 M339.383,1286.837l191.737-119.985 M339.383,1286.837l-45.094,57.795 M366.541,1102.621l251.331,51.332
	 M279.789,1115.52l86.752-12.898 M794.929,609.245L662.785,900.548 M794.929,609.245L803.32,500.2 M366.541,1102.621
	l105.971-233.606 M479.242,781.566l-6.73,87.447 M269.554,866.366l209.688-84.8 M479.242,781.566l54.46-49.067 M393.648,656.623
	l213.354,75.097 M393.648,656.623l-73.302,0.779 M554.607,563l116.568,228.503 M554.607,563l-64.174-59.783 M1207.439,590.312
	l-310.142,78.31 M1207.439,590.312l90.485-61.428 M554.607,563l248.713-62.8 M803.32,500.2l72.564-49.261 M875.885,450.939
	L678.848,339.87 M875.885,450.939l72.319,11.985 M994.516,519.748l-74.312-213.629 M873.893,249.295l46.312,56.824
	 M1093.757,373.588L987.786,607.195 M1093.757,373.588l6.729-87.447 M1479.438,901.021L1224.844,707.37 M1479.438,901.021
	l104.443,32.446 M1093.757,373.588l204.169,155.297 M1381.684,554.904l-83.758-26.02 M1345.671,331.604l36.013,223.3
	 M1381.684,554.904l35.721,64.014 M1522.541,499.26l-120.689,191.295 M1538.092,427.623l-15.551,71.637 M1578,677.016
	l-248.713,62.801 M1650.564,627.755L1578,677.016 M1406.104,1307.402l-7.334-319.789 M1406.104,1307.402l39.752,101.889
	 M1578,677.016l5.881,256.452 M1583.881,933.468l31.879,81.706 M1767.891,847.793l-152.131,167.381 M1615.76,1015.174l-27.775,67.84
	 M1747.088,1090.607l-224.809,24.912 M1812.792,1058.102l-65.704,32.506 M1642.691,1244.796l-204.17-155.297 M1642.691,1244.796
	l83.757,26.021 M1288.107,1298.323l-245.448,205.12 M1042.659,1503.443l-54.873,94.604 M1642.691,1244.796l-196.836,164.494
	 M1401.852,1485.157l44.004-75.866 M1627.566,1499.736l-225.717-14.579 M1401.852,1485.157l-70.356,20.579 M1424.757,1634.865
	l-159.643-160.23 M1424.757,1634.865l66.38,31.103 M1233.234,1392.928l5.882,256.451 M1239.116,1649.379l31.879,81.707
	 M671.176,1586.105l196.835-164.494 M627.172,1661.973l44.004-75.867 M1239.116,1649.379l-251.33-51.332 M987.786,1598.047
	l-86.752,12.896 M1030.366,1796.506l-129.332-185.562 M841.077,1568.77l59.957,42.176 M824.007,1497.479l-25.737,224.717
	 M798.27,1722.195l17.069,71.289 M425.994,1514.63l181.009,11.691 M359.929,1533.954l66.065-19.323 M798.27,1722.195
	l-171.098-60.224 M627.172,1661.973l-68.83,0.73 M623.033,1789.514l-64.691-126.811 M522.729,1629.527l35.613,33.177
	 M496.402,1758.424l26.326-128.896 M522.729,1629.527l-6.211-41.777 M431.703,1636.934l109.234-91.287 M431.703,1636.934
	l-24.421,42.103 M294.289,1344.632l127.297,96.826 M294.289,1344.632l-60.253-18.719 M431.703,1636.934l-71.774-102.979
	 M359.929,1533.954l-38.961-27.405 M320.968,1506.548l-9.233,102.804 M320.968,1506.548l-8.784-33.09 M324.546,1443.268
	l-67.704,74.49 M256.842,1517.758l-12.362,30.19 M246.812,1441.208l114.521-18.469 M210.025,1461.736l36.787-20.527
	 M279.789,1115.52l59.594,171.317 M279.789,1115.52l-43.486-53.357 M246.812,1441.208l-12.776-115.295 M234.036,1325.914
	l-18.681-37.76 M161.643,1373.289l53.712-85.135 M215.355,1288.155l6.921-31.882 M151.657,1270.332l96.607-36.346 M125.669,1292.62
	l25.988-22.288 M177.493,1191.804l118.403,41.675 M177.493,1191.804l-47.632,0.507 M269.554,866.366l103.716,148.808
	 M269.554,866.366l-56.3-39.604 M177.493,1191.804l58.81-129.643 M236.303,1062.162l3.734-48.528 M122.847,1073.416l117.19-59.782
	 M240.037,1013.633l28.79-30.904 M316.971,975.571l-139.478-28.487 M177.493,947.084l-48.144,7.158 M320.347,657.402l3.667,159.895
	 M320.347,657.402l-22.932-58.778 M177.493,947.084l35.761-120.322 M213.254,826.762l-2.864-47.548 M124.257,836.092l86.133-56.878
	 M210.39,779.214l20.394-27.499 M161.643,736.068l100.453,6.487 M161.643,736.068l-31.311,9.158 M215.239,680.498l85.843,78.021
	 M176.253,664.535l38.986,15.963 M490.434,503.217l-96.785,153.406 M490.434,503.217l14.604-67.268 M215.239,680.498l82.176-81.874
	 M297.415,598.624l17.873-38.147 M315.288,560.477l-100.049,11.088 M315.288,560.477l29.241-14.467 M289.508,499.562l88.65,52.869
	 M289.508,499.562l-33.629-6.422 M367.012,470.801l41.239,118.555 M367.012,470.801l-30.094-36.924 M678.848,339.87l-51.676,173.869
	 M674.71,271.161l4.138,68.709 M367.012,470.801l138.025-34.852 M505.037,435.95l40.27-27.338 M545.307,408.612L425.5,354.264
	 M587.419,411.854l-42.112-3.241 M558.342,318.22l64.691,126.811 M558.342,318.22l-35.613-33.177 M873.893,249.295l-122.726,102.56
	 M873.893,249.295l31.655-54.577 M558.342,318.22l116.368-47.059 M674.71,271.161l35.39-31.885 M611.927,207.397l98.173,31.879
	 M744.314,238.075l-34.215,1.201 M713.439,174.263l57.558,82.582 M713.439,174.263l-26.685-18.771 M790.301,181.518l-7.478,115.76
	 M790.301,181.518l-11.826-40.433 M1100.487,286.141l-180.283,19.978 M1162.184,255.618l-61.695,30.523 M790.301,181.518
	l115.247,13.2 M946.518,184.908l-40.97,9.811 M875.469,113.598l71.049,71.311 M976.059,198.75l-29.541-13.842 M978.068,126.773
	l13.937,102.272 M962.121,96.477l15.947,30.296 M1048.877,169.435L981.9,275.595 M1048.877,169.435l10.105-46.55 M1345.671,331.604
	l-168.157,68.003 M1345.671,331.604l51.138-46.075 M1048.877,169.435l113.307,86.183 M1162.184,255.618l46.48,14.44
	 M1176.457,142.503l32.207,127.555 M1232.387,305.003l-23.723-34.945 M1287.462,223.89l-58.81,129.643 M1291.197,175.361
	l-3.735,48.528 M1538.092,427.623l-156.701-32.005 M1538.092,427.623l62.408-9.278 M1287.462,223.89l109.347,61.64
	 M1443.802,293.317l-46.993-7.788 M1443.802,293.317l-36.284-96.63 M1443.802,293.317l22.272,26.002 M1496.714,255.394
	l-28.678,96.49 M1496.714,255.394l-1.962-32.565 M1538.964,320.011l-95.166,66.329 M1538.964,320.011l24.238-34.456
	 M1522.541,499.26l128.023,128.495 M1650.564,627.755l62.33,29.205 M1538.964,320.011l61.536,98.334 M1600.5,418.345l33.213,25.914
	 M1645.168,344.251l-11.455,100.008 M1633.713,444.259l7.598,31.728 M1698.837,432.679l-71.271,74.663 M1712.581,401.323
	l-13.744,31.355 M1709.631,514.641l-124.759,13.824 M1709.631,514.641l42.695-21.123 M1767.891,847.793l-158.012-89.07
	 M1767.891,847.793l67.906,11.255 M1709.631,514.641l3.264,142.319 M1712.895,656.96l17.692,45.344 M1810.232,597.594
	l-79.646,104.71 M1730.587,702.304l-12.53,40.335 M1815.812,735.126l-138.026,34.851 M1815.812,735.126l40.27-27.338
	 M1740.112,915.632l72.68,142.47 M1812.792,1058.102l46.165,43.008 M1815.812,735.126l19.983,123.922 M1835.797,859.048
	l23.211,41.597 M1911.934,812.028l-52.926,88.616 M1859.008,900.645l-6.443,33.625 M1921.648,918.367l-93.32,37.738
	 M1921.648,918.367l24.235-21.837 M1897.471,991.688l-111.193-33.049 M1897.471,991.688l42.051-2.532 M1726.448,1270.816
	l20.64-180.209 M1726.448,1270.816l16.028,66.94 M1897.471,991.688l-38.514,109.422 M1858.957,1101.109l0.448,42.123
	 M1944.736,1089.835l-85.332,53.397 M1859.405,1143.232l-20.069,25.722 M1806.252,1177.76l102.811,9.169 M1942.146,1178.125
	l-33.084,8.805 M1851.712,1246.47l-88.595-88.921 M1851.712,1246.47l43.136,20.212 M1627.566,1499.736l-28.881-179.072
	 M1627.566,1499.736l33.541,60.108 M1742.477,1337.757l109.235-91.287 M1742.477,1337.757l-24.42,42.103 M1849.58,1376.844
	l-131.524,3.016 M1718.057,1379.859l-39.348,15.354 M1745.532,1466.957l-113.306-86.184 M1745.532,1466.957l46.48,14.439
	 M1491.137,1665.967l66.072-145.65 M1491.137,1665.967l-4.841,62.907 M1745.532,1466.957l-84.425,92.889 M1661.107,1559.845
	l-18.051,44.082 M1745.338,1590.054l-102.281,13.873 M1612.751,1619.855l30.306-15.929 M1668.256,1663.951l-87.689-49.43
	 M1700.441,1669.285l-32.187-5.334 M1595.857,1690.763l-43.489-107.54 M1624.057,1722.061l-28.199-31.297 M1270.995,1731.086
	l153.762-96.222 M1270.995,1731.086l-42.343,54.27 M1595.857,1690.763l-109.562,38.111 M1486.296,1728.875l-32.655,26.614
	 M1548.592,1788.91l-94.951-33.421 M1453.641,1755.489l-32.623,0.348 M1393.507,1735.458l56.931,86.099 M1450.438,1821.557
	l27.514,20.376 M1368.13,1813.843l14.284-124.708 M1368.13,1813.843l11.093,46.324 M1030.366,1796.506l121.999-134.229
	 M1030.366,1796.506l-26.083,63.7 M1368.13,1813.843l-139.478-28.487 M1228.652,1785.355l-48.145,7.157 M1264.871,1893.462
	l-84.362-100.948 M1180.509,1792.513l-36.536-21.19 M1129.546,1868.298l-3.264-142.319 M1147.237,1913.642l-17.691-45.344
	 M815.339,1793.484l155.071-39.154 M815.339,1793.484l-52.201,35.438 M1004.283,1860.207l125.263,8.092 M1004.283,1860.207
	l-45.719,13.373 M1033.184,1944.896l-74.619-71.316 M958.564,1873.58l-31.348-13.764 M927.347,1930.705l-16.026-99.377
	 M927.347,1930.705l15.897,28.489 M918.208,1789.768l-56.963,101.052 M861.245,1890.819l-6.888,41.561 M623.033,1789.514
	l106.406-66.587 M623.033,1789.514l-29.303,37.556 M763.138,1828.922l98.107,61.896 M763.138,1828.922l-41.168-8.938
	 M755.042,1915.059l-33.072-95.073 M721.97,1819.985l-20.61-25.288 M668.32,1858.674l31.816-98.191 M668.32,1858.674l1.222,34.214
	 M496.402,1758.424l91.017-2.088 M496.402,1758.424l-35.451,13.831 M668.32,1858.674l-74.59-31.604 M593.73,1827.069l-32.805-1.698
	 M589.716,1881.807l-28.79-56.437 M560.926,1825.371l-15.849-14.766 M531.964,1850.658l9.504-58.906 M503.917,1816.661
	l48.051-46.493 M407.282,1679.036l82.909,37.61 M407.282,1679.036l-37.942-2.92 M460.951,1772.255l42.966,44.405 M460.951,1772.255
	l-21.393-10.407 M445.245,1813.159l-5.687-51.312 M439.559,1761.848l-7.521-15.205 M409.46,1774.88l25.351-44.974 M395.312,1737.729
	l56.937-24.002 M392.742,1609.525l-81.008-0.174 M311.734,1609.352l-30.893,11.168 M395.312,1737.729l-25.973-61.612
	 M369.34,1676.116l-16.325-17.595 M338.658,1716.438l14.356-57.916 M353.015,1658.521l-2.032-19.09 M313.236,1661.321l48.614-40.626
	 M244.48,1547.949l58.469,28.312 M244.48,1547.949l-27.908-2.854 M313.236,1661.321l-32.395-40.802 M280.842,1620.52l-18.002-11.054
	 M262.751,1651.012l0.089-41.546 M262.84,1609.466l-4.765-13.181 M238.267,1616.305l23.298-32.464 M231.29,1587.408l43.751-13.999
	 M256.842,1517.758l-46.817-56.021 M210.025,1461.736l-26.398-15.312 M231.29,1587.408l-14.718-42.312 M216.572,1545.096
	l-10.741-13.179 M194.211,1568.291l11.62-36.373 M205.831,1531.917l-0.495-12.426 M181.25,1532l31.181-23.373 M230.444,1502.447
	l-47.842-0.889 M228.131,1403.45l-66.488-30.161 M161.643,1373.289l-30.426-2.341 M182.602,1501.559l1.025-55.134 M177.348,1428.122
	l6.279,18.304 M146.761,1468.335l30.587-40.214 M177.348,1428.122l4.812-15.489 M144.847,1416.816l52.858-15.707 M125.669,1292.62
	l42.896,48.788 M125.669,1292.62l-24.612-13.463 M144.847,1416.816l-13.63-45.868 M131.217,1370.948l-11.341-15.3 M105.675,1391.939
	l14.201-36.291 M119.876,1355.648l0.31-12.973 M95.685,1353.626l31.95-20.908 M99.247,1325.059l44.705,2.887 M151.657,1270.332
	l-21.796-78.021 M129.861,1192.311l-19.125-26.707 M101.057,1279.157l-1.81,45.901 M101.057,1279.157l-5.193-16.231
	 M70.798,1294.045l25.066-31.12 M95.864,1262.925l4.176-12.231 M71.421,1253.711l40.014-11.179 M84.563,1223.3l47.968,20.324
	 M122.847,1073.416l58.38,69.859 M89.93,1054.323l32.917,19.093 M84.563,1223.3l26.173-57.696 M110.736,1165.604l1.662-21.598
	 M72.908,1158.727l51.981-29.297 M82.001,1115.602l66.309,8.58 M129.349,954.242l22.289,88.271 M129.349,954.242l-21.373-31.484
	 M82.001,1115.602l7.929-61.278 M84.729,1031.109l5.201,23.214 M84.729,1031.109l-36.571,36.438 M84.729,1031.109l7.198-15.361
	 M106.74,1007.482l-50.966,8.22 M130.264,1011.028l-54.265-29.552 M124.257,836.092l50.372,63.442 M124.257,836.092l-27.992-17.189
	 M75.999,981.477l31.977-58.72 M107.976,922.757l3.577-23.733 M57.321,923.909l54.231-24.886 M111.553,899.023l13.657-13.491
	 M84.563,869.669l62.073,12.678 M130.332,745.227l14.319,63.366 M130.332,745.227l-15.17-23.599 M84.563,869.669l11.702-50.766
	 M96.265,818.903l-2.582-20.968 M61.146,823.77l32.537-25.834 M93.683,797.936l7.334-11.942 M73.015,782.989l39.908-2.027
	 M129.481,784.994l-38.223-25.479 M176.253,664.535l-14.61,71.533 M176.253,664.535l-4.488-30.186 M91.258,759.516l23.904-37.888
	 M115.162,721.628l3.607-16.612 M83.086,718.607l35.683-13.592 M118.769,705.016l9.406-8.136 M141.094,695.653l-37.716-9.806
	 M128.022,667.924l29.134,37.959 M215.239,571.564l17.874,70.787 M215.239,571.564l-17.14-25.25 M128.022,667.924l43.743-33.574
	 M171.765,634.35l10.395-16.319 M131.65,619.188l50.51-1.157 M182.16,618.03l15.112-5.896 M170.736,585.57l45.236,31.533
	 M255.879,493.141l-11.399,63.956 M255.879,493.141l-4.82-27.636 M170.736,585.57l27.363-39.256 M202.988,527.91l-4.889,18.404
	 M165.762,539.434l37.227-11.523 M202.988,527.91l10.337-7.846 M189.487,507.737l36.268,11.941 M214.044,492.708l25.616,36.753
	 M336.918,433.877l-47.41,65.686 M336.918,433.877l8.955-31.604 M214.044,492.708l37.015-27.203 M251.059,465.505l9.453-14.181
	 M220.553,451.13l39.959,0.194 M260.512,451.324l12.167-4.361 M252.476,426.469l33.687,24.314 M284.446,417.783l14.017,50.176
	 M425.5,354.264l-18.218,89.199 M419.904,316.624l5.596,37.64 M284.446,417.783l61.427-15.51 M345.873,402.273l17.922-12.167
	 M327.665,368.41l55.315,22.373 M367.05,348.631l34.636,57.192 M522.729,285.043l-55.116,72.462 M522.729,285.043l11.289-36.341
	 M367.05,348.631l52.854-32.007 M419.904,316.624l14.906-18.54 M383.521,292.21l51.289,5.874 M434.811,298.084l16.497-3.95
	 M467.007,300.562l-38.204-34.723 M468.172,260.313l10.73,60.851 M611.927,207.397l-18.196,78.938 M611.927,207.397l-4.015-32.603
	 M468.172,260.313l65.846-11.611 M534.018,248.702l20.786-12 M554.804,236.702l-53.269-26.885 M573.867,238.968l-19.063-2.266
	 M589.716,253.733l-28.79-56.436 M686.755,155.492l-40.612,50.704 M695.747,128.919l-8.992,26.573 M607.912,174.794l-46.986,22.503
	 M607.912,174.794l14.783-15.09 M582.211,150.372l40.484,9.332 M622.695,159.704l13.91-1.713 M621.496,134.225l26.466,29.938
	 M651.221,133.853l3.913,45.769 M778.475,141.085l-65.035,33.178 M778.475,141.085l20.801-22.328 M651.221,133.853l44.526-4.934
	 M695.747,128.919l15.237-7.539 M678.109,101.958l32.875,19.422 M710.984,121.38l12.226,2.282 M716.375,97.397l15.85,35.601
	 M745.753,105.489l-11.513,46.445 M875.469,113.598l-44.199,58.11 M875.469,113.598l9.055-29.143 M745.753,105.489l53.522,13.268
	 M799.275,118.757l19.24-2.049 M786.118,77.939l32.397,38.769 M818.516,116.708l14.032,8.138 M836.771,87.537l3.552,55.028
	 M905.011,127.44l57.11-30.963 M962.121,96.477l18.602-21 M836.771,87.537l47.752-3.082 M884.523,84.455l17.438-7.652
	 M869.741,54.884l32.22,21.919 M914.54,79.993l-12.579-3.19 M922.591,89.471l-13.276-35.802 M936.376,63.498l-12.763,42.943
	 M1058.982,122.885l-80.916,3.888 M1058.982,122.885l30.293-12.704 M936.376,63.498l44.347,11.979 M980.723,75.477l16.98-1.451
	 M972.941,42.664l24.762,31.362 M997.703,74.026l10.996,6.794 M1012.126,52.246l1.994,41.498 M1038.85,71.826l-30.49,42.243
	 M1176.457,142.503l-81.098,41.371 M1176.457,142.503l25.939-27.844 M1038.85,71.826l50.428,38.354 M1089.275,110.181l20.687,6.427
	 M1104.398,74.833l16.996,57.197 M1144.418,93.294l-23.12,62.737 M1291.197,175.361l-91.018,2.087 M1291.197,175.361l35.451-13.832
	 M1144.418,93.294l57.979,21.365 M1202.396,114.659l23.789,0.096 M1198.799,70.992l27.387,43.763 M1226.186,114.755l13.375,10.435
	 M1247.65,89.954l-3.328,51.518 M1276.516,117.288l-40.885,46.329 M1407.518,196.687l-73.062,34.991 M1407.518,196.687
	l22.986-23.466 M1326.648,161.529l-50.134-44.241 M1348.99,170.298l-22.342-8.769 M1336.796,111.888l12.194,58.41 M1348.99,170.298
	l10.113,16.317 M1383.615,150.516l-26.174,57.697 M1494.752,222.829l-64.963-0.14 M1494.752,222.829l26.383-9.538 M1430.504,173.221
	l-46.889-22.705 M1430.504,173.221l21.016,2.149 M1433.574,137.9l17.945,37.47 M1451.52,175.37l10.013,9.808 M1470.691,158.547
	l-6.904,39.358 M1489.516,181.555l-33.345,31.596 M1496.714,255.394l66.488,30.161 M1563.202,285.555l30.427,2.341
	 M1489.516,181.555l31.619,31.736 M1521.135,213.291l15.396,7.213 M1531.217,182.691l5.312,37.813 M1536.529,220.504l5.838,10.98
	 M1558.641,209.764l-17.951,34.588 M1570.631,237.779l-43.49,19.956 M1645.168,344.251l-72.99,1.674 M1645.168,344.251
	l28.429-11.092 M1570.631,237.779l22.998,50.117 M1593.629,287.896l13.598,13.766 M1617.338,252.16l-10.111,49.502
	 M1607.227,301.662l2.388,16.044 M1641.415,297.747l-40.808,37.086 M1712.581,401.323l-59.815-25.345 M1712.581,401.323l28.017,1.45
	 M1641.415,297.747l32.183,35.412 M1673.598,333.159l16.855,8.862 M1690.453,342.021l-2.952-38.857 M1690.453,342.021l5.349,11.823
	 M1713.125,333.348l-19.714,32.7 M1680.781,377.428l41.531-16.795 M1752.326,493.518l-53.489-60.839 M1752.326,493.518
	l28.818,15.764 M1740.598,402.773l-18.285-42.141 M1740.598,402.773l11.722,12.371 M1761.4,376.231l-9.082,38.914 M1752.318,415.145
	l1.545,12.832 M1778.339,412.841l-31.202,27.433 M1779.693,445.941l-52.037,2.502 M1727.323,559.984l82.909,37.609
	 M1810.232,597.594l37.94,2.92 M1779.693,445.941l1.451,63.34 M1781.145,509.281l7.875,20.18 M1818.211,499.064l-34.121,48.949
	 M1828.73,541.863l-63.467,21.041 M1797.702,637.929l58.38,69.859 M1856.082,707.788l32.917,19.093 M1828.73,541.863l19.442,58.65
	 M1848.174,600.514l14.757,18.658 M1880.072,570.477l-17.143,48.695 M1862.932,619.172l0.182,16.963 M1895.705,620.491
	l-42.354,29.52 M1892.332,660.102l-61.713-3.08 M1911.934,812.028l-72.91-35.306 M1911.934,812.028l32.678,3.341 M1892.332,660.102
	l-3.333,66.779 M1888.999,726.881l7.075,22.936 M1896.074,749.816l38.062-45.951 M1896.074,749.816l-6.451,18.08 M1933.128,764.553
	l-61.427,15.51 M1945.885,896.53l-40.395-50.878 M1969.791,911.21l-23.906-14.68 M1933.128,764.553l11.483,50.816 M1944.611,815.369
	l11.423,17.77 M1974.141,795.746l-18.105,37.393 M1956.034,833.139l-1.425,13.942 M1981.141,837.639l-35.076,19.142
	 M1974.889,866.702l-45.492-6.37 M1939.521,989.155l-17.873-70.788 M1939.521,989.155l17.141,25.248 M1974.889,866.702
	l-5.098,44.508 M1969.791,911.21l3.959,16.533 M2000.001,900.014l-26.251,27.729 M1973.75,927.743l-4.945,11.409 M1995.934,938.334
	l-38.234,7.53 M1981.506,965.175l-42.718-21.56 M1944.736,1089.835l-46.818-56.022 M1971.133,1105.146l-26.396-15.312
	 M1981.506,965.175l-24.844,49.229 M1956.662,1014.403l-2.284,19.215 M1999.383,1010.658l-45.005,22.96 M1954.378,1033.618
	l-11.057,11.868 M1924.316,1049.125l54.438,8.781 M1942.146,1178.125l-17.479-62.568 M1942.146,1178.125l16.334,22.809
	 M1978.755,1057.906l-7.622,47.24 M1971.133,1105.146l3.58,18.703 M2003.253,1097.314l-28.54,26.535 M1968.805,1135.404
	l5.908-11.555 M1957.773,1141.145l37.856-4.978 M1980.027,1160.363l-39.026-21.999 M1894.848,1266.682l14.215-79.752
	 M1894.848,1266.682l5.645,32.358 M1980.027,1160.363l-21.547,40.568 M1958.48,1200.932l-2.364,16.879 M1992.202,1200.648
	l-36.086,17.162 M1956.116,1217.811l-9.07,9.209 M1974.141,1236.717l-40.9-7.29 M1949.105,1258.414l-34.399-39.125
	 M1849.58,1376.844l-22.288-88.271 M1849.58,1376.844l21.373,31.484 M1949.105,1258.414l-48.614,40.627 M1889.623,1317.777
	l10.868-18.736 M1931.588,1321.65l-59.545,3.843 M1904.686,1356.559l-56.021-36.5 M1792.014,1481.396l18.219-89.2
	 M1792.014,1481.396l5.598,37.64 M1904.686,1356.559l-33.731,51.771 M1870.953,1408.329l-5.387,23.171 M1914.326,1414.539
	l-48.76,16.961 M1865.566,1431.5l-13.149,10.718 M1884.97,1457.945l-49.485-14.709 M1851.898,1480.005l-36.07-50.169
	 M1745.338,1590.054l-17.855-79.017 M1745.338,1590.054l17.764,27.632 M1851.898,1480.005l-54.289,39.03 M1797.609,1519.036
	l-13.521,19.831 M1843.748,1539.977l-59.658-1.109 M1784.09,1538.867l-18.159,6.229 M1745.245,1538.67l50.425,38.354
	 M1700.441,1669.285l14.592-63.305 M1700.441,1669.285l3.428,27.845 M1795.67,1577.025l-32.568,40.66 M1763.102,1617.686
	l-6.771,20.011 M1796.854,1628.539l-40.522,9.156 M1756.33,1637.696l-11.79,7.579 M1768.465,1660.131l-36.835-15.488
	 M1718.461,1633.825l23.385,39.539 M1624.057,1722.061l44.199-58.109 M1624.057,1722.061l-9.054,29.144 M1741.845,1673.364
	l-37.976,23.766 M1703.869,1697.129l-10.458,13.402 M1731.457,1713.768l-38.046-3.235 M1693.411,1710.532l-12.004,3.248
	 M1669.234,1709.281l29.727,25.197 M1668.98,1739.936l-9.778-46.842 M1563.202,1717.378l-14.61,71.531 M1548.592,1788.91
	l4.488,30.186 M1668.98,1739.936l-53.979,11.269 M1615.003,1751.204l-16.446,10.194 M1598.557,1761.398l46.012,20.871
	 M1598.557,1761.398l-16.174-1.246 M1567.689,1747.562l27.074,48.037 M1477.95,1841.933l38.02-52.676 M1477.95,1841.933
	l-7.648,26.991 M1594.766,1795.6l-41.686,23.495 M1553.08,1819.095l-12.391,14.461 M1579.229,1839.325l-38.539-5.77
	 M1540.689,1833.556l-12.719,2.584 M1544.1,1857.59l-27.494-26.496 M1515.455,1860.475l-7.133-44.228 M1379.223,1860.167
	l71.215-38.61 M1379.223,1860.167l-21.779,24.589 M1515.455,1860.475l-45.153,8.449 M1470.302,1868.924l-14.669,8.675
	 M1491.55,1895.112l-35.917-17.513 M1455.633,1877.599l-12.854-1.35 M1452.089,1903.48l-19.802-36.523 M1419.516,1897.434
	l9.143-51.289 M1264.871,1893.462l55.115-72.463 M1253.581,1929.803l11.29-36.341 M1419.516,1897.434l-62.072-12.678
	 M1357.441,1884.756l-21.426,3.187 M1359.155,1923.166l-40.13-44.158 M1315.088,1923.896l-6.391-66.556 M1147.237,1913.642
	l81.098-41.372 M1147.237,1913.642l-25.939,27.844 M1315.088,1923.896l-61.507,5.906 M1253.581,1929.803l-21.474,10.234
	 M1275.768,1967.585l-43.66-27.548 M1215.529,1936.439l16.578,3.599 M1204.174,1923.837l19.354,47.858 M1185.661,1959.594
	l16.735-59.479 M1033.184,1944.896l50.645-63.226 M1033.184,1944.896l-10.528,31.115 M1185.661,1959.594l-64.363-18.108
	 M1121.298,1941.485l-23.934,1.794 M1133.693,1990.613l-36.329-47.334 M1097.364,1943.279l-16.192-10.312 M1074.751,1976.125
	l-1.453-63.339 M943.244,1959.194l58.591-28.061 M943.244,1959.194l-19.631,20.041 M1074.751,1976.125l-52.097-0.112
	 M1022.654,1976.012l-19.867,7.184 M1002.787,1983.195l32.427,25.973 M1002.787,1983.195l-13.275-4.493 M992.812,2006.67
	l-10.854-38.456 M982.204,1951.174l-16.334,42.934 M854.357,1932.379l72.989-1.675 M854.357,1932.379l-28.43,11.092
	 M965.87,1994.108l-42.257-14.873 M923.613,1979.235l-17,0.181 M927.805,2011.178l-21.191-31.763 M896.589,1972.055l10.024,7.36
	 M891.352,1998.686l1.166-38.952 M898.918,1941.797l-30.525,36.852 M755.042,1915.059l65.035-33.177 M755.042,1915.059
	l-20.802,22.329 M868.393,1978.648l-42.465-35.178 M807.703,1936.969l18.225,6.502 M820.073,1985.955l-12.37-48.985
	 M807.703,1936.969l-9.11-13.421 M799.275,1904.211L778.6,1955.33 M669.542,1892.888l64.889-3.116 M669.542,1892.888l-25.871,10.851
	 M734.24,1937.388l44.359,17.941 M734.24,1937.388l-19.031-0.672 M734.727,1970.445l-19.518-33.729 M715.209,1936.716l-9.95-8.331
	 M698.545,1954.368l3.573-38.017 M678.429,1933.771l30.132-33.151 M589.716,1881.807l45.8-24.831 M678.429,1933.771l-34.758-30.033
	 M643.671,1903.738l-15.928-6.062 M636.445,1936.677l-8.702-39 M627.743,1897.677l-6.96-10.892 M621.508,1872.789l-16.209,38.254"/>
<path fill="none" stroke="#0000FF" stroke-width="0.7" stroke-linecap="round" stroke-linejoin="round" stroke-miterlimit="3.239" stroke-dasharray="3,3" d="
	M921.055,935.112l-223.16,293.39 M697.895,1228.501l-35.109,113.019 M1031.305,892.096l-368.52,8.452 M552.535,943.562
	l110.25-43.015 M1133.676,951.475L897.299,668.622 M897.299,668.622l-102.37-59.377 M1151.08,1068.532l73.764-361.162
	 M1207.439,590.312l17.403,117.058 M1070.411,1155.123l328.358-167.51 M1479.438,901.021l-80.668,86.592 M1288.107,1298.323
	l-335.691-152.28 M1406.104,1307.402l-117.994-9.079 M976.189,1405.527l-90.243-357.398 M1042.659,1503.443l-66.47-97.916
	 M697.895,1228.501l-80.022-74.549 M472.512,869.014l145.36,284.938 M554.607,1357.602l313.403,64.011 M976.189,1405.527
	l-108.179,16.084 M490.434,1297.818l116.569,228.504 M671.176,1586.105l-64.173-59.783 M421.586,1441.458l64.441-216.812
	 M425.994,1514.63l-4.408-73.172 M531.12,1166.852l-45.093,57.795 M486.027,1224.646l-191.738,119.985 M617.872,1153.953
	l-86.752,12.898 M531.12,1166.852l-251.331-51.332 M662.785,900.548l8.391-109.045 M803.32,500.2L671.176,791.503 M479.242,781.566
	L373.27,1015.174 M366.541,1102.621l6.729-87.447 M533.702,732.499l-209.688,84.798 M269.554,866.366l54.46-49.069 M607.003,731.72
	l-73.301,0.779 M533.702,732.499l-213.355-75.097 M671.176,791.503l-64.173-59.783 M607.003,731.72L490.434,503.217
	 M897.299,668.622l90.487-61.427 M987.786,607.195l310.14-78.311 M875.885,450.939l-248.713,62.8 M554.607,563l72.564-49.261
	 M751.167,351.855l197.037,111.07 M751.167,351.855l-72.319-11.985 M994.516,519.748l-46.312-56.823 M948.204,462.925
	l-74.312-213.63 M987.786,607.195l6.729-87.447 M994.516,519.748l105.972-233.607 M1224.844,707.37l104.443,32.446
	 M1583.881,933.468l-254.594-193.651 M1381.684,554.904l-204.17-155.297 M1093.757,373.588l83.757,26.02 M1417.402,618.918
	l-36.014-223.3 M1345.671,331.604l35.72,64.014 M1401.852,690.555l15.553-71.637 M1417.402,618.918l120.688-191.295
	 M1329.287,739.816l72.562-49.262 M1401.852,690.555l248.713-62.8 M1398.77,987.613l39.752,101.887 M1438.521,1089.5l7.334,319.791
	 M1615.76,1015.174l-5.881-256.451 M1578,677.016l31.879,81.707 M1587.982,1083.013l152.13-167.381 M1767.891,847.793
	l-27.777,67.839 M1522.279,1115.52l65.703-32.506 M1587.982,1083.013l224.81-24.911 M1438.521,1089.5l83.758,26.02
	 M1726.448,1270.816l-204.169-155.297 M1288.107,1298.323l-54.873,94.604 M1233.234,1392.928l-245.448,205.119 M1401.852,1485.157
	l196.834-164.493 M1598.686,1320.664l44.006-75.867 M1331.494,1505.736l225.715,14.58 M1627.566,1499.736l-70.357,20.58
	 M1265.114,1474.634l66.38,31.103 M1331.494,1505.736l159.643,160.23 M1233.234,1392.928l31.88,81.706 M1265.114,1474.634
	l5.881,256.452 M868.011,1421.612l-44.004,75.866 M824.007,1497.479l-196.835,164.494 M901.034,1610.945l251.331,51.332
	 M1239.116,1649.379l-86.751,12.896 M841.077,1568.77L970.41,1754.33 M1030.366,1796.506l-59.956-42.177 M841.077,1568.77
	l-17.07-71.291 M815.339,1793.484l25.738-224.715 M607.003,1526.322l-66.065,19.324 M540.938,1545.646l-181.009-11.692
	 M558.342,1662.704l171.098,60.224 M798.27,1722.195l-68.83,0.731 M522.729,1629.527l64.69,126.81 M623.033,1789.514l-35.614-33.178
	 M516.518,1587.75l-26.326,128.896 M496.402,1758.424l-6.211-41.777 M540.938,1545.646l-24.421,42.104 M516.518,1587.75
	l-109.235,91.286 M421.586,1441.458l-60.253-18.719 M361.333,1422.74l-127.297-96.826 M392.742,1609.525l-71.774-102.978
	 M431.703,1636.934l-38.961-27.408 M312.184,1473.458l-9.234,102.804 M302.949,1576.262l8.785,33.09 M324.546,1443.268
	l-12.362,30.19 M312.184,1473.458l-67.704,74.49 M361.333,1422.74l-36.787,20.527 M324.546,1443.268l-114.521,18.469
	 M339.383,1286.837l-43.487-53.358 M236.303,1062.162l59.593,171.316 M215.355,1288.155l12.776,115.295 M228.131,1403.45
	l18.681,37.759 M222.276,1256.273l-53.711,85.135 M168.565,1341.408l-6.922,31.881 M248.264,1233.986l-25.988,22.287
	 M222.276,1256.273l-96.607,36.347 M295.896,1233.479l-47.632,0.508 M129.861,1192.311l118.403,41.676 M373.27,1015.174
	l-56.299-39.603 M316.971,975.571l-103.717-148.81 M181.227,1143.275l58.81-129.643 M177.493,1191.804l3.734-48.528
	 M268.827,982.729l-117.189,59.783 M122.847,1073.416l28.791-30.902 M316.971,975.571l-48.144,7.157 M129.349,954.242
	l139.478,28.486 M324.014,817.297l-22.932-58.777 M301.082,758.52l-3.667-159.896 M210.39,779.214l-35.761,120.321 M174.629,899.535
	l2.864,47.549 M230.784,751.715l-86.133,56.878 M124.257,836.092l20.394-27.499 M262.096,742.557l-31.312,9.158 M230.784,751.715
	l-100.452-6.488 M301.082,758.52l-38.986-15.964 M262.096,742.557l-85.843-78.021 M393.648,656.623l14.603-67.268 M505.037,435.95
	l-96.786,153.405 M315.288,560.477l-82.175,81.875 M215.239,680.498l17.874-38.146 M344.529,546.01L244.48,557.097 M215.239,571.564
	l29.241-14.467 M378.158,552.432l-33.629-6.422 M255.879,493.141l88.65,52.869 M378.158,552.432l30.093,36.924 M378.158,552.432
	l-41.24-118.555 M623.033,445.03l4.139,68.709 M623.033,445.03l51.677-173.869 M545.307,408.612l-138.024,34.851 M367.012,470.801
	l40.271-27.338 M467.612,357.505l119.807,54.349 M425.5,354.264l42.112,3.241 M623.033,445.03l-35.614-33.177 M522.729,285.043
	l64.69,126.811 M751.167,351.855l31.656-54.577 M782.823,297.278l122.725-102.561 M710.1,239.276L593.73,286.335 M558.342,318.22
	l35.389-31.885 M744.314,238.075l-98.172-31.879 M611.927,207.397l34.216-1.201 M744.314,238.075l26.683,18.771 M686.755,155.492
	l57.56,82.583 M770.997,256.845l11.826,40.434 M770.997,256.845l7.478-115.76 M920.204,306.119l61.696-30.524 M981.9,275.595
	l180.283-19.977 M946.518,184.908l-115.248-13.2 M790.301,181.518l40.969-9.81 M905.011,127.44l71.048,71.31 M905.011,127.44
	l-29.542-13.842 M976.059,198.75l15.946,30.295 M976.059,198.75L962.121,96.477 M981.9,275.595l10.104-46.55 M992.005,229.045
	l66.979-106.16 M1177.514,399.607l51.14-46.075 M1228.652,353.532l168.156-68.003 M1208.664,270.058l-113.305-86.184
	 M1048.877,169.435l46.482,14.439 M1200.18,177.448l32.207,127.555 M1200.18,177.448l-23.723-34.945 M1228.652,353.532l3.733-48.529
	 M1232.387,305.003l58.812-129.642 M1381.391,395.618l62.407-9.278 M1443.798,386.34l156.702,32.005 M1334.456,231.678
	l109.346,61.639 M1287.462,223.89l46.994,7.788 M1466.074,319.319l-36.285-96.63 M1407.518,196.687l22.271,26.002 M1468.036,351.884
	l-1.962-32.564 M1466.074,319.319l28.678-96.49 M1443.798,386.34l24.238-34.456 M1563.202,285.555l-95.166,66.329 M1522.541,499.26
	l62.331,29.205 M1584.872,528.465l128.022,128.495 M1633.713,444.259l-61.535-98.334 M1538.964,320.011l33.214,25.914
	 M1641.311,475.986l11.455-100.008 M1645.168,344.251l7.598,31.727 M1627.566,507.342l13.744-31.355 M1641.311,475.986
	l71.271-74.663 M1584.872,528.465l42.694-21.123 M1627.566,507.342l124.76-13.824 M1677.786,769.977l-67.907-11.254
	 M1677.786,769.977l158.011,89.071 M1730.587,702.304l-3.264-142.319 M1709.631,514.641l17.692,45.344 M1718.057,742.639
	l79.646-104.71 M1810.232,597.594l-12.53,40.335 M1677.786,769.977l40.271-27.338 M1718.057,742.639l138.025-34.851
	 M1740.112,915.632l46.165,43.007 M1786.277,958.639l72.68,142.471 M1859.008,900.645l-19.984-123.923 M1815.812,735.126
	l23.211,41.596 M1852.564,934.27l52.926-88.617 M1911.934,812.028l-6.442,33.624 M1828.328,956.105l24.236-21.836 M1852.564,934.27
	l93.319-37.739 M1828.328,956.105l-42.051,2.533 M1828.328,956.105l111.193,33.05 M1747.088,1090.607l16.029,66.941
	 M1742.477,1337.757l20.642-180.208 M1859.405,1143.232l38.513-109.42 M1897.918,1033.812l-0.447-42.125 M1839.336,1168.954
	l85.331-53.397 M1944.736,1089.835l-20.069,25.721 M1806.252,1177.76l33.084-8.807 M1839.336,1168.954l102.811,9.171
	 M1763.117,1157.549l43.135,20.211 M1806.252,1177.76l88.595,88.922 M1598.686,1320.664l33.541,60.109 M1632.227,1380.773
	l28.881,179.071 M1718.057,1379.859l109.235-91.286 M1851.712,1246.47l-24.42,42.104 M1678.709,1395.212l131.523-3.017
	 M1849.58,1376.844l-39.348,15.353 M1678.709,1395.212l-46.482-14.438 M1678.709,1395.212l113.305,86.185 M1557.209,1520.316
	l-4.841,62.906 M1552.368,1583.223l-66.072,145.651 M1643.057,1603.927l84.426-92.89 M1745.532,1466.957l-18.05,44.081
	 M1612.751,1619.855l102.282-13.875 M1745.338,1590.054l-30.305,15.927 M1612.751,1619.855l-32.185-5.334 M1612.751,1619.855
	l87.69,49.43 M1552.368,1583.223l28.198,31.299 M1580.566,1614.521l43.488,107.539 M1424.757,1634.865l-42.343,54.271
	 M1382.414,1689.135l-153.762,96.221 M1453.641,1755.489l109.562-38.11 M1563.202,1717.378l32.655-26.614 M1421.018,1755.836
	l94.952,33.421 M1548.592,1788.91l-32.621,0.348 M1393.507,1735.458l27.511,20.378 M1421.018,1755.836l56.934,86.098
	 M1382.414,1689.135l11.093,46.323 M1393.507,1735.458l-14.284,124.709 M1152.365,1662.277l-26.083,63.701 M1126.282,1725.979
	l-121.999,134.229 M1180.509,1792.513L1319.987,1821 M1368.13,1813.843l-48.143,7.156 M1143.973,1771.322l84.362,100.947
	 M1228.335,1872.27l36.536,21.192 M1143.973,1771.322l-17.689-45.344 M1143.973,1771.322l3.266,142.32 M970.41,1754.33
	l-52.202,35.438 M918.208,1789.768l-155.07,39.154 M958.564,1873.58l125.263,8.092 M1129.546,1868.298l-45.719,13.373
	 M927.217,1859.816l74.618,71.317 M1001.835,1931.134l31.349,13.763 M911.32,1831.328l15.896,28.488 M927.217,1859.816
	l16.027,99.378 M918.208,1789.768l-6.888,41.561 M911.32,1831.328l-56.963,101.052 M729.439,1722.927l-29.303,37.556
	 M700.137,1760.482l-106.406,66.587 M820.077,1881.882l-98.107-61.896 M820.077,1881.882l41.168,8.938 M701.359,1794.697
	l33.072,95.074 M755.042,1915.059l-20.611-25.287 M701.359,1794.697l-1.223-34.215 M701.359,1794.697l-31.817,98.19
	 M587.419,1756.336l-35.451,13.831 M551.968,1770.167l-91.017,2.088 M560.926,1825.371l74.59,31.604 M668.32,1858.674l-32.805-1.698
	 M545.077,1810.605l28.79,56.436 M541.468,1791.751l3.609,18.854 M545.077,1810.605l-9.504,58.907 M551.968,1770.167l-10.5,21.584
	 M541.468,1791.751l-48.051,46.492 M490.191,1716.646l-37.942-2.92 M452.249,1713.727l-82.909-37.61 M482.525,1806.253
	l-42.967-44.405 M432.037,1746.643l5.686,51.312 M434.811,1729.907l-2.773,16.735 M432.037,1746.643l-25.352,44.973
	 M452.249,1713.727l-17.438,16.181 M434.811,1729.907l-56.938,24.002 M392.742,1609.525l-30.891,11.17 M361.852,1620.695
	l-81.01-0.176 M353.015,1658.521l25.972,61.611 M350.982,1639.432l-14.356,57.916 M361.852,1620.695l-10.869,18.736
	 M350.982,1639.432l-48.614,40.627 M302.949,1576.262l-27.908-2.854 M275.041,1573.409l-58.469-28.312 M262.84,1609.466
	l32.394,40.802 M257.986,1637.832l0.089-41.546 M261.565,1583.841l-3.49,12.444 M258.075,1596.286l-23.298,32.464 M275.041,1573.409
	l-13.476,10.433 M261.565,1583.841l-43.751,13.999 M256.842,1517.758l-26.398-15.312 M230.444,1502.447l-46.817-56.021
	 M205.831,1531.917l14.719,42.312 M193.716,1555.864l11.62-36.372 M212.431,1508.626l-7.095,10.865 M205.336,1519.492
	l-31.181,23.373 M230.444,1502.447l-18.013,6.18 M212.431,1508.626l-47.842-0.89 M228.131,1403.45l-30.426-2.341 M197.705,1401.109
	l-66.488-30.161 M177.348,1428.122l-1.025,55.134 M182.16,1412.632l-30.587,40.213 M197.705,1401.109l-15.545,11.522
	 M182.16,1412.632l-52.858,15.707 M168.565,1341.408l-24.613-13.463 M143.952,1327.945l-42.895-48.788 M119.876,1355.648
	l13.63,45.869 M105.986,1378.966l14.2-36.29 M127.635,1332.718l-7.449,9.958 M120.186,1342.676l-31.95,20.909 M143.952,1327.945
	l-16.317,4.772 M127.635,1332.718l-44.705-2.889 M151.657,1270.332l-19.126-26.707 M110.736,1165.604l21.795,78.021
	 M95.864,1262.925l-1.812,45.9 M100.04,1250.693l-25.066,31.119 M111.435,1242.533l-11.395,8.16 M100.04,1250.693l-40.014,11.178
	 M132.531,1243.625l-21.096-1.092 M111.435,1242.533l-47.969-20.324 M148.31,1124.182l32.917,19.094 M89.93,1054.323l58.38,69.858
	 M112.398,1144.006l-26.173,57.695 M124.889,1129.429l-12.491,14.577 M112.398,1144.006l-51.981,29.298 M148.31,1124.182
	l-23.421,5.247 M124.889,1129.429l-66.309-8.579 M151.638,1042.512l-21.374-31.484 M107.976,922.757l22.288,88.271 M84.729,1031.109
	l-7.929,61.279 M91.927,1015.748l-36.572,36.438 M106.74,1007.482l-14.813,8.266 M91.927,1015.748l-50.967,8.22 M130.264,1011.028
	l-23.524-3.546 M106.74,1007.482l-54.265-29.552 M174.629,899.535l-27.993-17.188 M146.636,882.347l-50.371-63.444 M111.553,899.023
	l-31.977,58.72 M125.21,885.532l-54.231,24.886 M146.636,882.347l-21.426,3.186 M125.21,885.532l-62.073-12.679 M144.651,808.593
	l-15.17-23.599 M129.481,784.994l-14.319-63.366 M93.683,797.936l-11.702,50.767 M101.017,785.993l-32.538,25.834 M112.923,780.962
	l-11.906,5.031 M101.017,785.993l-39.908,2.026 M129.481,784.994l-16.558-4.032 M112.923,780.962L74.7,755.484 M161.643,736.068
	l-4.487-30.186 M157.156,705.883l14.609-71.533 M118.769,705.016l-23.905,37.888 M128.175,696.88l-35.682,13.593 M141.094,695.653
	l-12.919,1.227 M128.175,696.88l-37.716-9.806 M157.156,705.883l-16.062-10.229 M111.96,657.693l29.134,37.96 M215.972,617.104
	l17.141,25.248 M215.972,617.104l-17.873-70.789 M182.16,618.03l-43.743,33.573 M197.272,612.134l-50.511,1.158 M197.272,612.134
	l18.7,4.97 M152.035,580.602l45.237,31.532 M244.48,557.097l-4.82-27.636 M239.66,529.461l11.399-63.956 M175.626,567.165
	l27.362-39.255 M213.325,520.064l-37.227,11.523 M225.755,519.679l-12.43,0.386 M213.325,520.064l-36.268-11.943 M239.66,529.461
	l-13.905-9.782 M225.755,519.679l-25.616-36.752 M289.508,499.562l8.955-31.604 M298.463,467.959l47.41-65.686 M260.512,451.324
	l-37.016,27.204 M272.679,446.963l-39.959-0.195 M286.163,450.784l-13.484-3.821 M238.991,422.648l33.688,24.314 M286.163,450.784
	l12.3,17.175 M286.163,450.784l-14.017-50.177 M407.282,443.463l-5.597-37.64 M401.686,405.823l18.219-89.199 M363.795,390.106
	l-61.427,15.51 M382.98,390.783l-19.186-0.677 M363.795,390.106l-55.314-22.373 M401.686,405.823l-18.705-15.04 M382.98,390.783
	l-34.636-57.191 M467.612,357.505l11.29-36.341 M534.018,248.702l-55.115,72.462 M381.957,330.092l52.854-32.008 M451.308,294.134
	l-51.29-5.875 M467.007,300.562l-15.699-6.428 M451.308,294.134l-38.204-34.723 M478.902,321.164l-11.896-20.602 M467.007,300.562
	l-10.729-60.851 M593.73,286.335l-4.015-32.602 M589.716,253.733l18.196-78.939 M554.804,236.702l-65.846,11.61 M573.867,238.968
	l-53.27-26.884 M589.716,253.733l-15.849-14.765 M573.867,238.968l-28.79-56.437 M646.143,206.196l8.991-26.574 M655.134,179.622
	l40.613-50.703 M622.695,159.704l-46.986,22.503 M596.121,148.659l40.484,9.332 M647.962,164.163l-11.356-6.172 M636.605,157.991
	l-26.467-29.938 M655.134,179.622l-7.172-15.459 M647.962,164.163l-3.913-45.77 M713.439,174.263l20.801-22.329 M799.275,118.757
	l-65.035,33.177 M710.984,121.38l-44.525,4.934 M723.21,123.662l-32.875-19.422 M732.225,132.998l-9.015-9.336 M707.361,88.062
	l15.849,35.6 M734.24,151.934l-2.016-18.936 M732.225,132.998l11.513-46.445 M831.27,171.708l9.054-29.143 M840.323,142.565
	l44.2-58.11 M818.516,116.708l-53.521-13.268 M832.548,124.846l-32.399-38.768 M840.323,142.565l-7.775-17.719 M832.548,124.846
	l-3.552-55.026 M905.011,127.44l18.603-20.999 M923.613,106.441l57.109-30.964 M901.961,76.803l-47.751,3.082 M914.54,79.993
	l-32.222-21.92 M922.591,89.471l-8.051-9.478 M914.54,79.993l-13.276-35.802 M923.613,106.441l-1.022-16.97 M935.354,46.529
	l-12.763,42.941 M978.068,126.773l30.291-12.704 M1008.359,114.069l80.918-3.889 M997.703,74.026l-44.348-11.979 M1008.699,80.82
	l-24.762-31.363 M1014.12,93.744l-5.421-12.924 M1008.699,80.82l-1.993-41.498 M1008.359,114.069l5.761-20.325 M1014.12,93.744
	l30.489-42.243 M1121.298,156.031l-25.938,27.843 M1121.298,156.031l81.099-41.372 M1109.962,116.608l-50.426-38.356
	 M1121.395,132.03l-11.433-15.422 M1109.962,116.608l-16.997-57.197 M1121.298,156.031l0.097-24.001 M1121.395,132.03l23.119-62.738
	 M1200.18,177.448l35.451-13.831 M1235.631,163.617l91.018-2.088 M1226.186,114.755l-57.979-21.366 M1212.174,81.427l27.387,43.763
	 M1244.322,141.472l-4.762-16.282 M1242.887,73.672l-3.326,51.518 M1235.631,163.617l8.691-22.146 M1244.322,141.472l40.885-46.329
	 M1357.441,208.213l-22.985,23.465 M1357.441,208.213l73.062-34.992 M1348.99,170.298l-50.133-44.242 M1359.104,186.615
	l-12.192-58.409 M1357.441,208.213l1.662-21.598 M1359.104,186.615l26.174-57.696 M1456.171,213.151l-26.382,9.538
	 M1521.135,213.291l-64.964-0.14 M1451.52,175.37l-46.89-22.705 M1461.531,185.178l-17.945-37.471 M1463.787,197.905l-2.256-12.728
	 M1461.531,185.178l6.904-39.357 M1456.171,213.151l7.616-15.246 M1463.787,197.905l33.344-31.596 M1496.714,255.394l30.427,2.341
	 M1527.141,257.735l66.488,30.161 M1536.529,220.504l-31.619-31.736 M1542.367,231.484l-5.312-37.812 M1542.367,231.484
	l-1.678,12.868 M1542.367,231.484l17.951-34.588 M1527.141,257.735l13.549-13.383 M1540.689,244.352l43.488-19.956
	 M1572.178,345.925l28.43-11.092 M1600.607,334.833l72.988-1.674 M1607.227,301.662l-22.996-50.118 M1609.613,317.706l10.109-49.502
	 M1600.607,334.833l9.006-17.127 M1609.613,317.706l40.808-37.086 M1652.766,375.978l28.017,1.45 M1680.781,377.428l59.814,25.346
	 M1658.271,306.609l32.182,35.412 M1692.85,314.987l2.952,38.856 M1693.411,366.048l2.391-12.204 M1695.802,353.844l19.714-32.701
	 M1693.411,366.048l-12.63,11.38 M1693.411,366.048l41.53-16.795 M1698.837,432.679l28.819,15.765 M1727.656,448.443l53.488,60.838
	 M1752.318,415.145l-18.284-42.141 M1762.943,389.064l-9.08,38.913 M1747.137,440.273l6.728-12.297 M1753.863,427.977l31.201-27.432
	 M1727.656,448.443l19.479-8.17 M1747.137,440.273l52.037-2.5 M1727.323,559.984l37.94,2.92 M1765.266,562.904l82.908,37.609
	 M1789.02,529.461l-1.453-63.339 M1784.09,548.014l4.93-18.553 M1789.02,529.461l34.121-48.951 M1765.266,562.904l18.824-14.891
	 M1784.09,548.014l63.465-21.039 M1797.702,637.929l32.917,19.093 M1830.619,657.021l58.38,69.859 M1843.487,560.521l19.442,58.65
	 M1863.112,636.135l17.14-48.697 M1853.352,650.01l9.762-13.875 M1863.112,636.135l42.353-29.52 M1853.352,650.01l-22.731,7.012
	 M1853.352,650.01l61.713,3.08 M1839.023,776.722l32.678,3.341 M1871.701,780.062l72.91,35.307 M1896.074,749.816l3.333-66.779
	 M1889.623,767.896l38.062-45.95 M1871.701,780.062l17.922-12.166 M1951.05,752.387l-61.427,15.51 M1929.396,860.332l-23.906-14.68
	 M1929.396,860.332l40.395,50.878 M1956.034,833.139l-11.483-50.815 M1954.609,847.081l18.104-37.392 M1946.064,856.78l8.545-9.699
	 M1954.609,847.081l35.076-19.142 M1946.064,856.78l-16.668,3.552 M1991.557,863.15l-45.492-6.37 M1921.648,918.367l17.14,25.249
	 M1938.788,943.616l17.874,70.787 M1978.848,883.234l-5.098,44.509 M1968.805,939.153l26.252-27.729 M1957.698,945.864l11.105-6.711
	 M2007.04,931.623l-38.235,7.53 M1938.788,943.616l18.91,2.248 M1957.698,945.864l42.719,21.559 M1897.918,1033.812l26.398,15.312
	 M1924.316,1049.125l46.815,56.021 M1954.378,1033.618l24.845-49.228 M1943.321,1045.486l45.006-22.959 M1924.316,1049.125
	l19.005-3.639 M1997.759,1054.27l-54.438-8.783 M1924.667,1115.557l16.334,22.808 M1941.001,1138.364l17.479,62.567
	 M1974.713,1123.85l7.622-47.24 M1968.805,1135.404l28.541-26.535 M1957.773,1141.145l11.03-5.74 M1968.805,1135.404l37.858-4.977
	 M1957.773,1141.145l-16.772-2.78 M1957.773,1141.145l39.023,21.998 M1909.062,1186.929l5.644,32.359 M1914.706,1219.289
	l-14.215,79.752 M1956.116,1217.811l21.547-40.57 M1947.046,1227.02l36.086-17.162 M1933.239,1229.427l13.807-2.407
	 M1947.046,1227.02l40.901,7.289 M1933.239,1229.427l-18.533-10.139 M1933.239,1229.427l34.399,39.125 M1827.292,1288.573
	l21.373,31.485 M1848.665,1320.059l22.288,88.271 M1889.623,1317.777l48.614-40.625 M1889.623,1317.777l-17.58,7.716
	 M1889.623,1317.777l59.544-3.842 M1848.665,1320.059l23.378,5.435 M1872.043,1325.493l56.02,36.5 M1810.232,1392.196l5.596,37.641
	 M1815.828,1429.836l-18.219,89.199 M1865.566,1431.5l33.73-51.77 M1852.417,1442.217l48.76-16.961 M1835.484,1443.237l16.933-1.021
	 M1852.417,1442.217l49.485,14.708 M1815.828,1429.836l19.656,13.4 M1871.553,1493.406l-36.068-50.169 M1727.482,1511.038
	l17.763,27.633 M1745.245,1538.67l17.854,79.016 M1838.377,1499.836l-54.287,39.03 M1765.932,1545.096l59.657,1.108
	 M1745.245,1538.67l20.687,6.426 M1765.932,1545.096l50.426,38.354 M1715.033,1605.98l3.428,27.845 M1718.461,1633.825
	l-14.592,63.305 M1756.33,1637.696l32.568-40.661 M1785.064,1636.117l-40.524,9.158 M1731.63,1644.643l12.91,0.633
	 M1744.54,1645.275l36.835,15.49 M1718.461,1633.825l13.169,10.817 M1755.014,1684.182l-23.384-39.539 M1668.256,1663.951
	l-9.054,29.145 M1659.202,1693.094l-44.199,58.109 M1693.411,1710.532l37.976-23.765 M1681.407,1713.78l38.046,3.235
	 M1669.234,1709.281l12.173,4.499 M1711.133,1738.979l-29.726-25.198 M1669.234,1709.281l-10.032-16.188 M1669.234,1709.281
	l9.778,46.84 M1567.689,1747.562l-4.487-30.185 M1553.08,1819.095l14.609-71.532 M1598.557,1761.398l53.979-11.27
	 M1582.383,1760.152l46.012,20.873 M1582.383,1760.152l-14.693-12.59 M1609.458,1808.191l-27.075-48.038 M1515.97,1789.257
	l-7.646,26.99 M1508.322,1816.248l-38.021,52.677 M1540.689,1833.556l41.685-23.495 M1527.973,1836.14l38.539,5.77
	 M1527.973,1836.14l-11.367-5.046 M1527.973,1836.14l27.493,26.496 M1508.322,1816.248l8.283,14.847 M1516.605,1831.094
	l7.134,44.228 M1450.438,1821.557l-21.779,24.588 M1428.657,1846.145l-71.216,38.611 M1455.633,1877.599l45.153-8.448
	 M1442.777,1876.25l35.918,17.513 M1442.777,1876.25l-10.49-9.293 M1462.58,1912.773l-19.803-36.523 M1428.657,1846.145l3.63,20.812
	 M1432.287,1866.957l-9.143,51.288 M1308.697,1857.341l11.29-36.342 M1308.697,1857.341l-55.116,72.462 M1336.016,1887.942
	l62.074,12.678 M1319.025,1879.007l16.99,8.936 M1376.146,1932.1l-40.131-44.157 M1308.697,1857.341l10.328,21.666
	 M1325.415,1945.562l-6.39-66.556 M1228.335,1872.27l-25.938,27.845 M1202.396,1900.114l-81.1,41.371 M1232.107,1940.038
	l61.506-5.904 M1215.529,1936.439l43.662,27.547 M1204.174,1923.837l11.355,12.603 M1215.529,1936.439l19.354,47.859
	 M1204.174,1923.837l-1.777-23.724 M1204.174,1923.837l-16.734,59.479 M1073.298,1912.786l10.529-31.114 M1073.298,1912.786
	l-50.644,63.227 M1097.364,1943.279l64.36,18.108 M1081.172,1932.966l36.329,47.334 M1073.298,1912.786l7.874,20.181
	 M1082.624,1996.304l-1.452-63.338 M1001.835,1931.134l-19.631,20.04 M982.204,1951.174l-58.591,28.062 M1002.787,1983.195
	l52.097,0.111 M989.512,1978.702l32.426,25.975 M981.958,1968.214l7.554,10.487 M989.512,1978.702l10.855,38.457 M982.204,1951.174
	l-0.246,17.04 M981.958,1968.214l-16.334,42.936 M927.347,1930.705l-28.429,11.093 M898.918,1941.797l-72.99,1.674
	 M948.871,1994.289l-42.258-14.873 M896.589,1972.055l21.192,31.764 M892.518,1959.733l4.071,12.321 M895.422,2011.007l1.167-38.952
	 M898.918,1941.797l-6.4,17.937 M892.518,1959.733l-30.523,36.851 M820.077,1881.882l-20.802,22.329 M799.275,1904.211
	l-65.035,33.177 M807.703,1936.969l42.466,35.176 M810.962,1972.535l-12.369-48.986 M798.593,1923.548l0.683-19.337
	 M798.593,1923.548l-20.676,51.119 M734.432,1889.771l-25.871,10.849 M643.671,1903.738l64.89-3.118 M715.209,1936.716
	l44.359,17.941 M705.259,1928.385l19.519,33.729 M705.259,1928.385l-3.141-12.033 M705.259,1928.385l-3.573,38.017 M708.561,1900.62
	l-6.442,15.731 M702.118,1916.352l-30.131,33.152 M635.516,1856.976l-14.008,15.812 M621.508,1872.789l-45.799,24.831
	 M627.743,1897.677l34.758,30.034 M620.783,1886.786l8.702,39 M621.508,1872.789l-0.725,13.997 M620.783,1886.786l-16.209,38.253"/>
<path fill="none" stroke="#000000" stroke-miterlimit="10" d="M589.716,1881.807l-15.849-14.767 M531.964,1850.658l3.609,18.854
	 M503.917,1816.661l-10.5,21.583 M503.917,1816.661l-21.392-10.407 M445.245,1813.159l-7.522-15.205 M409.46,1774.88l-2.774,16.734
	 M377.873,1753.909l17.439-16.181 M378.986,1720.133l16.326,17.596 M338.658,1716.438l-2.032-19.09 M313.236,1661.321
	l-10.868,18.737 M295.234,1650.268l18.002,11.053 M262.751,1651.012l-4.765-13.181 M234.777,1628.75l3.49-12.443 M231.29,1587.408
	l-13.476,10.433 M231.29,1587.408l-10.74-13.178 M194.211,1568.291l-0.495-12.427 M181.25,1532l-7.095,10.865 M164.589,1507.737
	l18.013-6.179 M176.323,1483.255l6.279,18.304 M146.761,1468.335l4.812-15.49 M144.847,1416.816l-15.545,11.522 M144.847,1416.816
	l-11.341-15.299 M105.675,1391.939l0.311-12.974 M95.685,1353.626l-7.449,9.959 M99.247,1325.059l-16.317,4.771 M99.247,1325.059
	l-5.194-16.232 M70.798,1294.045l4.176-12.232 M71.421,1253.711l-11.395,8.159 M84.563,1223.3l-21.097-1.092 M84.563,1223.3
	l1.662-21.599 M72.908,1158.727l-12.491,14.578 M82.001,1115.602l-23.421,5.248 M76.8,1092.388l5.201,23.214 M48.158,1067.547
	l7.197-15.361 M55.774,1015.702l-14.814,8.266 M52.475,977.932l23.524,3.545 M75.999,981.477l3.577-23.733 M57.321,923.909
	l13.658-13.491 M84.563,869.669l-21.426,3.185 M84.563,869.669l-2.582-20.967 M61.146,823.77l7.333-11.942 M73.015,782.989
	l-11.906,5.03 M74.7,755.484l16.558,4.031 M91.258,759.516l3.606-16.612 M83.086,718.607l9.407-8.135 M103.378,685.847
	l-12.919,1.228 M128.022,667.924l-16.062-10.23 M128.022,667.924l10.395-16.32 M131.65,619.188l15.111-5.896 M170.736,585.57
	l-18.701-4.969 M170.736,585.57l4.89-18.405 M176.098,531.588l-10.336,7.846 M189.487,507.737l-12.43,0.384 M214.044,492.708
	l-13.905-9.781 M214.044,492.708l9.452-14.18 M220.553,451.13l12.167-4.362 M252.476,426.469l-13.485-3.82 M284.446,417.783
	l-12.3-17.176 M284.446,417.783l17.922-12.167 M327.665,368.41l-19.185-0.677 M367.05,348.631l-18.705-15.04 M367.05,348.631
	l14.907-18.539 M383.521,292.21l16.496-3.951 M413.104,259.411l15.699,6.428 M468.172,260.313l-11.895-20.602 M468.172,260.313
	l20.786-12.001 M501.535,209.817l19.062,2.267 M560.926,197.297l-15.849-14.765 M560.926,197.297l14.783-15.09 M582.211,150.372
	l13.91-1.713 M621.496,134.225l-11.357-6.172 M651.221,133.853l-7.172-15.46 M666.459,126.314l-15.238,7.539 M678.109,101.958
	l12.226,2.282 M716.375,97.397l-9.014-9.335 M745.753,105.489l-2.016-18.937 M745.753,105.489l19.241-2.049 M786.118,77.939
	l14.03,8.139 M828.996,69.819l7.775,17.718 M836.771,87.537l17.438-7.652 M869.741,54.884l12.578,3.188 M909.314,53.669
	l-8.051-9.478 M936.376,63.498l-1.022-16.969 M936.376,63.498l16.979-1.451 M972.941,42.664l10.996,6.793 M1012.126,52.246
	l-5.42-12.924 M1038.85,71.826l5.76-20.325 M1038.85,71.826l20.688,6.426 M1104.398,74.833l-11.435-15.422 M1144.418,93.294
	l0.096-24.002 M1144.418,93.294l23.789,0.095 M1212.174,81.427l-13.375-10.436 M1247.65,89.954l-4.765-16.282 M1276.516,117.288
	l8.691-22.145 M1276.516,117.288l22.344,8.768 M1336.796,111.888l10.114,16.318 M1383.615,150.516l1.662-21.597 M1404.63,152.665
	l-21.015-2.149 M1433.574,137.9l10.012,9.807 M1470.691,158.547l-2.256-12.727 M1489.516,181.555l7.615-15.246 M1489.516,181.555
	l15.396,7.213 M1537.055,193.672l-5.838-10.981 M1558.641,209.764l1.68-12.868 M1570.631,237.779l13.548-13.383 M1570.631,237.779
	l13.6,13.765 M1619.723,268.204l-2.385-16.044 M1641.415,297.747l9.006-17.127 M1658.271,306.609l-16.856-8.862 M1687.501,303.164
	l5.349,11.823 M1713.125,333.348l2.391-12.205 M1734.941,349.253l-12.629,11.38 M1722.312,360.633l11.722,12.371 M1761.4,376.231
	l1.543,12.833 M1778.339,412.841l6.726-12.296 M1779.693,445.941l19.479-8.168 M1787.566,466.122l-7.873-20.181 M1818.211,499.064
	l4.93-18.555 M1828.73,541.863l18.823-14.889 M1843.487,560.521l-14.757-18.658 M1880.072,570.477l0.18,16.961 M1895.705,620.491
	l9.76-13.875 M1892.332,660.102l22.732-7.012 M1892.332,660.102l7.075,22.936 M1934.138,703.865l-6.452,18.081 M1933.128,764.553
	l17.922-12.166 M1944.551,782.323l-11.423-17.771 M1974.141,795.746l-1.426,13.943 M1981.141,837.639l8.545-9.699 M1974.889,866.702
	l16.668-3.552 M1974.889,866.702l3.959,16.533 M2000.001,900.014l-4.944,11.41 M2007.04,931.623l-11.106,6.711 M1981.506,965.175
	l18.911,2.248 M1981.506,965.175l-2.284,19.216 M1999.383,1010.658l-11.056,11.869 M1978.755,1057.906l19.004-3.637
	 M1978.755,1057.906l3.58,18.703 M1997.345,1108.869l5.908-11.555 M1995.631,1136.167l11.032-5.739 M1996.798,1163.143
	l-16.771-2.779 M1980.027,1160.363l-2.364,16.877 M1992.202,1200.648l-9.07,9.209 M1974.141,1236.717l13.808-2.408
	 M1967.639,1268.552l-18.533-10.139 M1949.105,1258.414l-10.869,18.738 M1931.588,1321.65l17.579-7.715 M1928.062,1361.993
	l-23.377-5.435 M1904.686,1356.559l-5.388,23.172 M1914.326,1414.539l-13.149,10.718 M1884.97,1457.945l16.935-1.021
	 M1851.898,1480.005l19.653,13.4 M1851.898,1480.005l-13.521,19.831 M1843.748,1539.977l-18.159,6.229 M1795.67,1577.025
	l20.688,6.426 M1795.67,1577.025l-6.771,20.01 M1796.854,1628.539l-11.789,7.578 M1768.465,1660.131l12.91,0.635 M1741.845,1673.364
	l13.169,10.817 M1741.845,1673.364l-10.458,13.403 M1719.453,1717.016l12.004-3.248 M1698.961,1734.479l12.172,4.5
	 M1668.98,1739.936l10.032,16.186 M1668.98,1739.936l-16.446,10.193 M1628.395,1781.025l16.174,1.244 M1594.766,1795.6
	l14.692,12.592 M1594.766,1795.6l-12.392,14.461 M1579.229,1839.325l-12.717,2.584 M1544.1,1857.59l11.366,5.046 M1515.455,1860.475
	l8.284,14.847 M1515.455,1860.475l-14.669,8.676 M1491.55,1895.112l-12.854-1.351 M1452.089,1903.48l10.491,9.293
	 M1419.516,1897.434l3.629,20.812 M1419.516,1897.434l-21.426,3.187 M1359.155,1923.166l16.991,8.936 M1315.088,1923.896
	l10.327,21.666 M1315.088,1923.896l-21.475,10.236 M1275.768,1967.585l-16.576-3.6 M1223.527,1971.696l11.355,12.604
	 M1185.661,1959.594l1.778,23.724 M1185.661,1959.594l-23.937,1.794 M1133.693,1990.613l-16.192-10.312 M1074.751,1976.125
	l7.873,20.18 M1074.751,1976.125l-19.867,7.183 M1035.214,2009.167l-13.276-4.491 M992.812,2006.67l7.555,10.488 M965.87,1994.108
	l-0.246,17.041 M948.871,1994.289l16.999-0.182 M927.805,2011.178l-10.023-7.359 M891.352,1998.686l4.07,12.321 M868.393,1978.648
	l-6.398,17.936 M868.393,1978.648l-18.224-6.504 M820.073,1985.955l-9.111-13.42 M778.6,1955.33l-0.683,19.338 M778.6,1955.33
	l-19.031-0.672 M734.727,1970.445l-9.948-8.331 M698.545,1954.368l3.141,12.033 M671.987,1949.504l6.441-15.732 M589.716,1881.807
	l-14.007,15.812 M678.429,1933.771l-15.928-6.061 M636.445,1936.677l-6.961-10.892 M605.299,1911.042l-0.725,13.996
	 M573.867,1867.041l-38.294,2.473 M575.709,1897.62l29.59,13.423 M531.964,1850.658l-38.547-12.414 M482.525,1806.253l-37.28,6.905
	 M406.686,1791.615l31.037,6.339 M409.46,1774.88l-31.587-20.972 M378.986,1720.133l-40.328-3.695 M336.626,1697.348l-34.258-17.289
	 M295.234,1650.268l-32.483,0.744 M234.777,1628.75l23.209,9.082 M238.267,1616.305l-20.453-18.465 M220.55,1574.23l-26.339-5.939
	 M193.716,1555.864l-19.561-12.999 M181.25,1532l-16.661-24.263 M176.323,1483.255l-29.562-14.92 M151.573,1452.845l-22.271-24.506
	 M133.506,1401.518l-27.831-9.578 M105.986,1378.966l-17.75-15.381 M82.93,1329.83l12.755,23.797 M94.053,1308.826l-23.255-14.78
	 M60.026,1261.871l14.948,19.941 M71.421,1253.711l-7.955-31.503 M86.225,1201.702l-25.808-28.397 M72.908,1158.727L58.58,1120.85
	 M48.158,1067.547l28.642,24.841 M40.96,1023.968l14.395,28.218 M55.774,1015.702l-3.299-37.771 M79.576,957.743l-22.255-33.834
	 M63.137,872.854l7.842,37.564 M81.981,848.702L61.146,823.77 M68.479,811.827l-7.37-23.808 M74.7,755.484l-1.685,27.505
	 M94.864,742.903l-11.778-24.296 M90.459,687.074l2.034,23.398 M103.378,685.847l8.582-28.153 M138.417,651.604l-6.767-32.416
	 M146.761,613.292l5.274-32.69 M175.626,567.165l-9.864-27.731 M177.057,508.121l-0.959,23.467 M189.487,507.737l10.652-24.811
	 M223.496,478.528l-2.943-27.398 M238.991,422.648l-6.271,24.119 M252.476,426.469l19.67-25.861 M302.368,405.616l6.112-37.883
	 M327.665,368.41l20.68-34.819 M381.957,330.092l1.564-37.882 M400.018,288.259l13.086-28.848 M428.803,265.839l27.475-26.128
	 M488.958,248.312l12.577-38.495 M520.598,212.084l24.479-29.552 M575.709,182.207l6.502-31.835 M596.121,148.659l14.018-20.605
	 M621.496,134.225l22.553-15.832 M666.459,126.314l11.65-24.356 M690.335,104.24l17.026-16.178 M716.375,97.397l27.362-10.844
	 M764.994,103.44l21.124-25.501 M800.148,86.078l28.848-16.259 M854.21,79.885l15.531-25.001 M901.264,44.191l-18.945,13.882
	 M909.314,53.669l26.039-7.14 M953.355,62.047l19.586-19.383 M983.938,49.457l22.769-10.135 M1012.126,52.246l32.483-0.745
	 M1059.536,78.252l33.429-18.841 M1104.398,74.833l40.114-5.541 M1168.207,93.389l30.592-22.396 M1212.174,81.427l30.713-7.755
	 M1247.65,89.954l37.557,5.189 M1336.796,111.888l-37.938,14.168 M1346.91,128.206l38.367,0.713 M1404.63,152.665l28.944-14.765
	 M1443.586,147.707l24.85-1.887 M1497.131,166.309l-26.439-7.762 M1504.91,188.768l26.307-6.077 M1537.055,193.672l23.266,3.224
	 M1558.641,209.764l25.538,14.632 M1584.23,251.544l33.106,0.616 M1650.421,280.62l-30.698-12.416 M1658.271,306.609l29.229-3.445
	 M1692.85,314.987l22.666,6.156 M1713.125,333.348l21.816,15.905 M1734.034,373.004l27.366,3.227 M1762.943,389.064l22.121,11.481
	 M1778.339,412.841l20.835,24.933 M1823.141,480.51l-35.574-14.388 M1818.211,499.064l29.344,27.91 M1843.487,560.521l36.585,9.955
	 M1880.252,587.438l25.213,19.179 M1915.064,653.09l-19.359-32.6 M1934.138,703.865l-34.729-20.828 M1951.05,752.387l-23.364-30.44
	 M1944.551,782.323l29.59,13.423 M1972.715,809.689l16.971,18.25 M1991.557,863.15l-10.416-25.512 M1978.848,883.234l21.153,16.779
	 M1995.057,911.424l11.983,20.199 M1995.934,938.334l4.483,29.089 M1999.383,1010.658l-20.16-26.268 M1997.759,1054.27
	l-9.432-31.742 M1982.335,1076.609l20.918,20.705 M1997.345,1108.869l9.318,21.561 M1995.631,1136.167l1.167,26.976
	 M1992.202,1200.648l-14.539-23.408 M1983.132,1209.857l4.815,24.451 M1974.141,1236.717l-6.502,31.835 M1938.237,1277.152
	l10.93,36.783 M1928.062,1361.993l3.524-40.343 M1899.298,1379.73l15.028,34.809 M1901.177,1425.256l0.728,31.669 M1884.97,1457.945
	l-13.417,35.461 M1838.377,1499.836l5.371,40.141 M1825.589,1546.205l-9.231,37.246 M1788.898,1597.035l7.955,31.504
	 M1785.064,1636.117l-3.689,24.647 M1768.465,1660.131l-13.451,24.051 M1731.387,1686.768l0.07,27 M1711.133,1738.979l8.32-21.963
	 M1698.961,1734.479l-19.947,21.643 M1652.534,1750.129l-7.968,32.141 M1628.395,1781.025l-18.937,27.166 M1582.374,1810.061
	l-3.146,29.265 M1566.512,1841.909l-11.046,20.728 M1544.1,1857.59l-20.359,17.73 M1491.55,1895.112l9.236-25.962
	 M1478.695,1893.762l-16.115,19.012 M1452.089,1903.48l-28.944,14.765 M1398.09,1900.62l-21.943,31.479 M1359.155,1923.166
	l-33.74,22.396 M1275.768,1967.585l17.846-33.452 M1234.884,1984.299l24.308-20.312 M1223.527,1971.696l-36.088,11.621
	 M1161.727,1961.388l-28.033,29.226 M1117.501,1980.3l-34.877,16.004 M1054.884,1983.307l-19.67,25.86 M1021.938,2004.676
	l-21.57,12.482 M992.812,2006.67l-27.188,4.479 M948.871,1994.289l-21.066,16.89 M917.781,2003.818l-22.359,7.188 M891.352,1998.686
	l-29.357-2.103 M850.169,1972.145l-30.096,13.811 M810.962,1972.535l-33.045,2.133 M734.727,1970.445l24.842-15.787
	 M724.778,1962.114l-23.093,4.287 M671.987,1949.504l26.558,4.863 M662.501,1927.711l-26.056,8.966 M629.484,1925.786l-24.91-0.747"
	/>
</svg>
