<svg xmlns="http://www.w3.org/2000/svg" viewBox="-24.25250007629395 -5.200500839233399 792.5750216369629 412.50600091552735"><line stroke="#000" opacity="1" x1="10.123" y1="372.93" x2="26.902000427246094" y2="343.6159973144531" stroke-width="1.1458500025431315"/><line stroke="#000" opacity="1" x1="26.902000427246094" y1="343.6159973144531" x2="26.900999069213867" y2="309.9209899902344" stroke-width="1.1458500025431315"/><line stroke="#000" opacity="1" x1="26.900999069213867" y1="309.9209899902344" x2="10.123000144958496" y2="280.65301513671875" stroke-width="1.1458500025431315"/><line stroke="#000" opacity="1" x1="10.123000144958496" y1="280.65301513671875" x2="10.343999862670898" y2="247.10699462890625" stroke-width="1.1458500025431315"/><line stroke="#000" opacity="1" x1="10.343999862670898" y1="247.10699462890625" x2="26.900999069213867" y2="217.83999633789062" stroke-width="1.1458500025431315"/><line stroke="#000" opacity="1" x1="26.900999069213867" y1="217.83999633789062" x2="26.900999069213867" y2="184.14500427246094" stroke-width="1.1458500025431315"/><line stroke="#000" opacity="1" x1="26.900999069213867" y1="184.14500427246094" x2="10.123000144958496" y2="154.8769989013672" stroke-width="1.1458500025431315"/><line stroke="#000" opacity="1" x1="10.123000144958496" y1="154.8769989013672" x2="10.343999862670898" y2="121.33100128173828" stroke-width="1.1458500025431315"/><line stroke="#000" opacity="1" x1="10.343999862670898" y1="121.33100128173828" x2="26.900999069213867" y2="92.06400299072266" stroke-width="1.1458500025431315"/><line stroke="#000" opacity="1" x1="26.900999069213867" y1="92.06400299072266" x2="26.900999069213867" y2="58.36800003051758" stroke-width="1.1458500025431315"/><line stroke="#000" opacity="1" x1="26.900999069213867" y1="58.36800003051758" x2="10.122999999999998" y2="29.205000000000002" stroke-width="1.1458500025431315"/><line stroke="#000" opacity="1" x1="616.1300048828125" y1="29.174999237060547" x2="649.5850219726562" y2="29.174999237060547" stroke-width="1.1458500025431315"/><line stroke="#000" opacity="1" x1="582.4359741210938" y1="29.174999237060547" x2="616.1300048828125" y2="29.174999237060547" stroke-width="1.1458500025431315"/><line stroke="#000" opacity="1" x1="548.739990234375" y1="29.174999237060547" x2="514.9769897460938" y2="29.174999237060547" stroke-width="1.1458500025431315"/><line stroke="#000" opacity="1" x1="548.739990234375" y1="29.174999237060547" x2="582.4359741210938" y2="29.174999237060547" stroke-width="1.1458500025431315"/><line stroke="#000" opacity="1" x1="481.510009765625" y1="29.174999237060547" x2="514.9769897460938" y2="29.174999237060547" stroke-width="1.1458500025431315"/><line stroke="#000" opacity="1" x1="447.8160095214844" y1="29.174999237060547" x2="481.510009765625" y2="29.174999237060547" stroke-width="1.1458500025431315"/><line stroke="#000" opacity="1" x1="414.1189880371094" y1="29.174999237060547" x2="380.35699462890625" y2="29.174999237060547" stroke-width="1.1458500025431315"/><line stroke="#000" opacity="1" x1="414.1189880371094" y1="29.174999237060547" x2="447.8160095214844" y2="29.174999237060547" stroke-width="1.1458500025431315"/><line stroke="#000" opacity="1" x1="346.9010009765625" y1="29.174999237060547" x2="380.35699462890625" y2="29.174999237060547" stroke-width="1.1458500025431315"/><line stroke="#000" opacity="1" x1="313.2070007324219" y1="29.174999237060547" x2="346.9010009765625" y2="29.174999237060547" stroke-width="1.1458500025431315"/><line stroke="#000" opacity="1" x1="279.510986328125" y1="29.174999237060547" x2="245.7480010986328" y2="29.174999237060547" stroke-width="1.1458500025431315"/><line stroke="#000" opacity="1" x1="279.510986328125" y1="29.174999237060547" x2="313.2070007324219" y2="29.174999237060547" stroke-width="1.1458500025431315"/><line stroke="#000" opacity="1" x1="212.05299377441406" y1="29.174999237060547" x2="245.7480010986328" y2="29.174999237060547" stroke-width="1.1458500025431315"/><line stroke="#000" opacity="1" x1="178.35800170898438" y1="29.174999237060547" x2="212.05299377441406" y2="29.174999237060547" stroke-width="1.1458500025431315"/><line stroke="#000" opacity="1" x1="144.66200256347656" y1="29.174999237060547" x2="110.89900207519531" y2="29.174999237060547" stroke-width="1.1458500025431315"/><line stroke="#000" opacity="1" x1="144.66200256347656" y1="29.174999237060547" x2="178.35800170898438" y2="29.174999237060547" stroke-width="1.1458500025431315"/><line stroke="#000" opacity="1" x1="77.44400024414062" y1="29.174999237060547" x2="110.89900207519531" y2="29.174999237060547" stroke-width="1.1458500025431315"/><line stroke="#000" opacity="1" x1="43.749000549316406" y1="29.174999237060547" x2="77.44400024414062" y2="29.174999237060547" stroke-width="1.1458500025431315"/><line stroke="#000" opacity="1" x1="43.749000549316406" y1="29.174999237060547" x2="10.122999999999998" y2="29.205000000000002" stroke-width="1.1458500025431315"/><line stroke="#000" opacity="1" x1="683.3480224609375" y1="29.174999237060547" x2="649.5850219726562" y2="29.174999237060547" stroke-width="1.1458500025431315"/><line stroke="#000" opacity="1" x1="683.3480224609375" y1="29.174999237060547" x2="717.0430297851562" y2="29.174999237060547" stroke-width="1.1458500025431315"/><line stroke="#000" opacity="1" x1="717.0430297851562" y1="29.174999237060547" x2="733.8280029296875" y2="58.36800003051758" stroke-width="1.1458500025431315"/><line stroke="#000" opacity="1" x1="733.8280029296875" y1="58.36800003051758" x2="733.947021484375" y2="92.06400299072266" stroke-width="1.1458500025431315"/><line stroke="#000" opacity="1" x1="733.947021484375" y1="92.06400299072266" x2="717.0430297851562" y2="121.25700378417969" stroke-width="1.1458500025431315"/><line stroke="#000" opacity="1" x1="717.0430297851562" y1="121.25700378417969" x2="717.0430297851562" y2="154.95199584960938" stroke-width="1.1458500025431315"/><line stroke="#000" opacity="1" x1="717.0430297851562" y1="154.95199584960938" x2="733.8280029296875" y2="184.14500427246094" stroke-width="1.1458500025431315"/><line stroke="#000" opacity="1" x1="733.8280029296875" y1="184.14500427246094" x2="733.947021484375" y2="217.83999633789062" stroke-width="1.1458500025431315"/><line stroke="#000" opacity="1" x1="733.947021484375" y1="217.83999633789062" x2="717.0430297851562" y2="247.0330047607422" stroke-width="1.1458500025431315"/><line stroke="#000" opacity="1" x1="717.0430297851562" y1="247.0330047607422" x2="717.0430297851562" y2="280.72900390625" stroke-width="1.1458500025431315"/><line stroke="#000" opacity="1" x1="717.0430297851562" y1="280.72900390625" x2="733.8280029296875" y2="309.9209899902344" stroke-width="1.1458500025431315"/><line stroke="#000" opacity="1" x1="733.8280029296875" y1="309.9209899902344" x2="733.947021484375" y2="343.6159973144531" stroke-width="1.1458500025431315"/><line stroke="#000" opacity="1" x1="733.947021484375" y1="343.6159973144531" x2="717.0430297851562" y2="372.8089904785156" stroke-width="1.1458500025431315"/><line stroke="#000" opacity="1" x1="683.3480224609375" y1="372.8089904785156" x2="649.5850219726562" y2="372.8840026855469" stroke-width="1.1458500025431315"/><line stroke="#000" opacity="1" x1="683.3480224609375" y1="372.8089904785156" x2="717.0430297851562" y2="372.8089904785156" stroke-width="1.1458500025431315"/><line stroke="#000" opacity="1" x1="616.1300048828125" y1="372.8840026855469" x2="649.5850219726562" y2="372.8840026855469" stroke-width="1.1458500025431315"/><line stroke="#000" opacity="1" x1="582.4359741210938" y1="372.8089904785156" x2="616.1300048828125" y2="372.8840026855469" stroke-width="1.1458500025431315"/><line stroke="#000" opacity="1" x1="548.739990234375" y1="372.8089904785156" x2="514.9769897460938" y2="372.88299560546875" stroke-width="1.1458500025431315"/><line stroke="#000" opacity="1" x1="548.739990234375" y1="372.8089904785156" x2="582.4359741210938" y2="372.8089904785156" stroke-width="1.1458500025431315"/><line stroke="#000" opacity="1" x1="481.510009765625" y1="372.8840026855469" x2="514.9769897460938" y2="372.88299560546875" stroke-width="1.1458500025431315"/><line stroke="#000" opacity="1" x1="447.8160095214844" y1="372.8089904785156" x2="481.510009765625" y2="372.8840026855469" stroke-width="1.1458500025431315"/><line stroke="#000" opacity="1" x1="414.1189880371094" y1="372.8089904785156" x2="380.3550109863281" y2="372.88299560546875" stroke-width="1.1458500025431315"/><line stroke="#000" opacity="1" x1="414.1189880371094" y1="372.8089904785156" x2="447.8160095214844" y2="372.8089904785156" stroke-width="1.1458500025431315"/><line stroke="#000" opacity="1" x1="346.9010009765625" y1="372.8840026855469" x2="380.3550109863281" y2="372.88299560546875" stroke-width="1.1458500025431315"/><line stroke="#000" opacity="1" x1="313.2070007324219" y1="372.8089904785156" x2="346.9010009765625" y2="372.8840026855469" stroke-width="1.1458500025431315"/><line stroke="#000" opacity="1" x1="279.510986328125" y1="372.8089904785156" x2="245.7480010986328" y2="372.88299560546875" stroke-width="1.1458500025431315"/><line stroke="#000" opacity="1" x1="279.510986328125" y1="372.8089904785156" x2="313.2070007324219" y2="372.8089904785156" stroke-width="1.1458500025431315"/><line stroke="#000" opacity="1" x1="212.05299377441406" y1="372.8840026855469" x2="245.7480010986328" y2="372.88299560546875" stroke-width="1.1458500025431315"/><line stroke="#000" opacity="1" x1="178.35800170898438" y1="372.8089904785156" x2="212.05299377441406" y2="372.8840026855469" stroke-width="1.1458500025431315"/><line stroke="#000" opacity="1" x1="144.66200256347656" y1="372.8089904785156" x2="110.9000015258789" y2="372.88299560546875" stroke-width="1.1458500025431315"/><line stroke="#000" opacity="1" x1="144.66200256347656" y1="372.8089904785156" x2="178.35800170898438" y2="372.8089904785156" stroke-width="1.1458500025431315"/><line stroke="#000" opacity="1" x1="77.44400024414062" y1="372.8840026855469" x2="110.9000015258789" y2="372.88299560546875" stroke-width="1.1458500025431315"/><line stroke="#000" opacity="1" x1="43.75" y1="372.8089904785156" x2="77.44400024414062" y2="372.8840026855469" stroke-width="1.1458500025431315"/><line stroke="#000" opacity="1" x1="43.75" y1="372.8089904785156" x2="10.123" y2="372.93" stroke-width="1.1458500025431315"/><line stroke="#f00" opacity="1" x1="43.749000549316406" y1="29.174999237060547" x2="60.59600067138672" y2="58.36800003051758" stroke-width="1.1458500025431315"/><line stroke="#f00" opacity="1" x1="43.749000549316406" y1="121.25700378417969" x2="60.59600067138672" y2="92.13800048828125" stroke-width="1.1458500025431315"/><line stroke="#f00" opacity="0.5" x1="10.343999862670898" y1="121.33100128173828" x2="43.749000549316406" y2="121.25700378417969" stroke-width="1.1458500025431315"/><line stroke="#f00" opacity="0.5" x1="60.59600067138672" y1="58.36800003051758" x2="93.98899841308594" y2="58.36800003051758" stroke-width="1.1458500025431315"/><line stroke="#f00" opacity="0.5" x1="60.59600067138672" y1="92.13800048828125" x2="94.10800170898438" y2="92.06300354003906" stroke-width="1.1458500025431315"/><line stroke="#f00" opacity="0.6667" x1="60.59600067138672" y1="92.13800048828125" x2="60.59600067138672" y2="58.36800003051758" stroke-width="1.1458500025431315"/><line stroke="#f00" opacity="0.5" x1="43.749000549316406" y1="121.25700378417969" x2="77.56400299072266" y2="121.33100128173828" stroke-width="1.1458500025431315"/><line stroke="#f00" opacity="1" x1="110.89900207519531" y1="29.174999237060547" x2="93.98899841308594" y2="58.36800003051758" stroke-width="1.1458500025431315"/><line stroke="#f00" opacity="1" x1="127.91799926757812" y1="58.36899948120117" x2="144.66200256347656" y2="29.174999237060547" stroke-width="1.1458500025431315"/><line stroke="#f00" opacity="1" x1="178.35800170898438" y1="29.174999237060547" x2="195.2050018310547" y2="58.36800003051758" stroke-width="1.1458500025431315"/><line stroke="#f00" opacity="0.6667" x1="94.10800170898438" y1="92.06300354003906" x2="93.98899841308594" y2="58.36800003051758" stroke-width="1.1458500025431315"/><line stroke="#f00" opacity="1" x1="127.82099914550781" y1="92.06400299072266" x2="144.93899536132812" y2="121.33100128173828" stroke-width="1.1458500025431315"/><line stroke="#f00" opacity="0.5" x1="144.93899536132812" y1="121.33100128173828" x2="178.35800170898438" y2="121.25700378417969" stroke-width="1.1458500025431315"/><line stroke="#f00" opacity="1" x1="178.35800170898438" y1="121.25700378417969" x2="195.2050018310547" y2="92.13800048828125" stroke-width="1.1458500025431315"/><line stroke="#f00" opacity="0.5" x1="195.2050018310547" y1="58.36800003051758" x2="228.83700561523438" y2="58.36800003051758" stroke-width="1.1458500025431315"/><line stroke="#f00" opacity="0.5" x1="195.2050018310547" y1="92.13800048828125" x2="228.95599365234375" y2="92.06300354003906" stroke-width="1.1458500025431315"/><line stroke="#f00" opacity="0.6667" x1="195.2050018310547" y1="92.13800048828125" x2="195.2050018310547" y2="58.36800003051758" stroke-width="1.1458500025431315"/><line stroke="#f00" opacity="0.5" x1="178.35800170898438" y1="121.25700378417969" x2="212.1719970703125" y2="121.33100128173828" stroke-width="1.1458500025431315"/><line stroke="#f00" opacity="1" x1="111.0199966430664" y1="121.33100128173828" x2="94.10800170898438" y2="92.06300354003906" stroke-width="1.1458500025431315"/><line stroke="#f00" opacity="1" x1="43.749000549316406" y1="154.95199584960938" x2="60.59600067138672" y2="184.1439971923828" stroke-width="1.1458500025431315"/><line stroke="#f00" opacity="0.5" x1="10.123000144958496" y1="154.8769989013672" x2="43.749000549316406" y2="154.95199584960938" stroke-width="1.1458500025431315"/><line stroke="#f00" opacity="0.5" x1="43.749000549316406" y1="154.95199584960938" x2="77.56800079345703" y2="154.9510040283203" stroke-width="1.1458500025431315"/><line stroke="#f00" opacity="1" x1="43.749000549316406" y1="247.0330047607422" x2="60.59600067138672" y2="217.91400146484375" stroke-width="1.1458500025431315"/><line stroke="#f00" opacity="0.5" x1="10.343999862670898" y1="247.10699462890625" x2="43.749000549316406" y2="247.0330047607422" stroke-width="1.1458500025431315"/><line stroke="#f00" opacity="0.5" x1="60.59600067138672" y1="184.1439971923828" x2="93.98899841308594" y2="184.1439971923828" stroke-width="1.1458500025431315"/><line stroke="#f00" opacity="0.5" x1="60.59600067138672" y1="217.91400146484375" x2="94.10800170898438" y2="217.83900451660156" stroke-width="1.1458500025431315"/><line stroke="#f00" opacity="0.6667" x1="60.59600067138672" y1="217.91400146484375" x2="60.59600067138672" y2="184.1439971923828" stroke-width="1.1458500025431315"/><line stroke="#f00" opacity="0.5" x1="43.749000549316406" y1="247.0330047607422" x2="77.56400299072266" y2="247.10699462890625" stroke-width="1.1458500025431315"/><line stroke="#f00" opacity="1" x1="111.02200317382812" y1="154.9510040283203" x2="93.98899841308594" y2="184.1439971923828" stroke-width="1.1458500025431315"/><line stroke="#f00" opacity="1" x1="127.91799926757812" y1="184.14500427246094" x2="144.71800231933594" y2="154.8769989013672" stroke-width="1.1458500025431315"/><line stroke="#f00" opacity="0.5" x1="144.71800231933594" y1="154.8769989013672" x2="178.35800170898438" y2="154.95199584960938" stroke-width="1.1458500025431315"/><line stroke="#f00" opacity="1" x1="178.35800170898438" y1="154.95199584960938" x2="195.2050018310547" y2="184.1439971923828" stroke-width="1.1458500025431315"/><line stroke="#f00" opacity="0.5" x1="178.35800170898438" y1="154.95199584960938" x2="212.17599487304688" y2="154.9510040283203" stroke-width="1.1458500025431315"/><line stroke="#f00" opacity="0.6667" x1="94.10800170898438" y1="217.83900451660156" x2="93.98899841308594" y2="184.1439971923828" stroke-width="1.1458500025431315"/><line stroke="#f00" opacity="1" x1="127.82099914550781" y1="217.83999633789062" x2="144.93899536132812" y2="247.10699462890625" stroke-width="1.1458500025431315"/><line stroke="#f00" opacity="0.5" x1="144.93899536132812" y1="247.10699462890625" x2="178.35800170898438" y2="247.0330047607422" stroke-width="1.1458500025431315"/><line stroke="#f00" opacity="1" x1="178.35800170898438" y1="247.0330047607422" x2="195.2050018310547" y2="217.91400146484375" stroke-width="1.1458500025431315"/><line stroke="#f00" opacity="0.5" x1="195.2050018310547" y1="184.1439971923828" x2="228.83700561523438" y2="184.1439971923828" stroke-width="1.1458500025431315"/><line stroke="#f00" opacity="0.5" x1="195.2050018310547" y1="217.91400146484375" x2="228.95599365234375" y2="217.83900451660156" stroke-width="1.1458500025431315"/><line stroke="#f00" opacity="0.6667" x1="195.2050018310547" y1="217.91400146484375" x2="195.2050018310547" y2="184.1439971923828" stroke-width="1.1458500025431315"/><line stroke="#f00" opacity="0.5" x1="178.35800170898438" y1="247.0330047607422" x2="212.1719970703125" y2="247.10699462890625" stroke-width="1.1458500025431315"/><line stroke="#f00" opacity="1" x1="111.0199966430664" y1="247.10699462890625" x2="94.10800170898438" y2="217.83900451660156" stroke-width="1.1458500025431315"/><line stroke="#f00" opacity="1" x1="43.749000549316406" y1="280.72900390625" x2="60.59600067138672" y2="309.9209899902344" stroke-width="1.1458500025431315"/><line stroke="#f00" opacity="0.5" x1="10.123000144958496" y1="280.65301513671875" x2="43.749000549316406" y2="280.72900390625" stroke-width="1.1458500025431315"/><line stroke="#f00" opacity="0.5" x1="43.749000549316406" y1="280.72900390625" x2="77.56800079345703" y2="280.72900390625" stroke-width="1.1458500025431315"/><line stroke="#f00" opacity="1" x1="43.75" y1="372.8089904785156" x2="60.59600067138672" y2="343.6889953613281" stroke-width="1.1458500025431315"/><line stroke="#f00" opacity="0.5" x1="60.59600067138672" y1="309.9209899902344" x2="93.98899841308594" y2="309.9209899902344" stroke-width="1.1458500025431315"/><line stroke="#f00" opacity="0.5" x1="60.59600067138672" y1="343.6889953613281" x2="94.10800170898438" y2="343.6159973144531" stroke-width="1.1458500025431315"/><line stroke="#f00" opacity="0.5" x1="60.59600067138672" y1="343.6889953613281" x2="60.59600067138672" y2="309.9209899902344" stroke-width="1.1458500025431315"/><line stroke="#f00" opacity="1" x1="111.02200317382812" y1="280.72900390625" x2="93.98899841308594" y2="309.9209899902344" stroke-width="1.1458500025431315"/><line stroke="#f00" opacity="1" x1="127.91799926757812" y1="309.9209899902344" x2="144.71800231933594" y2="280.65301513671875" stroke-width="1.1458500025431315"/><line stroke="#f00" opacity="0.5" x1="144.71800231933594" y1="280.65301513671875" x2="178.35800170898438" y2="280.72900390625" stroke-width="1.1458500025431315"/><line stroke="#f00" opacity="1" x1="178.35800170898438" y1="280.72900390625" x2="195.2050018310547" y2="309.9209899902344" stroke-width="1.1458500025431315"/><line stroke="#f00" opacity="0.5" x1="178.35800170898438" y1="280.72900390625" x2="212.17599487304688" y2="280.72900390625" stroke-width="1.1458500025431315"/><line stroke="#f00" opacity="0.5" x1="94.10800170898438" y1="343.6159973144531" x2="93.98899841308594" y2="309.9209899902344" stroke-width="1.1458500025431315"/><line stroke="#f00" opacity="1" x1="127.82099914550781" y1="343.6159973144531" x2="144.66200256347656" y2="372.8089904785156" stroke-width="1.1458500025431315"/><line stroke="#f00" opacity="1" x1="178.35800170898438" y1="372.8089904785156" x2="195.2050018310547" y2="343.6910095214844" stroke-width="1.1458500025431315"/><line stroke="#f00" opacity="0.5" x1="195.2050018310547" y1="309.9209899902344" x2="228.83700561523438" y2="309.9209899902344" stroke-width="1.1458500025431315"/><line stroke="#f00" opacity="0.5" x1="195.2050018310547" y1="343.6910095214844" x2="228.95599365234375" y2="343.6159973144531" stroke-width="1.1458500025431315"/><line stroke="#f00" opacity="0.5" x1="195.2050018310547" y1="343.6910095214844" x2="195.2050018310547" y2="309.9209899902344" stroke-width="1.1458500025431315"/><line stroke="#f00" opacity="1" x1="245.7480010986328" y1="29.174999237060547" x2="228.83700561523438" y2="58.36800003051758" stroke-width="1.1458500025431315"/><line stroke="#f00" opacity="1" x1="110.9000015258789" y1="372.88299560546875" x2="94.10800170898438" y2="343.6159973144531" stroke-width="1.1458500025431315"/><line stroke="#f00" opacity="1" x1="262.7669982910156" y1="58.36899948120117" x2="279.510986328125" y2="29.174999237060547" stroke-width="1.1458500025431315"/><line stroke="#f00" opacity="1" x1="313.2070007324219" y1="29.174999237060547" x2="330.0530090332031" y2="58.36800003051758" stroke-width="1.1458500025431315"/><line stroke="#f00" opacity="0.6667" x1="228.95599365234375" y1="92.06300354003906" x2="228.83700561523438" y2="58.36800003051758" stroke-width="1.1458500025431315"/><line stroke="#f00" opacity="1" x1="262.6700134277344" y1="92.06400299072266" x2="279.7879943847656" y2="121.33100128173828" stroke-width="1.1458500025431315"/><line stroke="#f00" opacity="0.5" x1="279.7879943847656" y1="121.33100128173828" x2="313.2070007324219" y2="121.25700378417969" stroke-width="1.1458500025431315"/><line stroke="#f00" opacity="1" x1="313.2070007324219" y1="121.25700378417969" x2="330.0530090332031" y2="92.13800048828125" stroke-width="1.1458500025431315"/><line stroke="#f00" opacity="0.5" x1="330.0530090332031" y1="58.36800003051758" x2="363.44500732421875" y2="58.36800003051758" stroke-width="1.1458500025431315"/><line stroke="#f00" opacity="0.5" x1="330.0530090332031" y1="92.13800048828125" x2="363.5639953613281" y2="92.06300354003906" stroke-width="1.1458500025431315"/><line stroke="#f00" opacity="0.6667" x1="330.0530090332031" y1="92.13800048828125" x2="330.0530090332031" y2="58.36800003051758" stroke-width="1.1458500025431315"/><line stroke="#f00" opacity="0.5" x1="313.2070007324219" y1="121.25700378417969" x2="347.02099609375" y2="121.33100128173828" stroke-width="1.1458500025431315"/><line stroke="#f00" opacity="1" x1="380.35699462890625" y1="29.174999237060547" x2="363.44500732421875" y2="58.36800003051758" stroke-width="1.1458500025431315"/><line stroke="#f00" opacity="1" x1="245.8679962158203" y1="121.33100128173828" x2="228.95599365234375" y2="92.06300354003906" stroke-width="1.1458500025431315"/><line stroke="#f00" opacity="1" x1="397.3760070800781" y1="58.36899948120117" x2="414.1189880371094" y2="29.174999237060547" stroke-width="1.1458500025431315"/><line stroke="#f00" opacity="1" x1="447.8160095214844" y1="29.174999237060547" x2="464.6619873046875" y2="58.36800003051758" stroke-width="1.1458500025431315"/><line stroke="#f00" opacity="0.6667" x1="363.5639953613281" y1="92.06300354003906" x2="363.44500732421875" y2="58.36800003051758" stroke-width="1.1458500025431315"/><line stroke="#f00" opacity="1" x1="397.27801513671875" y1="92.06400299072266" x2="414.39599609375" y2="121.33100128173828" stroke-width="1.1458500025431315"/><line stroke="#f00" opacity="0.5" x1="414.39599609375" y1="121.33100128173828" x2="447.8160095214844" y2="121.25700378417969" stroke-width="1.1458500025431315"/><line stroke="#f00" opacity="1" x1="447.8160095214844" y1="121.25700378417969" x2="464.6619873046875" y2="92.13800048828125" stroke-width="1.1458500025431315"/><line stroke="#f00" opacity="0.5" x1="464.6619873046875" y1="58.36800003051758" x2="498.0669860839844" y2="58.36800003051758" stroke-width="1.1458500025431315"/><line stroke="#f00" opacity="0.5" x1="464.6619873046875" y1="92.13800048828125" x2="498.1860046386719" y2="92.06300354003906" stroke-width="1.1458500025431315"/><line stroke="#f00" opacity="0.6667" x1="464.6619873046875" y1="92.13800048828125" x2="464.6619873046875" y2="58.36800003051758" stroke-width="1.1458500025431315"/><line stroke="#f00" opacity="0.5" x1="447.8160095214844" y1="121.25700378417969" x2="481.6300048828125" y2="121.33100128173828" stroke-width="1.1458500025431315"/><line stroke="#f00" opacity="1" x1="245.87100219726562" y1="154.9510040283203" x2="228.83700561523438" y2="184.1439971923828" stroke-width="1.1458500025431315"/><line stroke="#f00" opacity="1" x1="380.47698974609375" y1="121.33100128173828" x2="363.5639953613281" y2="92.06300354003906" stroke-width="1.1458500025431315"/><line stroke="#f00" opacity="1" x1="262.7669982910156" y1="184.14500427246094" x2="279.5669860839844" y2="154.8769989013672" stroke-width="1.1458500025431315"/><line stroke="#f00" opacity="0.5" x1="279.5669860839844" y1="154.8769989013672" x2="313.2070007324219" y2="154.95199584960938" stroke-width="1.1458500025431315"/><line stroke="#f00" opacity="1" x1="313.2070007324219" y1="154.95199584960938" x2="330.0530090332031" y2="184.1439971923828" stroke-width="1.1458500025431315"/><line stroke="#f00" opacity="0.5" x1="313.2070007324219" y1="154.95199584960938" x2="347.0249938964844" y2="154.9510040283203" stroke-width="1.1458500025431315"/><line stroke="#f00" opacity="0.6667" x1="228.95599365234375" y1="217.83900451660156" x2="228.83700561523438" y2="184.1439971923828" stroke-width="1.1458500025431315"/><line stroke="#f00" opacity="1" x1="262.6700134277344" y1="217.83999633789062" x2="279.7879943847656" y2="247.10699462890625" stroke-width="1.1458500025431315"/><line stroke="#f00" opacity="0.5" x1="279.7879943847656" y1="247.10699462890625" x2="313.2070007324219" y2="247.0330047607422" stroke-width="1.1458500025431315"/><line stroke="#f00" opacity="1" x1="313.2070007324219" y1="247.0330047607422" x2="330.0530090332031" y2="217.91400146484375" stroke-width="1.1458500025431315"/><line stroke="#f00" opacity="0.5" x1="330.0530090332031" y1="184.1439971923828" x2="363.44500732421875" y2="184.1439971923828" stroke-width="1.1458500025431315"/><line stroke="#f00" opacity="0.5" x1="330.0530090332031" y1="217.91400146484375" x2="363.5639953613281" y2="217.83900451660156" stroke-width="1.1458500025431315"/><line stroke="#f00" opacity="0.6667" x1="330.0530090332031" y1="217.91400146484375" x2="330.0530090332031" y2="184.1439971923828" stroke-width="1.1458500025431315"/><line stroke="#f00" opacity="0.5" x1="313.2070007324219" y1="247.0330047607422" x2="347.02099609375" y2="247.10699462890625" stroke-width="1.1458500025431315"/><line stroke="#f00" opacity="1" x1="380.4800109863281" y1="154.9510040283203" x2="363.44500732421875" y2="184.1439971923828" stroke-width="1.1458500025431315"/><line stroke="#f00" opacity="1" x1="245.8679962158203" y1="247.10699462890625" x2="228.95599365234375" y2="217.83900451660156" stroke-width="1.1458500025431315"/><line stroke="#f00" opacity="1" x1="397.3760070800781" y1="184.14500427246094" x2="414.17498779296875" y2="154.8769989013672" stroke-width="1.1458500025431315"/><line stroke="#f00" opacity="0.5" x1="414.17498779296875" y1="154.8769989013672" x2="447.8160095214844" y2="154.95199584960938" stroke-width="1.1458500025431315"/><line stroke="#f00" opacity="1" x1="447.8160095214844" y1="154.95199584960938" x2="464.6619873046875" y2="184.1439971923828" stroke-width="1.1458500025431315"/><line stroke="#f00" opacity="0.5" x1="447.8160095214844" y1="154.95199584960938" x2="481.63299560546875" y2="154.9510040283203" stroke-width="1.1458500025431315"/><line stroke="#f00" opacity="0.6667" x1="363.5639953613281" y1="217.83900451660156" x2="363.44500732421875" y2="184.1439971923828" stroke-width="1.1458500025431315"/><line stroke="#f00" opacity="1" x1="397.27801513671875" y1="217.83999633789062" x2="414.39599609375" y2="247.10699462890625" stroke-width="1.1458500025431315"/><line stroke="#f00" opacity="0.5" x1="414.39599609375" y1="247.10699462890625" x2="447.8160095214844" y2="247.0330047607422" stroke-width="1.1458500025431315"/><line stroke="#f00" opacity="1" x1="447.8160095214844" y1="247.0330047607422" x2="464.6619873046875" y2="217.91400146484375" stroke-width="1.1458500025431315"/><line stroke="#f00" opacity="0.5" x1="464.6619873046875" y1="184.1439971923828" x2="498.0669860839844" y2="184.1439971923828" stroke-width="1.1458500025431315"/><line stroke="#f00" opacity="0.5" x1="464.6619873046875" y1="217.91400146484375" x2="498.1860046386719" y2="217.83900451660156" stroke-width="1.1458500025431315"/><line stroke="#f00" opacity="0.6667" x1="464.6619873046875" y1="217.91400146484375" x2="464.6619873046875" y2="184.1439971923828" stroke-width="1.1458500025431315"/><line stroke="#f00" opacity="0.5" x1="447.8160095214844" y1="247.0330047607422" x2="481.6300048828125" y2="247.10699462890625" stroke-width="1.1458500025431315"/><line stroke="#f00" opacity="1" x1="245.87100219726562" y1="280.72900390625" x2="228.83700561523438" y2="309.9209899902344" stroke-width="1.1458500025431315"/><line stroke="#f00" opacity="1" x1="380.47698974609375" y1="247.10699462890625" x2="363.5639953613281" y2="217.83900451660156" stroke-width="1.1458500025431315"/><line stroke="#f00" opacity="1" x1="262.7669982910156" y1="309.9209899902344" x2="279.5669860839844" y2="280.65301513671875" stroke-width="1.1458500025431315"/><line stroke="#f00" opacity="0.5" x1="279.5669860839844" y1="280.65301513671875" x2="313.2070007324219" y2="280.72900390625" stroke-width="1.1458500025431315"/><line stroke="#f00" opacity="1" x1="313.2070007324219" y1="280.72900390625" x2="330.0530090332031" y2="309.9209899902344" stroke-width="1.1458500025431315"/><line stroke="#f00" opacity="0.5" x1="313.2070007324219" y1="280.72900390625" x2="347.0249938964844" y2="280.72900390625" stroke-width="1.1458500025431315"/><line stroke="#f00" opacity="0.5" x1="228.95599365234375" y1="343.6159973144531" x2="228.83700561523438" y2="309.9209899902344" stroke-width="1.1458500025431315"/><line stroke="#f00" opacity="1" x1="262.6700134277344" y1="343.6159973144531" x2="279.510986328125" y2="372.8089904785156" stroke-width="1.1458500025431315"/><line stroke="#f00" opacity="1" x1="313.2070007324219" y1="372.8089904785156" x2="330.0530090332031" y2="343.6910095214844" stroke-width="1.1458500025431315"/><line stroke="#f00" opacity="0.5" x1="330.0530090332031" y1="309.9209899902344" x2="363.44500732421875" y2="309.9209899902344" stroke-width="1.1458500025431315"/><line stroke="#f00" opacity="0.5" x1="330.0530090332031" y1="343.6910095214844" x2="363.5639953613281" y2="343.6159973144531" stroke-width="1.1458500025431315"/><line stroke="#f00" opacity="0.5" x1="330.0530090332031" y1="343.6910095214844" x2="330.0530090332031" y2="309.9209899902344" stroke-width="1.1458500025431315"/><line stroke="#f00" opacity="1" x1="380.4800109863281" y1="280.72900390625" x2="363.44500732421875" y2="309.9209899902344" stroke-width="1.1458500025431315"/><line stroke="#f00" opacity="1" x1="245.7480010986328" y1="372.88299560546875" x2="228.95599365234375" y2="343.6159973144531" stroke-width="1.1458500025431315"/><line stroke="#f00" opacity="1" x1="397.3760070800781" y1="309.9209899902344" x2="414.17498779296875" y2="280.65301513671875" stroke-width="1.1458500025431315"/><line stroke="#f00" opacity="0.5" x1="414.17498779296875" y1="280.65301513671875" x2="447.8160095214844" y2="280.72900390625" stroke-width="1.1458500025431315"/><line stroke="#f00" opacity="1" x1="447.8160095214844" y1="280.72900390625" x2="464.6619873046875" y2="309.9209899902344" stroke-width="1.1458500025431315"/><line stroke="#f00" opacity="0.5" x1="447.8160095214844" y1="280.72900390625" x2="481.63299560546875" y2="280.72900390625" stroke-width="1.1458500025431315"/><line stroke="#f00" opacity="0.5" x1="363.5639953613281" y1="343.6159973144531" x2="363.44500732421875" y2="309.9209899902344" stroke-width="1.1458500025431315"/><line stroke="#f00" opacity="1" x1="397.27801513671875" y1="343.6159973144531" x2="414.1189880371094" y2="372.8089904785156" stroke-width="1.1458500025431315"/><line stroke="#f00" opacity="1" x1="447.8160095214844" y1="372.8089904785156" x2="464.6619873046875" y2="343.6910095214844" stroke-width="1.1458500025431315"/><line stroke="#f00" opacity="0.5" x1="464.6619873046875" y1="309.9209899902344" x2="498.0669860839844" y2="309.9209899902344" stroke-width="1.1458500025431315"/><line stroke="#f00" opacity="0.5" x1="464.6619873046875" y1="343.6910095214844" x2="498.1860046386719" y2="343.6159973144531" stroke-width="1.1458500025431315"/><line stroke="#f00" opacity="0.5" x1="464.6619873046875" y1="343.6910095214844" x2="464.6619873046875" y2="309.9209899902344" stroke-width="1.1458500025431315"/><line stroke="#f00" opacity="1" x1="514.9769897460938" y1="29.174999237060547" x2="498.0669860839844" y2="58.36800003051758" stroke-width="1.1458500025431315"/><line stroke="#f00" opacity="1" x1="380.3550109863281" y1="372.88299560546875" x2="363.5639953613281" y2="343.6159973144531" stroke-width="1.1458500025431315"/><line stroke="#f00" opacity="1" x1="531.9949951171875" y1="58.36899948120117" x2="548.739990234375" y2="29.174999237060547" stroke-width="1.1458500025431315"/><line stroke="#f00" opacity="1" x1="582.4359741210938" y1="29.174999237060547" x2="599.281982421875" y2="58.36800003051758" stroke-width="1.1458500025431315"/><line stroke="#f00" opacity="0.6667" x1="498.1860046386719" y1="92.06300354003906" x2="498.0669860839844" y2="58.36800003051758" stroke-width="1.1458500025431315"/><line stroke="#f00" opacity="1" x1="531.8980102539062" y1="92.06400299072266" x2="549.0180053710938" y2="121.33100128173828" stroke-width="1.1458500025431315"/><line stroke="#f00" opacity="0.5" x1="549.0180053710938" y1="121.33100128173828" x2="582.4359741210938" y2="121.25700378417969" stroke-width="1.1458500025431315"/><line stroke="#f00" opacity="1" x1="582.4359741210938" y1="121.25700378417969" x2="599.281982421875" y2="92.13800048828125" stroke-width="1.1458500025431315"/><line stroke="#f00" opacity="0.5" x1="599.281982421875" y1="58.36800003051758" x2="632.6740112304688" y2="58.36800003051758" stroke-width="1.1458500025431315"/><line stroke="#f00" opacity="0.5" x1="599.281982421875" y1="92.13800048828125" x2="632.7930297851562" y2="92.06300354003906" stroke-width="1.1458500025431315"/><line stroke="#f00" opacity="0.6667" x1="599.281982421875" y1="92.13800048828125" x2="599.281982421875" y2="58.36800003051758" stroke-width="1.1458500025431315"/><line stroke="#f00" opacity="0.5" x1="582.4359741210938" y1="121.25700378417969" x2="616.2490234375" y2="121.33100128173828" stroke-width="1.1458500025431315"/><line stroke="#f00" opacity="1" x1="649.5850219726562" y1="29.174999237060547" x2="632.6740112304688" y2="58.36800003051758" stroke-width="1.1458500025431315"/><line stroke="#f00" opacity="1" x1="515.0969848632812" y1="121.33100128173828" x2="498.1860046386719" y2="92.06300354003906" stroke-width="1.1458500025431315"/><line stroke="#f00" opacity="1" x1="666.60498046875" y1="58.36899948120117" x2="683.3480224609375" y2="29.174999237060547" stroke-width="1.1458500025431315"/><line stroke="#f00" opacity="0.6667" x1="632.7930297851562" y1="92.06300354003906" x2="632.6740112304688" y2="58.36800003051758" stroke-width="1.1458500025431315"/><line stroke="#f00" opacity="1" x1="666.5070190429688" y1="92.06400299072266" x2="683.625" y2="121.33100128173828" stroke-width="1.1458500025431315"/><line stroke="#f00" opacity="0.5" x1="683.625" y1="121.33100128173828" x2="717.0430297851562" y2="121.25700378417969" stroke-width="1.1458500025431315"/><line stroke="#f00" opacity="1" x1="515.1019897460938" y1="154.9510040283203" x2="498.0669860839844" y2="184.1439971923828" stroke-width="1.1458500025431315"/><line stroke="#f00" opacity="1" x1="649.7050170898438" y1="121.33100128173828" x2="632.7930297851562" y2="92.06300354003906" stroke-width="1.1458500025431315"/><line stroke="#f00" opacity="1" x1="531.9949951171875" y1="184.14500427246094" x2="548.7949829101562" y2="154.8769989013672" stroke-width="1.1458500025431315"/><line stroke="#f00" opacity="0.5" x1="548.7949829101562" y1="154.8769989013672" x2="582.4359741210938" y2="154.95199584960938" stroke-width="1.1458500025431315"/><line stroke="#f00" opacity="1" x1="582.4359741210938" y1="154.95199584960938" x2="599.281982421875" y2="184.1439971923828" stroke-width="1.1458500025431315"/><line stroke="#f00" opacity="0.5" x1="582.4359741210938" y1="154.95199584960938" x2="616.2540283203125" y2="154.9510040283203" stroke-width="1.1458500025431315"/><line stroke="#f00" opacity="0.6667" x1="498.1860046386719" y1="217.83900451660156" x2="498.0669860839844" y2="184.1439971923828" stroke-width="1.1458500025431315"/><line stroke="#f00" opacity="1" x1="531.8980102539062" y1="217.83999633789062" x2="549.0180053710938" y2="247.10699462890625" stroke-width="1.1458500025431315"/><line stroke="#f00" opacity="0.5" x1="549.0180053710938" y1="247.10699462890625" x2="582.4359741210938" y2="247.0330047607422" stroke-width="1.1458500025431315"/><line stroke="#f00" opacity="1" x1="582.4359741210938" y1="247.0330047607422" x2="599.281982421875" y2="217.91400146484375" stroke-width="1.1458500025431315"/><line stroke="#f00" opacity="0.5" x1="599.281982421875" y1="184.1439971923828" x2="632.6740112304688" y2="184.1439971923828" stroke-width="1.1458500025431315"/><line stroke="#f00" opacity="0.5" x1="599.281982421875" y1="217.91400146484375" x2="632.7930297851562" y2="217.83900451660156" stroke-width="1.1458500025431315"/><line stroke="#f00" opacity="0.6667" x1="599.281982421875" y1="217.91400146484375" x2="599.281982421875" y2="184.1439971923828" stroke-width="1.1458500025431315"/><line stroke="#f00" opacity="0.5" x1="582.4359741210938" y1="247.0330047607422" x2="616.2490234375" y2="247.10699462890625" stroke-width="1.1458500025431315"/><line stroke="#f00" opacity="1" x1="649.7080078125" y1="154.9510040283203" x2="632.6740112304688" y2="184.1439971923828" stroke-width="1.1458500025431315"/><line stroke="#f00" opacity="1" x1="515.0969848632812" y1="247.10699462890625" x2="498.1860046386719" y2="217.83900451660156" stroke-width="1.1458500025431315"/><line stroke="#f00" opacity="1" x1="666.60498046875" y1="184.14500427246094" x2="683.4030151367188" y2="154.8769989013672" stroke-width="1.1458500025431315"/><line stroke="#f00" opacity="0.5" x1="683.4030151367188" y1="154.8769989013672" x2="717.0430297851562" y2="154.95199584960938" stroke-width="1.1458500025431315"/><line stroke="#f00" opacity="0.6667" x1="632.7930297851562" y1="217.83900451660156" x2="632.6740112304688" y2="184.1439971923828" stroke-width="1.1458500025431315"/><line stroke="#f00" opacity="1" x1="666.5070190429688" y1="217.83999633789062" x2="683.625" y2="247.10699462890625" stroke-width="1.1458500025431315"/><line stroke="#f00" opacity="0.5" x1="683.625" y1="247.10699462890625" x2="717.0430297851562" y2="247.0330047607422" stroke-width="1.1458500025431315"/><line stroke="#f00" opacity="1" x1="515.1019897460938" y1="280.72900390625" x2="498.0669860839844" y2="309.9209899902344" stroke-width="1.1458500025431315"/><line stroke="#f00" opacity="1" x1="649.7050170898438" y1="247.10699462890625" x2="632.7930297851562" y2="217.83900451660156" stroke-width="1.1458500025431315"/><line stroke="#f00" opacity="1" x1="531.9949951171875" y1="309.9209899902344" x2="548.7949829101562" y2="280.65301513671875" stroke-width="1.1458500025431315"/><line stroke="#f00" opacity="0.5" x1="548.7949829101562" y1="280.65301513671875" x2="582.4359741210938" y2="280.72900390625" stroke-width="1.1458500025431315"/><line stroke="#f00" opacity="1" x1="582.4359741210938" y1="280.72900390625" x2="599.281982421875" y2="309.9209899902344" stroke-width="1.1458500025431315"/><line stroke="#f00" opacity="0.5" x1="582.4359741210938" y1="280.72900390625" x2="616.2540283203125" y2="280.72900390625" stroke-width="1.1458500025431315"/><line stroke="#f00" opacity="0.5" x1="498.1860046386719" y1="343.6159973144531" x2="498.0669860839844" y2="309.9209899902344" stroke-width="1.1458500025431315"/><line stroke="#f00" opacity="1" x1="531.8980102539062" y1="343.6159973144531" x2="548.739990234375" y2="372.8089904785156" stroke-width="1.1458500025431315"/><line stroke="#f00" opacity="1" x1="582.4359741210938" y1="372.8089904785156" x2="599.281982421875" y2="343.6910095214844" stroke-width="1.1458500025431315"/><line stroke="#f00" opacity="0.5" x1="599.281982421875" y1="309.9209899902344" x2="632.6740112304688" y2="309.9209899902344" stroke-width="1.1458500025431315"/><line stroke="#f00" opacity="0.5" x1="599.281982421875" y1="343.6910095214844" x2="632.7930297851562" y2="343.6159973144531" stroke-width="1.1458500025431315"/><line stroke="#f00" opacity="0.5" x1="599.281982421875" y1="343.6910095214844" x2="599.281982421875" y2="309.9209899902344" stroke-width="1.1458500025431315"/><line stroke="#f00" opacity="1" x1="649.7080078125" y1="280.72900390625" x2="632.6740112304688" y2="309.9209899902344" stroke-width="1.1458500025431315"/><line stroke="#f00" opacity="1" x1="514.9769897460938" y1="372.88299560546875" x2="498.1860046386719" y2="343.6159973144531" stroke-width="1.1458500025431315"/><line stroke="#f00" opacity="1" x1="666.60498046875" y1="309.9209899902344" x2="683.4030151367188" y2="280.65301513671875" stroke-width="1.1458500025431315"/><line stroke="#f00" opacity="0.5" x1="683.4030151367188" y1="280.65301513671875" x2="717.0430297851562" y2="280.72900390625" stroke-width="1.1458500025431315"/><line stroke="#f00" opacity="0.5" x1="632.7930297851562" y1="343.6159973144531" x2="632.6740112304688" y2="309.9209899902344" stroke-width="1.1458500025431315"/><line stroke="#f00" opacity="1" x1="666.5070190429688" y1="343.6159973144531" x2="683.3480224609375" y2="372.8089904785156" stroke-width="1.1458500025431315"/><line stroke="#f00" opacity="1" x1="649.5850219726562" y1="372.8840026855469" x2="632.7930297851562" y2="343.6159973144531" stroke-width="1.1458500025431315"/><line stroke="#00f" opacity="1" x1="26.900999069213867" y1="58.36800003051758" x2="43.749000549316406" y2="29.174999237060547" stroke-width="1.1458500025431315"/><line stroke="#00f" opacity="1" x1="77.44400024414062" y1="29.174999237060547" x2="60.59600067138672" y2="58.36800003051758" stroke-width="1.1458500025431315"/><line stroke="#00f" opacity="1" x1="26.900999069213867" y1="92.06400299072266" x2="43.749000549316406" y2="121.25700378417969" stroke-width="1.1458500025431315"/><line stroke="#00f" opacity="1" x1="77.56400299072266" y1="121.33100128173828" x2="60.59600067138672" y2="92.13800048828125" stroke-width="1.1458500025431315"/><line stroke="#00f" opacity="1" x1="110.89900207519531" y1="29.174999237060547" x2="127.91799926757812" y2="58.36899948120117" stroke-width="1.1458500025431315"/><line stroke="#00f" opacity="1" x1="161.61500549316406" y1="58.36899948120117" x2="178.35800170898438" y2="29.174999237060547" stroke-width="1.1458500025431315"/><line stroke="#00f" opacity="1" x1="212.05299377441406" y1="29.174999237060547" x2="195.2050018310547" y2="58.36800003051758" stroke-width="1.1458500025431315"/><line stroke="#00f" opacity="1" x1="111.0199966430664" y1="121.33100128173828" x2="127.82099914550781" y2="92.06400299072266" stroke-width="1.1458500025431315"/><line stroke="#00f" opacity="0.6667" x1="127.82099914550781" y1="92.06400299072266" x2="127.91799926757812" y2="58.36899948120117" stroke-width="1.1458500025431315"/><line stroke="#00f" opacity="0.5" x1="94.10800170898438" y1="92.06300354003906" x2="127.82099914550781" y2="92.06400299072266" stroke-width="1.1458500025431315"/><line stroke="#00f" opacity="0.5" x1="93.98899841308594" y1="58.36800003051758" x2="127.91799926757812" y2="58.36899948120117" stroke-width="1.1458500025431315"/><line stroke="#00f" opacity="1" x1="161.61900329589844" y1="92.06400299072266" x2="178.35800170898438" y2="121.25700378417969" stroke-width="1.1458500025431315"/><line stroke="#00f" opacity="0.6667" x1="161.61500549316406" y1="58.36899948120117" x2="161.61900329589844" y2="92.06400299072266" stroke-width="1.1458500025431315"/><line stroke="#00f" opacity="0.5" x1="127.82099914550781" y1="92.06400299072266" x2="161.61900329589844" y2="92.06400299072266" stroke-width="1.1458500025431315"/><line stroke="#00f" opacity="0.5" x1="127.91799926757812" y1="58.36899948120117" x2="161.61500549316406" y2="58.36899948120117" stroke-width="1.1458500025431315"/><line stroke="#00f" opacity="1" x1="212.1719970703125" y1="121.33100128173828" x2="195.2050018310547" y2="92.13800048828125" stroke-width="1.1458500025431315"/><line stroke="#00f" opacity="1" x1="26.900999069213867" y1="184.14500427246094" x2="43.749000549316406" y2="154.95199584960938" stroke-width="1.1458500025431315"/><line stroke="#00f" opacity="1" x1="77.56800079345703" y1="154.9510040283203" x2="60.59600067138672" y2="184.1439971923828" stroke-width="1.1458500025431315"/><line stroke="#00f" opacity="1" x1="26.900999069213867" y1="217.83999633789062" x2="43.749000549316406" y2="247.0330047607422" stroke-width="1.1458500025431315"/><line stroke="#00f" opacity="1" x1="77.56400299072266" y1="247.10699462890625" x2="60.59600067138672" y2="217.91400146484375" stroke-width="1.1458500025431315"/><line stroke="#00f" opacity="1" x1="111.02200317382812" y1="154.9510040283203" x2="127.91799926757812" y2="184.14500427246094" stroke-width="1.1458500025431315"/><line stroke="#00f" opacity="1" x1="161.61500549316406" y1="184.14500427246094" x2="178.35800170898438" y2="154.95199584960938" stroke-width="1.1458500025431315"/><line stroke="#00f" opacity="1" x1="212.17599487304688" y1="154.9510040283203" x2="195.2050018310547" y2="184.1439971923828" stroke-width="1.1458500025431315"/><line stroke="#00f" opacity="1" x1="111.0199966430664" y1="247.10699462890625" x2="127.82099914550781" y2="217.83999633789062" stroke-width="1.1458500025431315"/><line stroke="#00f" opacity="0.6667" x1="127.82099914550781" y1="217.83999633789062" x2="127.91799926757812" y2="184.14500427246094" stroke-width="1.1458500025431315"/><line stroke="#00f" opacity="0.5" x1="94.10800170898438" y1="217.83900451660156" x2="127.82099914550781" y2="217.83999633789062" stroke-width="1.1458500025431315"/><line stroke="#00f" opacity="0.5" x1="93.98899841308594" y1="184.1439971923828" x2="127.91799926757812" y2="184.14500427246094" stroke-width="1.1458500025431315"/><line stroke="#00f" opacity="1" x1="161.61900329589844" y1="217.83999633789062" x2="178.35800170898438" y2="247.0330047607422" stroke-width="1.1458500025431315"/><line stroke="#00f" opacity="0.6667" x1="161.61500549316406" y1="184.14500427246094" x2="161.61900329589844" y2="217.83999633789062" stroke-width="1.1458500025431315"/><line stroke="#00f" opacity="0.5" x1="127.82099914550781" y1="217.83999633789062" x2="161.61900329589844" y2="217.83999633789062" stroke-width="1.1458500025431315"/><line stroke="#00f" opacity="0.5" x1="127.91799926757812" y1="184.14500427246094" x2="161.61500549316406" y2="184.14500427246094" stroke-width="1.1458500025431315"/><line stroke="#00f" opacity="1" x1="212.1719970703125" y1="247.10699462890625" x2="195.2050018310547" y2="217.91400146484375" stroke-width="1.1458500025431315"/><line stroke="#00f" opacity="1" x1="26.900999069213867" y1="309.9209899902344" x2="43.749000549316406" y2="280.72900390625" stroke-width="1.1458500025431315"/><line stroke="#00f" opacity="1" x1="77.56800079345703" y1="280.72900390625" x2="60.59600067138672" y2="309.9209899902344" stroke-width="1.1458500025431315"/><line stroke="#00f" opacity="1" x1="26.902000427246094" y1="343.6159973144531" x2="43.75" y2="372.8089904785156" stroke-width="1.1458500025431315"/><line stroke="#00f" opacity="1" x1="77.44400024414062" y1="372.8840026855469" x2="60.59600067138672" y2="343.6889953613281" stroke-width="1.1458500025431315"/><line stroke="#00f" opacity="1" x1="111.02200317382812" y1="280.72900390625" x2="127.91799926757812" y2="309.9209899902344" stroke-width="1.1458500025431315"/><line stroke="#00f" opacity="1" x1="161.61500549316406" y1="309.9209899902344" x2="178.35800170898438" y2="280.72900390625" stroke-width="1.1458500025431315"/><line stroke="#00f" opacity="1" x1="212.17599487304688" y1="280.72900390625" x2="195.2050018310547" y2="309.9209899902344" stroke-width="1.1458500025431315"/><line stroke="#00f" opacity="1" x1="110.9000015258789" y1="372.88299560546875" x2="127.82099914550781" y2="343.6159973144531" stroke-width="1.1458500025431315"/><line stroke="#00f" opacity="0.5" x1="127.82099914550781" y1="343.6159973144531" x2="127.91799926757812" y2="309.9209899902344" stroke-width="1.1458500025431315"/><line stroke="#00f" opacity="0.5" x1="94.10800170898438" y1="343.6159973144531" x2="127.82099914550781" y2="343.6159973144531" stroke-width="1.1458500025431315"/><line stroke="#00f" opacity="0.5" x1="93.98899841308594" y1="309.9209899902344" x2="127.91799926757812" y2="309.9209899902344" stroke-width="1.1458500025431315"/><line stroke="#00f" opacity="1" x1="161.61900329589844" y1="343.6159973144531" x2="178.35800170898438" y2="372.8089904785156" stroke-width="1.1458500025431315"/><line stroke="#00f" opacity="0.5" x1="161.61500549316406" y1="309.9209899902344" x2="161.61900329589844" y2="343.6159973144531" stroke-width="1.1458500025431315"/><line stroke="#00f" opacity="0.5" x1="127.82099914550781" y1="343.6159973144531" x2="161.61900329589844" y2="343.6159973144531" stroke-width="1.1458500025431315"/><line stroke="#00f" opacity="0.5" x1="127.91799926757812" y1="309.9209899902344" x2="161.61500549316406" y2="309.9209899902344" stroke-width="1.1458500025431315"/><line stroke="#00f" opacity="1" x1="212.05299377441406" y1="372.8840026855469" x2="195.2050018310547" y2="343.6910095214844" stroke-width="1.1458500025431315"/><line stroke="#00f" opacity="1" x1="245.7480010986328" y1="29.174999237060547" x2="262.7669982910156" y2="58.36899948120117" stroke-width="1.1458500025431315"/><line stroke="#00f" opacity="1" x1="296.4639892578125" y1="58.36899948120117" x2="313.2070007324219" y2="29.174999237060547" stroke-width="1.1458500025431315"/><line stroke="#00f" opacity="1" x1="346.9010009765625" y1="29.174999237060547" x2="330.0530090332031" y2="58.36800003051758" stroke-width="1.1458500025431315"/><line stroke="#00f" opacity="1" x1="245.8679962158203" y1="121.33100128173828" x2="262.6700134277344" y2="92.06400299072266" stroke-width="1.1458500025431315"/><line stroke="#00f" opacity="0.6667" x1="262.6700134277344" y1="92.06400299072266" x2="262.7669982910156" y2="58.36899948120117" stroke-width="1.1458500025431315"/><line stroke="#00f" opacity="0.5" x1="228.95599365234375" y1="92.06300354003906" x2="262.6700134277344" y2="92.06400299072266" stroke-width="1.1458500025431315"/><line stroke="#00f" opacity="0.5" x1="228.83700561523438" y1="58.36800003051758" x2="262.7669982910156" y2="58.36899948120117" stroke-width="1.1458500025431315"/><line stroke="#00f" opacity="1" x1="296.468994140625" y1="92.06400299072266" x2="313.2070007324219" y2="121.25700378417969" stroke-width="1.1458500025431315"/><line stroke="#00f" opacity="0.6667" x1="296.4639892578125" y1="58.36899948120117" x2="296.468994140625" y2="92.06400299072266" stroke-width="1.1458500025431315"/><line stroke="#00f" opacity="0.5" x1="262.6700134277344" y1="92.06400299072266" x2="296.468994140625" y2="92.06400299072266" stroke-width="1.1458500025431315"/><line stroke="#00f" opacity="0.5" x1="262.7669982910156" y1="58.36899948120117" x2="296.4639892578125" y2="58.36899948120117" stroke-width="1.1458500025431315"/><line stroke="#00f" opacity="1" x1="347.02099609375" y1="121.33100128173828" x2="330.0530090332031" y2="92.13800048828125" stroke-width="1.1458500025431315"/><line stroke="#00f" opacity="1" x1="380.35699462890625" y1="29.174999237060547" x2="397.3760070800781" y2="58.36899948120117" stroke-width="1.1458500025431315"/><line stroke="#00f" opacity="1" x1="431.072998046875" y1="58.36899948120117" x2="447.8160095214844" y2="29.174999237060547" stroke-width="1.1458500025431315"/><line stroke="#00f" opacity="1" x1="481.510009765625" y1="29.174999237060547" x2="464.6619873046875" y2="58.36800003051758" stroke-width="1.1458500025431315"/><line stroke="#00f" opacity="1" x1="380.47698974609375" y1="121.33100128173828" x2="397.27801513671875" y2="92.06400299072266" stroke-width="1.1458500025431315"/><line stroke="#00f" opacity="0.6667" x1="397.27801513671875" y1="92.06400299072266" x2="397.3760070800781" y2="58.36899948120117" stroke-width="1.1458500025431315"/><line stroke="#00f" opacity="0.5" x1="363.5639953613281" y1="92.06300354003906" x2="397.27801513671875" y2="92.06400299072266" stroke-width="1.1458500025431315"/><line stroke="#00f" opacity="0.5" x1="363.44500732421875" y1="58.36800003051758" x2="397.3760070800781" y2="58.36899948120117" stroke-width="1.1458500025431315"/><line stroke="#00f" opacity="1" x1="431.07598876953125" y1="92.06400299072266" x2="447.8160095214844" y2="121.25700378417969" stroke-width="1.1458500025431315"/><line stroke="#00f" opacity="0.6667" x1="431.072998046875" y1="58.36899948120117" x2="431.07598876953125" y2="92.06400299072266" stroke-width="1.1458500025431315"/><line stroke="#00f" opacity="0.5" x1="397.27801513671875" y1="92.06400299072266" x2="431.07598876953125" y2="92.06400299072266" stroke-width="1.1458500025431315"/><line stroke="#00f" opacity="0.5" x1="397.3760070800781" y1="58.36899948120117" x2="431.072998046875" y2="58.36899948120117" stroke-width="1.1458500025431315"/><line stroke="#00f" opacity="1" x1="481.6300048828125" y1="121.33100128173828" x2="464.6619873046875" y2="92.13800048828125" stroke-width="1.1458500025431315"/><line stroke="#00f" opacity="1" x1="245.87100219726562" y1="154.9510040283203" x2="262.7669982910156" y2="184.14500427246094" stroke-width="1.1458500025431315"/><line stroke="#00f" opacity="1" x1="296.4639892578125" y1="184.14500427246094" x2="313.2070007324219" y2="154.95199584960938" stroke-width="1.1458500025431315"/><line stroke="#00f" opacity="1" x1="347.0249938964844" y1="154.9510040283203" x2="330.0530090332031" y2="184.1439971923828" stroke-width="1.1458500025431315"/><line stroke="#00f" opacity="1" x1="245.8679962158203" y1="247.10699462890625" x2="262.6700134277344" y2="217.83999633789062" stroke-width="1.1458500025431315"/><line stroke="#00f" opacity="0.6667" x1="262.6700134277344" y1="217.83999633789062" x2="262.7669982910156" y2="184.14500427246094" stroke-width="1.1458500025431315"/><line stroke="#00f" opacity="0.5" x1="228.95599365234375" y1="217.83900451660156" x2="262.6700134277344" y2="217.83999633789062" stroke-width="1.1458500025431315"/><line stroke="#00f" opacity="0.5" x1="228.83700561523438" y1="184.1439971923828" x2="262.7669982910156" y2="184.14500427246094" stroke-width="1.1458500025431315"/><line stroke="#00f" opacity="1" x1="296.468994140625" y1="217.83999633789062" x2="313.2070007324219" y2="247.0330047607422" stroke-width="1.1458500025431315"/><line stroke="#00f" opacity="0.6667" x1="296.4639892578125" y1="184.14500427246094" x2="296.468994140625" y2="217.83999633789062" stroke-width="1.1458500025431315"/><line stroke="#00f" opacity="0.5" x1="262.6700134277344" y1="217.83999633789062" x2="296.468994140625" y2="217.83999633789062" stroke-width="1.1458500025431315"/><line stroke="#00f" opacity="0.5" x1="262.7669982910156" y1="184.14500427246094" x2="296.4639892578125" y2="184.14500427246094" stroke-width="1.1458500025431315"/><line stroke="#00f" opacity="1" x1="347.02099609375" y1="247.10699462890625" x2="330.0530090332031" y2="217.91400146484375" stroke-width="1.1458500025431315"/><line stroke="#00f" opacity="1" x1="380.4800109863281" y1="154.9510040283203" x2="397.3760070800781" y2="184.14500427246094" stroke-width="1.1458500025431315"/><line stroke="#00f" opacity="1" x1="431.072998046875" y1="184.14500427246094" x2="447.8160095214844" y2="154.95199584960938" stroke-width="1.1458500025431315"/><line stroke="#00f" opacity="1" x1="481.63299560546875" y1="154.9510040283203" x2="464.6619873046875" y2="184.1439971923828" stroke-width="1.1458500025431315"/><line stroke="#00f" opacity="1" x1="380.47698974609375" y1="247.10699462890625" x2="397.27801513671875" y2="217.83999633789062" stroke-width="1.1458500025431315"/><line stroke="#00f" opacity="0.6667" x1="397.27801513671875" y1="217.83999633789062" x2="397.3760070800781" y2="184.14500427246094" stroke-width="1.1458500025431315"/><line stroke="#00f" opacity="0.5" x1="363.5639953613281" y1="217.83900451660156" x2="397.27801513671875" y2="217.83999633789062" stroke-width="1.1458500025431315"/><line stroke="#00f" opacity="0.5" x1="363.44500732421875" y1="184.1439971923828" x2="397.3760070800781" y2="184.14500427246094" stroke-width="1.1458500025431315"/><line stroke="#00f" opacity="1" x1="431.07598876953125" y1="217.83999633789062" x2="447.8160095214844" y2="247.0330047607422" stroke-width="1.1458500025431315"/><line stroke="#00f" opacity="0.6667" x1="431.072998046875" y1="184.14500427246094" x2="431.07598876953125" y2="217.83999633789062" stroke-width="1.1458500025431315"/><line stroke="#00f" opacity="0.5" x1="397.27801513671875" y1="217.83999633789062" x2="431.07598876953125" y2="217.83999633789062" stroke-width="1.1458500025431315"/><line stroke="#00f" opacity="0.5" x1="397.3760070800781" y1="184.14500427246094" x2="431.072998046875" y2="184.14500427246094" stroke-width="1.1458500025431315"/><line stroke="#00f" opacity="1" x1="481.6300048828125" y1="247.10699462890625" x2="464.6619873046875" y2="217.91400146484375" stroke-width="1.1458500025431315"/><line stroke="#00f" opacity="1" x1="245.87100219726562" y1="280.72900390625" x2="262.7669982910156" y2="309.9209899902344" stroke-width="1.1458500025431315"/><line stroke="#00f" opacity="1" x1="296.4639892578125" y1="309.9209899902344" x2="313.2070007324219" y2="280.72900390625" stroke-width="1.1458500025431315"/><line stroke="#00f" opacity="1" x1="347.0249938964844" y1="280.72900390625" x2="330.0530090332031" y2="309.9209899902344" stroke-width="1.1458500025431315"/><line stroke="#00f" opacity="1" x1="245.7480010986328" y1="372.88299560546875" x2="262.6700134277344" y2="343.6159973144531" stroke-width="1.1458500025431315"/><line stroke="#00f" opacity="0.5" x1="262.6700134277344" y1="343.6159973144531" x2="262.7669982910156" y2="309.9209899902344" stroke-width="1.1458500025431315"/><line stroke="#00f" opacity="0.5" x1="228.95599365234375" y1="343.6159973144531" x2="262.6700134277344" y2="343.6159973144531" stroke-width="1.1458500025431315"/><line stroke="#00f" opacity="0.5" x1="228.83700561523438" y1="309.9209899902344" x2="262.7669982910156" y2="309.9209899902344" stroke-width="1.1458500025431315"/><line stroke="#00f" opacity="1" x1="296.468994140625" y1="343.6159973144531" x2="313.2070007324219" y2="372.8089904785156" stroke-width="1.1458500025431315"/><line stroke="#00f" opacity="0.5" x1="296.4639892578125" y1="309.9209899902344" x2="296.468994140625" y2="343.6159973144531" stroke-width="1.1458500025431315"/><line stroke="#00f" opacity="0.5" x1="262.6700134277344" y1="343.6159973144531" x2="296.468994140625" y2="343.6159973144531" stroke-width="1.1458500025431315"/><line stroke="#00f" opacity="0.5" x1="262.7669982910156" y1="309.9209899902344" x2="296.4639892578125" y2="309.9209899902344" stroke-width="1.1458500025431315"/><line stroke="#00f" opacity="1" x1="346.9010009765625" y1="372.8840026855469" x2="330.0530090332031" y2="343.6910095214844" stroke-width="1.1458500025431315"/><line stroke="#00f" opacity="1" x1="380.4800109863281" y1="280.72900390625" x2="397.3760070800781" y2="309.9209899902344" stroke-width="1.1458500025431315"/><line stroke="#00f" opacity="1" x1="431.072998046875" y1="309.9209899902344" x2="447.8160095214844" y2="280.72900390625" stroke-width="1.1458500025431315"/><line stroke="#00f" opacity="1" x1="481.63299560546875" y1="280.72900390625" x2="464.6619873046875" y2="309.9209899902344" stroke-width="1.1458500025431315"/><line stroke="#00f" opacity="1" x1="380.3550109863281" y1="372.88299560546875" x2="397.27801513671875" y2="343.6159973144531" stroke-width="1.1458500025431315"/><line stroke="#00f" opacity="0.5" x1="397.27801513671875" y1="343.6159973144531" x2="397.3760070800781" y2="309.9209899902344" stroke-width="1.1458500025431315"/><line stroke="#00f" opacity="0.5" x1="363.5639953613281" y1="343.6159973144531" x2="397.27801513671875" y2="343.6159973144531" stroke-width="1.1458500025431315"/><line stroke="#00f" opacity="0.5" x1="363.44500732421875" y1="309.9209899902344" x2="397.3760070800781" y2="309.9209899902344" stroke-width="1.1458500025431315"/><line stroke="#00f" opacity="1" x1="431.07598876953125" y1="343.6159973144531" x2="447.8160095214844" y2="372.8089904785156" stroke-width="1.1458500025431315"/><line stroke="#00f" opacity="0.5" x1="431.072998046875" y1="309.9209899902344" x2="431.07598876953125" y2="343.6159973144531" stroke-width="1.1458500025431315"/><line stroke="#00f" opacity="0.5" x1="397.27801513671875" y1="343.6159973144531" x2="431.07598876953125" y2="343.6159973144531" stroke-width="1.1458500025431315"/><line stroke="#00f" opacity="0.5" x1="397.3760070800781" y1="309.9209899902344" x2="431.072998046875" y2="309.9209899902344" stroke-width="1.1458500025431315"/><line stroke="#00f" opacity="1" x1="481.510009765625" y1="372.8840026855469" x2="464.6619873046875" y2="343.6910095214844" stroke-width="1.1458500025431315"/><line stroke="#00f" opacity="1" x1="514.9769897460938" y1="29.174999237060547" x2="531.9949951171875" y2="58.36899948120117" stroke-width="1.1458500025431315"/><line stroke="#00f" opacity="1" x1="565.6909790039062" y1="58.36899948120117" x2="582.4359741210938" y2="29.174999237060547" stroke-width="1.1458500025431315"/><line stroke="#00f" opacity="1" x1="616.1300048828125" y1="29.174999237060547" x2="599.281982421875" y2="58.36800003051758" stroke-width="1.1458500025431315"/><line stroke="#00f" opacity="1" x1="515.0969848632812" y1="121.33100128173828" x2="531.8980102539062" y2="92.06400299072266" stroke-width="1.1458500025431315"/><line stroke="#00f" opacity="0.6667" x1="531.8980102539062" y1="92.06400299072266" x2="531.9949951171875" y2="58.36899948120117" stroke-width="1.1458500025431315"/><line stroke="#00f" opacity="0.5" x1="498.1860046386719" y1="92.06300354003906" x2="531.8980102539062" y2="92.06400299072266" stroke-width="1.1458500025431315"/><line stroke="#00f" opacity="0.5" x1="498.0669860839844" y1="58.36800003051758" x2="531.9949951171875" y2="58.36899948120117" stroke-width="1.1458500025431315"/><line stroke="#00f" opacity="1" x1="565.6959838867188" y1="92.06400299072266" x2="582.4359741210938" y2="121.25700378417969" stroke-width="1.1458500025431315"/><line stroke="#00f" opacity="0.6667" x1="565.6909790039062" y1="58.36899948120117" x2="565.6959838867188" y2="92.06400299072266" stroke-width="1.1458500025431315"/><line stroke="#00f" opacity="0.5" x1="531.8980102539062" y1="92.06400299072266" x2="565.6959838867188" y2="92.06400299072266" stroke-width="1.1458500025431315"/><line stroke="#00f" opacity="0.5" x1="531.9949951171875" y1="58.36899948120117" x2="565.6909790039062" y2="58.36899948120117" stroke-width="1.1458500025431315"/><line stroke="#00f" opacity="1" x1="616.2490234375" y1="121.33100128173828" x2="599.281982421875" y2="92.13800048828125" stroke-width="1.1458500025431315"/><line stroke="#00f" opacity="1" x1="649.5850219726562" y1="29.174999237060547" x2="666.60498046875" y2="58.36899948120117" stroke-width="1.1458500025431315"/><line stroke="#00f" opacity="1" x1="700.301025390625" y1="58.36899948120117" x2="717.0430297851562" y2="29.174999237060547" stroke-width="1.1458500025431315"/><line stroke="#00f" opacity="1" x1="649.7050170898438" y1="121.33100128173828" x2="666.5070190429688" y2="92.06400299072266" stroke-width="1.1458500025431315"/><line stroke="#00f" opacity="0.6667" x1="666.5070190429688" y1="92.06400299072266" x2="666.60498046875" y2="58.36899948120117" stroke-width="1.1458500025431315"/><line stroke="#00f" opacity="0.5" x1="632.7930297851562" y1="92.06300354003906" x2="666.5070190429688" y2="92.06400299072266" stroke-width="1.1458500025431315"/><line stroke="#00f" opacity="0.5" x1="632.6740112304688" y1="58.36800003051758" x2="666.60498046875" y2="58.36899948120117" stroke-width="1.1458500025431315"/><line stroke="#00f" opacity="1" x1="700.3070068359375" y1="92.06400299072266" x2="717.0430297851562" y2="121.25700378417969" stroke-width="1.1458500025431315"/><line stroke="#00f" opacity="0.6667" x1="700.301025390625" y1="58.36899948120117" x2="700.3070068359375" y2="92.06400299072266" stroke-width="1.1458500025431315"/><line stroke="#00f" opacity="0.5" x1="666.5070190429688" y1="92.06400299072266" x2="700.3070068359375" y2="92.06400299072266" stroke-width="1.1458500025431315"/><line stroke="#00f" opacity="0.5" x1="666.60498046875" y1="58.36899948120117" x2="700.301025390625" y2="58.36899948120117" stroke-width="1.1458500025431315"/><line stroke="#00f" opacity="1" x1="515.1019897460938" y1="154.9510040283203" x2="531.9949951171875" y2="184.14500427246094" stroke-width="1.1458500025431315"/><line stroke="#00f" opacity="1" x1="565.6909790039062" y1="184.14500427246094" x2="582.4359741210938" y2="154.95199584960938" stroke-width="1.1458500025431315"/><line stroke="#00f" opacity="1" x1="616.2540283203125" y1="154.9510040283203" x2="599.281982421875" y2="184.1439971923828" stroke-width="1.1458500025431315"/><line stroke="#00f" opacity="1" x1="515.0969848632812" y1="247.10699462890625" x2="531.8980102539062" y2="217.83999633789062" stroke-width="1.1458500025431315"/><line stroke="#00f" opacity="0.6667" x1="531.8980102539062" y1="217.83999633789062" x2="531.9949951171875" y2="184.14500427246094" stroke-width="1.1458500025431315"/><line stroke="#00f" opacity="0.5" x1="498.1860046386719" y1="217.83900451660156" x2="531.8980102539062" y2="217.83999633789062" stroke-width="1.1458500025431315"/><line stroke="#00f" opacity="0.5" x1="498.0669860839844" y1="184.1439971923828" x2="531.9949951171875" y2="184.14500427246094" stroke-width="1.1458500025431315"/><line stroke="#00f" opacity="1" x1="565.6959838867188" y1="217.83999633789062" x2="582.4359741210938" y2="247.0330047607422" stroke-width="1.1458500025431315"/><line stroke="#00f" opacity="0.6667" x1="565.6909790039062" y1="184.14500427246094" x2="565.6959838867188" y2="217.83999633789062" stroke-width="1.1458500025431315"/><line stroke="#00f" opacity="0.5" x1="531.8980102539062" y1="217.83999633789062" x2="565.6959838867188" y2="217.83999633789062" stroke-width="1.1458500025431315"/><line stroke="#00f" opacity="0.5" x1="531.9949951171875" y1="184.14500427246094" x2="565.6909790039062" y2="184.14500427246094" stroke-width="1.1458500025431315"/><line stroke="#00f" opacity="1" x1="616.2490234375" y1="247.10699462890625" x2="599.281982421875" y2="217.91400146484375" stroke-width="1.1458500025431315"/><line stroke="#00f" opacity="1" x1="649.7080078125" y1="154.9510040283203" x2="666.60498046875" y2="184.14500427246094" stroke-width="1.1458500025431315"/><line stroke="#00f" opacity="1" x1="700.301025390625" y1="184.14500427246094" x2="717.0430297851562" y2="154.95199584960938" stroke-width="1.1458500025431315"/><line stroke="#00f" opacity="1" x1="649.7050170898438" y1="247.10699462890625" x2="666.5070190429688" y2="217.83999633789062" stroke-width="1.1458500025431315"/><line stroke="#00f" opacity="0.6667" x1="666.5070190429688" y1="217.83999633789062" x2="666.60498046875" y2="184.14500427246094" stroke-width="1.1458500025431315"/><line stroke="#00f" opacity="0.5" x1="632.7930297851562" y1="217.83900451660156" x2="666.5070190429688" y2="217.83999633789062" stroke-width="1.1458500025431315"/><line stroke="#00f" opacity="0.5" x1="632.6740112304688" y1="184.1439971923828" x2="666.60498046875" y2="184.14500427246094" stroke-width="1.1458500025431315"/><line stroke="#00f" opacity="1" x1="700.3070068359375" y1="217.83999633789062" x2="717.0430297851562" y2="247.0330047607422" stroke-width="1.1458500025431315"/><line stroke="#00f" opacity="0.6667" x1="700.301025390625" y1="184.14500427246094" x2="700.3070068359375" y2="217.83999633789062" stroke-width="1.1458500025431315"/><line stroke="#00f" opacity="0.5" x1="666.5070190429688" y1="217.83999633789062" x2="700.3070068359375" y2="217.83999633789062" stroke-width="1.1458500025431315"/><line stroke="#00f" opacity="0.5" x1="666.60498046875" y1="184.14500427246094" x2="700.301025390625" y2="184.14500427246094" stroke-width="1.1458500025431315"/><line stroke="#00f" opacity="1" x1="515.1019897460938" y1="280.72900390625" x2="531.9949951171875" y2="309.9209899902344" stroke-width="1.1458500025431315"/><line stroke="#00f" opacity="1" x1="565.6909790039062" y1="309.9209899902344" x2="582.4359741210938" y2="280.72900390625" stroke-width="1.1458500025431315"/><line stroke="#00f" opacity="1" x1="616.2540283203125" y1="280.72900390625" x2="599.281982421875" y2="309.9209899902344" stroke-width="1.1458500025431315"/><line stroke="#00f" opacity="1" x1="514.9769897460938" y1="372.88299560546875" x2="531.8980102539062" y2="343.6159973144531" stroke-width="1.1458500025431315"/><line stroke="#00f" opacity="0.5" x1="531.8980102539062" y1="343.6159973144531" x2="531.9949951171875" y2="309.9209899902344" stroke-width="1.1458500025431315"/><line stroke="#00f" opacity="0.5" x1="498.1860046386719" y1="343.6159973144531" x2="531.8980102539062" y2="343.6159973144531" stroke-width="1.1458500025431315"/><line stroke="#00f" opacity="0.5" x1="498.0669860839844" y1="309.9209899902344" x2="531.9949951171875" y2="309.9209899902344" stroke-width="1.1458500025431315"/><line stroke="#00f" opacity="1" x1="565.6959838867188" y1="343.6159973144531" x2="582.4359741210938" y2="372.8089904785156" stroke-width="1.1458500025431315"/><line stroke="#00f" opacity="0.5" x1="565.6909790039062" y1="309.9209899902344" x2="565.6959838867188" y2="343.6159973144531" stroke-width="1.1458500025431315"/><line stroke="#00f" opacity="0.5" x1="531.8980102539062" y1="343.6159973144531" x2="565.6959838867188" y2="343.6159973144531" stroke-width="1.1458500025431315"/><line stroke="#00f" opacity="0.5" x1="531.9949951171875" y1="309.9209899902344" x2="565.6909790039062" y2="309.9209899902344" stroke-width="1.1458500025431315"/><line stroke="#00f" opacity="1" x1="616.1300048828125" y1="372.8840026855469" x2="599.281982421875" y2="343.6910095214844" stroke-width="1.1458500025431315"/><line stroke="#00f" opacity="1" x1="649.7080078125" y1="280.72900390625" x2="666.60498046875" y2="309.9209899902344" stroke-width="1.1458500025431315"/><line stroke="#00f" opacity="1" x1="700.301025390625" y1="309.9209899902344" x2="717.0430297851562" y2="280.72900390625" stroke-width="1.1458500025431315"/><line stroke="#00f" opacity="1" x1="649.5850219726562" y1="372.8840026855469" x2="666.5070190429688" y2="343.6159973144531" stroke-width="1.1458500025431315"/><line stroke="#00f" opacity="0.5" x1="666.5070190429688" y1="343.6159973144531" x2="666.60498046875" y2="309.9209899902344" stroke-width="1.1458500025431315"/><line stroke="#00f" opacity="0.5" x1="632.7930297851562" y1="343.6159973144531" x2="666.5070190429688" y2="343.6159973144531" stroke-width="1.1458500025431315"/><line stroke="#00f" opacity="0.5" x1="632.6740112304688" y1="309.9209899902344" x2="666.60498046875" y2="309.9209899902344" stroke-width="1.1458500025431315"/><line stroke="#00f" opacity="1" x1="700.3070068359375" y1="343.6159973144531" x2="717.0430297851562" y2="372.8089904785156" stroke-width="1.1458500025431315"/><line stroke="#00f" opacity="0.5" x1="700.301025390625" y1="309.9209899902344" x2="700.3070068359375" y2="343.6159973144531" stroke-width="1.1458500025431315"/><line stroke="#00f" opacity="0.5" x1="666.5070190429688" y1="343.6159973144531" x2="700.3070068359375" y2="343.6159973144531" stroke-width="1.1458500025431315"/><line stroke="#00f" opacity="0.5" x1="666.60498046875" y1="309.9209899902344" x2="700.301025390625" y2="309.9209899902344" stroke-width="1.1458500025431315"/><line stroke="#f00" opacity="0.6667" x1="43.749000549316406" y1="121.25700378417969" x2="43.749000549316406" y2="154.95199584960938" stroke-width="1.1458500025431315"/><line stroke="#f00" opacity="0.5" x1="26.900999069213867" y1="58.36800003051758" x2="60.59600067138672" y2="58.36800003051758" stroke-width="1.1458500025431315"/><line stroke="#f00" opacity="0.5" x1="26.900999069213867" y1="92.06400299072266" x2="60.59600067138672" y2="92.13800048828125" stroke-width="1.1458500025431315"/><line stroke="#f00" opacity="0.6667" x1="144.93899536132812" y1="121.33100128173828" x2="144.71800231933594" y2="154.8769989013672" stroke-width="1.1458500025431315"/><line stroke="#f00" opacity="0.6667" x1="178.35800170898438" y1="121.25700378417969" x2="178.35800170898438" y2="154.95199584960938" stroke-width="1.1458500025431315"/><line stroke="#f00" opacity="0.5" x1="161.61500549316406" y1="58.36899948120117" x2="195.2050018310547" y2="58.36800003051758" stroke-width="1.1458500025431315"/><line stroke="#f00" opacity="0.5" x1="161.61900329589844" y1="92.06400299072266" x2="195.2050018310547" y2="92.13800048828125" stroke-width="1.1458500025431315"/><line stroke="#f00" opacity="0.6667" x1="43.749000549316406" y1="247.0330047607422" x2="43.749000549316406" y2="280.72900390625" stroke-width="1.1458500025431315"/><line stroke="#f00" opacity="0.5" x1="26.900999069213867" y1="184.14500427246094" x2="60.59600067138672" y2="184.1439971923828" stroke-width="1.1458500025431315"/><line stroke="#f00" opacity="0.5" x1="26.900999069213867" y1="217.83999633789062" x2="60.59600067138672" y2="217.91400146484375" stroke-width="1.1458500025431315"/><line stroke="#f00" opacity="0.6667" x1="144.93899536132812" y1="247.10699462890625" x2="144.71800231933594" y2="280.65301513671875" stroke-width="1.1458500025431315"/><line stroke="#f00" opacity="0.6667" x1="178.35800170898438" y1="247.0330047607422" x2="178.35800170898438" y2="280.72900390625" stroke-width="1.1458500025431315"/><line stroke="#f00" opacity="0.5" x1="161.61500549316406" y1="184.14500427246094" x2="195.2050018310547" y2="184.1439971923828" stroke-width="1.1458500025431315"/><line stroke="#f00" opacity="0.5" x1="161.61900329589844" y1="217.83999633789062" x2="195.2050018310547" y2="217.91400146484375" stroke-width="1.1458500025431315"/><line stroke="#f00" opacity="0.5" x1="26.900999069213867" y1="309.9209899902344" x2="60.59600067138672" y2="309.9209899902344" stroke-width="1.1458500025431315"/><line stroke="#f00" opacity="0.5" x1="26.902000427246094" y1="343.6159973144531" x2="60.59600067138672" y2="343.6889953613281" stroke-width="1.1458500025431315"/><line stroke="#f00" opacity="0.5" x1="161.61500549316406" y1="309.9209899902344" x2="195.2050018310547" y2="309.9209899902344" stroke-width="1.1458500025431315"/><line stroke="#f00" opacity="0.5" x1="161.61900329589844" y1="343.6159973144531" x2="195.2050018310547" y2="343.6910095214844" stroke-width="1.1458500025431315"/><line stroke="#f00" opacity="0.6667" x1="279.7879943847656" y1="121.33100128173828" x2="279.5669860839844" y2="154.8769989013672" stroke-width="1.1458500025431315"/><line stroke="#f00" opacity="0.6667" x1="313.2070007324219" y1="121.25700378417969" x2="313.2070007324219" y2="154.95199584960938" stroke-width="1.1458500025431315"/><line stroke="#f00" opacity="0.5" x1="296.4639892578125" y1="58.36899948120117" x2="330.0530090332031" y2="58.36800003051758" stroke-width="1.1458500025431315"/><line stroke="#f00" opacity="0.5" x1="296.468994140625" y1="92.06400299072266" x2="330.0530090332031" y2="92.13800048828125" stroke-width="1.1458500025431315"/><line stroke="#f00" opacity="0.6667" x1="414.39599609375" y1="121.33100128173828" x2="414.17498779296875" y2="154.8769989013672" stroke-width="1.1458500025431315"/><line stroke="#f00" opacity="0.6667" x1="447.8160095214844" y1="121.25700378417969" x2="447.8160095214844" y2="154.95199584960938" stroke-width="1.1458500025431315"/><line stroke="#f00" opacity="0.5" x1="431.072998046875" y1="58.36899948120117" x2="464.6619873046875" y2="58.36800003051758" stroke-width="1.1458500025431315"/><line stroke="#f00" opacity="0.5" x1="431.07598876953125" y1="92.06400299072266" x2="464.6619873046875" y2="92.13800048828125" stroke-width="1.1458500025431315"/><line stroke="#f00" opacity="0.6667" x1="279.7879943847656" y1="247.10699462890625" x2="279.5669860839844" y2="280.65301513671875" stroke-width="1.1458500025431315"/><line stroke="#f00" opacity="0.6667" x1="313.2070007324219" y1="247.0330047607422" x2="313.2070007324219" y2="280.72900390625" stroke-width="1.1458500025431315"/><line stroke="#f00" opacity="0.5" x1="296.4639892578125" y1="184.14500427246094" x2="330.0530090332031" y2="184.1439971923828" stroke-width="1.1458500025431315"/><line stroke="#f00" opacity="0.5" x1="296.468994140625" y1="217.83999633789062" x2="330.0530090332031" y2="217.91400146484375" stroke-width="1.1458500025431315"/><line stroke="#f00" opacity="0.6667" x1="414.39599609375" y1="247.10699462890625" x2="414.17498779296875" y2="280.65301513671875" stroke-width="1.1458500025431315"/><line stroke="#f00" opacity="0.6667" x1="447.8160095214844" y1="247.0330047607422" x2="447.8160095214844" y2="280.72900390625" stroke-width="1.1458500025431315"/><line stroke="#f00" opacity="0.5" x1="431.072998046875" y1="184.14500427246094" x2="464.6619873046875" y2="184.1439971923828" stroke-width="1.1458500025431315"/><line stroke="#f00" opacity="0.5" x1="431.07598876953125" y1="217.83999633789062" x2="464.6619873046875" y2="217.91400146484375" stroke-width="1.1458500025431315"/><line stroke="#f00" opacity="0.5" x1="296.4639892578125" y1="309.9209899902344" x2="330.0530090332031" y2="309.9209899902344" stroke-width="1.1458500025431315"/><line stroke="#f00" opacity="0.5" x1="296.468994140625" y1="343.6159973144531" x2="330.0530090332031" y2="343.6910095214844" stroke-width="1.1458500025431315"/><line stroke="#f00" opacity="0.5" x1="431.072998046875" y1="309.9209899902344" x2="464.6619873046875" y2="309.9209899902344" stroke-width="1.1458500025431315"/><line stroke="#f00" opacity="0.5" x1="431.07598876953125" y1="343.6159973144531" x2="464.6619873046875" y2="343.6910095214844" stroke-width="1.1458500025431315"/><line stroke="#f00" opacity="0.6667" x1="549.0180053710938" y1="121.33100128173828" x2="548.7949829101562" y2="154.8769989013672" stroke-width="1.1458500025431315"/><line stroke="#f00" opacity="0.6667" x1="582.4359741210938" y1="121.25700378417969" x2="582.4359741210938" y2="154.95199584960938" stroke-width="1.1458500025431315"/><line stroke="#f00" opacity="0.5" x1="565.6909790039062" y1="58.36899948120117" x2="599.281982421875" y2="58.36800003051758" stroke-width="1.1458500025431315"/><line stroke="#f00" opacity="0.5" x1="565.6959838867188" y1="92.06400299072266" x2="599.281982421875" y2="92.13800048828125" stroke-width="1.1458500025431315"/><line stroke="#f00" opacity="0.6667" x1="683.625" y1="121.33100128173828" x2="683.4030151367188" y2="154.8769989013672" stroke-width="1.1458500025431315"/><line stroke="#f00" opacity="0.5" x1="733.8280029296875" y1="58.36800003051758" x2="700.301025390625" y2="58.36899948120117" stroke-width="1.1458500025431315"/><line stroke="#f00" opacity="0.5" x1="733.947021484375" y1="92.06400299072266" x2="700.3070068359375" y2="92.06400299072266" stroke-width="1.1458500025431315"/><line stroke="#f00" opacity="0.6667" x1="549.0180053710938" y1="247.10699462890625" x2="548.7949829101562" y2="280.65301513671875" stroke-width="1.1458500025431315"/><line stroke="#f00" opacity="0.6667" x1="582.4359741210938" y1="247.0330047607422" x2="582.4359741210938" y2="280.72900390625" stroke-width="1.1458500025431315"/><line stroke="#f00" opacity="0.5" x1="565.6909790039062" y1="184.14500427246094" x2="599.281982421875" y2="184.1439971923828" stroke-width="1.1458500025431315"/><line stroke="#f00" opacity="0.5" x1="565.6959838867188" y1="217.83999633789062" x2="599.281982421875" y2="217.91400146484375" stroke-width="1.1458500025431315"/><line stroke="#f00" opacity="0.6667" x1="683.625" y1="247.10699462890625" x2="683.4030151367188" y2="280.65301513671875" stroke-width="1.1458500025431315"/><line stroke="#f00" opacity="0.5" x1="733.8280029296875" y1="184.14500427246094" x2="700.301025390625" y2="184.14500427246094" stroke-width="1.1458500025431315"/><line stroke="#f00" opacity="0.5" x1="733.947021484375" y1="217.83999633789062" x2="700.3070068359375" y2="217.83999633789062" stroke-width="1.1458500025431315"/><line stroke="#f00" opacity="0.5" x1="565.6909790039062" y1="309.9209899902344" x2="599.281982421875" y2="309.9209899902344" stroke-width="1.1458500025431315"/><line stroke="#f00" opacity="0.5" x1="565.6959838867188" y1="343.6159973144531" x2="599.281982421875" y2="343.6910095214844" stroke-width="1.1458500025431315"/><line stroke="#f00" opacity="0.5" x1="733.8280029296875" y1="309.9209899902344" x2="700.301025390625" y2="309.9209899902344" stroke-width="1.1458500025431315"/><line stroke="#f00" opacity="0.5" x1="733.947021484375" y1="343.6159973144531" x2="700.3070068359375" y2="343.6159973144531" stroke-width="1.1458500025431315"/><line stroke="#00f" opacity="0.6667" x1="77.56400299072266" y1="121.33100128173828" x2="77.56800079345703" y2="154.9510040283203" stroke-width="1.1458500025431315"/><line stroke="#00f" opacity="0.5" x1="77.56400299072266" y1="121.33100128173828" x2="111.0199966430664" y2="121.33100128173828" stroke-width="1.1458500025431315"/><line stroke="#00f" opacity="0.6667" x1="111.0199966430664" y1="121.33100128173828" x2="111.02200317382812" y2="154.9510040283203" stroke-width="1.1458500025431315"/><line stroke="#00f" opacity="0.5" x1="111.0199966430664" y1="121.33100128173828" x2="144.93899536132812" y2="121.33100128173828" stroke-width="1.1458500025431315"/><line stroke="#00f" opacity="0.6667" x1="212.1719970703125" y1="121.33100128173828" x2="212.17599487304688" y2="154.9510040283203" stroke-width="1.1458500025431315"/><line stroke="#00f" opacity="0.5" x1="212.1719970703125" y1="121.33100128173828" x2="245.8679962158203" y2="121.33100128173828" stroke-width="1.1458500025431315"/><line stroke="#00f" opacity="0.5" x1="77.56800079345703" y1="154.9510040283203" x2="111.02200317382812" y2="154.9510040283203" stroke-width="1.1458500025431315"/><line stroke="#00f" opacity="0.6667" x1="77.56400299072266" y1="247.10699462890625" x2="77.56800079345703" y2="280.72900390625" stroke-width="1.1458500025431315"/><line stroke="#00f" opacity="0.5" x1="77.56400299072266" y1="247.10699462890625" x2="111.0199966430664" y2="247.10699462890625" stroke-width="1.1458500025431315"/><line stroke="#00f" opacity="0.5" x1="111.02200317382812" y1="154.9510040283203" x2="144.71800231933594" y2="154.8769989013672" stroke-width="1.1458500025431315"/><line stroke="#00f" opacity="0.5" x1="212.17599487304688" y1="154.9510040283203" x2="245.87100219726562" y2="154.9510040283203" stroke-width="1.1458500025431315"/><line stroke="#00f" opacity="0.6667" x1="111.0199966430664" y1="247.10699462890625" x2="111.02200317382812" y2="280.72900390625" stroke-width="1.1458500025431315"/><line stroke="#00f" opacity="0.5" x1="111.0199966430664" y1="247.10699462890625" x2="144.93899536132812" y2="247.10699462890625" stroke-width="1.1458500025431315"/><line stroke="#00f" opacity="0.6667" x1="212.1719970703125" y1="247.10699462890625" x2="212.17599487304688" y2="280.72900390625" stroke-width="1.1458500025431315"/><line stroke="#00f" opacity="0.5" x1="212.1719970703125" y1="247.10699462890625" x2="245.8679962158203" y2="247.10699462890625" stroke-width="1.1458500025431315"/><line stroke="#00f" opacity="0.5" x1="77.56800079345703" y1="280.72900390625" x2="111.02200317382812" y2="280.72900390625" stroke-width="1.1458500025431315"/><line stroke="#00f" opacity="0.5" x1="111.02200317382812" y1="280.72900390625" x2="144.71800231933594" y2="280.65301513671875" stroke-width="1.1458500025431315"/><line stroke="#00f" opacity="0.5" x1="212.17599487304688" y1="280.72900390625" x2="245.87100219726562" y2="280.72900390625" stroke-width="1.1458500025431315"/><line stroke="#00f" opacity="0.6667" x1="245.8679962158203" y1="121.33100128173828" x2="245.87100219726562" y2="154.9510040283203" stroke-width="1.1458500025431315"/><line stroke="#00f" opacity="0.5" x1="245.8679962158203" y1="121.33100128173828" x2="279.7879943847656" y2="121.33100128173828" stroke-width="1.1458500025431315"/><line stroke="#00f" opacity="0.6667" x1="347.02099609375" y1="121.33100128173828" x2="347.0249938964844" y2="154.9510040283203" stroke-width="1.1458500025431315"/><line stroke="#00f" opacity="0.5" x1="347.02099609375" y1="121.33100128173828" x2="380.47698974609375" y2="121.33100128173828" stroke-width="1.1458500025431315"/><line stroke="#00f" opacity="0.6667" x1="380.47698974609375" y1="121.33100128173828" x2="380.4800109863281" y2="154.9510040283203" stroke-width="1.1458500025431315"/><line stroke="#00f" opacity="0.5" x1="380.47698974609375" y1="121.33100128173828" x2="414.39599609375" y2="121.33100128173828" stroke-width="1.1458500025431315"/><line stroke="#00f" opacity="0.6667" x1="481.6300048828125" y1="121.33100128173828" x2="481.63299560546875" y2="154.9510040283203" stroke-width="1.1458500025431315"/><line stroke="#00f" opacity="0.5" x1="481.6300048828125" y1="121.33100128173828" x2="515.0969848632812" y2="121.33100128173828" stroke-width="1.1458500025431315"/><line stroke="#00f" opacity="0.5" x1="245.87100219726562" y1="154.9510040283203" x2="279.5669860839844" y2="154.8769989013672" stroke-width="1.1458500025431315"/><line stroke="#00f" opacity="0.5" x1="347.0249938964844" y1="154.9510040283203" x2="380.4800109863281" y2="154.9510040283203" stroke-width="1.1458500025431315"/><line stroke="#00f" opacity="0.6667" x1="245.8679962158203" y1="247.10699462890625" x2="245.87100219726562" y2="280.72900390625" stroke-width="1.1458500025431315"/><line stroke="#00f" opacity="0.5" x1="245.8679962158203" y1="247.10699462890625" x2="279.7879943847656" y2="247.10699462890625" stroke-width="1.1458500025431315"/><line stroke="#00f" opacity="0.6667" x1="347.02099609375" y1="247.10699462890625" x2="347.0249938964844" y2="280.72900390625" stroke-width="1.1458500025431315"/><line stroke="#00f" opacity="0.5" x1="347.02099609375" y1="247.10699462890625" x2="380.47698974609375" y2="247.10699462890625" stroke-width="1.1458500025431315"/><line stroke="#00f" opacity="0.5" x1="380.4800109863281" y1="154.9510040283203" x2="414.17498779296875" y2="154.8769989013672" stroke-width="1.1458500025431315"/><line stroke="#00f" opacity="0.5" x1="481.63299560546875" y1="154.9510040283203" x2="515.1019897460938" y2="154.9510040283203" stroke-width="1.1458500025431315"/><line stroke="#00f" opacity="0.6667" x1="380.47698974609375" y1="247.10699462890625" x2="380.4800109863281" y2="280.72900390625" stroke-width="1.1458500025431315"/><line stroke="#00f" opacity="0.5" x1="380.47698974609375" y1="247.10699462890625" x2="414.39599609375" y2="247.10699462890625" stroke-width="1.1458500025431315"/><line stroke="#00f" opacity="0.6667" x1="481.6300048828125" y1="247.10699462890625" x2="481.63299560546875" y2="280.72900390625" stroke-width="1.1458500025431315"/><line stroke="#00f" opacity="0.5" x1="481.6300048828125" y1="247.10699462890625" x2="515.0969848632812" y2="247.10699462890625" stroke-width="1.1458500025431315"/><line stroke="#00f" opacity="0.5" x1="245.87100219726562" y1="280.72900390625" x2="279.5669860839844" y2="280.65301513671875" stroke-width="1.1458500025431315"/><line stroke="#00f" opacity="0.5" x1="347.0249938964844" y1="280.72900390625" x2="380.4800109863281" y2="280.72900390625" stroke-width="1.1458500025431315"/><line stroke="#00f" opacity="0.5" x1="380.4800109863281" y1="280.72900390625" x2="414.17498779296875" y2="280.65301513671875" stroke-width="1.1458500025431315"/><line stroke="#00f" opacity="0.5" x1="481.63299560546875" y1="280.72900390625" x2="515.1019897460938" y2="280.72900390625" stroke-width="1.1458500025431315"/><line stroke="#00f" opacity="0.6667" x1="515.0969848632812" y1="121.33100128173828" x2="515.1019897460938" y2="154.9510040283203" stroke-width="1.1458500025431315"/><line stroke="#00f" opacity="0.5" x1="515.0969848632812" y1="121.33100128173828" x2="549.0180053710938" y2="121.33100128173828" stroke-width="1.1458500025431315"/><line stroke="#00f" opacity="0.6667" x1="616.2490234375" y1="121.33100128173828" x2="616.2540283203125" y2="154.9510040283203" stroke-width="1.1458500025431315"/><line stroke="#00f" opacity="0.5" x1="616.2490234375" y1="121.33100128173828" x2="649.7050170898438" y2="121.33100128173828" stroke-width="1.1458500025431315"/><line stroke="#00f" opacity="0.6667" x1="649.7050170898438" y1="121.33100128173828" x2="649.7080078125" y2="154.9510040283203" stroke-width="1.1458500025431315"/><line stroke="#00f" opacity="0.5" x1="649.7050170898438" y1="121.33100128173828" x2="683.625" y2="121.33100128173828" stroke-width="1.1458500025431315"/><line stroke="#00f" opacity="0.5" x1="515.1019897460938" y1="154.9510040283203" x2="548.7949829101562" y2="154.8769989013672" stroke-width="1.1458500025431315"/><line stroke="#00f" opacity="0.5" x1="616.2540283203125" y1="154.9510040283203" x2="649.7080078125" y2="154.9510040283203" stroke-width="1.1458500025431315"/><line stroke="#00f" opacity="0.6667" x1="515.0969848632812" y1="247.10699462890625" x2="515.1019897460938" y2="280.72900390625" stroke-width="1.1458500025431315"/><line stroke="#00f" opacity="0.5" x1="515.0969848632812" y1="247.10699462890625" x2="549.0180053710938" y2="247.10699462890625" stroke-width="1.1458500025431315"/><line stroke="#00f" opacity="0.6667" x1="616.2490234375" y1="247.10699462890625" x2="616.2540283203125" y2="280.72900390625" stroke-width="1.1458500025431315"/><line stroke="#00f" opacity="0.5" x1="616.2490234375" y1="247.10699462890625" x2="649.7050170898438" y2="247.10699462890625" stroke-width="1.1458500025431315"/><line stroke="#00f" opacity="0.5" x1="649.7080078125" y1="154.9510040283203" x2="683.4030151367188" y2="154.8769989013672" stroke-width="1.1458500025431315"/><line stroke="#00f" opacity="0.6667" x1="649.7050170898438" y1="247.10699462890625" x2="649.7080078125" y2="280.72900390625" stroke-width="1.1458500025431315"/><line stroke="#00f" opacity="0.5" x1="649.7050170898438" y1="247.10699462890625" x2="683.625" y2="247.10699462890625" stroke-width="1.1458500025431315"/><line stroke="#00f" opacity="0.5" x1="515.1019897460938" y1="280.72900390625" x2="548.7949829101562" y2="280.65301513671875" stroke-width="1.1458500025431315"/><line stroke="#00f" opacity="0.5" x1="616.2540283203125" y1="280.72900390625" x2="649.7080078125" y2="280.72900390625" stroke-width="1.1458500025431315"/><line stroke="#00f" opacity="0.5" x1="649.7080078125" y1="280.72900390625" x2="683.4030151367188" y2="280.65301513671875" stroke-width="1.1458500025431315"/></svg>