<?xml version="1.0" encoding="utf-8"?>
<!-- Generator: Adobe Illustrator 16.0.3, SVG Export Plug-In . SVG Version: 6.00 Build 0)  -->
<!DOCTYPE svg PUBLIC "-//W3C//DTD SVG 1.1//EN" "http://www.w3.org/Graphics/SVG/1.1/DTD/svg11.dtd">
<svg version="1.1"
	 id="svg2" inkscape:version="0.48.1 " sodipodi:docname="Miura-Ori CP.svg" xmlns:rdf="http://www.w3.org/1999/02/22-rdf-syntax-ns#" xmlns:inkscape="http://www.inkscape.org/namespaces/inkscape" xmlns:cc="http://creativecommons.org/ns#" xmlns:dc="http://purl.org/dc/elements/1.1/" xmlns:svg="http://www.w3.org/2000/svg" xmlns:sodipodi="http://sodipodi.sourceforge.net/DTD/sodipodi-0.dtd"
	 xmlns="http://www.w3.org/2000/svg" xmlns:xlink="http://www.w3.org/1999/xlink" x="0px" y="0px" width="1291.438px"
	 height="1186px" viewBox="0 -335.245 1291.438 1186" enable-background="new 0 -335.245 1291.438 1186" xml:space="preserve">
<sodipodi:namedview  inkscape:window-maximized="1" inkscape:current-layer="svg2" inkscape:window-x="-8" inkscape:pageshadow="2" inkscape:window-height="1058" inkscape:document-units="px" inkscape:pageopacity="0.0" inkscape:window-y="-8" inkscape:guide-bbox="true" fit-margin-right="0" inkscape:window-width="1920" fit-margin-bottom="0" showgrid="false" fit-margin-top="0" fit-margin-left="0" pagecolor="#ffffff" borderopacity="1.0" showguides="true" bordercolor="#666666" id="base" inkscape:cy="198.09671" inkscape:cx="546.13303" inkscape:zoom="1.1156267">
	</sodipodi:namedview>
<path fill="#FF0000" stroke="#FF0000" stroke-width="4" d="M320.719,882.645l10-92 M330.719,790.645l-10-92 M320.719,698.644l10-92
	 M330.719,606.644l-10-92 M320.719,514.644l10-92 M480.719,882.645l10-92 M490.719,790.645l-10-92 M480.719,698.644l10-92
	 M490.719,606.644l-10-92 M480.719,514.644l10-92 M170.719,790.645h80 M330.719,790.645h80 M170.719,606.644h80 M330.719,606.644h80
	 M240.719,698.644h80 M400.719,698.644h80 M240.719,514.644h80 M400.719,514.644h80 M640.719,882.645l10-92 M650.719,790.645l-10-92
	 M640.719,698.643l10-91.999 M650.719,606.644l-10-92 M640.719,514.644l10-92 M800.719,882.645l10-92 M810.719,790.645l-10-92
	 M800.719,698.643l10-91.999 M810.719,606.644l-10-92 M800.719,514.644l10-92 M490.719,790.645h80 M650.719,790.645h80
	 M490.719,606.644h80 M650.719,606.644h80 M560.719,698.643h80 M720.719,698.643h80 M560.719,514.644h80 M720.719,514.644h80
	 M960.719,882.645l10-92 M970.719,790.645l-10-92 M960.719,698.643l10-91.999 M970.719,606.644l-10-92 M960.719,514.644l10-92
	 M810.719,790.645h80 M970.719,790.645h80 M810.719,606.644h80 M970.719,606.644h80 M880.719,698.643h80 M1040.719,698.643h80
	 M880.719,514.644h80 M1040.719,514.644h80 M330.719,422.644l-10-92 M320.719,330.643l10-92 M330.719,238.643l-10-92
	 M320.719,146.643l10-92 M490.719,422.644l-10-92 M480.719,330.643l10-92 M490.719,238.643l-10-92 M480.719,146.643l10-92
	 M170.719,422.644h80 M330.719,422.644h80 M170.719,238.643h80 M330.719,238.643h80 M240.719,330.643h80 M400.719,330.643h80
	 M240.719,146.643h80 M400.719,146.643h80 M650.719,422.644l-10-92 M640.719,330.642l10-92 M650.719,238.642l-10-92
	 M640.719,146.642l10-92 M810.719,422.644l-10-92 M800.719,330.642l10-92 M810.719,238.642l-10-92 M800.719,146.642l10-92
	 M490.719,422.644h80 M650.719,422.644h80 M490.719,238.642h80 M650.719,238.642h80 M560.719,330.642h80 M720.719,330.642h80
	 M560.719,146.642h80 M720.719,146.642h80 M970.719,422.644l-10-92 M960.719,330.642l10-92 M970.719,238.642l-10-92
	 M960.719,146.642l10-92 M810.719,422.644h80 M970.719,422.644h80 M810.719,238.642h80 M970.719,238.642h80 M880.719,330.642h80
	 M1040.719,330.642h80 M880.719,146.642h80 M1040.719,146.642h80 M330.719,54.643l-10-92 M320.719-37.358l10-92 M330.719-129.358
	l-10-92 M320.719-221.358l10-92 M490.719,54.643l-10-92 M480.719-37.358l10-92 M490.719-129.358l-10-92 M480.719-221.358l10-92
	 M170.719,54.643h80 M330.719,54.643h80 M170.719-129.358h80 M330.719-129.358h80 M240.719-37.358h80 M400.719-37.358h80
	 M240.719-221.358h80 M400.719-221.358h80 M650.719,54.643l-10-92 M640.719-37.359l10-92 M650.719-129.359l-10-92 M640.719-221.359
	l10-92 M810.719,54.643l-10-92 M800.719-37.359l10-92 M810.719-129.359l-10-92 M800.719-221.359l10-92 M490.719,54.643h80
	 M650.719,54.643h80 M490.719-129.359h80 M650.719-129.359h80 M560.719-37.359h80 M720.719-37.359h80 M560.719-221.359h80
	 M720.719-221.359h80 M970.719,54.643l-10-92 M960.719-37.359l10-92 M970.719-129.359l-10-92 M960.719-221.359l10-92
	 M810.719,54.643h80 M970.719,54.643h80 M810.719-129.359h80 M970.719-129.359h80 M880.719-37.359h80 M1040.719-37.359h80
	 M880.719-221.359h80 M1040.719-221.359h80"/>
<path fill="#000080" stroke="#0000FF" stroke-width="3" d="M240.719,882.645l10-92 M250.719,790.645l-10-92 M240.719,698.644l10-92
	 M250.719,606.644l-10-92 M240.719,514.644l10-92 M400.719,882.645l10-92 M410.719,790.645l-10-92 M400.719,698.644l10-92
	 M410.719,606.644l-10-92 M400.719,514.644l10-92 M250.719,790.645h80 M410.719,790.645h80 M250.719,606.644h80 M410.719,606.644h80
	 M160.719,698.644h80 M320.719,698.644h80 M160.719,514.644h80 M320.719,514.644h80 M560.719,882.645l10-92 M570.719,790.645l-10-92
	 M560.719,698.643l10-91.999 M570.719,606.644l-10-92 M560.719,514.644l10-92 M720.719,882.645l10-92 M730.719,790.645l-10-92
	 M720.719,698.643l10-91.999 M730.719,606.644l-10-92 M720.719,514.644l10-92 M570.719,790.645h80 M730.719,790.645h80
	 M570.719,606.644h80 M730.719,606.644h80 M480.719,698.643h80 M640.719,698.643h80 M480.719,514.644h80 M640.719,514.644h80
	 M880.719,882.645l10-92 M890.719,790.645l-10-92 M880.719,698.643l10-91.999 M890.719,606.644l-10-92 M880.719,514.644l10-92
	 M1040.719,882.645l10-92 M1050.719,790.645l-10-92 M1040.719,698.643l10-91.999 M1050.719,606.644l-10-92 M1040.719,514.644l10-92
	 M890.719,790.645h80 M1050.719,790.645h80 M890.719,606.644h80 M1050.719,606.644h80 M800.719,698.643h80 M960.719,698.643h80
	 M800.719,514.644h80 M960.719,514.644h80 M250.719,422.644l-10-92 M240.719,330.643l10-92 M250.719,238.643l-10-92
	 M240.719,146.643l10-92 M410.719,422.644l-10-92 M400.719,330.643l10-92 M410.719,238.643l-10-92 M400.719,146.643l10-92
	 M250.719,422.644h80 M410.719,422.644h80 M250.719,238.643h80 M410.719,238.643h80 M160.719,330.643h80 M320.719,330.643h80
	 M160.719,146.643h80 M320.719,146.643h80 M570.719,422.644l-10-92 M560.719,330.642l10-92 M570.719,238.642l-10-92
	 M560.719,146.642l10-92 M730.719,422.644l-10-92 M720.719,330.642l10-92 M730.719,238.642l-10-92 M720.719,146.642l10-92
	 M570.719,422.644h80 M730.719,422.644h80 M570.719,238.642h80 M730.719,238.642h80 M480.719,330.642h80 M640.719,330.642h80
	 M480.719,146.642h80 M640.719,146.642h80 M890.719,422.644l-10-92 M880.719,330.642l10-92 M890.719,238.642l-10-92
	 M880.719,146.642l10-92 M1050.719,422.644l-10-92 M1040.719,330.642l10-92 M1050.719,238.642l-10-92 M1040.719,146.642l10-92
	 M890.719,422.644h80 M1050.719,422.644h80 M890.719,238.642h80 M1050.719,238.642h80 M800.719,330.642h80 M960.719,330.642h80
	 M800.719,146.642h80 M960.719,146.642h80 M250.719,54.643l-10-92 M240.719-37.358l10-92 M250.719-129.358l-10-92 M240.719-221.358
	l10-92 M410.719,54.643l-10-92 M400.719-37.358l10-92 M410.719-129.358l-10-92 M400.719-221.358l10-92 M250.719,54.643h80
	 M410.719,54.643h80 M250.719-129.358h80 M410.719-129.358h80 M160.719-37.358h80 M320.719-37.358h80 M160.719-221.358h80
	 M320.719-221.358h80 M570.719,54.643l-10-92 M560.719-37.359l10-92 M570.719-129.359l-10-92 M560.719-221.359l10-92
	 M730.719,54.643l-10-92 M720.719-37.359l10-92 M730.719-129.359l-10-92 M720.719-221.359l10-92 M570.719,54.643h80 M730.719,54.643
	h80 M570.719-129.359h80 M730.719-129.359h80 M480.719-37.359h80 M640.719-37.359h80 M480.719-221.359h80 M640.719-221.359h80
	 M890.719,54.643l-10-92 M880.719-37.359l10-92 M890.719-129.359l-10-92 M880.719-221.359l10-92 M1050.719,54.643l-10-92
	 M1040.719-37.359l10-92 M1050.719-129.359l-10-92 M1040.719-221.359l10-92 M890.719,54.643h80 M1050.719,54.643h80
	 M890.719-129.359h80 M1050.719-129.359h80 M800.719-37.359h80 M960.719-37.359h80 M800.719-221.359h80 M960.719-221.359h80"/>
<path fill="none" stroke="#FFFF00" stroke-width="4" d="M160.719,882.645l90-92 M250.719,790.645l70,92 M320.719,882.645l90-92
	 M410.719,790.645l70,92 M170.719,790.645l70-92.001 M240.719,698.644l90,92.001 M330.719,790.645l70-92.001 M490.719,790.645
	l-90-92.001 M160.719,698.644l90-92 M250.719,606.644l70,92 M320.719,698.644l90-92 M410.719,606.644l70,92 M170.719,606.644l70-92
	 M240.719,514.644l90,92 M330.719,606.644l70-92 M400.719,514.644l90,92 M160.719,514.644l90-92 M250.719,422.644l70,92
	 M320.719,514.644l90-92 M410.719,422.644l70,92 M480.719,882.645l90-92 M570.719,790.645l70,92 M640.719,882.645l90-92
	 M730.719,790.645l70,92 M490.719,790.645l70-92.002 M560.719,698.643l90,92.002 M650.719,790.645l70-92.002 M810.719,790.645
	l-90-92.002 M480.719,698.643l90-91.999 M570.719,606.644l70,91.999 M640.719,698.643l90-91.999 M730.719,606.644l70,91.999
	 M490.719,606.644l70-92 M560.719,514.644l90,92 M650.719,606.644l70-92 M720.719,514.644l90,92 M480.719,514.644l90-92
	 M570.719,422.644l70,92 M640.719,514.644l90-92 M730.719,422.644l70,92 M800.719,882.645l90-92 M890.719,790.645l70,92
	 M960.719,882.645l90-92 M1050.719,790.645l70,92 M810.719,790.645l70-92.002 M880.719,698.643l90,92.002 M970.719,790.645
	l70-92.002 M1130.719,790.645l-90-92.002 M800.719,698.643l90-91.999 M890.719,606.644l70,91.999 M960.719,698.643l90-91.999
	 M1050.719,606.644l70,91.999 M810.719,606.644l70-92 M880.719,514.644l90,92 M970.719,606.644l70-92 M1040.719,514.644l90,92
	 M800.719,514.644l90-92 M890.719,422.644l70,92 M960.719,514.644l90-92 M1050.719,422.644l70,92 M170.719,422.644l70-92.001
	 M240.719,330.643l90,92.001 M330.719,422.644l70-92.001 M490.719,422.644l-90-92.001 M160.719,330.643l90-92 M250.719,238.643
	l70,92 M320.719,330.643l90-92 M410.719,238.643l70,92 M170.719,238.643l70-92 M240.719,146.643l90,92 M330.719,238.643l70-92
	 M400.719,146.643l90,92 M160.719,146.643l90-92 M250.719,54.643l70,92 M320.719,146.643l90-92 M410.719,54.643l70,92
	 M490.719,422.644l70-92.002 M560.719,330.642l90,92.002 M650.719,422.644l70-92.002 M810.719,422.644l-90-92.002 M480.719,330.642
	l90-92 M570.719,238.642l70,92 M640.719,330.642l90-92 M730.719,238.642l70,92 M490.719,238.642l70-92 M560.719,146.642l90,92
	 M650.719,238.642l70-92 M720.719,146.642l90,92 M480.719,146.642l90-92 M570.719,54.642l70,92 M640.719,146.642l90-92
	 M730.719,54.642l70,92 M810.719,422.644l70-92.002 M880.719,330.642l90,92.002 M970.719,422.644l70-92.002 M1130.719,422.644
	l-90-92.002 M800.719,330.642l90-92 M890.719,238.642l70,92 M960.719,330.642l90-92 M1050.719,238.642l70,92 M810.719,238.642l70-92
	 M880.719,146.642l90,92 M970.719,238.642l70-92 M1040.719,146.642l90,92 M800.719,146.642l90-92 M890.719,54.642l70,92
	 M960.719,146.642l90-92 M1050.719,54.642l70,92 M170.719,54.643l70-92.001 M240.719-37.358l90,92.001 M330.719,54.643l70-92.001
	 M490.719,54.643l-90-92.001 M160.719-37.358l90-92 M250.719-129.358l70,92 M320.719-37.358l90-92 M410.719-129.358l70,92
	 M170.719-129.358l70-92 M240.719-221.358l90,92 M330.719-129.358l70-92 M400.719-221.358l90,92 M160.719-221.358l90-92
	 M250.719-313.358l70,92 M320.719-221.358l90-92 M410.719-313.358l70,92 M490.719,54.643l70-92.002 M560.719-37.359l90,92.002
	 M650.719,54.643l70-92.002 M810.719,54.643l-90-92.002 M480.719-37.359l90-92 M570.719-129.359l70,92 M640.719-37.359l90-92
	 M730.719-129.359l70,92 M490.719-129.359l70-92 M560.719-221.359l90,92 M650.719-129.359l70-92 M720.719-221.359l90,92
	 M480.719-221.359l90-92 M570.719-313.359l70,92 M640.719-221.359l90-92 M730.719-313.359l70,92 M810.719,54.643l70-92.002
	 M880.719-37.359l90,92.002 M970.719,54.643l70-92.002 M1130.719,54.643l-90-92.002 M800.719-37.359l90-92 M890.719-129.359l70,92
	 M960.719-37.359l90-92 M1050.719-129.359l70,92 M810.719-129.359l70-92 M880.719-221.359l90,92 M970.719-129.359l70-92
	 M1040.719-221.359l90,92 M800.719-221.359l90-92 M890.719-313.359l70,92 M960.719-221.359l90-92 M1050.719-313.359l70,92"/>
<path fill="#FF0000" stroke="#000000" stroke-width="4" d="M1120.719,882.645l10-92 M1130.719,790.645l-10-92 M1120.719,698.643
	l10-91.999 M1130.719,606.644l-10-92 M1120.719,514.644l10-92 M160.719,882.645l10-92 M170.719,790.645l-10-92 M160.719,698.643
	l10-92 M170.719,606.643l-10-92 M160.719,514.643l10-92 M1130.719,422.644l-10-92 M1120.719,330.642l10-92 M1130.719,238.642l-10-92
	 M1120.719,146.642l10-92 M170.719,422.644l-10-92 M160.719,330.642l10-92 M170.719,238.642l-10-92 M160.719,146.642l10-92
	 M1130.719,54.643l-10-92 M1120.719-37.359l10-92 M1130.719-129.359l-10-92 M1120.719-221.359l10-92 M170.719,54.643l-10-92
	 M160.719-37.359l10-92 M170.719-129.359l-10-92 M160.719-221.359l10-92 M170.719-313.359h960 M160.719,882.645h960"/>
</svg>
