<?xml version="1.0" encoding="utf-8"?>
<!-- Generator: Adobe Illustrator 16.0.3, SVG Export Plug-In . SVG Version: 6.00 Build 0)  -->
<!DOCTYPE svg PUBLIC "-//W3C//DTD SVG 1.1 Tiny//EN" "http://www.w3.org/Graphics/SVG/1.1/DTD/svg11-tiny.dtd">
<svg version="1.1" baseProfile="tiny" id="Layer_1" xmlns="http://www.w3.org/2000/svg" xmlns:xlink="http://www.w3.org/1999/xlink"
	 x="0px" y="0px" width="562px" height="562px" viewBox="0 0 562 562" xml:space="preserve">
<path fill="none" stroke="#FF0000" stroke-width="0.7" stroke-linecap="round" stroke-linejoin="round" stroke-miterlimit="3.864" d="
	M124.164,252.645l65.332,53.08 M272.425,395.252l-71.51-45.918 M258.106,414.7l-90.903-57.953 M252.458,264.948l3.267,107.47
	 M231.044,353.016l-2.685-87.471 M216.989,310.924l-84.813,17.563 M113.145,357.035l106.422-22.028 M0.75,402.833l24.68-30.328
	 M114.958,289.576l-45.918,71.51 M134.405,303.895l-57.952,90.903 M0.754,308.977l91.37-2.699 M72.722,330.957l-71.921,2.148
	 M30.63,345.012l17.563,84.812 M54.713,342.434l22.041,106.424 M122.539,561.25l-30.328-24.68 M9.281,447.043l71.511,45.918
	 M23.601,427.595l90.903,57.953 M28.681,561.247l-2.7-91.37 M50.663,489.278l2.149,71.922 M0.717,509.112l15.444-0.459
	 M16.758,532.753l-15.976,0.476 M0.647,439.094l28.415-34.634 M64.717,531.371l84.813-17.562 M62.139,507.288l106.423-22.041
	 M309.355,404.459l-53.081,65.331 M166.748,552.719l45.918-71.51 M147.301,538.4l57.953-90.903 M297.277,532.747l-107.694,3.271
	 M208.984,511.338l87.472-2.685 M228.818,561.283l-0.459-15.443 M252.459,545.243l0.475,15.976 M158.799,561.354l-34.634-28.414
	 M251.076,497.283l-17.563-84.813 M204.966,393.439l22.028,106.422 M252.645,437.835l53.08-65.331 M395.252,289.575l-45.917,71.51
	 M414.7,303.895l-57.953,90.902 M264.948,309.542l107.471-3.267 M353.017,330.956l-87.472,2.687 M437.835,309.355l-64.684-52.958
	 M310.924,345.011l17.564,84.813 M357.035,448.855l-22.028-106.424 M402.833,561.25l-30.328-24.68 M289.575,447.042l71.512,45.918
	 M303.895,427.594l90.903,57.953 M308.977,561.246l-2.699-91.37 M330.957,489.278l2.148,71.921 M345.012,531.37l84.813-17.563
	 M448.855,485.259l-106.423,22.028 M561.25,439.461l-24.679,30.328 M447.043,552.719l45.918-71.511 M427.595,538.398l57.953-90.902
	 M561.247,533.318l-91.371,2.699 M489.279,511.337l71.921-2.147 M509.112,561.282l-0.458-15.443 M532.754,545.242l0.475,15.976
	 M439.094,561.354l-34.634-28.414 M531.371,497.283l-17.563-84.813 M485.247,393.438l22.041,106.424 M552.719,395.251l-71.51-45.917
	 M538.4,414.699l-90.903-57.953 M532.752,264.947l3.268,107.471 M511.338,353.016l-2.685-87.472 M561.284,333.182l-15.444,0.459
	 M545.243,309.541l15.976-0.475 M561.354,403.2l-28.414,34.634 M497.284,310.924l-84.814,17.563 M393.439,357.034l106.423-22.028
	 M289.575,166.748l71.511,45.917 M303.895,147.3l90.902,57.953 M309.542,297.052l-3.267-107.471 M330.956,208.983l2.686,87.472
	 M345.011,251.075l84.813-17.563 M448.855,204.965l-106.424,22.028 M561.25,159.166l-24.68,30.329 M447.042,272.424l45.918-71.51
	 M427.595,258.105l57.952-90.903 M561.246,253.024l-91.37,2.7 M489.278,231.043l71.921-2.149 M469.145,305.602l-64.686-52.958
	 M531.37,216.988l-17.563-84.813 M485.259,113.144l22.028,106.422 M439.461,0.749l30.329,24.68 M552.719,114.957l-71.511-45.918
	 M538.398,134.405l-90.902-57.953 M533.318,0.753l2.698,91.37 M511.337,72.721L509.189,0.8 M561.283,52.888l-15.444,0.458
	 M545.242,29.246l15.976-0.474 M561.354,122.906l-28.416,34.634 M497.283,30.629L412.47,48.192 M393.438,76.74l106.425-22.028
	 M252.644,157.541l53.079-65.331 M395.251,9.28l-45.917,71.511 M414.699,23.6l-57.953,90.903 M264.947,29.247l107.471-3.266
	 M353.016,50.661l-87.472,2.686 M333.183,0.716l0.458,15.444 M309.541,16.757l-0.474-15.976 M437.835,29.061L403.201,0.647
	 M310.924,64.716l17.563,84.813 M357.034,168.561L335.006,62.138 M256.398,188.849l52.958-64.684 M166.747,272.425l45.918-71.511
	 M147.3,258.106l57.953-90.903 M297.052,252.458l-107.47,3.267 M208.983,231.044l87.472-2.686 M251.076,216.989l-17.564-84.813
	 M204.965,113.145l22.028,106.422 M159.166,0.75l30.329,24.68 M272.424,114.958l-71.51-45.918 M258.105,134.406l-90.903-57.953
	 M253.024,0.754l2.7,91.37 M231.043,72.722l-2.149-71.921 M216.988,30.63l-84.812,17.562 M113.165,76.754l106.401-22.041
	 M0.75,122.539L25.43,92.21 M114.957,9.281L69.039,80.792 M134.405,23.601l-57.953,90.903 M0.753,28.682l91.37-2.7 M72.721,50.662
	L0.8,52.811 M52.888,0.717l0.458,15.444 M29.247,16.758L28.772,0.781 M122.906,0.648l34.634,28.414 M30.63,64.717l17.562,84.814
	 M54.712,62.139l22.042,106.423 M157.541,309.355l-65.331-53.08 M9.281,166.748l71.51,45.918 M23.6,147.301l90.903,57.953
	 M29.253,297.275l-3.272-107.693 M50.934,209.021l2.413,87.435 M0.717,228.817l15.443-0.458 M16.757,252.459l-15.976,0.475
	 M0.647,158.799l28.415-34.634 M64.716,251.076l84.813-17.563 M168.561,204.966L62.138,226.993"/>
<path fill="none" stroke="#000000" stroke-width="0.7" stroke-linecap="round" stroke-linejoin="round" stroke-miterlimit="3.864" d="
	M561.296,0.706H0.705v560.587h560.591l0.015-560.587"/>
<path fill="none" stroke="#0000FF" stroke-width="0.7" stroke-linecap="round" stroke-linejoin="round" stroke-miterlimit="3.864" d="
	M258.108,414.701l-24.595-2.231l-28.561-19.03l-37.749-36.691 M272.427,395.252l-16.891-22.965l-24.764-19.307l-29.857-3.646
	 M228.359,265.545l-11.384,45.379l2.592,24.083l11.477,18.009 M255.738,372.418l9.807-38.777l-0.821-24.094l-12.266-44.599
	 M272.426,395.253l-14.319,19.448l-5.462,23.134 M233.527,412.471l19.118,25.364 M204.966,393.439l0.288,54.058 M167.203,356.747
	l33.712-7.412l18.653-14.328 M216.975,310.925l-28.126-5.323l-31.308,3.756l-25.365,19.131 M134.405,303.895l23.136,5.463
	 M76.453,394.798l36.692-37.75l19.032-28.561l2.229-24.595 M114.959,289.574l-22.966,16.891l-19.308,24.764l-3.645,29.857
	 M0.781,389.423l24.527-16.271 M0.752,337.482l29.878,7.543l24.082-2.592l18.01-11.478 M92.124,306.263l-38.777-9.807l-24.094,0.819
	l-28.557,7.806 M113.145,357.035l54.058-0.288 M76.754,448.855l-0.301-54.059l-7.413-33.712l-14.327-18.653 M30.63,345.025
	l-5.322,28.125l3.754,31.31 M114.504,485.548l-37.75-36.69l-28.561-19.032l-24.594-2.23 M9.28,447.042l16.891,22.965l24.763,19.308
	l29.858,3.646 M109.129,561.22l-16.272-24.526 M57.188,561.248l7.543-29.877l-2.591-24.083l-11.477-18.009 M25.968,469.877
	l-9.807,38.777l0.821,24.094l7.804,28.557 M0.667,537.15l16.104-4.396 M0.757,504.768l15.404,3.888 M0.664,452.745l8.616-5.703
	l14.319-19.448l5.463-23.134 M48.179,429.824L29.062,404.46 M168.562,485.247l-54.059,0.301l-33.712,7.412l-18.652,14.328
	 M64.731,531.37l28.126,5.321l31.308-3.754l25.365-19.131 M147.301,538.4l-23.136-5.463 M205.254,447.497l-36.692,37.75
	l-19.032,28.562l-2.23,24.594 M166.748,552.721l22.966-16.892l19.307-24.763l3.645-29.857 M289.575,447.042l-33.176,22.103
	 M296.456,508.653l-45.379-11.384l-24.083,2.592l-18.009,11.477 M189.583,536.032l38.776,9.807l24.095-0.821l44.823-12.271
	 M256.856,561.333l-4.397-16.104 M224.473,561.244l3.886-15.404 M172.451,561.337l-5.704-8.616L147.3,538.4 M205.254,447.497
	l7.412,33.712l14.328,18.653 M251.076,497.27l5.322-28.125l-3.753-31.31 M356.747,394.797l36.692-37.75l19.03-28.561l2.23-24.594
	 M395.253,289.573l-22.965,16.892l-19.308,24.764l-3.646,29.856 M272.425,395.252l33.177-22.102 M265.545,333.643l45.379,11.383
	l24.083-2.592l18.009-11.478 M372.419,306.262l-38.777-9.807l-24.094,0.82l-44.6,12.267 M395.253,289.574l19.448,14.318
	l23.134,5.463 M412.47,328.475l25.365-19.119 M393.439,357.034l54.058-0.288 M356.747,394.797l-7.413-33.712l-14.327-18.653
	 M310.924,345.023l-5.322,28.127l3.756,31.309 M303.895,427.594l5.461-23.135 M394.798,485.547l-37.75-36.691l-28.56-19.03
	l-24.596-2.231 M289.574,447.041l16.891,22.966l24.764,19.308l29.857,3.646 M389.423,561.22l-16.271-24.526 M337.482,561.247
	l7.543-29.877l-2.594-24.083l-11.476-18.009 M306.263,469.876l-9.807,38.777l0.821,24.094l7.804,28.558 M289.574,447.042
	l14.318-19.448 M328.474,429.824l-19.116-25.365 M357.035,448.855l-0.288-54.06 M394.798,485.547l-33.712,7.412l-18.653,14.328
	 M345.025,531.37l28.126,5.323l31.309-3.754 M485.548,447.496l-36.69,37.749l-19.032,28.562l-2.23,24.594 M447.042,552.72
	l22.965-16.891l19.308-24.763l3.646-29.858 M561.22,452.871l-24.525,16.271 M561.248,504.812l-29.877-7.543l-24.083,2.592
	l-18.009,11.477 M469.876,536.032l38.777,9.807l24.094-0.821l28.558-7.804 M537.15,561.333l-4.397-16.104 M504.767,561.243
	l3.888-15.404 M452.745,561.336l-5.703-8.616L427.594,538.4l-23.134-5.461 M429.824,513.818l-25.364,19.121 M448.855,485.259
	l-54.059,0.288 M485.549,447.496l7.412,33.712l14.328,18.653 M531.371,497.27l5.322-28.127l-3.754-31.309 M538.4,414.699
	l-5.463,23.135 M447.497,356.746l37.75,36.691l28.561,19.031l24.596,2.23 M552.721,395.252l-16.891-22.966l-24.764-19.308
	l-29.857-3.646 M447.042,272.424l22.101,33.176 M497.27,310.923l2.594,24.083l11.476,18.01 M536.033,372.418l9.807-38.777
	l-0.82-24.094l-12.268-44.6 M561.333,305.145l-16.103,4.396 M561.244,337.527l-15.405-3.887 M561.337,389.549l-8.616,5.703
	L538.402,414.7 M513.821,412.47l19.118,25.364 M485.26,393.438l0.289,54.059 M447.497,356.745l33.712-7.412l18.653-14.328
	 M497.27,310.924l-28.125-5.322l-31.31,3.754 M394.797,205.253l-37.749-36.692l-28.561-19.032l-24.597-2.23 M289.573,166.747
	l16.891,22.965l24.765,19.308l29.856,3.645 M395.252,289.575l-22.101-33.177 M333.642,296.455l11.385-45.379l-2.593-24.083
	l-11.477-18.009 M306.262,189.581l-9.807,38.777l0.82,24.094l12.267,44.6 M251.076,216.989l45.378,11.369 M394.797,205.253
	l-33.712,7.412l-18.653,14.328 M345.025,251.075l28.126,5.322l31.309-3.754l25.364-19.131 M427.595,258.105l-23.135-5.462
	 M485.547,167.202l-36.691,37.749l-19.031,28.562l-2.229,24.593 M447.041,272.426l22.966-16.891l19.31-24.764l3.645-29.857
	 M561.219,172.577l-24.525,16.272 M561.247,224.518l-29.877-7.543l-24.083,2.591l-18.009,11.477 M469.876,255.737l38.777,9.807
	l24.094-0.821l28.557-7.804 M497.27,310.924l11.385-45.379 M448.855,204.965l-54.06,0.288 M485.259,113.144l0.288,54.058
	l7.413,33.712l14.327,18.653 M531.37,216.975l5.322-28.126l-3.755-31.309l-19.132-25.365 M538.398,134.405l-5.461,23.135
	 M447.496,76.452l37.75,36.692l28.561,19.031l24.596,2.231 M552.72,114.957l-16.891-22.965l-24.763-19.308l-29.858-3.645
	 M452.871,0.78l16.271,24.526 M504.812,0.752l-7.543,29.877l2.593,24.083l11.476,18.009 M536.032,92.123l9.807-38.777l-0.821-24.094
	l-7.804-28.557 M561.333,24.849l-16.104,4.397 M561.243,57.232l-15.405-3.886 M561.336,109.255l-8.617,5.703l-14.316,19.448
	 M393.438,76.74l54.06-0.288l33.712-7.412l18.653-14.328 M497.27,30.63l-28.127-5.323l-31.308,3.754L412.47,48.192 M414.699,23.6
	l23.136,5.462 M356.746,114.503l36.691-37.75l19.031-28.561l2.23-24.594 M395.252,9.28l-22.966,16.89l-19.308,24.764l-3.646,29.857
	 M272.424,114.958l33.178-22.102 M265.544,53.347l45.379,11.382l24.083-2.591l18.009-11.477 M372.418,25.967l-38.776-9.807
	l-24.095,0.821l-44.6,12.266 M305.145,0.666l4.396,16.103 M337.527,0.756l-3.887,15.404 M389.549,0.663l5.704,8.616l19.448,14.318
	 M357.034,168.561l-0.288-54.058l-7.412-33.712l-14.328-18.653 M310.924,64.73l-5.322,28.126l3.756,31.309l19.131,25.364
	 M303.895,147.3l5.463-23.135 M205.253,167.203l-36.692,37.75l-19.032,28.561l-2.229,24.593 M166.747,272.427l22.965-16.891
	l19.308-24.764l3.645-29.857 M289.575,166.748l-33.177,22.101 M251.076,216.975l-24.083,2.591l-18.009,11.477 M189.582,255.738
	l38.777,9.807l24.094-0.821l44.599-12.266 M188.85,305.602l-22.103-33.176l-19.448-14.319 M204.965,113.145l0.288,54.058
	l7.413,33.712l14.327,18.653 M251.076,216.975l5.322-28.126l-3.753-31.309l-19.133-25.364 M258.105,134.406l-5.461,23.134
	 M167.202,76.453l37.75,36.692l28.56,19.031l24.595,2.231 M272.426,114.959l-16.891-22.966l-24.764-19.307l-29.857-3.646
	 M172.577,0.781l16.272,24.527 M224.518,0.753l-7.543,29.877l2.591,24.083l11.477,18.009 M255.737,92.124l9.807-38.777
	l-0.821-24.094l-7.804-28.557 M272.425,114.958l-14.319,19.448 M167.202,76.453l33.712-7.412l18.652-14.328 M216.975,30.63
	l-28.126-5.322l-31.309,3.753l-25.364,19.131 M134.405,23.601l23.135,5.461 M76.452,114.504l36.692-37.75l19.032-28.561l2.23-24.593
	 M114.959,9.281L91.993,26.172L72.685,50.935L69.04,80.792 M0.78,109.129l24.527-16.272 M0.752,57.187l29.877,7.543l24.083-2.591
	l18.009-11.477 M92.123,25.968l-38.777-9.807l-24.094,0.821L0.694,24.786 M24.849,0.667l4.397,16.104 M57.232,0.757l-3.886,15.404
	 M109.254,0.664l5.704,8.616l19.447,14.319 M113.144,76.741l54.058-0.288 M76.754,168.562l-0.303-54.058l-7.412-33.712
	L54.712,62.139 M30.63,64.731l-5.322,28.126l3.754,31.308l19.13,25.366 M23.6,147.301l5.462-23.136 M114.503,205.254l-37.749-36.692
	l-28.562-19.031L23.599,147.3 M9.279,166.748l16.891,22.966l24.764,19.307l29.857,3.646 M114.958,289.576l-22.102-33.177
	 M53.347,296.456l11.384-45.379l-2.592-24.083l-11.477-18.009 M25.967,189.582l-9.807,38.777l0.821,24.094l12.266,44.613
	 M0.667,256.856l16.103-4.397 M0.756,224.473l15.405,3.886 M0.664,172.451l8.616-5.703L23.599,147.3 M168.561,204.966l-54.058,0.287
	l-33.712,7.412l-18.653,14.328 M64.73,251.076l28.126,5.322l31.308-3.753l25.365-19.132 M147.3,258.106l-23.136-5.462
	 M289.575,166.748l14.319-19.448 M114.958,289.576l19.447,14.318 M447.042,272.424l-19.447-14.319"/>
</svg>
