<?xml version="1.0" encoding="utf-8"?>
<!-- Generator: Adobe Illustrator 16.0.3, SVG Export Plug-In . SVG Version: 6.00 Build 0)  -->
<!DOCTYPE svg PUBLIC "-//W3C//DTD SVG 1.1//EN" "http://www.w3.org/Graphics/SVG/1.1/DTD/svg11.dtd">
<svg version="1.1" id="Layer_1" xmlns="http://www.w3.org/2000/svg" xmlns:xlink="http://www.w3.org/1999/xlink" x="0px" y="0px"
	 width="3456px" height="6912px" viewBox="0 0 3456 6912" enable-background="new 0 0 3456 6912" xml:space="preserve">
<g id="Layer_1_1_" display="none">
	<g display="inline">
		<line fill="none" stroke="#231F20" stroke-miterlimit="10" x1="1659.789" y1="-395.002" x2="3706.243" y2="1651.452"/>
		<line fill="none" stroke="#231F20" stroke-miterlimit="10" x1="1609.875" y1="-345.089" x2="3656.33" y2="1701.365"/>
		<line fill="none" stroke="#231F20" stroke-miterlimit="10" x1="1559.962" y1="-295.175" x2="3606.416" y2="1751.279"/>
		<line fill="none" stroke="#231F20" stroke-miterlimit="10" x1="1510.048" y1="-245.262" x2="3556.502" y2="1801.191"/>
		<line fill="none" stroke="#231F20" stroke-miterlimit="10" x1="1460.135" y1="-195.348" x2="3506.589" y2="1851.105"/>
		<line fill="none" stroke="#231F20" stroke-miterlimit="10" x1="1410.221" y1="-145.435" x2="3456.676" y2="1901.02"/>
		<line fill="none" stroke="#231F20" stroke-miterlimit="10" x1="1360.309" y1="-95.521" x2="3406.762" y2="1950.933"/>
		<line fill="none" stroke="#231F20" stroke-miterlimit="10" x1="1310.395" y1="-45.607" x2="3356.848" y2="2000.847"/>
		<line fill="none" stroke="#231F20" stroke-miterlimit="10" x1="1260.48" y1="4.306" x2="3306.936" y2="2050.76"/>
		<line fill="none" stroke="#231F20" stroke-miterlimit="10" x1="1210.566" y1="54.219" x2="3257.021" y2="2100.673"/>
		<line fill="none" stroke="#231F20" stroke-miterlimit="10" x1="1160.654" y1="104.133" x2="3207.107" y2="2150.587"/>
		<line fill="none" stroke="#231F20" stroke-miterlimit="10" x1="1110.74" y1="154.046" x2="3157.194" y2="2200.5"/>
		<line fill="none" stroke="#231F20" stroke-miterlimit="10" x1="1060.827" y1="203.96" x2="3107.281" y2="2250.414"/>
		<line fill="none" stroke="#231F20" stroke-miterlimit="10" x1="1010.913" y1="253.874" x2="3057.367" y2="2300.328"/>
		<line fill="none" stroke="#231F20" stroke-miterlimit="10" x1="961" y1="303.787" x2="3007.453" y2="2350.241"/>
		<line fill="none" stroke="#231F20" stroke-miterlimit="10" x1="911.086" y1="353.7" x2="2957.54" y2="2400.154"/>
		<line fill="none" stroke="#231F20" stroke-miterlimit="10" x1="861.173" y1="403.614" x2="2907.627" y2="2450.068"/>
		<line fill="none" stroke="#231F20" stroke-miterlimit="10" x1="811.259" y1="453.527" x2="2857.713" y2="2499.98"/>
		<line fill="none" stroke="#231F20" stroke-miterlimit="10" x1="761.346" y1="503.441" x2="2807.8" y2="2549.895"/>
		<line fill="none" stroke="#231F20" stroke-miterlimit="10" x1="711.432" y1="553.354" x2="2757.887" y2="2599.809"/>
		<line fill="none" stroke="#231F20" stroke-miterlimit="10" x1="661.52" y1="603.268" x2="2707.973" y2="2649.722"/>
		<line fill="none" stroke="#231F20" stroke-miterlimit="10" x1="611.605" y1="653.182" x2="2658.059" y2="2699.636"/>
		<line fill="none" stroke="#231F20" stroke-miterlimit="10" x1="561.691" y1="703.095" x2="2608.146" y2="2749.549"/>
		<line fill="none" stroke="#231F20" stroke-miterlimit="10" x1="511.778" y1="753.009" x2="2558.232" y2="2799.463"/>
		<line fill="none" stroke="#231F20" stroke-miterlimit="10" x1="461.864" y1="802.922" x2="2508.318" y2="2849.376"/>
		<line fill="none" stroke="#231F20" stroke-miterlimit="10" x1="411.951" y1="852.836" x2="2458.404" y2="2899.29"/>
		<line fill="none" stroke="#231F20" stroke-miterlimit="10" x1="362.037" y1="902.749" x2="2408.491" y2="2949.203"/>
		<line fill="none" stroke="#231F20" stroke-miterlimit="10" x1="312.124" y1="952.663" x2="2358.578" y2="2999.117"/>
		<line fill="none" stroke="#231F20" stroke-miterlimit="10" x1="262.21" y1="1002.576" x2="2308.664" y2="3049.03"/>
		<line fill="none" stroke="#231F20" stroke-miterlimit="10" x1="212.297" y1="1052.49" x2="2258.751" y2="3098.944"/>
		<line fill="none" stroke="#231F20" stroke-miterlimit="10" x1="162.383" y1="1102.402" x2="2208.838" y2="3148.857"/>
		<line fill="none" stroke="#231F20" stroke-miterlimit="10" x1="112.47" y1="1152.316" x2="2158.924" y2="3198.771"/>
		<line fill="none" stroke="#231F20" stroke-miterlimit="10" x1="62.556" y1="1202.23" x2="2109.01" y2="3248.686"/>
		<line fill="none" stroke="#231F20" stroke-miterlimit="10" x1="12.643" y1="1252.145" x2="2059.097" y2="3298.598"/>
		<line fill="none" stroke="#231F20" stroke-miterlimit="10" x1="-37.271" y1="1302.059" x2="2009.184" y2="3348.512"/>
		<line fill="none" stroke="#231F20" stroke-miterlimit="10" x1="-87.185" y1="1351.971" x2="1959.27" y2="3398.425"/>
		<line fill="none" stroke="#231F20" stroke-miterlimit="10" x1="-137.098" y1="1401.885" x2="1909.355" y2="3448.338"/>
		<line fill="none" stroke="#231F20" stroke-miterlimit="10" x1="-187.012" y1="1451.798" x2="1859.441" y2="3498.252"/>
		<line fill="none" stroke="#231F20" stroke-miterlimit="10" x1="-236.925" y1="1501.711" x2="1809.529" y2="3548.166"/>
		<line fill="none" stroke="#231F20" stroke-miterlimit="10" x1="-286.838" y1="1551.625" x2="1759.615" y2="3598.079"/>
		<line fill="none" stroke="#231F20" stroke-miterlimit="10" x1="-336.752" y1="1601.539" x2="1709.702" y2="3647.992"/>
		<line fill="none" stroke="#231F20" stroke-miterlimit="10" x1="-386.666" y1="1651.452" x2="1659.789" y2="3697.906"/>
	</g>
	<g display="inline">
		<line fill="none" stroke="#231F20" stroke-miterlimit="10" x1="-390.825" y1="1655.611" x2="1659.789" y2="-395.002"/>
		<line fill="none" stroke="#231F20" stroke-miterlimit="10" x1="-340.911" y1="1705.525" x2="1709.702" y2="-345.089"/>
		<line fill="none" stroke="#231F20" stroke-miterlimit="10" x1="-290.998" y1="1755.438" x2="1759.616" y2="-295.175"/>
		<line fill="none" stroke="#231F20" stroke-miterlimit="10" x1="-241.084" y1="1805.354" x2="1809.529" y2="-245.262"/>
		<line fill="none" stroke="#231F20" stroke-miterlimit="10" x1="-191.171" y1="1855.266" x2="1859.443" y2="-195.348"/>
		<line fill="none" stroke="#231F20" stroke-miterlimit="10" x1="-141.257" y1="1905.179" x2="1909.355" y2="-145.435"/>
		<line fill="none" stroke="#231F20" stroke-miterlimit="10" x1="-91.344" y1="1955.093" x2="1959.27" y2="-95.521"/>
		<line fill="none" stroke="#231F20" stroke-miterlimit="10" x1="-41.43" y1="2005.006" x2="2009.184" y2="-45.608"/>
		<line fill="none" stroke="#231F20" stroke-miterlimit="10" x1="8.483" y1="2054.919" x2="2059.098" y2="4.306"/>
		<line fill="none" stroke="#231F20" stroke-miterlimit="10" x1="58.396" y1="2104.833" x2="2109.01" y2="54.219"/>
		<line fill="none" stroke="#231F20" stroke-miterlimit="10" x1="108.311" y1="2154.747" x2="2158.924" y2="104.133"/>
		<line fill="none" stroke="#231F20" stroke-miterlimit="10" x1="158.224" y1="2204.66" x2="2208.838" y2="154.046"/>
		<line fill="none" stroke="#231F20" stroke-miterlimit="10" x1="208.138" y1="2254.574" x2="2258.751" y2="203.96"/>
		<line fill="none" stroke="#231F20" stroke-miterlimit="10" x1="258.051" y1="2304.487" x2="2308.664" y2="253.873"/>
		<line fill="none" stroke="#231F20" stroke-miterlimit="10" x1="307.964" y1="2354.4" x2="2358.578" y2="303.787"/>
		<line fill="none" stroke="#231F20" stroke-miterlimit="10" x1="357.878" y1="2404.314" x2="2408.491" y2="353.7"/>
		<line fill="none" stroke="#231F20" stroke-miterlimit="10" x1="407.792" y1="2454.229" x2="2458.405" y2="403.614"/>
		<line fill="none" stroke="#231F20" stroke-miterlimit="10" x1="457.705" y1="2504.141" x2="2508.318" y2="453.527"/>
		<line fill="none" stroke="#231F20" stroke-miterlimit="10" x1="507.619" y1="2554.055" x2="2558.232" y2="503.441"/>
		<line fill="none" stroke="#231F20" stroke-miterlimit="10" x1="557.532" y1="2603.969" x2="2608.146" y2="553.354"/>
		<line fill="none" stroke="#231F20" stroke-miterlimit="10" x1="607.446" y1="2653.882" x2="2658.061" y2="603.268"/>
		<line fill="none" stroke="#231F20" stroke-miterlimit="10" x1="657.359" y1="2703.795" x2="2707.973" y2="653.182"/>
		<line fill="none" stroke="#231F20" stroke-miterlimit="10" x1="707.271" y1="2753.708" x2="2757.886" y2="703.095"/>
		<line fill="none" stroke="#231F20" stroke-miterlimit="10" x1="757.188" y1="2803.623" x2="2807.799" y2="753.008"/>
		<line fill="none" stroke="#231F20" stroke-miterlimit="10" x1="807.1" y1="2853.536" x2="2857.713" y2="802.922"/>
		<line fill="none" stroke="#231F20" stroke-miterlimit="10" x1="857.013" y1="2903.449" x2="2907.627" y2="852.835"/>
		<line fill="none" stroke="#231F20" stroke-miterlimit="10" x1="906.926" y1="2953.362" x2="2957.539" y2="902.749"/>
		<line fill="none" stroke="#231F20" stroke-miterlimit="10" x1="956.841" y1="3003.277" x2="3007.453" y2="952.663"/>
		<line fill="none" stroke="#231F20" stroke-miterlimit="10" x1="1006.754" y1="3053.189" x2="3057.367" y2="1002.576"/>
		<line fill="none" stroke="#231F20" stroke-miterlimit="10" x1="1056.667" y1="3103.104" x2="3107.281" y2="1052.489"/>
		<line fill="none" stroke="#231F20" stroke-miterlimit="10" x1="1106.58" y1="3153.018" x2="3157.193" y2="1102.402"/>
		<line fill="none" stroke="#231F20" stroke-miterlimit="10" x1="1156.495" y1="3202.931" x2="3207.107" y2="1152.316"/>
		<line fill="none" stroke="#231F20" stroke-miterlimit="10" x1="1206.408" y1="3252.844" x2="3257.021" y2="1202.23"/>
		<line fill="none" stroke="#231F20" stroke-miterlimit="10" x1="1256.321" y1="3302.757" x2="3306.936" y2="1252.145"/>
		<line fill="none" stroke="#231F20" stroke-miterlimit="10" x1="1306.234" y1="3352.67" x2="3356.848" y2="1302.057"/>
		<line fill="none" stroke="#231F20" stroke-miterlimit="10" x1="1356.148" y1="3402.585" x2="3406.763" y2="1351.971"/>
		<line fill="none" stroke="#231F20" stroke-miterlimit="10" x1="1406.062" y1="3452.498" x2="3456.676" y2="1401.885"/>
		<line fill="none" stroke="#231F20" stroke-miterlimit="10" x1="1455.975" y1="3502.411" x2="3506.589" y2="1451.798"/>
		<line fill="none" stroke="#231F20" stroke-miterlimit="10" x1="1505.888" y1="3552.324" x2="3556.502" y2="1501.711"/>
		<line fill="none" stroke="#231F20" stroke-miterlimit="10" x1="1555.803" y1="3602.239" x2="3606.416" y2="1551.625"/>
		<line fill="none" stroke="#231F20" stroke-miterlimit="10" x1="1605.716" y1="3652.152" x2="3656.33" y2="1601.538"/>
		<line fill="none" stroke="#231F20" stroke-miterlimit="10" x1="1655.629" y1="3702.064" x2="3706.243" y2="1651.452"/>
	</g>
</g>
<path opacity="0.52" fill="none" stroke="#0000FF" stroke-miterlimit="10" d="M2427.448,303.786l49.913,49.914 M2427.449,403.613
	l49.912-49.914 M2477.361,453.527l-99.828,0.001 M2277.705,253.873l0.001,199.652 M2078.053,253.873v199.654 M2028.139,303.786
	l49.912,49.914 M2028.139,403.613l49.912-49.914 M2327.619,403.613l-49.912-49.914 M2327.619,303.786l-49.912,49.914
	 M2127.965,303.786l49.914-49.913 M2227.793,303.786l-49.914-49.913 M2127.967,403.613l49.912,49.915 M2227.793,403.613
	l-49.914,49.915 M2078.053,453.527h199.653 M2277.706,453.525l99.829,0.002 M2078.053,453.527l-99.828,0.001 M1878.396,253.873
	v199.652 M1678.743,253.873v199.654 M1628.829,303.786l49.913,49.914 M1678.742,353.7l-49.912,49.914 M1928.311,403.613
	l-49.912-49.914 M1928.311,303.786l-49.912,49.914 M1728.656,303.786l49.912-49.913 M1828.482,303.786l-49.914-49.913
	 M1728.657,403.613l49.911,49.915 M1828.484,403.613l-49.916,49.915 M1678.743,453.527h199.653 M1878.396,453.525l99.828,0.002
	 M1678.743,453.527l-99.829,0.001 M1479.086,253.873v199.652 M1279.434,253.873v199.654 M1229.52,303.786l49.914,49.914
	 M1229.52,403.613l49.912-49.914 M1529,403.613l-49.913-49.914 M1529,303.786l-49.913,49.914 M1329.346,303.786l49.913-49.913
	 M1429.173,303.786l-49.914-49.913 M1329.348,403.613l49.911,49.915 M1429.174,403.613l-49.915,49.915 M1479.087,453.525h-199.653
	 M1479.087,453.525l99.829,0.002 M1279.434,453.527l-99.83,0.001 M1079.777,453.525V253.873 M880.124,253.873v199.654
	 M830.21,303.786l49.913,49.914 M830.21,403.613l49.912-49.914 M1129.691,403.613l-49.913-49.914 M1129.691,303.786l-49.913,49.914
	 M930.037,303.786l49.913-49.913 M979.95,253.873l49.914,49.913 M930.038,403.613l49.912,49.915 M1029.865,403.613l-49.915,49.915
	 M1079.777,453.525H880.123 M1079.777,453.525l99.828,0.002 M880.124,453.527l-99.829,0.001 M680.468,453.525V253.873
	 M730.381,403.613l-49.913-49.914 M730.381,303.786L680.468,353.7 M530.727,303.786l49.913-49.913 M630.554,303.786l-49.914-49.913
	 M530.729,403.613l49.911,49.915 M630.555,403.613l-49.915,49.915 M680.468,453.525H480.814 M680.468,453.525l99.829,0.002
	 M2277.706,453.527v199.654 M2227.793,503.439l49.912,49.914 M2227.793,603.268l49.912-49.914 M2377.532,453.527l-49.913,49.912
	 M2427.446,503.439l-49.914-49.912 M2327.62,603.268l49.912,49.916 M2377.532,653.182l49.915-49.914 M2277.706,653.182h199.653
	 M2177.877,653.182h99.829 M2078.05,453.527l0.001,199.652 M1878.396,453.527v199.654 M1828.482,503.439l49.912,49.914
	 M1828.482,603.268l49.912-49.914 M2127.964,603.268l-49.913-49.914 M2078.051,553.354l49.913-49.914 M1928.311,503.439
	l49.912-49.912 M2028.137,503.439l-49.914-49.912 M1928.311,603.268l49.912,49.916 M2028.138,603.268l-49.915,49.914
	 M1878.396,653.182h199.653 M2078.051,653.182h99.828 M1878.396,653.182h-99.828 M1678.74,453.527V653.18 M1479.087,453.527v199.654
	 M1479.086,553.354l-49.913-49.914 M1479.086,553.354l-49.912,49.914 M1728.654,603.268l-49.913-49.914 M1728.654,503.439
	l-49.913,49.914 M1529,503.439l49.913-49.912 M1628.827,503.439l-49.914-49.912 M1529.001,603.268l49.912,49.916 M1628.828,603.268
	l-49.915,49.914 M1479.087,653.182h199.654 M1678.741,653.182h99.829 M1479.087,653.182h-99.829 M1279.432,453.527V653.18
	 M1079.777,453.527v199.654 M1079.775,553.354l-49.912-49.914 M1079.775,553.354l-49.911,49.914 M1329.345,603.268l-49.913-49.914
	 M1329.345,503.439l-49.913,49.914 M1129.689,503.439l49.914-49.912 M1229.518,503.439l-49.914-49.912 M1129.691,603.268
	l49.912,49.916 M1179.604,653.182l49.916-49.914 M1079.777,653.182h199.654 M1279.432,653.182h99.828 M1079.777,653.182h-99.829
	 M880.121,453.527V653.18 M680.468,453.527v199.654 M680.467,553.354l-49.913-49.914 M630.555,603.268l49.912-49.914
	 M930.035,603.268l-49.913-49.914 M930.035,503.439l-49.913,49.914 M730.381,503.439l49.913-49.912 M830.208,503.439l-49.914-49.912
	 M780.294,653.182l-49.912-49.914 M830.209,603.268l-49.915,49.914 M680.468,653.182h199.654 M880.122,653.182h99.829
	 M680.468,653.182h-99.829 M530.727,603.268l-49.914-49.914 M530.727,503.439l-49.914,49.914 M480.812,653.182h99.828
	 M2427.448,703.096l49.913,49.914 M2427.449,802.923l49.912-49.914 M2377.533,852.838l99.828-0.001 M2277.705,653.184l0.001,199.652
	 M2078.053,653.184v199.653 M2078.051,753.01l-49.912-49.914 M2028.139,802.923l49.912-49.914 M2327.619,802.923l-49.912-49.914
	 M2327.619,703.096l-49.912,49.914 M2127.965,703.096l49.914-49.912 M2227.793,703.096l-49.914-49.912 M2127.967,802.923
	l49.912,49.915 M2227.793,802.923l-49.914,49.915 M2078.053,852.837h199.653 M2277.706,852.836l99.829,0.001 M2078.053,852.837
	l-99.828,0.001 M1878.396,653.184v199.652 M1678.743,653.184v199.653 M1628.829,703.096l49.913,49.914 M1678.742,753.01
	l-49.912,49.914 M1928.311,802.923l-49.912-49.914 M1928.311,703.096l-49.912,49.914 M1778.568,653.184l-49.913,49.912
	 M1828.482,703.096l-49.914-49.912 M1778.568,852.838l-49.912-49.915 M1828.484,802.923l-49.916,49.915 M1878.396,852.836h-199.654
	 M1878.396,852.836l99.828,0.001 M1678.743,852.837l-99.829,0.001 M1479.086,653.184v199.652 M1279.434,653.184v199.653
	 M1229.52,703.096l49.914,49.914 M1229.52,802.923l49.912-49.914 M1529,802.923l-49.913-49.914 M1529,703.096l-49.913,49.914
	 M1329.346,703.096l49.913-49.912 M1429.173,703.096l-49.914-49.912 M1329.348,802.923l49.911,49.915 M1429.174,802.923
	l-49.915,49.915 M1479.087,852.836h-199.653 M1578.916,852.838l-99.829-0.001 M1279.434,852.837l-99.83,0.001 M1079.777,852.836
	V653.184 M880.124,653.184v199.653 M830.21,703.096l49.913,49.914 M830.21,802.923l49.912-49.914 M1129.691,802.923l-49.913-49.914
	 M1129.691,703.096l-49.913,49.914 M979.95,653.184l-49.913,49.912 M979.95,653.184l49.914,49.912 M930.038,802.923l49.912,49.915
	 M1029.865,802.923l-49.915,49.915 M880.124,852.837h199.654 M1179.605,852.838l-99.828-0.001 M880.124,852.837l-99.829,0.001
	 M680.468,852.836V653.184 M730.381,802.923l-49.913-49.914 M730.381,703.096l-49.913,49.914 M530.727,703.096l49.913-49.912
	 M630.554,703.096l-49.914-49.912 M530.729,802.923l49.911,49.915 M630.555,802.923l-49.915,49.915 M680.468,852.836H480.814
	 M680.468,852.836l99.829,0.001 M2277.706,852.837v199.654 M2227.793,902.75l49.912,49.914 M2227.793,1002.578l49.912-49.914
	 M2327.619,902.75l49.913-49.913 M2427.446,902.75l-49.914-49.913 M2327.62,1002.578l49.912,49.915 M2427.447,1002.577
	l-49.915,49.915 M2277.706,1052.491h199.653 M2177.877,1052.492l99.829-0.001 M2078.05,852.837l0.001,199.653 M1878.396,852.837
	v199.654 M1828.482,902.75l49.912,49.914 M1878.396,952.664l-49.912,49.914 M2127.964,1002.577l-49.913-49.914 M2127.964,902.75
	l-49.913,49.914 M1928.311,902.75l49.912-49.913 M2028.137,902.75l-49.914-49.913 M1928.311,1002.578l49.912,49.915
	 M2028.138,1002.577l-49.915,49.915 M1878.396,1052.491h199.653 M2078.051,1052.491l99.828,0.001 M1878.396,1052.491l-99.828,0.001
	 M1678.74,852.837v199.653 M1479.087,852.837v199.654 M1429.173,902.75l49.913,49.914 M1479.086,952.664l-49.912,49.914
	 M1728.654,1002.577l-49.913-49.914 M1728.654,902.75l-49.913,49.914 M1529,902.75l49.913-49.913 M1628.827,902.75l-49.914-49.913
	 M1529.001,1002.578l49.912,49.915 M1628.828,1002.577l-49.915,49.915 M1678.741,1052.491h-199.654 M1678.741,1052.491l99.829,0.001
	 M1479.087,1052.491l-99.829,0.001 M1279.432,852.837v199.653 M1079.777,852.837v199.654 M1029.864,902.75l49.913,49.914
	 M1029.864,1002.578l49.911-49.914 M1329.345,1002.577l-49.913-49.914 M1329.345,902.75l-49.913,49.914 M1129.689,902.75
	l49.914-49.913 M1229.518,902.75l-49.914-49.913 M1129.691,1002.578l49.912,49.915 M1229.52,1002.577l-49.916,49.915
	 M1279.432,1052.491h-199.654 M1279.432,1052.491l99.828,0.001 M979.949,1052.492l99.828-0.001 M880.121,852.837v199.653
	 M680.468,852.837v199.654 M630.554,902.75l49.913,49.914 M630.555,1002.578l49.912-49.914 M930.035,1002.577l-49.913-49.914
	 M930.035,902.75l-49.913,49.914 M780.294,852.837l-49.913,49.913 M830.208,902.75l-49.914-49.913 M780.294,1052.492l-49.912-49.915
	 M830.209,1002.577l-49.915,49.915 M880.122,1052.491H680.468 M880.122,1052.491l99.829,0.001 M580.639,1052.492l99.829-0.001
	 M530.727,1002.577l-49.914-49.914 M530.727,902.75l-49.914,49.914 M480.812,1052.491l99.828,0.001 M2427.448,1102.406
	l49.913,49.914 M2427.449,1202.232l49.912-49.913 M2377.533,1252.148l99.828-0.002 M2277.705,1052.493l0.001,199.653
	 M2078.053,1052.493v199.653 M2028.139,1102.406l49.912,49.914 M2028.139,1202.232l49.912-49.913 M2327.619,1202.232l-49.912-49.913
	 M2327.619,1102.406l-49.912,49.914 M2127.965,1102.406l49.914-49.913 M2227.793,1102.406l-49.914-49.913 M2127.967,1202.232
	l49.912,49.916 M2227.793,1202.232l-49.914,49.916 M2078.053,1252.146h199.653 M2377.535,1252.148l-99.829-0.002 M2078.053,1252.146
	l-99.828,0.002 M1878.396,1052.493v199.653 M1678.743,1052.493v199.653 M1628.829,1102.406l49.913,49.914 M1628.83,1202.232
	l49.912-49.913 M1928.311,1202.232l-49.912-49.913 M1928.311,1102.406l-49.912,49.914 M1728.656,1102.406l49.912-49.913
	 M1828.482,1102.406l-49.914-49.913 M1728.657,1202.232l49.911,49.916 M1828.484,1202.232l-49.916,49.916 M1678.743,1252.146
	h199.653 M1878.396,1252.146h99.828 M1678.743,1252.146l-99.829,0.002 M1479.086,1052.493v199.653 M1279.434,1052.493v199.653
	 M1229.52,1102.406l49.914,49.914 M1229.52,1202.232l49.912-49.913 M1529,1202.232l-49.913-49.913 M1529,1102.406l-49.913,49.914
	 M1329.346,1102.406l49.913-49.913 M1429.173,1102.406l-49.914-49.913 M1329.348,1202.232l49.911,49.916 M1429.174,1202.232
	l-49.915,49.916 M1279.434,1252.146h199.653 M1578.916,1252.148l-99.829-0.002 M1279.434,1252.146l-99.83,0.002 M1079.777,1052.493
	v199.653 M880.124,1052.493v199.653 M830.21,1102.406l49.913,49.914 M880.123,1152.32l-49.912,49.914 M1129.691,1202.232
	l-49.913-49.913 M1129.691,1102.406l-49.913,49.914 M930.037,1102.406l49.913-49.913 M979.95,1052.493l49.914,49.913
	 M930.038,1202.232l49.912,49.916 M1029.865,1202.232l-49.915,49.916 M880.124,1252.146h199.654 M1179.605,1252.148l-99.828-0.002
	 M880.124,1252.146l-99.829,0.002 M680.467,1052.493v199.653 M730.381,1202.232l-49.913-49.913 M730.381,1102.406l-49.913,49.914
	 M530.727,1102.406l49.913-49.913 M630.554,1102.406l-49.914-49.913 M530.729,1202.232l49.911,49.916 M580.64,1252.148
	l49.915-49.916 M480.814,1252.146h199.653 M680.468,1252.146h99.829 M2277.706,1252.146v199.654 M2227.793,1302.061l49.912,49.914
	 M2277.705,1351.975l-49.912,49.913 M2327.619,1302.061l49.913-49.914 M2427.446,1302.061l-49.914-49.914 M2327.62,1401.888
	l49.912,49.915 M2427.447,1401.887l-49.915,49.915 M2477.359,1451.801h-199.653 M2277.706,1451.801l-99.829,0.001 M2078.05,1252.146
	l0.001,199.653 M1878.396,1252.146v199.654 M1828.482,1302.061l49.912,49.914 M1878.396,1351.975l-49.912,49.913 M2127.964,1401.887
	l-49.913-49.914 M2127.964,1302.061l-49.913,49.914 M1928.311,1302.061l49.912-49.914 M2028.137,1302.061l-49.914-49.914
	 M1928.311,1401.888l49.912,49.915 M2028.138,1401.887l-49.915,49.915 M1878.396,1451.801h199.653 M2078.051,1451.801l99.828,0.001
	 M1878.396,1451.801l-99.828,0.001 M1678.74,1252.146V1451.8 M1479.087,1252.146v199.654 M1429.173,1302.061l49.913,49.914
	 M1429.174,1401.888l49.912-49.914 M1728.654,1401.887l-49.913-49.914 M1728.654,1302.061l-49.913,49.914 M1529,1302.061
	l49.913-49.914 M1628.827,1302.061l-49.914-49.914 M1529.001,1401.888l49.912,49.915 M1628.828,1401.887l-49.915,49.915
	 M1678.741,1451.801h-199.654 M1678.741,1451.801l99.829,0.001 M1479.087,1451.801l-99.829,0.001 M1279.432,1252.146V1451.8
	 M1079.777,1252.146v199.654 M1029.864,1302.061l49.913,49.914 M1029.864,1401.888l49.911-49.914 M1329.345,1401.887l-49.913-49.914
	 M1329.345,1302.061l-49.913,49.914 M1129.689,1302.061l49.914-49.914 M1229.518,1302.061l-49.914-49.914 M1129.691,1401.888
	l49.912,49.915 M1179.604,1451.802l49.916-49.915 M1279.432,1451.801h-199.654 M1279.432,1451.801l99.828,0.001 M979.949,1451.802
	l99.828-0.001 M880.121,1252.146V1451.8 M680.468,1252.146v199.654 M630.554,1302.061l49.913,49.914 M680.467,1351.975
	l-49.912,49.913 M930.035,1401.887l-49.913-49.914 M930.035,1302.061l-49.913,49.914 M730.381,1302.061l49.913-49.914
	 M830.208,1302.061l-49.914-49.914 M780.294,1451.802l-49.912-49.915 M830.209,1401.887l-49.915,49.915 M880.122,1451.801H680.468
	 M880.122,1451.801l99.829,0.001 M580.639,1451.802l99.829-0.001 M530.727,1401.887l-49.914-49.914 M530.727,1302.061
	l-49.914,49.914 M480.812,1451.801l99.828,0.001 M2427.448,1501.716l49.913,49.914 M2427.449,1601.543l49.912-49.914
	 M2477.361,1651.457l-99.828,0.001 M2277.705,1451.803l0.001,199.653 M2078.053,1451.803v199.654 M2028.139,1501.716l49.912,49.914
	 M2028.139,1601.543l49.912-49.914 M2327.619,1601.543l-49.912-49.914 M2327.619,1501.716l-49.912,49.914 M2127.965,1501.716
	l49.914-49.913 M2227.793,1501.716l-49.914-49.913 M2127.967,1601.543l49.912,49.915 M2227.793,1601.543l-49.914,49.915
	 M2078.053,1651.457h199.653 M2277.706,1651.457l99.829,0.001 M2078.053,1651.457l-99.828,0.001 M1878.396,1451.803v199.653
	 M1678.743,1451.803v199.654 M1628.829,1501.716l49.913,49.914 M1628.83,1601.543l49.912-49.914 M1928.311,1601.543l-49.912-49.914
	 M1928.311,1501.716l-49.912,49.914 M1728.656,1501.716l49.912-49.913 M1828.482,1501.716l-49.914-49.913 M1728.657,1601.543
	l49.911,49.915 M1828.484,1601.543l-49.916,49.915 M1678.743,1651.457h199.653 M1878.396,1651.457l99.828,0.001 M1678.743,1651.457
	l-99.829,0.001 M1479.086,1451.803v199.653 M1279.434,1451.803v199.654 M1229.52,1501.716l49.914,49.914 M1279.432,1551.63
	l-49.912,49.914 M1529,1601.543l-49.913-49.914 M1529,1501.716l-49.913,49.914 M1329.346,1501.716l49.913-49.913 M1429.173,1501.716
	l-49.914-49.913 M1329.348,1601.543l49.911,49.915 M1429.174,1601.543l-49.915,49.915 M1279.434,1651.457h199.653
	 M1479.087,1651.457l99.829,0.001 M1279.434,1651.457l-99.83,0.001 M1079.777,1651.457v-199.652 M880.124,1451.803v199.654
	 M830.21,1501.716l49.913,49.914 M880.123,1551.63l-49.912,49.914 M1129.691,1601.543l-49.913-49.914 M1129.691,1501.716
	l-49.913,49.914 M930.037,1501.716l49.913-49.913 M979.95,1451.803l49.914,49.913 M930.038,1601.543l49.912,49.915
	 M1029.865,1601.543l-49.915,49.915 M880.124,1651.457h199.654 M1079.777,1651.457l99.828,0.001 M880.124,1651.457l-99.829,0.001
	 M680.468,1651.457v-199.652 M730.381,1601.543l-49.913-49.914 M730.381,1501.716l-49.913,49.914 M530.727,1501.716l49.913-49.913
	 M630.554,1501.716l-49.914-49.913 M530.729,1601.543l49.911,49.915 M630.555,1601.543l-49.915,49.915 M480.814,1651.457h199.653
	 M680.468,1651.457l99.829,0.001 M2277.706,1651.458v199.654 M2227.793,1701.37l49.912,49.914 M2277.705,1751.284l-49.912,49.914
	 M2327.619,1701.37l49.913-49.913 M2427.446,1701.37l-49.914-49.913 M2327.62,1801.198l49.912,49.915 M2427.447,1801.197
	l-49.915,49.915 M2277.706,1851.111h199.653 M2277.706,1851.111l-99.829,0.001 M2078.05,1651.458l0.001,199.653 M1878.396,1651.458
	v199.654 M1828.482,1701.37l49.912,49.914 M1828.482,1801.198l49.912-49.914 M2127.964,1801.197l-49.913-49.914 M2127.964,1701.37
	l-49.913,49.914 M1928.311,1701.37l49.912-49.913 M2028.137,1701.37l-49.914-49.913 M1928.311,1801.198l49.912,49.915
	 M2028.138,1801.197l-49.915,49.915 M1878.396,1851.111h199.653 M2078.051,1851.111l99.828,0.001 M1878.396,1851.111l-99.828,0.001
	 M1678.74,1651.458v199.653 M1479.087,1651.458v199.654 M1429.173,1701.37l49.913,49.914 M1429.174,1801.198l49.912-49.914
	 M1728.654,1801.197l-49.913-49.914 M1728.654,1701.37l-49.913,49.914 M1578.913,1651.458L1529,1701.37 M1628.827,1701.37
	l-49.914-49.913 M1529.001,1801.198l49.912,49.915 M1628.828,1801.197l-49.915,49.915 M1479.087,1851.111h199.654
	 M1678.741,1851.111l99.829,0.001 M1479.087,1851.111l-99.829,0.001 M1279.432,1651.458v199.653 M1079.777,1651.458v199.654
	 M1029.864,1701.37l49.913,49.914 M1079.775,1751.284l-49.911,49.914 M1329.345,1801.197l-49.913-49.914 M1329.345,1701.37
	l-49.913,49.914 M1129.689,1701.37l49.914-49.913 M1229.518,1701.37l-49.914-49.913 M1129.691,1801.198l49.912,49.915
	 M1229.52,1801.197l-49.916,49.915 M1079.777,1851.111h199.654 M1279.432,1851.111l99.828,0.001 M979.949,1851.112l99.828-0.001
	 M880.121,1651.458v199.653 M680.468,1651.458v199.654 M630.554,1701.37l49.913,49.914 M680.467,1751.284l-49.912,49.914
	 M930.035,1801.197l-49.913-49.914 M930.035,1701.37l-49.913,49.914 M780.294,1651.458l-49.913,49.913 M830.208,1701.37
	l-49.914-49.913 M780.294,1851.112l-49.912-49.915 M830.209,1801.197l-49.915,49.915 M680.468,1851.111h199.654 M880.122,1851.111
	l99.829,0.001 M580.639,1851.112l99.829-0.001 M530.727,1801.197l-49.914-49.914 M530.727,1701.37l-49.914,49.914 M480.812,1851.111
	l99.828,0.001 M2427.448,1901.026l49.913,49.913 M2427.449,2000.854l49.912-49.914 M2277.705,1851.113l0.001,199.652
	 M2078.053,1851.113v199.654 M2028.139,1901.026l49.912,49.913 M2028.139,2000.854l49.912-49.914 M2327.619,2000.854l-49.912-49.914
	 M2327.619,1901.026l-49.912,49.913 M2127.965,1901.026l49.914-49.913 M2227.793,1901.026l-49.914-49.913 M2127.967,2000.854
	l49.912,49.916 M2227.793,2000.854l-49.914,49.914 M1878.396,1851.113v199.652 M1678.743,1851.113v199.654 M1628.829,1901.026
	l49.913,49.913 M1678.742,1950.939l-49.912,49.914 M1928.311,2000.854l-49.912-49.914 M1928.311,1901.026l-49.912,49.913
	 M1728.656,1901.026l49.912-49.913 M1828.482,1901.026l-49.914-49.913 M1728.657,2000.854l49.911,49.916 M1828.484,2000.854
	l-49.916,49.914 M1479.086,1851.113v199.652 M1279.434,1851.113v199.654 M1229.52,1901.026l49.914,49.913 M1279.432,1950.939
	l-49.912,49.914 M1479.088,1950.939l49.913,49.914 M1529,1901.026l-49.913,49.913 M1329.346,1901.026l49.913-49.913
	 M1429.173,1901.026l-49.914-49.913 M1329.348,2000.854l49.911,49.916 M1429.174,2000.854l-49.915,49.914 M1079.777,2050.768
	v-199.653 M880.124,1851.113v199.654 M830.21,1901.026l49.913,49.913 M830.21,2000.854l49.912-49.914 M1079.777,1950.939
	l49.914,49.914 M1129.691,1901.026l-49.913,49.913 M979.95,1851.113l-49.913,49.913 M979.95,1851.113l49.914,49.913
	 M930.038,2000.854l49.912,49.916 M1029.865,2000.854l-49.915,49.914 M680.468,2050.768v-199.653 M680.469,1950.939l49.913,49.914
	 M730.381,1901.026l-49.913,49.913 M530.727,1901.026l49.913-49.913 M630.554,1901.026l-49.914-49.913 M530.729,2000.854
	l49.911,49.916 M580.64,2050.768l49.915-49.914"/>
<path fill="none" stroke="#0000FF" stroke-miterlimit="10" d="M2078.051,353.7h199.656 M2377.533,253.872l0.002,199.656
	 M1678.742,353.7h199.656 M1978.223,253.872l0.002,199.656 M1479.088,353.699h-199.656 M1578.914,253.872l0.002,199.656
	 M1079.777,353.699H880.122 M1179.604,253.872l0.002,199.656 M680.469,353.699H480.812 M780.294,253.872l0.002,199.656
	 M2477.361,553.354h-199.656 M1878.396,553.354h199.654 M2177.877,453.525l0.002,199.656 M1479.086,553.354h199.656
	 M1778.566,453.525l0.002,199.656 M1079.775,553.354h199.656 M1379.258,453.525l0.002,199.656 M680.467,553.354h199.656
	 M979.948,453.525l0.002,199.656 M580.639,453.525l0.002,199.656 M2078.051,753.01h199.656 M2377.533,653.182l0.002,199.656
	 M1678.742,753.01h199.656 M1978.223,653.182l0.002,199.656 M1279.432,753.01h199.656 M1578.914,653.182l0.002,199.656
	 M880.123,753.01h199.656 M1179.604,653.182l0.002,199.656 M480.812,753.01h199.656 M780.294,653.182l0.002,199.656
	 M2477.361,952.664h-199.656 M1878.396,952.664h199.654 M2177.877,852.836l0.002,199.656 M1479.086,952.664h199.656
	 M1778.566,852.836l0.002,199.656 M1079.775,952.664h199.656 M1379.258,852.836l0.002,199.656 M680.467,952.664h199.656
	 M979.948,852.836l0.002,199.656 M580.639,852.836l0.002,199.656 M2078.051,1152.32h199.656 M2377.535,1252.148l-0.002-199.656
	 M1678.742,1152.32h199.656 M1978.225,1252.148l-0.002-199.656 M1279.432,1152.32h199.656 M1578.916,1252.148l-0.002-199.656
	 M880.123,1152.32h199.656 M1179.604,1052.492l0.002,199.656 M480.812,1152.32h199.656 M780.296,1252.148l-0.002-199.656
	 M2477.361,1351.975h-199.656 M1878.396,1351.975h199.654 M2177.877,1252.146l0.002,199.655 M1479.086,1351.975h199.656
	 M1778.566,1252.146l0.002,199.655 M1079.775,1351.975h199.656 M1379.258,1252.146l0.002,199.655 M680.467,1351.975h199.656
	 M979.948,1252.146l0.002,199.655 M580.639,1252.146l0.002,199.655 M2078.051,1551.63h199.656 M2377.533,1451.802l0.002,199.656
	 M1678.742,1551.63h199.656 M1978.223,1451.802l0.002,199.656 M1279.432,1551.63h199.656 M1578.914,1451.802l0.002,199.656
	 M880.123,1551.63h199.656 M1179.604,1451.802l0.002,199.656 M480.812,1551.63h199.656 M780.294,1451.802l0.002,199.656
	 M2477.361,1751.284h-199.656 M1878.396,1751.284h199.654 M2177.877,1651.457l0.002,199.656 M1479.086,1751.284h199.656
	 M1778.566,1651.457l0.002,199.656 M1079.775,1751.284h199.656 M1379.258,1651.457l0.002,199.656 M680.467,1751.284h199.656
	 M979.948,1651.457l0.002,199.656 M580.639,1651.457l0.002,199.656 M2078.051,1950.939h199.656 M2377.533,1851.112l0.002,199.655
	 M1878.396,1950.939h-199.655 M1978.223,1851.112l0.002,199.655 M1479.088,1950.939h-199.656 M1578.914,1851.112l0.002,199.655
	 M880.123,1950.939h199.656 M1179.604,1851.112l0.002,199.655 M680.469,1950.939H480.812 M780.294,1851.112l0.002,199.655"/>
<path opacity="0.52" fill="none" stroke="#FF0000" stroke-miterlimit="10" d="M2078.051,353.7l49.916,49.914 M1728.657,403.613
	l-49.915-49.914 M1329.348,403.613l-49.916-49.914 M930.038,403.613L880.123,353.7 M530.729,403.613L480.812,353.7 M2327.62,603.268
	l-49.915-49.914 M1928.311,603.268l-49.914-49.914 M1529.001,603.268l-49.915-49.914 M1129.691,603.268l-49.916-49.914
	 M730.382,603.268l-49.915-49.914 M2127.967,802.923l-49.916-49.914 M1728.657,802.923l-49.915-49.914 M1329.348,802.923
	l-49.916-49.914 M930.038,802.923l-49.915-49.914 M530.729,802.923l-49.916-49.914 M2327.62,1002.578l-49.915-49.914
	 M1928.311,1002.578l-49.914-49.914 M1529.001,1002.578l-49.915-49.914 M1129.691,1002.578l-49.916-49.914 M730.382,1002.578
	l-49.915-49.914 M2127.967,1202.232l-49.916-49.913 M1728.657,1202.232l-49.915-49.913 M1329.348,1202.232l-49.916-49.913
	 M930.038,1202.232l-49.915-49.913 M530.729,1202.232l-49.916-49.913 M2327.62,1401.888l-49.915-49.914 M1928.311,1401.888
	l-49.914-49.914 M1529.001,1401.888l-49.915-49.914 M1129.691,1401.888l-49.916-49.914 M730.382,1401.888l-49.915-49.914
	 M2078.051,1551.63l49.916,49.914 M1728.657,1601.543l-49.915-49.914 M1329.348,1601.543l-49.916-49.914 M930.038,1601.543
	l-49.915-49.914 M530.729,1601.543l-49.916-49.914 M2327.62,1801.198l-49.915-49.914 M1928.311,1801.198l-49.914-49.914
	 M1529.001,1801.198l-49.915-49.914 M1129.691,1801.198l-49.916-49.914 M730.382,1801.198l-49.915-49.914 M2078.051,1950.939
	l49.916,49.914 M1728.657,2000.854l-49.915-49.914 M1329.348,2000.854l-49.916-49.914 M930.038,2000.854l-49.915-49.914
	 M530.729,2000.854l-49.916-49.914 M2477.361,253.873l-49.913,49.913 M2427.448,303.786l0.001,99.828 M2427.449,403.613
	l49.912,49.914 M2427.448,303.786l-49.913-49.914 M2427.449,403.613l-49.916,49.915 M2078.053,253.873l-49.914,49.913
	 M2028.139,303.786v99.828 M2078.053,453.527l-49.914-49.914 M2078.053,453.527l49.914-49.914 M2127.967,403.613h99.826
	 M2227.793,403.613l49.913,49.914 M2277.706,453.525l49.913-49.913 M2327.619,403.613v-99.827 M2327.619,303.786l-49.914-49.913
	 M2277.705,253.873l-49.912,49.913 M2227.793,303.786h-99.828 M2127.965,303.786l-49.912-49.913 M2227.793,303.786l49.914,49.914
	 M2277.707,353.699l-49.914,49.914 M2078.051,353.7l49.914-49.914 M2327.619,403.613l49.916,49.915 M2327.619,303.786l49.914-49.914
	 M2028.139,303.786l-49.914-49.914 M2028.139,403.613l-49.914,49.915 M1678.743,253.873l-49.914,49.913 M1628.829,303.786v99.828
	 M1628.83,403.613l49.913,49.914 M1678.743,453.527l49.914-49.914 M1728.657,403.613h99.827 M1878.396,453.525l-49.912-49.913
	 M1928.311,403.613l-49.914,49.914 M1928.311,403.613v-99.827 M1878.396,253.873l49.914,49.913 M1878.396,253.873l-49.914,49.913
	 M1828.482,303.786h-99.827 M1678.743,253.873l49.913,49.913 M1828.482,303.786l49.914,49.914 M1828.484,403.613l49.912-49.914
	 M1728.656,303.786l-49.914,49.914 M1928.311,403.613l49.914,49.915 M1928.311,303.786l49.912-49.914 M1628.829,303.786
	l-49.914-49.914 M1628.83,403.613l-49.916,49.915 M1279.434,253.873l-49.914,49.913 M1229.52,303.786v99.828 M1229.52,403.613
	l49.914,49.914 M1329.348,403.613l-49.914,49.914 M1329.348,403.613h99.826 M1429.174,403.613l49.913,49.914 M1529,403.613
	l-49.914,49.914 M1529,403.613v-99.827 M1529,303.786l-49.914-49.913 M1479.086,253.873l-49.913,49.913 M1429.173,303.786h-99.827
	 M1329.346,303.786l-49.912-49.913 M1479.088,353.699l-49.915-49.914 M1479.088,353.699l-49.914,49.914 M1329.346,303.786
	l-49.914,49.914 M1529,403.613l49.915,49.915 M1529,303.786l49.913-49.914 M1229.52,303.786l-49.914-49.914 M1229.52,403.613
	l-49.916,49.915 M880.124,253.873l-49.914,49.913 M830.21,403.613v-99.828 M830.21,403.613l49.913,49.914 M880.124,453.527
	l49.914-49.914 M930.038,403.613h99.827 M1029.865,403.613l49.912,49.914 M1079.777,453.525l49.914-49.913 M1129.691,403.613
	v-99.827 M1129.691,303.786l-49.914-49.913 M1079.777,253.873l-49.913,49.913 M1029.864,303.786h-99.827 M880.124,253.873
	l49.913,49.913 M1079.777,353.699l-49.914-49.914 M1029.865,403.613l49.914-49.914 M930.037,303.786L880.123,353.7
	 M1129.691,403.613l49.914,49.915 M1129.691,303.786l49.912-49.914 M830.21,303.786l-49.914-49.914 M830.21,403.613l-49.916,49.915
	 M480.814,453.527l49.914-49.914 M530.729,403.613h99.826 M630.555,403.613l49.913,49.914 M680.468,453.525l49.914-49.913
	 M730.381,403.613v-99.827 M730.381,303.786l-49.914-49.913 M680.467,253.873l-49.913,49.913 M630.554,303.786h-99.827
	 M530.727,303.786l-49.912-49.913 M680.469,353.699l-49.915-49.914 M630.555,403.613l49.914-49.914 M480.812,353.7l49.914-49.914
	 M730.381,403.613l49.915,49.915 M730.381,303.786l49.913-49.914 M2277.706,453.527l-49.913,49.912 M2227.793,503.439v99.828
	 M2227.793,603.268l49.913,49.914 M2277.706,653.182l49.914-49.914 M2327.62,603.268h99.827 M2477.359,653.182l-49.912-49.914
	 M2477.359,453.527l-49.914,49.912 M2427.446,503.439h-99.827 M2277.706,453.527l49.913,49.912 M2427.446,503.439l49.915,49.914
	 M2427.447,603.268l49.914-49.914 M2327.619,503.439l-49.914,49.914 M2177.879,453.525l49.914,49.914 M2227.793,603.268
	l-49.916,49.916 M1878.396,453.527l-49.914,49.912 M1828.482,503.439v99.828 M1828.482,603.268l49.914,49.914 M1928.311,603.268
	l-49.914,49.914 M1928.311,603.268h99.828 M2028.138,603.268l49.913,49.914 M2078.051,653.182l49.913-49.914 M2127.964,603.268
	v-99.828 M2127.964,503.439l-49.914-49.912 M2078.05,453.527l-49.913,49.912 M2028.137,503.439h-99.826 M1878.396,453.527
	l49.912,49.912 M2028.137,503.439l49.914,49.914 M2028.138,603.268l49.913-49.914 M1928.311,503.439l-49.914,49.914
	 M2127.964,603.268l49.915,49.914 M2127.964,503.439l49.913-49.914 M1828.482,503.439l-49.913-49.914 M1828.482,603.268
	l-49.914,49.916 M1479.087,453.527l-49.914,49.912 M1429.173,503.439v99.828 M1429.174,603.268l49.913,49.914 M1529.001,603.268
	l-49.914,49.914 M1628.828,603.268h-99.827 M1628.828,603.268l49.913,49.914 M1678.741,653.182l49.914-49.914 M1728.654,603.268
	v-99.828 M1728.654,503.439l-49.914-49.912 M1678.74,453.527l-49.913,49.912 M1628.827,503.439H1529 M1479.087,453.527L1529,503.439
	 M1628.827,503.439l49.915,49.914 M1628.828,603.268l49.914-49.914 M1529,503.439l-49.914,49.914 M1728.654,603.268l49.915,49.914
	 M1728.654,503.439l49.912-49.914 M1429.173,503.439l-49.914-49.914 M1429.174,603.268l-49.916,49.916 M1079.777,453.527
	l-49.914,49.912 M1029.864,503.439v99.828 M1029.864,603.268l49.913,49.914 M1079.777,653.182l49.914-49.914 M1229.52,603.268
	h-99.828 M1229.52,603.268l49.912,49.914 M1279.432,653.182l49.913-49.914 M1329.345,603.268v-99.828 M1329.345,503.439
	l-49.914-49.912 M1279.432,453.527l-49.914,49.912 M1229.518,503.439h-99.826 M1079.777,453.527l49.912,49.912 M1229.518,503.439
	l49.916,49.914 M1229.52,603.268l49.914-49.914 M1129.689,503.439l-49.914,49.914 M1329.345,603.268l49.915,49.914
	 M1329.345,503.439l49.913-49.914 M1029.864,503.439l-49.914-49.914 M1029.864,603.268l-49.916,49.916 M680.468,453.527
	l-49.914,49.912 M630.554,503.439v99.828 M630.555,603.268l49.913,49.914 M680.468,653.182l49.914-49.914 M830.209,603.268h-99.827
	 M830.209,603.268l49.913,49.914 M930.035,603.268l-49.914,49.914 M930.035,603.268v-99.828 M930.035,503.439l-49.914-49.912
	 M880.121,453.527l-49.913,49.912 M830.208,503.439h-99.827 M680.468,453.527l49.913,49.912 M830.208,503.439l49.915,49.914
	 M830.209,603.268l49.914-49.914 M680.467,553.354l49.914-49.914 M930.035,603.268l49.915,49.914 M930.035,503.439l49.913-49.914
	 M630.554,503.439l-49.914-49.914 M630.555,603.268l-49.916,49.916 M530.727,603.268l-49.914,49.914 M530.727,603.268v-99.828
	 M530.727,503.439l-49.914-49.912 M530.727,603.268l49.914,49.914 M530.727,503.439l49.912-49.914 M2477.361,653.184l-49.913,49.912
	 M2427.448,703.096l0.001,99.828 M2427.449,802.923l49.912,49.914 M2427.448,703.096l-49.913-49.914 M2427.449,802.923
	l-49.916,49.915 M2078.053,653.184l-49.914,49.912 M2028.139,703.096v99.828 M2078.053,852.837l-49.914-49.914 M2078.053,852.837
	l49.914-49.914 M2127.967,802.923h99.826 M2227.793,802.923l49.913,49.914 M2277.706,852.836l49.913-49.914 M2327.619,802.923
	v-99.827 M2327.619,703.096l-49.914-49.912 M2277.705,653.184l-49.912,49.912 M2227.793,703.096h-99.828 M2127.965,703.096
	l-49.912-49.912 M2227.793,703.096l49.914,49.914 M2227.793,802.923l49.914-49.914 M2127.965,703.096l-49.914,49.914
	 M2327.619,802.923l49.916,49.915 M2377.533,653.182l-49.914,49.914 M2028.139,703.096l-49.914-49.914 M2028.139,802.923
	l-49.914,49.915 M1678.743,653.184l-49.914,49.912 M1628.829,703.096v99.828 M1628.83,802.923l49.913,49.914 M1678.743,852.837
	l49.914-49.914 M1728.657,802.923h99.827 M1828.484,802.923l49.912,49.914 M1878.396,852.836l49.914-49.914 M1928.311,802.923
	v-99.827 M1878.396,653.184l49.914,49.912 M1878.396,653.184l-49.914,49.912 M1828.482,703.096h-99.827 M1728.656,703.096
	l-49.913-49.912 M1828.482,703.096l49.914,49.914 M1828.484,802.923l49.912-49.914 M1728.656,703.096l-49.914,49.914
	 M1928.311,802.923l49.914,49.915 M1928.311,703.096l49.912-49.914 M1628.829,703.096l-49.914-49.914 M1628.83,802.923
	l-49.916,49.915 M1279.434,653.184l-49.914,49.912 M1229.52,703.096v99.828 M1229.52,802.923l49.914,49.914 M1279.434,852.837
	l49.913-49.914 M1329.348,802.923h99.826 M1429.174,802.923l49.913,49.914 M1529,802.923l-49.914,49.914 M1529,802.923v-99.827
	 M1529,703.096l-49.914-49.912 M1479.086,653.184l-49.913,49.912 M1429.173,703.096h-99.827 M1329.346,703.096l-49.912-49.912
	 M1479.088,753.009l-49.915-49.914 M1429.174,802.923l49.914-49.914 M1329.346,703.096l-49.914,49.914 M1578.916,852.838
	L1529,802.923 M1578.914,653.182L1529,703.096 M1229.52,703.096l-49.914-49.914 M1179.604,852.838l49.916-49.915 M880.124,653.184
	l-49.914,49.912 M830.21,802.923v-99.828 M830.21,802.923l49.913,49.914 M880.124,852.837l49.914-49.914 M930.038,802.923h99.827
	 M1029.865,802.923l49.912,49.914 M1079.777,852.836l49.914-49.914 M1129.691,802.923v-99.827 M1129.691,703.096l-49.914-49.912
	 M1029.864,703.096l49.913-49.912 M1029.864,703.096h-99.827 M930.037,703.096l-49.913-49.912 M1079.777,753.009l-49.914-49.914
	 M1029.865,802.923l49.914-49.914 M930.037,703.096l-49.914,49.914 M1179.605,852.838l-49.914-49.915 M1129.691,703.096
	l49.912-49.914 M830.21,703.096l-49.914-49.914 M830.21,802.923l-49.916,49.915 M480.814,852.837l49.914-49.914 M530.729,802.923
	h99.826 M630.555,802.923l49.913,49.914 M680.468,852.836l49.914-49.914 M730.381,802.923v-99.827 M730.381,703.096l-49.914-49.912
	 M680.467,653.184l-49.913,49.912 M630.554,703.096h-99.827 M530.727,703.096l-49.912-49.912 M680.469,753.009l-49.915-49.914
	 M630.555,802.923l49.914-49.914 M530.727,703.096l-49.914,49.914 M730.381,802.923l49.915,49.915 M730.381,703.096l49.913-49.914
	 M2277.706,852.837l-49.913,49.913 M2227.793,902.75v99.828 M2227.793,1002.578l49.913,49.914 M2327.62,1002.578l-49.914,49.914
	 M2327.62,1002.578h99.827 M2427.447,1002.577l49.912,49.914 M2477.359,852.837l-49.914,49.913 M2427.446,902.75h-99.827
	 M2327.619,902.75l-49.913-49.913 M2427.446,902.75l49.915,49.914 M2427.447,1002.577l49.914-49.914 M2327.619,902.75
	l-49.914,49.914 M2227.793,902.75l-49.914-49.914 M2227.793,1002.578l-49.916,49.915 M1878.396,852.837l-49.914,49.913
	 M1828.482,1002.578V902.75 M1828.482,1002.578l49.914,49.914 M1878.396,1052.491l49.914-49.914 M1928.311,1002.578h99.828
	 M2028.138,1002.577l49.913,49.914 M2078.051,1052.491l49.913-49.914 M2127.964,1002.577V902.75 M2127.964,902.75l-49.914-49.913
	 M2078.05,852.837l-49.913,49.913 M2028.137,902.75h-99.826 M1928.311,902.75l-49.914-49.913 M2028.137,902.75l49.914,49.914
	 M2028.138,1002.577l49.913-49.914 M1928.311,902.75l-49.914,49.914 M2177.879,1052.492l-49.915-49.915 M2127.964,902.75
	l49.913-49.914 M1828.482,902.75l-49.913-49.914 M1828.482,1002.578l-49.914,49.915 M1479.087,852.837l-49.914,49.913
	 M1429.173,902.75v99.828 M1429.174,1002.578l49.913,49.914 M1479.087,1052.491l49.914-49.914 M1529.001,1002.578h99.827
	 M1628.828,1002.577l49.913,49.914 M1678.741,1052.491l49.914-49.914 M1728.654,1002.577V902.75 M1728.654,902.75l-49.914-49.913
	 M1678.74,852.837l-49.913,49.913 M1628.827,902.75H1529 M1529,902.75l-49.913-49.913 M1628.827,902.75l49.915,49.914
	 M1678.742,952.664l-49.914,49.914 M1529,902.75l-49.914,49.914 M1778.568,1052.492l-49.914-49.915 M1728.654,902.75l49.912-49.914
	 M1429.173,902.75l-49.914-49.914 M1429.174,1002.578l-49.916,49.915 M1029.864,902.75l49.914-49.913 M1029.864,902.75v99.828
	 M1029.864,1002.578l49.913,49.914 M1129.691,1002.578l-49.914,49.914 M1129.691,1002.578h99.826 M1229.52,1002.577l49.912,49.914
	 M1279.432,1052.491l49.913-49.914 M1329.345,1002.577V902.75 M1329.345,902.75l-49.914-49.913 M1279.432,852.837l-49.914,49.913
	 M1229.518,902.75h-99.826 M1129.689,902.75l-49.912-49.913 M1279.432,952.664l-49.914-49.914 M1279.432,952.664l-49.914,49.914
	 M1129.689,902.75l-49.914,49.914 M1379.26,1052.492l-49.915-49.915 M1329.345,902.75l49.913-49.914 M1029.864,902.75
	l-49.914-49.914 M979.949,1052.492l49.916-49.915 M680.468,852.837l-49.914,49.913 M630.554,902.75v99.828 M630.555,1002.578
	l49.913,49.914 M730.382,1002.578l-49.914,49.914 M730.382,1002.578h99.827 M830.209,1002.577l49.913,49.914 M880.122,1052.491
	l49.914-49.914 M930.035,1002.577V902.75 M930.035,902.75l-49.914-49.913 M880.121,852.837l-49.913,49.913 M830.208,902.75h-99.827
	 M730.381,902.75l-49.913-49.913 M880.123,952.664l-49.915-49.914 M830.209,1002.577l49.914-49.914 M730.381,902.75l-49.914,49.914
	 M930.035,1002.577l49.915,49.915 M930.035,902.75l49.913-49.914 M630.554,902.75l-49.914-49.914 M630.555,1002.578l-49.916,49.915
	 M480.812,1052.491l49.914-49.914 M530.727,1002.577V902.75 M530.727,902.75l-49.914-49.913 M580.641,1052.492l-49.914-49.915
	 M530.727,902.75l49.912-49.914 M2477.361,1052.493l-49.913,49.913 M2427.448,1102.406l0.001,99.828 M2427.449,1202.232
	l49.912,49.914 M2427.448,1102.406l-49.913-49.914 M2427.449,1202.232l-49.916,49.916 M2078.053,1052.493l-49.914,49.913
	 M2028.139,1102.406v99.828 M2078.053,1252.146l-49.914-49.914 M2078.053,1252.146l49.914-49.914 M2127.967,1202.232h99.826
	 M2227.793,1202.232l49.913,49.914 M2277.706,1252.146l49.913-49.914 M2327.619,1202.232v-99.826 M2327.619,1102.406l-49.914-49.913
	 M2277.705,1052.493l-49.912,49.913 M2227.793,1102.406h-99.828 M2127.965,1102.406l-49.912-49.913 M2227.793,1102.406
	l49.914,49.914 M2277.707,1152.318l-49.914,49.914 M2127.965,1102.406l-49.914,49.914 M2327.619,1202.232l49.916,49.916
	 M2327.619,1102.406l49.914-49.914 M2028.139,1102.406l-49.914-49.914 M2028.139,1202.232l-49.914,49.916 M1678.743,1052.493
	l-49.914,49.913 M1628.829,1102.406v99.828 M1628.83,1202.232l49.913,49.914 M1678.743,1252.146l49.914-49.914 M1728.657,1202.232
	h99.827 M1878.396,1252.146l-49.912-49.914 M1878.396,1252.146l49.914-49.914 M1928.311,1202.232v-99.826 M1878.396,1052.493
	l49.914,49.913 M1878.396,1052.493l-49.914,49.913 M1828.482,1102.406h-99.827 M1728.656,1102.406l-49.913-49.913
	 M1828.482,1102.406l49.914,49.914 M1828.484,1202.232l49.912-49.913 M1728.656,1102.406l-49.914,49.914 M1928.311,1202.232
	l49.914,49.916 M1928.311,1102.406l49.912-49.914 M1628.829,1102.406l-49.914-49.914 M1628.83,1202.232l-49.916,49.916
	 M1279.434,1052.493l-49.914,49.913 M1229.52,1102.406v99.828 M1229.52,1202.232l49.914,49.914 M1279.434,1252.146l49.913-49.914
	 M1329.348,1202.232h99.826 M1429.174,1202.232l49.913,49.914 M1479.087,1252.146l49.914-49.914 M1529,1202.232v-99.826
	 M1529,1102.406l-49.914-49.913 M1479.086,1052.493l-49.913,49.913 M1429.173,1102.406h-99.827 M1329.346,1102.406l-49.912-49.913
	 M1429.173,1102.406l49.915,49.914 M1429.174,1202.232l49.914-49.913 M1329.346,1102.406l-49.914,49.914 M1529,1202.232
	l49.915,49.916 M1529,1102.406l49.913-49.914 M1229.52,1102.406l-49.914-49.914 M1229.52,1202.232l-49.916,49.916 M880.124,1052.493
	l-49.914,49.913 M830.21,1102.406v99.828 M830.21,1202.232l49.913,49.914 M880.124,1252.146l49.914-49.914 M930.038,1202.232h99.827
	 M1029.865,1202.232l49.912,49.914 M1079.777,1252.146l49.914-49.914 M1129.691,1202.232v-99.826 M1129.691,1102.406l-49.914-49.913
	 M1079.777,1052.493l-49.913,49.913 M1029.864,1102.406h-99.827 M930.037,1102.406l-49.913-49.913 M1029.864,1102.406l49.915,49.914
	 M1079.777,1152.318l-49.913,49.914 M930.037,1102.406l-49.914,49.914 M1129.691,1202.232l49.914,49.916 M1129.691,1102.406
	l49.912-49.914 M830.21,1102.406l-49.914-49.914 M830.21,1202.232l-49.916,49.916 M480.814,1252.146l49.914-49.914
	 M530.729,1202.232h99.826 M630.555,1202.232l49.913,49.914 M680.468,1252.146l49.914-49.914 M730.381,1202.232v-99.826
	 M730.381,1102.406l-49.914-49.913 M680.467,1052.493l-49.913,49.913 M630.554,1102.406h-99.827 M530.727,1102.406l-49.912-49.913
	 M630.554,1102.406l49.915,49.914 M680.469,1152.318l-49.914,49.914 M530.727,1102.406l-49.914,49.914 M730.381,1202.232
	l49.915,49.916 M730.381,1102.406l49.913-49.914 M2277.706,1252.146l-49.913,49.914 M2227.793,1302.061v99.828 M2227.793,1401.888
	l49.913,49.914 M2277.706,1451.801l49.914-49.914 M2327.62,1401.888h99.827 M2427.447,1401.887l49.912,49.914 M2477.359,1252.146
	l-49.914,49.914 M2427.446,1302.061h-99.827 M2277.706,1252.146l49.913,49.914 M2427.446,1302.061l49.915,49.914 M2427.447,1401.887
	l49.914-49.914 M2327.619,1302.061l-49.914,49.914 M2227.793,1302.061l-49.914-49.914 M2227.793,1401.888l-49.916,49.915
	 M1878.396,1252.146l-49.914,49.914 M1828.482,1401.888v-99.827 M1828.482,1401.888l49.914,49.914 M1928.311,1401.888
	l-49.914,49.914 M1928.311,1401.888h99.828 M2028.138,1401.887l49.913,49.914 M2078.051,1451.801l49.913-49.914 M2127.964,1401.887
	v-99.826 M2127.964,1302.061l-49.914-49.914 M2078.05,1252.146l-49.913,49.914 M2028.137,1302.061h-99.826 M1878.396,1252.146
	l49.912,49.914 M2028.137,1302.061l49.914,49.914 M2028.138,1401.887l49.913-49.914 M1928.311,1302.061l-49.914,49.914
	 M2127.964,1401.887l49.915,49.915 M2127.964,1302.061l49.913-49.914 M1828.482,1302.061l-49.913-49.914 M1828.482,1401.888
	l-49.914,49.915 M1479.087,1252.146l-49.914,49.914 M1429.173,1302.061v99.828 M1429.174,1401.888l49.913,49.914 M1529.001,1401.888
	l-49.914,49.914 M1529.001,1401.888h99.827 M1678.741,1451.801l-49.913-49.914 M1678.741,1451.801l49.914-49.914 M1728.654,1401.887
	v-99.826 M1728.654,1302.061l-49.914-49.914 M1678.74,1252.146l-49.913,49.914 M1628.827,1302.061H1529 M1479.087,1252.146
	l49.913,49.914 M1628.827,1302.061l49.915,49.914 M1678.742,1351.975l-49.914,49.913 M1529,1302.061l-49.914,49.914
	 M1728.654,1401.887l49.915,49.915 M1728.654,1302.061l49.912-49.914 M1429.173,1302.061l-49.914-49.914 M1429.174,1401.888
	l-49.916,49.915 M1029.864,1302.061l49.914-49.914 M1029.864,1302.061v99.828 M1029.864,1401.888l49.913,49.914 M1079.777,1451.801
	l49.914-49.914 M1129.691,1401.888h99.826 M1279.432,1451.801l-49.914-49.914 M1279.432,1451.801l49.913-49.914 M1329.345,1401.887
	v-99.826 M1329.345,1302.061l-49.914-49.914 M1279.432,1252.146l-49.914,49.914 M1229.518,1302.061h-99.826 M1079.777,1252.146
	l49.912,49.914 M1229.518,1302.061l49.916,49.914 M1279.432,1351.975l-49.914,49.913 M1129.689,1302.061l-49.914,49.914
	 M1329.345,1401.887l49.915,49.915 M1329.345,1302.061l49.913-49.914 M1029.864,1302.061l-49.914-49.914 M979.949,1451.802
	l49.916-49.915 M680.468,1252.146l-49.914,49.914 M630.554,1302.061v99.828 M630.555,1401.888l49.913,49.914 M680.468,1451.801
	l49.914-49.914 M730.382,1401.888h99.827 M880.122,1451.801l-49.913-49.914 M880.122,1451.801l49.914-49.914 M930.035,1401.887
	v-99.826 M930.035,1302.061l-49.914-49.914 M880.121,1252.146l-49.913,49.914 M830.208,1302.061h-99.827 M680.468,1252.146
	l49.913,49.914 M830.208,1302.061l49.915,49.914 M830.209,1401.887l49.914-49.914 M680.467,1351.975l49.914-49.914
	 M930.035,1401.887l49.915,49.915 M930.035,1302.061l49.913-49.914 M630.554,1302.061l-49.914-49.914 M630.555,1401.888
	l-49.916,49.915 M480.812,1451.801l49.914-49.914 M530.727,1401.887v-99.826 M530.727,1302.061l-49.914-49.914 M530.727,1401.887
	l49.914,49.915 M530.727,1302.061l49.912-49.914 M2477.361,1451.803l-49.913,49.913 M2427.448,1501.716l0.001,99.828
	 M2427.449,1601.543l49.912,49.914 M2427.448,1501.716l-49.913-49.914 M2427.449,1601.543l-49.916,49.915 M2078.053,1451.803
	l-49.914,49.913 M2028.139,1501.716v99.828 M2028.139,1601.543l49.914,49.914 M2078.053,1651.457l49.914-49.914 M2127.967,1601.543
	h99.826 M2227.793,1601.543l49.913,49.914 M2277.706,1651.457l49.913-49.914 M2327.619,1601.543v-99.827 M2327.619,1501.716
	l-49.914-49.913 M2277.705,1451.803l-49.912,49.913 M2227.793,1501.716h-99.828 M2127.965,1501.716l-49.912-49.913
	 M2227.793,1501.716l49.914,49.914 M2227.793,1601.543l49.914-49.914 M2127.965,1501.716l-49.914,49.914 M2327.619,1601.543
	l49.916,49.915 M2377.533,1451.802l-49.914,49.914 M2028.139,1501.716l-49.914-49.914 M2028.139,1601.543l-49.914,49.915
	 M1678.743,1451.803l-49.914,49.913 M1628.829,1501.716v99.828 M1628.83,1601.543l49.913,49.914 M1678.743,1651.457l49.914-49.914
	 M1728.657,1601.543h99.827 M1878.396,1651.457l-49.912-49.914 M1878.396,1651.457l49.914-49.914 M1928.311,1601.543v-99.827
	 M1878.396,1451.803l49.914,49.913 M1878.396,1451.803l-49.914,49.913 M1828.482,1501.716h-99.827 M1728.656,1501.716
	l-49.913-49.913 M1828.482,1501.716l49.914,49.914 M1828.484,1601.543l49.912-49.914 M1728.656,1501.716l-49.914,49.914
	 M1928.311,1601.543l49.914,49.915 M1928.311,1501.716l49.912-49.914 M1628.829,1501.716l-49.914-49.914 M1628.83,1601.543
	l-49.916,49.915 M1279.434,1451.803l-49.914,49.913 M1229.52,1501.716v99.828 M1229.52,1601.543l49.914,49.914 M1279.434,1651.457
	l49.913-49.914 M1329.348,1601.543h99.826 M1429.174,1601.543l49.913,49.914 M1479.087,1651.457l49.914-49.914 M1529,1601.543
	v-99.827 M1529,1501.716l-49.914-49.913 M1479.086,1451.803l-49.913,49.913 M1429.173,1501.716h-99.827 M1329.346,1501.716
	l-49.912-49.913 M1429.173,1501.716l49.915,49.914 M1429.174,1601.543l49.914-49.914 M1329.346,1501.716l-49.914,49.914
	 M1578.916,1651.458L1529,1601.543 M1578.914,1451.802L1529,1501.716 M1229.52,1501.716l-49.914-49.914 M1179.604,1651.458
	l49.916-49.915 M880.124,1451.803l-49.914,49.913 M830.21,1601.543v-99.828 M830.21,1601.543l49.913,49.914 M930.038,1601.543
	l-49.914,49.914 M930.038,1601.543h99.827 M1029.865,1601.543l49.912,49.914 M1079.777,1651.457l49.914-49.914 M1129.691,1601.543
	v-99.827 M1129.691,1501.716l-49.914-49.913 M1079.777,1451.803l-49.913,49.913 M1029.864,1501.716h-99.827 M930.037,1501.716
	l-49.913-49.913 M1029.864,1501.716l49.915,49.914 M1079.777,1551.629l-49.913,49.914 M930.037,1501.716l-49.914,49.914
	 M1179.605,1651.458l-49.914-49.915 M1179.604,1451.802l-49.912,49.914 M830.21,1501.716l-49.914-49.914 M830.21,1601.543
	l-49.916,49.915 M530.729,1601.543l-49.914,49.914 M530.729,1601.543h99.826 M630.555,1601.543l49.913,49.914 M680.468,1651.457
	l49.914-49.914 M730.381,1601.543v-99.827 M730.381,1501.716l-49.914-49.913 M680.467,1451.803l-49.913,49.913 M630.554,1501.716
	h-99.827 M530.727,1501.716l-49.912-49.913 M630.554,1501.716l49.915,49.914 M680.469,1551.629l-49.914,49.914 M530.727,1501.716
	l-49.914,49.914 M730.381,1601.543l49.915,49.915 M730.381,1501.716l49.913-49.914 M2277.706,1651.458l-49.913,49.913
	 M2227.793,1701.37v99.828 M2227.793,1801.198l49.913,49.914 M2327.62,1801.198l-49.914,49.914 M2327.62,1801.198h99.827
	 M2427.447,1801.197l49.912,49.914 M2477.359,1651.458l-49.914,49.913 M2427.446,1701.37h-99.827 M2327.619,1701.37l-49.913-49.913
	 M2427.446,1701.37l49.915,49.914 M2427.447,1801.197l49.914-49.914 M2327.619,1701.37l-49.914,49.914 M2227.793,1701.37
	l-49.914-49.914 M2227.793,1801.198l-49.916,49.915 M1878.396,1651.458l-49.914,49.913 M1828.482,1701.37v99.828 M1828.482,1801.198
	l49.914,49.914 M1878.396,1851.111l49.914-49.914 M1928.311,1801.198h99.828 M2028.138,1801.197l49.913,49.914 M2078.051,1851.111
	l49.913-49.914 M2127.964,1801.197v-99.827 M2127.964,1701.37l-49.914-49.913 M2078.05,1651.458l-49.913,49.913 M2028.137,1701.37
	h-99.826 M1928.311,1701.37l-49.914-49.913 M2028.137,1701.37l49.914,49.914 M2028.138,1801.197l49.913-49.914 M1928.311,1701.37
	l-49.914,49.914 M2177.879,1851.112l-49.915-49.915 M2127.964,1701.37l49.913-49.914 M1828.482,1701.37l-49.913-49.914
	 M1828.482,1801.198l-49.914,49.915 M1479.087,1651.458l-49.914,49.913 M1429.173,1701.37v99.828 M1429.174,1801.198l49.913,49.914
	 M1479.087,1851.111l49.914-49.914 M1529.001,1801.198h99.827 M1628.828,1801.197l49.913,49.914 M1678.741,1851.111l49.914-49.914
	 M1728.654,1801.197v-99.827 M1728.654,1701.37l-49.914-49.913 M1678.74,1651.458l-49.913,49.913 M1628.827,1701.37H1529
	 M1529,1701.37l-49.913-49.913 M1628.827,1701.37l49.915,49.914 M1628.828,1801.197l49.914-49.914 M1529,1701.37l-49.914,49.914
	 M1778.568,1851.112l-49.914-49.915 M1728.654,1701.37l49.912-49.914 M1429.173,1701.37l-49.914-49.914 M1429.174,1801.198
	l-49.916,49.915 M1079.777,1651.458l-49.914,49.913 M1029.864,1701.37v99.828 M1029.864,1801.198l49.913,49.914 M1129.691,1801.198
	l-49.914,49.914 M1129.691,1801.198h99.826 M1229.52,1801.197l49.912,49.914 M1279.432,1851.111l49.913-49.914 M1329.345,1801.197
	v-99.827 M1329.345,1701.37l-49.914-49.913 M1279.432,1651.458l-49.914,49.913 M1229.518,1701.37h-99.826 M1129.689,1701.37
	l-49.912-49.913 M1229.518,1701.37l49.916,49.914 M1229.52,1801.197l49.914-49.914 M1129.689,1701.37l-49.914,49.914
	 M1379.26,1851.112l-49.915-49.915 M1329.345,1701.37l49.913-49.914 M1029.864,1701.37l-49.914-49.914 M1029.864,1801.198
	l-49.916,49.915 M680.468,1651.458l-49.914,49.913 M630.554,1701.37v99.828 M630.555,1801.198l49.913,49.914 M730.382,1801.198
	l-49.914,49.914 M730.382,1801.198h99.827 M830.209,1801.197l49.913,49.914 M880.122,1851.111l49.914-49.914 M930.035,1801.197
	v-99.827 M930.035,1701.37l-49.914-49.913 M880.121,1651.458l-49.913,49.913 M830.208,1701.37h-99.827 M730.381,1701.37
	l-49.913-49.913 M830.208,1701.37l49.915,49.914 M830.209,1801.197l49.914-49.914 M730.381,1701.37l-49.914,49.914
	 M930.035,1801.197l49.915,49.915 M930.035,1701.37l49.913-49.914 M630.554,1701.37l-49.914-49.914 M630.555,1801.198
	l-49.916,49.915 M480.812,1851.111l49.914-49.914 M530.727,1801.197v-99.827 M530.727,1701.37l-49.914-49.913 M580.641,1851.112
	l-49.914-49.915 M530.727,1701.37l49.912-49.914 M2477.361,1851.113l-49.913,49.913 M2427.448,1901.026l0.001,99.827
	 M2427.449,2000.854l49.912,49.914 M2427.448,1901.026l-49.913-49.914 M2427.449,2000.854l-49.916,49.916 M2078.053,1851.113
	l-49.914,49.913 M2028.139,1901.026v99.827 M2028.139,2000.854l49.914,49.914 M2078.053,2050.768l49.914-49.914 M2127.967,2000.854
	h99.826 M2227.793,2000.854l49.913,49.914 M2277.706,2050.768l49.913-49.914 M2327.619,2000.854v-99.827 M2327.619,1901.026
	l-49.914-49.913 M2277.705,1851.113l-49.912,49.913 M2227.793,1901.026h-99.828 M2127.965,1901.026l-49.912-49.913
	 M2227.793,1901.026l49.914,49.913 M2277.707,1950.939l-49.914,49.914 M2127.965,1901.026l-49.914,49.913 M2327.619,2000.854
	l49.916,49.914 M2327.619,1901.026l49.914-49.914 M2028.139,1901.026l-49.914-49.914 M2028.139,2000.854l-49.914,49.916
	 M1678.743,1851.113l-49.914,49.913 M1628.829,1901.026v99.827 M1628.83,2000.854l49.913,49.914 M1728.657,2000.854l-49.914,49.914
	 M1828.484,2000.854h-99.828 M1878.396,2050.768l-49.912-49.914 M1878.396,2050.768l49.914-49.914 M1928.311,2000.854v-99.827
	 M1878.396,1851.113l49.914,49.913 M1878.396,1851.113l-49.914,49.913 M1828.482,1901.026h-99.827 M1728.656,1901.026
	l-49.913-49.913 M1828.482,1901.026l49.914,49.913 M1828.484,2000.854l49.912-49.914 M1728.656,1901.026l-49.914,49.913
	 M1928.311,2000.854l49.914,49.914 M1928.311,1901.026l49.912-49.914 M1628.829,1901.026l-49.914-49.914 M1628.83,2000.854
	l-49.916,49.916 M1279.434,1851.113l-49.914,49.913 M1229.52,1901.026v99.827 M1229.52,2000.854l49.914,49.914 M1329.348,2000.854
	l-49.914,49.914 M1329.348,2000.854h99.826 M1429.174,2000.854l49.913,49.914 M1479.087,2050.768l49.914-49.914 M1529,2000.854
	v-99.827 M1529,1901.026l-49.914-49.913 M1479.086,1851.113l-49.913,49.913 M1429.173,1901.026h-99.827 M1329.346,1901.026
	l-49.912-49.913 M1429.173,1901.026l49.915,49.913 M1429.174,2000.854l49.914-49.914 M1329.346,1901.026l-49.914,49.913
	 M1529,2000.854l49.915,49.914 M1529,1901.026l49.913-49.914 M1229.52,1901.026l-49.914-49.914 M1229.52,2000.854l-49.916,49.916
	 M880.124,1851.113l-49.914,49.913 M830.21,2000.854v-99.827 M830.21,2000.854l49.913,49.914 M880.124,2050.768l49.914-49.914
	 M930.038,2000.854h99.827 M1029.865,2000.854l49.912,49.914 M1079.777,2050.768l49.914-49.914 M1129.691,2000.854v-99.827
	 M1129.691,1901.026l-49.914-49.913 M1029.864,1901.026l49.913-49.913 M1029.864,1901.026h-99.827 M930.037,1901.026l-49.913-49.913
	 M1029.864,1901.026l49.915,49.913 M1029.865,2000.854l49.914-49.914 M930.037,1901.026l-49.914,49.913 M1129.691,2000.854
	l49.914,49.914 M1129.691,1901.026l49.912-49.914 M830.21,1901.026l-49.914-49.914 M830.21,2000.854l-49.916,49.916
	 M480.814,2050.768l49.914-49.914 M530.729,2000.854h99.826 M630.555,2000.854l49.913,49.914 M680.468,2050.768l49.914-49.914
	 M730.381,2000.854v-99.827 M730.381,1901.026l-49.914-49.913 M680.467,1851.113l-49.913,49.913 M630.554,1901.026h-99.827
	 M530.727,1901.026l-49.912-49.913 M630.554,1901.026l49.915,49.913 M630.555,2000.854l49.914-49.914 M530.727,1901.026
	l-49.914,49.913 M730.381,2000.854l49.915,49.914 M730.381,1901.026l49.913-49.914"/>
<path fill="none" stroke="#000000" stroke-miterlimit="10" d="M2477.361,2050.768H480.814V253.873h1996.547V2050.768z"/>
</svg>
