<?xml version="1.0" encoding="utf-8"?>
<!-- Generator: Adobe Illustrator 16.0.3, SVG Export Plug-In . SVG Version: 6.00 Build 0)  -->
<!DOCTYPE svg PUBLIC "-//W3C//DTD SVG 1.1//EN" "http://www.w3.org/Graphics/SVG/1.1/DTD/svg11.dtd">
<svg version="1.1" id="Layer_1" xmlns="http://www.w3.org/2000/svg" xmlns:xlink="http://www.w3.org/1999/xlink" x="0px" y="0px"
	 width="1566px" height="1174px" viewBox="0 0 1566 1174" enable-background="new 0 0 1566 1174" xml:space="preserve">
<path opacity="0.3333" fill="none" stroke="#FF0000" stroke-linecap="round" stroke-miterlimit="10" d="M298.266,285.743v39.666
	 M298.266,285.743l-34.352-19.833 M332.618,265.91l-34.352,19.833 M195.212,345.241l34.352-19.833 M195.212,464.238l34.352-19.833
	 M298.266,523.736v39.666 M298.266,523.736l-34.352-19.833 M298.266,523.736l34.352-19.833 M298.266,404.74v39.666 M263.914,384.906
	l34.352,19.834 M298.266,404.74l34.352-19.834 M195.212,583.234l34.352-19.834 M401.32,226.245v39.666 M401.32,226.245
	l-34.354-19.833 M435.671,206.412l-34.352,19.833 M504.374,285.743v39.666 M504.374,285.743l-34.353-19.833 M504.374,285.743
	l34.353-19.833 M401.32,345.241v39.666 M401.32,345.241l-34.354-19.833 M435.671,325.408l-34.352,19.833 M401.319,464.238v39.666
	 M366.967,444.405l34.354,19.833 M401.319,464.238l34.352-19.833 M504.374,523.736v39.666 M504.374,523.736l-34.353-19.833
	 M504.374,523.736l34.353-19.833 M504.374,404.74v39.666 M470.021,384.906l34.353,19.834 M504.374,404.74l34.353-19.834
	 M401.319,583.234V622.9 M401.319,583.234L366.967,563.4 M435.67,563.4l-34.352,19.834 M607.427,226.245v39.666 M607.427,226.245
	l-34.352-19.833 M607.427,226.245l34.354-19.833 M710.48,285.743v39.666 M710.48,285.743l-34.354-19.833 M744.832,265.91
	l-34.352,19.833 M607.427,345.241v39.666 M607.427,345.241l-34.352-19.833 M607.427,345.241l34.354-19.833 M607.426,464.238v39.666
	 M573.075,444.405l34.352,19.833 M607.426,464.238l34.354-19.833 M710.48,523.736v39.666 M710.48,523.736l-34.354-19.833
	 M744.832,503.903l-34.352,19.833 M710.48,404.74v39.666 M676.129,384.906l34.352,19.834 M710.48,404.74l34.352-19.834
	 M607.426,583.234V622.9 M607.426,583.234L573.074,563.4 M607.426,583.234L641.78,563.4 M813.535,226.245v39.666 M813.535,226.245
	l-34.352-19.833 M813.535,226.245l34.352-19.833 M916.588,285.743v39.666 M916.588,285.743l-34.352-19.833 M916.588,285.743
	l34.352-19.833 M813.535,345.241v39.666 M813.535,345.241l-34.352-19.833 M813.535,345.241l34.352-19.833 M813.533,464.238v39.666
	 M779.182,444.405l34.354,19.833 M813.533,464.238l34.352-19.833 M916.588,523.736v39.666 M916.588,523.736l-34.352-19.833
	 M916.588,523.736l34.352-19.833 M916.588,404.74v39.666 M882.236,384.906l34.352,19.834 M916.588,404.74l34.352-19.834
	 M813.533,583.234V622.9 M813.533,583.234L779.182,563.4 M847.885,563.4l-34.352,19.834 M195.212,702.23l34.352-19.832
	 M298.266,761.729v39.666 M298.266,761.729l-34.352-19.832 M298.266,761.729l34.352-19.832 M298.266,642.732v39.666
	 M263.914,622.898l34.352,19.834 M298.266,642.732l34.352-19.834 M195.212,821.229l34.352-19.834 M195.211,940.225l34.352-19.832
	 M298.266,880.727v39.666 M263.914,860.893l34.352,19.834 M298.266,880.727l34.352-19.834 M401.319,702.23v39.666 M366.968,682.398
	l34.354,19.832 M401.319,702.23l34.352-19.832 M504.373,761.729v39.666 M504.373,761.729l-34.352-19.832 M504.373,761.729
	l34.352-19.832 M504.373,642.732v39.666 M470.021,622.898l34.352,19.834 M504.373,642.732l34.352-19.834 M401.319,821.229v39.666
	 M401.319,821.229l-34.354-19.834 M435.671,801.395l-34.352,19.834 M401.318,940.225v39.666 M366.967,920.393l34.354,19.832
	 M401.318,940.225l34.352-19.832 M504.373,880.727v39.666 M470.021,860.893l34.352,19.834 M504.373,880.727l34.352-19.834
	 M607.427,702.23v39.666 M573.075,682.398l34.352,19.832 M607.427,702.23l34.354-19.832 M710.48,761.729v39.666 M710.48,761.729
	l-34.354-19.832 M744.832,741.896l-34.352,19.832 M710.48,642.732v39.666 M676.129,622.898l34.352,19.834 M710.48,642.732
	l34.352-19.834 M607.427,821.229v39.666 M607.427,821.229l-34.352-19.834 M607.427,821.229l34.354-19.834 M607.426,940.225v39.666
	 M573.074,920.393l34.352,19.832 M607.426,940.225l34.354-19.832 M710.48,880.727v39.666 M676.129,860.893l34.352,19.834
	 M710.48,880.727l34.352-19.834 M813.533,702.23v39.666 M779.182,682.398l34.354,19.832 M813.533,702.23l34.352-19.832
	 M916.588,761.729v39.666 M916.588,761.729l-34.352-19.832 M916.588,761.729l34.352-19.832 M916.588,642.732v39.666
	 M882.236,622.898l34.352,19.834 M916.588,642.732l34.352-19.834 M813.533,821.229v39.666 M813.533,821.229l-34.352-19.834
	 M847.885,801.395l-34.352,19.834 M813.533,940.225v39.666 M779.182,920.393l34.354,19.832 M813.533,940.225l34.352-19.832
	 M916.588,880.727v39.666 M882.236,860.893l34.352,19.834 M916.588,880.727l34.352-19.834 M1019.645,345.24l-34.353-19.833
	 M985.29,444.404l34.353,19.833 M1019.643,583.232L985.29,563.4 M985.29,682.396l34.353,19.834 M1019.643,821.227l-34.353-19.832
	 M985.29,920.391l34.353,19.834"/>
<path opacity="0.5" fill="none" stroke="#FF0000" stroke-linecap="round" stroke-miterlimit="10" enable-background="new    " d="
	M470.021,979.891l-68.703-118.996l-68.701,118.996 M676.129,979.891l-68.703-118.996l-68.701,118.996 M882.236,979.891
	l-68.703-118.996l-68.701,118.996 M229.564,206.413l34.351,59.498 M366.968,325.409l-68.702-118.997l-68.703,118.997H366.968z
	 M195.212,265.91l68.702,118.997 M195.212,384.907l68.702,118.997 M366.968,563.402l-68.702-118.997l-68.703,118.997H366.968z
	 M366.968,444.406l-68.702-118.998l-68.703,118.998H366.968z M195.212,503.903L263.914,622.9 M366.969,206.413l-34.351,59.499
	h137.403l-34.354-59.499 M573.076,325.409l-68.702-118.997L435.67,325.409H573.076z M470.021,384.907L401.32,265.91l-68.702,118.997
	H470.021z M470.021,503.904l-68.702-118.997l-68.701,118.997H470.021z M573.075,563.402l-68.701-118.997L435.67,563.402H573.075z
	 M573.075,444.406l-68.701-118.998L435.67,444.406H573.075z M470.021,622.9l-68.702-118.997L332.618,622.9H470.021z
	 M573.076,206.413l-34.354,59.499h137.404l-34.354-59.499 M779.184,325.409L710.48,206.412l-68.703,118.997H779.184z
	 M676.129,384.907L607.427,265.91l-68.702,118.997H676.129z M676.129,503.904l-68.703-118.997l-68.701,118.997H676.129z
	 M779.182,563.402L710.48,444.405l-68.703,118.997H779.182z M779.182,444.406L710.48,325.408l-68.703,118.998H779.182z
	 M676.129,622.9l-68.703-118.997L538.725,622.9H676.129z M779.184,206.414l-34.352,59.498h137.404l-34.354-59.499 M985.291,325.409
	l-68.703-118.997l-68.703,118.997H985.291z M882.236,384.907L813.535,265.91l-68.703,118.997H882.236z M882.236,503.904
	l-68.703-118.997l-68.701,118.997H882.236z M985.289,563.402l-68.701-118.997l-68.703,118.997H985.289z M985.289,444.406
	l-68.701-118.998l-68.703,118.998H985.289z M882.236,622.9l-68.703-118.997L744.832,622.9H882.236z M195.212,622.9l68.702,118.996
	 M366.968,801.396l-68.702-118.998l-68.703,118.998H366.968z M366.968,682.398L298.266,563.4l-68.703,118.998H366.968z
	 M195.212,741.896l68.702,118.996 M195.211,860.895l68.703,118.996 M332.616,979.891l-34.351-59.498l-34.352,59.498
	 M366.967,920.393l-68.701-118.998l-68.703,118.998H366.967z M470.021,741.896L401.319,622.9l-68.702,118.996H470.021z
	 M573.075,801.396l-68.702-118.998L435.67,801.396H573.075z M573.075,682.398L504.373,563.4L435.67,682.398H573.075z
	 M470.021,860.895l-68.702-118.998l-68.702,118.998H470.021z M573.074,920.393l-68.701-118.998L435.67,920.393H573.074z
	 M676.129,741.896L607.427,622.9l-68.702,118.996H676.129z M779.182,801.396L710.48,682.398l-68.703,118.996H779.18L779.182,801.396
	L779.182,801.396z M779.182,682.398L710.48,563.4l-68.703,118.998H779.182z M676.129,860.895l-68.702-118.998l-68.702,118.998
	H676.129z M744.832,979.891l-34.352-59.498l-34.354,59.498 M779.182,920.393L710.48,801.395l-68.703,118.998H779.182z
	 M882.236,741.896L813.533,622.9l-68.701,118.996H882.236z M985.289,801.396l-68.701-118.998l-68.703,118.998H985.289z
	 M985.289,682.398L916.588,563.4l-68.703,118.998H985.289z M882.236,860.895l-68.703-118.998l-68.701,118.998H882.236z
	 M950.938,979.891l-34.353-59.5l-34.353,59.5 M985.289,920.393l-68.701-118.998l-68.703,118.998H985.289z M950.939,265.91
	l34.352-59.497 M1019.645,265.909l-68.705,118.997 M950.939,503.903l68.701-118.997 M950.939,622.898l68.701-118.996
	 M950.939,741.896l68.701-118.998 M950.939,860.893l68.701-118.996 M950.939,979.891l68.701-118.998 M538.725,979.891
	l-34.351-59.498l-34.353,59.498 M950.939,265.91l68.703-0.001 M950.939,384.906h68.701 M950.939,503.903l68.701-0.001
	 M950.939,622.898h68.701 M950.939,741.896l68.701-0.002 M950.939,860.893h68.701 M263.914,860.895h-68.702 M263.914,741.896
	h-68.702 M263.914,622.9h-68.702 M263.914,503.903h-68.702 M263.914,384.906l-68.702,0.001 M263.915,265.91h-68.702"/>
<path fill="none" stroke="#0000FF" stroke-linecap="round" stroke-miterlimit="10" d="M195.212,226.245l68.703,39.666
	 M298.266,285.743v-79.331 M298.266,285.743l-68.703,39.666 M298.266,285.743l68.702,39.666 M195.212,345.241l68.702,39.666
	 M195.212,464.238l68.702,39.666 M298.266,523.736v-79.331 M298.266,523.736l-68.703,39.666 M298.266,523.736l68.702,39.666
	 M298.266,404.74v-79.332 M298.266,404.74l-68.703,39.666 M298.266,404.74l68.702,39.666 M195.212,583.234l68.702,39.666
	 M401.32,226.245l-68.702,39.666 M401.32,226.245l68.701,39.666 M504.374,285.743v-79.331 M504.374,285.743l-68.703,39.666
	 M504.374,285.743l68.702,39.666 M401.32,345.241V265.91 M401.32,345.241l-68.702,39.666 M401.32,345.241l68.701,39.666
	 M401.319,464.238v-79.331 M401.319,464.238l-68.701,39.666 M401.319,464.238l68.702,39.666 M504.374,523.736v-79.331
	 M504.374,523.736l-68.703,39.666 M504.374,523.736l68.701,39.666 M504.374,404.74v-79.332 M504.374,404.74l-68.703,39.666
	 M504.374,404.74l68.701,39.666 M401.319,583.234v-79.331 M401.319,583.234L332.618,622.9 M401.319,583.234l68.702,39.666
	 M607.427,226.245l-68.702,39.666 M607.427,226.245l68.702,39.666 M710.48,285.743v-79.331 M710.48,285.743l-68.703,39.666
	 M710.48,285.743l68.703,39.666 M607.427,345.241V265.91 M607.427,345.241l-68.702,39.666 M607.427,345.241l68.702,39.666
	 M607.426,464.238v-79.331 M607.426,464.238l-68.701,39.666 M607.426,464.238l68.703,39.666 M710.48,523.736v-79.331
	 M710.48,523.736l-68.703,39.666 M710.48,523.736l68.697,39.666 M710.48,404.74v-79.332 M710.48,404.74l-68.703,39.666
	 M710.48,404.74l68.697,39.666 M607.426,583.234v-79.331 M607.426,583.234L538.725,622.9 M607.426,583.234l68.703,39.666
	 M813.535,226.245l-68.703,39.666 M813.535,226.245l68.701,39.666 M916.588,285.743v-79.331 M916.588,285.743l-68.703,39.666
	 M916.588,285.743l68.703,39.666 M813.535,345.241V265.91 M813.535,345.241l-68.703,39.666 M813.535,345.241l68.701,39.666
	 M813.533,464.238v-79.331 M813.533,464.238l-68.701,39.666 M813.533,464.238l68.703,39.666 M916.588,523.736v-79.331
	 M916.588,523.736l-68.703,39.666 M916.588,523.736l68.701,39.666 M916.588,404.74v-79.332 M916.588,404.74l-68.703,39.666
	 M916.588,404.74l68.701,39.666 M813.533,583.234v-79.331 M813.533,583.234L744.832,622.9 M813.533,583.234l68.703,39.666
	 M195.212,702.23l68.702,39.666 M298.266,761.729v-79.33 M298.266,761.729l-68.703,39.666 M298.266,761.729l68.702,39.666
	 M298.266,642.732V563.4 M298.266,642.732l-68.703,39.666 M298.266,642.732l68.702,39.666 M195.212,821.229l68.702,39.666
	 M195.211,940.225l68.703,39.666 M298.266,979.891v-59.498 M298.266,880.727v-79.332 M298.266,880.727l-68.703,39.666
	 M298.266,880.727l68.701,39.666 M401.319,702.23V622.9 M401.319,702.23l-68.702,39.666 M401.319,702.23l68.702,39.666
	 M504.373,761.729v-79.33 M504.373,761.729l-68.703,39.666 M504.373,761.729l68.702,39.666 M504.373,642.732V563.4 M504.373,642.732
	l-68.703,39.666 M504.373,642.732l68.702,39.666 M401.319,821.229v-79.332 M401.319,821.229l-68.702,39.666 M401.319,821.229
	l68.702,39.666 M401.318,940.225v-79.33 M401.318,940.225l-68.701,39.666 M401.318,940.225l68.703,39.666 M504.373,979.891v-59.498
	 M504.373,880.727v-79.332 M504.373,880.727l-68.703,39.666 M504.373,880.727l68.701,39.666 M607.427,702.23V622.9 M607.427,702.23
	l-68.702,39.666 M607.427,702.23l68.702,39.666 M710.48,761.729v-79.33 M710.48,761.729l-68.703,39.666 M710.48,761.729
	l68.697,39.666 M710.48,642.732V563.4 M710.48,642.732l-68.703,39.666 M710.48,642.732l68.697,39.666 M607.427,821.229v-79.332
	 M607.427,821.229l-68.702,39.666 M607.427,821.229l68.702,39.666 M607.426,940.225v-79.33 M607.426,940.225l-68.701,39.666
	 M607.426,940.225l68.703,39.666 M710.48,979.891v-59.498 M710.48,880.727v-79.332 M710.48,880.727l-68.703,39.666 M710.48,880.727
	l68.697,39.666 M813.533,702.23V622.9 M813.533,702.23l-68.701,39.666 M813.533,702.23l68.703,39.666 M916.588,761.729v-79.33
	 M916.588,761.729l-68.703,39.666 M916.588,761.729l68.701,39.666 M916.588,642.732V563.4 M916.588,642.732l-68.703,39.666
	 M916.588,642.732l68.701,39.666 M813.533,821.229v-79.332 M813.533,821.229l-68.701,39.666 M813.533,821.229l68.703,39.666
	 M813.533,940.225v-79.33 M813.533,940.225l-68.701,39.666 M813.533,940.225l68.703,39.666 M916.588,979.891v-59.498
	 M916.588,880.727v-79.332 M916.588,880.727l-68.703,39.666 M916.588,880.727l68.701,39.666 M1019.645,226.244l-68.705,39.666
	 M1019.645,345.24l-68.703,39.666 M1019.643,464.237l-68.701,39.666 M1019.643,583.232l-68.701,39.666 M1019.643,702.23
	l-68.701,39.666 M1019.643,821.227l-68.701,39.666 M1019.643,940.225l-68.703,39.666 M401.32,226.245v-19.832 M607.427,226.245
	v-19.832 M813.535,226.245l-0.002-19.832"/>
<path fill="none" stroke="#000000" stroke-linecap="round" stroke-miterlimit="10" d="M195.212,206.413v59.498 M366.968,206.413
	H195.21 M195.212,345.241v39.666 M195.212,345.241V265.91 M195.212,464.238v39.666 M195.212,464.238v-79.331 M195.212,583.234V622.9
	 M195.212,583.234v-79.331 M573.076,206.413H435.67 M779.184,206.413H641.777 M1019.645,206.413h-171.76 M195.212,702.23v39.666
	 M195.212,702.23V622.9 M195.212,821.229v39.666 M195.212,821.229v-79.332 M195.211,940.225v39.666 M195.211,940.225v-79.33
	 M1019.645,206.414v59.497 M1019.645,345.24v39.666 M1019.645,345.24v-79.331 M1019.643,464.237v39.666 M1019.643,464.237v-79.331
	 M1019.643,583.232v39.666 M1019.643,583.232v-79.33 M1019.643,702.23v39.666 M1019.643,702.23v-79.332 M1019.643,821.227v39.666
	 M1019.643,821.227v-79.33 M1019.643,940.225v39.666 M1019.643,940.225v-79.332 M366.968,206.412h68.703 M573.076,206.412h68.704
	 M847.887,206.412l-68.703,0.001 M195.211,979.891h824.432"/>
</svg>
