<?xml version="1.0" encoding="utf-8"?>
<!-- Generator: Adobe Illustrator 16.0.3, SVG Export Plug-In . SVG Version: 6.00 Build 0)  -->
<!DOCTYPE svg PUBLIC "-//W3C//DTD SVG 1.1//EN" "http://www.w3.org/Graphics/SVG/1.1/DTD/svg11.dtd">
<svg version="1.1" id="Layer_1" xmlns="http://www.w3.org/2000/svg" xmlns:xlink="http://www.w3.org/1999/xlink" x="0px" y="0px"
	 width="1566px" height="1174px" viewBox="0 0 1566 1174" enable-background="new 0 0 1566 1174" xml:space="preserve">
<path fill="none" stroke="#FF0000" stroke-linecap="round" stroke-miterlimit="10" d="M470.021,979.891l-68.703-118.997
	l-68.701,118.997 M676.129,979.891l-68.703-118.997l-68.701,118.997 M882.236,979.891l-68.703-118.997l-68.701,118.997
	 M229.564,206.413l34.351,59.498 M195.212,226.245 M366.968,325.409l-68.702-118.997l-68.703,118.997H366.968z M298.266,285.743
	v39.666 M298.266,285.743l-34.352-19.833 M332.618,265.91l-34.352,19.833 M298.266,206.413 M195.212,265.91l68.702,118.997
	 M195.212,345.241 M195.212,345.241l34.352-19.833 M195.212,384.907l68.702,118.997 M195.212,464.238 M195.212,464.238
	l34.352-19.833 M366.968,563.402l-68.702-118.997l-68.703,118.997H366.968z M298.266,523.736v39.666 M298.266,523.736
	l-34.352-19.833 M298.266,523.736l34.352-19.833 M366.968,444.406l-68.702-118.998l-68.703,118.998H366.968z M298.266,404.74v39.666
	 M263.914,384.906l34.352,19.834 M298.266,404.74l34.352-19.834 M195.212,503.903L263.914,622.9 M195.212,583.234 M195.212,583.234
	l34.352-19.833 M195.212,583.234 M366.969,206.413l-34.351,59.499h137.404l-34.351-59.499 M401.32,226.245v39.666 M401.32,226.245
	l-34.352-19.833 M435.671,206.412l-34.352,19.833 M573.076,325.409l-68.702-118.997L435.67,325.409H573.076z M504.374,285.743
	v39.666 M504.374,285.743l-34.352-19.833 M504.374,285.743l34.352-19.833 M504.374,206.413 M470.022,384.907L401.32,265.91
	l-68.702,118.997H470.022z M401.32,345.241v39.666 M401.32,345.241l-34.352-19.833 M435.671,325.408l-34.352,19.833
	 M470.022,503.904l-68.703-118.997l-68.701,118.997H470.022z M401.319,464.238v39.666 M366.967,444.405l34.352,19.833
	 M401.319,464.238l34.352-19.833 M573.075,563.402l-68.701-118.997L435.67,563.402H573.075z M504.374,523.736v39.666
	 M504.374,523.736l-34.352-19.833 M504.374,523.736l34.352-19.833 M573.075,444.406l-68.701-118.998L435.67,444.406H573.075z
	 M504.374,404.74v39.666 M470.022,384.906l34.352,19.834 M504.374,404.74l34.352-19.834 M470.022,622.9l-68.703-118.997
	L332.618,622.9H470.022z M401.319,583.234V622.9 M401.319,583.234l-34.352-19.833 M435.67,563.401l-34.352,19.833 M573.076,206.413
	l-34.351,59.499h137.404l-34.352-59.499 M607.427,226.245v39.666 M607.427,226.245l-34.352-19.833 M607.427,226.245l34.352-19.833
	 M779.184,325.409L710.48,206.412l-68.703,118.997H779.184z M710.48,285.743v39.666 M710.48,285.743l-34.352-19.833 M744.832,265.91
	l-34.352,19.833 M710.48,206.413 M676.129,384.907L607.427,265.91l-68.702,118.997H676.129z M607.427,345.241v39.666
	 M607.427,345.241l-34.352-19.833 M607.427,345.241l34.352-19.833 M676.129,503.904l-68.703-118.997l-68.701,118.997H676.129z
	 M607.426,464.238v39.666 M573.075,444.405l34.352,19.833 M607.426,464.238l34.351-19.833 M779.182,563.402L710.48,444.405
	l-68.703,118.997H779.182z M710.48,523.736v39.666 M710.48,523.736l-34.352-19.833 M744.832,503.903l-34.352,19.833
	 M779.182,444.406L710.48,325.408l-68.703,118.998H779.182z M710.48,404.74v39.666 M676.129,384.906l34.352,19.834 M710.48,404.74
	l34.352-19.834 M676.129,622.9l-68.703-118.997L538.725,622.9H676.129z M607.426,583.234V622.9 M607.426,583.234l-34.352-19.833
	 M607.426,583.234l34.351-19.833 M779.184,206.414l-34.352,59.498h137.404l-34.351-59.499 M813.535,226.245v39.666 M813.535,226.245
	l-34.352-19.833 M813.535,226.245l34.352-19.833 M985.291,325.409l-68.703-118.997l-68.703,118.997H985.291z M916.588,285.743
	v39.666 M916.588,285.743l-34.352-19.833 M916.588,285.743l34.352-19.833 M916.588,206.413 M882.236,384.907L813.535,265.91
	l-68.703,118.997H882.236z M813.535,345.241v39.666 M813.535,345.241l-34.352-19.833 M813.535,345.241l34.352-19.833
	 M882.236,503.904l-68.703-118.997l-68.701,118.997H882.236z M813.533,464.238v39.666 M779.182,444.405l34.352,19.833
	 M813.533,464.238l34.352-19.833 M985.289,563.402l-68.701-118.997l-68.703,118.997H985.289z M916.588,523.736v39.666
	 M916.588,523.736l-34.352-19.833 M916.588,523.736l34.352-19.833 M985.289,444.406l-68.701-118.998l-68.703,118.998H985.289z
	 M916.588,404.74v39.666 M882.236,384.906l34.352,19.834 M916.588,404.74l34.352-19.834 M882.236,622.9l-68.703-118.997
	L744.832,622.9H882.236z M813.533,583.234V622.9 M813.533,583.234l-34.352-19.833 M847.885,563.401l-34.352,19.833 M195.212,622.9
	l68.702,118.997 M195.212,702.231 M195.212,702.231l34.352-19.833 M195.212,702.231 M366.968,801.396l-68.702-118.997
	l-68.703,118.997H366.968z M298.266,761.729v39.666 M298.266,761.729l-34.352-19.833 M298.266,761.729l34.352-19.833
	 M366.968,682.399l-68.702-118.998l-68.703,118.998H366.968z M298.266,642.733v39.666 M263.914,622.899l34.352,19.834
	 M298.266,642.733l34.352-19.834 M195.212,741.896l68.702,118.997 M195.212,821.228 M195.212,821.228l34.352-19.833
	 M195.212,821.228 M195.211,860.894l68.703,118.997 M195.211,940.225 M195.211,940.225l34.352-19.833 M195.211,940.225
	 M332.616,979.891l-34.351-59.499l-34.352,59.499 M366.967,920.393l-68.701-118.998l-68.703,118.998H366.967z M298.266,880.727
	v39.666 M263.914,860.893l34.352,19.834 M298.266,880.727l34.352-19.834 M470.021,741.897L401.319,622.9l-68.702,118.997H470.021z
	 M401.319,702.231v39.666 M366.968,682.398l34.352,19.833 M401.319,702.231l34.352-19.833 M573.075,801.396l-68.702-118.997
	L435.67,801.396H573.075z M504.373,761.729v39.666 M504.373,761.729l-34.352-19.833 M504.373,761.729l34.352-19.833
	 M573.075,682.399l-68.702-118.998L435.67,682.399H573.075z M504.373,642.733v39.666 M470.021,622.899l34.352,19.834
	 M504.373,642.733l34.352-19.834 M470.021,860.894l-68.702-118.997l-68.702,118.997H470.021z M401.319,821.228v39.666
	 M401.319,821.228l-34.352-19.833 M435.671,801.395l-34.352,19.833 M401.318,940.225v39.666 M366.967,920.392l34.352,19.833
	 M401.318,940.225l34.352-19.833 M538.725,979.891l-34.351-59.499l-34.352,59.499 M573.074,920.393l-68.701-118.998L435.67,920.393
	H573.074z M504.373,880.727v39.666 M470.021,860.893l34.352,19.834 M504.373,880.727l34.352-19.834 M676.129,741.897L607.427,622.9
	l-68.702,118.997H676.129z M607.427,702.231v39.666 M573.075,682.398l34.352,19.833 M607.427,702.231l34.352-19.833
	 M779.182,801.396L710.48,682.398l-68.703,118.997H779.182z M710.48,761.729v39.666 M710.48,761.729l-34.352-19.833
	 M744.832,741.896l-34.352,19.833 M779.182,682.399L710.48,563.401l-68.703,118.998H779.182z M710.48,642.733v39.666
	 M676.129,622.899l34.352,19.834 M710.48,642.733l34.352-19.834 M676.129,860.894l-68.702-118.997l-68.702,118.997H676.129z
	 M607.427,821.228v39.666 M607.427,821.228l-34.352-19.833 M607.427,821.228l34.352-19.833 M607.426,940.225v39.666
	 M573.074,920.392l34.352,19.833 M607.426,940.225l34.352-19.833 M744.832,979.891l-34.351-59.499l-34.352,59.499 M779.182,920.393
	L710.48,801.395l-68.703,118.998H779.182z M710.48,880.727v39.666 M676.129,860.893l34.352,19.834 M710.48,880.727l34.352-19.834
	 M882.236,741.897L813.533,622.9l-68.701,118.997H882.236z M813.533,702.231v39.666 M779.182,682.398l34.352,19.833
	 M813.533,702.231l34.352-19.833 M985.289,801.396l-68.701-118.997l-68.703,118.997H985.289z M916.588,761.729v39.666
	 M916.588,761.729l-34.352-19.833 M916.588,761.729l34.352-19.833 M985.289,682.399l-68.701-118.998l-68.703,118.998H985.289z
	 M916.588,642.733v39.666 M882.236,622.899l34.352,19.834 M916.588,642.733l34.352-19.834 M882.236,860.894l-68.703-118.997
	l-68.701,118.997H882.236z M813.533,821.228v39.666 M813.533,821.228l-34.352-19.833 M847.885,801.395l-34.352,19.833
	 M813.533,940.225v39.666 M779.182,920.392l34.352,19.833 M813.533,940.225l34.352-19.833 M950.937,979.891l-34.352-59.5
	l-34.353,59.5 M985.289,920.393l-68.701-118.998l-68.703,118.998H985.289z M916.588,880.727v39.666 M882.236,860.893l34.352,19.834
	 M916.588,880.727l34.352-19.834 M950.94,265.91l34.351-59.497 M1019.644,226.244 M1019.644,265.909L950.94,384.906
	 M1019.644,345.24l-34.352-19.833 M1019.644,345.24 M950.94,503.903l68.701-118.997 M985.29,444.404l34.352,19.833
	 M1019.642,464.237 M950.94,622.899l68.701-118.997 M1019.642,583.233L985.29,563.4 M1019.642,583.233 M950.94,741.896
	l68.701-118.997 M985.29,682.397l34.352,19.833 M1019.642,702.23 M950.94,860.893l68.701-118.997 M1019.642,821.227l-34.352-19.833
	 M1019.642,821.227 M950.94,979.89l68.701-118.997 M985.29,920.391l34.352,19.833 M1019.642,940.224 M950.94,265.91l68.703-0.001
	 M950.94,384.906h68.701 M950.94,503.903l68.701-0.001 M950.94,622.899h68.701 M950.94,741.896l68.701-0.001 M950.94,860.893h68.701
	 M263.914,860.894h-68.702 M263.914,741.897h-68.702 M263.914,622.9h-68.702 M263.914,503.903h-68.702 M263.914,384.906
	l-68.702,0.001 M263.915,265.91h-68.702"/>
<path fill="none" stroke="#0000FF" stroke-linecap="round" stroke-miterlimit="10" d="M195.212,226.245 M195.212,226.245
	l68.703,39.666 M298.266,285.743v-79.331 M298.266,285.743l-68.703,39.666 M298.266,285.743l68.702,39.666 M229.563,206.413
	 M366.968,206.413 M195.212,345.241 M195.212,345.241l68.702,39.666 M195.212,464.238 M195.212,464.238l68.702,39.666
	 M298.266,523.736v-79.331 M298.266,523.736l-68.703,39.666 M298.266,523.736l68.702,39.666 M298.266,404.74v-79.332
	 M298.266,404.74l-68.703,39.666 M298.266,404.74l68.702,39.666 M195.212,583.234l68.702,39.666 M401.32,226.245l-68.702,39.666
	 M401.32,226.245l68.702,39.666 M504.374,285.743v-79.331 M504.374,285.743l-68.703,39.666 M504.374,285.743l68.702,39.666
	 M435.67,206.413 M573.076,206.413 M401.32,345.241V265.91 M401.32,345.241l-68.702,39.666 M401.32,345.241l68.702,39.666
	 M401.319,464.238v-79.331 M401.319,464.238l-68.701,39.666 M401.319,464.238l68.703,39.666 M504.374,523.736v-79.331
	 M504.374,523.736l-68.703,39.666 M504.374,523.736l68.701,39.666 M504.374,404.74v-79.332 M504.374,404.74l-68.703,39.666
	 M504.374,404.74l68.701,39.666 M401.319,583.234v-79.331 M401.319,583.234L332.618,622.9 M401.319,583.234l68.703,39.666
	 M607.427,226.245l-68.702,39.666 M607.427,226.245l68.702,39.666 M710.48,285.743v-79.331 M710.48,285.743l-68.703,39.666
	 M710.48,285.743l68.703,39.666 M641.777,206.413 M779.184,206.413 M607.427,345.241V265.91 M607.427,345.241l-68.702,39.666
	 M607.427,345.241l68.702,39.666 M607.426,464.238v-79.331 M607.426,464.238l-68.701,39.666 M607.426,464.238l68.703,39.666
	 M710.48,523.736v-79.331 M710.48,523.736l-68.703,39.666 M710.48,523.736l68.701,39.666 M710.48,404.74v-79.332 M710.48,404.74
	l-68.703,39.666 M710.48,404.74l68.701,39.666 M607.426,583.234v-79.331 M607.426,583.234L538.725,622.9 M607.426,583.234
	l68.703,39.666 M813.535,226.245l-68.703,39.666 M813.535,226.245l68.701,39.666 M916.588,285.743v-79.331 M916.588,285.743
	l-68.703,39.666 M916.588,285.743l68.703,39.666 M847.885,206.413 M985.291,206.413 M813.535,345.241V265.91 M813.535,345.241
	l-68.703,39.666 M813.535,345.241l68.701,39.666 M813.533,464.238v-79.331 M813.533,464.238l-68.701,39.666 M813.533,464.238
	l68.703,39.666 M916.588,523.736v-79.331 M916.588,523.736l-68.703,39.666 M916.588,523.736l68.701,39.666 M916.588,404.74v-79.332
	 M916.588,404.74l-68.703,39.666 M916.588,404.74l68.701,39.666 M813.533,583.234v-79.331 M813.533,583.234L744.832,622.9
	 M813.533,583.234l68.703,39.666 M195.212,702.231l68.702,39.666 M298.266,761.729v-79.331 M298.266,761.729l-68.703,39.666
	 M298.266,761.729l68.702,39.666 M298.266,642.733v-79.332 M298.266,642.733l-68.703,39.666 M298.266,642.733l68.702,39.666
	 M195.212,821.228l68.702,39.666 M195.211,940.225l68.703,39.666 M298.266,979.891v-59.499 M298.266,880.727v-79.332
	 M298.266,880.727l-68.703,39.666 M298.266,880.727l68.701,39.666 M401.319,702.231V622.9 M401.319,702.231l-68.702,39.666
	 M401.319,702.231l68.702,39.666 M504.373,761.729v-79.331 M504.373,761.729l-68.703,39.666 M504.373,761.729l68.702,39.666
	 M504.373,642.733v-79.332 M504.373,642.733l-68.703,39.666 M504.373,642.733l68.702,39.666 M401.319,821.228v-79.331
	 M401.319,821.228l-68.702,39.666 M401.319,821.228l68.702,39.666 M401.318,940.225v-79.331 M401.318,940.225l-68.701,39.666
	 M401.318,940.225l68.703,39.666 M504.373,979.891v-59.499 M504.373,880.727v-79.332 M504.373,880.727l-68.703,39.666
	 M504.373,880.727l68.701,39.666 M607.427,702.231V622.9 M607.427,702.231l-68.702,39.666 M607.427,702.231l68.702,39.666
	 M710.48,761.729v-79.331 M710.48,761.729l-68.703,39.666 M710.48,761.729l68.701,39.666 M710.48,642.733v-79.332 M710.48,642.733
	l-68.703,39.666 M710.48,642.733l68.701,39.666 M607.427,821.228v-79.331 M607.427,821.228l-68.702,39.666 M607.427,821.228
	l68.702,39.666 M607.426,940.225v-79.331 M607.426,940.225l-68.701,39.666 M607.426,940.225l68.703,39.666 M710.48,979.89v-59.498
	 M710.48,880.727v-79.332 M710.48,880.727l-68.703,39.666 M710.48,880.727l68.701,39.666 M813.533,702.231V622.9 M813.533,702.231
	l-68.701,39.666 M813.533,702.231l68.703,39.666 M916.588,761.729v-79.331 M916.588,761.729l-68.703,39.666 M916.588,761.729
	l68.701,39.666 M916.588,642.733v-79.332 M916.588,642.733l-68.703,39.666 M916.588,642.733l68.701,39.666 M813.533,821.228v-79.331
	 M813.533,821.228l-68.701,39.666 M813.533,821.228l68.703,39.666 M813.533,940.225v-79.331 M813.533,940.225l-68.701,39.666
	 M813.533,940.225l68.703,39.666 M916.588,979.891v-59.499 M916.588,880.727v-79.332 M916.588,880.727l-68.703,39.666
	 M916.588,880.727l68.701,39.666 M1019.644,226.244L950.94,265.91 M1019.644,226.244 M1019.644,345.24l-68.703,39.666
	 M1019.644,345.24 M1019.642,464.237l-68.701,39.666 M1019.642,464.237 M1019.642,583.233l-68.701,39.666 M1019.642,583.233
	 M1019.642,702.23l-68.701,39.666 M1019.642,702.23 M1019.642,821.227l-68.701,39.666 M1019.642,821.227 M1019.642,940.224
	L950.94,979.89 M1019.642,940.224 M401.32,226.245v-19.832 M607.427,226.245l0-19.832 M813.535,226.245l-0.002-19.832"/>
<path fill="none" stroke="#000000" stroke-linecap="round" stroke-miterlimit="10" d="M195.212,206.413v59.498 M366.968,206.413
	H195.21 M195.212,345.241v39.666 M195.212,345.241V265.91 M195.212,464.238v39.666 M195.212,464.238v-79.331 M195.212,583.234V622.9
	 M195.212,583.234v-79.331 M573.076,206.413H435.67 M779.184,206.413H641.777 M1019.644,206.413H847.885 M195.212,702.231v39.666
	 M195.212,702.231V622.9 M195.212,821.228v39.666 M195.212,821.228v-79.331 M195.211,940.225v39.666 M195.211,940.225v-79.331
	 M1019.644,206.414v59.497 M1019.644,345.24v39.666 M1019.644,345.24v-79.331 M1019.642,464.237v39.666 M1019.642,464.237v-79.331
	 M1019.642,583.233v39.666 M1019.642,583.233v-79.331 M1019.642,702.23v39.666 M1019.642,702.23v-79.331 M1019.642,821.227v39.666
	 M1019.642,821.227v-79.331 M1019.642,940.224v39.666 M1019.642,940.224v-79.331 M366.968,206.412h68.703 M573.076,206.412h68.704
	 M847.887,206.412l-68.703,0.001 M195.211,979.891l824.431-0.001"/>
</svg>
