<?xml version="1.0" encoding="utf-8"?>
<!-- Generator: Adobe Illustrator 16.0.3, SVG Export Plug-In . SVG Version: 6.00 Build 0)  -->
<!DOCTYPE svg PUBLIC "-//W3C//DTD SVG 1.1//EN" "http://www.w3.org/Graphics/SVG/1.1/DTD/svg11.dtd">
<svg version="1.1" id="Layer_1" xmlns="http://www.w3.org/2000/svg" xmlns:xlink="http://www.w3.org/1999/xlink" x="0px" y="0px"
	 width="3456px" height="6912px" viewBox="0 0 3456 6912" enable-background="new 0 0 3456 6912" xml:space="preserve">
<path fill="none" stroke="#0000ff" stroke-width="0.7087" stroke-linecap="round" stroke-linejoin="round" stroke-miterlimit="10" d="
	M282.887,2695.431l-504.555,504.556 M282.887,2695.431l504.557,504.556 M1291.998,2695.431l-504.557,504.556 M1291.998,2695.431
	l504.557,504.556 M2301.109,2695.431l-504.556,504.556 M2301.109,2695.431l504.556,504.556 M3310.221,2695.431l-504.556,504.556
	 M3310.221,2695.431l504.557,504.556 M4319.333,2695.431l-504.556,504.556 M4319.333,2695.431l504.556,504.556 M5328.443,2695.431
	l-504.556,504.556"/>
<path fill="none" stroke="#0000ff" stroke-width="0.7087" stroke-linecap="round" stroke-linejoin="round" stroke-miterlimit="10" d="
	M282.887,3704.542l-504.555,504.556 M282.887,3704.542l504.557,504.556 M1291.998,3704.542l-504.557,504.556 M1291.998,3704.542
	l504.557,504.556 M2301.109,3704.542l-504.556,504.556 M2301.109,3704.542l504.556,504.556 M3310.221,3704.542l-504.556,504.556
	 M3310.221,3704.542l504.557,504.556 M4319.333,3704.542l-504.556,504.556 M4319.333,3704.542l504.556,504.556 M5328.443,3704.542
	l-504.556,504.556"/>
<path fill="none" stroke="#0000ff" stroke-width="0.7087" stroke-linecap="round" stroke-linejoin="round" stroke-miterlimit="10" d="
	M-221.668,3704.542l504.555,504.556 M787.441,3704.542l-504.556,504.556 M787.441,3704.542l504.557,504.556 M1796.555,3704.542
	l-504.557,504.556 M1796.555,3704.542l504.556,504.556 M2805.665,3704.542l-504.556,504.556 M2805.665,3704.542l504.556,504.556
	 M3814.777,3704.542l-504.557,504.556 M3814.777,3704.542l504.556,504.556 M4823.889,3704.542l-504.556,504.556 M4823.889,3704.542
	l504.556,504.556"/>
<path fill="none" stroke="#0000ff" stroke-width="0.7087" stroke-linecap="round" stroke-linejoin="round" stroke-miterlimit="10" d="
	M282.887,4713.652l-504.555,504.557 M282.887,4713.652l504.557,504.557 M1291.998,4713.652l-504.557,504.557 M1291.998,4713.652
	l504.557,504.557 M2301.109,4713.652l-504.556,504.557 M2301.109,4713.652l504.556,504.557 M3310.221,4713.652l-504.556,504.557
	 M3310.221,4713.652l504.557,504.557 M4319.333,4713.652l-504.556,504.557 M4319.333,4713.652l504.556,504.557 M5328.443,4713.652
	l-504.556,504.557"/>
<path fill="none" stroke="#0000ff" stroke-width="0.7087" stroke-linecap="round" stroke-linejoin="round" stroke-miterlimit="10" d="
	M-221.668,2695.431l504.555,504.556 M787.441,2695.431l-504.556,504.556 M787.441,2695.431l504.557,504.556 M1796.555,2695.431
	l-504.557,504.556 M1796.555,2695.431l504.556,504.556 M2805.665,2695.431l-504.556,504.556 M2805.665,2695.431l504.556,504.556
	 M3814.777,2695.431l-504.557,504.556 M3814.777,2695.431l504.556,504.556 M4823.889,2695.431l-504.556,504.556 M4823.889,2695.431
	l504.556,504.556"/>
<path fill="none" stroke="#0000ff" stroke-width="0.7087" stroke-linecap="round" stroke-linejoin="round" stroke-miterlimit="10" d="
	M30.609,3199.986l-252.277,252.277 M30.609,3199.986l252.278,252.277 M787.441,3452.264l-252.277,252.279 M282.887,3452.264
	l252.278,252.279 M1039.721,3199.986l252.277,252.277 M1039.721,3199.986l-252.277,252.277 M1796.555,3452.264l-252.277,252.279
	 M1291.998,3452.264l252.277,252.279 M2048.832,3199.986l252.277,252.277 M2048.832,3199.986l-252.277,252.277 M2805.665,3452.264
	l-252.277,252.279 M2301.109,3452.264l252.277,252.279 M3057.943,3199.986l252.277,252.277 M3057.943,3199.986l-252.278,252.277
	 M3814.777,3452.264L3562.5,3704.543 M3310.221,3452.264l252.279,252.279 M4067.055,3199.986l252.278,252.277 M4067.055,3199.986
	l-252.277,252.277 M4823.889,3452.264l-252.277,252.279 M4319.333,3452.264l252.276,252.279 M5076.166,3199.986l-252.277,252.277
	 M5076.166,3199.986l252.277,252.277"/>
<path fill="none" stroke="#0000ff" stroke-width="0.7087" stroke-linecap="round" stroke-linejoin="round" stroke-miterlimit="10" d="
	M-221.668,3452.264l252.277,252.279 M282.887,3452.264L30.609,3704.543 M535.165,3199.986l252.278,252.277 M535.165,3199.986
	l-252.278,252.277 M1291.998,3452.264l-252.277,252.279 M787.441,3452.264l252.278,252.279 M1544.275,3199.986l252.278,252.277
	 M1544.275,3199.986l-252.277,252.277 M2301.109,3452.264l-252.277,252.278 M1796.555,3452.264l252.277,252.278 M2553.388,3199.986
	l252.277,252.277 M2553.388,3199.986l-252.278,252.277 M3310.221,3452.264l-252.277,252.279 M2805.665,3452.264l252.278,252.279
	 M3562.5,3199.986l252.277,252.277 M3562.5,3199.986l-252.279,252.277 M4319.333,3452.264l-252.278,252.279 M3814.777,3452.264
	l252.277,252.279 M4571.609,3199.986l252.278,252.277 M4571.609,3199.986l-252.276,252.277 M4823.889,3452.264l252.277,252.279
	 M5328.443,3452.264l-252.278,252.279"/>
<path fill="none" stroke="#0000ff" stroke-width="0.7087" stroke-linecap="round" stroke-linejoin="round" stroke-miterlimit="10" d="
	M30.609,4209.098l-252.277,252.277 M30.609,4209.098l252.278,252.277 M787.441,4461.375l-252.277,252.277 M282.887,4461.375
	l252.278,252.277 M1039.721,4209.098l252.277,252.277 M1039.721,4209.098l-252.277,252.277 M1796.555,4461.375l-252.277,252.277
	 M1291.998,4461.375l252.277,252.277 M2048.832,4209.098l252.277,252.277 M2048.832,4209.098l-252.277,252.277 M2805.665,4461.375
	l-252.277,252.277 M2301.109,4461.375l252.277,252.277 M3057.943,4209.098l252.277,252.277 M3057.943,4209.098l-252.278,252.277
	 M3814.777,4461.375L3562.5,4713.652 M3310.221,4461.375l252.279,252.277 M4067.055,4209.098l252.278,252.277 M4067.055,4209.098
	l-252.277,252.277 M4823.889,4461.375l-252.277,252.277 M4319.333,4461.375l252.276,252.277 M5076.166,4209.098l-252.277,252.277
	 M5076.166,4209.098l252.277,252.277"/>
<path fill="none" stroke="#0000ff" stroke-width="0.7087" stroke-linecap="round" stroke-linejoin="round" stroke-miterlimit="10" d="
	M-221.668,4461.375l252.277,252.277 M282.887,4461.375L30.609,4713.652 M535.165,4209.098l252.278,252.277 M535.165,4209.098
	l-252.278,252.277 M1291.998,4461.375l-252.277,252.277 M787.441,4461.375l252.278,252.277 M1544.275,4209.098l252.278,252.277
	 M1544.275,4209.098l-252.277,252.277 M2301.109,4461.375l-252.277,252.277 M1796.555,4461.375l252.277,252.277 M2553.388,4209.098
	l252.277,252.277 M2553.388,4209.098l-252.278,252.277 M3310.221,4461.375l-252.277,252.277 M2805.665,4461.375l252.278,252.277
	 M3562.5,4209.098l252.277,252.277 M3562.5,4209.098l-252.279,252.277 M4319.333,4461.375l-252.278,252.277 M3814.777,4461.375
	l252.277,252.277 M4571.609,4209.098l252.278,252.277 M4571.609,4209.098l-252.277,252.277 M4823.889,4461.375l252.277,252.277
	 M5328.443,4461.375l-252.278,252.277"/>
<path fill="none" stroke="#0000ff" stroke-width="0.7087" stroke-linecap="round" stroke-linejoin="round" stroke-miterlimit="10" d="
	M-221.668,4713.652l504.555,504.557 M787.441,4713.652l-504.556,504.557 M787.441,4713.652l504.557,504.557 M1796.555,4713.652
	l-504.557,504.557 M1796.555,4713.652l504.556,504.557 M2805.665,4713.652l-504.556,504.557 M2805.665,4713.652l504.556,504.557
	 M3814.777,4713.652l-504.557,504.557 M3814.777,4713.652l504.556,504.557 M4823.889,4713.652l-504.556,504.557 M4823.889,4713.652
	l504.556,504.557"/>
<path fill="none" stroke="#ff0000" stroke-miterlimit="10" d="M-221.668,4209.098h5550.111"/>
<path fill="none" stroke="#ff0000" stroke-miterlimit="10" d="M-221.668,3704.542h5550.111"/>
<path fill="none" stroke="#ff0000" stroke-miterlimit="10" d="M-221.668,3199.986h5550.111"/>
<path fill="none" stroke="#ff0000" stroke-miterlimit="10" d="M-221.668,4713.652h5550.111"/>
<path fill="none" stroke="#ff0000" stroke-miterlimit="10" d="M282.887,2695.431v2522.778"/>
<path fill="none" stroke="#ff0000" stroke-miterlimit="10" d="M30.609,2695.431v2522.778"/>
<path fill="none" stroke="#ff0000" stroke-miterlimit="10" d="M535.165,2695.431v2522.778"/>
<path fill="none" stroke="#ff0000" stroke-miterlimit="10" d="M5076.166,2695.431v2522.778"/>
<path fill="none" stroke="#ff0000" stroke-miterlimit="10" d="M3057.943,2695.431v2522.778"/>
<path fill="none" stroke="#ff0000" stroke-miterlimit="10" d="M3310.221,2695.431v2522.778"/>
<path fill="none" stroke="#ff0000" stroke-miterlimit="10" d="M3562.5,2695.431v2522.778"/>
<path fill="none" stroke="#ff0000" stroke-miterlimit="10" d="M3814.777,2695.431v2522.778"/>
<path fill="none" stroke="#ff0000" stroke-miterlimit="10" d="M4067.055,2695.431v2522.778"/>
<path fill="none" stroke="#ff0000" stroke-miterlimit="10" d="M4319.333,2695.431v2522.778"/>
<path fill="none" stroke="#ff0000" stroke-miterlimit="10" d="M4571.609,2695.431v2522.778"/>
<path fill="none" stroke="#ff0000" stroke-miterlimit="10" d="M4823.889,2695.431v2522.778"/>
<path fill="none" stroke="#ff0000" stroke-miterlimit="10" d="M2805.665,2695.431v2522.778"/>
<path fill="none" stroke="#ff0000" stroke-miterlimit="10" d="M2553.388,2695.431v2522.778"/>
<path fill="none" stroke="#ff0000" stroke-miterlimit="10" d="M2301.109,2695.431v2522.778"/>
<path fill="none" stroke="#ff0000" stroke-miterlimit="10" d="M2048.832,2695.431v2522.778"/>
<path fill="none" stroke="#ff0000" stroke-miterlimit="10" d="M1796.555,2695.431v2522.778"/>
<path fill="none" stroke="#ff0000" stroke-miterlimit="10" d="M1544.275,2695.431v2522.778"/>
<path fill="none" stroke="#ff0000" stroke-miterlimit="10" d="M1291.998,2695.431v2522.778"/>
<path fill="none" stroke="#ff0000" stroke-miterlimit="10" d="M1039.721,2695.431v2522.778"/>
<path fill="none" stroke="#ff0000" stroke-miterlimit="10" d="M787.441,2695.431v2522.778"/>
<path fill="none" stroke="#000000" stroke-width="0.7087" stroke-linecap="round" stroke-linejoin="round" stroke-miterlimit="10" d="
	M-221.668,5218.209h5550.111 M5328.443,5218.209V2695.431 M5328.443,2695.431H-221.668 M-221.668,2695.431v2522.778"/>
</svg>
