<?xml version="1.0" encoding="utf-8"?>
<!-- Generator: Adobe Illustrator 16.0.3, SVG Export Plug-In . SVG Version: 6.00 Build 0)  -->
<!DOCTYPE svg PUBLIC "-//W3C//DTD SVG 1.1//EN" "http://www.w3.org/Graphics/SVG/1.1/DTD/svg11.dtd">
<svg version="1.1" id="Layer_1" xmlns="http://www.w3.org/2000/svg" xmlns:xlink="http://www.w3.org/1999/xlink" x="0px" y="0px"
	 width="2261.271px" height="2084px" viewBox="0 0 2261.271 2084" enable-background="new 0 0 2261.271 2084" xml:space="preserve">
<path fill="none" stroke="#FF0000" stroke-width="4.3568" stroke-miterlimit="10" d="M135.014,48.805v1566.162 M189.019,48.805
	v1566.162 M243.024,48.805v1566.162 M297.03,48.805v1566.162 M351.035,48.805v1566.162 M405.041,48.805v1566.162 M459.046,48.805
	v1566.162 M513.051,48.805v1566.162 M567.057,48.805v1566.162 M621.062,48.805v1566.162 M675.066,48.805v1566.162 M729.073,48.805
	v1566.162 M783.078,48.805v1566.162 M837.083,48.805v1566.162 M891.089,48.805v1566.162 M945.094,48.805v1566.162 M999.1,48.805
	v1566.162 M1053.105,48.805v1566.162 M1107.111,48.805v1566.162 M1161.117,48.805v1566.162 M1215.123,48.805v1566.162
	 M1269.129,48.805v1566.162 M1323.135,48.805v1566.162 M1377.141,48.805v1566.162 M1431.146,48.805v1566.162 M1485.152,48.805
	v1566.162 M1539.158,48.805v1566.162 M1593.164,48.805v1566.162 M1647.17,48.805v1566.162 M81.008,1560.962h1620.168
	 M81.008,1506.956h1620.168 M81.008,1452.951h1620.168 M81.008,1398.945h1620.168 M81.008,1344.939h1620.168 M81.008,1290.936
	h1620.168 M81.008,1236.93h1620.168 M81.008,1182.924h1620.168 M81.008,1128.918h1620.168 M81.008,1074.913h1620.168
	 M81.008,1020.908h1620.168 M81.008,966.902h1620.168 M81.008,912.896h1620.168 M81.008,858.893h1620.168 M81.008,804.887h1620.168
	 M81.008,750.881h1620.168 M81.008,696.875h1620.168 M81.008,642.869h1620.168 M81.008,588.863h1620.168 M81.008,534.857h1620.168
	 M81.008,480.852h1620.168 M81.008,426.846h1620.168 M81.008,372.84h1620.168 M81.008,318.834h1620.168 M81.008,264.828h1620.168
	 M81.008,210.822h1620.168 M81.008,156.816h1620.168 M81.008,102.811h1620.168"/>
<path fill="none" stroke="#000000" stroke-width="4.3568" stroke-miterlimit="10" d="M81.008,48.805v1566.162 M1701.176,48.805
	v1566.162 M81.008,1614.967h1620.168 M81.008,48.805h1620.168"/>
<path fill="none" stroke="#0000FF" stroke-width="4.3568" stroke-miterlimit="10" d="M81.008,48.805l108.011,108.012
	 M81.008,156.816L189.019,48.805 M243.024,48.805l-54.005,54.006 M297.03,102.811l-54.005-54.006 M351.035,210.822L243.024,102.811
	 M351.035,102.811L243.024,210.822 M351.035,156.816L459.046,48.805 M351.035,48.805l108.011,108.012 M135.014,156.816
	l108.011,108.012 M243.024,156.816l-108.01,108.012 M135.014,210.822l-54.006,54.006 M81.008,264.828l54.006,54.006
	 M189.019,264.828L297.03,372.84 M297.03,264.828L189.019,372.84 M297.03,210.822l108.011,108.012 M405.041,210.822L297.03,318.834
	 M405.041,156.816l108.011,108.012 M513.051,156.816l-108.01,108.012 M459.046,102.811l54.005-54.006 M567.057,102.811
	l-54.005-54.006 M621.062,210.822L513.051,102.811 M621.062,102.811L513.051,210.822 M621.062,156.816L729.073,48.805
	 M621.062,48.805l108.011,108.012 M675.066,156.816l108.012,108.012 M783.078,156.816L675.066,264.828 M729.073,102.811
	l54.005-54.006 M837.083,102.811l-54.005-54.006 M783.078,102.811l108.011,108.012 M891.089,102.811L783.078,210.822
	 M891.089,156.816L999.1,48.805 M891.089,48.805L999.1,156.816 M945.094,156.816l108.012,108.012 M1053.105,156.816L945.094,264.828
	 M999.1,102.811l54.006-54.006 M1107.109,102.811l-54.004-54.006 M1161.115,210.822l-108.01-108.012 M1161.115,102.811
	l-108.01,108.012 M1161.115,156.816l108.012-108.012 M1269.127,156.816L1161.115,48.805 M1215.121,156.816l108.012,108.012
	 M1323.133,156.816l-108.012,108.012 M1269.127,102.811l54.006-54.006 M1377.137,102.811l-54.004-54.006 M1323.133,102.811
	l108.01,108.012 M1431.143,102.811l-108.01,108.012 M1431.143,156.816l108.012-108.012 M1539.154,156.816L1431.143,48.805
	 M1485.148,156.816l108.012,108.012 M1593.16,156.816l-108.012,108.012 M243.01,534.857L134.999,426.846 M243.01,426.846
	L134.999,534.857 M513.037,534.857L405.026,426.846 M513.037,426.846L405.026,534.857 M783.062,534.857l-108.01-108.012
	 M783.062,426.846l-108.01,108.012 M945.079,426.846l108.012,108.012 M1053.091,426.846L945.079,534.857 M1215.105,426.846
	l108.013,108.012 M1323.118,426.846l-108.013,108.012 M1485.134,426.846l108.013,108.012 M1593.146,426.846l-108.013,108.012
	 M134.984,696.875l108.011,108.012 M242.995,696.875L134.984,804.887 M405.011,696.875l108.011,108.012 M513.021,696.875
	L405.011,804.887 M675.038,696.875l108.011,108.012 M783.049,696.875L675.038,804.887 M945.064,696.875l108.012,108.012
	 M1053.076,696.875L945.064,804.887 M1215.092,696.875l108.012,108.012 M1323.104,696.875l-108.012,108.012 M1485.119,696.875
	l108.012,108.012 M1593.131,696.875l-108.012,108.012 M134.97,966.904l108.011,108.012 M242.98,966.904l-108.01,108.012
	 M404.997,966.904l108.011,108.012 M513.007,966.904l-108.011,108.012 M675.023,966.904l108.011,108.012 M783.034,966.904
	l-108.011,108.012 M945.05,966.904l108.013,108.012 M1053.062,966.904L945.05,1074.916 M1215.077,966.904l108.012,108.012
	 M1323.089,966.904l-108.012,108.012 M1593.116,1074.916l-108.013-108.012 M1593.116,966.904l-108.013,108.012 M242.966,1344.945
	l-108.011-108.012 M242.966,1236.934l-108.011,108.012 M512.993,1344.945l-108.011-108.012 M512.993,1236.934l-108.011,108.012
	 M783.02,1344.945l-108.011-108.012 M783.02,1236.934l-108.011,108.012 M945.035,1236.934l108.012,108.012 M1053.047,1236.934
	l-108.012,108.012 M1215.062,1236.934l108.012,108.012 M1323.074,1236.934l-108.012,108.012 M1485.09,1236.934l108.012,108.012
	 M1593.102,1236.934l-108.012,108.012 M134.94,1506.963l108.011,108.012 M242.951,1506.963L134.94,1614.975 M404.967,1506.963
	l108.012,108.012 M512.979,1506.963l-108.012,108.012 M674.994,1506.963l108.011,108.012 M674.994,1614.975l108.011-108.012
	 M945.021,1506.963l108.012,108.012 M1053.032,1506.963L945.02,1614.975 M1215.048,1506.963l108.013,108.012 M1215.048,1614.975
	l108.013-108.012 M1485.075,1506.963l108.012,108.012 M1593.087,1506.963l-108.012,108.012 M1539.154,102.811l54.006-54.006
	 M1647.164,102.811l-54.004-54.006 M1701.17,210.822L1593.16,102.81 M1701.17,102.811l-108.01,108.012 M351.035,318.834
	l108.011,108.012 M459.046,318.834L351.035,426.846 M351.035,372.84L243.024,480.852 M243.024,372.84l108.011,108.012
	 M459.046,264.828L567.057,372.84 M567.057,264.828L459.046,372.84 M567.057,210.822l108.012,108.012 M675.066,210.822
	l-108.01,108.012 M621.062,318.834l108.011,108.012 M621.062,426.846l108.011-108.012 M621.062,372.84L513.051,480.852
	 M513.051,372.84l108.012,108.012 M729.073,264.828l108.01,108.012 M837.083,264.828L729.073,372.84 M837.083,210.822
	l108.01,108.012 M945.094,210.822l-108.01,108.012 M891.089,318.834L999.1,426.846 M999.1,318.834L891.089,426.846 M891.089,372.84
	L783.078,480.852 M891.089,480.852L783.078,372.84 M999.1,264.828l108.01,108.012 M1107.109,264.828L999.1,372.84 M1107.109,210.822
	l108.012,108.012 M1215.121,210.822l-108.012,108.012 M1269.127,426.846l-108.012-108.012 M1269.127,318.834l-108.012,108.012
	 M1161.115,372.84l-108.01,108.012 M1161.115,480.852l-108.01-108.012 M1269.127,264.828l108.01,108.012 M1377.137,264.828
	l-108.01,108.012 M1377.137,210.822l108.012,108.012 M1485.148,210.822l-108.013,108.012 M1539.154,426.846l-108.012-108.012
	 M1539.154,318.834l-108.012,108.012 M1323.133,480.852l108.01-108.012 M1431.143,480.852l-108.01-108.012 M1539.154,264.828
	l108.01,108.012 M1647.164,264.828l-108.01,108.012 M1647.164,210.822l54.012,54.006 M1701.176,264.828l-54.012,54.006
	 M1701.17,372.84l-108.01,108.012 M1701.17,480.852L1593.16,372.84 M189.019,318.834L81.008,426.846 M189.019,426.846
	L81.008,318.834 M135.011,480.852l-54.006,54.006 M135.011,588.863l-54.006-54.006 M189.016,534.857l108.011,108.012
	 M297.027,534.857L189.016,642.869 M297.027,480.852l108.011,108.013 M405.038,480.852L297.027,588.863 M351.032,588.863
	l108.011,108.012 M459.043,588.863L351.032,696.875 M351.032,642.869L243.021,750.881 M243.021,642.869l108.011,108.012
	 M459.043,534.857l108.011,108.012 M567.054,534.857L459.043,642.869 M567.054,480.852l108.011,108.013 M675.064,480.852
	L567.054,588.863 M621.059,588.863L729.07,696.875 M621.059,696.875L729.07,588.863 M621.059,642.869L513.048,750.881
	 M513.048,642.869l108.011,108.012 M729.07,534.857l108.011,108.012 M837.081,534.857L729.07,642.869 M837.081,480.852
	l108.01,108.013 M945.091,480.852l-108.01,108.013 M891.086,588.863l108.011,108.012 M891.086,696.875l108.011-108.012
	 M891.086,642.869L783.075,750.881 M783.075,642.869l108.011,108.012 M999.097,534.857l108.011,108.012 M1107.107,534.857
	L999.097,642.869 M1107.107,480.852l108.011,108.013 M1215.118,480.852l-108.011,108.013 M1161.112,588.863l108.012,108.012
	 M1269.124,588.863l-108.012,108.012 M1161.112,642.869l-108.011,108.012 M1161.112,750.881l-108.011-108.012 M1269.124,534.857
	l108.01,108.012 M1377.134,534.857l-108.01,108.012 M1377.134,480.852l108.013,108.013 M1485.146,480.852l-108.013,108.013
	 M1431.141,588.863l108.012,108.012 M1539.15,588.863l-108.01,108.012 M1323.13,750.881l108.011-108.012 M1431.141,750.881
	L1323.13,642.869 M1539.15,534.857l108.011,108.012 M1647.161,534.857L1539.15,642.869 M1647.161,480.852l54.012,54.006
	 M1701.173,534.857l-54.012,54.006 M1701.167,642.869l-108.01,108.012 M1701.167,750.881l-108.01-108.012 M189.016,588.863
	L81.005,696.875 M81.005,588.863l108.011,108.012 M135.008,750.881l-54.006,54.006 M81.002,804.887l54.006,54.006 M189.013,804.887
	l108.011,108.012 M297.024,804.887L189.013,912.898 M297.024,750.881l108.011,108.012 M405.035,750.881L297.024,858.893
	 M351.029,858.893L459.04,966.904 M459.04,858.893L351.029,966.904 M351.029,912.898l-108.01,108.012 M243.019,912.898
	L351.03,1020.91 M459.04,804.887l108.011,108.012 M567.051,804.887L459.04,912.898 M567.051,750.881l108.012,108.012
	 M675.062,750.881L567.051,858.893 M621.056,858.893l108.011,108.013 M621.056,966.904l108.011-108.012 M621.056,912.898
	L513.045,1020.91 M513.045,912.898l108.011,108.012 M729.066,804.887l108.012,108.012 M837.078,804.887L729.066,912.898
	 M837.078,750.881l108.01,108.012 M945.088,750.881l-108.01,108.012 M891.083,858.893l108.011,108.013 M891.083,966.904
	l108.011-108.012 M891.083,912.898L783.072,1020.91 M783.072,912.898l108.011,108.012 M999.094,804.887l108.012,108.012
	 M1107.104,804.887l-108.01,108.012 M1107.104,750.881l108.012,108.012 M1215.115,750.881l-108.012,108.012 M1161.109,858.893
	l108.012,108.013 M1269.121,858.893l-108.012,108.013 M1161.109,912.898L1053.1,1020.91 M1161.109,1020.91L1053.1,912.898
	 M1269.121,804.887l108.01,108.012 M1377.131,804.887l-108.01,108.012 M1377.131,750.881l108.012,108.012 M1485.143,750.881
	l-108.012,108.012 M1431.137,858.893l108.012,108.013 M1539.148,858.893l-108.013,108.013 M1431.137,912.898l-108.01,108.012
	 M1431.137,1020.91l-108.01-108.012 M1539.148,804.887l108.01,108.012 M1647.158,804.887l-108.01,108.012 M1647.158,750.881
	l54.012,54.006 M1701.17,804.887l-54.012,54.006 M1701.164,912.898l-108.01,108.012 M1701.164,1020.91l-108.01-108.012
	 M189.013,858.893L81.002,966.904 M81.002,858.893l108.011,108.013 M80.999,1074.916l54.006-54.006 M80.999,1074.916l54.006,54.006
	 M189.01,1074.916l108.011,108.012 M297.021,1074.916L189.01,1182.928 M297.021,1020.91l108.011,108.012 M405.032,1020.91
	l-108.011,108.012 M351.026,1128.922l108.011,108.012 M459.037,1128.922l-108.011,108.012 M351.026,1182.928l-108.011,108.012
	 M351.026,1290.939l-108.011-108.013 M459.037,1074.916l108.011,108.012 M567.048,1074.916l-108.011,108.012 M567.048,1020.91
	l108.011,108.012 M675.059,1020.91l-108.011,108.012 M621.053,1128.922l108.012,108.012 M621.053,1236.934l108.012-108.012
	 M621.053,1182.928l-108.011,108.012 M621.053,1290.939l-108.011-108.013 M729.064,1074.916l108.011,108.012 M837.075,1074.916
	l-108.011,108.012 M837.075,1020.91l108.01,108.012 M945.085,1020.91l-108.01,108.012 M891.08,1128.922l108.011,108.012
	 M891.08,1236.934l108.011-108.012 M891.08,1182.928l-108.011,108.012 M783.068,1182.928l108.012,108.012 M999.091,1074.916
	l108.011,108.012 M1107.102,1074.916l-108.011,108.012 M1107.102,1020.91l108.012,108.012 M1215.112,1020.91l-108.011,108.012
	 M1269.118,1236.934l-108.013-108.012 M1269.118,1128.922l-108.013,108.012 M1161.105,1182.928l-108.01,108.012 M1161.105,1290.939
	l-108.01-108.013 M1269.118,1074.916l108.01,108.012 M1377.128,1074.916l-108.01,108.012 M1377.128,1020.91l108.013,108.012
	 M1485.141,1020.91l-108.013,108.012 M1431.134,1128.922l108.013,108.012 M1539.146,1128.922l-108.013,108.012 M1431.134,1182.928
	l-108.01,108.012 M1431.134,1290.939l-108.01-108.013 M1539.146,1074.916l108.01,108.012 M1647.155,1074.916l-108.011,108.012
	 M1647.155,1020.91l54.012,54.006 M1701.167,1074.916l-54.012,54.006 M1701.161,1182.928l-108.011,108.012 M1701.161,1290.939
	l-108.011-108.013 M189.01,1128.922L80.999,1236.934 M80.999,1128.922l108.011,108.012 M80.996,1344.945l54.006-54.006
	 M80.996,1344.945l54.006,54.006 M189.007,1344.945l108.011,108.012 M297.018,1344.945l-108.011,108.012 M297.018,1290.939
	l108.011,108.012 M405.029,1290.939l-108.011,108.012 M351.023,1398.951l108.011,108.012 M459.034,1398.951l-108.011,108.012
	 M351.023,1452.957l-108.012,108.012 M351.023,1560.969l-108.012-108.012 M459.034,1344.945l108.011,108.012 M567.045,1344.945
	l-108.011,108.012 M567.045,1290.939l108.011,108.012 M675.057,1290.939l-108.012,108.012 M621.05,1398.951l108.011,108.012
	 M729.061,1398.951L621.05,1506.963 M621.05,1452.957l-108.01,108.012 M621.05,1560.969l-108.01-108.012 M729.061,1344.945
	l108.012,108.012 M837.072,1344.945l-108.012,108.012 M837.072,1290.939l108.01,108.012 M945.082,1290.939l-108.01,108.012
	 M891.077,1398.951l108.011,108.012 M999.088,1398.951l-108.011,108.012 M891.077,1452.957l-108.011,108.012 M891.077,1560.969
	l-108.011-108.012 M999.088,1344.945l108.012,108.012 M1107.1,1344.945l-108.012,108.012 M1107.1,1290.939l108.01,108.012
	 M1215.109,1290.939l-108.012,108.012 M1161.104,1398.951l108.013,108.012 M1269.115,1398.951l-108.012,108.012 M1161.104,1452.957
	l-108.01,108.012 M1161.104,1560.969l-108.01-108.012 M1377.125,1452.957l-108.01-108.012 M1377.125,1344.945l-108.01,108.012
	 M1377.125,1290.939l108.012,108.012 M1485.137,1290.939l-108.012,108.012 M1431.131,1398.951l108.012,108.012 M1539.143,1398.951
	l-108.012,108.012 M1431.131,1452.957l-108.01,108.012 M1431.131,1560.969l-108.01-108.012 M1647.152,1452.957l-108.01-108.012
	 M1647.152,1344.945l-108.01,108.012 M1701.164,1344.945l-54.012-54.006 M1701.164,1344.945l-54.012,54.006 M1701.158,1452.957
	l-108.01,108.012 M1701.158,1560.969l-108.01-108.012 M189.007,1398.951L80.996,1506.963 M80.996,1398.951l108.011,108.012
	 M80.993,1614.975l54.006-54.006 M297.015,1560.969l54.02,53.998 M405.026,1560.969l-53.991,53.998 M567.042,1560.969l54.021,53.998
	 M675.053,1560.969l-53.99,53.998 M837.068,1560.969l54.021,53.998 M891.089,1614.967l53.99-53.998 M1107.096,1560.969
	l54.021,53.998 M1215.105,1560.969l-53.988,53.998 M1377.122,1560.969l54.024,53.998 M1485.134,1560.969l-53.987,53.998
	 M1701.161,1614.975l-54.013-54.006"/>
</svg>
