<?xml version="1.0" encoding="utf-8"?>
<!-- Generator: Adobe Illustrator 16.0.3, SVG Export Plug-In . SVG Version: 6.00 Build 0)  -->
<!DOCTYPE svg PUBLIC "-//W3C//DTD SVG 1.1 Tiny//EN" "http://www.w3.org/Graphics/SVG/1.1/DTD/svg11-tiny.dtd">
<svg version="1.1" baseProfile="tiny" id="Layer_1" xmlns="http://www.w3.org/2000/svg" xmlns:xlink="http://www.w3.org/1999/xlink"
	 x="0px" y="0px" width="755px" height="398px" viewBox="0 0 755 398" xml:space="preserve">
<path fill="none" stroke="#0000FF" stroke-width="0.5" stroke-linecap="round" stroke-linejoin="round" stroke-miterlimit="3.864" d="
	M26.901,58.368l16.848-29.193 M77.444,29.175L60.596,58.368 M26.901,92.064l16.848,29.193 M77.444,121.331L60.596,92.138
	 M77.444,121.331v16.848 M77.564,121.331h16.282 M93.948,121.331h-0.062 M110.899,29.175l16.848,29.193 M161.51,58.368
	l16.848-29.193 M212.053,29.175l-16.848,29.193 M110.9,121.331l16.848-29.193 M110.9,121.331v16.848 M94.052,121.331h16.954
	 M127.747,92.138v-33.77 M94.121,92.063h33.694 M94.002,58.368h33.709 M93.942,92.063h0.166 M93.943,58.368h0.046 M111.02,121.331
	h16.688 M161.51,92.064l16.848,29.193 M161.51,58.369v33.695 M127.821,92.064h33.798 M127.918,58.369h33.697 M127.809,121.331h17.13
	 M212.053,121.331l-16.848-29.193 M212.053,121.331v16.848 M212.172,121.331h16.282 M228.556,121.331h-0.062 M26.901,184.145
	l16.848-29.193 M77.444,154.951l-16.848,29.193 M77.444,138.178v16.773 M77.568,154.951h16.497 M93.947,154.876h-0.282
	 M26.901,217.84l16.848,29.193 M77.444,247.107l-16.848-29.193 M77.444,247.107v16.848 M77.564,247.107h16.282 M93.948,247.107
	h-0.062 M110.899,154.951l16.848,29.193 M110.899,138.178v16.773 M93.954,154.951h17.055 M111.022,154.951h16.903 M161.51,184.145
	l16.848-29.193 M127.808,154.877h16.91 M212.053,154.951l-16.848,29.193 M212.053,138.178v16.773 M212.176,154.951h16.497
	 M228.555,154.876h-0.282 M110.9,247.106l16.848-29.193 M110.9,247.106v16.848 M94.052,247.106h16.954 M127.747,217.914v-33.77
	 M94.121,217.839h33.694 M94.002,184.144h33.709 M93.942,217.839h0.166 M93.943,184.144h0.046 M111.02,247.107h16.688
	 M161.51,217.84l16.848,29.193 M161.51,184.145v33.695 M127.821,217.84h33.798 M127.918,184.145h33.697 M127.809,247.107h17.13
	 M212.053,247.107l-16.848-29.193 M212.053,247.107v16.848 M212.172,247.107h16.282 M228.556,247.107h-0.062 M26.901,309.921
	l16.848-29.193 M77.444,280.728l-16.848,29.193 M77.444,263.955v16.772 M77.568,280.728h16.497 M93.947,280.653h-0.282
	 M26.902,343.616l16.848,29.192 M77.444,372.884L60.596,343.69 M110.899,280.728l16.848,29.193 M110.899,263.955v16.772
	 M93.954,280.728h17.055 M111.022,280.728h16.903 M161.51,309.921l16.848-29.193 M127.808,280.653h16.91 M212.053,280.728
	l-16.848,29.193 M212.053,263.955v16.772 M212.176,280.728h16.497 M228.555,280.653h-0.282 M110.9,372.883l16.848-29.192
	 M127.747,343.691v-33.771 M94.121,343.616h33.694 M94.002,309.921h33.709 M93.942,343.616h0.166 M93.943,309.921h0.046
	 M161.51,343.616l16.848,29.192 M161.51,309.921v33.695 M127.821,343.616h33.798 M127.918,309.921h33.697 M212.053,372.884
	l-16.848-29.193 M245.748,29.175l16.848,29.193 M296.359,58.368l16.848-29.193 M346.901,29.175l-16.848,29.193 M245.748,121.331
	l16.848-29.193 M245.748,121.331v16.848 M228.9,121.331h16.954 M262.596,92.138v-33.77 M228.97,92.063h33.694 M228.851,58.368
	h33.709 M228.79,92.063h0.166 M228.791,58.368h0.046 M245.868,121.331h16.688 M296.359,92.064l16.848,29.193 M296.359,58.369v33.695
	 M262.67,92.064h33.799 M262.767,58.369h33.697 M262.658,121.331h17.13 M346.901,121.331l-16.848-29.193 M346.901,121.331v16.848
	 M347.021,121.331h16.282 M363.405,121.331h-0.062 M380.357,29.175l16.847,29.193 M430.967,58.368l16.849-29.193 M481.51,29.175
	l-16.848,29.193 M380.356,121.331l16.847-29.193 M380.356,121.331v16.848 M363.508,121.331h16.954 M397.204,92.138v-33.77
	 M363.578,92.063h33.694 M363.459,58.368h33.709 M363.398,92.063h0.166 M363.399,58.368h0.046 M380.476,121.331h16.688
	 M430.967,92.064l16.849,29.193 M430.967,58.369v33.695 M397.278,92.064h33.798 M397.376,58.369h33.697 M397.267,121.331h17.13
	 M481.51,121.331l-16.848-29.193 M481.51,121.331v16.848 M481.63,121.331h16.282 M498.014,121.331h-0.062 M245.748,154.951
	l16.848,29.193 M245.748,138.178v16.773 M228.803,154.951h17.055 M245.871,154.951h16.904 M296.359,184.145l16.848-29.193
	 M262.657,154.877h16.91 M346.901,154.951l-16.848,29.193 M346.901,138.178v16.773 M347.025,154.951h16.497 M363.404,154.876h-0.282
	 M245.748,247.106l16.848-29.193 M245.748,247.106v16.848 M228.9,247.106h16.954 M262.596,217.914v-33.77 M228.97,217.839h33.694
	 M228.851,184.144h33.709 M228.79,217.839h0.166 M228.791,184.144h0.046 M245.868,247.107h16.688 M296.359,217.84l16.848,29.193
	 M296.359,184.145v33.695 M262.67,217.84h33.799 M262.767,184.145h33.697 M262.658,247.107h17.13 M346.901,247.107l-16.848-29.193
	 M346.901,247.107v16.848 M347.021,247.107h16.282 M363.405,247.107h-0.062 M380.357,154.951l16.847,29.193 M380.357,138.178v16.773
	 M363.412,154.951h17.055 M380.48,154.951h16.903 M430.967,184.145l16.849-29.193 M397.265,154.877h16.91 M481.51,154.951
	l-16.848,29.193 M481.51,138.178v16.773 M481.633,154.951h16.497 M498.012,154.876h-0.281 M380.356,247.106l16.847-29.193
	 M380.356,247.106v16.848 M363.508,247.106h16.954 M397.204,217.914v-33.77 M363.578,217.839h33.694 M363.459,184.144h33.709
	 M363.398,217.839h0.166 M363.399,184.144h0.046 M380.476,247.107h16.688 M430.967,217.84l16.849,29.193 M430.967,184.145v33.695
	 M397.278,217.84h33.798 M397.376,184.145h33.697 M397.267,247.107h17.13 M481.51,247.107l-16.848-29.193 M481.51,247.107v16.848
	 M481.63,247.107h16.282 M498.014,247.107h-0.062 M245.748,280.728l16.848,29.193 M245.748,263.955v16.772 M228.803,280.728h17.055
	 M245.871,280.728h16.904 M296.359,309.921l16.848-29.193 M262.657,280.653h16.91 M346.901,280.728l-16.848,29.193 M346.901,263.955
	v16.772 M347.025,280.728h16.497 M363.404,280.653h-0.282 M245.748,372.883l16.848-29.192 M262.596,343.691v-33.771 M228.97,343.616
	h33.694 M228.851,309.921h33.709 M228.79,343.616h0.166 M228.791,309.921h0.046 M296.359,343.616l16.848,29.192 M296.359,309.921
	v33.695 M262.67,343.616h33.799 M262.767,309.921h33.697 M346.901,372.884l-16.848-29.193 M380.357,280.728l16.847,29.193
	 M380.357,263.955v16.772 M363.412,280.728h17.055 M380.48,280.728h16.903 M430.967,309.921l16.849-29.193 M397.265,280.653h16.91
	 M481.51,280.728l-16.848,29.193 M481.51,263.955v16.772 M481.633,280.728h16.497 M498.012,280.653h-0.281 M380.356,372.883
	l16.847-29.192 M397.204,343.691v-33.771 M363.578,343.616h33.694 M363.459,309.921h33.709 M363.398,343.616h0.166 M363.399,309.921
	h0.046 M430.967,343.616l16.849,29.192 M430.967,309.921v33.695 M397.278,343.616h33.798 M397.376,309.921h33.697 M481.51,372.884
	l-16.848-29.193 M514.977,29.175l16.849,29.193 M565.587,58.368l16.848-29.193 M616.13,29.175l-16.848,29.193 M514.977,121.331
	l16.849-29.193 M514.977,121.331v16.848 M498.13,121.331h16.953 M531.824,92.138v-33.77 M498.198,92.063h33.693 M498.079,58.368
	h33.709 M498.019,92.063h0.166 M498.02,58.368h0.047 M515.097,121.331h16.688 M565.587,92.064l16.848,29.193 M565.587,58.369v33.695
	 M531.898,92.064h33.798 M531.995,58.369h33.696 M531.887,121.331h17.13 M616.13,121.331l-16.848-29.193 M616.13,121.331v16.848
	 M616.249,121.331h16.282 M632.633,121.331h-0.062 M649.585,29.175l16.848,29.193 M700.196,58.368l16.847-29.193 M649.585,121.331
	l16.848-29.193 M649.585,121.331v16.848 M632.737,121.331h16.954 M666.433,92.138v-33.77 M632.807,92.063h33.694 M632.688,58.368
	h33.709 M632.627,92.063h0.166 M632.628,58.368h0.046 M649.705,121.331h16.688 M700.196,92.064l16.847,29.193 M700.196,58.369
	v33.695 M666.507,92.064h33.799 M666.605,58.369h33.696 M666.495,121.331h17.13 M514.977,154.951l16.849,29.193 M514.977,138.178
	v16.773 M498.032,154.951h17.055 M515.101,154.951h16.903 M565.587,184.145l16.848-29.193 M531.885,154.877h16.91 M616.13,154.951
	l-16.848,29.193 M616.13,138.178v16.773 M616.254,154.951h16.497 M632.633,154.876h-0.282 M514.977,247.106l16.849-29.193
	 M514.977,247.106v16.848 M498.13,247.106h16.953 M531.824,217.914v-33.77 M498.198,217.839h33.693 M498.079,184.144h33.709
	 M498.019,217.839h0.166 M498.02,184.144h0.047 M515.097,247.107h16.688 M565.587,217.84l16.848,29.193 M565.587,184.145v33.695
	 M531.898,217.84h33.798 M531.995,184.145h33.696 M531.887,247.107h17.13 M616.13,247.107l-16.848-29.193 M616.13,247.107v16.848
	 M616.249,247.107h16.282 M632.633,247.107h-0.062 M649.585,154.951l16.848,29.193 M649.585,138.178v16.773 M632.64,154.951h17.056
	 M649.708,154.951h16.904 M700.196,184.145l16.847-29.193 M666.494,154.877h16.909 M649.585,247.107l16.848-29.193 M649.585,247.107
	v16.848 M632.737,247.107h16.954 M666.433,217.914v-33.77 M632.807,217.839h33.694 M632.688,184.144h33.709 M632.627,217.839h0.166
	 M632.628,184.144h0.046 M649.705,247.107h16.688 M700.196,217.84l16.847,29.193 M700.196,184.145v33.695 M666.507,217.84h33.799
	 M666.605,184.145h33.696 M666.495,247.107h17.13 M514.977,280.728l16.849,29.193 M514.977,263.955v16.772 M498.032,280.728h17.055
	 M515.101,280.728h16.903 M565.587,309.921l16.848-29.193 M531.885,280.653h16.91 M616.13,280.728l-16.848,29.193 M616.13,263.955
	v16.772 M616.254,280.728h16.497 M632.633,280.653h-0.282 M514.977,372.883l16.849-29.192 M531.824,343.691v-33.771
	 M498.198,343.616h33.693 M498.079,309.921h33.709 M498.019,343.616h0.166 M498.02,309.921h0.047 M565.587,343.616l16.848,29.192
	 M565.587,309.921v33.695 M531.898,343.616h33.798 M531.995,309.921h33.696 M616.13,372.884l-16.848-29.193 M649.585,280.728
	l16.848,29.193 M649.585,263.955v16.772 M632.64,280.728h17.056 M649.708,280.728h16.904 M700.196,309.921l16.847-29.193
	 M666.494,280.653h16.909 M649.585,372.884l16.848-29.193 M666.433,343.691v-33.771 M632.807,343.616h33.694 M632.688,309.921
	h33.709 M632.627,343.616h0.166 M632.628,309.921h0.046 M700.196,343.616l16.847,29.192 M700.196,309.921v33.695 M666.507,343.616
	h33.799 M666.605,309.921h33.696"/>
<path fill="none" stroke="#FF0000" stroke-width="0.5" stroke-linecap="round" stroke-linejoin="round" stroke-miterlimit="3.864" stroke-dasharray="2,2" d="
	M43.749,29.175l16.847,29.193 M43.749,121.331l16.847-29.193 M43.749,121.256v16.848 M27.021,58.368h16.688 M27.025,92.064h16.903
	 M10.344,121.331h33.629 M43.743,58.368h16.79 M43.743,92.064h16.909 M60.547,58.368h33.302 M60.666,92.064h33.287 M60.596,92.138
	v-33.77 M43.853,121.331H77.55 M110.899,29.175L94.052,58.368 M127.815,58.368l16.847-29.193 M178.357,29.175l16.848,29.193
	 M94.052,92.138v-33.77 M127.815,92.064l16.847,29.192 M144.662,138.179v-16.923 M144.952,121.331h33.629 M178.357,121.331
	l16.848-29.193 M178.357,121.256v16.848 M161.629,58.368h16.688 M161.633,92.064h16.904 M178.352,58.368h16.79 M178.351,92.064
	h16.91 M195.155,58.368h33.302 M195.274,92.064h33.287 M195.205,92.138v-33.77 M178.462,121.331h33.697 M110.899,121.331
	L94.052,92.138 M43.749,154.951l16.847,29.194 M43.749,138.104v16.773 M10.123,154.877h33.693 M43.756,154.951h33.798
	 M43.749,247.107l16.847-29.193 M43.749,247.033v16.847 M27.021,184.145h16.688 M27.025,217.84h16.903 M10.344,247.107h33.629
	 M43.743,184.145h16.79 M43.743,217.84h16.909 M60.547,184.145h33.302 M60.666,217.84h33.287 M60.596,217.914v-33.769
	 M43.853,247.107H77.55 M110.899,154.951l-16.847,29.194 M127.815,184.145l16.847-29.194 M144.731,154.877h33.694 M144.662,154.951
	v-16.847 M178.357,154.951l16.848,29.194 M178.357,138.104v16.773 M178.364,154.951h33.799 M94.052,217.914v-33.769 M127.815,217.84
	l16.847,29.193 M144.662,263.955v-16.922 M144.952,247.107h33.629 M178.357,247.107l16.848-29.193 M178.357,247.033v16.847
	 M161.629,184.145h16.688 M161.633,217.84h16.904 M178.352,184.145h16.79 M178.351,217.84h16.91 M195.155,184.145h33.302
	 M195.274,217.84h33.287 M195.205,217.914v-33.769 M178.462,247.107h33.697 M110.899,247.107l-16.847-29.193 M43.749,280.728
	l16.847,29.193 M43.749,263.88v16.773 M10.123,280.653h33.693 M43.756,280.728h33.798 M43.749,372.884l16.847-29.192
	 M27.021,309.921h16.688 M27.025,343.616h16.903 M43.743,309.921h16.79 M43.743,343.616h16.909 M60.547,309.921h33.302
	 M60.666,343.616h33.287 M60.596,343.691v-33.771 M110.899,280.728l-16.847,29.193 M127.815,309.921l16.847-29.193 M144.731,280.653
	h33.694 M144.662,280.728V263.88 M178.357,280.728l16.848,29.193 M178.357,263.88v16.773 M178.364,280.728h33.799 M94.052,343.691
	v-33.771 M127.815,343.616l16.847,29.192 M178.357,372.884l16.848-29.192 M161.629,309.921h16.688 M161.633,343.616h16.904
	 M178.352,309.921h16.79 M178.351,343.616h16.91 M195.155,309.921h33.302 M195.274,343.616h33.287 M195.205,343.691v-33.771
	 M245.748,29.175L228.9,58.368 M110.899,372.884l-16.847-29.192 M262.663,58.368l16.848-29.193 M313.206,29.175l16.848,29.193
	 M228.9,92.138v-33.77 M262.663,92.064l16.848,29.192 M279.511,138.179v-16.923 M279.801,121.331h33.629 M313.206,121.331
	l16.848-29.193 M313.206,121.256v16.848 M296.478,58.368h16.688 M296.482,92.064h16.903 M313.201,58.368h16.789 M313.2,92.064
	h16.909 M330.004,58.368h33.303 M330.123,92.064h33.287 M330.054,92.138v-33.77 M313.31,121.331h33.697 M380.357,29.175
	l-16.849,29.193 M245.748,121.331L228.9,92.138 M397.272,58.368l16.847-29.193 M447.815,29.175l16.847,29.193 M363.509,92.138
	v-33.77 M397.272,92.064l16.847,29.192 M414.119,138.179v-16.923 M414.41,121.331h33.629 M447.815,121.331l16.847-29.193
	 M447.815,121.256v16.848 M431.087,58.368h16.688 M431.09,92.064h16.904 M447.809,58.368h16.79 M447.808,92.064h16.91
	 M464.613,58.368h33.302 M464.732,92.064h33.286 M464.662,92.138v-33.77 M447.919,121.331h33.697 M245.748,154.951L228.9,184.145
	 M380.357,121.331l-16.849-29.193 M262.663,184.145l16.848-29.194 M279.58,154.877h33.694 M279.511,154.951v-16.847
	 M313.206,154.951l16.848,29.194 M313.206,138.104v16.773 M313.213,154.951h33.798 M228.9,217.914v-33.769 M262.663,217.84
	l16.848,29.193 M279.511,263.955v-16.922 M279.801,247.107h33.629 M313.206,247.107l16.848-29.193 M313.206,247.033v16.847
	 M296.478,184.145h16.688 M296.482,217.84h16.903 M313.201,184.145h16.789 M313.2,217.84h16.909 M330.004,184.145h33.303
	 M330.123,217.84h33.287 M330.054,217.914v-33.769 M313.31,247.107h33.697 M380.357,154.951l-16.849,29.194 M245.748,247.107
	L228.9,217.914 M397.272,184.145l16.847-29.194 M414.189,154.877h33.692 M414.119,154.951v-16.847 M447.815,154.951l16.847,29.194
	 M447.815,138.104v16.773 M447.821,154.951h33.799 M363.509,217.914v-33.769 M397.272,217.84l16.847,29.193 M414.119,263.955
	v-16.922 M414.41,247.107h33.629 M447.815,247.107l16.847-29.193 M447.815,247.033v16.847 M431.087,184.145h16.688 M431.09,217.84
	h16.904 M447.809,184.145h16.79 M447.808,217.84h16.91 M464.613,184.145h33.302 M464.732,217.84h33.286 M464.662,217.914v-33.769
	 M447.919,247.107h33.697 M245.748,280.728L228.9,309.921 M380.357,247.107l-16.849-29.193 M262.663,309.921l16.848-29.193
	 M279.58,280.653h33.694 M279.511,280.728V263.88 M313.206,280.728l16.848,29.193 M313.206,263.88v16.773 M313.213,280.728h33.798
	 M228.9,343.691v-33.771 M262.663,343.616l16.848,29.192 M313.206,372.884l16.848-29.192 M296.478,309.921h16.688 M296.482,343.616
	h16.903 M313.201,309.921h16.789 M313.2,343.616h16.909 M330.004,309.921h33.303 M330.123,343.616h33.287 M330.054,343.691v-33.771
	 M380.357,280.728l-16.849,29.193 M245.748,372.884L228.9,343.691 M397.272,309.921l16.847-29.193 M414.189,280.653h33.692
	 M414.119,280.728V263.88 M447.815,280.728l16.847,29.193 M447.815,263.88v16.773 M447.821,280.728h33.799 M363.509,343.691v-33.771
	 M397.272,343.616l16.847,29.192 M447.815,372.884l16.847-29.192 M431.087,309.921h16.688 M431.09,343.616h16.904 M447.809,309.921
	h16.79 M447.808,343.616h16.91 M464.613,309.921h33.302 M464.732,343.616h33.286 M464.662,343.691v-33.771 M514.977,29.175
	l-16.848,29.193 M380.357,372.884l-16.849-29.192 M531.892,58.368l16.848-29.193 M582.435,29.175l16.848,29.193 M498.129,92.138
	v-33.77 M531.892,92.064l16.848,29.192 M548.739,138.179v-16.923 M549.03,121.331h33.629 M582.435,121.331l16.848-29.193
	 M582.435,121.256v16.848 M565.706,58.368h16.688 M565.711,92.064h16.903 M582.429,58.368h16.79 M582.428,92.064h16.91
	 M599.232,58.368h33.303 M599.352,92.064h33.287 M599.282,92.138v-33.77 M582.539,121.331h33.697 M649.585,29.175l-16.848,29.193
	 M514.977,121.331l-16.848-29.193 M666.5,58.368l16.848-29.193 M632.737,92.138v-33.77 M666.5,92.064l16.848,29.192
	 M683.348,138.179v-16.923 M683.638,121.331h33.629 M514.977,154.951l-16.848,29.194 M649.585,121.331l-16.848-29.193
	 M717.038,58.368h16.79 M717.037,92.064h16.91 M700.315,58.368h16.688 M700.319,92.064h16.902 M531.892,184.145l16.848-29.194
	 M548.809,154.877h33.694 M548.739,154.951v-16.847 M582.435,154.951l16.848,29.194 M582.435,138.104v16.773 M582.441,154.951
	h33.799 M498.129,217.914v-33.769 M531.892,217.84l16.848,29.193 M548.739,263.955v-16.922 M549.03,247.107h33.629 M582.435,247.107
	l16.848-29.193 M582.435,247.033v16.847 M565.706,184.145h16.688 M565.711,217.84h16.903 M582.429,184.145h16.79 M582.428,217.84
	h16.91 M599.232,184.145h33.303 M599.352,217.84h33.287 M599.282,217.914v-33.769 M582.539,247.107h33.697 M649.585,154.951
	l-16.848,29.194 M514.977,247.107l-16.848-29.193 M666.5,184.145l16.848-29.194 M683.417,154.877h33.694 M683.348,154.951v-16.847
	 M632.737,217.914v-33.769 M666.5,217.84l16.848,29.193 M683.348,263.955v-16.922 M683.638,247.107h33.629 M514.977,280.728
	l-16.848,29.193 M649.585,247.107l-16.848-29.193 M717.038,184.145h16.79 M717.037,217.84h16.91 M700.315,184.145h16.688
	 M700.319,217.84h16.902 M531.892,309.921l16.848-29.193 M548.809,280.653h33.694 M548.739,280.728V263.88 M582.435,280.728
	l16.848,29.193 M582.435,263.88v16.773 M582.441,280.728h33.799 M498.129,343.691v-33.771 M531.892,343.616l16.848,29.192
	 M582.435,372.884l16.848-29.192 M565.706,309.921h16.688 M565.711,343.616h16.903 M582.429,309.921h16.79 M582.428,343.616h16.91
	 M599.232,309.921h33.303 M599.352,343.616h33.287 M599.282,343.691v-33.771 M649.585,280.728l-16.848,29.193 M514.977,372.884
	l-16.848-29.192 M666.5,309.921l16.848-29.193 M683.417,280.653h33.694 M683.348,280.728V263.88 M632.737,343.691v-33.771
	 M666.5,343.616l16.848,29.192 M649.585,372.884l-16.848-29.192 M717.038,309.921h16.79 M717.037,343.616h16.91 M700.315,309.921
	h16.688 M700.319,343.616h16.902"/>
<path fill="none" stroke="#000000" stroke-linecap="round" stroke-linejoin="round" stroke-miterlimit="3.864" d="M10.123,372.914
	l16.78-29.268v-33.697l-16.78-29.191v-33.621l16.78-29.268v-33.695l-16.78-29.193v-33.619l16.78-29.269V58.398l-16.78-29.193
	l706.989-0.075l16.78,29.193v33.695l-16.78,29.268v33.621l16.78,29.193v33.695l-16.78,29.268v33.621l16.78,29.193v33.693
	l-16.78,29.285L10.123,372.93"/>
</svg>
