<?xml version="1.0" encoding="utf-8"?>
<!-- Generator: Adobe Illustrator 16.0.3, SVG Export Plug-In . SVG Version: 6.00 Build 0)  -->
<!DOCTYPE svg PUBLIC "-//W3C//DTD SVG 1.1//EN" "http://www.w3.org/Graphics/SVG/1.1/DTD/svg11.dtd">
<svg version="1.1" id="Layer_1" xmlns="http://www.w3.org/2000/svg" xmlns:xlink="http://www.w3.org/1999/xlink" x="0px" y="0px"
	 width="800px" height="600px" viewBox="0 0 800 600" enable-background="new 0 0 800 600" xml:space="preserve">
<path fill="none" stroke="#000000" stroke-width="0.3" stroke-linejoin="round" d="M116.981,16.981h566.037v566.037H116.981V16.981z
	"/>
<path opacity="0.5" fill="none" stroke="#FF0000" stroke-width="0.09" stroke-linecap="round" enable-background="new    " d="
	M286.792,262.264v18.868 M305.66,262.264h18.868 M286.792,337.736v-18.868 M305.66,337.736h18.868 M437.736,186.792h-18.868
	 M437.736,205.66v18.868 M362.264,186.792h18.868 M362.264,205.66v18.868 M400,262.264h37.736 M400,337.736h37.736 M362.264,413.207
	h18.868 M362.264,394.34v-18.868 M437.736,413.207h-18.868 M437.736,394.34v-18.868 M513.207,337.736v-18.868 M494.34,337.736
	h-18.868 M513.207,262.264v18.868 M494.34,262.264h-18.868"/>
<path opacity="0.5" fill="none" stroke="#0000FF" stroke-width="0.09" stroke-linecap="round" enable-background="new    " d="
	M286.792,262.264h18.868 M324.528,262.264h18.868 M286.792,337.736h18.868 M324.528,337.736h18.868 M286.792,281.132v37.736
	 M437.736,186.792v18.868 M437.736,224.528v18.868 M362.264,186.792v18.868 M362.264,224.528v18.868 M418.868,186.792h-37.736
	 M343.396,262.264H400 M437.736,262.264h18.867 M362.264,243.396v18.868 M437.736,243.396v18.868 M343.396,337.736H400
	 M437.736,337.736h18.867 M362.264,356.604v-18.866 M437.736,356.604v-18.866 M362.264,413.207V394.34 M362.264,375.472v-18.868
	 M437.736,413.207V394.34 M437.736,375.472v-18.868 M381.132,413.207h37.736 M513.207,337.736H494.34 M475.472,337.736h-18.868
	 M513.207,262.264H494.34 M475.472,262.264h-18.868 M513.207,318.868v-37.736"/>
<path fill="none" stroke="#FF0000" stroke-width="0.15" stroke-linecap="round" d="M116.981,35.849h18.868 M135.849,54.717h18.868
	 M116.981,111.321h18.868 M135.849,92.453h18.868 M154.717,35.849h37.736 M135.849,16.981v113.207 M230.188,35.849H211.32
	 M211.321,54.717h-18.868 M230.188,111.321H211.32 M211.321,92.453h-18.868 M154.717,111.321h37.736 M211.321,16.981v113.207
	 M116.981,149.057h18.868 M135.849,167.925h18.868 M116.981,224.528h18.868 M135.849,205.66h18.868 M154.717,149.057h37.736
	 M135.849,130.188v113.208 M230.188,149.057H211.32 M211.321,167.925h-18.868 M230.188,224.528H211.32 M211.321,205.66h-18.868
	 M154.717,224.528h37.736 M211.321,130.188v113.208 M116.981,262.264h18.868 M135.849,281.132h18.868 M116.981,337.736h18.868
	 M135.849,318.868h18.868 M154.717,262.264h37.736 M135.849,243.396v113.208 M230.188,262.264H211.32 M211.321,281.132h-18.868
	 M230.188,337.736H211.32 M211.321,318.868h-18.868 M154.717,337.736h37.736 M211.321,243.396v113.208 M116.981,375.472h18.868
	 M135.849,394.34h18.868 M116.981,450.943h18.868 M135.849,432.075h18.868 M154.717,375.472h37.736 M135.849,356.604v113.209
	 M230.188,375.472H211.32 M211.321,394.34h-18.868 M230.188,450.943H211.32 M211.321,432.075h-18.868 M154.717,450.943h37.736
	 M211.321,356.604v113.209 M116.981,488.68h18.868 M135.849,507.547h18.868 M116.981,564.15h18.868 M135.849,545.283h18.868
	 M154.717,488.68h37.736 M135.849,469.812V583.02 M230.188,488.68H211.32 M211.321,507.547h-18.868 M230.188,564.15H211.32
	 M211.321,545.283h-18.868 M154.717,564.15h37.736 M211.321,469.812V583.02 M230.188,35.849h18.868 M249.057,54.717h18.868
	 M230.188,111.321h18.868 M249.057,92.453h18.868 M267.925,35.849h37.735 M249.057,16.981v113.207 M343.396,35.849h-18.868
	 M324.528,54.717H305.66 M343.396,111.321h-18.868 M324.528,92.453H305.66 M267.925,111.321h37.735 M324.528,16.981v113.207
	 M230.188,149.057h18.868 M249.057,167.925h18.868 M230.188,224.528h18.868 M249.057,205.66h18.868 M267.925,149.057h37.735
	 M249.057,130.188v113.208 M343.396,149.057h-18.868 M324.528,167.925H305.66 M343.396,224.528h-18.868 M324.528,205.66H305.66
	 M267.925,224.528h37.735 M324.528,130.188v113.208 M230.188,262.264h18.868 M249.057,243.396v18.868 M249.057,262.264L286.792,300
	 M267.925,243.396l37.735,37.735 M230.188,337.736h18.868 M249.057,356.604v-18.866 M249.057,337.736L286.792,300 M267.925,356.604
	l37.735-37.734 M324.528,243.396v113.208 M286.792,300h56.604 M230.188,375.472h18.868 M249.057,394.34h18.868 M230.188,450.943
	h18.868 M249.057,432.075h18.868 M267.925,375.472h37.735 M249.057,356.604v113.209 M343.396,375.472h-18.868 M324.528,394.34
	H305.66 M343.396,450.943h-18.868 M324.528,432.075H305.66 M267.925,450.943h37.735 M324.528,356.604v113.209 M230.188,488.68
	h18.868 M249.057,507.547h18.868 M230.188,564.15h18.868 M249.057,545.283h18.868 M267.925,488.68h37.735 M249.057,469.812V583.02
	 M343.396,488.68h-18.868 M324.528,507.547H305.66 M343.396,564.15h-18.868 M324.528,545.283H305.66 M267.925,564.15h37.735
	 M324.528,469.812V583.02 M343.396,35.849h18.866 M362.264,54.717h18.868 M343.396,111.321h18.866 M362.264,92.453h18.868
	 M381.132,35.849h37.736 M362.264,16.981v113.207 M456.604,35.849h-18.866 M437.736,54.717h-18.868 M456.604,111.321h-18.866
	 M437.736,92.453h-18.868 M381.132,111.321h37.736 M437.736,16.981v113.207 M437.736,130.188v18.868 M456.604,149.057h-18.866
	 M437.736,149.057L400,186.792 M456.604,167.925l-37.734,37.735 M362.264,130.188v18.868 M343.396,149.057h18.866 M362.264,149.057
	L400,186.792 M343.396,167.925l37.734,37.735 M456.604,224.528H343.396 M400,186.792v56.604 M362.264,262.264v75.473 M400,243.396
	v113.208 M343.396,300h18.866 M400,300h56.604 M362.264,469.812v-18.868 M343.396,450.943h18.866 M362.264,450.943L400,413.207
	 M343.396,432.075l37.734-37.735 M437.736,469.812v-18.868 M456.604,450.943h-18.866 M437.736,450.943L400,413.207 M456.604,432.075
	l-37.734-37.735 M343.396,375.472h113.207 M400,413.207v-56.604 M343.396,488.68h18.866 M362.264,507.547h18.868 M343.396,564.15
	h18.866 M362.264,545.283h18.868 M381.132,488.68h37.736 M362.264,469.812V583.02 M456.604,488.68h-18.866 M437.736,507.547h-18.868
	 M456.604,564.15h-18.866 M437.736,545.283h-18.868 M381.132,564.15h37.736 M437.736,469.812V583.02 M456.604,35.849h18.868
	 M475.472,54.717h18.868 M456.604,111.321h18.868 M475.472,92.453h18.868 M494.34,35.849h37.735 M475.472,16.981v113.207
	 M569.812,35.849h-18.868 M550.943,54.717h-18.868 M569.812,111.321h-18.868 M550.943,92.453h-18.868 M494.34,111.321h37.735
	 M550.943,16.981v113.207 M456.604,149.057h18.868 M475.472,167.925h18.868 M456.604,224.528h18.868 M475.472,205.66h18.868
	 M494.34,149.057h37.735 M475.472,130.188v113.208 M569.812,149.057h-18.868 M550.943,167.925h-18.868 M569.812,224.528h-18.868
	 M550.943,205.66h-18.868 M494.34,224.528h37.735 M550.943,130.188v113.208 M569.812,337.736h-18.868 M550.943,356.604v-18.866
	 M550.943,337.736L513.207,300 M532.075,356.604l-37.735-37.734 M569.812,262.264h-18.868 M550.943,243.396v18.868 M550.943,262.264
	L513.207,300 M532.075,243.396l-37.735,37.735 M475.472,356.604V243.396 M513.207,300h-56.604 M456.604,375.472h18.868
	 M475.472,394.34h18.868 M456.604,450.943h18.868 M475.472,432.075h18.868 M494.34,375.472h37.735 M475.472,356.604v113.209
	 M569.812,375.472h-18.868 M550.943,394.34h-18.868 M569.812,450.943h-18.868 M550.943,432.075h-18.868 M494.34,450.943h37.735
	 M550.943,356.604v113.209 M456.604,488.68h18.868 M475.472,507.547h18.868 M456.604,564.15h18.868 M475.472,545.283h18.868
	 M494.34,488.68h37.735 M475.472,469.812V583.02 M569.812,488.68h-18.868 M550.943,507.547h-18.868 M569.812,564.15h-18.868
	 M550.943,545.283h-18.868 M494.34,564.15h37.735 M550.943,469.812V583.02 M569.812,35.849h18.867 M588.68,54.717h18.867
	 M569.812,111.321h18.867 M588.68,92.453h18.867 M607.547,35.849h37.736 M588.68,16.981v113.207 M683.02,35.849H664.15
	 M664.15,54.717h-18.867 M683.02,111.321H664.15 M664.15,92.453h-18.867 M607.547,111.321h37.736 M664.15,16.981v113.207
	 M569.812,149.057h18.867 M588.68,167.925h18.867 M569.812,224.528h18.867 M588.68,205.66h18.867 M607.547,149.057h37.736
	 M588.68,130.188v113.208 M683.02,149.057H664.15 M664.15,167.925h-18.867 M683.02,224.528H664.15 M664.15,205.66h-18.867
	 M607.547,224.528h37.736 M664.15,130.188v113.208 M569.812,262.264h18.867 M588.68,281.132h18.867 M569.812,337.736h18.867
	 M588.68,318.868h18.867 M607.547,262.264h37.736 M588.68,243.396v113.208 M683.02,262.264H664.15 M664.15,281.132h-18.867
	 M683.02,337.736H664.15 M664.15,318.868h-18.867 M607.547,337.736h37.736 M664.15,243.396v113.208 M569.812,375.472h18.867
	 M588.68,394.34h18.867 M569.812,450.943h18.867 M588.68,432.075h18.867 M607.547,375.472h37.736 M588.68,356.604v113.209
	 M683.02,375.472H664.15 M664.15,394.34h-18.867 M683.02,450.943H664.15 M664.15,432.075h-18.867 M607.547,450.943h37.736
	 M664.15,356.604v113.209 M569.812,488.68h18.867 M588.68,507.547h18.867 M569.812,564.15h18.867 M588.68,545.283h18.867
	 M607.547,488.68h37.736 M588.68,469.812V583.02 M683.02,488.68H664.15 M664.15,507.547h-18.867 M683.02,564.15H664.15
	 M664.15,545.283h-18.867 M607.547,564.15h37.736 M664.15,469.812V583.02"/>
<path fill="none" stroke="#0000FF" stroke-width="0.15" stroke-linecap="round" d="M135.849,35.849h18.868 M116.981,54.717h18.868
	 M135.849,111.321h18.868 M116.981,92.453h18.868 M154.717,54.717h37.736 M154.717,16.981v113.207 M211.321,35.849h-18.868
	 M230.188,54.717H211.32 M211.321,111.321h-18.868 M230.188,92.453H211.32 M154.717,92.453h37.736 M192.453,16.981v113.207
	 M135.849,149.057h18.868 M116.981,167.925h18.868 M135.849,224.528h18.868 M116.981,205.66h18.868 M154.717,167.925h37.736
	 M154.717,130.188v113.208 M211.321,149.057h-18.868 M230.188,167.925H211.32 M211.321,224.528h-18.868 M230.188,205.66H211.32
	 M154.717,205.66h37.736 M192.453,130.188v113.208 M135.849,262.264h18.868 M116.981,281.132h18.868 M135.849,337.736h18.868
	 M116.981,318.868h18.868 M154.717,281.132h37.736 M154.717,243.396v113.208 M211.321,262.264h-18.868 M230.188,281.132H211.32
	 M211.321,337.736h-18.868 M230.188,318.868H211.32 M154.717,318.868h37.736 M192.453,243.396v113.208 M135.849,375.472h18.868
	 M116.981,394.34h18.868 M135.849,450.943h18.868 M116.981,432.075h18.868 M154.717,394.34h37.736 M154.717,356.604v113.209
	 M211.321,375.472h-18.868 M230.188,394.34H211.32 M211.321,450.943h-18.868 M230.188,432.075H211.32 M154.717,432.075h37.736
	 M192.453,356.604v113.209 M135.849,488.68h18.868 M116.981,507.547h18.868 M135.849,564.15h18.868 M116.981,545.283h18.868
	 M154.717,507.547h37.736 M154.717,469.812V583.02 M211.321,488.68h-18.868 M230.188,507.547H211.32 M211.321,564.15h-18.868
	 M230.188,545.283H211.32 M154.717,545.283h37.736 M192.453,469.812V583.02 M249.057,35.849h18.868 M230.188,54.717h18.868
	 M249.057,111.321h18.868 M230.188,92.453h18.868 M267.925,54.717h37.735 M267.925,16.981v113.207 M324.528,35.849H305.66
	 M343.396,54.717h-18.868 M324.528,111.321H305.66 M343.396,92.453h-18.868 M267.925,92.453h37.735 M305.66,16.981v113.207
	 M249.057,149.057h18.868 M230.188,167.925h18.868 M249.057,224.528h18.868 M230.188,205.66h18.868 M267.925,167.925h37.735
	 M267.925,130.188v113.208 M324.528,149.057H305.66 M343.396,167.925h-18.868 M324.528,224.528H305.66 M343.396,205.66h-18.868
	 M267.925,205.66h37.735 M305.66,130.188v113.208 M249.057,262.264l18.868-18.868 M305.66,281.132L324.528,300 M230.188,281.132
	h75.472 M305.66,243.396v37.735 M249.057,337.736l18.868,18.867 M305.66,318.868L324.528,300 M230.188,318.868h75.472
	 M305.66,356.604v-37.734 M267.925,243.396v113.208 M249.057,375.472h18.868 M230.188,394.34h18.868 M249.057,450.943h18.868
	 M230.188,432.075h18.868 M267.925,394.34h37.735 M267.925,356.604v113.209 M324.528,375.472H305.66 M343.396,394.34h-18.868
	 M324.528,450.943H305.66 M343.396,432.075h-18.868 M267.925,432.075h37.735 M305.66,356.604v113.209 M249.057,488.68h18.868
	 M230.188,507.547h18.868 M249.057,564.15h18.868 M230.188,545.283h18.868 M267.925,507.547h37.735 M267.925,469.812V583.02
	 M324.528,488.68H305.66 M343.396,507.547h-18.868 M324.528,564.15H305.66 M343.396,545.283h-18.868 M267.925,545.283h37.735
	 M305.66,469.812V583.02 M362.264,35.849h18.868 M343.396,54.717h18.866 M362.264,111.321h18.868 M343.396,92.453h18.866
	 M381.132,54.717h37.736 M381.132,16.981v113.207 M437.736,35.849h-18.868 M456.604,54.717h-18.866 M437.736,111.321h-18.868
	 M456.604,92.453h-18.866 M381.132,92.453h37.736 M418.868,16.981v113.207 M437.736,149.057l18.867,18.868 M418.868,205.66
	L400,224.528 M418.868,130.188v75.472 M456.604,205.66h-37.734 M362.264,149.057l-18.867,18.868 M381.132,205.66L400,224.528
	 M381.132,130.188v75.472 M343.396,205.66h37.734 M456.604,167.925H343.396 M362.264,262.264l75.474,75.473 M362.264,337.736
	l75.474-75.473 M362.264,300H400 M362.264,450.943l-18.867-18.868 M381.132,394.34L400,375.472 M381.132,469.812V394.34
	 M343.396,394.34h37.734 M437.736,450.943l18.867-18.868 M418.868,394.34L400,375.472 M418.868,469.812V394.34 M456.604,394.34
	h-37.734 M343.396,432.075h113.207 M362.264,488.68h18.868 M343.396,507.547h18.866 M362.264,564.15h18.868 M343.396,545.283h18.866
	 M381.132,507.547h37.736 M381.132,469.812V583.02 M437.736,488.68h-18.868 M456.604,507.547h-18.866 M437.736,564.15h-18.868
	 M456.604,545.283h-18.866 M381.132,545.283h37.736 M418.868,469.812V583.02 M475.472,35.849h18.868 M456.604,54.717h18.868
	 M475.472,111.321h18.868 M456.604,92.453h18.868 M494.34,54.717h37.735 M494.34,16.981v113.207 M550.943,35.849h-18.868
	 M569.812,54.717h-18.868 M550.943,111.321h-18.868 M569.812,92.453h-18.868 M494.34,92.453h37.735 M532.075,16.981v113.207
	 M475.472,149.057h18.868 M456.604,167.925h18.868 M475.472,224.528h18.868 M456.604,205.66h18.868 M494.34,167.925h37.735
	 M494.34,130.188v113.208 M550.943,149.057h-18.868 M569.812,167.925h-18.868 M550.943,224.528h-18.868 M569.812,205.66h-18.868
	 M494.34,205.66h37.735 M532.075,130.188v113.208 M550.943,337.736l-18.868,18.867 M494.34,318.868L475.472,300 M569.812,318.868
	H494.34 M494.34,356.604v-37.734 M550.943,262.264l-18.868-18.868 M494.34,281.132L475.472,300 M569.812,281.132H494.34
	 M494.34,243.396v37.735 M532.075,356.604V243.396 M475.472,375.472h18.868 M456.604,394.34h18.868 M475.472,450.943h18.868
	 M456.604,432.075h18.868 M494.34,394.34h37.735 M494.34,356.604v113.209 M550.943,375.472h-18.868 M569.812,394.34h-18.868
	 M550.943,450.943h-18.868 M569.812,432.075h-18.868 M494.34,432.075h37.735 M532.075,356.604v113.209 M475.472,488.68h18.868
	 M456.604,507.547h18.868 M475.472,564.15h18.868 M456.604,545.283h18.868 M494.34,507.547h37.735 M494.34,469.812V583.02
	 M550.943,488.68h-18.868 M569.812,507.547h-18.868 M550.943,564.15h-18.868 M569.812,545.283h-18.868 M494.34,545.283h37.735
	 M532.075,469.812V583.02 M588.68,35.849h18.867 M569.812,54.717h18.867 M588.68,111.321h18.867 M569.812,92.453h18.867
	 M607.547,54.717h37.736 M607.547,16.981v113.207 M664.15,35.849h-18.867 M683.02,54.717H664.15 M664.15,111.321h-18.867
	 M683.02,92.453H664.15 M607.547,92.453h37.736 M645.283,16.981v113.207 M588.68,149.057h18.867 M569.812,167.925h18.867
	 M588.68,224.528h18.867 M569.812,205.66h18.867 M607.547,167.925h37.736 M607.547,130.188v113.208 M664.15,149.057h-18.867
	 M683.02,167.925H664.15 M664.15,224.528h-18.867 M683.02,205.66H664.15 M607.547,205.66h37.736 M645.283,130.188v113.208
	 M588.68,262.264h18.867 M569.812,281.132h18.867 M588.68,337.736h18.867 M569.812,318.868h18.867 M607.547,281.132h37.736
	 M607.547,243.396v113.208 M664.15,262.264h-18.867 M683.02,281.132H664.15 M664.15,337.736h-18.867 M683.02,318.868H664.15
	 M607.547,318.868h37.736 M645.283,243.396v113.208 M588.68,375.472h18.867 M569.812,394.34h18.867 M588.68,450.943h18.867
	 M569.812,432.075h18.867 M607.547,394.34h37.736 M607.547,356.604v113.209 M664.15,375.472h-18.867 M683.02,394.34H664.15
	 M664.15,450.943h-18.867 M683.02,432.075H664.15 M607.547,432.075h37.736 M645.283,356.604v113.209 M588.68,488.68h18.867
	 M569.812,507.547h18.867 M588.68,564.15h18.867 M569.812,545.283h18.867 M607.547,507.547h37.736 M607.547,469.812V583.02
	 M664.15,488.68h-18.867 M683.02,507.547H664.15 M664.15,564.15h-18.867 M683.02,545.283H664.15 M607.547,545.283h37.736
	 M645.283,469.812V583.02"/>
</svg>
