<?xml version="1.0" encoding="utf-8"?>
<!-- Generator: Adobe Illustrator 16.0.3, SVG Export Plug-In . SVG Version: 6.00 Build 0)  -->
<!DOCTYPE svg PUBLIC "-//W3C//DTD SVG 1.1//EN" "http://www.w3.org/Graphics/SVG/1.1/DTD/svg11.dtd">
<svg version="1.1" id="Layer_1" xmlns="http://www.w3.org/2000/svg" xmlns:xlink="http://www.w3.org/1999/xlink" x="0px" y="0px"
	 width="3456px" height="6912px" viewBox="0 0 3456 6912" enable-background="new 0 0 3456 6912" xml:space="preserve">
<line fill="none" stroke="#000000" stroke-miterlimit="10" x1="515.823" y1="521.176" x2="2068.766" y2="521.176"/>
<line fill="none" stroke="#0000FF" stroke-miterlimit="10" x1="1680.529" y1="909.411" x2="2068.766" y2="909.411"/>
<line fill="none" stroke="#0000FF" stroke-miterlimit="10" x1="515.823" y1="909.411" x2="904.059" y2="909.411"/>
<line fill="none" stroke="#0000FF" stroke-miterlimit="10" x1="515.823" y1="1297.646" x2="2068.766" y2="1297.646"/>
<line fill="none" stroke="#0000FF" stroke-miterlimit="10" x1="1680.529" y1="1685.882" x2="2068.766" y2="1685.882"/>
<line fill="none" stroke="#0000FF" stroke-miterlimit="10" x1="515.823" y1="1685.882" x2="904.059" y2="1685.882"/>
<line fill="none" stroke="#000000" stroke-miterlimit="10" x1="515.823" y1="2074.117" x2="2068.766" y2="2074.117"/>
<line fill="none" stroke="#000000" stroke-miterlimit="10" x1="515.824" y1="2074.117" x2="515.823" y2="521.176"/>
<line fill="none" stroke="#000000" stroke-miterlimit="10" x1="2068.766" y1="2074.117" x2="2068.766" y2="521.176"/>
<line fill="none" stroke="#FF0000" stroke-miterlimit="10" x1="904.059" y1="1685.882" x2="1680.529" y2="1685.882"/>
<line fill="none" stroke="#FF0000" stroke-miterlimit="10" x1="904.059" y1="909.411" x2="1680.529" y2="909.411"/>
<line fill="none" stroke="#FF0000" stroke-miterlimit="10" x1="515.823" y1="1297.646" x2="904.059" y2="909.411"/>
<line fill="none" stroke="#FF0000" stroke-miterlimit="10" x1="515.823" y1="521.176" x2="904.059" y2="909.411"/>
<line fill="none" stroke="#FF0000" stroke-miterlimit="10" x1="2068.766" y1="1297.646" x2="1680.529" y2="909.411"/>
<line fill="none" stroke="#FF0000" stroke-miterlimit="10" x1="2068.766" y1="521.176" x2="1680.529" y2="909.411"/>
<line fill="none" stroke="#FF0000" stroke-miterlimit="10" x1="2068.766" y1="2074.117" x2="1680.529" y2="1685.882"/>
<line fill="none" stroke="#FF0000" stroke-miterlimit="10" x1="2068.766" y1="1297.646" x2="1680.529" y2="1685.882"/>
<line fill="none" stroke="#FF0000" stroke-miterlimit="10" x1="515.823" y1="2074.117" x2="904.059" y2="1685.882"/>
<line fill="none" stroke="#FF0000" stroke-miterlimit="10" x1="515.823" y1="1297.646" x2="904.059" y2="1685.882"/>
</svg>
