<?xml version="1.0" encoding="utf-8"?>
<!-- Generator: Adobe Illustrator 16.0.3, SVG Export Plug-In . SVG Version: 6.00 Build 0)  -->
<!DOCTYPE svg PUBLIC "-//W3C//DTD SVG 1.1//EN" "http://www.w3.org/Graphics/SVG/1.1/DTD/svg11.dtd">
<svg version="1.1" id="Layer_1" xmlns="http://www.w3.org/2000/svg" xmlns:xlink="http://www.w3.org/1999/xlink" x="0px" y="0px"
	 width="3456px" height="6912px" viewBox="0 0 3456 6912" enable-background="new 0 0 3456 6912" xml:space="preserve">
<rect x="432" y="288" fill="#FFFFFF" stroke="#000000" stroke-miterlimit="10" width="2016" height="2016"/>
<line fill="none" stroke="#FF0000" stroke-miterlimit="10" x1="432" y1="288" x2="1137.6" y2="590.398"/>
<line fill="none" stroke="#FF0000" stroke-miterlimit="10" x1="2448" y1="288" x2="1742.4" y2="590.398"/>
<line fill="none" stroke="#FF0000" stroke-miterlimit="10" x1="2448" y1="288" x2="2145.6" y2="993.6"/>
<line fill="none" stroke="#FF0000" stroke-miterlimit="10" x1="2448" y1="2304" x2="2145.602" y2="1598.4"/>
<line fill="none" stroke="#FF0000" stroke-miterlimit="10" x1="2448" y1="2304" x2="1742.4" y2="2001.601"/>
<line fill="none" stroke="#FF0000" stroke-miterlimit="10" x1="432" y1="2304" x2="1137.6" y2="2001.6"/>
<line fill="none" stroke="#FF0000" stroke-miterlimit="10" x1="432" y1="2304" x2="734.4" y2="1598.4"/>
<line fill="none" stroke="#FF0000" stroke-miterlimit="10" x1="432" y1="288" x2="734.4" y2="993.602"/>
<line fill="none" stroke="#FF0000" stroke-miterlimit="10" x1="734.398" y1="993.6" x2="432" y2="1296"/>
<line fill="none" stroke="#FF0000" stroke-miterlimit="10" x1="1440" y1="288" x2="1137.6" y2="590.4"/>
<line fill="none" stroke="#FF0000" stroke-miterlimit="10" x1="1137.604" y1="2001.604" x2="1440" y2="2304"/>
<line fill="none" stroke="#FF0000" stroke-miterlimit="10" x1="432" y1="1296" x2="734.4" y2="1598.4"/>
<line fill="none" stroke="#FF0000" stroke-miterlimit="10" x1="2145.6" y1="1598.398" x2="2448" y2="1296"/>
<line fill="none" stroke="#FF0000" stroke-miterlimit="10" x1="1440" y1="2304" x2="1742.4" y2="2001.6"/>
<line fill="none" stroke="#FF0000" stroke-miterlimit="10" x1="1742.4" y1="590.4" x2="1440" y2="288"/>
<line fill="none" stroke="#FF0000" stroke-miterlimit="10" x1="2448" y1="1296" x2="2145.604" y2="993.604"/>
<line fill="none" stroke="#FF0000" stroke-miterlimit="10" x1="1137.6" y1="590.4" x2="1440" y2="1296"/>
<line fill="none" stroke="#FF0000" stroke-miterlimit="10" x1="1742.4" y1="590.4" x2="1440" y2="1296"/>
<line fill="none" stroke="#FF0000" stroke-miterlimit="10" x1="734.4" y1="993.6" x2="1440" y2="1296"/>
<line fill="none" stroke="#FF0000" stroke-miterlimit="10" x1="1137.6" y1="2001.6" x2="1440" y2="1296"/>
<line fill="none" stroke="#FF0000" stroke-miterlimit="10" x1="734.4" y1="1598.4" x2="1440" y2="1296"/>
<line fill="none" stroke="#FF0000" stroke-miterlimit="10" x1="1742.4" y1="2001.6" x2="1440" y2="1296"/>
<line fill="none" stroke="#FF0000" stroke-miterlimit="10" x1="2145.6" y1="1598.4" x2="1440" y2="1296"/>
<line fill="none" stroke="#FF0000" stroke-miterlimit="10" x1="2145.6" y1="993.6" x2="1440" y2="1296"/>
<line fill="none" stroke="#0000FF" stroke-miterlimit="10" x1="432" y1="288" x2="2448" y2="2304"/>
<line opacity="0.5" fill="none" stroke="#0000FF" stroke-miterlimit="10" enable-background="new    " x1="864" y1="1296" x2="2016" y2="1296"/>
<line opacity="0.5" fill="none" stroke="#0000FF" stroke-miterlimit="10" enable-background="new    " x1="1440" y1="720" x2="1440" y2="1872"/>
<line opacity="0.5" fill="none" stroke="#0000FF" stroke-miterlimit="10" enable-background="new    " x1="864" y1="1296" x2="432" y2="1296"/>
<line opacity="0.5" fill="none" stroke="#0000FF" stroke-miterlimit="10" enable-background="new    " x1="2016" y1="1296" x2="2448" y2="1296"/>
<line opacity="0.5" fill="none" stroke="#0000FF" stroke-miterlimit="10" enable-background="new    " x1="1440" y1="720" x2="1440" y2="288"/>
<line opacity="0.5" fill="none" stroke="#0000FF" stroke-miterlimit="10" enable-background="new    " x1="1440" y1="1872" x2="1440" y2="2304"/>
<line fill="none" stroke="#0000FF" stroke-miterlimit="10" x1="432" y1="2304" x2="2448" y2="288"/>
<line fill="none" stroke="#0000FF" stroke-miterlimit="10" x1="1137.6" y1="590.4" x2="1137.6" y2="288"/>
<line fill="none" stroke="#0000FF" stroke-miterlimit="10" x1="1742.4" y1="590.4" x2="1742.4" y2="288"/>
<line fill="none" stroke="#0000FF" stroke-miterlimit="10" x1="2145.6" y1="993.6" x2="2448" y2="993.6"/>
<line fill="none" stroke="#0000FF" stroke-miterlimit="10" x1="2145.6" y1="1598.4" x2="2448" y2="1598.4"/>
<line fill="none" stroke="#0000FF" stroke-miterlimit="10" x1="1742.4" y1="2001.6" x2="1742.4" y2="2304"/>
<line fill="none" stroke="#0000FF" stroke-miterlimit="10" x1="1137.6" y1="2001.6" x2="1137.6" y2="2304"/>
<line fill="none" stroke="#0000FF" stroke-miterlimit="10" x1="734.4" y1="1598.4" x2="432" y2="1598.4"/>
<line fill="none" stroke="#0000FF" stroke-miterlimit="10" x1="734.4" y1="993.6" x2="432" y2="993.6"/>
</svg>
