<?xml version="1.0" encoding="ISO-8859-1" standalone="no"?>
<!DOCTYPE svg PUBLIC "-//W3C//DTD SVG 20010904//EN"
"http://www.w3.org/TR/2001/REC-SVG-20010904/DTD/svg10.dtd">
<svg xmlns="http://www.w3.org/2000/svg"
 xmlns:xlink="http://www.w3.org/1999/xlink" xml:space="preserve"
 width="1000px" height="1000px"
 viewBox="0 0 1000 1000" >
 <line style="stroke:blue;stroke-width:2;stroke-opacity:1" x1="625.0" y1="531.25" x2="625.0" y2="468.75" />
 <line style="stroke:blue;stroke-width:2;stroke-opacity:1" x1="843.75" y1="593.75" x2="781.25" y2="625.0" />
 <line style="stroke:black;stroke-width:4;" x1="0.0" y1="375.0" x2="0.0" y2="500.0" />
 <line style="stroke:red;stroke-width:2;" x1="218.75" y1="375.0" x2="250.0" y2="500.0" />
 <line style="stroke:red;stroke-width:2;" x1="500.0" y1="125.0" x2="343.75" y2="250.0" />
 <line style="stroke:blue;stroke-width:2;stroke-opacity:1" x1="875.0" y1="531.25" x2="843.75" y2="593.75" />
 <line style="stroke:black;stroke-width:4;" x1="0.0" y1="1000.0" x2="1000.0" y2="1000.0" />
 <line style="stroke:blue;stroke-width:2;stroke-opacity:1" x1="468.75" y1="375.0" x2="406.25" y2="406.25" />
 <line style="stroke:red;stroke-width:2;" x1="156.25" y1="250.0" x2="218.75" y2="375.0" />
 <line style="stroke:red;stroke-width:2;" x1="500.0" y1="125.0" x2="0.0" y2="125.0" />
 <line style="stroke:red;stroke-width:2;" x1="593.75" y1="750.0" x2="531.25" y2="625.0" />
 <line style="stroke:blue;stroke-width:2;stroke-opacity:1" x1="718.75" y1="625.0" x2="656.25" y2="593.75" />
 <line style="stroke:blue;stroke-width:2;stroke-opacity:1" x1="906.25" y1="406.25" x2="875.0" y2="468.75" />
 <line style="stroke:red;stroke-width:2;" x1="250.0" y1="875.0" x2="406.25" y2="750.0" />
 <line style="stroke:black;stroke-width:4;" x1="0.0" y1="0.0" x2="0.0" y2="125.0" />
 <line style="stroke:red;stroke-width:2;" x1="499.99999999999994" y1="0.0" x2="500.0" y2="125.0" />
 <line style="stroke:red;stroke-width:2;" x1="531.25" y1="625.0" x2="500.0" y2="500.0" />
 <line style="stroke:blue;stroke-width:2;stroke-opacity:1" x1="656.25" y1="593.75" x2="625.0" y2="531.25" />
 <line style="stroke:blue;stroke-width:2;stroke-opacity:1" x1="593.75" y1="406.25" x2="531.25" y2="375.0" />
 <line style="stroke:red;stroke-width:2;" x1="843.75" y1="250.0" x2="781.25" y2="375.0" />
 <line style="stroke:black;stroke-width:4;" x1="1000.0" y1="875.0" x2="1000.0" y2="500.0" />
 <line style="stroke:red;stroke-width:2;" x1="281.25" y1="375.0" x2="250.0" y2="500.0" />
 <line style="stroke:black;stroke-width:4;" x1="1000.0" y1="875.0" x2="1000.0" y2="1000.0" />
 <line style="stroke:black;stroke-width:4;" x1="0.0" y1="500.0" x2="0.0" y2="875.0" />
 <line style="stroke:red;stroke-width:2;" x1="343.75" y1="250.0" x2="281.25" y2="375.0" />
 <line style="stroke:blue;stroke-width:2;stroke-opacity:1" x1="125.0" y1="468.75" x2="125.0" y2="531.25" />
 <line style="stroke:red;stroke-width:2;" x1="1000.0" y1="125.0" x2="843.75" y2="250.0" />
 <line style="stroke:black;stroke-width:4;" x1="499.99999999999994" y1="0.0" x2="0.0" y2="0.0" />
 <line style="stroke:red;stroke-width:2;" x1="656.25" y1="250.0" x2="718.75" y2="375.0" />
 <line style="stroke:red;stroke-width:2;" x1="906.25" y1="750.0" x2="968.75" y2="625.0" />
 <line style="stroke:blue;stroke-width:2;stroke-opacity:1" x1="406.25" y1="406.25" x2="375.0" y2="468.75" />
 <line style="stroke:red;stroke-width:2;" x1="250.0" y1="875.0" x2="750.0" y2="875.0" />
 <line style="stroke:red;stroke-width:2;" x1="968.75" y1="625.0" x2="1000.0" y2="500.0" />
 <line style="stroke:blue;stroke-width:2;stroke-opacity:1" x1="93.75" y1="406.25" x2="31.25" y2="375.0" />
 <line style="stroke:red;stroke-width:2;" x1="1000.0" y1="875.0" x2="750.0" y2="875.0" />
 <line style="stroke:black;stroke-width:4;" x1="0.0" y1="875.0" x2="0.0" y2="1000.0" />
 <line style="stroke:red;stroke-width:2;" x1="750.0" y1="875.0" x2="593.75" y2="750.0" />
 <line style="stroke:black;stroke-width:4;" x1="0.0" y1="125.0" x2="0.0" y2="375.0" />
 <line style="stroke:red;stroke-width:2;" x1="718.75" y1="375.0" x2="750.0" y2="500.0" />
 <line style="stroke:blue;stroke-width:2;stroke-opacity:1" x1="625.0" y1="468.75" x2="593.75" y2="406.25" />
 <line style="stroke:blue;stroke-width:2;stroke-opacity:1" x1="281.25" y1="625.0" x2="218.75" y2="625.0" />
 <line style="stroke:blue;stroke-width:2;stroke-opacity:1" x1="0.0" y1="375.0" x2="31.25" y2="375.0" />
 <line style="stroke:red;stroke-width:2;" x1="31.25" y1="625.0" x2="0.0" y2="500.0" />
 <line style="stroke:blue;stroke-width:2;stroke-opacity:1" x1="375.0" y1="531.25" x2="343.75" y2="593.75" />
 <line style="stroke:red;stroke-width:2;" x1="781.25" y1="375.0" x2="750.0" y2="500.0" />
 <line style="stroke:red;stroke-width:2;" x1="750.0" y1="875.0" x2="906.25" y2="750.0" />
 <line style="stroke:red;stroke-width:2;" x1="93.75" y1="750.0" x2="31.25" y2="625.0" />
 <line style="stroke:blue;stroke-width:2;stroke-opacity:1" x1="781.25" y1="625.0" x2="718.75" y2="625.0" />
 <line style="stroke:red;stroke-width:2;" x1="0.0" y1="125.0" x2="156.25" y2="250.0" />
 <line style="stroke:blue;stroke-width:2;stroke-opacity:1" x1="343.75" y1="593.75" x2="281.25" y2="625.0" />
 <line style="stroke:blue;stroke-width:2;stroke-opacity:1" x1="156.25" y1="593.75" x2="125.0" y2="531.25" />
 <line style="stroke:blue;stroke-width:2;stroke-opacity:1" x1="968.75" y1="375.0" x2="906.25" y2="406.25" />
 <line style="stroke:black;stroke-width:4;" x1="1000.0" y1="375.0" x2="1000.0" y2="500.0" />
 <line style="stroke:red;stroke-width:2;" x1="0.0" y1="875.0" x2="250.0" y2="875.0" />
 <line style="stroke:blue;stroke-width:2;stroke-opacity:1" x1="125.0" y1="468.75" x2="93.75" y2="406.25" />
 <line style="stroke:blue;stroke-width:2;stroke-opacity:1" x1="375.0" y1="468.75" x2="375.0" y2="531.25" />
 <line style="stroke:black;stroke-width:4;" x1="1000.0" y1="125.0" x2="1000.0" y2="375.0" />
 <line style="stroke:red;stroke-width:2;" x1="1000.0" y1="125.0" x2="500.0" y2="125.0" />
 <line style="stroke:blue;stroke-width:2;stroke-opacity:1" x1="875.0" y1="468.75" x2="875.0" y2="531.25" />
 <line style="stroke:blue;stroke-width:2;stroke-opacity:1" x1="1000.0" y1="375.0" x2="968.75" y2="375.0" />
 <line style="stroke:red;stroke-width:2;" x1="250.00000000000003" y1="875.0" x2="93.75" y2="750.0" />
 <line style="stroke:blue;stroke-width:2;stroke-opacity:1" x1="531.25" y1="375.0" x2="468.75" y2="375.0" />
 <line style="stroke:black;stroke-width:4;" x1="1000.0" y1="0.0" x2="1000.0" y2="125.0" />
 <line style="stroke:red;stroke-width:2;" x1="468.75" y1="625.0" x2="500.0" y2="500.0" />
 <line style="stroke:black;stroke-width:4;" x1="1000.0" y1="0.0" x2="499.99999999999994" y2="0.0" />
 <line style="stroke:blue;stroke-width:2;stroke-opacity:1" x1="218.75" y1="625.0" x2="156.25" y2="593.75" />
 <line style="stroke:red;stroke-width:2;" x1="406.25" y1="750.0" x2="468.75" y2="625.0" />
 <line style="stroke:red;stroke-width:2;" x1="500.0" y1="125.0" x2="656.25" y2="250.0" />
</svg>