<?xml version="1.0" encoding="utf-8"?>
<!-- Generator: Adobe Illustrator 16.0.3, SVG Export Plug-In . SVG Version: 6.00 Build 0)  -->
<!DOCTYPE svg PUBLIC "-//W3C//DTD SVG 1.1//EN" "http://www.w3.org/Graphics/SVG/1.1/DTD/svg11.dtd">
<svg version="1.1" id="Layer_2" xmlns="http://www.w3.org/2000/svg" xmlns:xlink="http://www.w3.org/1999/xlink" x="0px" y="0px"
	 width="3456px" height="6912px" viewBox="0 0 3456 6912" enable-background="new 0 0 3456 6912" xml:space="preserve">
<path fill="none" stroke="#000000" stroke-miterlimit="10" d="M2109,3837h-762v-762h762V3837z"/>
<path fill="none" stroke="#FF0000" stroke-miterlimit="10" d="M2109,3075l-381,380.962 M1347,3837l381-381.038 M1823.246,3551.217
	l95.257-95.256 M1632.743,3360.733l95.257-95.256 M1823.217,3551.199l-95.256,95.257 M1632.732,3360.696l-95.256,95.257"/>
<path fill="none" stroke="#0000FF" stroke-miterlimit="10" d="M1401.475,3183.93L1347,3075 M1455.93,3129.473L1347,3075
	 M1347,3175.333l54.475,8.596 M1420.323,3148.323l-18.849,35.605 M1727.962,3455.961l-307.639-307.638 M2109,3837l-381-381.038
	 M1728,3455.962V3075 M1728,3455.962V3837 M1728,3455.962h381 M1728,3455.962h-381 M1727.966,3265.47l95.266,95.271
	 M1823.231,3360.74l95.271,95.271 M2109,3837l-163.293-326.582 M2109,3455.962l-285.754,95.254 M1918.503,3456.011l27.204,54.407
	 M1728,3075l-95.257,285.733 M1455.93,3129.473l217.638,108.802 M1727.966,3265.47l-54.398-27.195 M1537.47,3455.919l95.271,95.266
	 M1632.74,3551.185l95.271,95.271 M2109,3836.953l-326.582-163.293 M1823.217,3551.199l-95.254,285.754 M1632.732,3360.696
	L1347,3455.953 M1510.275,3401.521l-108.803-217.639 M1537.47,3455.919l-27.194-54.397 M2109,3075l-381.034,190.47 M2109,3075
	l-190.497,381.011 M1537.47,3455.919L1347,3837 M1347,3837l380.961-190.544 M1782.418,3673.66l-54.457-27.204 M1420.324,3148.323
	L1347,3075 M1455.929,3129.475l-8.596-54.475 M1455.929,3129.475l-35.605,18.848"/>
</svg>
