<?xml version="1.0" encoding="utf-8"?>
<!-- Generator: Adobe Illustrator 16.0.3, SVG Export Plug-In . SVG Version: 6.00 Build 0)  -->
<!DOCTYPE svg PUBLIC "-//W3C//DTD SVG 1.1//EN" "http://www.w3.org/Graphics/SVG/1.1/DTD/svg11.dtd">
<svg version="1.1" id="Layer_1" xmlns="http://www.w3.org/2000/svg" xmlns:xlink="http://www.w3.org/1999/xlink" x="0px" y="0px"
	 width="3456px" height="6912px" viewBox="0 0 3456 6912" enable-background="new 0 0 3456 6912" xml:space="preserve">
<rect x="432" y="288" fill="#FFFFFF" stroke="#000000" stroke-miterlimit="10" width="2016" height="2016"/>
<line fill="none" stroke="#FF0000" stroke-miterlimit="10" x1="864" y1="1296" x2="2016" y2="1296"/>
<line fill="none" stroke="#FF0000" stroke-miterlimit="10" x1="1440" y1="720" x2="1440" y2="1872"/>
<line fill="none" stroke="#FF0000" stroke-miterlimit="10" x1="432" y1="288" x2="1440" y2="720"/>
<line fill="none" stroke="#FF0000" stroke-miterlimit="10" x1="2448" y1="288" x2="1440" y2="720"/>
<line fill="none" stroke="#FF0000" stroke-miterlimit="10" x1="2448" y1="288" x2="2016" y2="1296"/>
<line fill="none" stroke="#FF0000" stroke-miterlimit="10" x1="2448" y1="2304" x2="2016" y2="1296"/>
<line fill="none" stroke="#FF0000" stroke-miterlimit="10" x1="2448" y1="2304" x2="1440" y2="1872"/>
<line fill="none" stroke="#FF0000" stroke-miterlimit="10" x1="432" y1="2304" x2="1440" y2="1872"/>
<line fill="none" stroke="#FF0000" stroke-miterlimit="10" x1="432" y1="2304" x2="864" y2="1296"/>
<line fill="none" stroke="#FF0000" stroke-miterlimit="10" x1="432" y1="288" x2="864" y2="1296"/>
<line fill="none" stroke="#0000FF" stroke-miterlimit="10" x1="1440" y1="720" x2="2016" y2="1296"/>
<line fill="none" stroke="#0000FF" stroke-miterlimit="10" x1="864" y1="1296" x2="1440" y2="1872"/>
<line fill="none" stroke="#0000FF" stroke-miterlimit="10" x1="800.78" y1="1148.488" x2="1152" y2="1008"/>
<line fill="none" stroke="#0000FF" stroke-miterlimit="10" x1="1292.488" y1="656.781" x2="1152" y2="1008"/>
<line fill="none" stroke="#0000FF" stroke-miterlimit="10" x1="1587.512" y1="1935.22" x2="1728" y2="1584"/>
<line fill="none" stroke="#0000FF" stroke-miterlimit="10" x1="2079.22" y1="1443.513" x2="1728" y2="1584"/>
<line fill="none" stroke="#FF0000" stroke-miterlimit="10" x1="1292.488" y1="656.781" x2="1440" y2="288"/>
<line fill="none" stroke="#FF0000" stroke-miterlimit="10" x1="800.78" y1="1148.488" x2="432" y2="1296"/>
<line fill="none" stroke="#FF0000" stroke-miterlimit="10" x1="2079.22" y1="1443.513" x2="2448" y2="1296"/>
<line fill="none" stroke="#FF0000" stroke-miterlimit="10" x1="1587.512" y1="1935.22" x2="1440" y2="2304"/>
<line fill="none" stroke="#0000FF" stroke-miterlimit="10" x1="1152" y1="1008" x2="1728" y2="1584"/>
<line fill="none" stroke="#FF0000" stroke-miterlimit="10" x1="1728" y1="1584" x2="2448" y2="2304"/>
<line fill="none" stroke="#FF0000" stroke-miterlimit="10" x1="1152" y1="1008" x2="648" y2="504"/>
<line fill="none" stroke="#0000FF" stroke-miterlimit="10" x1="432" y1="597.595" x2="524.571" y2="504"/>
<line fill="none" stroke="#FF0000" stroke-miterlimit="10" x1="524.571" y1="504" x2="648" y2="504"/>
<line fill="none" stroke="#0000FF" stroke-miterlimit="10" x1="741.595" y1="288" x2="648" y2="380.571"/>
<line fill="none" stroke="#FF0000" stroke-miterlimit="10" x1="648" y1="380.571" x2="648" y2="504"/>
<line fill="none" stroke="#0000FF" stroke-miterlimit="10" x1="432" y1="288" x2="648" y2="504"/>
</svg>
