<?xml version="1.0" encoding="utf-8"?>
<!-- Generator: Adobe Illustrator 22.0.1, SVG Export Plug-In . SVG Version: 6.00 Build 0)  -->
<svg version="1.1" id="Layer_1" xmlns="http://www.w3.org/2000/svg" xmlns:xlink="http://www.w3.org/1999/xlink" x="0px" y="0px"
	 viewBox="0 0 1555.3 1555.2" enable-background="new 0 0 1555.3 1555.2" xml:space="preserve">
<line fill="none" stroke="#000000" stroke-width="4.32" x1="1425.7" y1="777.6" x2="1425.7" y2="661.2"/>
<line fill="none" stroke="#000000" stroke-width="4.32" x1="1425.7" y1="777.6" x2="1425.7" y2="1425.6"/>
<line fill="none" stroke="#000000" stroke-width="4.32" x1="1425.7" y1="661.2" x2="1425.7" y2="129.6"/>
<line fill="none" stroke="#000000" stroke-width="4.32" x1="129.6" y1="777.6" x2="129.6" y2="356.4"/>
<line fill="none" stroke="#000000" stroke-width="4.32" x1="129.6" y1="777.6" x2="129.6" y2="894"/>
<line fill="none" stroke="#000000" stroke-width="4.32" x1="129.6" y1="356.4" x2="129.6" y2="129.6"/>
<line fill="none" stroke="#000000" stroke-width="4.32" x1="129.6" y1="894" x2="129.6" y2="1425.6"/>
<line fill="none" stroke="#000000" stroke-width="4.32" x1="777.6" y1="129.6" x2="356.4" y2="129.6"/>
<line fill="none" stroke="#000000" stroke-width="4.32" x1="777.6" y1="129.6" x2="894" y2="129.6"/>
<line fill="none" stroke="#000000" stroke-width="4.32" x1="356.4" y1="129.6" x2="129.6" y2="129.6"/>
<line fill="none" stroke="#000000" stroke-width="4.32" x1="894" y1="129.6" x2="1425.7" y2="129.6"/>
<line fill="none" stroke="#000000" stroke-width="4.32" x1="661.3" y1="1425.6" x2="129.6" y2="1425.6"/>
<line fill="none" stroke="#000000" stroke-width="4.32" x1="777.6" y1="1425.6" x2="661.3" y2="1425.6"/>
<line fill="none" stroke="#000000" stroke-width="4.32" x1="777.6" y1="1425.6" x2="1425.7" y2="1425.6"/>
<line fill="none" stroke="#FF0000" stroke-width="4.32" x1="562.6" y1="777.6" x2="398" y2="777.6"/>
<line fill="none" stroke="#FF0000" stroke-width="4.32" x1="562.6" y1="777.6" x2="777.6" y2="777.6"/>
<line fill="none" stroke="#FF0000" stroke-width="4.32" x1="363.9" y1="859.9" x2="398" y2="777.6"/>
<line fill="none" stroke="#FF0000" stroke-width="4.32" x1="303.8" y1="1005.2" x2="363.9" y2="859.9"/>
<line fill="none" stroke="#FF0000" stroke-width="4.32" x1="303.8" y1="1005.2" x2="129.6" y2="1425.6"/>
<line fill="none" stroke="#FF0000" stroke-width="4.32" x1="398" y1="942.2" x2="496.7" y2="876.3"/>
<line fill="none" stroke="#FF0000" stroke-width="4.32" x1="398" y1="942.2" x2="303.8" y2="1005.2"/>
<line fill="none" stroke="#FF0000" stroke-width="4.32" x1="377.6" y1="728.3" x2="463.9" y2="629.9"/>
<line fill="none" stroke="#FF0000" stroke-width="4.32" x1="129.6" y1="777.6" x2="247" y2="719.7"/>
<line fill="none" stroke="#FF0000" stroke-width="4.32" x1="216.4" y1="339.1" x2="169.9" y2="331.9"/>
<line fill="none" stroke="#FF0000" stroke-width="4.32" x1="290" y1="289.9" x2="244.2" y2="301.1"/>
<line fill="none" stroke="#FF0000" stroke-width="4.32" x1="587.8" y1="587.8" x2="290" y2="289.9"/>
<line fill="none" stroke="#FF0000" stroke-width="4.32" x1="377.6" y1="728.3" x2="398" y2="777.6"/>
<line fill="none" stroke="#FF0000" stroke-width="4.32" x1="377.6" y1="728.3" x2="216.4" y2="339.1"/>
<line fill="none" stroke="#FF0000" stroke-width="4.32" x1="463.9" y1="629.9" x2="562.6" y2="777.6"/>
<line fill="none" stroke="#FF0000" stroke-width="4.32" x1="463.9" y1="629.9" x2="244.2" y2="301.1"/>
<line fill="none" stroke="#FF0000" stroke-width="4.32" x1="244.2" y1="301.1" x2="129.6" y2="129.6"/>
<line fill="none" stroke="#FF0000" stroke-width="4.32" x1="216.4" y1="339.1" x2="129.6" y2="129.6"/>
<line fill="none" stroke="#FF0000" stroke-width="4.32" x1="339.2" y1="216.4" x2="129.6" y2="129.6"/>
<line fill="none" stroke="#FF0000" stroke-width="4.32" x1="301.2" y1="244.2" x2="129.6" y2="129.6"/>
<line fill="none" stroke="#FF0000" stroke-width="4.32" x1="290" y1="289.9" x2="301.2" y2="244.2"/>
<line fill="none" stroke="#FF0000" stroke-width="4.32" x1="339.2" y1="216.4" x2="332" y2="169.8"/>
<line fill="none" stroke="#FF0000" stroke-width="4.32" x1="728.3" y1="377.6" x2="777.6" y2="398"/>
<line fill="none" stroke="#FF0000" stroke-width="4.32" x1="728.3" y1="377.6" x2="339.2" y2="216.4"/>
<line fill="none" stroke="#FF0000" stroke-width="4.32" x1="629.9" y1="463.9" x2="777.6" y2="562.6"/>
<line fill="none" stroke="#FF0000" stroke-width="4.32" x1="629.9" y1="463.9" x2="301.2" y2="244.2"/>
<line fill="none" stroke="#FF0000" stroke-width="4.32" x1="728.3" y1="377.6" x2="629.9" y2="463.9"/>
<line fill="none" stroke="#FF0000" stroke-width="4.32" x1="777.6" y1="129.6" x2="719.8" y2="246.9"/>
<line fill="none" stroke="#FF0000" stroke-width="4.32" x1="859.9" y1="363.9" x2="777.6" y2="398"/>
<line fill="none" stroke="#FF0000" stroke-width="4.32" x1="1005.2" y1="303.7" x2="859.9" y2="363.9"/>
<line fill="none" stroke="#FF0000" stroke-width="4.32" x1="1005.2" y1="303.7" x2="1425.7" y2="129.6"/>
<line fill="none" stroke="#FF0000" stroke-width="4.32" x1="777.6" y1="562.6" x2="777.6" y2="398"/>
<line fill="none" stroke="#FF0000" stroke-width="4.32" x1="777.6" y1="562.6" x2="777.6" y2="777.6"/>
<line fill="none" stroke="#FF0000" stroke-width="4.32" x1="942.2" y1="398" x2="876.3" y2="496.6"/>
<line fill="none" stroke="#FF0000" stroke-width="4.32" x1="942.2" y1="398" x2="1005.2" y2="303.7"/>
<line fill="none" stroke="#FF0000" stroke-width="4.32" x1="827" y1="1177.6" x2="925.4" y2="1091.3"/>
<line fill="none" stroke="#FF0000" stroke-width="4.32" x1="1177.7" y1="826.9" x2="1091.4" y2="925.3"/>
<line fill="none" stroke="#FF0000" stroke-width="4.32" x1="1091.4" y1="925.3" x2="992.7" y2="777.6"/>
<line fill="none" stroke="#FF0000" stroke-width="4.32" x1="1177.7" y1="826.9" x2="1157.3" y2="777.6"/>
<line fill="none" stroke="#FF0000" stroke-width="4.32" x1="1425.7" y1="777.6" x2="1308.3" y2="835.5"/>
<line fill="none" stroke="#FF0000" stroke-width="4.32" x1="695.4" y1="1191.3" x2="550.1" y2="1251.5"/>
<line fill="none" stroke="#FF0000" stroke-width="4.32" x1="695.4" y1="1191.3" x2="777.6" y2="1157.2"/>
<line fill="none" stroke="#FF0000" stroke-width="4.32" x1="550.1" y1="1251.5" x2="129.6" y2="1425.6"/>
<line fill="none" stroke="#FF0000" stroke-width="4.32" x1="777.6" y1="1425.6" x2="835.5" y2="1308.3"/>
<line fill="none" stroke="#FF0000" stroke-width="4.32" x1="1157.3" y1="613" x2="1058.6" y2="678.9"/>
<line fill="none" stroke="#FF0000" stroke-width="4.32" x1="1157.3" y1="613" x2="1251.5" y2="550"/>
<line fill="none" stroke="#FF0000" stroke-width="4.32" x1="1191.3" y1="695.3" x2="1157.3" y2="777.6"/>
<line fill="none" stroke="#FF0000" stroke-width="4.32" x1="1251.5" y1="550" x2="1191.3" y2="695.3"/>
<line fill="none" stroke="#FF0000" stroke-width="4.32" x1="1251.5" y1="550" x2="1425.7" y2="129.6"/>
<line fill="none" stroke="#FF0000" stroke-width="4.32" x1="992.7" y1="777.6" x2="1157.3" y2="777.6"/>
<line fill="none" stroke="#FF0000" stroke-width="4.32" x1="992.7" y1="777.6" x2="777.6" y2="777.6"/>
<line opacity="0.5" fill="none" stroke="#FF0000" stroke-width="4.32" x1="398" y1="942.2" x2="613.1" y2="1157.2"/>
<line opacity="0.5" fill="none" stroke="#FF0000" stroke-width="4.32" x1="363.9" y1="859.9" x2="281.7" y2="894"/>
<line opacity="0.5" fill="none" stroke="#FF0000" stroke-width="4.32" x1="695.4" y1="1191.3" x2="661.3" y2="1273.6"/>
<line opacity="0.5" fill="none" stroke="#FF0000" stroke-width="4.32" x1="859.9" y1="363.9" x2="894" y2="281.6"/>
<line opacity="0.5" fill="none" stroke="#FF0000" stroke-width="4.32" x1="942.2" y1="398" x2="1157.3" y2="613"/>
<line opacity="0.5" fill="none" stroke="#FF0000" stroke-width="4.32" x1="1191.3" y1="695.3" x2="1273.6" y2="661.2"/>
<line fill="none" stroke="#FF0000" stroke-width="4.32" x1="613.1" y1="1157.2" x2="679" y2="1058.6"/>
<line fill="none" stroke="#FF0000" stroke-width="4.32" x1="613.1" y1="1157.2" x2="550.1" y2="1251.5"/>
<line fill="none" stroke="#FF0000" stroke-width="4.32" x1="925.4" y1="1091.3" x2="1425.7" y2="1425.6"/>
<line fill="none" stroke="#FF0000" stroke-width="4.32" x1="925.4" y1="1091.3" x2="777.6" y2="992.6"/>
<line fill="none" stroke="#FF0000" stroke-width="4.32" x1="827" y1="1177.6" x2="777.6" y2="1157.2"/>
<line fill="none" stroke="#FF0000" stroke-width="4.32" x1="827" y1="1177.6" x2="1425.7" y2="1425.6"/>
<line fill="none" stroke="#FF0000" stroke-width="4.32" x1="777.6" y1="992.6" x2="777.6" y2="777.6"/>
<line fill="none" stroke="#FF0000" stroke-width="4.32" x1="777.6" y1="992.6" x2="777.6" y2="1157.2"/>
<line fill="none" stroke="#FF0000" stroke-width="4.32" x1="967.4" y1="967.4" x2="1425.7" y2="1425.6"/>
<line fill="none" stroke="#0000FF" stroke-width="4.32" x1="496.7" y1="876.3" x2="398" y2="777.6"/>
<line fill="none" stroke="#0000FF" stroke-width="4.32" x1="562.6" y1="777.6" x2="496.7" y2="876.3"/>
<line fill="none" stroke="#0000FF" stroke-width="4.32" x1="377.6" y1="728.3" x2="247" y2="719.7"/>
<line fill="none" stroke="#0000FF" stroke-width="4.32" x1="129.6" y1="356.4" x2="169.9" y2="331.9"/>
<line fill="none" stroke="#0000FF" stroke-width="4.32" x1="216.4" y1="339.1" x2="244.2" y2="301.1"/>
<line fill="none" stroke="#0000FF" stroke-width="4.32" x1="290" y1="289.9" x2="129.6" y2="129.6"/>
<line fill="none" stroke="#0000FF" stroke-width="4.32" x1="281.7" y1="894" x2="303.8" y2="1005.2"/>
<line fill="none" stroke="#0000FF" stroke-width="4.32" x1="247" y1="719.7" x2="281.7" y2="894"/>
<line fill="none" stroke="#0000FF" stroke-width="4.32" x1="247" y1="719.7" x2="169.9" y2="331.9"/>
<line fill="none" stroke="#0000FF" stroke-width="4.32" x1="463.9" y1="629.9" x2="587.8" y2="587.8"/>
<line fill="none" stroke="#0000FF" stroke-width="4.32" x1="169.9" y1="331.9" x2="129.6" y2="129.6"/>
<line fill="none" stroke="#0000FF" stroke-width="4.32" x1="356.4" y1="129.6" x2="332" y2="169.8"/>
<line fill="none" stroke="#0000FF" stroke-width="4.32" x1="332" y1="169.8" x2="129.6" y2="129.6"/>
<line fill="none" stroke="#0000FF" stroke-width="4.32" x1="339.2" y1="216.4" x2="301.2" y2="244.2"/>
<line fill="none" stroke="#0000FF" stroke-width="4.32" x1="894" y1="281.6" x2="1005.2" y2="303.7"/>
<line fill="none" stroke="#0000FF" stroke-width="4.32" x1="719.8" y1="246.9" x2="894" y2="281.6"/>
<line fill="none" stroke="#0000FF" stroke-width="4.32" x1="719.8" y1="246.9" x2="332" y2="169.8"/>
<line fill="none" stroke="#0000FF" stroke-width="4.32" x1="629.9" y1="463.9" x2="587.8" y2="587.8"/>
<line fill="none" stroke="#0000FF" stroke-width="4.32" x1="728.3" y1="377.6" x2="719.8" y2="246.9"/>
<line fill="none" stroke="#0000FF" stroke-width="4.32" x1="777.6" y1="562.6" x2="876.3" y2="496.6"/>
<line fill="none" stroke="#0000FF" stroke-width="4.32" x1="876.3" y1="496.6" x2="777.6" y2="398"/>
<line fill="none" stroke="#0000FF" stroke-width="4.32" x1="679" y1="1058.6" x2="777.6" y2="1157.2"/>
<line fill="none" stroke="#0000FF" stroke-width="4.32" x1="925.4" y1="1091.3" x2="967.4" y2="967.4"/>
<line fill="none" stroke="#0000FF" stroke-width="4.32" x1="1091.4" y1="925.3" x2="967.4" y2="967.4"/>
<line fill="none" stroke="#0000FF" stroke-width="4.32" x1="1177.7" y1="826.9" x2="1308.3" y2="835.5"/>
<line fill="none" stroke="#0000FF" stroke-width="4.32" x1="1273.6" y1="661.2" x2="1251.5" y2="550"/>
<line fill="none" stroke="#0000FF" stroke-width="4.32" x1="1308.3" y1="835.5" x2="1273.6" y2="661.2"/>
<line fill="none" stroke="#0000FF" stroke-width="4.32" x1="827" y1="1177.6" x2="835.5" y2="1308.3"/>
<line fill="none" stroke="#0000FF" stroke-width="4.32" x1="1058.6" y1="678.9" x2="1157.3" y2="777.6"/>
<line fill="none" stroke="#0000FF" stroke-width="4.32" x1="992.7" y1="777.6" x2="1058.6" y2="678.9"/>
<line opacity="0.5" fill="none" stroke="#0000FF" stroke-width="4.32" x1="398" y1="942.2" x2="363.9" y2="859.9"/>
<line opacity="0.5" fill="none" stroke="#0000FF" stroke-width="4.32" x1="129.6" y1="894" x2="281.7" y2="894"/>
<line opacity="0.5" fill="none" stroke="#0000FF" stroke-width="4.32" x1="613.1" y1="1157.2" x2="695.4" y2="1191.3"/>
<line opacity="0.5" fill="none" stroke="#0000FF" stroke-width="4.32" x1="661.3" y1="1425.6" x2="661.3" y2="1273.6"/>
<line opacity="0.5" fill="none" stroke="#0000FF" stroke-width="4.32" x1="894" y1="129.6" x2="894" y2="281.6"/>
<line opacity="0.5" fill="none" stroke="#0000FF" stroke-width="4.32" x1="942.2" y1="398" x2="859.9" y2="363.9"/>
<line opacity="0.5" fill="none" stroke="#0000FF" stroke-width="4.32" x1="1157.3" y1="613" x2="1191.3" y2="695.3"/>
<line opacity="0.5" fill="none" stroke="#0000FF" stroke-width="4.32" x1="1425.7" y1="661.2" x2="1273.6" y2="661.2"/>
<line fill="none" stroke="#0000FF" stroke-width="4.32" x1="835.5" y1="1308.3" x2="661.3" y2="1273.6"/>
<line fill="none" stroke="#0000FF" stroke-width="4.32" x1="835.5" y1="1308.3" x2="1425.7" y2="1425.6"/>
<line fill="none" stroke="#0000FF" stroke-width="4.32" x1="661.3" y1="1273.6" x2="550.1" y2="1251.5"/>
<line fill="none" stroke="#0000FF" stroke-width="4.32" x1="777.6" y1="992.6" x2="679" y2="1058.6"/>
<line fill="none" stroke="#0000FF" stroke-width="4.32" x1="777.6" y1="777.6" x2="587.8" y2="587.8"/>
<line fill="none" stroke="#0000FF" stroke-width="4.32" x1="777.6" y1="777.6" x2="967.4" y2="967.4"/>
<line fill="none" stroke="#FF0000" stroke-width="4.32" x1="1091.4" y1="925.3" x2="1425.7" y2="1425.6"/>
<line fill="none" stroke="#FF0000" stroke-width="4.32" x1="1177.7" y1="826.9" x2="1425.7" y2="1425.6"/>
<line fill="none" stroke="#0000FF" stroke-width="4.32" x1="496.7" y1="876.3" x2="679" y2="1058.6"/>
<line fill="none" stroke="#0000FF" stroke-width="4.32" x1="876.3" y1="496.6" x2="1058.6" y2="678.9"/>
<line fill="none" stroke="#0000FF" stroke-width="4.32" x1="1308.3" y1="835.5" x2="1425.7" y2="1425.6"/>
<line fill="none" stroke="#FFFF00" stroke-width="4.32" x1="1005.2" y1="303.7" x2="1251.5" y2="550"/>
<line fill="none" stroke="#FFFF00" stroke-width="4.32" x1="303.8" y1="1005.2" x2="550.1" y2="1251.5"/>
<line fill="none" stroke="#FFFF00" stroke-width="4.32" x1="562.6" y1="777.6" x2="777.6" y2="992.6"/>
<line fill="none" stroke="#FFFF00" stroke-width="4.32" x1="777.6" y1="562.6" x2="992.7" y2="777.6"/>
</svg>
