<?xml version="1.0" encoding="utf-8"?>
<!-- Generator: Adobe Illustrator 16.0.3, SVG Export Plug-In . SVG Version: 6.00 Build 0)  -->
<!DOCTYPE svg PUBLIC "-//W3C//DTD SVG 1.1//EN" "http://www.w3.org/Graphics/SVG/1.1/DTD/svg11.dtd">
<svg version="1.1" id="Layer_1" xmlns="http://www.w3.org/2000/svg" xmlns:xlink="http://www.w3.org/1999/xlink" x="0px" y="0px"
	 width="1566px" height="1174px" viewBox="0 0 1566 1174" enable-background="new 0 0 1566 1174" xml:space="preserve">
<path fill="none" stroke="#000000" stroke-linecap="round" stroke-miterlimit="10" d="M1008,1008H144V144h864V1008z"/>
<path fill="none" stroke="#FF0000" stroke-linecap="round" stroke-miterlimit="10" d="M666,486H486v180h180V486z M990,990H162V162
	h828V990z M954,198H198v756h756V198z M918,234H234v684h684V234z M846,306H306v540h540V306z M882,270H270v612h612V270z M810,342H342
	v468h468V342z M774,378H378v396h396V378z M738,414H414v324h324V414z M702,450H450v252h252V450z M1008,1008l-18-18 M972,972l-18-18
	 M936,936l-18-18 M900,900l-18-18 M864,864l-18-18 M828,828l-18-18 M792,792l-18-18 M756,756l-18-18 M720,720l-18-18 M486,486
	l-18-18 M450,450l-18-18 M414,414l-18-18 M378,378l-18-18 M342,342l-18-18 M306,306l-18-18 M270,270l-18-18 M234,234l-18-18
	 M198,198l-18-18 M162,162l-18-18 M1008,144l-18,18 M972,180l-18,18 M936,216l-18,18 M900,252l-18,18 M864,288l-18,18 M828,324
	l-18,18 M792,360l-18,18 M756,396l-18,18 M720,432l-18,18 M684,468l-18,18 M144,1008l18-18 M180,972l18-18 M216,936l18-18 M252,900
	l18-18 M288,864l18-18 M324,828l18-18 M360,792l18-18 M396,756l18-18 M432,720l18-18 M468,684l18-18 M666,666l18,18 M630,522H522
	v108h108V522z M594,558h-36v36h36V558z M648,504l-18,18 M612,540l-18,18 M648,648l-18-18 M594,594l18,18 M558,594l-18,18 M504,648
	l18-18 M504,504l18,18 M540,540l18,18"/>
<path fill="none" stroke="#0000FF" stroke-linecap="round" stroke-miterlimit="10" d="M972,972H180V180h792V972z M936,216H216v720
	h720V216z M900,252H252v648h648V252z M864,288H288v576h576V288z M828,324H324v504h504V324z M792,360H360v432h432V360z M756,396H396
	v360h360V396z M720,432H432v288h288V432z M684,468H468v216h216V468z M990,990l-18-18 M954,954l-18-18 M918,918l-18-18 M882,882
	l-18-18 M846,846l-18-18 M810,810l-18-18 M774,774l-18-18 M738,738l-18-18 M702,702l-18-18 M468,468l-18-18 M432,432l-18-18
	 M396,396l-18-18 M360,360l-18-18 M324,324l-18-18 M288,288l-18-18 M252,252l-18-18 M216,216l-18-18 M180,180l-18-18 M990,162
	l-18,18 M954,198l-18,18 M918,234l-18,18 M882,270l-18,18 M846,306l-18,18 M810,342l-18,18 M774,378l-18,18 M738,414l-18,18
	 M702,450l-18,18 M162,990l18-18 M198,954l18-18 M234,918l18-18 M270,882l18-18 M306,846l18-18 M342,810l18-18 M378,774l18-18
	 M414,738l18-18 M450,702l18-18 M648,504H504v144h144V504z M612,540h-72v72h72V540z M666,486l-18,18 M630,522l-18,18 M666,666
	l-18-18 M630,630l-18-18 M486,666l18-18 M522,630l18-18 M486,486l18,18 M522,522l18,18"/>
<line fill="none" stroke="#FF00FF" stroke-linecap="round" stroke-miterlimit="10" x1="558" y1="558" x2="594" y2="594"/>
<line fill="none" stroke="#FF00FF" stroke-linecap="round" stroke-miterlimit="10" x1="558" y1="594" x2="594" y2="558"/>
<line fill="none" stroke="#FF00FF" stroke-linecap="round" stroke-miterlimit="10" x1="162" y1="990" x2="144" y2="144"/>
<line fill="none" stroke="#FF00FF" stroke-linecap="round" stroke-miterlimit="10" x1="972" y1="972" x2="162" y2="990"/>
<line fill="none" stroke="#FF00FF" stroke-linecap="round" stroke-miterlimit="10" x1="198" y1="954" x2="180" y2="180"/>
<line fill="none" stroke="#FF00FF" stroke-linecap="round" stroke-miterlimit="10" x1="936" y1="936" x2="198" y2="954"/>
<line fill="none" stroke="#FF00FF" stroke-linecap="round" stroke-miterlimit="10" x1="234" y1="918" x2="216" y2="216"/>
<line fill="none" stroke="#FF00FF" stroke-linecap="round" stroke-miterlimit="10" x1="900" y1="900" x2="234" y2="918"/>
<line fill="none" stroke="#FF00FF" stroke-linecap="round" stroke-miterlimit="10" x1="270" y1="882" x2="252" y2="252"/>
<line fill="none" stroke="#FF00FF" stroke-linecap="round" stroke-miterlimit="10" x1="864" y1="864" x2="270" y2="882"/>
<line fill="none" stroke="#FF00FF" stroke-linecap="round" stroke-miterlimit="10" x1="306" y1="846" x2="288" y2="288"/>
<line fill="none" stroke="#FF00FF" stroke-linecap="round" stroke-miterlimit="10" x1="828" y1="828" x2="306" y2="846"/>
<line fill="none" stroke="#FF00FF" stroke-linecap="round" stroke-miterlimit="10" x1="342" y1="810" x2="324" y2="324"/>
<line fill="none" stroke="#FF00FF" stroke-linecap="round" stroke-miterlimit="10" x1="792" y1="792" x2="342" y2="810"/>
<line fill="none" stroke="#FF00FF" stroke-linecap="round" stroke-miterlimit="10" x1="378" y1="774" x2="360" y2="360"/>
<line fill="none" stroke="#FF00FF" stroke-linecap="round" stroke-miterlimit="10" x1="756" y1="756" x2="378" y2="774"/>
<line fill="none" stroke="#FF00FF" stroke-linecap="round" stroke-miterlimit="10" x1="414" y1="738" x2="396" y2="396"/>
<line fill="none" stroke="#FF00FF" stroke-linecap="round" stroke-miterlimit="10" x1="720" y1="720" x2="414" y2="738"/>
<line fill="none" stroke="#FF00FF" stroke-linecap="round" stroke-miterlimit="10" x1="450" y1="702" x2="432" y2="432"/>
<line fill="none" stroke="#FF00FF" stroke-linecap="round" stroke-miterlimit="10" x1="684" y1="684" x2="450" y2="702"/>
<line fill="none" stroke="#FF00FF" stroke-linecap="round" stroke-miterlimit="10" x1="486" y1="666" x2="468" y2="468"/>
<line fill="none" stroke="#FF00FF" stroke-linecap="round" stroke-miterlimit="10" x1="144" y1="144" x2="990" y2="162"/>
<line fill="none" stroke="#FF00FF" stroke-linecap="round" stroke-miterlimit="10" x1="162" y1="990" x2="180" y2="180"/>
<line fill="none" stroke="#FF00FF" stroke-linecap="round" stroke-miterlimit="10" x1="180" y1="180" x2="954" y2="198"/>
<line fill="none" stroke="#FF00FF" stroke-linecap="round" stroke-miterlimit="10" x1="198" y1="954" x2="216" y2="216"/>
<line fill="none" stroke="#FF00FF" stroke-linecap="round" stroke-miterlimit="10" x1="216" y1="216" x2="918" y2="234"/>
<line fill="none" stroke="#FF00FF" stroke-linecap="round" stroke-miterlimit="10" x1="234" y1="918" x2="252" y2="252"/>
<line fill="none" stroke="#FF00FF" stroke-linecap="round" stroke-miterlimit="10" x1="252" y1="252" x2="882" y2="270"/>
<line fill="none" stroke="#FF00FF" stroke-linecap="round" stroke-miterlimit="10" x1="270" y1="882" x2="288" y2="288"/>
<line fill="none" stroke="#FF00FF" stroke-linecap="round" stroke-miterlimit="10" x1="288" y1="288" x2="846" y2="306"/>
<line fill="none" stroke="#FF00FF" stroke-linecap="round" stroke-miterlimit="10" x1="306" y1="846" x2="324" y2="324"/>
<line fill="none" stroke="#FF00FF" stroke-linecap="round" stroke-miterlimit="10" x1="324" y1="324" x2="810" y2="342"/>
<line fill="none" stroke="#FF00FF" stroke-linecap="round" stroke-miterlimit="10" x1="342" y1="810" x2="360" y2="360"/>
<line fill="none" stroke="#FF00FF" stroke-linecap="round" stroke-miterlimit="10" x1="360" y1="360" x2="774" y2="378"/>
<line fill="none" stroke="#FF00FF" stroke-linecap="round" stroke-miterlimit="10" x1="378" y1="774" x2="396" y2="396"/>
<line fill="none" stroke="#FF00FF" stroke-linecap="round" stroke-miterlimit="10" x1="396" y1="396" x2="738" y2="414"/>
<line fill="none" stroke="#FF00FF" stroke-linecap="round" stroke-miterlimit="10" x1="414" y1="738" x2="432" y2="432"/>
<line fill="none" stroke="#FF00FF" stroke-linecap="round" stroke-miterlimit="10" x1="432" y1="432" x2="702" y2="450"/>
<line fill="none" stroke="#FF00FF" stroke-linecap="round" stroke-miterlimit="10" x1="450" y1="702" x2="468" y2="468"/>
<line fill="none" stroke="#FF00FF" stroke-linecap="round" stroke-miterlimit="10" x1="468" y1="468" x2="666" y2="486"/>
<line fill="none" stroke="#FF00FF" stroke-linecap="round" stroke-miterlimit="10" x1="990" y1="162" x2="1008" y2="1008"/>
<line fill="none" stroke="#FF00FF" stroke-linecap="round" stroke-miterlimit="10" x1="180" y1="180" x2="990" y2="162"/>
<line fill="none" stroke="#FF00FF" stroke-linecap="round" stroke-miterlimit="10" x1="954" y1="198" x2="972" y2="972"/>
<line fill="none" stroke="#FF00FF" stroke-linecap="round" stroke-miterlimit="10" x1="216" y1="216" x2="954" y2="198"/>
<line fill="none" stroke="#FF00FF" stroke-linecap="round" stroke-miterlimit="10" x1="918" y1="234" x2="936" y2="936"/>
<line fill="none" stroke="#FF00FF" stroke-linecap="round" stroke-miterlimit="10" x1="252" y1="252" x2="918" y2="234"/>
<line fill="none" stroke="#FF00FF" stroke-linecap="round" stroke-miterlimit="10" x1="882" y1="270" x2="900" y2="900"/>
<line fill="none" stroke="#FF00FF" stroke-linecap="round" stroke-miterlimit="10" x1="288" y1="288" x2="882" y2="270"/>
<line fill="none" stroke="#FF00FF" stroke-linecap="round" stroke-miterlimit="10" x1="846" y1="306" x2="864" y2="864"/>
<line fill="none" stroke="#FF00FF" stroke-linecap="round" stroke-miterlimit="10" x1="324" y1="324" x2="846" y2="306"/>
<line fill="none" stroke="#FF00FF" stroke-linecap="round" stroke-miterlimit="10" x1="810" y1="342" x2="828" y2="828"/>
<line fill="none" stroke="#FF00FF" stroke-linecap="round" stroke-miterlimit="10" x1="360" y1="360" x2="810" y2="342"/>
<line fill="none" stroke="#FF00FF" stroke-linecap="round" stroke-miterlimit="10" x1="774" y1="378" x2="792" y2="792"/>
<line fill="none" stroke="#FF00FF" stroke-linecap="round" stroke-miterlimit="10" x1="396" y1="396" x2="774" y2="378"/>
<line fill="none" stroke="#FF00FF" stroke-linecap="round" stroke-miterlimit="10" x1="738" y1="414" x2="756" y2="756"/>
<line fill="none" stroke="#FF00FF" stroke-linecap="round" stroke-miterlimit="10" x1="432" y1="432" x2="738" y2="414"/>
<line fill="none" stroke="#FF00FF" stroke-linecap="round" stroke-miterlimit="10" x1="702" y1="450" x2="720" y2="720"/>
<line fill="none" stroke="#FF00FF" stroke-linecap="round" stroke-miterlimit="10" x1="468" y1="468" x2="702" y2="450"/>
<line fill="none" stroke="#FF00FF" stroke-linecap="round" stroke-miterlimit="10" x1="666" y1="486" x2="684" y2="684"/>
<line fill="none" stroke="#FF00FF" stroke-linecap="round" stroke-miterlimit="10" x1="1008" y1="1008" x2="162" y2="990"/>
<line fill="none" stroke="#FF00FF" stroke-linecap="round" stroke-miterlimit="10" x1="990" y1="162" x2="972" y2="972"/>
<line fill="none" stroke="#FF00FF" stroke-linecap="round" stroke-miterlimit="10" x1="972" y1="972" x2="198" y2="954"/>
<line fill="none" stroke="#FF00FF" stroke-linecap="round" stroke-miterlimit="10" x1="954" y1="198" x2="936" y2="936"/>
<line fill="none" stroke="#FF00FF" stroke-linecap="round" stroke-miterlimit="10" x1="936" y1="936" x2="234" y2="918"/>
<line fill="none" stroke="#FF00FF" stroke-linecap="round" stroke-miterlimit="10" x1="918" y1="234" x2="900" y2="900"/>
<line fill="none" stroke="#FF00FF" stroke-linecap="round" stroke-miterlimit="10" x1="900" y1="900" x2="270" y2="882"/>
<line fill="none" stroke="#FF00FF" stroke-linecap="round" stroke-miterlimit="10" x1="882" y1="270" x2="864" y2="864"/>
<line fill="none" stroke="#FF00FF" stroke-linecap="round" stroke-miterlimit="10" x1="864" y1="864" x2="306" y2="846"/>
<line fill="none" stroke="#FF00FF" stroke-linecap="round" stroke-miterlimit="10" x1="846" y1="306" x2="828" y2="828"/>
<line fill="none" stroke="#FF00FF" stroke-linecap="round" stroke-miterlimit="10" x1="828" y1="828" x2="342" y2="810"/>
<line fill="none" stroke="#FF00FF" stroke-linecap="round" stroke-miterlimit="10" x1="810" y1="342" x2="792" y2="792"/>
<line fill="none" stroke="#FF00FF" stroke-linecap="round" stroke-miterlimit="10" x1="792" y1="792" x2="378" y2="774"/>
<line fill="none" stroke="#FF00FF" stroke-linecap="round" stroke-miterlimit="10" x1="774" y1="378" x2="756" y2="756"/>
<line fill="none" stroke="#FF00FF" stroke-linecap="round" stroke-miterlimit="10" x1="756" y1="756" x2="414" y2="738"/>
<line fill="none" stroke="#FF00FF" stroke-linecap="round" stroke-miterlimit="10" x1="738" y1="414" x2="720" y2="720"/>
<line fill="none" stroke="#FF00FF" stroke-linecap="round" stroke-miterlimit="10" x1="720" y1="720" x2="450" y2="702"/>
<line fill="none" stroke="#FF00FF" stroke-linecap="round" stroke-miterlimit="10" x1="702" y1="450" x2="684" y2="684"/>
<line fill="none" stroke="#FF00FF" stroke-linecap="round" stroke-miterlimit="10" x1="684" y1="684" x2="486" y2="666"/>
<line fill="none" stroke="#FF00FF" stroke-linecap="round" stroke-miterlimit="10" x1="666" y1="486" x2="504" y2="504"/>
<line fill="none" stroke="#FF00FF" stroke-linecap="round" stroke-miterlimit="10" x1="504" y1="504" x2="486" y2="666"/>
<line fill="none" stroke="#FF00FF" stroke-linecap="round" stroke-miterlimit="10" x1="486" y1="666" x2="648" y2="648"/>
<line fill="none" stroke="#FF00FF" stroke-linecap="round" stroke-miterlimit="10" x1="648" y1="648" x2="666" y2="486"/>
<line fill="none" stroke="#FF00FF" stroke-linecap="round" stroke-miterlimit="10" x1="504" y1="504" x2="630" y2="522"/>
<line fill="none" stroke="#FF00FF" stroke-linecap="round" stroke-miterlimit="10" x1="630" y1="522" x2="648" y2="648"/>
<line fill="none" stroke="#FF00FF" stroke-linecap="round" stroke-miterlimit="10" x1="648" y1="648" x2="522" y2="630"/>
<line fill="none" stroke="#FF00FF" stroke-linecap="round" stroke-miterlimit="10" x1="522" y1="630" x2="504" y2="504"/>
<line fill="none" stroke="#FF00FF" stroke-linecap="round" stroke-miterlimit="10" x1="522" y1="630" x2="540" y2="540"/>
<line fill="none" stroke="#FF00FF" stroke-linecap="round" stroke-miterlimit="10" x1="540" y1="540" x2="630" y2="522"/>
<line fill="none" stroke="#FF00FF" stroke-linecap="round" stroke-miterlimit="10" x1="629.168" y1="524.834" x2="612" y2="612"/>
<line fill="none" stroke="#FF00FF" stroke-linecap="round" stroke-miterlimit="10" x1="612" y1="612" x2="522" y2="630"/>
<line fill="none" stroke="#FF00FF" stroke-linecap="round" stroke-miterlimit="10" x1="540" y1="540" x2="558" y2="594"/>
<line fill="none" stroke="#FF00FF" stroke-linecap="round" stroke-miterlimit="10" x1="558" y1="594" x2="612" y2="612"/>
<line fill="none" stroke="#FF00FF" stroke-linecap="round" stroke-miterlimit="10" x1="612" y1="612" x2="594" y2="558"/>
<line fill="none" stroke="#FF00FF" stroke-linecap="round" stroke-miterlimit="10" x1="594" y1="558" x2="540" y2="540"/>
</svg>
