<?xml version="1.0" encoding="utf-8"?>
<!-- Generator: Adobe Illustrator 16.0.3, SVG Export Plug-In . SVG Version: 6.00 Build 0)  -->
<!DOCTYPE svg PUBLIC "-//W3C//DTD SVG 1.1//EN" "http://www.w3.org/Graphics/SVG/1.1/DTD/svg11.dtd">
<svg version="1.1" id="Layer_1" xmlns="http://www.w3.org/2000/svg" xmlns:xlink="http://www.w3.org/1999/xlink" x="0px" y="0px"
	 width="398px" height="396px" viewBox="0 0 398 396" enable-background="new 0 0 398 396" xml:space="preserve">
<polygon fill="none" stroke="#000000" stroke-miterlimit="3.864" points="366.205,22.795 17.789,22.792 17.794,371.206 
	366.211,371.209 "/>
<path fill="none" stroke="#0000FF" stroke-width="0.7" stroke-linecap="round" stroke-linejoin="round" stroke-miterlimit="3.864" stroke-dasharray="2,2" d="
	M192.085,371.119L17.838,324.438 M17.838,324.438l80.722,46.683"/>
<line fill="none" stroke="#FF0000" stroke-width="0.7" stroke-linecap="round" stroke-linejoin="round" stroke-miterlimit="3.864" x1="17.838" y1="324.438" x2="91.558" y2="196.911"/>
<polyline fill="none" stroke="#FF0000" stroke-width="0.7" stroke-linecap="round" stroke-linejoin="round" stroke-miterlimit="3.864" points="
	17.838,324.438 111.086,324.507 192.046,371.12 "/>
<path fill="none" stroke="#0000FF" stroke-width="0.7" stroke-linecap="round" stroke-linejoin="round" stroke-miterlimit="3.864" stroke-dasharray="2,2" d="
	M192.041,197.04l-63.938,17.128 M72.787,292.518l87.353,23.397 M192.065,197.002l-31.873,118.883"/>
<line fill="none" stroke="#FF0000" stroke-width="0.7" stroke-linecap="round" stroke-linejoin="round" stroke-miterlimit="3.864" x1="192.05" y1="197.034" x2="128.227" y2="233.872"/>
<line fill="none" stroke="#0000FF" stroke-width="0.7" stroke-linecap="round" stroke-linejoin="round" stroke-miterlimit="3.864" stroke-dasharray="2,2" x1="96.87" y1="205.774" x2="128.186" y2="214.168"/>
<line fill="none" stroke="#FF0000" stroke-width="0.7" stroke-linecap="round" stroke-linejoin="round" stroke-miterlimit="3.864" x1="105.132" y1="220.412" x2="128.061" y2="233.872"/>
<line fill="none" stroke="#0000FF" stroke-width="0.7" stroke-linecap="round" stroke-linejoin="round" stroke-miterlimit="3.864" stroke-dasharray="2,2" x1="72.787" y1="292.518" x2="96.87" y2="205.774"/>
<line fill="none" stroke="#FF0000" stroke-width="0.7" stroke-linecap="round" stroke-linejoin="round" stroke-miterlimit="3.864" x1="192.063" y1="197.014" x2="141.761" y2="284.108"/>
<line fill="none" stroke="#0000FF" stroke-width="0.7" stroke-linecap="round" stroke-linejoin="round" stroke-miterlimit="3.864" stroke-dasharray="2,2" x1="18.007" y1="260.891" x2="80.777" y2="196.987"/>
<line fill="none" stroke="#FF0000" stroke-width="0.7" stroke-linecap="round" stroke-linejoin="round" stroke-miterlimit="3.864" x1="38.86" y1="210.231" x2="60.436" y2="197.011"/>
<line fill="none" stroke="#FF0000" stroke-width="0.7" stroke-linecap="round" stroke-linejoin="round" stroke-miterlimit="3.864" x1="38.88" y1="210.231" x2="35.577" y2="197"/>
<line fill="none" stroke="#FF0000" stroke-width="0.7" stroke-linecap="round" stroke-linejoin="round" stroke-miterlimit="3.864" x1="105.132" y1="220.412" x2="103.986" y2="273.989"/>
<line fill="none" stroke="#FF0000" stroke-width="0.7" stroke-linecap="round" stroke-linejoin="round" stroke-miterlimit="3.864" x1="104.007" y1="273.989" x2="141.761" y2="284.107"/>
<line fill="none" stroke="#0000FF" stroke-width="0.7" stroke-linecap="round" stroke-linejoin="round" stroke-miterlimit="3.864" stroke-dasharray="2,2" x1="123.209" y1="278.963" x2="116.479" y2="304.069"/>
<line fill="none" stroke="#FF0000" stroke-width="0.7" stroke-linecap="round" stroke-linejoin="round" stroke-miterlimit="3.864" x1="116.519" y1="304.069" x2="110.976" y2="324.711"/>
<line fill="none" stroke="#0000FF" stroke-width="0.7" stroke-linecap="round" stroke-linejoin="round" stroke-miterlimit="3.864" stroke-dasharray="2,2" x1="111.017" y1="324.711" x2="104.838" y2="347.695"/>
<line fill="none" stroke="#FF0000" stroke-width="0.7" stroke-linecap="round" stroke-linejoin="round" stroke-miterlimit="3.864" x1="104.858" y1="347.695" x2="98.56" y2="371.121"/>
<line fill="none" stroke="#FF0000" stroke-width="0.7" stroke-linecap="round" stroke-linejoin="round" stroke-miterlimit="3.864" x1="17.839" y1="324.438" x2="45.252" y2="371.185"/>
<line fill="none" stroke="#FF0000" stroke-width="0.7" stroke-linecap="round" stroke-linejoin="round" stroke-miterlimit="3.864" x1="128.249" y1="233.871" x2="133.693" y2="254.155"/>
<line fill="none" stroke="#0000FF" stroke-width="0.7" stroke-linecap="round" stroke-linejoin="round" stroke-miterlimit="3.864" stroke-dasharray="2,2" x1="133.712" y1="254.155" x2="141.761" y2="284.108"/>
<line fill="none" stroke="#FF0000" stroke-width="0.7" stroke-linecap="round" stroke-linejoin="round" stroke-miterlimit="3.864" x1="128.208" y1="233.871" x2="123.323" y2="253.756"/>
<path fill="none" stroke="#0000FF" stroke-width="0.7" stroke-linecap="round" stroke-linejoin="round" stroke-miterlimit="3.864" stroke-dasharray="2,2" d="
	M123.322,253.756l10.37,0.399 M123.322,253.756l-19.336,20.234"/>
<line fill="none" stroke="#FF0000" stroke-width="0.7" stroke-linecap="round" stroke-linejoin="round" stroke-miterlimit="3.864" x1="103.756" y1="274.523" x2="72.96" y2="292.407"/>
<line fill="none" stroke="#0000FF" stroke-width="0.7" stroke-linecap="round" stroke-linejoin="round" stroke-miterlimit="3.864" stroke-dasharray="2,2" x1="72.98" y1="292.407" x2="17.838" y2="324.438"/>
<line fill="none" stroke="#FF0000" stroke-width="0.7" stroke-linecap="round" stroke-linejoin="round" stroke-miterlimit="3.864" x1="141.718" y1="283.787" x2="160.017" y2="315.563"/>
<line fill="none" stroke="#0000FF" stroke-width="0.7" stroke-linecap="round" stroke-linejoin="round" stroke-miterlimit="3.864" stroke-dasharray="2,2" x1="160.038" y1="315.563" x2="192.047" y2="371.119"/>
<path fill="none" stroke="#0000FF" stroke-width="0.7" stroke-linecap="round" stroke-linejoin="round" stroke-miterlimit="3.864" stroke-dasharray="2,2" d="
	M128.186,233.754l-0.032-20.003 M128.181,254.078l-0.036-20.324"/>
<line fill="none" stroke="#FF0000" stroke-width="0.7" stroke-linecap="round" stroke-linejoin="round" stroke-miterlimit="3.864" x1="128.174" y1="213.751" x2="128.144" y2="196.915"/>
<line fill="none" stroke="#0000FF" stroke-width="0.7" stroke-linecap="round" stroke-linejoin="round" stroke-miterlimit="3.864" stroke-dasharray="2,2" x1="192.056" y1="196.991" x2="134.207" y2="254.316"/>
<line fill="none" stroke="#0000FF" stroke-width="0.7" stroke-linecap="round" stroke-linejoin="round" stroke-miterlimit="3.864" stroke-dasharray="2,2" x1="91.578" y1="196.911" x2="96.683" y2="205.795"/>
<line fill="none" stroke="#FF0000" stroke-width="0.7" stroke-linecap="round" stroke-linejoin="round" stroke-miterlimit="3.864" x1="96.724" y1="205.795" x2="105.132" y2="220.412"/>
<line fill="none" stroke="#0000FF" stroke-width="0.7" stroke-linecap="round" stroke-linejoin="round" stroke-miterlimit="3.864" stroke-dasharray="2,2" x1="105.172" y1="220.412" x2="124.124" y2="253.343"/>
<line fill="none" stroke="#FF0000" stroke-width="0.7" stroke-linecap="round" stroke-linejoin="round" stroke-miterlimit="3.864" x1="128.161" y1="254.078" x2="123.169" y2="278.963"/>
<line fill="none" stroke="#FF0000" stroke-width="0.7" stroke-linecap="round" stroke-linejoin="round" stroke-miterlimit="3.864" x1="192.064" y1="196.991" x2="128.165" y2="196.99"/>
<path fill="none" stroke="#0000FF" stroke-width="0.7" stroke-linecap="round" stroke-linejoin="round" stroke-miterlimit="3.864" stroke-dasharray="2,2" d="
	M91.75,196.989H81.059 M128.206,196.99l-36.496-0.001"/>
<line fill="none" stroke="#FF0000" stroke-width="0.7" stroke-linecap="round" stroke-linejoin="round" stroke-miterlimit="3.864" x1="81.1" y1="196.989" x2="59.768" y2="196.989"/>
<path fill="none" stroke="#0000FF" stroke-width="0.7" stroke-linecap="round" stroke-linejoin="round" stroke-miterlimit="3.864" stroke-dasharray="2,2" d="
	M43.98,196.988h-8.731 M59.829,196.989l-15.869-0.001 M35.27,196.988H17.838"/>
<line fill="none" stroke="#FF0000" stroke-width="0.7" stroke-linecap="round" stroke-linejoin="round" stroke-miterlimit="3.864" x1="18.047" y1="260.891" x2="39.09" y2="210"/>
<line fill="none" stroke="#0000FF" stroke-width="0.7" stroke-linecap="round" stroke-linejoin="round" stroke-miterlimit="3.864" stroke-dasharray="2,2" x1="39.11" y1="210" x2="44.499" y2="196.932"/>
<path fill="none" stroke="#0000FF" stroke-width="0.7" stroke-linecap="round" stroke-linejoin="round" stroke-miterlimit="3.864" stroke-dasharray="2,2" d="
	M192.085,22.856L17.838,69.538 M17.838,69.538L98.56,22.855"/>
<line fill="none" stroke="#FF0000" stroke-width="0.7" stroke-linecap="round" stroke-linejoin="round" stroke-miterlimit="3.864" x1="17.838" y1="69.538" x2="91.558" y2="197.065"/>
<polyline fill="none" stroke="#FF0000" stroke-width="0.7" stroke-linecap="round" stroke-linejoin="round" stroke-miterlimit="3.864" points="
	17.838,69.538 111.086,69.469 192.046,22.857 "/>
<path fill="none" stroke="#0000FF" stroke-width="0.7" stroke-linecap="round" stroke-linejoin="round" stroke-miterlimit="3.864" stroke-dasharray="2,2" d="
	M192.041,196.935l-63.938-17.127 M72.787,101.458L160.14,78.06 M192.065,196.973L160.193,78.091"/>
<line fill="none" stroke="#FF0000" stroke-width="0.7" stroke-linecap="round" stroke-linejoin="round" stroke-miterlimit="3.864" x1="192.05" y1="196.942" x2="128.227" y2="160.105"/>
<line fill="none" stroke="#0000FF" stroke-width="0.7" stroke-linecap="round" stroke-linejoin="round" stroke-miterlimit="3.864" stroke-dasharray="2,2" x1="96.87" y1="188.202" x2="128.186" y2="179.808"/>
<line fill="none" stroke="#FF0000" stroke-width="0.7" stroke-linecap="round" stroke-linejoin="round" stroke-miterlimit="3.864" x1="105.132" y1="173.564" x2="128.061" y2="160.104"/>
<line fill="none" stroke="#0000FF" stroke-width="0.7" stroke-linecap="round" stroke-linejoin="round" stroke-miterlimit="3.864" stroke-dasharray="2,2" x1="72.787" y1="101.458" x2="96.87" y2="188.202"/>
<line fill="none" stroke="#FF0000" stroke-width="0.7" stroke-linecap="round" stroke-linejoin="round" stroke-miterlimit="3.864" x1="192.063" y1="196.962" x2="141.761" y2="109.868"/>
<line fill="none" stroke="#0000FF" stroke-width="0.7" stroke-linecap="round" stroke-linejoin="round" stroke-miterlimit="3.864" stroke-dasharray="2,2" x1="18.007" y1="133.085" x2="80.777" y2="196.989"/>
<line fill="none" stroke="#FF0000" stroke-width="0.7" stroke-linecap="round" stroke-linejoin="round" stroke-miterlimit="3.864" x1="38.86" y1="183.744" x2="60.436" y2="196.964"/>
<line fill="none" stroke="#0000FF" stroke-width="0.7" stroke-linecap="round" stroke-linejoin="round" stroke-miterlimit="3.864" stroke-dasharray="2,2" x1="38.88" y1="183.744" x2="35.577" y2="196.976"/>
<line fill="none" stroke="#FF0000" stroke-width="0.7" stroke-linecap="round" stroke-linejoin="round" stroke-miterlimit="3.864" x1="105.132" y1="173.564" x2="103.986" y2="119.986"/>
<line fill="none" stroke="#FF0000" stroke-width="0.7" stroke-linecap="round" stroke-linejoin="round" stroke-miterlimit="3.864" x1="104.007" y1="119.986" x2="141.761" y2="109.868"/>
<line fill="none" stroke="#0000FF" stroke-width="0.7" stroke-linecap="round" stroke-linejoin="round" stroke-miterlimit="3.864" stroke-dasharray="2,2" x1="123.209" y1="115.013" x2="116.479" y2="89.906"/>
<line fill="none" stroke="#FF0000" stroke-width="0.7" stroke-linecap="round" stroke-linejoin="round" stroke-miterlimit="3.864" x1="116.519" y1="89.906" x2="110.976" y2="69.264"/>
<line fill="none" stroke="#0000FF" stroke-width="0.7" stroke-linecap="round" stroke-linejoin="round" stroke-miterlimit="3.864" stroke-dasharray="2,2" x1="111.017" y1="69.264" x2="104.838" y2="46.281"/>
<line fill="none" stroke="#FF0000" stroke-width="0.7" stroke-linecap="round" stroke-linejoin="round" stroke-miterlimit="3.864" x1="104.858" y1="46.281" x2="98.56" y2="22.855"/>
<line fill="none" stroke="#FF0000" stroke-width="0.7" stroke-linecap="round" stroke-linejoin="round" stroke-miterlimit="3.864" x1="17.839" y1="69.538" x2="45.252" y2="22.791"/>
<line fill="none" stroke="#FF0000" stroke-width="0.7" stroke-linecap="round" stroke-linejoin="round" stroke-miterlimit="3.864" x1="128.249" y1="160.105" x2="133.693" y2="139.821"/>
<line fill="none" stroke="#0000FF" stroke-width="0.7" stroke-linecap="round" stroke-linejoin="round" stroke-miterlimit="3.864" stroke-dasharray="2,2" x1="133.712" y1="139.821" x2="141.761" y2="109.868"/>
<line fill="none" stroke="#FF0000" stroke-width="0.7" stroke-linecap="round" stroke-linejoin="round" stroke-miterlimit="3.864" x1="128.208" y1="160.105" x2="123.323" y2="140.22"/>
<path fill="none" stroke="#0000FF" stroke-width="0.7" stroke-linecap="round" stroke-linejoin="round" stroke-miterlimit="3.864" stroke-dasharray="2,2" d="
	M123.322,140.219l10.37-0.398 M123.322,140.219l-19.336-20.233"/>
<line fill="none" stroke="#FF0000" stroke-width="0.7" stroke-linecap="round" stroke-linejoin="round" stroke-miterlimit="3.864" x1="103.756" y1="119.453" x2="72.96" y2="101.569"/>
<line fill="none" stroke="#0000FF" stroke-width="0.7" stroke-linecap="round" stroke-linejoin="round" stroke-miterlimit="3.864" stroke-dasharray="2,2" x1="72.98" y1="101.569" x2="17.838" y2="69.538"/>
<line fill="none" stroke="#FF0000" stroke-width="0.7" stroke-linecap="round" stroke-linejoin="round" stroke-miterlimit="3.864" x1="141.718" y1="110.189" x2="160.017" y2="78.413"/>
<line fill="none" stroke="#0000FF" stroke-width="0.7" stroke-linecap="round" stroke-linejoin="round" stroke-miterlimit="3.864" stroke-dasharray="2,2" x1="160.038" y1="78.412" x2="192.047" y2="22.856"/>
<path fill="none" stroke="#0000FF" stroke-width="0.7" stroke-linecap="round" stroke-linejoin="round" stroke-miterlimit="3.864" stroke-dasharray="2,2" d="
	M128.186,160.221l-0.032,20.004 M128.181,139.898l-0.036,20.323"/>
<line fill="none" stroke="#FF0000" stroke-width="0.7" stroke-linecap="round" stroke-linejoin="round" stroke-miterlimit="3.864" x1="128.174" y1="180.225" x2="128.144" y2="197.061"/>
<line fill="none" stroke="#0000FF" stroke-width="0.7" stroke-linecap="round" stroke-linejoin="round" stroke-miterlimit="3.864" stroke-dasharray="2,2" x1="192.056" y1="196.985" x2="134.207" y2="139.66"/>
<line fill="none" stroke="#0000FF" stroke-width="0.7" stroke-linecap="round" stroke-linejoin="round" stroke-miterlimit="3.864" stroke-dasharray="2,2" x1="91.578" y1="197.065" x2="96.683" y2="188.181"/>
<line fill="none" stroke="#FF0000" stroke-width="0.7" stroke-linecap="round" stroke-linejoin="round" stroke-miterlimit="3.864" x1="96.724" y1="188.181" x2="105.132" y2="173.564"/>
<line fill="none" stroke="#0000FF" stroke-width="0.7" stroke-linecap="round" stroke-linejoin="round" stroke-miterlimit="3.864" stroke-dasharray="2,2" x1="105.172" y1="173.564" x2="124.124" y2="140.632"/>
<line fill="none" stroke="#FF0000" stroke-width="0.7" stroke-linecap="round" stroke-linejoin="round" stroke-miterlimit="3.864" x1="128.161" y1="139.898" x2="123.169" y2="115.013"/>
<line fill="none" stroke="#FF0000" stroke-width="0.7" stroke-linecap="round" stroke-linejoin="round" stroke-miterlimit="3.864" x1="18.047" y1="133.085" x2="39.09" y2="183.976"/>
<line fill="none" stroke="#FF0000" stroke-width="0.7" stroke-linecap="round" stroke-linejoin="round" stroke-miterlimit="3.864" x1="39.11" y1="183.976" x2="44.499" y2="197.045"/>
<path fill="none" stroke="#0000FF" stroke-width="0.7" stroke-linecap="round" stroke-linejoin="round" stroke-miterlimit="3.864" stroke-dasharray="2,2" d="
	M191.915,371.119l174.247-46.681 M366.162,324.438l-80.722,46.683"/>
<line fill="none" stroke="#FF0000" stroke-width="0.7" stroke-linecap="round" stroke-linejoin="round" stroke-miterlimit="3.864" x1="366.162" y1="324.438" x2="292.443" y2="196.911"/>
<polyline fill="none" stroke="#FF0000" stroke-width="0.7" stroke-linecap="round" stroke-linejoin="round" stroke-miterlimit="3.864" points="
	366.162,324.438 272.915,324.507 191.954,371.12 "/>
<path fill="none" stroke="#0000FF" stroke-width="0.7" stroke-linecap="round" stroke-linejoin="round" stroke-miterlimit="3.864" stroke-dasharray="2,2" d="
	M191.959,197.04l63.938,17.128 M311.213,292.518l-87.353,23.397 M191.935,197.002l31.873,118.883"/>
<line fill="none" stroke="#FF0000" stroke-width="0.7" stroke-linecap="round" stroke-linejoin="round" stroke-miterlimit="3.864" x1="191.95" y1="197.034" x2="255.772" y2="233.872"/>
<line fill="none" stroke="#0000FF" stroke-width="0.7" stroke-linecap="round" stroke-linejoin="round" stroke-miterlimit="3.864" stroke-dasharray="2,2" x1="287.13" y1="205.774" x2="255.814" y2="214.168"/>
<line fill="none" stroke="#FF0000" stroke-width="0.7" stroke-linecap="round" stroke-linejoin="round" stroke-miterlimit="3.864" x1="278.868" y1="220.412" x2="255.939" y2="233.872"/>
<line fill="none" stroke="#0000FF" stroke-width="0.7" stroke-linecap="round" stroke-linejoin="round" stroke-miterlimit="3.864" stroke-dasharray="2,2" x1="311.213" y1="292.518" x2="287.13" y2="205.774"/>
<line fill="none" stroke="#FF0000" stroke-width="0.7" stroke-linecap="round" stroke-linejoin="round" stroke-miterlimit="3.864" x1="191.937" y1="197.014" x2="242.239" y2="284.108"/>
<line fill="none" stroke="#0000FF" stroke-width="0.7" stroke-linecap="round" stroke-linejoin="round" stroke-miterlimit="3.864" stroke-dasharray="2,2" x1="365.993" y1="260.891" x2="303.223" y2="196.987"/>
<line fill="none" stroke="#FF0000" stroke-width="0.7" stroke-linecap="round" stroke-linejoin="round" stroke-miterlimit="3.864" x1="345.14" y1="210.231" x2="323.564" y2="197.011"/>
<line fill="none" stroke="#FF0000" stroke-width="0.7" stroke-linecap="round" stroke-linejoin="round" stroke-miterlimit="3.864" x1="345.12" y1="210.231" x2="348.423" y2="197"/>
<line fill="none" stroke="#FF0000" stroke-width="0.7" stroke-linecap="round" stroke-linejoin="round" stroke-miterlimit="3.864" x1="278.868" y1="220.412" x2="280.013" y2="273.989"/>
<line fill="none" stroke="#FF0000" stroke-width="0.7" stroke-linecap="round" stroke-linejoin="round" stroke-miterlimit="3.864" x1="279.993" y1="273.989" x2="242.239" y2="284.107"/>
<line fill="none" stroke="#0000FF" stroke-width="0.7" stroke-linecap="round" stroke-linejoin="round" stroke-miterlimit="3.864" stroke-dasharray="2,2" x1="260.791" y1="278.963" x2="267.521" y2="304.069"/>
<line fill="none" stroke="#FF0000" stroke-width="0.7" stroke-linecap="round" stroke-linejoin="round" stroke-miterlimit="3.864" x1="267.481" y1="304.069" x2="273.024" y2="324.711"/>
<line fill="none" stroke="#0000FF" stroke-width="0.7" stroke-linecap="round" stroke-linejoin="round" stroke-miterlimit="3.864" stroke-dasharray="2,2" x1="272.983" y1="324.711" x2="279.162" y2="347.695"/>
<line fill="none" stroke="#FF0000" stroke-width="0.7" stroke-linecap="round" stroke-linejoin="round" stroke-miterlimit="3.864" x1="279.142" y1="347.695" x2="285.44" y2="371.121"/>
<line fill="none" stroke="#FF0000" stroke-width="0.7" stroke-linecap="round" stroke-linejoin="round" stroke-miterlimit="3.864" x1="366.161" y1="324.438" x2="338.748" y2="371.185"/>
<line fill="none" stroke="#FF0000" stroke-width="0.7" stroke-linecap="round" stroke-linejoin="round" stroke-miterlimit="3.864" x1="255.751" y1="233.871" x2="250.307" y2="254.155"/>
<line fill="none" stroke="#0000FF" stroke-width="0.7" stroke-linecap="round" stroke-linejoin="round" stroke-miterlimit="3.864" stroke-dasharray="2,2" x1="250.288" y1="254.155" x2="242.239" y2="284.108"/>
<line fill="none" stroke="#FF0000" stroke-width="0.7" stroke-linecap="round" stroke-linejoin="round" stroke-miterlimit="3.864" x1="255.792" y1="233.871" x2="260.677" y2="253.756"/>
<path fill="none" stroke="#0000FF" stroke-width="0.7" stroke-linecap="round" stroke-linejoin="round" stroke-miterlimit="3.864" stroke-dasharray="2,2" d="
	M260.678,253.756l-10.37,0.399 M260.678,253.756l19.336,20.234"/>
<line fill="none" stroke="#FF0000" stroke-width="0.7" stroke-linecap="round" stroke-linejoin="round" stroke-miterlimit="3.864" x1="280.243" y1="274.523" x2="311.039" y2="292.407"/>
<line fill="none" stroke="#0000FF" stroke-width="0.7" stroke-linecap="round" stroke-linejoin="round" stroke-miterlimit="3.864" stroke-dasharray="2,2" x1="311.019" y1="292.407" x2="366.162" y2="324.438"/>
<line fill="none" stroke="#FF0000" stroke-width="0.7" stroke-linecap="round" stroke-linejoin="round" stroke-miterlimit="3.864" x1="242.282" y1="283.787" x2="223.983" y2="315.563"/>
<line fill="none" stroke="#0000FF" stroke-width="0.7" stroke-linecap="round" stroke-linejoin="round" stroke-miterlimit="3.864" stroke-dasharray="2,2" x1="223.962" y1="315.563" x2="191.953" y2="371.119"/>
<path fill="none" stroke="#0000FF" stroke-width="0.7" stroke-linecap="round" stroke-linejoin="round" stroke-miterlimit="3.864" stroke-dasharray="2,2" d="
	M255.815,233.754l0.03-20.003 M255.819,254.078l0.036-20.324"/>
<line fill="none" stroke="#FF0000" stroke-width="0.7" stroke-linecap="round" stroke-linejoin="round" stroke-miterlimit="3.864" x1="255.826" y1="213.751" x2="255.856" y2="196.915"/>
<line fill="none" stroke="#0000FF" stroke-width="0.7" stroke-linecap="round" stroke-linejoin="round" stroke-miterlimit="3.864" stroke-dasharray="2,2" x1="191.944" y1="196.991" x2="249.793" y2="254.316"/>
<line fill="none" stroke="#0000FF" stroke-width="0.7" stroke-linecap="round" stroke-linejoin="round" stroke-miterlimit="3.864" stroke-dasharray="2,2" x1="292.422" y1="196.911" x2="287.317" y2="205.795"/>
<line fill="none" stroke="#FF0000" stroke-width="0.7" stroke-linecap="round" stroke-linejoin="round" stroke-miterlimit="3.864" x1="287.276" y1="205.795" x2="278.868" y2="220.412"/>
<line fill="none" stroke="#0000FF" stroke-width="0.7" stroke-linecap="round" stroke-linejoin="round" stroke-miterlimit="3.864" stroke-dasharray="2,2" x1="278.828" y1="220.412" x2="259.876" y2="253.343"/>
<line fill="none" stroke="#FF0000" stroke-width="0.7" stroke-linecap="round" stroke-linejoin="round" stroke-miterlimit="3.864" x1="255.839" y1="254.078" x2="260.831" y2="278.963"/>
<line fill="none" stroke="#FF0000" stroke-width="0.7" stroke-linecap="round" stroke-linejoin="round" stroke-miterlimit="3.864" x1="191.935" y1="196.991" x2="255.834" y2="196.99"/>
<path fill="none" stroke="#0000FF" stroke-width="0.7" stroke-linecap="round" stroke-linejoin="round" stroke-miterlimit="3.864" stroke-dasharray="2,2" d="
	M292.25,196.989h10.69 M255.794,196.99l36.496-0.001"/>
<line fill="none" stroke="#FF0000" stroke-width="0.7" stroke-linecap="round" stroke-linejoin="round" stroke-miterlimit="3.864" x1="302.9" y1="196.989" x2="324.231" y2="196.989"/>
<path fill="none" stroke="#0000FF" stroke-width="0.7" stroke-linecap="round" stroke-linejoin="round" stroke-miterlimit="3.864" stroke-dasharray="2,2" d="
	M340.02,196.988h8.731 M324.171,196.989l15.869-0.001 M348.73,196.988h17.432"/>
<line fill="none" stroke="#FF0000" stroke-width="0.7" stroke-linecap="round" stroke-linejoin="round" stroke-miterlimit="3.864" x1="365.953" y1="260.891" x2="344.91" y2="210"/>
<path fill="none" stroke="#0000FF" stroke-width="0.7" stroke-linecap="round" stroke-linejoin="round" stroke-miterlimit="3.864" stroke-dasharray="2,2" d="
	M191.915,22.856l174.247,46.682 M366.162,69.538L285.44,22.855 M344.89,210l-5.389-13.068"/>
<line fill="none" stroke="#FF0000" stroke-width="0.7" stroke-linecap="round" stroke-linejoin="round" stroke-miterlimit="3.864" x1="366.162" y1="69.538" x2="292.443" y2="197.065"/>
<polyline fill="none" stroke="#FF0000" stroke-width="0.7" stroke-linecap="round" stroke-linejoin="round" stroke-miterlimit="3.864" points="
	366.162,69.538 272.915,69.469 191.954,22.857 "/>
<path fill="none" stroke="#0000FF" stroke-width="0.7" stroke-linecap="round" stroke-linejoin="round" stroke-miterlimit="3.864" stroke-dasharray="2,2" d="
	M191.959,196.935l63.938-17.127 M311.213,101.458L223.86,78.06 M191.935,196.973l31.873-118.882"/>
<line fill="none" stroke="#FF0000" stroke-width="0.7" stroke-linecap="round" stroke-linejoin="round" stroke-miterlimit="3.864" x1="191.95" y1="196.942" x2="255.772" y2="160.105"/>
<line fill="none" stroke="#0000FF" stroke-width="0.7" stroke-linecap="round" stroke-linejoin="round" stroke-miterlimit="3.864" stroke-dasharray="2,2" x1="287.13" y1="188.202" x2="255.814" y2="179.808"/>
<line fill="none" stroke="#FF0000" stroke-width="0.7" stroke-linecap="round" stroke-linejoin="round" stroke-miterlimit="3.864" x1="278.868" y1="173.564" x2="255.939" y2="160.104"/>
<line fill="none" stroke="#0000FF" stroke-width="0.7" stroke-linecap="round" stroke-linejoin="round" stroke-miterlimit="3.864" stroke-dasharray="2,2" x1="311.213" y1="101.458" x2="287.13" y2="188.202"/>
<line fill="none" stroke="#FF0000" stroke-width="0.7" stroke-linecap="round" stroke-linejoin="round" stroke-miterlimit="3.864" x1="191.937" y1="196.962" x2="242.239" y2="109.868"/>
<line fill="none" stroke="#0000FF" stroke-width="0.7" stroke-linecap="round" stroke-linejoin="round" stroke-miterlimit="3.864" stroke-dasharray="2,2" x1="365.993" y1="133.085" x2="303.223" y2="196.989"/>
<line fill="none" stroke="#FF0000" stroke-width="0.7" stroke-linecap="round" stroke-linejoin="round" stroke-miterlimit="3.864" x1="345.14" y1="183.744" x2="323.564" y2="196.964"/>
<line fill="none" stroke="#0000FF" stroke-width="0.7" stroke-linecap="round" stroke-linejoin="round" stroke-miterlimit="3.864" stroke-dasharray="2,2" x1="345.12" y1="183.744" x2="348.423" y2="196.976"/>
<line fill="none" stroke="#FF0000" stroke-width="0.7" stroke-linecap="round" stroke-linejoin="round" stroke-miterlimit="3.864" x1="278.868" y1="173.564" x2="280.013" y2="119.986"/>
<line fill="none" stroke="#FF0000" stroke-width="0.7" stroke-linecap="round" stroke-linejoin="round" stroke-miterlimit="3.864" x1="279.993" y1="119.986" x2="242.239" y2="109.868"/>
<line fill="none" stroke="#0000FF" stroke-width="0.7" stroke-linecap="round" stroke-linejoin="round" stroke-miterlimit="3.864" stroke-dasharray="2,2" x1="260.791" y1="115.013" x2="267.521" y2="89.906"/>
<line fill="none" stroke="#FF0000" stroke-width="0.7" stroke-linecap="round" stroke-linejoin="round" stroke-miterlimit="3.864" x1="267.481" y1="89.906" x2="273.024" y2="69.264"/>
<line fill="none" stroke="#0000FF" stroke-width="0.7" stroke-linecap="round" stroke-linejoin="round" stroke-miterlimit="3.864" stroke-dasharray="2,2" x1="272.983" y1="69.264" x2="279.162" y2="46.281"/>
<line fill="none" stroke="#FF0000" stroke-width="0.7" stroke-linecap="round" stroke-linejoin="round" stroke-miterlimit="3.864" x1="279.142" y1="46.281" x2="285.44" y2="22.855"/>
<line fill="none" stroke="#FF0000" stroke-width="0.7" stroke-linecap="round" stroke-linejoin="round" stroke-miterlimit="3.864" x1="366.161" y1="69.538" x2="338.748" y2="22.791"/>
<line fill="none" stroke="#FF0000" stroke-width="0.7" stroke-linecap="round" stroke-linejoin="round" stroke-miterlimit="3.864" x1="255.751" y1="160.105" x2="250.307" y2="139.821"/>
<line fill="none" stroke="#0000FF" stroke-width="0.7" stroke-linecap="round" stroke-linejoin="round" stroke-miterlimit="3.864" stroke-dasharray="2,2" x1="250.288" y1="139.821" x2="242.239" y2="109.868"/>
<line fill="none" stroke="#FF0000" stroke-width="0.7" stroke-linecap="round" stroke-linejoin="round" stroke-miterlimit="3.864" x1="255.792" y1="160.105" x2="260.677" y2="140.22"/>
<path fill="none" stroke="#0000FF" stroke-width="0.7" stroke-linecap="round" stroke-linejoin="round" stroke-miterlimit="3.864" stroke-dasharray="2,2" d="
	M260.678,140.219l-10.37-0.398 M260.678,140.219l19.336-20.233"/>
<line fill="none" stroke="#FF0000" stroke-width="0.7" stroke-linecap="round" stroke-linejoin="round" stroke-miterlimit="3.864" x1="280.243" y1="119.453" x2="311.039" y2="101.569"/>
<line fill="none" stroke="#0000FF" stroke-width="0.7" stroke-linecap="round" stroke-linejoin="round" stroke-miterlimit="3.864" stroke-dasharray="2,2" x1="311.019" y1="101.569" x2="366.162" y2="69.538"/>
<line fill="none" stroke="#FF0000" stroke-width="0.7" stroke-linecap="round" stroke-linejoin="round" stroke-miterlimit="3.864" x1="242.282" y1="110.189" x2="223.983" y2="78.413"/>
<line fill="none" stroke="#0000FF" stroke-width="0.7" stroke-linecap="round" stroke-linejoin="round" stroke-miterlimit="3.864" stroke-dasharray="2,2" x1="223.962" y1="78.412" x2="191.953" y2="22.856"/>
<path fill="none" stroke="#0000FF" stroke-width="0.7" stroke-linecap="round" stroke-linejoin="round" stroke-miterlimit="3.864" stroke-dasharray="2,2" d="
	M255.815,160.221l0.03,20.004 M255.819,139.898l0.036,20.323"/>
<line fill="none" stroke="#FF0000" stroke-width="0.7" stroke-linecap="round" stroke-linejoin="round" stroke-miterlimit="3.864" x1="255.826" y1="180.225" x2="255.856" y2="197.061"/>
<line fill="none" stroke="#0000FF" stroke-width="0.7" stroke-linecap="round" stroke-linejoin="round" stroke-miterlimit="3.864" stroke-dasharray="2,2" x1="191.944" y1="196.985" x2="249.793" y2="139.66"/>
<line fill="none" stroke="#0000FF" stroke-width="0.7" stroke-linecap="round" stroke-linejoin="round" stroke-miterlimit="3.864" stroke-dasharray="2,2" x1="292.422" y1="197.065" x2="287.317" y2="188.181"/>
<line fill="none" stroke="#FF0000" stroke-width="0.7" stroke-linecap="round" stroke-linejoin="round" stroke-miterlimit="3.864" x1="287.276" y1="188.181" x2="278.868" y2="173.564"/>
<line fill="none" stroke="#0000FF" stroke-width="0.7" stroke-linecap="round" stroke-linejoin="round" stroke-miterlimit="3.864" stroke-dasharray="2,2" x1="278.828" y1="173.564" x2="259.876" y2="140.632"/>
<line fill="none" stroke="#FF0000" stroke-width="0.7" stroke-linecap="round" stroke-linejoin="round" stroke-miterlimit="3.864" x1="255.839" y1="139.898" x2="260.831" y2="115.013"/>
<line fill="none" stroke="#FF0000" stroke-width="0.7" stroke-linecap="round" stroke-linejoin="round" stroke-miterlimit="3.864" x1="365.952" y1="133.085" x2="344.909" y2="183.976"/>
<line fill="none" stroke="#FF0000" stroke-width="0.7" stroke-linecap="round" stroke-linejoin="round" stroke-miterlimit="3.864" x1="344.889" y1="183.976" x2="339.5" y2="197.045"/>
<line fill="none" stroke="#FFFF00" stroke-miterlimit="3.864" x1="81.059" y1="196.989" x2="83.857" y2="210.231"/>
<line fill="none" stroke="#FFFF00" stroke-miterlimit="3.864" x1="83.857" y1="210.231" x2="59.768" y2="218.375"/>
<line fill="none" stroke="#FFFF00" stroke-miterlimit="3.864" x1="59.768" y1="218.375" x2="59.768" y2="251.904"/>
<line fill="none" stroke="#FFFF00" stroke-miterlimit="3.864" x1="59.768" y1="251.904" x2="18.007" y2="260.891"/>
<line fill="none" stroke="#FFFF00" stroke-miterlimit="3.864" x1="39.09" y1="210" x2="59.768" y2="218.375"/>
<line fill="none" stroke="#FFFF00" stroke-miterlimit="3.864" x1="59.768" y1="218.375" x2="60.436" y2="197.011"/>
<line fill="none" stroke="#FFFF00" stroke-miterlimit="3.864" x1="96.87" y1="205.774" x2="83.857" y2="210.231"/>
<line fill="none" stroke="#FFFF00" stroke-miterlimit="3.864" x1="83.857" y1="210.231" x2="88.632" y2="235.445"/>
<line fill="none" stroke="#FFFF00" stroke-miterlimit="3.864" x1="88.632" y1="235.445" x2="59.768" y2="251.904"/>
<line fill="none" stroke="#FFFF00" stroke-miterlimit="3.864" x1="59.768" y1="251.904" x2="72.96" y2="292.407"/>
<line fill="none" stroke="#FFFF00" stroke-miterlimit="3.864" x1="105.132" y1="220.412" x2="88.632" y2="235.445"/>
<line fill="none" stroke="#FFFF00" stroke-miterlimit="3.864" x1="88.632" y1="235.445" x2="103.986" y2="273.989"/>
<line fill="none" stroke="#FFFF00" stroke-miterlimit="3.864" x1="81.099" y1="197.065" x2="83.897" y2="183.822"/>
<line fill="none" stroke="#FFFF00" stroke-miterlimit="3.864" x1="83.897" y1="183.822" x2="59.808" y2="175.679"/>
<line fill="none" stroke="#FFFF00" stroke-miterlimit="3.864" x1="59.808" y1="175.679" x2="59.808" y2="142.149"/>
<line fill="none" stroke="#FFFF00" stroke-miterlimit="3.864" x1="59.808" y1="142.149" x2="18.047" y2="133.163"/>
<line fill="none" stroke="#FFFF00" stroke-miterlimit="3.864" x1="39.13" y1="184.054" x2="59.808" y2="175.679"/>
<line fill="none" stroke="#FFFF00" stroke-miterlimit="3.864" x1="59.808" y1="175.679" x2="60.476" y2="197.043"/>
<line fill="none" stroke="#FFFF00" stroke-miterlimit="3.864" x1="96.91" y1="188.279" x2="83.897" y2="183.822"/>
<line fill="none" stroke="#FFFF00" stroke-miterlimit="3.864" x1="83.897" y1="183.822" x2="88.673" y2="158.608"/>
<line fill="none" stroke="#FFFF00" stroke-miterlimit="3.864" x1="88.673" y1="158.608" x2="59.808" y2="142.149"/>
<line fill="none" stroke="#FFFF00" stroke-miterlimit="3.864" x1="59.808" y1="142.149" x2="73" y2="101.646"/>
<line fill="none" stroke="#FFFF00" stroke-miterlimit="3.864" x1="105.172" y1="173.642" x2="88.673" y2="158.608"/>
<line fill="none" stroke="#FFFF00" stroke-miterlimit="3.864" x1="88.673" y1="158.608" x2="104.026" y2="120.064"/>
<line fill="none" stroke="#FFFF00" stroke-miterlimit="3.864" x1="302.94" y1="196.976" x2="300.143" y2="210.218"/>
<line fill="none" stroke="#FFFF00" stroke-miterlimit="3.864" x1="300.143" y1="210.218" x2="324.231" y2="218.362"/>
<line fill="none" stroke="#FFFF00" stroke-miterlimit="3.864" x1="324.231" y1="218.362" x2="324.231" y2="251.892"/>
<line fill="none" stroke="#FFFF00" stroke-miterlimit="3.864" x1="324.231" y1="251.892" x2="365.992" y2="260.878"/>
<line fill="none" stroke="#FFFF00" stroke-miterlimit="3.864" x1="344.909" y1="209.987" x2="324.231" y2="218.362"/>
<line fill="none" stroke="#FFFF00" stroke-miterlimit="3.864" x1="324.231" y1="218.362" x2="323.563" y2="196.997"/>
<line fill="none" stroke="#FFFF00" stroke-miterlimit="3.864" x1="287.129" y1="205.761" x2="300.143" y2="210.218"/>
<line fill="none" stroke="#FFFF00" stroke-miterlimit="3.864" x1="300.143" y1="210.218" x2="295.367" y2="235.433"/>
<line fill="none" stroke="#FFFF00" stroke-miterlimit="3.864" x1="295.367" y1="235.433" x2="324.231" y2="251.892"/>
<line fill="none" stroke="#FFFF00" stroke-miterlimit="3.864" x1="324.231" y1="251.892" x2="311.039" y2="292.394"/>
<line fill="none" stroke="#FFFF00" stroke-miterlimit="3.864" x1="278.867" y1="220.399" x2="295.367" y2="235.433"/>
<line fill="none" stroke="#FFFF00" stroke-miterlimit="3.864" x1="295.367" y1="235.433" x2="280.014" y2="273.976"/>
<line fill="none" stroke="#FFFF00" stroke-miterlimit="3.864" x1="302.9" y1="197.052" x2="300.102" y2="183.809"/>
<line fill="none" stroke="#FFFF00" stroke-miterlimit="3.864" x1="300.102" y1="183.809" x2="324.191" y2="175.666"/>
<line fill="none" stroke="#FFFF00" stroke-miterlimit="3.864" x1="324.191" y1="175.666" x2="324.191" y2="142.136"/>
<line fill="none" stroke="#FFFF00" stroke-miterlimit="3.864" x1="324.191" y1="142.136" x2="365.952" y2="133.15"/>
<line fill="none" stroke="#FFFF00" stroke-miterlimit="3.864" x1="344.869" y1="184.041" x2="324.191" y2="175.666"/>
<line fill="none" stroke="#FFFF00" stroke-miterlimit="3.864" x1="324.191" y1="175.666" x2="323.523" y2="197.03"/>
<line fill="none" stroke="#FFFF00" stroke-miterlimit="3.864" x1="287.09" y1="188.266" x2="300.102" y2="183.809"/>
<line fill="none" stroke="#FFFF00" stroke-miterlimit="3.864" x1="300.102" y1="183.809" x2="295.326" y2="158.595"/>
<line fill="none" stroke="#FFFF00" stroke-miterlimit="3.864" x1="295.326" y1="158.595" x2="324.191" y2="142.136"/>
<line fill="none" stroke="#FFFF00" stroke-miterlimit="3.864" x1="324.191" y1="142.136" x2="311" y2="101.633"/>
<line fill="none" stroke="#FFFF00" stroke-miterlimit="3.864" x1="278.828" y1="173.628" x2="295.326" y2="158.595"/>
<line fill="none" stroke="#FFFF00" stroke-miterlimit="3.864" x1="295.326" y1="158.595" x2="279.973" y2="120.051"/>
</svg>
