<?xml version="1.0" encoding="utf-8"?>
<!-- Generator: Adobe Illustrator 16.0.3, SVG Export Plug-In . SVG Version: 6.00 Build 0)  -->
<!DOCTYPE svg PUBLIC "-//W3C//DTD SVG 1.1//EN" "http://www.w3.org/Graphics/SVG/1.1/DTD/svg11.dtd">
<svg version="1.1" id="Layer_1" xmlns="http://www.w3.org/2000/svg" xmlns:xlink="http://www.w3.org/1999/xlink" x="0px" y="0px"
	 width="515px" height="510px" viewBox="0 0 515 510" enable-background="new 0 0 515 510" xml:space="preserve">
<polygon fill="none" stroke="#000000" stroke-linecap="round" stroke-linejoin="round" stroke-miterlimit="3.864" points="
	463.919,476.85 38.16,476.842 38.153,51.082 463.913,51.088 "/>
<line fill="none" stroke="#FF0000" stroke-linecap="round" stroke-linejoin="round" stroke-miterlimit="3.864" stroke-dasharray="2,2" x1="126.176" y1="264" x2="251" y2="139.176"/>
<line fill="none" stroke="#FF0000" stroke-linecap="round" stroke-linejoin="round" stroke-miterlimit="3.864" stroke-dasharray="2,2" x1="126.287" y1="263.993" x2="38.12" y2="51.12"/>
<line fill="none" stroke="#FF0000" stroke-linecap="round" stroke-linejoin="round" stroke-miterlimit="3.864" stroke-dasharray="2,2" x1="38.109" y1="476.869" x2="126.298" y2="264.003"/>
<line fill="none" stroke="#0000FF" stroke-linecap="round" stroke-linejoin="round" stroke-miterlimit="3.864" x1="239.668" y1="252.653" x2="234.718" y2="280.23"/>
<line fill="none" stroke="#FF0000" stroke-linecap="round" stroke-linejoin="round" stroke-miterlimit="3.864" stroke-dasharray="2,2" x1="77.74" y1="437.562" x2="61.3" y2="421.121"/>
<line fill="none" stroke="#FF0000" stroke-linecap="round" stroke-linejoin="round" stroke-miterlimit="3.864" stroke-dasharray="2,2" x1="239.668" y1="252.653" x2="267.245" y2="247.703"/>
<line fill="none" stroke="#0000FF" stroke-linecap="round" stroke-linejoin="round" stroke-miterlimit="3.864" x1="61.3" y1="421.121" x2="38.104" y2="421.121"/>
<line fill="none" stroke="#FF0000" stroke-linecap="round" stroke-linejoin="round" stroke-miterlimit="3.864" stroke-dasharray="2,2" x1="204.401" y1="310.547" x2="96.125" y2="336.622"/>
<line fill="none" stroke="#0000FF" stroke-linecap="round" stroke-linejoin="round" stroke-miterlimit="3.864" x1="204.401" y1="310.547" x2="83.751" y2="365.613"/>
<line fill="none" stroke="#0000FF" stroke-linecap="round" stroke-linejoin="round" stroke-miterlimit="3.864" x1="83.992" y1="119.935" x2="38.12" y2="51.12"/>
<line fill="none" stroke="#0000FF" stroke-linecap="round" stroke-linejoin="round" stroke-miterlimit="3.864" x1="69.371" y1="207.077" x2="38.119" y2="51.12"/>
<line fill="none" stroke="#0000FF" stroke-linecap="round" stroke-linejoin="round" stroke-miterlimit="3.864" x1="83.992" y1="119.935" x2="107.174" y2="120.159"/>
<line fill="none" stroke="#FF0000" stroke-linecap="round" stroke-linejoin="round" stroke-miterlimit="3.864" stroke-dasharray="2,2" x1="84.016" y1="120.159" x2="95.587" y2="108.587"/>
<line fill="none" stroke="#0000FF" stroke-linecap="round" stroke-linejoin="round" stroke-miterlimit="3.864" x1="91.433" y1="104.433" x2="73.655" y2="104.306"/>
<line fill="none" stroke="#0000FF" stroke-linecap="round" stroke-linejoin="round" stroke-miterlimit="3.864" x1="83.992" y1="119.935" x2="78.25" y2="148.01"/>
<line fill="none" stroke="#FF0000" stroke-linecap="round" stroke-linejoin="round" stroke-miterlimit="3.864" stroke-dasharray="2,2" x1="66.991" y1="120.826" x2="73.737" y2="104.428"/>
<line fill="none" stroke="#0000FF" stroke-linecap="round" stroke-linejoin="round" stroke-miterlimit="3.864" x1="66.991" y1="120.826" x2="50.61" y2="113.918"/>
<line fill="none" stroke="#FF0000" stroke-linecap="round" stroke-linejoin="round" stroke-miterlimit="3.864" stroke-dasharray="2,2" x1="54.264" y1="132.296" x2="78.25" y2="148.01"/>
<line fill="none" stroke="#FF0000" stroke-linecap="round" stroke-linejoin="round" stroke-miterlimit="3.864" stroke-dasharray="2,2" x1="38.12" y1="126.434" x2="50.609" y2="113.917"/>
<line fill="none" stroke="#0000FF" stroke-linecap="round" stroke-linejoin="round" stroke-miterlimit="3.864" x1="54.264" y1="132.296" x2="38.119" y2="156.133"/>
<line opacity="0.75" fill="none" stroke="#0000FF" stroke-linecap="round" stroke-linejoin="round" stroke-miterlimit="3.864" enable-background="new    " x1="69.371" y1="207.077" x2="38.119" y2="259.371"/>
<path fill="none" stroke="#0000FF" stroke-linecap="round" stroke-linejoin="round" stroke-miterlimit="3.864" d="M126.298,264.004"
	/>
<line opacity="0.75" fill="none" stroke="#FF0000" stroke-linecap="round" stroke-linejoin="round" stroke-miterlimit="3.864" stroke-dasharray="2,2" enable-background="new    " x1="69.371" y1="207.077" x2="102.713" y2="207.077"/>
<line opacity="0.75" fill="none" stroke="#0000FF" stroke-linecap="round" stroke-linejoin="round" stroke-miterlimit="3.864" enable-background="new    " x1="102.713" y1="207.077" x2="148.395" y2="161.395"/>
<line fill="none" stroke="#FF0000" stroke-linecap="round" stroke-linejoin="round" stroke-miterlimit="3.864" stroke-dasharray="2,2" x1="250.993" y1="139.287" x2="38.12" y2="51.12"/>
<line fill="none" stroke="#0000FF" stroke-linecap="round" stroke-linejoin="round" stroke-miterlimit="3.864" x1="194.077" y1="82.371" x2="38.12" y2="51.12"/>
<line fill="none" stroke="#0000FF" stroke-linecap="round" stroke-linejoin="round" stroke-miterlimit="3.864" x1="106.935" y1="96.992" x2="135.01" y2="91.25"/>
<line fill="none" stroke="#FF0000" stroke-linecap="round" stroke-linejoin="round" stroke-miterlimit="3.864" stroke-dasharray="2,2" x1="107.826" y1="79.99" x2="91.428" y2="86.737"/>
<line fill="none" stroke="#0000FF" stroke-linecap="round" stroke-linejoin="round" stroke-miterlimit="3.864" x1="107.826" y1="79.99" x2="100.918" y2="63.609"/>
<line fill="none" stroke="#FF0000" stroke-linecap="round" stroke-linejoin="round" stroke-miterlimit="3.864" stroke-dasharray="2,2" x1="119.296" y1="67.264" x2="135.01" y2="91.25"/>
<line fill="none" stroke="#FF0000" stroke-linecap="round" stroke-linejoin="round" stroke-miterlimit="3.864" stroke-dasharray="2,2" x1="113.434" y1="51.12" x2="100.917" y2="63.609"/>
<line fill="none" stroke="#0000FF" stroke-linecap="round" stroke-linejoin="round" stroke-miterlimit="3.864" x1="119.296" y1="67.264" x2="143.133" y2="51.12"/>
<line opacity="0.75" fill="none" stroke="#0000FF" stroke-linecap="round" stroke-linejoin="round" stroke-miterlimit="3.864" enable-background="new    " x1="194.077" y1="82.371" x2="246.371" y2="51.12"/>
<path opacity="0.5" fill="none" stroke="#0000FF" stroke-linecap="round" stroke-linejoin="round" stroke-miterlimit="3.864" enable-background="new    " d="
	M251.004,139.298"/>
<line opacity="0.75" fill="none" stroke="#FF0000" stroke-linecap="round" stroke-linejoin="round" stroke-miterlimit="3.864" stroke-dasharray="2,2" enable-background="new    " x1="194.077" y1="82.371" x2="194.077" y2="115.713"/>
<line opacity="0.75" fill="none" stroke="#0000FF" stroke-linecap="round" stroke-linejoin="round" stroke-miterlimit="3.864" enable-background="new    " x1="194.077" y1="115.713" x2="148.395" y2="161.395"/>
<line fill="none" stroke="#0000FF" stroke-linecap="round" stroke-linejoin="round" stroke-miterlimit="3.864" x1="91.433" y1="104.433" x2="91.428" y2="86.737"/>
<line fill="none" stroke="#FF0000" stroke-linecap="round" stroke-linejoin="round" stroke-miterlimit="3.864" stroke-dasharray="2,2" x1="106.935" y1="96.992" x2="95.587" y2="108.587"/>
<line fill="none" stroke="#0000FF" stroke-linecap="round" stroke-linejoin="round" stroke-miterlimit="3.864" x1="106.935" y1="96.992" x2="38.12" y2="51.12"/>
<line fill="none" stroke="#FF0000" stroke-linecap="round" stroke-linejoin="round" stroke-miterlimit="3.864" stroke-dasharray="2,2" x1="251" y1="139.176" x2="287.751" y2="51.12"/>
<line fill="none" stroke="#0000FF" stroke-linecap="round" stroke-linejoin="round" stroke-miterlimit="3.864" x1="251" y1="139.176" x2="339.245" y2="175.451"/>
<line fill="none" stroke="#FF0000" stroke-linecap="round" stroke-linejoin="round" stroke-miterlimit="3.864" stroke-dasharray="2,2" x1="367.163" y1="91.174" x2="396.999" y2="51.12"/>
<line fill="none" stroke="#0000FF" stroke-linecap="round" stroke-linejoin="round" stroke-miterlimit="3.864" x1="396.999" y1="51.12" x2="430.439" y2="84.56"/>
<line fill="none" stroke="#FF0000" stroke-linecap="round" stroke-linejoin="round" stroke-miterlimit="3.864" stroke-dasharray="2,2" x1="367.936" y1="90.854" x2="397.467" y2="117.533"/>
<line fill="none" stroke="#FF0000" stroke-linecap="round" stroke-linejoin="round" stroke-miterlimit="3.864" stroke-dasharray="2,2" x1="367.936" y1="90.854" x2="346.087" y2="51.12"/>
<line fill="none" stroke="#FF0000" stroke-linecap="round" stroke-linejoin="round" stroke-miterlimit="3.864" stroke-dasharray="2,2" x1="396.999" y1="51.12" x2="444.312" y2="70.687"/>
<line fill="none" stroke="#0000FF" stroke-linecap="round" stroke-linejoin="round" stroke-miterlimit="3.864" x1="367.936" y1="90.854" x2="287.751" y2="51.12"/>
<line fill="none" stroke="#FF0000" stroke-linecap="round" stroke-linejoin="round" stroke-miterlimit="3.864" stroke-dasharray="2,2" x1="339.048" y1="102.822" x2="350.942" y2="82.433"/>
<line fill="none" stroke="#0000FF" stroke-linecap="round" stroke-linejoin="round" stroke-miterlimit="3.864" x1="350.942" y1="82.433" x2="355.39" y2="68.038"/>
<line fill="none" stroke="#FF0000" stroke-linecap="round" stroke-linejoin="round" stroke-miterlimit="3.864" stroke-dasharray="2,2" x1="355.39" y1="68.037" x2="380.11" y2="73.793"/>
<line fill="none" stroke="#0000FF" stroke-linecap="round" stroke-linejoin="round" stroke-miterlimit="3.864" x1="380.11" y1="73.793" x2="389.425" y2="81.951"/>
<line fill="none" stroke="#FF0000" stroke-linecap="round" stroke-linejoin="round" stroke-miterlimit="3.864" stroke-dasharray="2,2" x1="389.425" y1="81.951" x2="397.467" y2="117.533"/>
<line fill="none" stroke="#0000FF" stroke-linecap="round" stroke-linejoin="round" stroke-miterlimit="3.864" x1="397.467" y1="117.533" x2="339.048" y2="102.822"/>
<line fill="none" stroke="#0000FF" stroke-linecap="round" stroke-linejoin="round" stroke-miterlimit="3.864" x1="416.705" y1="70.649" x2="421.306" y2="51.12"/>
<line fill="none" stroke="#FF0000" stroke-linecap="round" stroke-linejoin="round" stroke-miterlimit="3.864" stroke-dasharray="2,2" x1="42.117" y1="252.67" x2="84.376" y2="365.87"/>
<line fill="none" stroke="#0000FF" stroke-linecap="round" stroke-linejoin="round" stroke-miterlimit="3.864" x1="43.419" y1="250.503" x2="96.125" y2="336.622"/>
<line fill="none" stroke="#0000FF" stroke-linecap="round" stroke-linejoin="round" stroke-miterlimit="3.864" x1="42.148" y1="252.685" x2="38.135" y2="253.228"/>
<line fill="none" stroke="#FF0000" stroke-linecap="round" stroke-linejoin="round" stroke-miterlimit="3.864" stroke-dasharray="2,2" x1="43.419" y1="250.503" x2="38.085" y2="250.196"/>
<line fill="none" stroke="#0000FF" stroke-linecap="round" stroke-linejoin="round" stroke-miterlimit="3.864" x1="188.556" y1="201.556" x2="251" y2="264"/>
<line opacity="0.5" fill="none" stroke="#FF0000" stroke-linecap="round" stroke-linejoin="round" stroke-miterlimit="3.864" stroke-dasharray="2,2" enable-background="new    " x1="38.109" y1="476.869" x2="219.375" y2="295.625"/>
<line fill="none" stroke="#FF0000" stroke-linecap="round" stroke-linejoin="round" stroke-miterlimit="3.864" stroke-dasharray="2,2" x1="219.794" y1="295.206" x2="157.382" y2="232.794"/>
<line fill="none" stroke="#FF0000" stroke-linecap="round" stroke-linejoin="round" stroke-miterlimit="3.864" stroke-dasharray="2,2" x1="148.434" y1="161.434" x2="188.567" y2="201.567"/>
<line fill="none" stroke="#0000FF" stroke-linecap="round" stroke-linejoin="round" stroke-miterlimit="3.864" x1="117.189" y1="192.601" x2="157.382" y2="232.794"/>
<line fill="none" stroke="#FF0000" stroke-linecap="round" stroke-linejoin="round" stroke-miterlimit="3.864" stroke-dasharray="2,2" x1="117.189" y1="192.601" x2="82.428" y2="157.839"/>
<line fill="none" stroke="#0000FF" stroke-linecap="round" stroke-linejoin="round" stroke-miterlimit="3.864" x1="82.428" y1="157.839" x2="82.428" y2="207.08"/>
<line fill="none" stroke="#FF0000" stroke-linecap="round" stroke-linejoin="round" stroke-miterlimit="3.864" stroke-dasharray="2,2" x1="82.428" y1="207.08" x2="82.428" y2="220.133"/>
<line fill="none" stroke="#0000FF" stroke-linecap="round" stroke-linejoin="round" stroke-miterlimit="3.864" x1="82.428" y1="220.133" x2="61.557" y2="220.133"/>
<line fill="none" stroke="#FF0000" stroke-linecap="round" stroke-linejoin="round" stroke-miterlimit="3.864" stroke-dasharray="2,2" x1="38.12" y1="176.373" x2="61.558" y2="220.133"/>
<line fill="none" stroke="#0000FF" stroke-linecap="round" stroke-linejoin="round" stroke-miterlimit="3.864" x1="106.935" y1="96.992" x2="107.173" y2="120.159"/>
<line fill="none" stroke="#0000FF" stroke-linecap="round" stroke-linejoin="round" stroke-miterlimit="3.864" x1="107.247" y1="120.247" x2="148.445" y2="161.445"/>
<line fill="none" stroke="#FF0000" stroke-linecap="round" stroke-linejoin="round" stroke-miterlimit="3.864" stroke-dasharray="2,2" x1="38.064" y1="51.065" x2="91.257" y2="104.257"/>
<line fill="none" stroke="#FF0000" stroke-linecap="round" stroke-linejoin="round" stroke-miterlimit="3.864" stroke-dasharray="2,2" x1="95.752" y1="108.752" x2="107.258" y2="120.258"/>
<line fill="none" stroke="#0000FF" stroke-linecap="round" stroke-linejoin="round" stroke-miterlimit="3.864" x1="91.246" y1="104.246" x2="95.763" y2="108.763"/>
<line opacity="0.5" fill="none" stroke="#0000FF" stroke-linecap="round" stroke-linejoin="round" stroke-miterlimit="3.864" enable-background="new    " x1="219.353" y1="295.604" x2="234.729" y2="280.25"/>
<line opacity="0.5" fill="none" stroke="#FF0000" stroke-linecap="round" stroke-linejoin="round" stroke-miterlimit="3.864" stroke-dasharray="2,2" enable-background="new    " x1="234.707" y1="280.229" x2="250.992" y2="263.968"/>
<line opacity="0.5" fill="none" stroke="#0000FF" stroke-linecap="round" stroke-linejoin="round" stroke-miterlimit="3.864" enable-background="new    " x1="250.97" y1="263.946" x2="267.07" y2="247.872"/>
<line opacity="0.5" fill="none" stroke="#FF0000" stroke-linecap="round" stroke-linejoin="round" stroke-miterlimit="3.864" stroke-dasharray="2,2" enable-background="new    " x1="267.048" y1="247.85" x2="339.021" y2="175.928"/>
<line opacity="0.5" fill="none" stroke="#0000FF" stroke-linecap="round" stroke-linejoin="round" stroke-miterlimit="3.864" enable-background="new    " x1="338.999" y1="175.906" x2="397.355" y2="117.606"/>
<line opacity="0.5" fill="none" stroke="#FF0000" stroke-linecap="round" stroke-linejoin="round" stroke-miterlimit="3.864" stroke-dasharray="2,2" enable-background="new    " x1="397.333" y1="117.584" x2="430.423" y2="84.546"/>
<line opacity="0.5" fill="none" stroke="#0000FF" stroke-linecap="round" stroke-linejoin="round" stroke-miterlimit="3.864" enable-background="new    " x1="430.401" y1="84.524" x2="444.212" y2="70.757"/>
<line fill="none" stroke="#FF0000" stroke-linecap="round" stroke-linejoin="round" stroke-miterlimit="3.864" stroke-dasharray="2,2" x1="367.599" y1="90.961" x2="339.139" y2="102.776"/>
<line fill="none" stroke="#FF0000" stroke-linecap="round" stroke-linejoin="round" stroke-miterlimit="3.864" stroke-dasharray="2,2" x1="339.128" y1="102.765" x2="251.004" y2="139.298"/>
<line opacity="0.5" fill="none" stroke="#FF0000" stroke-linecap="round" stroke-linejoin="round" stroke-miterlimit="3.864" stroke-dasharray="2,2" enable-background="new    " x1="444.201" y1="70.746" x2="463.88" y2="51.12"/>
<line fill="none" stroke="#0000FF" stroke-linecap="round" stroke-linejoin="round" stroke-miterlimit="3.864" x1="416.517" y1="70.664" x2="389.137" y2="82.04"/>
<line fill="none" stroke="#0000FF" stroke-linecap="round" stroke-linejoin="round" stroke-miterlimit="3.864" x1="389.126" y1="82.029" x2="367.609" y2="90.972"/>
<line fill="none" stroke="#FF0000" stroke-linecap="round" stroke-linejoin="round" stroke-miterlimit="3.864" stroke-dasharray="2,2" x1="251" y1="388.824" x2="375.824" y2="264"/>
<line fill="none" stroke="#FF0000" stroke-linecap="round" stroke-linejoin="round" stroke-miterlimit="3.864" stroke-dasharray="2,2" x1="251.007" y1="388.713" x2="463.88" y2="476.88"/>
<line fill="none" stroke="#FF0000" stroke-linecap="round" stroke-linejoin="round" stroke-miterlimit="3.864" stroke-dasharray="2,2" x1="38.131" y1="476.893" x2="250.997" y2="388.702"/>
<line fill="none" stroke="#0000FF" stroke-linecap="round" stroke-linejoin="round" stroke-miterlimit="3.864" x1="262.347" y1="275.332" x2="234.77" y2="280.282"/>
<line fill="none" stroke="#FF0000" stroke-linecap="round" stroke-linejoin="round" stroke-miterlimit="3.864" stroke-dasharray="2,2" x1="77.438" y1="437.26" x2="93.879" y2="453.7"/>
<line fill="none" stroke="#FF0000" stroke-linecap="round" stroke-linejoin="round" stroke-miterlimit="3.864" stroke-dasharray="2,2" x1="262.347" y1="275.332" x2="267.297" y2="247.755"/>
<line fill="none" stroke="#0000FF" stroke-linecap="round" stroke-linejoin="round" stroke-miterlimit="3.864" x1="93.879" y1="453.7" x2="93.879" y2="476.896"/>
<line fill="none" stroke="#FF0000" stroke-linecap="round" stroke-linejoin="round" stroke-miterlimit="3.864" stroke-dasharray="2,2" x1="204.453" y1="310.6" x2="178.378" y2="418.875"/>
<line fill="none" stroke="#0000FF" stroke-linecap="round" stroke-linejoin="round" stroke-miterlimit="3.864" x1="204.453" y1="310.6" x2="149.387" y2="431.249"/>
<line fill="none" stroke="#0000FF" stroke-linecap="round" stroke-linejoin="round" stroke-miterlimit="3.864" x1="395.064" y1="431.008" x2="463.88" y2="476.88"/>
<line fill="none" stroke="#0000FF" stroke-linecap="round" stroke-linejoin="round" stroke-miterlimit="3.864" x1="307.923" y1="445.629" x2="463.88" y2="476.881"/>
<line fill="none" stroke="#0000FF" stroke-linecap="round" stroke-linejoin="round" stroke-miterlimit="3.864" x1="395.064" y1="431.008" x2="394.841" y2="407.826"/>
<line fill="none" stroke="#FF0000" stroke-linecap="round" stroke-linejoin="round" stroke-miterlimit="3.864" stroke-dasharray="2,2" x1="394.841" y1="430.984" x2="406.413" y2="419.413"/>
<line fill="none" stroke="#0000FF" stroke-linecap="round" stroke-linejoin="round" stroke-miterlimit="3.864" x1="410.567" y1="423.566" x2="410.694" y2="441.345"/>
<line fill="none" stroke="#0000FF" stroke-linecap="round" stroke-linejoin="round" stroke-miterlimit="3.864" x1="395.064" y1="431.008" x2="366.99" y2="436.75"/>
<line fill="none" stroke="#FF0000" stroke-linecap="round" stroke-linejoin="round" stroke-miterlimit="3.864" stroke-dasharray="2,2" x1="394.174" y1="448.009" x2="410.572" y2="441.263"/>
<line fill="none" stroke="#0000FF" stroke-linecap="round" stroke-linejoin="round" stroke-miterlimit="3.864" x1="394.174" y1="448.009" x2="401.082" y2="464.391"/>
<line fill="none" stroke="#FF0000" stroke-linecap="round" stroke-linejoin="round" stroke-miterlimit="3.864" stroke-dasharray="2,2" x1="382.704" y1="460.736" x2="366.99" y2="436.75"/>
<line fill="none" stroke="#FF0000" stroke-linecap="round" stroke-linejoin="round" stroke-miterlimit="3.864" stroke-dasharray="2,2" x1="388.566" y1="476.88" x2="401.083" y2="464.391"/>
<line fill="none" stroke="#0000FF" stroke-linecap="round" stroke-linejoin="round" stroke-miterlimit="3.864" x1="382.704" y1="460.736" x2="358.867" y2="476.881"/>
<line opacity="0.75" fill="none" stroke="#0000FF" stroke-linecap="round" stroke-linejoin="round" stroke-miterlimit="3.864" enable-background="new    " x1="307.923" y1="445.629" x2="255.629" y2="476.881"/>
<path fill="none" stroke="#0000FF" stroke-linecap="round" stroke-linejoin="round" stroke-miterlimit="3.864" d="M250.996,388.702"
	/>
<line opacity="0.75" fill="none" stroke="#FF0000" stroke-linecap="round" stroke-linejoin="round" stroke-miterlimit="3.864" stroke-dasharray="2,2" enable-background="new    " x1="307.923" y1="445.629" x2="307.923" y2="412.287"/>
<line opacity="0.75" fill="none" stroke="#0000FF" stroke-linecap="round" stroke-linejoin="round" stroke-miterlimit="3.864" enable-background="new    " x1="307.923" y1="412.287" x2="353.605" y2="366.605"/>
<line fill="none" stroke="#FF0000" stroke-linecap="round" stroke-linejoin="round" stroke-miterlimit="3.864" stroke-dasharray="2,2" x1="375.713" y1="264.007" x2="463.88" y2="476.88"/>
<line fill="none" stroke="#0000FF" stroke-linecap="round" stroke-linejoin="round" stroke-miterlimit="3.864" x1="432.629" y1="320.923" x2="463.88" y2="476.88"/>
<line fill="none" stroke="#0000FF" stroke-linecap="round" stroke-linejoin="round" stroke-miterlimit="3.864" x1="418.008" y1="408.064" x2="423.75" y2="379.99"/>
<line fill="none" stroke="#FF0000" stroke-linecap="round" stroke-linejoin="round" stroke-miterlimit="3.864" stroke-dasharray="2,2" x1="435.01" y1="407.174" x2="428.263" y2="423.572"/>
<line fill="none" stroke="#0000FF" stroke-linecap="round" stroke-linejoin="round" stroke-miterlimit="3.864" x1="435.01" y1="407.174" x2="451.391" y2="414.082"/>
<line fill="none" stroke="#FF0000" stroke-linecap="round" stroke-linejoin="round" stroke-miterlimit="3.864" stroke-dasharray="2,2" x1="447.736" y1="395.704" x2="423.75" y2="379.99"/>
<line fill="none" stroke="#FF0000" stroke-linecap="round" stroke-linejoin="round" stroke-miterlimit="3.864" stroke-dasharray="2,2" x1="463.88" y1="401.566" x2="451.391" y2="414.083"/>
<line fill="none" stroke="#0000FF" stroke-linecap="round" stroke-linejoin="round" stroke-miterlimit="3.864" x1="447.736" y1="395.704" x2="463.88" y2="371.867"/>
<line opacity="0.75" fill="none" stroke="#0000FF" stroke-linecap="round" stroke-linejoin="round" stroke-miterlimit="3.864" enable-background="new    " x1="432.629" y1="320.923" x2="463.88" y2="268.629"/>
<path opacity="0.5" fill="none" stroke="#0000FF" stroke-linecap="round" stroke-linejoin="round" stroke-miterlimit="3.864" enable-background="new    " d="
	M375.702,263.996"/>
<line opacity="0.75" fill="none" stroke="#FF0000" stroke-linecap="round" stroke-linejoin="round" stroke-miterlimit="3.864" stroke-dasharray="2,2" enable-background="new    " x1="432.629" y1="320.923" x2="399.287" y2="320.923"/>
<line opacity="0.75" fill="none" stroke="#0000FF" stroke-linecap="round" stroke-linejoin="round" stroke-miterlimit="3.864" enable-background="new    " x1="399.287" y1="320.923" x2="353.605" y2="366.605"/>
<line fill="none" stroke="#0000FF" stroke-linecap="round" stroke-linejoin="round" stroke-miterlimit="3.864" x1="410.567" y1="423.566" x2="428.263" y2="423.572"/>
<line fill="none" stroke="#FF0000" stroke-linecap="round" stroke-linejoin="round" stroke-miterlimit="3.864" stroke-dasharray="2,2" x1="418.008" y1="408.064" x2="406.413" y2="419.413"/>
<line fill="none" stroke="#0000FF" stroke-linecap="round" stroke-linejoin="round" stroke-miterlimit="3.864" x1="418.008" y1="408.064" x2="463.88" y2="476.88"/>
<line fill="none" stroke="#FF0000" stroke-linecap="round" stroke-linejoin="round" stroke-miterlimit="3.864" stroke-dasharray="2,2" x1="375.824" y1="264" x2="463.88" y2="227.249"/>
<line fill="none" stroke="#0000FF" stroke-linecap="round" stroke-linejoin="round" stroke-miterlimit="3.864" x1="375.824" y1="264" x2="339.549" y2="175.755"/>
<line fill="none" stroke="#FF0000" stroke-linecap="round" stroke-linejoin="round" stroke-miterlimit="3.864" stroke-dasharray="2,2" x1="423.826" y1="147.837" x2="463.88" y2="118.001"/>
<line fill="none" stroke="#0000FF" stroke-linecap="round" stroke-linejoin="round" stroke-miterlimit="3.864" x1="463.88" y1="118.001" x2="430.439" y2="84.561"/>
<line fill="none" stroke="#FF0000" stroke-linecap="round" stroke-linejoin="round" stroke-miterlimit="3.864" stroke-dasharray="2,2" x1="424.146" y1="147.064" x2="397.467" y2="117.533"/>
<line fill="none" stroke="#FF0000" stroke-linecap="round" stroke-linejoin="round" stroke-miterlimit="3.864" stroke-dasharray="2,2" x1="424.146" y1="147.064" x2="463.88" y2="168.913"/>
<line fill="none" stroke="#FF0000" stroke-linecap="round" stroke-linejoin="round" stroke-miterlimit="3.864" stroke-dasharray="2,2" x1="463.88" y1="118.001" x2="444.312" y2="70.687"/>
<line fill="none" stroke="#0000FF" stroke-linecap="round" stroke-linejoin="round" stroke-miterlimit="3.864" x1="424.146" y1="147.064" x2="463.88" y2="227.249"/>
<line fill="none" stroke="#FF0000" stroke-linecap="round" stroke-linejoin="round" stroke-miterlimit="3.864" stroke-dasharray="2,2" x1="412.178" y1="175.952" x2="432.567" y2="164.058"/>
<line fill="none" stroke="#0000FF" stroke-linecap="round" stroke-linejoin="round" stroke-miterlimit="3.864" x1="432.567" y1="164.058" x2="446.962" y2="159.61"/>
<line fill="none" stroke="#FF0000" stroke-linecap="round" stroke-linejoin="round" stroke-miterlimit="3.864" stroke-dasharray="2,2" x1="446.963" y1="159.61" x2="441.207" y2="134.89"/>
<line fill="none" stroke="#0000FF" stroke-linecap="round" stroke-linejoin="round" stroke-miterlimit="3.864" x1="441.207" y1="134.89" x2="433.049" y2="125.575"/>
<line fill="none" stroke="#FF0000" stroke-linecap="round" stroke-linejoin="round" stroke-miterlimit="3.864" stroke-dasharray="2,2" x1="433.049" y1="125.575" x2="397.467" y2="117.533"/>
<line fill="none" stroke="#0000FF" stroke-linecap="round" stroke-linejoin="round" stroke-miterlimit="3.864" x1="397.467" y1="117.533" x2="412.178" y2="175.952"/>
<line fill="none" stroke="#0000FF" stroke-linecap="round" stroke-linejoin="round" stroke-miterlimit="3.864" x1="444.352" y1="98.295" x2="463.88" y2="93.694"/>
<line fill="none" stroke="#FF0000" stroke-linecap="round" stroke-linejoin="round" stroke-miterlimit="3.864" stroke-dasharray="2,2" x1="262.33" y1="472.884" x2="149.13" y2="430.624"/>
<line fill="none" stroke="#0000FF" stroke-linecap="round" stroke-linejoin="round" stroke-miterlimit="3.864" x1="264.497" y1="471.581" x2="178.378" y2="418.875"/>
<line fill="none" stroke="#0000FF" stroke-linecap="round" stroke-linejoin="round" stroke-miterlimit="3.864" x1="262.314" y1="472.852" x2="261.771" y2="476.864"/>
<line fill="none" stroke="#FF0000" stroke-linecap="round" stroke-linejoin="round" stroke-miterlimit="3.864" stroke-dasharray="2,2" x1="264.497" y1="471.581" x2="264.804" y2="476.914"/>
<line fill="none" stroke="#0000FF" stroke-linecap="round" stroke-linejoin="round" stroke-miterlimit="3.864" x1="313.444" y1="326.444" x2="251" y2="264"/>
<line fill="none" stroke="#FF0000" stroke-linecap="round" stroke-linejoin="round" stroke-miterlimit="3.864" stroke-dasharray="2,2" x1="219.794" y1="295.206" x2="282.206" y2="357.618"/>
<line fill="none" stroke="#FF0000" stroke-linecap="round" stroke-linejoin="round" stroke-miterlimit="3.864" stroke-dasharray="2,2" x1="353.566" y1="366.566" x2="313.433" y2="326.434"/>
<line fill="none" stroke="#0000FF" stroke-linecap="round" stroke-linejoin="round" stroke-miterlimit="3.864" x1="322.398" y1="397.811" x2="282.206" y2="357.618"/>
<line fill="none" stroke="#FF0000" stroke-linecap="round" stroke-linejoin="round" stroke-miterlimit="3.864" stroke-dasharray="2,2" x1="322.398" y1="397.811" x2="357.161" y2="432.572"/>
<line fill="none" stroke="#0000FF" stroke-linecap="round" stroke-linejoin="round" stroke-miterlimit="3.864" x1="357.161" y1="432.572" x2="307.92" y2="432.572"/>
<line fill="none" stroke="#FF0000" stroke-linecap="round" stroke-linejoin="round" stroke-miterlimit="3.864" stroke-dasharray="2,2" x1="307.92" y1="432.572" x2="294.867" y2="432.572"/>
<line fill="none" stroke="#0000FF" stroke-linecap="round" stroke-linejoin="round" stroke-miterlimit="3.864" x1="294.867" y1="432.572" x2="294.867" y2="453.443"/>
<line fill="none" stroke="#FF0000" stroke-linecap="round" stroke-linejoin="round" stroke-miterlimit="3.864" stroke-dasharray="2,2" x1="338.627" y1="476.88" x2="294.867" y2="453.441"/>
<line fill="none" stroke="#0000FF" stroke-linecap="round" stroke-linejoin="round" stroke-miterlimit="3.864" x1="418.008" y1="408.064" x2="394.841" y2="407.827"/>
<line fill="none" stroke="#0000FF" stroke-linecap="round" stroke-linejoin="round" stroke-miterlimit="3.864" x1="394.753" y1="407.753" x2="353.555" y2="366.555"/>
<line fill="none" stroke="#FF0000" stroke-linecap="round" stroke-linejoin="round" stroke-miterlimit="3.864" stroke-dasharray="2,2" x1="463.936" y1="476.936" x2="410.743" y2="423.743"/>
<line fill="none" stroke="#FF0000" stroke-linecap="round" stroke-linejoin="round" stroke-miterlimit="3.864" stroke-dasharray="2,2" x1="406.248" y1="419.248" x2="394.742" y2="407.742"/>
<line fill="none" stroke="#0000FF" stroke-linecap="round" stroke-linejoin="round" stroke-miterlimit="3.864" x1="410.754" y1="423.754" x2="406.237" y2="419.237"/>
<line fill="none" stroke="#FF0000" stroke-linecap="round" stroke-linejoin="round" stroke-miterlimit="3.864" stroke-dasharray="2,2" x1="424.039" y1="147.401" x2="412.224" y2="175.861"/>
<line fill="none" stroke="#FF0000" stroke-linecap="round" stroke-linejoin="round" stroke-miterlimit="3.864" stroke-dasharray="2,2" x1="412.235" y1="175.872" x2="375.702" y2="263.996"/>
<line fill="none" stroke="#0000FF" stroke-linecap="round" stroke-linejoin="round" stroke-miterlimit="3.864" x1="444.336" y1="98.483" x2="432.96" y2="125.863"/>
<line fill="none" stroke="#0000FF" stroke-linecap="round" stroke-linejoin="round" stroke-miterlimit="3.864" x1="432.971" y1="125.874" x2="424.028" y2="147.391"/>
<line fill="none" stroke="#0000FF" stroke-linecap="round" stroke-linejoin="round" stroke-miterlimit="3.864" x1="307.923" y1="445.629" x2="251" y2="388.824"/>
<line fill="none" stroke="#0000FF" stroke-linecap="round" stroke-linejoin="round" stroke-miterlimit="3.864" x1="69.371" y1="207.077" x2="126.176" y2="264"/>
<line fill="none" stroke="#0000FF" stroke-linecap="round" stroke-linejoin="round" stroke-miterlimit="3.864" x1="194.077" y1="82.371" x2="251" y2="139.176"/>
<line fill="none" stroke="#0000FF" stroke-linecap="round" stroke-linejoin="round" stroke-miterlimit="3.864" x1="432.629" y1="320.923" x2="375.824" y2="264"/>
<line fill="none" stroke="#FFFF00" stroke-miterlimit="10" x1="126.176" y1="264" x2="204.401" y2="310.547"/>
<line fill="none" stroke="#FFFF00" stroke-miterlimit="10" x1="204.401" y1="310.547" x2="250.997" y2="388.702"/>
<line fill="none" stroke="#FFFF00" stroke-miterlimit="10" x1="255.629" y1="476.881" x2="245.028" y2="466.425"/>
<line fill="none" stroke="#FFFF00" stroke-miterlimit="10" x1="245.028" y1="466.425" x2="219.794" y2="476.936"/>
<line fill="none" stroke="#FFFF00" stroke-miterlimit="10" x1="219.794" y1="476.936" x2="197.665" y2="448.743"/>
<line fill="none" stroke="#FFFF00" stroke-miterlimit="10" x1="197.665" y1="448.743" x2="159.5" y2="476.936"/>
<line fill="none" stroke="#FFFF00" stroke-miterlimit="10" x1="159.5" y1="476.936" x2="149.387" y2="431.249"/>
<line fill="none" stroke="#FFFF00" stroke-miterlimit="10" x1="307.923" y1="445.629" x2="338.627" y2="476.88"/>
<line fill="none" stroke="#FFFF00" stroke-miterlimit="10" x1="338.627" y1="476.88" x2="350.158" y2="454.092"/>
<line fill="none" stroke="#FFFF00" stroke-miterlimit="10" x1="350.158" y1="454.092" x2="358.867" y2="476.881"/>
<line fill="none" stroke="#FFFF00" stroke-miterlimit="10" x1="366.99" y1="436.75" x2="350.158" y2="454.092"/>
<line fill="none" stroke="#FFFF00" stroke-miterlimit="10" x1="350.158" y1="454.092" x2="357.161" y2="432.572"/>
<line fill="none" stroke="#FFFF00" stroke-miterlimit="10" x1="307.92" y1="432.572" x2="350.158" y2="454.092"/>
<line fill="none" stroke="#FFFF00" stroke-miterlimit="10" x1="366.99" y1="436.75" x2="394.841" y2="407.826"/>
<line fill="none" stroke="#FFFF00" stroke-miterlimit="10" x1="357.161" y1="432.572" x2="394.841" y2="407.826"/>
<line fill="none" stroke="#FFFF00" stroke-miterlimit="10" x1="357.161" y1="432.572" x2="353.605" y2="366.605"/>
<line fill="none" stroke="#FFFF00" stroke-miterlimit="10" x1="353.605" y1="366.605" x2="423.75" y2="379.99"/>
<line fill="none" stroke="#FFFF00" stroke-miterlimit="10" x1="423.75" y1="379.99" x2="394.841" y2="407.826"/>
<line fill="none" stroke="#FFFF00" stroke-miterlimit="10" x1="432.854" y1="321.264" x2="464.104" y2="351.968"/>
<line fill="none" stroke="#FFFF00" stroke-miterlimit="10" x1="464.104" y1="351.968" x2="441.316" y2="363.499"/>
<line fill="none" stroke="#FFFF00" stroke-miterlimit="10" x1="441.316" y1="363.499" x2="464.105" y2="372.208"/>
<line fill="none" stroke="#FFFF00" stroke-miterlimit="10" x1="423.75" y1="379.99" x2="441.316" y2="363.499"/>
<line fill="none" stroke="#FFFF00" stroke-miterlimit="10" x1="399.287" y1="320.923" x2="441.316" y2="363.499"/>
<line fill="none" stroke="#FFFF00" stroke-miterlimit="10" x1="38.14" y1="259.371" x2="48.596" y2="269.972"/>
<line fill="none" stroke="#FFFF00" stroke-miterlimit="10" x1="48.596" y1="269.972" x2="38.085" y2="295.206"/>
<line fill="none" stroke="#FFFF00" stroke-miterlimit="10" x1="38.085" y1="295.206" x2="66.277" y2="317.335"/>
<line fill="none" stroke="#FFFF00" stroke-miterlimit="10" x1="66.277" y1="317.335" x2="38.085" y2="355.5"/>
<line fill="none" stroke="#FFFF00" stroke-miterlimit="10" x1="38.085" y1="355.5" x2="83.771" y2="365.613"/>
<line fill="none" stroke="#FFFF00" stroke-miterlimit="10" x1="69.372" y1="207.188" x2="38.121" y2="176.484"/>
<line fill="none" stroke="#FFFF00" stroke-miterlimit="10" x1="38.121" y1="176.484" x2="60.909" y2="164.953"/>
<line fill="none" stroke="#FFFF00" stroke-miterlimit="10" x1="60.909" y1="164.953" x2="38.12" y2="156.244"/>
<line fill="none" stroke="#FFFF00" stroke-miterlimit="10" x1="78.25" y1="148.121" x2="60.909" y2="164.953"/>
<line fill="none" stroke="#FFFF00" stroke-miterlimit="10" x1="60.909" y1="164.953" x2="82.428" y2="157.95"/>
<line fill="none" stroke="#FFFF00" stroke-miterlimit="10" x1="82.428" y1="207.191" x2="60.909" y2="164.953"/>
<line fill="none" stroke="#FFFF00" stroke-miterlimit="10" x1="78.25" y1="148.121" x2="107.174" y2="120.271"/>
<line fill="none" stroke="#FFFF00" stroke-miterlimit="10" x1="82.428" y1="157.95" x2="107.174" y2="120.271"/>
<line fill="none" stroke="#FFFF00" stroke-miterlimit="10" x1="82.428" y1="157.95" x2="148.395" y2="161.506"/>
<line fill="none" stroke="#FFFF00" stroke-miterlimit="10" x1="148.395" y1="161.506" x2="135.01" y2="91.361"/>
<line fill="none" stroke="#FFFF00" stroke-miterlimit="10" x1="135.01" y1="91.361" x2="107.174" y2="120.271"/>
<line fill="none" stroke="#FFFF00" stroke-miterlimit="10" x1="193.737" y1="82.258" x2="163.033" y2="51.007"/>
<line fill="none" stroke="#FFFF00" stroke-miterlimit="10" x1="163.033" y1="51.007" x2="151.501" y2="73.795"/>
<line fill="none" stroke="#FFFF00" stroke-miterlimit="10" x1="151.501" y1="73.795" x2="142.792" y2="51.006"/>
<line fill="none" stroke="#FFFF00" stroke-miterlimit="10" x1="135.01" y1="91.361" x2="151.501" y2="73.795"/>
<line fill="none" stroke="#FFFF00" stroke-miterlimit="10" x1="194.078" y1="115.824" x2="151.501" y2="73.795"/>
<line fill="none" stroke="#FFFF00" stroke-miterlimit="10" x1="264.497" y1="471.581" x2="281.775" y2="476.936"/>
<line fill="none" stroke="#FFFF00" stroke-miterlimit="10" x1="281.775" y1="476.936" x2="294.867" y2="453.443"/>
<line fill="none" stroke="#FFFF00" stroke-miterlimit="10" x1="43.448" y1="250.724" x2="38.093" y2="233.445"/>
<line fill="none" stroke="#FFFF00" stroke-miterlimit="10" x1="38.093" y1="233.445" x2="61.585" y2="220.354"/>
<line fill="none" stroke="#FFFF00" stroke-miterlimit="10" x1="262.33" y1="472.884" x2="261.102" y2="469.503"/>
<line fill="none" stroke="#FFFF00" stroke-miterlimit="10" x1="261.102" y1="469.503" x2="255.629" y2="470.382"/>
<line fill="none" stroke="#FFFF00" stroke-miterlimit="10" x1="255.629" y1="470.382" x2="252.637" y2="464.322"/>
<line fill="none" stroke="#FFFF00" stroke-miterlimit="10" x1="252.637" y1="464.322" x2="245.028" y2="466.425"/>
<line fill="none" stroke="#FFFF00" stroke-miterlimit="10" x1="245.028" y1="466.425" x2="239.355" y2="456.193"/>
<line fill="none" stroke="#FFFF00" stroke-miterlimit="10" x1="239.355" y1="456.193" x2="223.83" y2="458.511"/>
<line fill="none" stroke="#FFFF00" stroke-miterlimit="10" x1="223.83" y1="458.511" x2="219.794" y2="444.223"/>
<line fill="none" stroke="#FFFF00" stroke-miterlimit="10" x1="219.794" y1="444.223" x2="197.665" y2="448.743"/>
<line fill="none" stroke="#FFFF00" stroke-miterlimit="10" x1="197.665" y1="448.743" x2="178.378" y2="418.875"/>
<line fill="none" stroke="#FFFF00" stroke-miterlimit="10" x1="42.137" y1="252.67" x2="45.518" y2="253.898"/>
<line fill="none" stroke="#FFFF00" stroke-miterlimit="10" x1="45.518" y1="253.898" x2="44.639" y2="259.371"/>
<line fill="none" stroke="#FFFF00" stroke-miterlimit="10" x1="44.639" y1="259.371" x2="50.698" y2="262.363"/>
<line fill="none" stroke="#FFFF00" stroke-miterlimit="10" x1="50.698" y1="262.363" x2="48.596" y2="269.972"/>
<line fill="none" stroke="#FFFF00" stroke-miterlimit="10" x1="48.596" y1="269.972" x2="58.827" y2="275.645"/>
<line fill="none" stroke="#FFFF00" stroke-miterlimit="10" x1="58.827" y1="275.645" x2="56.51" y2="291.17"/>
<line fill="none" stroke="#FFFF00" stroke-miterlimit="10" x1="56.51" y1="291.17" x2="70.798" y2="295.206"/>
<line fill="none" stroke="#FFFF00" stroke-miterlimit="10" x1="70.798" y1="295.206" x2="66.277" y2="317.335"/>
<line fill="none" stroke="#FFFF00" stroke-miterlimit="10" x1="66.277" y1="317.335" x2="96.146" y2="336.622"/>
<line fill="none" stroke="#FFFF00" stroke-miterlimit="10" x1="61.557" y1="220.133" x2="45.518" y2="253.898"/>
<line fill="none" stroke="#FFFF00" stroke-miterlimit="10" x1="45.518" y1="253.898" x2="82.428" y2="220.133"/>
<line fill="none" stroke="#FFFF00" stroke-miterlimit="10" x1="82.428" y1="220.133" x2="50.698" y2="262.363"/>
<line fill="none" stroke="#FFFF00" stroke-miterlimit="10" x1="58.827" y1="275.645" x2="126.176" y2="264"/>
<line fill="none" stroke="#FFFF00" stroke-miterlimit="10" x1="126.176" y1="264" x2="70.798" y2="295.206"/>
<line fill="none" stroke="#FFFF00" stroke-miterlimit="10" x1="58.827" y1="275.645" x2="82.428" y2="220.133"/>
<line fill="none" stroke="#FFFF00" stroke-miterlimit="10" x1="261.102" y1="469.503" x2="294.867" y2="453.443"/>
<line fill="none" stroke="#FFFF00" stroke-miterlimit="10" x1="252.637" y1="464.322" x2="294.867" y2="432.572"/>
<line fill="none" stroke="#FFFF00" stroke-miterlimit="10" x1="252.637" y1="464.322" x2="294.867" y2="453.443"/>
<line fill="none" stroke="#FFFF00" stroke-miterlimit="10" x1="294.867" y1="432.572" x2="239.355" y2="456.193"/>
<line fill="none" stroke="#FFFF00" stroke-miterlimit="10" x1="239.355" y1="456.193" x2="251" y2="388.824"/>
<line fill="none" stroke="#FFFF00" stroke-miterlimit="10" x1="251" y1="388.824" x2="219.794" y2="444.223"/>
</svg>
