<?xml version="1.0" encoding="utf-8"?>
<!-- Generator: Adobe Illustrator 16.0.3, SVG Export Plug-In . SVG Version: 6.00 Build 0)  -->
<!DOCTYPE svg PUBLIC "-//W3C//DTD SVG 1.1//EN" "http://www.w3.org/Graphics/SVG/1.1/DTD/svg11.dtd">
<svg version="1.1" id="Layer_2" xmlns="http://www.w3.org/2000/svg" xmlns:xlink="http://www.w3.org/1999/xlink" x="0px" y="0px"
	 width="3456px" height="6912px" viewBox="0 0 3456 6912" enable-background="new 0 0 3456 6912" xml:space="preserve">
<path fill="none" stroke="#000000" stroke-miterlimit="10" d="M2109,3837h-762v-762h762V3837z"/>
<path fill="none" stroke="#ff0000" stroke-miterlimit="10" d="M1347,3837l762-762 M1347,3175.333l54.474,8.596 M1420.323,3148.323
	l-18.849,35.606 M1420.323,3148.323L1347,3075 M1588.568,3316.568l520.502,520.361 M1530.98,3442.9l-129.507-258.97
	 M1854.789,3328.936L1918.303,3456 M1455.93,3129.473l-8.596-54.473 M1455.93,3129.473l-35.606,18.85 M1455.93,3129.473
	l258.971,129.508 M1727.941,3646.303l-127.005-63.514"/>
<path fill="none" stroke="#0000ff" stroke-miterlimit="10" d="M1728,3455.859v190.444 M1347,3402.593l183.98,40.307
	 M1588.568,3316.568L1530.98,3442.9 M1600.937,3582.789L1530.98,3442.9 M1401.474,3183.93L1347,3075 M1420.323,3148.323
	l168.246,168.246 M1918.303,3456H1727.86 M1918.303,3455.858L2109,3075 M1674.593,3075l40.308,183.98 M1714.901,3258.98
	l-126.332,57.588 M1714.901,3258.98l139.888,69.955 M1455.93,3129.473L1347,3075 M1347,3837l380.941-190.697 M1982.401,3836.93
	l-254.46-190.627 M2108.965,3710.019l-190.627-254.46"/>
</svg>
