<?xml version="1.0" encoding="utf-8"?>
<!-- Generator: Adobe Illustrator 16.0.3, SVG Export Plug-In . SVG Version: 6.00 Build 0)  -->
<!DOCTYPE svg PUBLIC "-//W3C//DTD SVG 1.1//EN" "http://www.w3.org/Graphics/SVG/1.1/DTD/svg11.dtd">
<svg version="1.1" id="Layer_1" xmlns="http://www.w3.org/2000/svg" xmlns:xlink="http://www.w3.org/1999/xlink" x="0px" y="0px"
	 width="400px" height="400px" viewBox="0 0 400 400" enable-background="new 0 0 400 400" xml:space="preserve">
<path fill="none" stroke="#0000FF" stroke-linecap="round" stroke-miterlimit="10" d="M150.82,88.47l36,62.351 M213.18,249.18
	l36,62.352 M249.18,186.82l62.352-36 M150.82,213.18l-62.351,36 M186.82,150.82l62.359,36 M186.82,150.82l-36,62.359 M213.18,249.18
	l36-62.359 M213.18,249.18l-62.36-36"/>
<path fill="none" stroke="#000000" stroke-linecap="round" stroke-miterlimit="10" d="M124.47,186.82l-36-62.351 M124.47,186.82
	l-36,62.359 M88.47,249.18l36,62.352 M150.82,88.47l-62.351,36 M150.82,88.47l62.359,36 M213.18,124.47l62.352-36 M275.53,88.47
	l36,62.351 M311.53,150.82l-36,62.359 M275.53,213.18l36,62.352 M311.53,275.53l-62.352,36 M249.18,311.53l-62.36-36 M186.82,275.53
	l-62.351,36"/>
<path fill="none" stroke="#FF0000" stroke-linecap="round" stroke-miterlimit="10" d="M186.82,150.82l-62.351,36"/>
<path fill="none" stroke="#FF0000" stroke-linecap="round" stroke-miterlimit="10" d="M213.18,249.18l62.352-36"/>
<path fill="none" stroke="#FF0000" stroke-linecap="round" stroke-miterlimit="10" d="M213.18,124.47l36,62.351"/>
<path fill="none" stroke="#FF0000" stroke-linecap="round" stroke-miterlimit="10" d="M150.82,213.18l36,62.352"/>
</svg>
