<?xml version="1.0" encoding="utf-8"?>
<!-- Generator: Adobe Illustrator 16.0.3, SVG Export Plug-In . SVG Version: 6.00 Build 0)  -->
<!DOCTYPE svg PUBLIC "-//W3C//DTD SVG 1.1//EN" "http://www.w3.org/Graphics/SVG/1.1/DTD/svg11.dtd">
<svg version="1.1" id="Layer_1" xmlns="http://www.w3.org/2000/svg" xmlns:xlink="http://www.w3.org/1999/xlink" x="0px" y="0px"
	 width="700px" height="700px" viewBox="0 0 700 700" enable-background="new 0 0 700 700" xml:space="preserve">
<path fill="none" stroke="#000000" stroke-linecap="round" stroke-miterlimit="10" d="M2.36,21L21,90.54 M21,90.54L2.36,160.09
	 M2.36,160.09L21,229.64 M71.91,2.36L2.36,21 M141.46,21L71.91,2.36 M141.46,21L211,2.36 M211,2.36l18.64,69.55 M229.64,71.91
	L211,141.46 M211,141.46L229.64,211 M229.64,211l-69.55,18.64 M160.09,229.64L90.54,211 M90.54,211L21,229.64"/>
<path fill="none" stroke="#000000" stroke-linecap="round" stroke-miterlimit="10" d="M235.2,23.1L256.1,92 M256.1,92l-20.9,68.9
	 M235.2,160.9l20.9,68.9 M304.1,2.2l-68.9,20.9 M304.1,2.2L373,23.1 M373,23.1l68.9-20.9 M462.8,71.1L441.9,2.2 M462.8,71.1
	L441.9,140 M462.8,208.9L441.9,140 M393.9,229.8l68.898-20.9 M325,208.9l68.9,20.9 M325,208.9l-68.9,20.9"/>
<path fill="none" stroke="#000000" stroke-linecap="round" stroke-miterlimit="10" d="M491.3,93.48L468.16,25.3 M468.16,161.66
	l23.14-68.18 M491.3,229.84l-23.14-68.18 M536.34,2.16L468.16,25.3 M604.52,25.3L536.34,2.16 M604.52,25.3L672.7,2.16 M672.7,2.16
	l23.14,68.18 M695.84,70.34l-23.14,68.18 M672.7,138.52l23.14,68.18 M627.66,229.84l68.18-23.14 M627.66,229.84l-68.18-23.14
	 M491.3,229.84l68.181-23.14"/>
<path fill="none" stroke="#000000" stroke-linecap="round" stroke-miterlimit="10" d="M2.24,260.6l25.36,67.39 M27.6,327.99
	L2.24,395.37 M2.24,395.37l25.36,67.39 M69.63,235.24L2.24,260.6 M137.01,260.6l-67.38-25.36 M137.01,260.6l67.39-25.36
	 M204.4,235.24l25.36,67.39 M229.76,302.63l-25.36,67.38 M229.76,437.4L204.4,370.01 M229.76,437.4l-67.39,25.358 M94.99,437.4
	l67.38,25.358 M27.6,462.76L94.99,437.4"/>
<path fill="none" stroke="#000000" stroke-linecap="round" stroke-miterlimit="10" d="M263,329.52L235.44,263 M263,329.52
	l-27.56,66.52 M235.44,396.04L263,462.561 M301.96,235.44L235.44,263 M301.96,235.44L368.48,263 M368.48,263L435,235.44 M435,235.44
	l27.561,66.52 M462.561,301.96L435,368.48 M435,368.48L462.561,435 M462.561,435l-66.521,27.561 M396.04,462.561L329.52,435
	 M329.52,435L263,462.561"/>
<path fill="none" stroke="#000000" stroke-linecap="round" stroke-miterlimit="10" d="M468.77,265.48l29.711,65.59 M498.48,331.07
	l-29.711,65.58 M468.77,396.65l29.711,65.58 M534.35,235.77l-65.58,29.71 M534.35,235.77l65.58,29.71 M599.93,265.48l65.59-29.71
	 M665.52,235.77l29.711,65.58 M695.23,301.35l-29.711,65.58 M665.52,366.93l29.711,65.59 M695.23,432.52l-65.58,29.711
	 M629.65,462.23l-65.58-29.711 M564.07,432.52l-65.59,29.711"/>
<path fill="none" stroke="#000000" stroke-linecap="round" stroke-miterlimit="10" d="M3.22,501.061l31.84,64.569 M35.06,565.63
	L3.22,630.21 M3.22,630.21l31.84,64.57 M3.22,501.061l64.57-31.841 M67.79,469.22l64.58,31.841 M196.94,469.22l-64.57,31.841
	 M196.94,469.22l31.84,64.57 M228.78,533.79l-31.84,64.58 M196.94,598.37l31.84,64.569 M228.78,662.939l-64.57,31.841
	 M99.63,662.939l64.58,31.841 M99.63,662.939L35.06,694.78"/>
<path fill="none" stroke="#000000" stroke-linecap="round" stroke-miterlimit="10" d="M236.78,503.72l33.939,63.5 M270.72,567.22
	l-33.939,63.5 M270.72,694.22l-33.939-63.5 M236.78,503.72l63.5-33.938 M300.28,469.78l63.5,33.938 M363.78,503.72l63.5-33.938
	 M461.22,533.28l-33.938-63.5 M461.22,533.28l-33.938,63.5 M461.22,660.28l-33.938-63.5 M397.72,694.22l63.5-33.938 M334.22,660.28
	l63.5,33.938 M334.22,660.28l-63.5,33.938"/>
<path fill="none" stroke="#0000FF" stroke-linecap="round" stroke-miterlimit="10" d="M71.91,2.36l18.63,69.55 M141.46,160.09
	l18.63,69.55 M160.09,90.54l69.55-18.63 M2.36,160.09l69.55-18.63 M160.09,90.54L90.54,71.91 M71.91,141.46l18.63-69.55
	 M160.09,90.54l-18.63,69.55 M71.91,141.46l69.55,18.63 M325,71.1L304.1,2.2 M373,160.9l20.9,68.9 M393.9,92L462.8,71.1 M304.1,140
	l-68.9,20.9 M325,71.1L393.9,92 M325,71.1L304.1,140 M373,160.9L393.9,92 M373,160.9L304.1,140 M559.48,70.34L536.34,2.16
	 M604.52,161.66l23.142,68.18 M627.66,93.48l68.18-23.14 M536.34,138.52l-68.18,23.14 M559.48,70.34l68.18,23.14 M536.34,138.52
	l23.141-68.18 M604.52,161.66l23.142-68.18 M604.52,161.66l-68.18-23.14 M94.99,302.63l-25.36-67.39 M137.01,395.37l25.36,67.39
	 M229.76,302.63l-67.39,25.36 M69.63,370.01L2.24,395.37 M162.37,327.99l-67.38-25.36 M69.63,370.01l25.36-67.38 M137.01,395.37
	l25.36-67.38 M69.63,370.01l67.38,25.36 M329.52,301.96l-27.56-66.52 M368.48,396.04l27.56,66.521 M396.04,329.52l66.521-27.56
	 M301.96,368.48l-66.52,27.56 M329.52,301.96l66.521,27.56 M329.52,301.96l-27.56,66.521 M368.48,396.04l27.56-66.52 M301.96,368.48
	l66.521,27.56 M534.35,235.77l29.722,65.58 M599.93,396.65l29.721,65.58 M695.23,301.35l-65.58,29.72 M534.35,366.93l-65.58,29.721
	 M564.07,301.35l65.58,29.72 M564.07,301.35l-29.722,65.58 M599.93,396.65l29.721-65.581 M599.93,396.65l-65.58-29.722
	 M99.63,533.79l-31.84-64.57 M132.37,630.21l31.84,64.57 M164.21,565.641l64.57-31.851 M67.79,598.359L3.22,630.21 M99.63,533.79
	l64.58,31.85 M99.63,533.79l-31.84,64.569 M132.37,630.21l31.84-64.569 M67.79,598.359l64.58,31.851 M300.28,469.78l33.939,63.5
	 M397.72,694.22l-33.938-63.5 M461.22,533.28l-63.5,33.938 M236.78,630.72l63.5-33.938 M397.72,567.22l-63.5-33.938 M334.22,533.28
	l-33.939,63.5 M363.78,630.72l33.938-63.5 M363.78,630.72l-63.5-33.938 M532.82,470.47l36,62.352 M631.18,693.53l-36-62.352
	 M693.53,532.82l-62.352,36 M532.82,595.18l-62.352,36 M568.82,532.82l62.358,36 M568.82,532.82l-36,62.358 M595.18,631.18
	l36-62.358 M595.18,631.18l-62.358-36"/>
<path fill="none" stroke="#000000" stroke-linecap="round" stroke-miterlimit="10" d="M470.47,506.47l36,62.352 M506.47,568.82
	l-36,62.358 M470.47,631.18l36,62.352 M532.82,470.47l-62.352,36 M532.82,470.47l62.358,36 M595.18,506.47l62.352-36 M657.53,470.47
	l36,62.352 M693.53,532.82l-36,62.358 M657.53,595.18l36,62.352 M693.53,657.53l-62.352,36 M631.18,693.53l-62.358-36
	 M568.82,657.53l-62.352,36"/>
<path fill="none" stroke="#FF0000" stroke-linecap="round" stroke-miterlimit="10" d="M90.54,71.91L21,90.54 M141.46,160.09
	L211,141.46 M141.46,21l18.63,69.54 M71.91,141.46L90.54,211 M325,71.1L256.1,92 M373,160.9l68.9-20.9 M393.9,92L373,23.1
	 M304.1,140l20.9,68.9 M559.48,70.34L491.3,93.48 M604.52,161.66l68.182-23.14 M627.66,93.48L604.52,25.3 M536.34,138.52
	l23.141,68.18 M27.6,327.99l67.39-25.36 M137.01,395.37l67.39-25.36 M162.37,327.99l-25.36-67.39 M69.63,370.01L94.99,437.4
	 M329.52,301.96L263,329.52 M368.48,396.04L435,368.48 M396.04,329.52L368.48,263 M301.96,368.48L329.52,435 M564.07,301.35
	l-65.59,29.72 M599.93,396.65l65.59-29.722 M629.65,331.07l-29.722-65.59 M534.35,366.93l29.722,65.59 M99.63,533.79l-64.57,31.84
	 M132.37,630.21l64.57-31.84 M164.21,565.641l-31.84-64.58 M67.79,598.359l31.84,64.58 M334.22,533.28l-63.5,33.938 M363.78,630.72
	l63.5-33.938 M363.78,503.72l33.938,63.5 M300.28,596.78l33.939,63.5 M568.82,532.82l-62.352,36 M657.53,595.18l-62.352,36
	 M595.18,506.47l36,62.352 M568.82,657.53l-36-62.352"/>
</svg>
