<?xml version="1.0" encoding="utf-8"?>
<!-- Generator: Adobe Illustrator 16.0.3, SVG Export Plug-In . SVG Version: 6.00 Build 0)  -->
<!DOCTYPE svg PUBLIC "-//W3C//DTD SVG 1.1//EN" "http://www.w3.org/Graphics/SVG/1.1/DTD/svg11.dtd">
<svg version="1.1" id="Layer_1" xmlns="http://www.w3.org/2000/svg" xmlns:xlink="http://www.w3.org/1999/xlink" x="0px" y="0px"
	 width="3456px" height="6912px" viewBox="0 0 3456 6912" enable-background="new 0 0 3456 6912" xml:space="preserve">
<rect x="428.459" y="288" fill="none" stroke="#000000" stroke-miterlimit="10" width="588.544" height="588.544"/>
<line fill="none" stroke="#0000FF" stroke-miterlimit="10" x1="938.053" y1="479.634" x2="1017.003" y2="876.544"/>
<line fill="none" stroke="#0000FF" stroke-miterlimit="10" x1="722.732" y1="409.896" x2="895.114" y2="582.273"/>
<line fill="none" stroke="#0000FF" stroke-miterlimit="10" x1="820.379" y1="582.273" x2="850.312" y2="537.477"/>
<line fill="none" stroke="#0000FF" stroke-miterlimit="10" x1="620.092" y1="797.594" x2="1017.003" y2="876.545"/>
<line fill="none" stroke="#0000FF" stroke-miterlimit="10" x1="550.35" y1="582.273" x2="722.729" y2="754.655"/>
<line fill="none" stroke="#0000FF" stroke-miterlimit="10" x1="722.729" y1="679.921" x2="677.929" y2="709.855"/>
<line fill="none" stroke="#0000FF" stroke-miterlimit="10" x1="825.371" y1="366.956" x2="428.46" y2="288.006"/>
<line fill="none" stroke="#0000FF" stroke-miterlimit="10" x1="507.41" y1="684.917" x2="428.459" y2="288.006"/>
<line fill="none" stroke="#0000FF" stroke-miterlimit="10" x1="722.73" y1="484.628" x2="767.53" y2="454.693"/>
<line opacity="0.75" fill="none" stroke="#0000FF" stroke-miterlimit="10" enable-background="new    " x1="963.363" y1="606.888" x2="895.111" y2="582.271"/>
<line fill="none" stroke="#0000FF" stroke-miterlimit="10" x1="864.253" y1="647.938" x2="808.919" y2="668.463"/>
<line opacity="0.75" fill="none" stroke="#0000FF" stroke-miterlimit="10" enable-background="new    " x1="747.347" y1="822.905" x2="722.73" y2="754.652"/>
<line fill="none" stroke="#0000FF" stroke-miterlimit="10" x1="788.398" y1="723.796" x2="808.922" y2="668.462"/>
<line opacity="0.75" fill="none" stroke="#0000FF" stroke-miterlimit="10" enable-background="new    " x1="698.112" y1="341.638" x2="722.729" y2="409.893"/>
<line fill="none" stroke="#0000FF" stroke-miterlimit="10" x1="657.061" y1="440.747" x2="636.536" y2="496.081"/>
<line opacity="0.75" fill="none" stroke="#0000FF" stroke-miterlimit="10" enable-background="new    " x1="482.094" y1="557.654" x2="550.347" y2="582.27"/>
<line fill="none" stroke="#0000FF" stroke-miterlimit="10" x1="581.203" y1="516.602" x2="636.537" y2="496.078"/>
<line fill="none" stroke="#0000FF" stroke-miterlimit="10" x1="625.084" y1="582.278" x2="595.15" y2="627.077"/>
<line opacity="0.25" fill="none" stroke="#0000FF" stroke-miterlimit="10" enable-background="new    " x1="667.02" y1="777.73" x2="640.229" y2="767.016"/>
<line opacity="0.25" fill="none" stroke="#0000FF" stroke-miterlimit="10" enable-background="new    " x1="655.491" y1="876.546" x2="655.491" y2="804.363"/>
<line opacity="0.25" fill="none" stroke="#0000FF" stroke-miterlimit="10" enable-background="new    " x1="527.273" y1="638.143" x2="537.99" y2="664.934"/>
<line opacity="0.25" fill="none" stroke="#0000FF" stroke-miterlimit="10" enable-background="new    " x1="428.459" y1="649.672" x2="500.642" y2="649.672"/>
<line opacity="0.25" fill="none" stroke="#0000FF" stroke-miterlimit="10" enable-background="new    " x1="918.188" y1="526.561" x2="907.473" y2="499.77"/>
<line opacity="0.25" fill="none" stroke="#0000FF" stroke-miterlimit="10" enable-background="new    " x1="1017.004" y1="515.032" x2="944.821" y2="515.032"/>
<line opacity="0.25" fill="none" stroke="#0000FF" stroke-miterlimit="10" enable-background="new    " x1="778.602" y1="386.815" x2="805.393" y2="397.531"/>
<line opacity="0.25" fill="none" stroke="#0000FF" stroke-miterlimit="10" enable-background="new    " x1="790.13" y1="288" x2="790.13" y2="360.183"/>
<line fill="none" stroke="#0000FF" stroke-miterlimit="10" x1="518.688" y1="287.887" x2="511.175" y2="304.255"/>
<line fill="none" stroke="#0000FF" stroke-miterlimit="10" x1="519.202" y1="325.592" x2="498.723" y2="335.215"/>
<line fill="none" stroke="#0000FF" stroke-miterlimit="10" x1="445.062" y1="371.632" x2="428.463" y2="379.25"/>
<line fill="none" stroke="#FF0000" stroke-miterlimit="10" x1="808.917" y1="668.458" x2="1017.003" y2="876.544"/>
<line fill="none" stroke="#FF0000" stroke-miterlimit="10" x1="492.704" y1="352.245" x2="636.54" y2="496.081"/>
<line opacity="0.25" fill="none" stroke="#FF0000" stroke-miterlimit="10" x1="625.084" y1="582.271" x2="820.383" y2="582.271"/>
<line opacity="0.25" fill="none" stroke="#FF0000" stroke-miterlimit="10" x1="722.732" y1="484.628" x2="722.732" y2="679.921"/>
<line fill="none" stroke="#FF0000" stroke-miterlimit="10" x1="895.114" y1="582.273" x2="1017.003" y2="876.544"/>
<line fill="none" stroke="#FF0000" stroke-miterlimit="10" x1="820.379" y1="582.273" x2="1017.003" y2="876.545"/>
<line fill="none" stroke="#FF0000" stroke-miterlimit="10" x1="895.114" y1="582.273" x2="1017.004" y2="288.006"/>
<line fill="none" stroke="#FF0000" stroke-miterlimit="10" x1="722.732" y1="409.896" x2="1017.001" y2="288.006"/>
<line fill="none" stroke="#FF0000" stroke-miterlimit="10" x1="850.312" y1="537.477" x2="938.053" y2="479.634"/>
<line fill="none" stroke="#FF0000" stroke-miterlimit="10" x1="722.734" y1="754.654" x2="1017.003" y2="876.545"/>
<line fill="none" stroke="#FF0000" stroke-miterlimit="10" x1="722.734" y1="679.92" x2="1017.003" y2="876.545"/>
<line fill="none" stroke="#FF0000" stroke-miterlimit="10" x1="722.729" y1="754.655" x2="428.459" y2="876.546"/>
<line fill="none" stroke="#FF0000" stroke-miterlimit="10" x1="550.35" y1="582.273" x2="428.459" y2="876.543"/>
<line fill="none" stroke="#FF0000" stroke-miterlimit="10" x1="677.929" y1="709.855" x2="620.087" y2="797.595"/>
<line fill="none" stroke="#FF0000" stroke-miterlimit="10" x1="722.729" y1="409.896" x2="428.46" y2="288.006"/>
<line fill="none" stroke="#FF0000" stroke-miterlimit="10" x1="722.729" y1="484.63" x2="428.46" y2="288.006"/>
<line fill="none" stroke="#FF0000" stroke-miterlimit="10" x1="550.35" y1="582.275" x2="428.459" y2="288.006"/>
<line fill="none" stroke="#FF0000" stroke-miterlimit="10" x1="625.085" y1="582.275" x2="428.459" y2="288.006"/>
<line fill="none" stroke="#FF0000" stroke-miterlimit="10" x1="767.53" y1="454.693" x2="825.371" y2="366.953"/>
<line opacity="0.75" fill="none" stroke="#FF0000" stroke-miterlimit="10" enable-background="new    " x1="1017.001" y1="582.27" x2="963.363" y2="606.888"/>
<line fill="none" stroke="#FF0000" stroke-miterlimit="10" x1="895.111" y1="582.271" x2="864.253" y2="647.938"/>
<line opacity="0.75" fill="none" stroke="#FF0000" stroke-miterlimit="10" enable-background="new    " x1="722.729" y1="876.543" x2="747.347" y2="822.905"/>
<line fill="none" stroke="#FF0000" stroke-miterlimit="10" x1="722.73" y1="754.652" x2="788.398" y2="723.796"/>
<line opacity="0.75" fill="none" stroke="#FF0000" stroke-miterlimit="10" enable-background="new    " x1="722.729" y1="288" x2="698.112" y2="341.638"/>
<line fill="none" stroke="#FF0000" stroke-miterlimit="10" x1="722.729" y1="409.893" x2="657.061" y2="440.747"/>
<line opacity="0.75" fill="none" stroke="#FF0000" stroke-miterlimit="10" enable-background="new    " x1="428.456" y1="582.271" x2="482.094" y2="557.654"/>
<line fill="none" stroke="#FF0000" stroke-miterlimit="10" x1="550.347" y1="582.27" x2="581.203" y2="516.602"/>
<line fill="none" stroke="#FF0000" stroke-miterlimit="10" x1="595.15" y1="627.077" x2="507.41" y2="684.919"/>
<line opacity="0.25" fill="none" stroke="#FF0000" stroke-miterlimit="10" enable-background="new    " x1="538.146" y1="664.934" x2="640.229" y2="767.016"/>
<line opacity="0.25" fill="none" stroke="#FF0000" stroke-miterlimit="10" enable-background="new    " x1="667.02" y1="777.73" x2="655.491" y2="804.628"/>
<line opacity="0.25" fill="none" stroke="#FF0000" stroke-miterlimit="10" enable-background="new    " x1="527.273" y1="638.143" x2="500.376" y2="649.672"/>
<line opacity="0.25" fill="none" stroke="#FF0000" stroke-miterlimit="10" enable-background="new    " x1="805.393" y1="397.688" x2="907.473" y2="499.77"/>
<line opacity="0.25" fill="none" stroke="#FF0000" stroke-miterlimit="10" enable-background="new    " x1="918.188" y1="526.561" x2="945.086" y2="515.032"/>
<line opacity="0.25" fill="none" stroke="#FF0000" stroke-miterlimit="10" enable-background="new    " x1="778.602" y1="386.815" x2="790.13" y2="359.917"/>
<line fill="none" stroke="#FF0000" stroke-miterlimit="10" x1="511.175" y1="304.255" x2="519.202" y2="325.592"/>
<line fill="none" stroke="#FF0000" stroke-miterlimit="10" x1="498.723" y1="335.215" x2="492.704" y2="352.151"/>
<line fill="none" stroke="#FF0000" stroke-miterlimit="10" x1="475.727" y1="358.708" x2="492.705" y2="352.146"/>
<line fill="none" stroke="#FF0000" stroke-miterlimit="10" x1="466.219" y1="378.938" x2="445.062" y2="371.632"/>
<line fill="none" stroke="#0000FF" stroke-miterlimit="10" x1="475.727" y1="358.708" x2="466.219" y2="378.939"/>
<line fill="none" stroke="#0000FF" stroke-miterlimit="10" x1="492.704" y1="352.245" x2="428.459" y2="288"/>
<line fill="none" stroke="#FFFF00" stroke-miterlimit="10" x1="625.085" y1="582.275" x2="722.734" y2="679.92"/>
<line fill="none" stroke="#FFFF00" stroke-miterlimit="10" x1="722.729" y1="484.63" x2="820.379" y2="582.273"/>
<line fill="none" stroke="#FFFF00" stroke-miterlimit="10" x1="722.734" y1="679.92" x2="808.922" y2="668.462"/>
<line fill="none" stroke="#FFFF00" stroke-miterlimit="10" x1="808.922" y1="668.462" x2="820.379" y2="582.273"/>
<line fill="none" stroke="#FFFF00" stroke-miterlimit="10" x1="722.729" y1="484.63" x2="636.537" y2="496.078"/>
<line fill="none" stroke="#FFFF00" stroke-miterlimit="10" x1="636.537" y1="496.078" x2="625.085" y2="582.275"/>
<line fill="none" stroke="#FF0000" stroke-miterlimit="10" x1="722.73" y1="484.628" x2="722.732" y2="409.896"/>
<line opacity="0.5" fill="none" stroke="#0000FF" stroke-miterlimit="10" x1="636.537" y1="496.078" x2="808.919" y2="668.463"/>
<line fill="none" stroke="#FF0000" stroke-miterlimit="10" x1="625.084" y1="582.278" x2="550.35" y2="582.273"/>
<line fill="none" stroke="#FF0000" stroke-miterlimit="10" x1="820.379" y1="582.273" x2="895.114" y2="582.273"/>
<line fill="none" stroke="#FFFF00" stroke-miterlimit="10" x1="428.459" y1="876.544" x2="537.99" y2="664.934"/>
<line fill="none" stroke="#FFFF00" stroke-miterlimit="10" x1="640.229" y1="767.016" x2="428.459" y2="876.544"/>
<line fill="none" stroke="#FFFF00" stroke-miterlimit="10" x1="907.473" y1="499.77" x2="1017.003" y2="288"/>
<line fill="none" stroke="#FFFF00" stroke-miterlimit="10" x1="805.393" y1="397.531" x2="1017.003" y2="288"/>
<line fill="none" stroke="#FF0000" stroke-miterlimit="10" x1="722.734" y1="679.92" x2="722.73" y2="754.652"/>
</svg>
