<?xml version="1.0" encoding="utf-8"?>
<!-- Generator: Adobe Illustrator 16.0.3, SVG Export Plug-In . SVG Version: 6.00 Build 0)  -->
<!DOCTYPE svg PUBLIC "-//W3C//DTD SVG 1.1//EN" "http://www.w3.org/Graphics/SVG/1.1/DTD/svg11.dtd">
<svg version="1.1" id="Layer_1" xmlns="http://www.w3.org/2000/svg" xmlns:xlink="http://www.w3.org/1999/xlink" x="0px" y="0px"
	 width="3456px" height="6912px" viewBox="0 0 3456 6912" enable-background="new 0 0 3456 6912" xml:space="preserve">
<line fill="none" stroke="#FF0000" stroke-miterlimit="10" x1="1315.521" y1="1883.555" x2="1273.951" y2="1811.555"/>
<line fill="none" stroke="#FF0000" stroke-miterlimit="10" x1="1398.659" y1="2243.555" x2="1273.951" y2="2315.555"/>
<line fill="none" stroke="#FF0000" stroke-miterlimit="10" x1="1273.951" y1="2315.555" x2="1211.598" y2="2351.555"/>
<line fill="none" stroke="#FF0000" stroke-miterlimit="10" x1="1731.213" y1="1955.555" x2="1772.782" y2="1883.555"/>
<line fill="none" stroke="#FF0000" stroke-miterlimit="10" x1="1689.645" y1="2027.555" x2="1731.213" y2="1955.555"/>
<line fill="none" stroke="#FF0000" stroke-miterlimit="10" x1="1648.075" y1="2099.555" x2="1689.645" y2="2027.555"/>
<line fill="none" stroke="#FF0000" stroke-miterlimit="10" x1="1398.659" y1="2027.555" x2="1357.09" y2="1955.555"/>
<line fill="none" stroke="#FF0000" stroke-miterlimit="10" x1="1149.244" y1="2027.555" x2="1086.891" y2="1991.555"/>
<line fill="none" stroke="#FF0000" stroke-miterlimit="10" x1="1211.598" y1="2063.555" x2="1149.244" y2="2027.555"/>
<line fill="none" stroke="#FF0000" stroke-miterlimit="10" x1="1273.951" y1="2099.555" x2="1211.598" y2="2063.555"/>
<line fill="none" stroke="#FF0000" stroke-miterlimit="10" x1="1523.367" y1="1883.555" x2="1523.367" y2="1811.555"/>
<line fill="none" stroke="#FF0000" stroke-miterlimit="10" x1="1523.367" y1="1955.555" x2="1523.367" y2="1883.555"/>
<line fill="none" stroke="#FF0000" stroke-miterlimit="10" x1="1523.367" y1="2027.555" x2="1523.367" y2="1955.555"/>
<line fill="none" stroke="#FF0000" stroke-miterlimit="10" x1="1523.367" y1="2099.555" x2="1523.367" y2="2027.555"/>
<line fill="none" stroke="#FF0000" stroke-miterlimit="10" x1="1523.367" y1="2243.555" x2="1523.367" y2="2099.555"/>
<line fill="none" stroke="#FF0000" stroke-miterlimit="10" x1="1211.598" y1="2351.555" x2="1149.244" y2="2387.555"/>
<line fill="none" stroke="#FF0000" stroke-miterlimit="10" x1="1149.244" y1="2387.555" x2="1086.891" y2="2423.555"/>
<line fill="none" stroke="#FF0000" stroke-miterlimit="10" x1="1086.891" y1="2423.555" x2="1024.537" y2="2459.555"/>
<line fill="none" stroke="#FF0000" stroke-miterlimit="10" x1="1336.307" y1="2135.555" x2="1273.951" y2="2099.555"/>
<line fill="none" stroke="#FF0000" stroke-miterlimit="10" x1="1461.013" y1="2207.555" x2="1336.307" y2="2135.555"/>
<line fill="none" stroke="#FF0000" stroke-miterlimit="10" x1="1398.659" y1="2315.555" x2="1398.659" y2="2459.555"/>
<line fill="none" stroke="#FF0000" stroke-miterlimit="10" x1="1606.505" y1="2675.555" x2="1648.075" y2="2747.555"/>
<line fill="none" stroke="#FF0000" stroke-miterlimit="10" x1="1564.938" y1="2603.555" x2="1606.505" y2="2675.555"/>
<line fill="none" stroke="#FF0000" stroke-miterlimit="10" x1="1211.598" y1="2207.555" x2="1128.459" y2="2207.555"/>
<line fill="none" stroke="#FF0000" stroke-miterlimit="10" x1="1128.459" y1="2207.555" x2="1045.321" y2="2207.555"/>
<line fill="none" stroke="#FF0000" stroke-miterlimit="10" x1="1045.321" y1="2207.555" x2="962.184" y2="2207.555"/>
<line fill="none" stroke="#FF0000" stroke-miterlimit="10" x1="1523.367" y1="2531.555" x2="1564.938" y2="2603.555"/>
<line fill="none" stroke="#FF0000" stroke-miterlimit="10" x1="1398.659" y1="2459.555" x2="1398.659" y2="2531.555"/>
<line fill="none" stroke="#FF0000" stroke-miterlimit="10" x1="1398.659" y1="2531.555" x2="1398.659" y2="2603.555"/>
<line fill="none" stroke="#FF0000" stroke-miterlimit="10" x1="1190.812" y1="2603.555" x2="1149.244" y2="2675.555"/>
<line fill="none" stroke="#FF0000" stroke-miterlimit="10" x1="1461.013" y1="2351.555" x2="1585.721" y2="2423.555"/>
<line fill="none" stroke="#FF0000" stroke-miterlimit="10" x1="1585.721" y1="2423.555" x2="1648.075" y2="2459.555"/>
<line fill="none" stroke="#FF0000" stroke-miterlimit="10" x1="1648.075" y1="2459.555" x2="1710.429" y2="2495.555"/>
<line fill="none" stroke="#FF0000" stroke-miterlimit="10" x1="1710.429" y1="2495.555" x2="1772.782" y2="2531.555"/>
<line fill="none" stroke="#FF0000" stroke-miterlimit="10" x1="1772.782" y1="2531.555" x2="1835.137" y2="2567.555"/>
<line fill="none" stroke="#FF0000" stroke-miterlimit="10" x1="1398.659" y1="2603.555" x2="1398.659" y2="2675.555"/>
<line fill="none" stroke="#FF0000" stroke-miterlimit="10" x1="1398.659" y1="2675.555" x2="1398.659" y2="2747.555"/>
<line fill="none" stroke="#FF0000" stroke-miterlimit="10" x1="1523.367" y1="2315.555" x2="1648.075" y2="2243.555"/>
<line fill="none" stroke="#FF0000" stroke-miterlimit="10" x1="1648.075" y1="2243.555" x2="1710.429" y2="2207.555"/>
<line fill="none" stroke="#FF0000" stroke-miterlimit="10" x1="1710.429" y1="2207.555" x2="1772.782" y2="2171.555"/>
<line fill="none" stroke="#FF0000" stroke-miterlimit="10" x1="1232.383" y1="2531.555" x2="1190.812" y2="2603.555"/>
<line fill="none" stroke="#FF0000" stroke-miterlimit="10" x1="1273.951" y1="2459.555" x2="1232.383" y2="2531.555"/>
<line fill="none" stroke="#FF0000" stroke-miterlimit="10" x1="1772.782" y1="2171.555" x2="1835.137" y2="2135.555"/>
<line fill="none" stroke="#FF0000" stroke-miterlimit="10" x1="1876.705" y1="2351.555" x2="1959.844" y2="2351.555"/>
<line fill="none" stroke="#FF0000" stroke-miterlimit="10" x1="1793.566" y1="2351.555" x2="1876.705" y2="2351.555"/>
<line fill="none" stroke="#FF0000" stroke-miterlimit="10" x1="1710.429" y1="2351.555" x2="1793.566" y2="2351.555"/>
<line fill="none" stroke="#FF0000" stroke-miterlimit="10" x1="1835.137" y1="2135.555" x2="1897.49" y2="2099.555"/>
<line fill="none" stroke="#FF0000" stroke-miterlimit="10" x1="1357.09" y1="1955.555" x2="1315.521" y2="1883.555"/>
<line fill="none" stroke="#000000" stroke-linecap="round" stroke-linejoin="round" x1="1835.137" y1="1991.555" x2="1897.49" y2="2099.555"/>
<line fill="none" stroke="#000000" stroke-linecap="round" stroke-linejoin="round" x1="1772.782" y1="1883.555" x2="1835.137" y2="1991.555"/>
<line fill="none" stroke="#000000" stroke-linecap="round" stroke-linejoin="round" x1="1959.844" y1="2207.555" x2="2022.198" y2="2315.555"/>
<line fill="none" stroke="#000000" stroke-linecap="round" stroke-linejoin="round" x1="1273.951" y1="2747.555" x2="1149.244" y2="2747.555"/>
<line fill="none" stroke="#000000" stroke-linecap="round" stroke-linejoin="round" x1="1523.367" y1="2243.555" x2="1523.367" y2="2315.555"/>
<line fill="none" stroke="#000000" stroke-linecap="round" stroke-linejoin="round" x1="1772.782" y1="1883.555" x2="1772.782" y2="1811.555"/>
<line fill="none" stroke="#000000" stroke-linecap="round" stroke-linejoin="round" x1="1835.137" y1="2567.555" x2="1772.782" y2="2675.555"/>
<line fill="none" stroke="#000000" stroke-linecap="round" stroke-linejoin="round" x1="1398.659" y1="2747.555" x2="1273.951" y2="2747.555"/>
<line fill="none" stroke="#000000" stroke-linecap="round" stroke-linejoin="round" x1="1523.367" y1="2747.555" x2="1398.659" y2="2747.555"/>
<line fill="none" stroke="#000000" stroke-linecap="round" stroke-linejoin="round" x1="1648.075" y1="2747.555" x2="1523.367" y2="2747.555"/>
<line fill="none" stroke="#000000" stroke-linecap="round" stroke-linejoin="round" x1="1897.49" y1="2459.555" x2="1835.137" y2="2567.555"/>
<line fill="none" stroke="#000000" stroke-linecap="round" stroke-linejoin="round" x1="1959.844" y1="2351.555" x2="1897.49" y2="2459.555"/>
<line fill="none" stroke="#000000" stroke-linecap="round" stroke-linejoin="round" x1="1398.659" y1="2243.555" x2="1461.013" y2="2207.555"/>
<line fill="none" stroke="#000000" stroke-linecap="round" stroke-linejoin="round" x1="1273.951" y1="1811.555" x2="1211.598" y2="1775.555"/>
<line fill="none" stroke="#000000" stroke-linecap="round" stroke-linejoin="round" x1="1772.782" y1="2675.555" x2="1710.429" y2="2783.555"/>
<line fill="none" stroke="#000000" stroke-linecap="round" stroke-linejoin="round" x1="1461.013" y1="2207.555" x2="1523.367" y2="2243.555"/>
<line fill="none" stroke="#000000" stroke-linecap="round" stroke-linejoin="round" x1="1648.075" y1="2747.555" x2="1710.429" y2="2783.555"/>
<line fill="none" stroke="#000000" stroke-linecap="round" stroke-linejoin="round" x1="962.184" y1="2351.555" x2="899.828" y2="2243.555"/>
<line fill="none" stroke="#000000" stroke-linecap="round" stroke-linejoin="round" x1="1024.537" y1="2459.555" x2="962.184" y2="2351.555"/>
<line fill="none" stroke="#000000" stroke-linecap="round" stroke-linejoin="round" x1="1086.891" y1="2567.555" x2="1024.537" y2="2459.555"/>
<line fill="none" stroke="#000000" stroke-linecap="round" stroke-linejoin="round" x1="1149.244" y1="2675.555" x2="1086.891" y2="2567.555"/>
<line fill="none" stroke="#000000" stroke-linecap="round" stroke-linejoin="round" x1="1398.659" y1="2315.555" x2="1398.659" y2="2243.555"/>
<line fill="none" stroke="#000000" stroke-linecap="round" stroke-linejoin="round" x1="1149.244" y1="2675.555" x2="1149.244" y2="2747.555"/>
<line fill="none" stroke="#000000" stroke-linecap="round" stroke-linejoin="round" x1="962.184" y1="2207.555" x2="899.828" y2="2243.555"/>
<line fill="none" stroke="#000000" stroke-linecap="round" stroke-linejoin="round" x1="1273.951" y1="1811.555" x2="1398.659" y2="1811.555"/>
<line fill="none" stroke="#000000" stroke-linecap="round" stroke-linejoin="round" x1="1398.659" y1="1811.555" x2="1523.367" y2="1811.555"/>
<line fill="none" stroke="#000000" stroke-linecap="round" stroke-linejoin="round" x1="1523.367" y1="1811.555" x2="1648.075" y2="1811.555"/>
<line fill="none" stroke="#000000" stroke-linecap="round" stroke-linejoin="round" x1="962.184" y1="2207.555" x2="1024.537" y2="2099.555"/>
<line fill="none" stroke="#000000" stroke-linecap="round" stroke-linejoin="round" x1="1024.537" y1="2099.555" x2="1086.891" y2="1991.555"/>
<line fill="none" stroke="#000000" stroke-linecap="round" stroke-linejoin="round" x1="1086.891" y1="1991.555" x2="1149.244" y2="1883.555"/>
<line fill="none" stroke="#000000" stroke-linecap="round" stroke-linejoin="round" x1="1959.844" y1="2351.555" x2="2022.198" y2="2315.555"/>
<line fill="none" stroke="#000000" stroke-linecap="round" stroke-linejoin="round" x1="1523.367" y1="2315.555" x2="1461.013" y2="2351.555"/>
<line fill="none" stroke="#000000" stroke-linecap="round" stroke-linejoin="round" x1="1149.244" y1="1883.555" x2="1211.598" y2="1775.555"/>
<line fill="none" stroke="#000000" stroke-linecap="round" stroke-linejoin="round" x1="1648.075" y1="1811.555" x2="1772.782" y2="1811.555"/>
<line fill="none" stroke="#000000" stroke-linecap="round" stroke-linejoin="round" x1="1897.49" y1="2099.555" x2="1959.844" y2="2207.555"/>
<line fill="none" stroke="#000000" stroke-linecap="round" stroke-linejoin="round" x1="1461.013" y1="2351.555" x2="1398.659" y2="2315.555"/>
<line fill="none" stroke="#0000FF" stroke-miterlimit="10" x1="1523.367" y1="2243.555" x2="1481.798" y2="2171.555"/>
<line fill="none" stroke="#0000FF" stroke-miterlimit="10" x1="1481.798" y1="2171.555" x2="1440.229" y2="2099.555"/>
<line fill="none" stroke="#0000FF" stroke-miterlimit="10" x1="1440.229" y1="2099.555" x2="1398.659" y2="2027.555"/>
<line fill="none" stroke="#0000FF" stroke-miterlimit="10" x1="1273.951" y1="2675.555" x2="1273.951" y2="2747.555"/>
<line fill="none" stroke="#0000FF" stroke-miterlimit="10" x1="1273.951" y1="2603.555" x2="1273.951" y2="2675.555"/>
<line fill="none" stroke="#0000FF" stroke-miterlimit="10" x1="1273.951" y1="2531.555" x2="1273.951" y2="2603.555"/>
<line fill="none" stroke="#0000FF" stroke-miterlimit="10" x1="1273.951" y1="2459.555" x2="1273.951" y2="2531.555"/>
<line fill="none" stroke="#0000FF" stroke-miterlimit="10" x1="1523.367" y1="2675.555" x2="1523.367" y2="2747.555"/>
<line fill="none" stroke="#0000FF" stroke-miterlimit="10" x1="1523.367" y1="2603.555" x2="1523.367" y2="2675.555"/>
<line fill="none" stroke="#0000FF" stroke-miterlimit="10" x1="1481.798" y1="2459.555" x2="1523.367" y2="2531.555"/>
<line fill="none" stroke="#0000FF" stroke-miterlimit="10" x1="1440.229" y1="2387.555" x2="1481.798" y2="2459.555"/>
<line fill="none" stroke="#0000FF" stroke-miterlimit="10" x1="1211.598" y1="1919.555" x2="1149.244" y2="1883.555"/>
<line fill="none" stroke="#0000FF" stroke-miterlimit="10" x1="1273.951" y1="1955.555" x2="1211.598" y2="1919.555"/>
<line fill="none" stroke="#0000FF" stroke-miterlimit="10" x1="1336.307" y1="1991.555" x2="1273.951" y2="1955.555"/>
<line fill="none" stroke="#0000FF" stroke-miterlimit="10" x1="1398.659" y1="2027.555" x2="1336.307" y2="1991.555"/>
<line fill="none" stroke="#0000FF" stroke-miterlimit="10" x1="1086.891" y1="2135.555" x2="1024.537" y2="2099.555"/>
<line fill="none" stroke="#0000FF" stroke-miterlimit="10" x1="1149.244" y1="2171.555" x2="1086.891" y2="2135.555"/>
<line fill="none" stroke="#0000FF" stroke-miterlimit="10" x1="1211.598" y1="2207.555" x2="1149.244" y2="2171.555"/>
<line fill="none" stroke="#0000FF" stroke-miterlimit="10" x1="1398.659" y1="2315.555" x2="1440.229" y2="2387.555"/>
<line fill="none" stroke="#0000FF" stroke-miterlimit="10" x1="1648.075" y1="2099.555" x2="1710.429" y2="2063.555"/>
<line fill="none" stroke="#0000FF" stroke-miterlimit="10" x1="1710.429" y1="2063.555" x2="1772.782" y2="2027.555"/>
<line fill="none" stroke="#0000FF" stroke-miterlimit="10" x1="1772.782" y1="2027.555" x2="1835.137" y2="1991.555"/>
<line fill="none" stroke="#0000FF" stroke-miterlimit="10" x1="1710.429" y1="2351.555" x2="1772.782" y2="2315.555"/>
<line fill="none" stroke="#0000FF" stroke-miterlimit="10" x1="1772.782" y1="2315.555" x2="1835.137" y2="2279.555"/>
<line fill="none" stroke="#0000FF" stroke-miterlimit="10" x1="1835.137" y1="2279.555" x2="1897.49" y2="2243.555"/>
<line fill="none" stroke="#0000FF" stroke-miterlimit="10" x1="1897.49" y1="2243.555" x2="1959.844" y2="2207.555"/>
<line fill="none" stroke="#0000FF" stroke-miterlimit="10" x1="1461.013" y1="2351.555" x2="1544.15" y2="2351.555"/>
<line fill="none" stroke="#0000FF" stroke-miterlimit="10" x1="1544.15" y1="2351.555" x2="1627.29" y2="2351.555"/>
<line fill="none" stroke="#0000FF" stroke-miterlimit="10" x1="1627.29" y1="2351.555" x2="1710.429" y2="2351.555"/>
<line fill="none" stroke="#0000FF" stroke-miterlimit="10" x1="1710.429" y1="2639.555" x2="1772.782" y2="2675.555"/>
<line fill="none" stroke="#0000FF" stroke-miterlimit="10" x1="1398.659" y1="2243.555" x2="1357.09" y2="2315.555"/>
<line fill="none" stroke="#0000FF" stroke-miterlimit="10" x1="1357.09" y1="2315.555" x2="1315.521" y2="2387.555"/>
<line fill="none" stroke="#0000FF" stroke-miterlimit="10" x1="1315.521" y1="2387.555" x2="1273.951" y2="2459.555"/>
<line fill="none" stroke="#0000FF" stroke-miterlimit="10" x1="1648.075" y1="2603.555" x2="1710.429" y2="2639.555"/>
<line fill="none" stroke="#0000FF" stroke-miterlimit="10" x1="1585.721" y1="2567.555" x2="1648.075" y2="2603.555"/>
<line fill="none" stroke="#0000FF" stroke-miterlimit="10" x1="1523.367" y1="2531.555" x2="1585.721" y2="2567.555"/>
<line fill="none" stroke="#0000FF" stroke-miterlimit="10" x1="1294.736" y1="2207.555" x2="1211.598" y2="2207.555"/>
<line fill="none" stroke="#0000FF" stroke-miterlimit="10" x1="1377.875" y1="2207.555" x2="1294.736" y2="2207.555"/>
<line fill="none" stroke="#0000FF" stroke-miterlimit="10" x1="1461.013" y1="2207.555" x2="1377.875" y2="2207.555"/>
<line fill="none" stroke="#0000FF" stroke-miterlimit="10" x1="1835.137" y1="2423.555" x2="1897.49" y2="2459.555"/>
<line fill="none" stroke="#0000FF" stroke-miterlimit="10" x1="1772.782" y1="2387.555" x2="1835.137" y2="2423.555"/>
<line fill="none" stroke="#0000FF" stroke-miterlimit="10" x1="1710.429" y1="2351.555" x2="1772.782" y2="2387.555"/>
<line fill="none" stroke="#0000FF" stroke-miterlimit="10" x1="1398.659" y1="2027.555" x2="1398.659" y2="1955.555"/>
<line fill="none" stroke="#0000FF" stroke-miterlimit="10" x1="1398.659" y1="1955.555" x2="1398.659" y2="1883.555"/>
<line fill="none" stroke="#0000FF" stroke-miterlimit="10" x1="1398.659" y1="1883.555" x2="1398.659" y2="1811.555"/>
<line fill="none" stroke="#0000FF" stroke-miterlimit="10" x1="1648.075" y1="2099.555" x2="1648.075" y2="2027.555"/>
<line fill="none" stroke="#0000FF" stroke-miterlimit="10" x1="1648.075" y1="2027.555" x2="1648.075" y2="1955.555"/>
<line fill="none" stroke="#0000FF" stroke-miterlimit="10" x1="1648.075" y1="1955.555" x2="1648.075" y2="1883.555"/>
<line fill="none" stroke="#0000FF" stroke-miterlimit="10" x1="1648.075" y1="1883.555" x2="1648.075" y2="1811.555"/>
<line fill="none" stroke="#0000FF" stroke-miterlimit="10" x1="1523.367" y1="2315.555" x2="1564.938" y2="2243.555"/>
<line fill="none" stroke="#0000FF" stroke-miterlimit="10" x1="1564.938" y1="2243.555" x2="1606.505" y2="2171.555"/>
<line fill="none" stroke="#0000FF" stroke-miterlimit="10" x1="1024.537" y1="2315.555" x2="962.184" y2="2351.555"/>
<line fill="none" stroke="#0000FF" stroke-miterlimit="10" x1="1086.891" y1="2279.555" x2="1024.537" y2="2315.555"/>
<line fill="none" stroke="#0000FF" stroke-miterlimit="10" x1="1149.244" y1="2243.555" x2="1086.891" y2="2279.555"/>
<line fill="none" stroke="#0000FF" stroke-miterlimit="10" x1="1211.598" y1="2207.555" x2="1149.244" y2="2243.555"/>
<line fill="none" stroke="#0000FF" stroke-miterlimit="10" x1="1149.244" y1="2531.555" x2="1086.891" y2="2567.555"/>
<line fill="none" stroke="#0000FF" stroke-miterlimit="10" x1="1211.598" y1="2495.555" x2="1149.244" y2="2531.555"/>
<line fill="none" stroke="#0000FF" stroke-miterlimit="10" x1="1273.951" y1="2459.555" x2="1211.598" y2="2495.555"/>
<line fill="none" stroke="#0000FF" stroke-miterlimit="10" x1="1523.367" y1="2531.555" x2="1523.367" y2="2603.555"/>
<line fill="none" stroke="#0000FF" stroke-miterlimit="10" x1="1606.505" y1="2171.555" x2="1648.075" y2="2099.555"/>
<line opacity="0.3333" fill="none" stroke="#FF0000" stroke-linecap="round" stroke-linejoin="round" enable-background="new    " x1="1024.537" y1="2315.555" x2="1086.891" y2="2423.555"/>
<line opacity="0.3333" fill="none" stroke="#0000FF" stroke-linecap="round" stroke-linejoin="round" enable-background="new    " x1="962.184" y1="2207.555" x2="1024.537" y2="2315.555"/>
<line opacity="0.3333" fill="none" stroke="#FF0000" stroke-linecap="round" stroke-linejoin="round" enable-background="new    " x1="1211.598" y1="2495.555" x2="1232.383" y2="2531.555"/>
<line opacity="0.3333" fill="none" stroke="#0000FF" stroke-linecap="round" stroke-linejoin="round" enable-background="new    " x1="1149.244" y1="2387.555" x2="1211.598" y2="2495.555"/>
<line opacity="0.3333" fill="none" stroke="#FF0000" stroke-linecap="round" stroke-linejoin="round" enable-background="new    " x1="1086.891" y1="2279.555" x2="1149.244" y2="2387.555"/>
<line opacity="0.3333" fill="none" stroke="#0000FF" stroke-linecap="round" stroke-linejoin="round" enable-background="new    " x1="1045.321" y1="2207.555" x2="1086.891" y2="2279.555"/>
<line opacity="0.3333" fill="none" stroke="#0000FF" stroke-linecap="round" stroke-linejoin="round" enable-background="new    " x1="1211.598" y1="2351.555" x2="1273.951" y2="2459.555"/>
<line opacity="0.3333" fill="none" stroke="#FF0000" stroke-linecap="round" stroke-linejoin="round" enable-background="new    " x1="1149.244" y1="2243.555" x2="1211.598" y2="2351.555"/>
<line opacity="0.3333" fill="none" stroke="#0000FF" stroke-linecap="round" stroke-linejoin="round" enable-background="new    " x1="1128.459" y1="2207.555" x2="1149.244" y2="2243.555"/>
<line opacity="0.3333" fill="none" stroke="#0000FF" stroke-linecap="round" stroke-linejoin="round" enable-background="new    " x1="1273.951" y1="2315.555" x2="1315.521" y2="2387.555"/>
<line opacity="0.3333" fill="none" stroke="#FF0000" stroke-linecap="round" stroke-linejoin="round" enable-background="new    " x1="1211.598" y1="2207.555" x2="1273.951" y2="2315.555"/>
<line opacity="0.3333" fill="none" stroke="#0000FF" stroke-linecap="round" stroke-linejoin="round" enable-background="new    " x1="1336.307" y1="2279.555" x2="1357.09" y2="2315.555"/>
<line opacity="0.3333" fill="none" stroke="#FF0000" stroke-linecap="round" stroke-linejoin="round" enable-background="new    " x1="1294.736" y1="2207.555" x2="1336.307" y2="2279.555"/>
<line opacity="0.3333" fill="none" stroke="#FF0000" stroke-linecap="round" stroke-linejoin="round" enable-background="new    " x1="1377.875" y1="2207.555" x2="1398.659" y2="2243.555"/>
<line opacity="0.3333" fill="none" stroke="#FF0000" stroke-linecap="round" stroke-linejoin="round" enable-background="new    " x1="1149.244" y1="2531.555" x2="1190.812" y2="2603.555"/>
<line opacity="0.3333" fill="none" stroke="#FF0000" stroke-linecap="round" stroke-linejoin="round" enable-background="new    " x1="1481.798" y1="2171.555" x2="1461.013" y2="2207.555"/>
<line opacity="0.3333" fill="none" stroke="#FF0000" stroke-linecap="round" stroke-linejoin="round" enable-background="new    " x1="1440.229" y1="2099.555" x2="1398.659" y2="2171.555"/>
<line opacity="0.3333" fill="none" stroke="#0000FF" stroke-linecap="round" stroke-linejoin="round" enable-background="new    " x1="1398.659" y1="2171.555" x2="1377.875" y2="2207.555"/>
<line opacity="0.3333" fill="none" stroke="#FF0000" stroke-linecap="round" stroke-linejoin="round" enable-background="new    " x1="1398.659" y1="2027.555" x2="1336.307" y2="2135.555"/>
<line opacity="0.3333" fill="none" stroke="#0000FF" stroke-linecap="round" stroke-linejoin="round" enable-background="new    " x1="1336.307" y1="2135.555" x2="1294.736" y2="2207.555"/>
<line opacity="0.3333" fill="none" stroke="#0000FF" stroke-linecap="round" stroke-linejoin="round" enable-background="new    " x1="1357.09" y1="1955.555" x2="1336.307" y2="1991.555"/>
<line opacity="0.3333" fill="none" stroke="#FF0000" stroke-linecap="round" stroke-linejoin="round" enable-background="new    " x1="1336.307" y1="1991.555" x2="1273.951" y2="2099.555"/>
<line opacity="0.3333" fill="none" stroke="#0000FF" stroke-linecap="round" stroke-linejoin="round" enable-background="new    " x1="1273.951" y1="2099.555" x2="1211.598" y2="2207.555"/>
<line opacity="0.3333" fill="none" stroke="#0000FF" stroke-linecap="round" stroke-linejoin="round" enable-background="new    " x1="1315.521" y1="1883.555" x2="1273.951" y2="1955.555"/>
<line opacity="0.3333" fill="none" stroke="#FF0000" stroke-linecap="round" stroke-linejoin="round" enable-background="new    " x1="1273.951" y1="1955.555" x2="1211.598" y2="2063.555"/>
<line opacity="0.3333" fill="none" stroke="#0000FF" stroke-linecap="round" stroke-linejoin="round" enable-background="new    " x1="1211.598" y1="2063.555" x2="1149.244" y2="2171.555"/>
<line opacity="0.3333" fill="none" stroke="#FF0000" stroke-linecap="round" stroke-linejoin="round" enable-background="new    " x1="1149.244" y1="2171.555" x2="1128.459" y2="2207.555"/>
<line opacity="0.3333" fill="none" stroke="#0000FF" stroke-linecap="round" stroke-linejoin="round" enable-background="new    " x1="1273.951" y1="1811.555" x2="1211.598" y2="1919.555"/>
<line opacity="0.3333" fill="none" stroke="#FF0000" stroke-linecap="round" stroke-linejoin="round" enable-background="new    " x1="1211.598" y1="1919.555" x2="1149.244" y2="2027.555"/>
<line opacity="0.3333" fill="none" stroke="#0000FF" stroke-linecap="round" stroke-linejoin="round" enable-background="new    " x1="1149.244" y1="2027.555" x2="1086.891" y2="2135.555"/>
<line opacity="0.3333" fill="none" stroke="#FF0000" stroke-linecap="round" stroke-linejoin="round" enable-background="new    " x1="1086.891" y1="2135.555" x2="1045.321" y2="2207.555"/>
<line opacity="0.3333" fill="none" stroke="#FF0000" stroke-linecap="round" stroke-linejoin="round" enable-background="new    " x1="1544.15" y1="2351.555" x2="1523.367" y2="2315.555"/>
<line opacity="0.3333" fill="none" stroke="#FF0000" stroke-linecap="round" stroke-linejoin="round" enable-background="new    " x1="1627.29" y1="2351.555" x2="1585.721" y2="2279.555"/>
<line opacity="0.3333" fill="none" stroke="#0000FF" stroke-linecap="round" stroke-linejoin="round" enable-background="new    " x1="1585.721" y1="2279.555" x2="1564.938" y2="2243.555"/>
<line opacity="0.3333" fill="none" stroke="#FF0000" stroke-linecap="round" stroke-linejoin="round" enable-background="new    " x1="1710.429" y1="2351.555" x2="1648.075" y2="2243.555"/>
<line opacity="0.3333" fill="none" stroke="#0000FF" stroke-linecap="round" stroke-linejoin="round" enable-background="new    " x1="1648.075" y1="2243.555" x2="1606.505" y2="2171.555"/>
<line opacity="0.3333" fill="none" stroke="#0000FF" stroke-linecap="round" stroke-linejoin="round" enable-background="new    " x1="1793.566" y1="2351.555" x2="1772.782" y2="2315.555"/>
<line opacity="0.3333" fill="none" stroke="#FF0000" stroke-linecap="round" stroke-linejoin="round" enable-background="new    " x1="1772.782" y1="2315.555" x2="1710.429" y2="2207.555"/>
<line opacity="0.3333" fill="none" stroke="#FF0000" stroke-linecap="round" stroke-linejoin="round" enable-background="new    " x1="1523.367" y1="2675.555" x2="1606.505" y2="2675.555"/>
<line opacity="0.3333" fill="none" stroke="#0000FF" stroke-linecap="round" stroke-linejoin="round" enable-background="new    " x1="1398.659" y1="2675.555" x2="1523.367" y2="2675.555"/>
<line opacity="0.3333" fill="none" stroke="#FF0000" stroke-linecap="round" stroke-linejoin="round" enable-background="new    " x1="1273.951" y1="2675.555" x2="1398.659" y2="2675.555"/>
<line opacity="0.3333" fill="none" stroke="#0000FF" stroke-linecap="round" stroke-linejoin="round" enable-background="new    " x1="1149.244" y1="2675.555" x2="1273.951" y2="2675.555"/>
<line opacity="0.3333" fill="none" stroke="#FF0000" stroke-linecap="round" stroke-linejoin="round" enable-background="new    " x1="1523.367" y1="2603.555" x2="1564.938" y2="2603.555"/>
<line opacity="0.3333" fill="none" stroke="#0000FF" stroke-linecap="round" stroke-linejoin="round" enable-background="new    " x1="1398.659" y1="2603.555" x2="1523.367" y2="2603.555"/>
<line opacity="0.3333" fill="none" stroke="#FF0000" stroke-linecap="round" stroke-linejoin="round" enable-background="new    " x1="1273.951" y1="2603.555" x2="1398.659" y2="2603.555"/>
<line opacity="0.3333" fill="none" stroke="#0000FF" stroke-linecap="round" stroke-linejoin="round" enable-background="new    " x1="1190.812" y1="2603.555" x2="1273.951" y2="2603.555"/>
<line opacity="0.3333" fill="none" stroke="#0000FF" stroke-linecap="round" stroke-linejoin="round" enable-background="new    " x1="1398.659" y1="2531.555" x2="1523.367" y2="2531.555"/>
<line opacity="0.3333" fill="none" stroke="#FF0000" stroke-linecap="round" stroke-linejoin="round" enable-background="new    " x1="1273.951" y1="2531.555" x2="1398.659" y2="2531.555"/>
<line opacity="0.3333" fill="none" stroke="#0000FF" stroke-linecap="round" stroke-linejoin="round" enable-background="new    " x1="1232.383" y1="2531.555" x2="1273.951" y2="2531.555"/>
<line opacity="0.3333" fill="none" stroke="#0000FF" stroke-linecap="round" stroke-linejoin="round" enable-background="new    " x1="1398.659" y1="2459.555" x2="1481.798" y2="2459.555"/>
<line opacity="0.3333" fill="none" stroke="#FF0000" stroke-linecap="round" stroke-linejoin="round" enable-background="new    " x1="1273.951" y1="2459.555" x2="1398.659" y2="2459.555"/>
<line opacity="0.3333" fill="none" stroke="#0000FF" stroke-linecap="round" stroke-linejoin="round" enable-background="new    " x1="1398.659" y1="2387.555" x2="1440.229" y2="2387.555"/>
<line opacity="0.3333" fill="none" stroke="#FF0000" stroke-linecap="round" stroke-linejoin="round" enable-background="new    " x1="1315.521" y1="2387.555" x2="1398.659" y2="2387.555"/>
<line opacity="0.3333" fill="none" stroke="#FF0000" stroke-linecap="round" stroke-linejoin="round" enable-background="new    " x1="1357.09" y1="2315.555" x2="1398.659" y2="2315.555"/>
<line opacity="0.3333" fill="none" stroke="#0000FF" stroke-linecap="round" stroke-linejoin="round" enable-background="new    " x1="1710.429" y1="2207.555" x2="1648.075" y2="2099.555"/>
<line opacity="0.3333" fill="none" stroke="#0000FF" stroke-linecap="round" stroke-linejoin="round" enable-background="new    " x1="1876.705" y1="2351.555" x2="1835.137" y2="2279.555"/>
<line opacity="0.3333" fill="none" stroke="#FF0000" stroke-linecap="round" stroke-linejoin="round" enable-background="new    " x1="1835.137" y1="2279.555" x2="1772.782" y2="2171.555"/>
<line opacity="0.3333" fill="none" stroke="#0000FF" stroke-linecap="round" stroke-linejoin="round" enable-background="new    " x1="1772.782" y1="2171.555" x2="1710.429" y2="2063.555"/>
<line opacity="0.3333" fill="none" stroke="#FF0000" stroke-linecap="round" stroke-linejoin="round" enable-background="new    " x1="1710.429" y1="2063.555" x2="1689.645" y2="2027.555"/>
<line opacity="0.3333" fill="none" stroke="#0000FF" stroke-linecap="round" stroke-linejoin="round" enable-background="new    " x1="1959.844" y1="2351.555" x2="1897.49" y2="2243.555"/>
<line opacity="0.3333" fill="none" stroke="#FF0000" stroke-linecap="round" stroke-linejoin="round" enable-background="new    " x1="1897.49" y1="2243.555" x2="1835.137" y2="2135.555"/>
<line opacity="0.3333" fill="none" stroke="#0000FF" stroke-linecap="round" stroke-linejoin="round" enable-background="new    " x1="1835.137" y1="2135.555" x2="1772.782" y2="2027.555"/>
<line opacity="0.3333" fill="none" stroke="#FF0000" stroke-linecap="round" stroke-linejoin="round" enable-background="new    " x1="1772.782" y1="2027.555" x2="1731.213" y2="1955.555"/>
<line opacity="0.3333" fill="none" stroke="#FF0000" stroke-linecap="round" stroke-linejoin="round" enable-background="new    " x1="1564.938" y1="2243.555" x2="1523.367" y2="2243.555"/>
<line opacity="0.3333" fill="none" stroke="#FF0000" stroke-linecap="round" stroke-linejoin="round" enable-background="new    " x1="1606.505" y1="2171.555" x2="1523.367" y2="2171.555"/>
<line opacity="0.3333" fill="none" stroke="#0000FF" stroke-linecap="round" stroke-linejoin="round" enable-background="new    " x1="1523.367" y1="2171.555" x2="1481.798" y2="2171.555"/>
<line opacity="0.3333" fill="none" stroke="#FF0000" stroke-linecap="round" stroke-linejoin="round" enable-background="new    " x1="1648.075" y1="2099.555" x2="1523.367" y2="2099.555"/>
<line opacity="0.3333" fill="none" stroke="#0000FF" stroke-linecap="round" stroke-linejoin="round" enable-background="new    " x1="1523.367" y1="2099.555" x2="1440.229" y2="2099.555"/>
<line opacity="0.3333" fill="none" stroke="#0000FF" stroke-linecap="round" stroke-linejoin="round" enable-background="new    " x1="1689.645" y1="2027.555" x2="1648.075" y2="2027.555"/>
<line opacity="0.3333" fill="none" stroke="#FF0000" stroke-linecap="round" stroke-linejoin="round" enable-background="new    " x1="1648.075" y1="2027.555" x2="1523.367" y2="2027.555"/>
<line opacity="0.3333" fill="none" stroke="#0000FF" stroke-linecap="round" stroke-linejoin="round" enable-background="new    " x1="1523.367" y1="2027.555" x2="1398.659" y2="2027.555"/>
<line opacity="0.3333" fill="none" stroke="#0000FF" stroke-linecap="round" stroke-linejoin="round" enable-background="new    " x1="1731.213" y1="1955.555" x2="1648.075" y2="1955.555"/>
<line opacity="0.3333" fill="none" stroke="#FF0000" stroke-linecap="round" stroke-linejoin="round" enable-background="new    " x1="1648.075" y1="1955.555" x2="1523.367" y2="1955.555"/>
<line opacity="0.3333" fill="none" stroke="#0000FF" stroke-linecap="round" stroke-linejoin="round" enable-background="new    " x1="1523.367" y1="1955.555" x2="1398.659" y2="1955.555"/>
<line opacity="0.3333" fill="none" stroke="#FF0000" stroke-linecap="round" stroke-linejoin="round" enable-background="new    " x1="1398.659" y1="1955.555" x2="1357.09" y2="1955.555"/>
<line opacity="0.3333" fill="none" stroke="#0000FF" stroke-linecap="round" stroke-linejoin="round" enable-background="new    " x1="1772.782" y1="1883.555" x2="1648.075" y2="1883.555"/>
<line opacity="0.3333" fill="none" stroke="#FF0000" stroke-linecap="round" stroke-linejoin="round" enable-background="new    " x1="1648.075" y1="1883.555" x2="1523.367" y2="1883.555"/>
<line opacity="0.3333" fill="none" stroke="#0000FF" stroke-linecap="round" stroke-linejoin="round" enable-background="new    " x1="1523.367" y1="1883.555" x2="1398.659" y2="1883.555"/>
<line opacity="0.3333" fill="none" stroke="#FF0000" stroke-linecap="round" stroke-linejoin="round" enable-background="new    " x1="1835.137" y1="2423.555" x2="1876.705" y2="2351.555"/>
<line opacity="0.3333" fill="none" stroke="#0000FF" stroke-linecap="round" stroke-linejoin="round" enable-background="new    " x1="1772.782" y1="2531.555" x2="1835.137" y2="2423.555"/>
<line opacity="0.3333" fill="none" stroke="#FF0000" stroke-linecap="round" stroke-linejoin="round" enable-background="new    " x1="1710.429" y1="2639.555" x2="1772.782" y2="2531.555"/>
<line opacity="0.3333" fill="none" stroke="#0000FF" stroke-linecap="round" stroke-linejoin="round" enable-background="new    " x1="1648.075" y1="2747.555" x2="1710.429" y2="2639.555"/>
<line opacity="0.3333" fill="none" stroke="#FF0000" stroke-linecap="round" stroke-linejoin="round" enable-background="new    " x1="1772.782" y1="2387.555" x2="1793.566" y2="2351.555"/>
<line opacity="0.3333" fill="none" stroke="#0000FF" stroke-linecap="round" stroke-linejoin="round" enable-background="new    " x1="1710.429" y1="2495.555" x2="1772.782" y2="2387.555"/>
<line opacity="0.3333" fill="none" stroke="#FF0000" stroke-linecap="round" stroke-linejoin="round" enable-background="new    " x1="1648.075" y1="2603.555" x2="1710.429" y2="2495.555"/>
<line opacity="0.3333" fill="none" stroke="#0000FF" stroke-linecap="round" stroke-linejoin="round" enable-background="new    " x1="1606.505" y1="2675.555" x2="1648.075" y2="2603.555"/>
<line opacity="0.3333" fill="none" stroke="#0000FF" stroke-linecap="round" stroke-linejoin="round" enable-background="new    " x1="1648.075" y1="2459.555" x2="1710.429" y2="2351.555"/>
<line opacity="0.3333" fill="none" stroke="#FF0000" stroke-linecap="round" stroke-linejoin="round" enable-background="new    " x1="1585.721" y1="2567.555" x2="1648.075" y2="2459.555"/>
<line opacity="0.3333" fill="none" stroke="#0000FF" stroke-linecap="round" stroke-linejoin="round" enable-background="new    " x1="1564.938" y1="2603.555" x2="1585.721" y2="2567.555"/>
<line opacity="0.3333" fill="none" stroke="#0000FF" stroke-linecap="round" stroke-linejoin="round" enable-background="new    " x1="1585.721" y1="2423.555" x2="1627.29" y2="2351.555"/>
<line opacity="0.3333" fill="none" stroke="#FF0000" stroke-linecap="round" stroke-linejoin="round" enable-background="new    " x1="1523.367" y1="2531.555" x2="1585.721" y2="2423.555"/>
<line opacity="0.3333" fill="none" stroke="#0000FF" stroke-linecap="round" stroke-linejoin="round" enable-background="new    " x1="1523.367" y1="2387.555" x2="1544.15" y2="2351.555"/>
<line opacity="0.3333" fill="none" stroke="#FF0000" stroke-linecap="round" stroke-linejoin="round" enable-background="new    " x1="1481.798" y1="2459.555" x2="1523.367" y2="2387.555"/>
<line opacity="0.3333" fill="none" stroke="#FF0000" stroke-linecap="round" stroke-linejoin="round" enable-background="new    " x1="1440.229" y1="2387.555" x2="1461.013" y2="2351.555"/>
<line opacity="0.3333" fill="none" stroke="#FF0000" stroke-linecap="round" stroke-linejoin="round" enable-background="new    " x1="1398.659" y1="1883.555" x2="1315.521" y2="1883.555"/>
<line opacity="0.3333" fill="none" stroke="#0000FF" stroke-linecap="round" stroke-linejoin="round" enable-background="new    " x1="1086.891" y1="2423.555" x2="1149.244" y2="2531.555"/>
</svg>
