<?xml version="1.0" encoding="utf-8"?>
<!-- Generator: Adobe Illustrator 23.0.3, SVG Export Plug-In . SVG Version: 6.00 Build 0)  -->
<svg version="1.1" xmlns="http://www.w3.org/2000/svg" xmlns:xlink="http://www.w3.org/1999/xlink" x="0px" y="0px"
	 width="595.28px" height="841.89px" viewBox="0 0 595.28 841.89" enable-background="new 0 0 595.28 841.89" xml:space="preserve">
<g id="CutLine">
	
		<rect x="136.592" y="115.666" fill="none" stroke="#000000" stroke-width="2" stroke-miterlimit="10" width="308.172" height="654.667"/>
</g>
<g id="ValleyLine">
	<line fill="none" stroke="#0000FF" stroke-miterlimit="10" x1="235.897" y1="639.316" x2="226.263" y2="656.568"/>
	<line fill="none" stroke="#0000FF" stroke-miterlimit="10" x1="270.606" y1="659.354" x2="260.482" y2="676.324"/>
	<path fill="none" stroke="#0000FF" stroke-miterlimit="10" d="M270.606,659.354c-1.203-5.256-4.775-9.926-12.69-14.495l-3.12-1.802
		c-7.916-4.57-13.747-5.328-18.899-3.741"/>
	<line fill="none" stroke="#0000FF" stroke-miterlimit="10" x1="310.75" y1="659.354" x2="320.873" y2="676.324"/>
	<line fill="none" stroke="#0000FF" stroke-miterlimit="10" x1="345.458" y1="639.315" x2="355.094" y2="656.567"/>
	<path fill="none" stroke="#0000FF" stroke-miterlimit="10" d="M345.458,639.315c-5.152-1.586-10.982-0.827-18.898,3.742
		l-3.12,1.803c-7.915,4.568-11.487,9.239-12.689,14.495"/>
	<path fill="none" stroke="#0000FF" stroke-miterlimit="10" d="M320.873,676.324c-3.149,9.104-9.45,15.885-22.74,17.039h-14.91
		c-13.291-1.155-19.592-7.938-22.741-17.039"/>
	<line fill="none" stroke="#0000FF" stroke-miterlimit="10" x1="345.458" y1="529.707" x2="355.093" y2="512.455"/>
	<line fill="none" stroke="#0000FF" stroke-miterlimit="10" x1="310.749" y1="509.667" x2="320.873" y2="492.697"/>
	<path fill="none" stroke="#0000FF" stroke-miterlimit="10" d="M310.749,509.667c1.203,5.256,4.775,9.926,12.69,14.495l3.119,1.803
		c7.917,4.57,13.747,5.328,18.899,3.742"/>
	<line fill="none" stroke="#0000FF" stroke-miterlimit="10" x1="270.606" y1="509.667" x2="260.482" y2="492.697"/>
	<line fill="none" stroke="#0000FF" stroke-miterlimit="10" x1="235.897" y1="529.706" x2="226.263" y2="512.455"/>
	<path fill="none" stroke="#0000FF" stroke-miterlimit="10" d="M235.897,529.706c5.153,1.587,10.983,0.827,18.898-3.741l3.121-1.803
		c7.915-4.569,11.487-9.239,12.69-14.495"/>
	<path fill="none" stroke="#0000FF" stroke-miterlimit="10" d="M260.482,492.697c3.149-9.103,9.45-15.885,22.741-17.04l14.91,0.001
		c13.29,1.155,19.59,7.936,22.74,17.04"/>
	<path fill="none" stroke="#0000FF" stroke-miterlimit="10" d="M226.263,512.455c-35.818,0-42.058,69.012-54.637,72.057"/>
	<path fill="none" stroke="#0000FF" stroke-miterlimit="10" d="M226.263,656.567c-35.818,0-42.058-69.013-54.637-72.058"/>
	<line fill="none" stroke="#0000FF" stroke-miterlimit="10" x1="173.206" y1="584.512" x2="136.592" y2="583.574"/>
	<path fill="none" stroke="#0000FF" stroke-miterlimit="10" d="M355.093,512.455c35.817,0,42.058,69.012,54.637,72.057"/>
	<path fill="none" stroke="#0000FF" stroke-miterlimit="10" d="M355.093,656.567c35.817,0,42.058-69.013,54.637-72.058"/>
	<line fill="none" stroke="#0000FF" stroke-miterlimit="10" x1="408.149" y1="584.512" x2="444.764" y2="583.574"/>
	<line fill="none" stroke="#0000FF" stroke-miterlimit="10" x1="235.897" y1="354.858" x2="226.263" y2="372.111"/>
	<line fill="none" stroke="#0000FF" stroke-miterlimit="10" x1="270.606" y1="374.898" x2="260.482" y2="391.868"/>
	<path fill="none" stroke="#0000FF" stroke-miterlimit="10" d="M270.606,374.898c-1.203-5.256-4.775-9.925-12.69-14.496l-3.12-1.802
		c-7.916-4.569-13.747-5.329-18.899-3.742"/>
	<line fill="none" stroke="#0000FF" stroke-miterlimit="10" x1="310.75" y1="374.898" x2="320.873" y2="391.868"/>
	<line fill="none" stroke="#0000FF" stroke-miterlimit="10" x1="345.458" y1="354.858" x2="355.094" y2="372.11"/>
	<path fill="none" stroke="#0000FF" stroke-miterlimit="10" d="M345.458,354.858c-5.152-1.587-10.982-0.829-18.898,3.741
		l-3.12,1.802c-7.915,4.569-11.487,9.241-12.689,14.496"/>
	<path fill="none" stroke="#0000FF" stroke-miterlimit="10" d="M320.873,391.868c-3.149,9.103-9.45,15.885-22.74,17.039h-14.91
		c-13.291-1.157-19.592-7.938-22.741-17.039"/>
	<line fill="none" stroke="#0000FF" stroke-miterlimit="10" x1="345.458" y1="245.251" x2="355.093" y2="227.997"/>
	<line fill="none" stroke="#0000FF" stroke-miterlimit="10" x1="310.749" y1="225.21" x2="320.873" y2="208.241"/>
	<path fill="none" stroke="#0000FF" stroke-miterlimit="10" d="M310.749,225.21c1.203,5.256,4.775,9.925,12.69,14.496l3.119,1.801
		c7.917,4.57,13.747,5.33,18.899,3.743"/>
	<line fill="none" stroke="#0000FF" stroke-miterlimit="10" x1="270.606" y1="225.21" x2="260.482" y2="208.241"/>
	<line fill="none" stroke="#0000FF" stroke-miterlimit="10" x1="235.897" y1="245.249" x2="226.263" y2="227.997"/>
	<path fill="none" stroke="#0000FF" stroke-miterlimit="10" d="M235.897,245.249c5.153,1.588,10.983,0.829,18.898-3.741l3.121-1.801
		c7.915-4.571,11.487-9.24,12.69-14.496"/>
	<path fill="none" stroke="#0000FF" stroke-miterlimit="10" d="M260.482,208.241c3.149-9.104,9.45-15.885,22.741-17.041l14.91,0.002
		c13.29,1.154,19.59,7.935,22.74,17.039"/>
	<path fill="none" stroke="#0000FF" stroke-miterlimit="10" d="M226.263,227.997c-35.818,0-42.058,69.014-54.637,72.057"/>
	<path fill="none" stroke="#0000FF" stroke-miterlimit="10" d="M226.263,372.11c-35.818,0-42.058-69.012-54.637-72.058"/>
	<line fill="none" stroke="#0000FF" stroke-miterlimit="10" x1="173.206" y1="300.054" x2="136.592" y2="299.118"/>
	<path fill="none" stroke="#0000FF" stroke-miterlimit="10" d="M355.093,227.997c35.817,0,42.058,69.014,54.637,72.057"/>
	<path fill="none" stroke="#0000FF" stroke-miterlimit="10" d="M355.093,372.11c35.817,0,42.058-69.012,54.637-72.058"/>
	<line fill="none" stroke="#0000FF" stroke-miterlimit="10" x1="408.149" y1="300.054" x2="444.764" y2="299.118"/>
</g>
<g id="MountainLine">
	<path fill="none" stroke="#FF0000" stroke-miterlimit="10" d="M226.263,656.568c-18.034-21.82,4.133-46.501,38.278-26.786"/>
	<path fill="none" stroke="#FF0000" stroke-miterlimit="10" d="M235.897,639.316c15.753,15.614-22.134,66.04-56.568,9.482"/>
	<path fill="none" stroke="#FF0000" stroke-miterlimit="10" d="M260.482,676.324c27.913,4.711,38.204-26.829,4.059-46.542"/>
	<path fill="none" stroke="#FF0000" stroke-miterlimit="10" d="M320.873,676.324c-27.913,4.709-38.204-26.829-4.059-46.544"/>
	<path fill="none" stroke="#FF0000" stroke-miterlimit="10" d="M310.75,659.354c21.397-5.836,46.126,52.189-20.072,53.731"/>
	<path fill="none" stroke="#FF0000" stroke-miterlimit="10" d="M355.094,656.567c18.035-21.819-4.134-46.501-38.279-26.787"/>
	<path fill="none" stroke="#FF0000" stroke-miterlimit="10" d="M270.606,659.354c-21.399-5.836-46.127,52.189,20.071,53.731"/>
	<path fill="none" stroke="#FF0000" stroke-miterlimit="10" d="M345.458,639.315c-15.754,15.615,22.135,66.041,56.568,9.483"/>
	<path fill="none" stroke="#FF0000" stroke-miterlimit="10" d="M355.093,512.455c18.034,21.819-4.134,46.499-38.278,26.785"/>
	<path fill="none" stroke="#FF0000" stroke-miterlimit="10" d="M345.458,529.707c-15.753-15.614,22.134-66.042,56.568-9.484"/>
	<path fill="none" stroke="#FF0000" stroke-miterlimit="10" d="M320.873,492.697c-27.913-4.71-38.204,26.829-4.059,46.543"/>
	<path fill="none" stroke="#FF0000" stroke-miterlimit="10" d="M260.482,492.697c27.913-4.71,38.203,26.83,4.059,46.544"/>
	<path fill="none" stroke="#FF0000" stroke-miterlimit="10" d="M270.606,509.667c-21.399,5.836-46.127-52.189,20.071-53.73"/>
	<path fill="none" stroke="#FF0000" stroke-miterlimit="10" d="M226.263,512.455c-18.035,21.818,4.133,46.499,38.278,26.786"/>
	<path fill="none" stroke="#FF0000" stroke-miterlimit="10" d="M310.75,509.668c21.397,5.836,46.126-52.19-20.073-53.732"/>
	<path fill="none" stroke="#FF0000" stroke-miterlimit="10" d="M235.897,529.707c15.755-15.614-22.134-66.041-56.568-9.483"/>
	<path fill="none" stroke="#FF0000" stroke-miterlimit="10" d="M226.263,372.111c-18.034-21.819,4.133-46.5,38.278-26.787"/>
	<path fill="none" stroke="#FF0000" stroke-miterlimit="10" d="M235.897,354.858c15.753,15.614-22.134,66.042-56.568,9.483"/>
	<path fill="none" stroke="#FF0000" stroke-miterlimit="10" d="M260.482,391.868c27.913,4.709,38.204-26.829,4.059-46.544"/>
	<path fill="none" stroke="#FF0000" stroke-miterlimit="10" d="M320.873,391.868c-27.913,4.708-38.204-26.83-4.059-46.544"/>
	<path fill="none" stroke="#FF0000" stroke-miterlimit="10" d="M310.75,374.898c21.397-5.836,46.126,52.189-20.072,53.73"/>
	<path fill="none" stroke="#FF0000" stroke-miterlimit="10" d="M355.094,372.11c18.035-21.819-4.134-46.5-38.279-26.786"/>
	<path fill="none" stroke="#FF0000" stroke-miterlimit="10" d="M270.606,374.898c-21.399-5.837-46.127,52.189,20.071,53.73"/>
	<path fill="none" stroke="#FF0000" stroke-miterlimit="10" d="M345.458,354.858c-15.754,15.613,22.135,66.04,56.568,9.483"/>
	<path fill="none" stroke="#FF0000" stroke-miterlimit="10" d="M355.093,227.997c18.034,21.82-4.134,46.5-38.278,26.786"/>
	<path fill="none" stroke="#FF0000" stroke-miterlimit="10" d="M345.458,245.251c-15.753-15.615,22.134-66.042,56.568-9.485"/>
	<path fill="none" stroke="#FF0000" stroke-miterlimit="10" d="M320.873,208.241c-27.913-4.71-38.204,26.829-4.059,46.542"/>
	<path fill="none" stroke="#FF0000" stroke-miterlimit="10" d="M260.482,208.241c27.913-4.71,38.203,26.829,4.059,46.544"/>
	<path fill="none" stroke="#FF0000" stroke-miterlimit="10" d="M270.606,225.21c-21.399,5.837-46.127-52.19,20.071-53.731"/>
	<path fill="none" stroke="#FF0000" stroke-miterlimit="10" d="M226.263,227.997c-18.035,21.82,4.133,46.5,38.278,26.788"/>
	<path fill="none" stroke="#FF0000" stroke-miterlimit="10" d="M310.75,225.21c21.397,5.837,46.126-52.19-20.073-53.731"/>
	<path fill="none" stroke="#FF0000" stroke-miterlimit="10" d="M235.897,245.251c15.755-15.615-22.134-66.042-56.568-9.482"/>
	<path fill="none" stroke="#FF0000" stroke-miterlimit="10" d="M179.329,520.223c-9.206,15.253-12.311,43.859-42.737,45.967"/>
	<path fill="none" stroke="#FF0000" stroke-miterlimit="10" d="M179.329,648.799c-9.206-15.253-12.311-43.859-42.737-45.967"/>
	<path fill="none" stroke="#FF0000" stroke-miterlimit="10" d="M402.026,520.223c9.206,15.253,12.31,43.859,42.737,45.967"/>
	<path fill="none" stroke="#FF0000" stroke-miterlimit="10" d="M402.026,648.799c9.206-15.253,12.31-43.859,42.737-45.967"/>
	<path fill="none" stroke="#FF0000" stroke-miterlimit="10" d="M179.329,235.766c-9.206,15.253-12.311,43.86-42.737,45.967"/>
	<path fill="none" stroke="#FF0000" stroke-miterlimit="10" d="M179.329,364.341c-9.206-15.251-12.311-43.858-42.737-45.965"/>
	<path fill="none" stroke="#FF0000" stroke-miterlimit="10" d="M402.026,235.766c9.206,15.253,12.31,43.86,42.737,45.967"/>
	<path fill="none" stroke="#FF0000" stroke-miterlimit="10" d="M402.026,364.341c9.206-15.251,12.31-43.858,42.737-45.965"/>
</g>
</svg>
