<?xml version="1.0" encoding="utf-8"?>
<!-- Generator: Adobe Illustrator 23.0.3, SVG Export Plug-In . SVG Version: 6.00 Build 0)  -->
<svg version="1.1" xmlns="http://www.w3.org/2000/svg" xmlns:xlink="http://www.w3.org/1999/xlink" x="0px" y="0px"
	 width="841.89px" height="1190.551px" viewBox="0 0 841.89 1190.551" enable-background="new 0 0 841.89 1190.551"
	 xml:space="preserve">
<g id="レイヤー_7">
	<polyline fill="none" stroke="#FF0000" stroke-linecap="round" stroke-linejoin="round" stroke-miterlimit="10" points="
		375.097,468.849 367.204,468.817 360.019,467.403 353.53,464.848 347.722,461.394 342.582,457.282 338.098,452.753 
		334.255,448.049 331.04,443.411 	"/>
	<path fill="none" stroke="#FF0000" stroke-linecap="round" stroke-linejoin="round" stroke-miterlimit="10" d="M331.027,494.331"/>
	<polyline fill="none" stroke="#FF0000" stroke-linecap="round" stroke-linejoin="round" stroke-miterlimit="10" points="
		221.559,253.996 226.535,262.608 231.511,271.22 236.487,279.832 241.462,288.444 246.438,297.055 251.414,305.667 256.39,314.279 
		261.366,322.891 266.341,331.503 271.317,340.115 276.293,348.727 281.269,357.339 286.244,365.951 291.22,374.563 
		296.196,383.175 301.172,391.787 306.147,400.399 311.123,409.011 316.099,417.623 321.075,426.235 326.05,434.847 
		331.026,443.459 	"/>
	<polyline fill="none" stroke="#FF0000" stroke-linecap="round" stroke-linejoin="round" stroke-miterlimit="10" points="
		375.117,468.843 374.241,478.716 374.192,488.013 374.917,496.708 376.365,504.775 378.483,512.189 381.221,518.923 
		384.525,524.95 388.343,530.244 392.625,534.78 397.317,538.531 402.368,541.471 407.726,543.573 413.339,544.812 419.155,545.161 
			"/>
	<polyline fill="none" stroke="#0000FF" stroke-linecap="round" stroke-linejoin="round" stroke-miterlimit="10" points="
		419.175,519.716 414.704,519.31 410.668,518.035 407.091,515.801 403.997,512.522 401.412,508.11 399.358,502.475 397.862,495.531 
		396.946,487.19 396.635,477.362 395.968,470.144 394.103,464.307 391.24,459.587 387.582,455.722 383.332,452.45 378.689,449.508 
		373.858,446.634 369.039,443.565 364.434,440.039 360.245,435.793 357.354,432.09 353.857,427.225 349.862,421.38 345.473,414.734 
		340.799,407.469 335.946,399.766 331.019,391.805 326.126,383.767 321.373,375.833 316.866,368.183 312.713,360.999 
		309.018,354.462 304.364,346.37 299.71,338.279 295.055,330.187 290.401,322.096 285.747,314.004 281.092,305.912 276.438,297.821 
		271.784,289.729 267.129,281.638 262.475,273.546 257.821,265.455 253.166,257.363 248.512,249.272 243.858,241.18 	"/>
	<polyline fill="none" stroke="#FF0000" stroke-linecap="round" stroke-linejoin="round" stroke-miterlimit="10" points="
		419.159,443.408 413.206,441.993 407.239,439.453 401.273,435.885 395.324,431.392 389.409,426.073 383.542,420.027 
		377.74,413.356 372.019,406.159 366.393,398.536 360.88,390.587 355.495,382.413 350.254,374.114 345.173,365.789 340.266,357.538 
		335.551,349.463 331.043,341.662 326.391,333.579 321.739,325.495 317.087,317.412 312.434,309.328 307.782,301.245 
		303.13,293.161 298.478,285.078 293.826,276.994 289.174,268.911 284.522,260.827 279.869,252.744 275.217,244.66 270.565,236.577 
		265.913,228.493 	"/>
	<polyline fill="none" stroke="#0000FF" stroke-linecap="round" stroke-linejoin="round" stroke-miterlimit="10" points="
		419.191,417.974 415.909,416.472 412.274,413.891 408.327,410.324 404.106,405.864 399.652,400.604 395.003,394.639 390.2,388.061 
		385.282,380.964 380.288,373.442 375.258,365.586 370.232,357.492 365.25,349.252 360.349,340.96 355.571,332.708 350.745,324.35 
		345.919,315.991 341.093,307.633 336.267,299.275 331.441,290.916 326.615,282.558 321.789,274.2 316.963,265.841 312.137,257.483 
		307.31,249.125 302.484,240.766 297.658,232.408 292.832,224.049 288.006,215.691 	"/>
	<polyline fill="none" stroke="#FF0000" stroke-linecap="round" stroke-linejoin="round" stroke-miterlimit="10" points="
		419.183,494.28 419.176,486.018 419.169,477.755 419.162,469.493 419.155,461.23 418.439,456.31 416.5,451.73 413.77,447.659 
		410.678,444.267 407.656,441.721 405.134,440.19 	"/>
	<polyline fill="none" stroke="#0000FF" stroke-linecap="round" stroke-linejoin="round" stroke-miterlimit="10" points="
		333.793,189.303 338.437,197.639 343.082,205.975 347.726,214.312 352.37,222.648 357.015,230.984 361.659,239.32 366.303,247.657 
		370.948,255.993 375.592,264.329 380.236,272.666 384.881,281.002 389.525,289.338 394.169,297.674 396.861,301.869 
		400.449,306.995 404.569,312.479 408.86,317.75 412.958,322.239 416.501,325.373 419.127,326.581 	"/>
	<polyline fill="none" stroke="#FF0000" stroke-linecap="round" stroke-linejoin="round" stroke-miterlimit="10" points="
		355.848,176.616 360.429,184.549 365.009,192.483 369.59,200.416 374.17,208.35 378.751,216.284 383.331,224.217 387.912,232.151 
		392.492,240.084 397.072,248.018 401.653,255.952 405.554,261.34 409.635,266.31 413.526,270.445 416.854,273.33 419.247,274.549 	
		"/>
	<polyline fill="none" stroke="#FF0000" stroke-linecap="round" stroke-linejoin="round" stroke-miterlimit="10" points="
		311.596,202.118 316.295,210.251 320.994,218.384 325.694,226.517 330.393,234.65 335.093,242.783 339.792,250.917 344.491,259.05 
		349.191,267.183 353.89,275.316 358.59,283.449 363.289,291.582 367.988,299.715 372.688,307.848 377.387,315.981 382.087,324.114 
		386.786,332.247 391.412,340.234 395.879,347.47 400.184,353.854 404.322,359.287 408.289,363.67 412.081,366.904 415.695,368.89 
		419.127,369.529 	"/>
	<polyline fill="none" stroke="#FF0000" stroke-linecap="round" stroke-linejoin="round" stroke-miterlimit="10" points="
		419.155,461.23 419.871,456.31 421.81,451.73 424.54,447.659 427.632,444.267 430.654,441.721 433.176,440.19 	"/>
	<polyline fill="none" stroke="#0000FF" stroke-linecap="round" stroke-linejoin="round" stroke-miterlimit="10" points="
		419.247,232.428 414.658,224.804 410.068,217.18 405.479,209.556 400.889,201.932 396.299,194.309 391.71,186.685 387.12,179.061 
		382.531,171.437 377.941,163.814 	"/>
	<polyline fill="none" stroke="#FF0000" stroke-linecap="round" stroke-linejoin="round" stroke-miterlimit="10" points="
		419.247,139.995 419.247,149.238 419.247,158.482 419.247,167.725 419.247,176.968 419.247,186.211 419.247,195.455 
		419.247,204.698 419.247,213.941 419.247,223.184 419.247,232.428 	"/>
	<polyline fill="none" stroke="#FF0000" stroke-linecap="round" stroke-linejoin="round" stroke-miterlimit="10" points="
		286.935,570.584 282.961,577.404 278.144,582.919 272.687,587.261 266.792,590.564 260.661,592.959 254.496,594.578 
		248.501,595.554 242.877,596.019 	"/>
	<path fill="none" stroke="#FF0000" stroke-linecap="round" stroke-linejoin="round" stroke-miterlimit="10" d="M286.969,621.491"/>
	<polyline fill="none" stroke="#FF0000" stroke-linecap="round" stroke-linejoin="round" stroke-miterlimit="10" points="
		24.23,596.125 34.17,596.121 44.11,596.118 54.05,596.115 63.99,596.112 73.93,596.109 83.87,596.106 93.81,596.102 
		103.75,596.099 113.69,596.096 123.63,596.093 133.57,596.09 143.51,596.087 153.451,596.084 163.391,596.08 173.331,596.077 
		183.271,596.074 193.211,596.071 203.151,596.068 213.091,596.065 223.031,596.061 232.971,596.058 242.911,596.055 	"/>
	<polyline fill="none" stroke="#FF0000" stroke-linecap="round" stroke-linejoin="round" stroke-miterlimit="10" points="
		286.94,570.564 295.052,576.259 303.079,580.95 310.972,584.669 318.683,587.449 326.162,589.321 333.362,590.317 340.234,590.47 
		346.729,589.81 352.797,588.37 358.392,586.182 363.463,583.277 367.963,579.688 371.843,575.447 375.053,570.585 	"/>
	<polyline fill="none" stroke="#0000FF" stroke-linecap="round" stroke-linejoin="round" stroke-miterlimit="10" points="
		353.026,557.845 350.44,561.514 347.317,564.372 343.594,566.353 339.208,567.392 334.093,567.425 328.187,566.386 321.425,564.21 
		313.743,560.833 305.077,556.188 298.493,553.157 292.504,551.853 286.985,551.972 281.81,553.208 276.85,555.253 271.982,557.802 
		267.077,560.549 262.01,563.189 256.653,565.413 250.882,566.918 246.23,567.57 240.268,568.166 233.208,568.704 225.259,569.181 
		216.63,569.597 207.532,569.948 198.174,570.234 188.767,570.453 179.519,570.602 170.641,570.68 162.343,570.686 154.834,570.616 
		145.499,570.601 136.164,570.586 126.83,570.571 117.495,570.556 108.16,570.541 98.826,570.526 89.491,570.511 80.157,570.496 
		70.822,570.481 61.487,570.466 52.153,570.451 42.818,570.436 33.483,570.421 24.149,570.406 	"/>
	<polyline fill="none" stroke="#FF0000" stroke-linecap="round" stroke-linejoin="round" stroke-miterlimit="10" points="
		286.934,519.704 282.732,524.152 277.548,528.05 271.476,531.433 264.61,534.338 257.046,536.801 248.877,538.859 240.199,540.548 
		231.105,541.905 221.691,542.965 212.051,543.765 202.279,544.341 192.471,544.731 182.72,544.969 173.122,545.093 
		163.771,545.139 154.761,545.142 145.435,545.13 136.108,545.117 126.782,545.104 117.455,545.091 108.128,545.078 98.802,545.065 
		89.475,545.052 80.149,545.039 70.822,545.026 61.495,545.013 52.169,545.001 42.842,544.988 33.516,544.975 24.189,544.962 	"/>
	<polyline fill="none" stroke="#0000FF" stroke-linecap="round" stroke-linejoin="round" stroke-miterlimit="10" points="
		264.924,506.96 261.982,509.051 257.929,510.908 252.866,512.543 246.893,513.969 240.111,515.197 232.621,516.24 224.523,517.11 
		215.918,517.821 206.906,518.385 197.588,518.813 188.065,519.118 178.438,519.313 168.806,519.411 159.271,519.423 
		149.62,519.424 139.968,519.424 130.316,519.424 120.665,519.424 111.013,519.425 101.362,519.425 91.71,519.425 82.058,519.426 
		72.407,519.426 62.755,519.427 53.104,519.427 43.452,519.427 33.8,519.427 24.149,519.428 	"/>
	<polyline fill="none" stroke="#FF0000" stroke-linecap="round" stroke-linejoin="round" stroke-miterlimit="10" points="
		331.003,545.12 323.844,540.995 316.685,536.87 309.526,532.744 302.367,528.619 297.747,526.779 292.811,526.168 287.921,526.497 
		283.437,527.479 279.721,528.823 277.134,530.242 	"/>
	<polyline fill="none" stroke="#0000FF" stroke-linecap="round" stroke-linejoin="round" stroke-miterlimit="10" points="
		24.189,466.581 33.731,466.727 43.272,466.873 52.814,467.019 62.356,467.165 71.897,467.311 81.439,467.457 90.98,467.603 
		100.522,467.749 110.064,467.895 119.605,468.041 129.147,468.187 138.688,468.333 148.23,468.48 153.209,468.246 159.441,467.701 
		166.251,466.875 172.961,465.795 178.898,464.49 183.383,462.989 185.743,461.319 	"/>
	<polyline fill="none" stroke="#FF0000" stroke-linecap="round" stroke-linejoin="round" stroke-miterlimit="10" points="
		24.23,441.137 33.391,441.137 42.551,441.137 51.712,441.137 60.873,441.137 70.034,441.137 79.195,441.137 88.356,441.137 
		97.517,441.137 106.678,441.137 115.839,441.137 122.456,440.453 128.801,439.403 134.327,438.101 138.489,436.661 
		140.742,435.198 	"/>
	<polyline fill="none" stroke="#FF0000" stroke-linecap="round" stroke-linejoin="round" stroke-miterlimit="10" points="
		24.189,492.212 33.582,492.209 42.975,492.206 52.368,492.202 61.762,492.199 71.155,492.196 80.548,492.193 89.941,492.189 
		99.334,492.186 108.727,492.183 118.12,492.179 127.513,492.176 136.907,492.173 146.3,492.17 155.693,492.166 165.086,492.163 
		174.479,492.16 183.709,492.147 192.209,491.896 199.89,491.36 206.664,490.493 212.444,489.25 217.141,487.582 220.668,485.445 
		222.936,482.793 	"/>
	<polyline fill="none" stroke="#FF0000" stroke-linecap="round" stroke-linejoin="round" stroke-miterlimit="10" points="
		330.979,494.287 339.966,498.465 348.042,503.071 355.21,508.047 361.473,513.334 366.834,518.876 371.297,524.613 
		374.864,530.488 377.54,536.443 379.327,542.418 380.23,548.357 380.25,554.202 379.392,559.893 377.658,565.373 375.053,570.585 	
		"/>
	<polyline fill="none" stroke="#0000FF" stroke-linecap="round" stroke-linejoin="round" stroke-miterlimit="10" points="
		353.006,557.879 354.891,553.804 355.804,549.671 355.659,545.457 354.366,541.138 351.837,536.693 347.984,532.097 
		342.719,527.329 335.952,522.365 327.597,517.182 321.68,512.996 317.557,508.461 314.9,503.622 313.382,498.522 312.674,493.205 
		312.447,487.714 312.374,482.092 312.126,476.384 311.375,470.633 309.792,464.883 308.031,460.528 305.566,455.067 
		302.501,448.684 298.94,441.561 294.986,433.881 290.741,425.826 286.31,417.579 281.796,409.322 277.301,401.239 272.93,393.511 
		268.785,386.322 264.97,379.854 260.29,371.777 255.61,363.701 250.93,355.624 246.249,347.547 241.569,339.471 236.889,331.394 
		232.208,323.318 227.528,315.241 222.848,307.165 218.167,299.088 213.487,291.012 208.807,282.935 204.126,274.859 
		199.446,266.782 	"/>
	<polyline fill="none" stroke="#FF0000" stroke-linecap="round" stroke-linejoin="round" stroke-miterlimit="10" points="
		286.929,519.712 288.681,513.849 289.464,507.411 289.358,500.46 288.441,493.062 286.792,485.279 284.49,477.176 281.613,468.815 
		278.241,460.262 274.452,451.579 270.325,442.83 265.939,434.08 261.371,425.391 256.703,416.828 252.011,408.453 247.375,400.332 
		242.874,392.528 238.199,384.457 233.525,376.387 228.85,368.316 224.176,360.245 219.501,352.175 214.827,344.104 
		210.152,336.033 205.478,327.963 200.803,319.892 196.129,311.822 191.454,303.751 186.78,295.68 182.106,287.61 177.431,279.539 	
		"/>
	<polyline fill="none" stroke="#0000FF" stroke-linecap="round" stroke-linejoin="round" stroke-miterlimit="10" points="
		264.887,507.022 265.228,503.429 264.81,498.991 263.694,493.788 261.942,487.903 259.615,481.416 256.773,474.407 
		253.478,466.959 249.791,459.151 245.773,451.065 241.485,442.782 236.988,434.382 232.343,425.946 227.612,417.557 
		222.855,409.293 218.029,400.934 213.204,392.576 208.378,384.217 203.553,375.858 198.727,367.499 193.902,359.141 
		189.076,350.782 184.251,342.423 179.425,334.065 174.6,325.706 169.774,317.347 164.949,308.989 160.123,300.63 155.298,292.271 	
		"/>
	<polyline fill="none" stroke="#FF0000" stroke-linecap="round" stroke-linejoin="round" stroke-miterlimit="10" points="
		302.367,528.619 298.463,525.539 295.466,521.57 293.306,517.17 291.914,512.796 291.221,508.906 291.156,505.956 	"/>
	<polyline fill="none" stroke="#0000FF" stroke-linecap="round" stroke-linejoin="round" stroke-miterlimit="10" points="
		109.551,318.73 114.449,326.92 119.346,335.11 124.243,343.3 129.14,351.491 134.038,359.681 138.935,367.871 143.832,376.061 
		148.729,384.252 153.627,392.442 158.524,400.632 163.421,408.822 168.319,417.013 173.216,425.203 175.503,429.632 
		178.147,435.301 180.837,441.612 183.257,447.963 185.095,453.756 186.037,458.392 185.771,461.27 	"/>
	<polyline fill="none" stroke="#FF0000" stroke-linecap="round" stroke-linejoin="round" stroke-miterlimit="10" points="
		87.536,331.487 92.117,339.42 96.697,347.354 101.278,355.287 105.858,363.221 110.439,371.155 115.019,379.088 119.6,387.022 
		124.18,394.955 128.76,402.889 133.341,410.823 136.057,416.895 138.32,422.915 139.956,428.352 140.79,432.676 140.649,435.358 	
		"/>
	<polyline fill="none" stroke="#0000FF" stroke-linecap="round" stroke-linejoin="round" stroke-miterlimit="10" points="
		104.264,414.138 99.406,405.398 94.548,396.658 89.691,387.918 84.833,379.178 79.976,370.438 75.118,361.698 70.26,352.958 
		65.403,344.219 	"/>
	<polyline fill="none" stroke="#FF0000" stroke-linecap="round" stroke-linejoin="round" stroke-miterlimit="10" points="
		131.749,305.914 136.442,314.05 141.136,322.187 145.83,330.323 150.523,338.459 155.217,346.596 159.911,354.732 164.605,362.868 
		169.298,371.004 173.992,379.141 178.686,387.277 183.379,395.413 188.073,403.55 192.767,411.686 197.46,419.822 202.154,427.959 
		206.848,436.095 211.452,444.095 215.485,451.582 218.861,458.501 221.497,464.801 223.31,470.428 224.215,475.33 224.127,479.453 
		222.964,482.744 	"/>
	<polyline fill="none" stroke="#0000FF" stroke-linecap="round" stroke-linejoin="round" stroke-miterlimit="10" points="
		104.264,414.138 95.366,414.301 86.469,414.463 77.572,414.626 68.675,414.789 59.778,414.952 50.881,415.115 41.983,415.277 
		33.086,415.44 24.189,415.603 	"/>
	<polyline fill="none" stroke="#FF0000" stroke-linecap="round" stroke-linejoin="round" stroke-miterlimit="10" points="
		24.215,367.922 32.22,372.543 40.225,377.165 48.229,381.786 56.234,386.408 64.239,391.03 72.244,395.651 80.249,400.273 
		88.254,404.895 96.259,409.516 104.264,414.138 	"/>
	<polyline fill="none" stroke="#FF0000" stroke-linecap="round" stroke-linejoin="round" stroke-miterlimit="10" points="
		330.959,697.802 334.878,704.653 337.246,711.582 338.278,718.48 338.191,725.236 337.199,731.744 335.52,737.892 333.367,743.572 
		330.958,748.675 	"/>
	<path fill="none" stroke="#FF0000" stroke-linecap="round" stroke-linejoin="round" stroke-miterlimit="10" d="M375.063,723.226"/>
	<polyline fill="none" stroke="#FF0000" stroke-linecap="round" stroke-linejoin="round" stroke-miterlimit="10" points="
		221.71,938.108 226.678,929.497 231.646,920.886 236.614,912.275 241.582,903.664 246.55,895.052 251.518,886.441 256.486,877.83 
		261.454,869.219 266.422,860.608 271.39,851.997 276.358,843.386 281.326,834.775 286.294,826.163 291.262,817.552 296.23,808.941 
		301.198,800.33 306.166,791.719 311.134,783.108 316.102,774.497 321.07,765.885 326.038,757.274 331.006,748.663 	"/>
	<polyline fill="none" stroke="#FF0000" stroke-linecap="round" stroke-linejoin="round" stroke-miterlimit="10" points="
		330.945,697.787 339.932,693.61 348.008,689.004 355.176,684.028 361.439,678.74 366.8,673.199 371.263,667.461 374.83,661.586 
		377.506,655.632 379.294,649.656 380.196,643.717 380.216,637.873 379.358,632.181 377.624,626.701 375.019,621.49 	"/>
	<polyline fill="none" stroke="#0000FF" stroke-linecap="round" stroke-linejoin="round" stroke-miterlimit="10" points="
		352.973,634.195 354.857,638.27 355.77,642.404 355.625,646.618 354.332,650.936 351.803,655.382 347.95,659.977 342.685,664.746 
		335.919,669.71 327.563,674.892 321.646,679.079 317.523,683.613 314.866,688.452 313.348,693.552 312.64,698.87 312.413,704.361 
		312.34,709.982 312.092,715.69 311.341,721.441 309.758,727.192 307.997,731.547 305.532,737.008 302.468,743.391 298.906,750.514 
		294.952,758.194 290.707,766.249 286.276,774.496 281.762,782.753 277.267,790.836 272.896,798.563 268.751,805.753 
		264.937,812.221 260.256,820.297 255.576,828.374 250.896,836.451 246.215,844.527 241.535,852.604 236.855,860.68 
		232.174,868.757 227.494,876.833 222.814,884.91 218.133,892.986 213.453,901.063 208.773,909.139 204.092,917.216 
		199.412,925.292 	"/>
	<polyline fill="none" stroke="#FF0000" stroke-linecap="round" stroke-linejoin="round" stroke-miterlimit="10" points="
		286.896,672.363 288.647,678.226 289.431,684.664 289.324,691.614 288.407,699.013 286.758,706.795 284.456,714.899 
		281.58,723.259 278.207,731.813 274.418,740.495 270.291,749.244 265.905,757.995 261.338,766.684 256.669,775.247 
		251.977,783.621 247.341,791.742 242.84,799.547 238.165,807.617 233.491,815.688 228.816,823.759 224.142,831.829 219.467,839.9 
		214.793,847.97 210.118,856.041 205.444,864.112 200.77,872.182 196.095,880.253 191.421,888.324 186.746,896.394 182.072,904.465 
		177.397,912.535 	"/>
	<polyline fill="none" stroke="#0000FF" stroke-linecap="round" stroke-linejoin="round" stroke-miterlimit="10" points="
		264.853,685.052 265.194,688.646 264.776,693.084 263.66,698.286 261.908,704.172 259.581,710.659 256.739,717.667 
		253.444,725.116 249.757,732.923 245.739,741.009 241.451,749.293 236.954,757.693 232.309,766.128 227.578,774.518 
		222.821,782.781 217.995,791.14 213.17,799.499 208.344,807.858 203.519,816.216 198.693,824.575 193.868,832.934 189.042,841.292 
		184.217,849.651 179.391,858.01 174.566,866.369 169.74,874.727 164.915,883.086 160.089,891.445 155.264,899.803 	"/>
	<polyline fill="none" stroke="#FF0000" stroke-linecap="round" stroke-linejoin="round" stroke-miterlimit="10" points="
		330.941,646.906 323.789,651.043 316.637,655.181 309.485,659.318 302.333,663.455 298.429,666.536 295.432,670.505 
		293.272,674.905 291.88,679.279 291.187,683.169 291.122,686.119 	"/>
	<polyline fill="none" stroke="#0000FF" stroke-linecap="round" stroke-linejoin="round" stroke-miterlimit="10" points="
		109.517,873.345 114.415,865.155 119.312,856.964 124.209,848.774 129.106,840.584 134.004,832.394 138.901,824.203 
		143.798,816.013 148.696,807.823 153.593,799.633 158.49,791.442 163.387,783.252 168.285,775.062 173.182,766.872 
		175.469,762.443 178.114,756.773 180.803,750.463 183.223,744.111 185.061,738.318 186.004,733.683 185.737,730.804 	"/>
	<polyline fill="none" stroke="#FF0000" stroke-linecap="round" stroke-linejoin="round" stroke-miterlimit="10" points="
		87.502,860.588 92.083,852.654 96.663,844.721 101.244,836.787 105.824,828.854 110.405,820.92 114.985,812.986 119.566,805.053 
		124.146,797.119 128.727,789.186 133.307,781.252 136.023,775.18 138.286,769.16 139.922,763.723 140.756,759.398 140.616,756.716 
			"/>
	<polyline fill="none" stroke="#FF0000" stroke-linecap="round" stroke-linejoin="round" stroke-miterlimit="10" points="
		131.715,886.161 136.408,878.024 141.102,869.888 145.796,861.752 150.49,853.615 155.183,845.479 159.877,837.343 
		164.571,829.206 169.264,821.07 173.958,812.934 178.652,804.797 183.345,796.661 188.039,788.525 192.733,780.388 
		197.427,772.252 202.12,764.116 206.814,755.979 211.418,747.979 215.451,740.493 218.827,733.573 221.464,727.273 
		223.276,721.646 224.181,716.745 224.094,712.622 222.931,709.331 	"/>
	<polyline fill="none" stroke="#FF0000" stroke-linecap="round" stroke-linejoin="round" stroke-miterlimit="10" points="
		286.901,621.491 282.927,614.671 278.11,609.156 272.653,604.813 266.758,601.511 260.627,599.116 254.462,597.496 248.467,596.52 
		242.843,596.055 	"/>
	<polyline fill="none" stroke="#FF0000" stroke-linecap="round" stroke-linejoin="round" stroke-miterlimit="10" points="
		286.906,621.511 295.018,615.816 303.045,611.125 310.938,607.405 318.649,604.625 326.128,602.753 333.328,601.757 340.2,601.605 
		346.695,602.265 352.764,603.705 358.358,605.893 363.43,608.798 367.929,612.386 371.809,616.628 375.019,621.49 	"/>
	<polyline fill="none" stroke="#0000FF" stroke-linecap="round" stroke-linejoin="round" stroke-miterlimit="10" points="
		352.992,634.23 350.406,630.561 347.283,627.703 343.56,625.722 339.174,624.682 334.06,624.65 328.153,625.689 321.391,627.864 
		313.709,631.242 305.043,635.886 298.459,638.918 292.47,640.221 286.952,640.102 281.776,638.867 276.817,636.822 
		271.948,634.272 267.043,631.525 261.976,628.886 256.62,626.661 250.848,625.157 246.196,624.504 240.234,623.908 
		233.174,623.371 225.225,622.893 216.596,622.478 207.498,622.126 198.14,621.84 188.733,621.622 179.485,621.472 170.607,621.394 
		162.309,621.389 154.8,621.458 145.465,621.474 136.131,621.489 126.796,621.503 117.461,621.518 108.127,621.534 98.792,621.549 
		89.457,621.564 80.123,621.579 70.788,621.594 61.453,621.609 52.119,621.624 42.784,621.639 33.449,621.654 24.115,621.669 	"/>
	<polyline fill="none" stroke="#FF0000" stroke-linecap="round" stroke-linejoin="round" stroke-miterlimit="10" points="
		286.9,672.371 282.699,667.922 277.514,664.025 271.442,660.641 264.577,657.736 257.012,655.273 248.843,653.215 240.165,651.526 
		231.071,650.17 221.657,649.11 212.017,648.31 202.245,647.733 192.437,647.344 182.686,647.106 173.088,646.982 163.737,646.936 
		154.728,646.932 145.401,646.945 136.074,646.958 126.748,646.971 117.421,646.984 108.095,646.997 98.768,647.009 89.441,647.022 
		80.115,647.035 70.788,647.048 61.462,647.061 52.135,647.074 42.808,647.087 33.482,647.1 24.155,647.113 	"/>
	<polyline fill="none" stroke="#0000FF" stroke-linecap="round" stroke-linejoin="round" stroke-miterlimit="10" points="
		264.89,685.115 261.948,683.023 257.895,681.166 252.832,679.531 246.859,678.106 240.077,676.878 232.587,675.835 
		224.489,674.964 215.884,674.253 206.872,673.69 197.554,673.262 188.031,672.956 178.404,672.761 168.772,672.664 
		159.237,672.651 149.586,672.651 139.934,672.651 130.283,672.65 120.631,672.65 110.979,672.65 101.328,672.649 91.676,672.649 
		82.024,672.649 72.373,672.648 62.721,672.648 53.07,672.648 43.418,672.647 33.766,672.647 24.115,672.647 	"/>
	<polyline fill="none" stroke="#FF0000" stroke-linecap="round" stroke-linejoin="round" stroke-miterlimit="10" points="
		302.333,663.455 297.713,665.296 292.777,665.907 287.887,665.577 283.403,664.596 279.687,663.251 277.1,661.833 	"/>
	<polyline fill="none" stroke="#0000FF" stroke-linecap="round" stroke-linejoin="round" stroke-miterlimit="10" points="
		24.155,725.493 33.697,725.347 43.238,725.201 52.78,725.055 62.322,724.909 71.863,724.763 81.405,724.617 90.946,724.471 
		100.488,724.325 110.03,724.179 119.571,724.033 129.113,723.887 138.655,723.741 148.196,723.595 153.175,723.829 
		159.407,724.373 166.217,725.2 172.928,726.279 178.864,727.584 183.35,729.086 185.709,730.756 	"/>
	<polyline fill="none" stroke="#FF0000" stroke-linecap="round" stroke-linejoin="round" stroke-miterlimit="10" points="
		24.196,750.938 33.357,750.938 42.518,750.938 51.678,750.938 60.839,750.938 70,750.938 79.161,750.938 88.322,750.938 
		97.483,750.938 106.644,750.938 115.805,750.938 122.422,751.621 128.767,752.671 134.293,753.974 138.456,755.413 
		140.708,756.876 	"/>
	<polyline fill="none" stroke="#0000FF" stroke-linecap="round" stroke-linejoin="round" stroke-miterlimit="10" points="
		104.137,777.777 94.14,777.614 84.142,777.451 74.144,777.287 64.146,777.124 54.149,776.961 44.151,776.798 34.153,776.635 
		24.155,776.472 	"/>
	<polyline fill="none" stroke="#FF0000" stroke-linecap="round" stroke-linejoin="round" stroke-miterlimit="10" points="
		24.155,699.862 33.548,699.865 42.941,699.869 52.335,699.872 61.728,699.875 71.121,699.879 80.514,699.882 89.907,699.885 
		99.3,699.889 108.693,699.892 118.086,699.895 127.48,699.898 136.873,699.902 146.266,699.905 155.659,699.908 165.052,699.912 
		174.445,699.915 183.676,699.927 192.175,700.179 199.856,700.714 206.63,701.581 212.41,702.825 217.107,704.492 220.634,706.629 
		222.903,709.282 	"/>
	<polyline fill="none" stroke="#0000FF" stroke-linecap="round" stroke-linejoin="round" stroke-miterlimit="10" points="
		104.137,777.777 99.83,785.563 95.522,793.35 91.215,801.137 86.907,808.923 82.599,816.71 78.292,824.496 73.984,832.283 
		69.677,840.069 65.369,847.856 	"/>
	<polyline fill="none" stroke="#FF0000" stroke-linecap="round" stroke-linejoin="round" stroke-miterlimit="10" points="
		24.089,823.993 32.093,819.371 40.098,814.75 48.103,810.128 56.108,805.507 64.113,800.885 72.118,796.263 80.123,791.642 
		88.128,787.02 96.133,782.398 104.137,777.777 	"/>
	<polyline fill="none" stroke="#FF0000" stroke-linecap="round" stroke-linejoin="round" stroke-miterlimit="10" points="
		419.059,697.853 419.066,706.115 419.073,714.378 419.08,722.64 419.087,730.903 419.803,735.824 421.742,740.404 424.473,744.474 
		427.564,747.866 430.587,750.412 433.109,751.943 	"/>
	<polyline fill="none" stroke="#FF0000" stroke-linecap="round" stroke-linejoin="round" stroke-miterlimit="10" points="
		375.049,723.29 374.173,713.418 374.124,704.121 374.849,695.425 376.297,687.358 378.416,679.944 381.153,673.211 
		384.457,667.183 388.276,661.889 392.557,657.353 397.25,653.602 402.301,650.662 407.659,648.56 413.272,647.321 419.087,646.972 
			"/>
	<polyline fill="none" stroke="#0000FF" stroke-linecap="round" stroke-linejoin="round" stroke-miterlimit="10" points="
		419.107,672.417 414.636,672.823 410.6,674.098 407.023,676.332 403.929,679.611 401.344,684.024 399.291,689.658 397.794,696.602 
		396.878,704.944 396.567,714.771 395.9,721.989 394.035,727.827 391.172,732.547 387.515,736.411 383.264,739.684 378.622,742.625 
		373.79,745.499 368.971,748.568 364.366,752.094 360.177,756.34 357.286,760.043 353.789,764.908 349.794,770.754 345.406,777.399 
		340.732,784.664 335.878,792.367 330.951,800.328 326.058,808.366 321.305,816.3 316.799,823.95 312.645,831.134 308.951,837.672 
		304.296,845.763 299.642,853.855 294.988,861.946 290.333,870.038 285.679,878.129 281.025,886.221 276.37,894.312 
		271.716,902.404 267.062,910.495 262.407,918.587 257.753,926.678 253.099,934.77 248.444,942.862 243.79,950.953 	"/>
	<polyline fill="none" stroke="#FF0000" stroke-linecap="round" stroke-linejoin="round" stroke-miterlimit="10" points="
		419.092,748.725 413.139,750.14 407.171,752.681 401.205,756.248 395.256,760.741 389.341,766.06 383.474,772.106 377.672,778.777 
		371.951,785.974 366.326,793.597 360.813,801.546 355.428,809.72 350.186,818.02 345.105,826.345 340.198,834.595 335.483,842.67 
		330.975,850.471 326.323,858.554 321.671,866.638 317.019,874.721 312.367,882.805 307.715,890.888 303.062,898.972 
		298.41,907.055 293.758,915.139 289.106,923.223 284.454,931.306 279.802,939.39 275.15,947.473 270.497,955.557 265.845,963.64 	
		"/>
	<polyline fill="none" stroke="#0000FF" stroke-linecap="round" stroke-linejoin="round" stroke-miterlimit="10" points="
		419.124,774.159 415.841,775.661 412.206,778.242 408.259,781.81 404.038,786.269 399.584,791.529 394.935,797.494 
		390.132,804.072 385.214,811.169 380.22,818.692 375.191,826.547 370.165,834.641 365.182,842.881 360.282,851.174 
		355.504,859.425 350.677,867.783 345.851,876.142 341.025,884.5 336.199,892.858 331.373,901.217 326.547,909.575 321.721,917.934 
		316.895,926.292 312.069,934.65 307.243,943.009 302.417,951.367 297.59,959.725 292.764,968.084 287.938,976.442 	"/>
	<polyline fill="none" stroke="#FF0000" stroke-linecap="round" stroke-linejoin="round" stroke-miterlimit="10" points="
		419.115,697.853 419.108,706.115 419.101,714.378 419.094,722.64 419.087,730.903 418.371,735.824 416.433,740.404 
		413.702,744.474 410.61,747.866 407.588,750.412 405.066,751.943 	"/>
	<polyline fill="none" stroke="#0000FF" stroke-linecap="round" stroke-linejoin="round" stroke-miterlimit="10" points="
		333.725,1002.831 338.369,994.494 343.014,986.158 347.658,977.822 352.302,969.485 356.947,961.149 361.591,952.813 
		366.235,944.477 370.88,936.14 375.524,927.804 380.168,919.468 384.813,911.131 389.457,902.795 394.101,894.459 396.794,890.264 
		400.381,885.139 404.501,879.655 408.792,874.383 412.89,869.894 416.433,866.76 419.059,865.552 	"/>
	<polyline fill="none" stroke="#FF0000" stroke-linecap="round" stroke-linejoin="round" stroke-miterlimit="10" points="
		355.781,1015.518 360.361,1007.584 364.941,999.65 369.522,991.717 374.102,983.783 378.683,975.85 383.263,967.916 
		387.844,959.982 392.424,952.049 397.005,944.115 401.585,936.182 405.486,930.793 409.568,925.823 413.459,921.688 
		416.786,918.803 419.18,917.584 	"/>
	<polyline fill="none" stroke="#0000FF" stroke-linecap="round" stroke-linejoin="round" stroke-miterlimit="10" points="
		418.995,959.706 413.855,968.282 408.715,976.859 403.574,985.436 398.434,994.013 393.294,1002.589 388.154,1011.166 
		383.014,1019.743 377.874,1028.32 	"/>
	<polyline fill="none" stroke="#FF0000" stroke-linecap="round" stroke-linejoin="round" stroke-miterlimit="10" points="
		311.528,990.015 316.227,981.882 320.927,973.749 325.626,965.616 330.325,957.483 335.025,949.35 339.724,941.217 
		344.424,933.084 349.123,924.951 353.823,916.818 358.522,908.685 363.221,900.552 367.921,892.419 372.62,884.285 377.32,876.152 
		382.019,868.019 386.718,859.886 391.345,851.899 395.812,844.664 400.116,838.28 404.254,832.846 408.221,828.463 
		412.013,825.229 415.628,823.243 419.059,822.605 	"/>
	<polyline fill="none" stroke="#FF0000" stroke-linecap="round" stroke-linejoin="round" stroke-miterlimit="10" points="
		331.027,494.331 334.946,487.48 337.314,480.551 338.346,473.654 338.259,466.897 337.267,460.39 335.587,454.242 333.435,448.561 
		331.026,443.459 	"/>
	<polyline fill="none" stroke="#FF0000" stroke-linecap="round" stroke-linejoin="round" stroke-miterlimit="10" points="
		375.063,723.226 367.17,723.258 359.985,724.672 353.496,727.226 347.688,730.68 342.548,734.793 338.064,739.321 334.221,744.025 
		331.006,748.663 	"/>
	<polyline fill="none" stroke="#FF0000" stroke-linecap="round" stroke-linejoin="round" stroke-miterlimit="10" points="
		463.27,468.849 471.162,468.817 478.347,467.403 484.836,464.848 490.644,461.394 495.784,457.282 500.268,452.753 
		504.111,448.049 507.326,443.411 	"/>
	<path fill="none" stroke="#FF0000" stroke-linecap="round" stroke-linejoin="round" stroke-miterlimit="10" d="M507.339,494.331"/>
	<polyline fill="none" stroke="#FF0000" stroke-linecap="round" stroke-linejoin="round" stroke-miterlimit="10" points="
		616.796,254.014 611.821,262.625 606.846,271.236 601.87,279.848 596.895,288.459 591.92,297.07 586.944,305.681 581.969,314.292 
		576.994,322.903 572.019,331.514 567.043,340.125 562.068,348.736 557.093,357.347 552.118,365.959 547.142,374.57 
		542.167,383.181 537.192,391.792 532.216,400.403 527.241,409.014 522.266,417.625 517.291,426.236 512.315,434.847 
		507.34,443.459 	"/>
	<polyline fill="none" stroke="#FF0000" stroke-linecap="round" stroke-linejoin="round" stroke-miterlimit="10" points="
		463.249,468.843 464.125,478.716 464.175,488.013 463.449,496.708 462.001,504.775 459.883,512.189 457.145,518.923 
		453.841,524.95 450.023,530.244 445.741,534.78 441.049,538.531 435.998,541.471 430.64,543.573 425.027,544.812 419.211,545.161 	
		"/>
	<polyline fill="none" stroke="#0000FF" stroke-linecap="round" stroke-linejoin="round" stroke-miterlimit="10" points="
		419.191,519.716 423.662,519.31 427.699,518.035 431.276,515.801 434.369,512.522 436.955,508.11 439.008,502.475 440.505,495.531 
		441.421,487.19 441.731,477.362 442.398,470.144 444.264,464.307 447.126,459.587 450.784,455.722 455.035,452.45 459.677,449.508 
		464.508,446.634 469.328,443.565 473.932,440.039 478.121,435.793 481.012,432.09 484.509,427.225 488.505,421.38 492.893,414.734 
		497.567,407.469 502.42,399.766 507.347,391.805 512.24,383.767 516.993,375.833 521.5,368.183 525.654,360.999 529.348,354.462 
		534.002,346.37 538.657,338.279 543.311,330.187 547.965,322.096 552.62,314.004 557.274,305.912 561.928,297.821 566.583,289.729 
		571.237,281.638 575.891,273.546 580.546,265.455 585.2,257.363 589.854,249.272 594.508,241.18 	"/>
	<polyline fill="none" stroke="#FF0000" stroke-linecap="round" stroke-linejoin="round" stroke-miterlimit="10" points="
		419.207,443.408 425.16,441.993 431.127,439.453 437.093,435.885 443.042,431.392 448.958,426.073 454.824,420.027 
		460.626,413.356 466.348,406.159 471.973,398.536 477.486,390.587 482.871,382.413 488.112,374.114 493.194,365.789 498.1,357.538 
		502.815,349.463 507.323,341.662 511.975,333.579 516.628,325.495 521.28,317.412 525.932,309.328 530.584,301.245 
		535.236,293.161 539.888,285.078 544.54,276.994 549.192,268.911 553.845,260.827 558.497,252.744 563.149,244.66 567.801,236.577 
		572.453,228.493 	"/>
	<polyline fill="none" stroke="#0000FF" stroke-linecap="round" stroke-linejoin="round" stroke-miterlimit="10" points="
		419.175,417.974 422.457,416.472 426.092,413.891 430.039,410.324 434.26,405.864 438.715,400.604 443.363,394.639 
		448.166,388.061 453.084,380.964 458.078,373.442 463.108,365.586 468.134,357.492 473.117,349.252 478.017,340.96 
		482.795,332.708 487.621,324.35 492.447,315.991 497.273,307.633 502.099,299.275 506.925,290.916 511.751,282.558 516.578,274.2 
		521.404,265.841 526.23,257.483 531.056,249.125 535.882,240.766 540.708,232.408 545.534,224.049 550.36,215.691 	"/>
	<polyline fill="none" stroke="#0000FF" stroke-linecap="round" stroke-linejoin="round" stroke-miterlimit="10" points="
		504.573,189.303 499.929,197.639 495.285,205.975 490.64,214.312 485.996,222.648 481.352,230.984 476.707,239.32 472.063,247.657 
		467.419,255.993 462.774,264.329 458.13,272.666 453.486,281.002 448.841,289.338 444.197,297.674 441.505,301.869 
		437.917,306.995 433.797,312.479 429.507,317.75 425.408,322.239 421.865,325.373 419.239,326.581 	"/>
	<polyline fill="none" stroke="#FF0000" stroke-linecap="round" stroke-linejoin="round" stroke-miterlimit="10" points="
		482.518,176.616 477.937,184.549 473.357,192.483 468.776,200.416 464.196,208.35 459.616,216.284 455.035,224.217 
		450.455,232.151 445.874,240.084 441.294,248.018 436.713,255.952 432.813,261.34 428.731,266.31 424.84,270.445 421.512,273.33 
		419.119,274.549 	"/>
	<polyline fill="none" stroke="#FF0000" stroke-linecap="round" stroke-linejoin="round" stroke-miterlimit="10" points="
		526.771,202.118 522.071,210.251 517.372,218.384 512.672,226.517 507.973,234.65 503.274,242.783 498.574,250.917 493.875,259.05 
		489.175,267.183 484.476,275.316 479.777,283.449 475.077,291.582 470.378,299.715 465.678,307.848 460.979,315.981 
		456.279,324.114 451.58,332.247 446.954,340.234 442.487,347.47 438.182,353.854 434.045,359.287 430.078,363.67 426.285,366.904 
		422.671,368.89 419.239,369.529 	"/>
	<polyline fill="none" stroke="#0000FF" stroke-linecap="round" stroke-linejoin="round" stroke-miterlimit="10" points="
		419.119,232.428 423.708,224.804 428.298,217.18 432.888,209.556 437.477,201.932 442.067,194.309 446.656,186.685 
		451.246,179.061 455.835,171.437 460.425,163.814 	"/>
	<polyline fill="none" stroke="#FF0000" stroke-linecap="round" stroke-linejoin="round" stroke-miterlimit="10" points="
		551.431,570.584 555.405,577.404 560.222,582.919 565.679,587.261 571.574,590.564 577.706,592.959 583.87,594.578 
		589.865,595.554 595.489,596.019 	"/>
	<path fill="none" stroke="#FF0000" stroke-linecap="round" stroke-linejoin="round" stroke-miterlimit="10" d="M551.397,621.491"/>
	<polyline fill="none" stroke="#FF0000" stroke-linecap="round" stroke-linejoin="round" stroke-miterlimit="10" points="
		814.217,596.037 804.274,596.038 794.33,596.039 784.386,596.04 774.443,596.041 764.499,596.041 754.555,596.042 744.611,596.043 
		734.667,596.044 724.724,596.045 714.78,596.045 704.836,596.046 694.893,596.047 684.949,596.048 675.005,596.049 
		665.061,596.049 655.117,596.05 645.174,596.051 635.23,596.052 625.286,596.053 615.342,596.054 605.399,596.054 595.455,596.055 
			"/>
	<polyline fill="none" stroke="#FF0000" stroke-linecap="round" stroke-linejoin="round" stroke-miterlimit="10" points="
		551.426,570.564 543.314,576.259 535.287,580.95 527.394,584.669 519.684,587.449 512.204,589.321 505.004,590.317 498.132,590.47 
		491.638,589.81 485.569,588.37 479.974,586.182 474.903,583.277 470.403,579.688 466.524,575.447 463.313,570.585 	"/>
	<polyline fill="none" stroke="#0000FF" stroke-linecap="round" stroke-linejoin="round" stroke-miterlimit="10" points="
		485.34,557.845 487.927,561.514 491.049,564.372 494.772,566.353 499.158,567.392 504.273,567.425 510.179,566.386 516.941,564.21 
		524.623,560.833 533.289,556.188 539.873,553.157 545.862,551.853 551.381,551.972 556.557,553.208 561.516,555.253 
		566.385,557.802 571.289,560.549 576.357,563.189 581.713,565.413 587.484,566.918 592.137,567.57 598.098,568.166 
		605.158,568.704 613.107,569.181 621.736,569.597 630.834,569.948 640.192,570.234 649.599,570.453 658.847,570.602 
		667.725,570.68 676.023,570.686 683.532,570.616 692.867,570.601 702.202,570.586 711.536,570.571 720.871,570.556 
		730.206,570.541 739.54,570.526 748.875,570.511 758.21,570.496 767.544,570.481 776.879,570.466 786.214,570.451 795.548,570.436 
		804.883,570.421 814.217,570.406 	"/>
	<polyline fill="none" stroke="#FF0000" stroke-linecap="round" stroke-linejoin="round" stroke-miterlimit="10" points="
		551.432,519.704 555.634,524.152 560.818,528.05 566.89,531.433 573.756,534.338 581.32,536.801 589.489,538.859 598.168,540.548 
		607.261,541.905 616.676,542.965 626.316,543.765 636.087,544.341 645.895,544.731 655.646,544.969 665.244,545.093 
		674.595,545.139 683.605,545.142 692.931,545.13 702.258,545.117 711.585,545.104 720.911,545.091 730.238,545.078 
		739.564,545.065 748.891,545.052 758.217,545.039 767.544,545.026 776.871,545.013 786.197,545.001 795.524,544.988 
		804.85,544.975 814.177,544.962 	"/>
	<polyline fill="none" stroke="#0000FF" stroke-linecap="round" stroke-linejoin="round" stroke-miterlimit="10" points="
		573.443,506.96 576.384,509.051 580.437,510.908 585.5,512.543 591.473,513.969 598.255,515.197 605.745,516.24 613.843,517.11 
		622.449,517.821 631.46,518.385 640.778,518.813 650.301,519.118 659.929,519.313 669.56,519.411 679.095,519.423 688.747,519.424 
		698.398,519.424 708.05,519.424 717.701,519.424 727.353,519.425 737.005,519.425 746.656,519.425 756.308,519.426 
		765.959,519.426 775.611,519.427 785.263,519.427 794.914,519.427 804.566,519.427 814.217,519.428 	"/>
	<polyline fill="none" stroke="#FF0000" stroke-linecap="round" stroke-linejoin="round" stroke-miterlimit="10" points="
		507.363,545.12 514.523,540.995 521.682,536.87 528.841,532.744 536,528.619 540.619,526.779 545.555,526.168 550.445,526.497 
		554.929,527.479 558.645,528.823 561.232,530.242 	"/>
	<path fill="none" stroke="#FF0000" stroke-linecap="round" stroke-linejoin="round" stroke-miterlimit="10" d="M814.217,596.037"/>
	<polyline fill="none" stroke="#0000FF" stroke-linecap="round" stroke-linejoin="round" stroke-miterlimit="10" points="
		814.177,466.581 804.635,466.727 795.094,466.873 785.552,467.019 776.011,467.165 766.469,467.311 756.927,467.457 
		747.386,467.603 737.844,467.749 728.303,467.895 718.761,468.041 709.219,468.187 699.678,468.333 690.136,468.48 
		685.157,468.246 678.925,467.701 672.115,466.875 665.405,465.795 659.469,464.49 654.983,462.989 652.623,461.319 	"/>
	<polyline fill="none" stroke="#FF0000" stroke-linecap="round" stroke-linejoin="round" stroke-miterlimit="10" points="
		814.137,441.137 804.976,441.137 795.815,441.137 786.654,441.137 777.493,441.137 768.332,441.137 759.171,441.137 
		750.01,441.137 740.849,441.137 731.688,441.137 722.527,441.137 715.91,440.453 709.566,439.403 704.039,438.101 699.877,436.661 
		697.624,435.198 	"/>
	<polyline fill="none" stroke="#FF0000" stroke-linecap="round" stroke-linejoin="round" stroke-miterlimit="10" points="
		814.177,492.212 804.784,492.209 795.391,492.206 785.998,492.202 776.605,492.199 767.211,492.196 757.818,492.193 
		748.425,492.189 739.032,492.186 729.639,492.183 720.246,492.179 710.853,492.176 701.46,492.173 692.067,492.17 682.673,492.166 
		673.28,492.163 663.887,492.16 654.657,492.147 646.157,491.896 638.476,491.36 631.702,490.493 625.923,489.25 621.225,487.582 
		617.698,485.445 615.43,482.793 	"/>
	<polyline fill="none" stroke="#FF0000" stroke-linecap="round" stroke-linejoin="round" stroke-miterlimit="10" points="
		507.388,494.287 498.4,498.465 490.324,503.071 483.156,508.047 476.893,513.334 471.532,518.876 467.07,524.613 463.502,530.488 
		460.826,536.443 459.039,542.418 458.136,548.357 458.116,554.202 458.974,559.893 460.708,565.373 463.313,570.585 	"/>
	<polyline fill="none" stroke="#0000FF" stroke-linecap="round" stroke-linejoin="round" stroke-miterlimit="10" points="
		485.36,557.879 483.475,553.804 482.562,549.671 482.708,545.457 484.001,541.138 486.529,536.693 490.382,532.097 
		495.648,527.329 502.414,522.365 510.769,517.182 516.687,512.996 520.809,508.461 523.466,503.622 524.984,498.522 
		525.692,493.205 525.919,487.714 525.992,482.092 526.24,476.384 526.991,470.633 528.574,464.883 530.336,460.528 532.8,455.067 
		535.865,448.684 539.426,441.561 543.38,433.881 547.625,425.826 552.056,417.579 556.571,409.322 561.065,401.239 
		565.436,393.511 569.581,386.322 573.396,379.854 578.076,371.777 582.756,363.701 587.437,355.624 592.117,347.547 
		596.797,339.471 601.478,331.394 606.158,323.318 610.838,315.241 615.519,307.165 620.199,299.088 624.879,291.012 
		629.56,282.935 634.24,274.859 638.92,266.782 	"/>
	<polyline fill="none" stroke="#FF0000" stroke-linecap="round" stroke-linejoin="round" stroke-miterlimit="10" points="
		551.437,519.712 549.685,513.849 548.902,507.411 549.008,500.46 549.925,493.062 551.574,485.279 553.876,477.176 
		556.753,468.815 560.125,460.262 563.914,451.579 568.041,442.83 572.428,434.08 576.995,425.391 581.663,416.828 586.355,408.453 
		590.991,400.332 595.493,392.528 600.167,384.457 604.842,376.387 609.516,368.316 614.19,360.245 618.865,352.175 
		623.539,344.104 628.214,336.033 632.888,327.963 637.563,319.892 642.237,311.822 646.912,303.751 651.586,295.68 656.261,287.61 
		660.935,279.539 	"/>
	<polyline fill="none" stroke="#0000FF" stroke-linecap="round" stroke-linejoin="round" stroke-miterlimit="10" points="
		573.479,507.022 573.138,503.429 573.556,498.991 574.672,493.788 576.424,487.903 578.752,481.416 581.593,474.407 
		584.888,466.959 588.575,459.151 592.594,451.065 596.882,442.782 601.378,434.382 606.023,425.946 610.754,417.557 
		615.511,409.293 620.337,400.934 625.162,392.576 629.988,384.217 634.813,375.858 639.639,367.499 644.464,359.141 
		649.29,350.782 654.115,342.423 658.941,334.065 663.766,325.706 668.592,317.347 673.417,308.989 678.243,300.63 683.068,292.271 
			"/>
	<polyline fill="none" stroke="#FF0000" stroke-linecap="round" stroke-linejoin="round" stroke-miterlimit="10" points="
		536,528.619 539.903,525.539 542.9,521.57 545.06,517.17 546.452,512.796 547.146,508.906 547.211,505.956 	"/>
	<polyline fill="none" stroke="#0000FF" stroke-linecap="round" stroke-linejoin="round" stroke-miterlimit="10" points="
		728.815,318.73 723.918,326.92 719.02,335.11 714.123,343.3 709.226,351.491 704.329,359.681 699.431,367.871 694.534,376.061 
		689.637,384.252 684.739,392.442 679.842,400.632 674.945,408.822 670.048,417.013 665.15,425.203 662.863,429.632 
		660.219,435.301 657.53,441.612 655.109,447.963 653.271,453.756 652.329,458.392 652.595,461.27 	"/>
	<polyline fill="none" stroke="#FF0000" stroke-linecap="round" stroke-linejoin="round" stroke-miterlimit="10" points="
		750.83,331.487 746.249,339.42 741.669,347.354 737.089,355.287 732.508,363.221 727.928,371.155 723.347,379.088 718.767,387.022 
		714.186,394.955 709.606,402.889 705.025,410.823 702.309,416.895 700.046,422.915 698.41,428.352 697.576,432.676 
		697.717,435.358 	"/>
	<polyline fill="none" stroke="#0000FF" stroke-linecap="round" stroke-linejoin="round" stroke-miterlimit="10" points="
		734.103,414.138 738.96,405.398 743.818,396.658 748.675,387.918 753.533,379.178 758.391,370.438 763.248,361.698 
		768.106,352.958 772.963,344.219 	"/>
	<polyline fill="none" stroke="#FF0000" stroke-linecap="round" stroke-linejoin="round" stroke-miterlimit="10" points="
		706.618,305.914 701.924,314.05 697.23,322.187 692.536,330.323 687.843,338.459 683.149,346.596 678.455,354.732 673.762,362.868 
		669.068,371.004 664.374,379.141 659.681,387.277 654.987,395.413 650.293,403.55 645.599,411.686 640.906,419.822 
		636.212,427.959 631.518,436.095 626.914,444.095 622.882,451.582 619.505,458.501 616.869,464.801 615.056,470.428 
		614.152,475.33 614.239,479.453 615.402,482.744 	"/>
	<polyline fill="none" stroke="#0000FF" stroke-linecap="round" stroke-linejoin="round" stroke-miterlimit="10" points="
		734.103,414.138 743,414.301 751.897,414.463 760.794,414.626 769.691,414.789 778.588,414.952 787.486,415.115 796.383,415.277 
		805.28,415.44 814.177,415.603 	"/>
	<polyline fill="none" stroke="#FF0000" stroke-linecap="round" stroke-linejoin="round" stroke-miterlimit="10" points="
		507.407,697.802 503.488,704.653 501.12,711.582 500.088,718.48 500.175,725.236 501.167,731.744 502.846,737.892 504.999,743.572 
		507.408,748.675 	"/>
	<path fill="none" stroke="#FF0000" stroke-linecap="round" stroke-linejoin="round" stroke-miterlimit="10" d="M463.303,723.226"/>
	<polyline fill="none" stroke="#FF0000" stroke-linecap="round" stroke-linejoin="round" stroke-miterlimit="10" points="
		616.656,938.108 611.688,929.497 606.72,920.886 601.752,912.275 596.784,903.664 591.816,895.052 586.848,886.441 581.88,877.83 
		576.912,869.219 571.944,860.608 566.976,851.997 562.008,843.386 557.04,834.775 552.072,826.163 547.104,817.552 
		542.136,808.941 537.168,800.33 532.2,791.719 527.232,783.108 522.264,774.497 517.296,765.885 512.328,757.274 507.36,748.663 	
		"/>
	<polyline fill="none" stroke="#FF0000" stroke-linecap="round" stroke-linejoin="round" stroke-miterlimit="10" points="
		507.421,697.787 498.434,693.61 490.358,689.004 483.19,684.028 476.927,678.74 471.566,673.199 467.103,667.461 463.536,661.586 
		460.86,655.632 459.073,649.656 458.17,643.717 458.15,637.873 459.008,632.181 460.742,626.701 463.347,621.49 	"/>
	<polyline fill="none" stroke="#0000FF" stroke-linecap="round" stroke-linejoin="round" stroke-miterlimit="10" points="
		485.394,634.195 483.509,638.27 482.596,642.404 482.741,646.618 484.034,650.936 486.563,655.382 490.416,659.977 
		495.681,664.746 502.448,669.71 510.803,674.892 516.72,679.079 520.843,683.613 523.5,688.452 525.018,693.552 525.726,698.87 
		525.953,704.361 526.026,709.982 526.274,715.69 527.025,721.441 528.608,727.192 530.369,731.547 532.834,737.008 
		535.899,743.391 539.46,750.514 543.414,758.194 547.659,766.249 552.09,774.496 556.604,782.753 561.099,790.836 565.47,798.563 
		569.615,805.753 573.43,812.221 578.11,820.297 582.79,828.374 587.471,836.451 592.151,844.527 596.831,852.604 601.511,860.68 
		606.192,868.757 610.872,876.833 615.552,884.91 620.233,892.986 624.913,901.063 629.593,909.139 634.274,917.216 
		638.954,925.292 	"/>
	<polyline fill="none" stroke="#FF0000" stroke-linecap="round" stroke-linejoin="round" stroke-miterlimit="10" points="
		551.471,672.363 549.719,678.226 548.936,684.664 549.042,691.614 549.959,699.013 551.608,706.795 553.91,714.899 
		556.786,723.259 560.159,731.813 563.948,740.495 568.075,749.244 572.462,757.995 577.029,766.684 581.697,775.247 
		586.389,783.621 591.025,791.742 595.526,799.547 600.201,807.617 604.875,815.688 609.55,823.759 614.224,831.829 618.899,839.9 
		623.573,847.97 628.248,856.041 632.922,864.112 637.597,872.182 642.271,880.253 646.946,888.324 651.62,896.394 656.294,904.465 
		660.969,912.535 	"/>
	<polyline fill="none" stroke="#0000FF" stroke-linecap="round" stroke-linejoin="round" stroke-miterlimit="10" points="
		573.513,685.052 573.172,688.646 573.59,693.084 574.706,698.286 576.458,704.172 578.785,710.659 581.627,717.667 
		584.922,725.116 588.609,732.923 592.627,741.009 596.915,749.293 601.412,757.693 606.057,766.128 610.788,774.518 
		615.545,782.781 620.371,791.14 625.196,799.499 630.022,807.858 634.847,816.216 639.673,824.575 644.498,832.934 
		649.324,841.292 654.149,849.651 658.975,858.01 663.8,866.369 668.626,874.727 673.451,883.086 678.277,891.445 683.102,899.803 	
		"/>
	<polyline fill="none" stroke="#FF0000" stroke-linecap="round" stroke-linejoin="round" stroke-miterlimit="10" points="
		507.425,646.906 514.577,651.043 521.729,655.181 528.881,659.318 536.033,663.455 539.937,666.536 542.934,670.505 
		545.094,674.905 546.486,679.279 547.179,683.169 547.245,686.119 	"/>
	<polyline fill="none" stroke="#0000FF" stroke-linecap="round" stroke-linejoin="round" stroke-miterlimit="10" points="
		728.849,873.345 723.951,865.155 719.054,856.964 714.157,848.774 709.26,840.584 704.362,832.394 699.465,824.203 
		694.568,816.013 689.671,807.823 684.773,799.633 679.876,791.442 674.979,783.252 670.081,775.062 665.184,766.872 
		662.897,762.443 660.253,756.773 657.563,750.463 655.143,744.111 653.305,738.318 652.363,733.683 652.629,730.804 	"/>
	<polyline fill="none" stroke="#FF0000" stroke-linecap="round" stroke-linejoin="round" stroke-miterlimit="10" points="
		750.864,860.588 746.283,852.654 741.703,844.721 737.122,836.787 732.542,828.854 727.961,820.92 723.381,812.986 
		718.801,805.053 714.22,797.119 709.64,789.186 705.059,781.252 702.343,775.18 700.08,769.16 698.444,763.723 697.61,759.398 
		697.751,756.716 	"/>
	<polyline fill="none" stroke="#FF0000" stroke-linecap="round" stroke-linejoin="round" stroke-miterlimit="10" points="
		706.651,886.161 701.958,878.024 697.264,869.888 692.57,861.752 687.877,853.615 683.183,845.479 678.489,837.343 
		673.795,829.206 669.102,821.07 664.408,812.934 659.714,804.797 655.021,796.661 650.327,788.525 645.633,780.388 640.94,772.252 
		636.246,764.116 631.552,755.979 626.948,747.979 622.915,740.493 619.539,733.573 616.903,727.273 615.09,721.646 
		614.185,716.745 614.273,712.622 615.436,709.331 	"/>
	<polyline fill="none" stroke="#FF0000" stroke-linecap="round" stroke-linejoin="round" stroke-miterlimit="10" points="
		551.465,621.491 555.439,614.671 560.256,609.156 565.713,604.813 571.608,601.511 577.739,599.116 583.904,597.496 
		589.899,596.52 595.523,596.055 	"/>
	<polyline fill="none" stroke="#FF0000" stroke-linecap="round" stroke-linejoin="round" stroke-miterlimit="10" points="
		551.46,621.511 543.348,615.816 535.321,611.125 527.428,607.405 519.717,604.625 512.238,602.753 505.038,601.757 
		498.166,601.605 491.672,602.265 485.603,603.705 480.008,605.893 474.937,608.798 470.437,612.386 466.557,616.628 
		463.347,621.49 	"/>
	<polyline fill="none" stroke="#0000FF" stroke-linecap="round" stroke-linejoin="round" stroke-miterlimit="10" points="
		485.374,634.23 487.961,630.561 491.083,627.703 494.806,625.722 499.192,624.682 504.307,624.65 510.213,625.689 516.975,627.864 
		524.657,631.242 533.323,635.886 539.907,638.918 545.896,640.221 551.415,640.102 556.591,638.867 561.55,636.822 
		566.418,634.272 571.323,631.525 576.39,628.886 581.747,626.661 587.518,625.157 592.171,624.504 598.132,623.908 
		605.192,623.371 613.141,622.893 621.77,622.478 630.868,622.126 640.226,621.84 649.633,621.622 658.881,621.472 667.759,621.394 
		676.057,621.389 683.566,621.458 692.901,621.474 702.236,621.489 711.57,621.503 720.905,621.518 730.24,621.534 739.574,621.549 
		748.909,621.564 758.243,621.579 767.578,621.594 776.913,621.609 786.247,621.624 795.582,621.639 804.917,621.654 
		814.251,621.669 	"/>
	<polyline fill="none" stroke="#FF0000" stroke-linecap="round" stroke-linejoin="round" stroke-miterlimit="10" points="
		551.466,672.371 555.668,667.922 560.852,664.025 566.924,660.641 573.79,657.736 581.354,655.273 589.523,653.215 
		598.202,651.526 607.295,650.17 616.709,649.11 626.35,648.31 636.121,647.733 645.929,647.344 655.68,647.106 665.278,646.982 
		674.629,646.936 683.639,646.932 692.965,646.945 702.292,646.958 711.618,646.971 720.945,646.984 730.272,646.997 
		739.598,647.009 748.925,647.022 758.251,647.035 767.578,647.048 776.905,647.061 786.231,647.074 795.558,647.087 804.884,647.1 
		814.211,647.113 	"/>
	<polyline fill="none" stroke="#0000FF" stroke-linecap="round" stroke-linejoin="round" stroke-miterlimit="10" points="
		573.477,685.115 576.418,683.023 580.471,681.166 585.534,679.531 591.507,678.106 598.289,676.878 605.779,675.835 
		613.877,674.964 622.482,674.253 631.494,673.69 640.812,673.262 650.335,672.956 659.962,672.761 669.594,672.664 
		679.129,672.651 688.78,672.651 698.432,672.651 708.084,672.65 717.735,672.65 727.387,672.65 737.039,672.649 746.69,672.649 
		756.342,672.649 765.993,672.648 775.645,672.648 785.297,672.648 794.948,672.647 804.6,672.647 814.251,672.647 	"/>
	<polyline fill="none" stroke="#FF0000" stroke-linecap="round" stroke-linejoin="round" stroke-miterlimit="10" points="
		536.033,663.455 540.653,665.296 545.589,665.907 550.479,665.577 554.963,664.596 558.679,663.251 561.266,661.833 	"/>
	<polyline fill="none" stroke="#0000FF" stroke-linecap="round" stroke-linejoin="round" stroke-miterlimit="10" points="
		814.211,725.493 804.669,725.347 795.128,725.201 785.586,725.055 776.044,724.909 766.503,724.763 756.961,724.617 
		747.42,724.471 737.878,724.325 728.336,724.179 718.795,724.033 709.253,723.887 699.712,723.741 690.17,723.595 685.191,723.829 
		678.959,724.373 672.149,725.2 665.439,726.279 659.502,727.584 655.017,729.086 652.657,730.756 	"/>
	<polyline fill="none" stroke="#FF0000" stroke-linecap="round" stroke-linejoin="round" stroke-miterlimit="10" points="
		814.17,750.938 805.01,750.938 795.849,750.938 786.688,750.938 777.527,750.938 768.366,750.938 759.205,750.938 750.044,750.938 
		740.883,750.938 731.722,750.938 722.561,750.938 715.944,751.621 709.599,752.671 704.073,753.974 699.911,755.413 
		697.658,756.876 	"/>
	<polyline fill="none" stroke="#0000FF" stroke-linecap="round" stroke-linejoin="round" stroke-miterlimit="10" points="
		734.229,777.777 744.227,777.614 754.224,777.451 764.222,777.287 774.22,777.124 784.218,776.961 794.215,776.798 
		804.213,776.635 814.211,776.472 	"/>
	<polyline fill="none" stroke="#FF0000" stroke-linecap="round" stroke-linejoin="round" stroke-miterlimit="10" points="
		814.211,699.862 804.818,699.865 795.425,699.869 786.032,699.872 776.638,699.875 767.245,699.879 757.852,699.882 
		748.459,699.885 739.066,699.889 729.673,699.892 720.28,699.895 710.887,699.898 701.494,699.902 692.1,699.905 682.707,699.908 
		673.314,699.912 663.921,699.915 654.691,699.927 646.191,700.179 638.51,700.714 631.736,701.581 625.956,702.825 
		621.259,704.492 617.732,706.629 615.464,709.282 	"/>
	<polyline fill="none" stroke="#0000FF" stroke-linecap="round" stroke-linejoin="round" stroke-miterlimit="10" points="
		734.229,777.777 738.536,785.563 742.844,793.35 747.152,801.137 751.459,808.923 755.767,816.71 760.074,824.496 764.382,832.283 
		768.69,840.069 772.997,847.856 	"/>
	<polyline fill="none" stroke="#FF0000" stroke-linecap="round" stroke-linejoin="round" stroke-miterlimit="10" points="
		463.317,723.29 464.193,713.418 464.242,704.121 463.517,695.425 462.069,687.358 459.95,679.944 457.213,673.211 453.909,667.183 
		450.09,661.889 445.809,657.353 441.117,653.602 436.065,650.662 430.708,648.56 425.095,647.321 419.279,646.972 	"/>
	<polyline fill="none" stroke="#0000FF" stroke-linecap="round" stroke-linejoin="round" stroke-miterlimit="10" points="
		419.259,672.417 423.73,672.823 427.766,674.098 431.343,676.332 434.437,679.611 437.022,684.024 439.076,689.658 
		440.572,696.602 441.488,704.944 441.799,714.771 442.466,721.989 444.331,727.827 447.194,732.547 450.852,736.411 
		455.102,739.684 459.745,742.625 464.576,745.499 469.395,748.568 474,752.094 478.189,756.34 481.08,760.043 484.577,764.908 
		488.572,770.754 492.96,777.399 497.635,784.664 502.488,792.367 507.415,800.328 512.308,808.366 517.061,816.3 521.568,823.95 
		525.721,831.134 529.416,837.672 534.07,845.763 538.724,853.855 543.379,861.946 548.033,870.038 552.687,878.129 
		557.342,886.221 561.996,894.312 566.65,902.404 571.305,910.495 575.959,918.587 580.613,926.678 585.268,934.77 589.922,942.862 
		594.576,950.953 	"/>
	<polyline fill="none" stroke="#FF0000" stroke-linecap="round" stroke-linejoin="round" stroke-miterlimit="10" points="
		419.274,748.725 425.228,750.14 431.195,752.681 437.161,756.248 443.11,760.741 449.025,766.06 454.892,772.106 460.694,778.777 
		466.415,785.974 472.04,793.597 477.553,801.546 482.938,809.72 488.18,818.02 493.261,826.345 498.168,834.595 502.883,842.67 
		507.391,850.471 512.043,858.554 516.695,866.638 521.347,874.721 526,882.805 530.652,890.888 535.304,898.972 539.956,907.055 
		544.608,915.139 549.26,923.223 553.912,931.306 558.564,939.39 563.217,947.473 567.869,955.557 572.521,963.64 	"/>
	<polyline fill="none" stroke="#0000FF" stroke-linecap="round" stroke-linejoin="round" stroke-miterlimit="10" points="
		419.243,774.159 422.525,775.661 426.16,778.242 430.107,781.81 434.328,786.269 438.782,791.529 443.431,797.494 448.234,804.072 
		453.152,811.169 458.146,818.692 463.175,826.547 468.201,834.641 473.184,842.881 478.085,851.174 482.863,859.425 
		487.689,867.783 492.515,876.142 497.341,884.5 502.167,892.858 506.993,901.217 511.819,909.575 516.645,917.934 521.471,926.292 
		526.297,934.65 531.124,943.009 535.95,951.367 540.776,959.725 545.602,968.084 550.428,976.442 	"/>
	<polyline fill="none" stroke="#0000FF" stroke-linecap="round" stroke-linejoin="round" stroke-miterlimit="10" points="
		504.641,1002.831 499.997,994.494 495.352,986.158 490.708,977.822 486.064,969.485 481.419,961.149 476.775,952.813 
		472.131,944.477 467.486,936.14 462.842,927.804 458.198,919.468 453.553,911.131 448.909,902.795 444.265,894.459 
		441.572,890.264 437.985,885.139 433.865,879.655 429.574,874.383 425.476,869.894 421.933,866.76 419.307,865.552 	"/>
	<polyline fill="none" stroke="#FF0000" stroke-linecap="round" stroke-linejoin="round" stroke-miterlimit="10" points="
		482.586,1015.518 478.005,1007.584 473.425,999.65 468.844,991.717 464.264,983.783 459.683,975.85 455.103,967.916 
		450.522,959.982 445.942,952.049 441.361,944.115 436.781,936.182 432.88,930.793 428.798,925.823 424.908,921.688 421.58,918.803 
		419.187,917.584 	"/>
	<polyline fill="none" stroke="#0000FF" stroke-linecap="round" stroke-linejoin="round" stroke-miterlimit="10" points="
		419.371,959.706 424.511,968.282 429.652,976.859 434.792,985.436 439.932,994.013 445.072,1002.589 450.212,1011.166 
		455.352,1019.743 460.493,1028.32 	"/>
	<polyline fill="none" stroke="#FF0000" stroke-linecap="round" stroke-linejoin="round" stroke-miterlimit="10" points="
		526.838,990.015 522.139,981.882 517.44,973.749 512.74,965.616 508.041,957.483 503.341,949.35 498.642,941.217 493.942,933.084 
		489.243,924.951 484.544,916.818 479.844,908.685 475.145,900.552 470.445,892.419 465.746,884.285 461.047,876.152 
		456.347,868.019 451.648,859.886 447.022,851.899 442.554,844.664 438.25,838.28 434.112,832.846 430.145,828.463 426.353,825.229 
		422.739,823.243 419.307,822.605 	"/>
	<polyline fill="none" stroke="#FF0000" stroke-linecap="round" stroke-linejoin="round" stroke-miterlimit="10" points="
		507.339,494.331 503.42,487.48 501.052,480.551 500.02,473.654 500.108,466.897 501.099,460.39 502.779,454.242 504.931,448.561 
		507.34,443.459 	"/>
	<polyline fill="none" stroke="#FF0000" stroke-linecap="round" stroke-linejoin="round" stroke-miterlimit="10" points="
		463.303,723.226 471.196,723.258 478.381,724.672 484.87,727.226 490.678,730.68 495.818,734.793 500.302,739.321 504.145,744.025 
		507.36,748.663 	"/>
	<polyline fill="none" stroke="#FF0000" stroke-linecap="round" stroke-linejoin="round" stroke-miterlimit="10" points="
		418.995,959.706 418.995,968.949 418.995,978.192 418.995,987.435 418.995,996.679 418.995,1005.922 418.995,1015.165 
		418.995,1024.408 418.995,1033.651 418.995,1042.895 418.995,1052.138 	"/>
	<polyline fill="none" stroke="#FF0000" stroke-linecap="round" stroke-linejoin="round" stroke-miterlimit="10" points="
		814.278,823.993 806.273,819.371 798.268,814.75 790.263,810.128 782.258,805.507 774.253,800.885 766.248,796.263 
		758.243,791.642 750.239,787.02 742.234,782.398 734.229,777.777 	"/>
	<polyline fill="none" stroke="#FF0000" stroke-linecap="round" stroke-linejoin="round" stroke-miterlimit="10" points="
		814.151,367.922 806.146,372.543 798.142,377.165 790.137,381.786 782.132,386.408 774.127,391.03 766.122,395.651 
		758.117,400.273 750.112,404.895 742.107,409.516 734.103,414.138 	"/>
	<polyline fill="none" stroke="#0000FF" stroke-linecap="round" stroke-linejoin="round" stroke-miterlimit="10" points="
		551.397,621.491 551.403,613.006 551.409,604.522 551.414,596.037 551.42,587.553 551.426,579.068 551.431,570.584 	"/>
	<polyline fill="none" stroke="#0000FF" stroke-linecap="round" stroke-linejoin="round" stroke-miterlimit="10" points="
		463.303,723.226 470.654,718.989 478.005,714.751 485.355,710.514 492.706,706.277 500.056,702.039 507.407,697.802 	"/>
	<polyline fill="none" stroke="#0000FF" stroke-linecap="round" stroke-linejoin="round" stroke-miterlimit="10" points="
		375.063,723.226 367.712,718.989 360.362,714.751 353.011,710.514 345.661,706.277 338.31,702.039 330.959,697.802 	"/>
	<polyline fill="none" stroke="#0000FF" stroke-linecap="round" stroke-linejoin="round" stroke-miterlimit="10" points="
		286.969,621.491 286.963,613.006 286.957,604.522 286.952,596.037 286.946,587.553 286.941,579.068 286.935,570.584 	"/>
	<polyline fill="none" stroke="#0000FF" stroke-linecap="round" stroke-linejoin="round" stroke-miterlimit="10" points="
		331.027,494.331 338.372,490.084 345.717,485.837 353.062,481.59 360.407,477.343 367.752,473.096 375.097,468.849 	"/>
	<polyline fill="none" stroke="#0000FF" stroke-linecap="round" stroke-linejoin="round" stroke-miterlimit="10" points="
		507.339,494.331 499.994,490.084 492.649,485.837 485.304,481.59 477.959,477.343 470.614,473.096 463.27,468.849 	"/>
</g>
<g id="cut">
	<polygon fill="none" stroke="#000000" stroke-linecap="round" stroke-linejoin="round" stroke-miterlimit="10" points="
		22.795,822.672 419.742,1052.694 814.278,823.993 814.151,367.922 419.247,139.995 24.215,367.922 	"/>
</g>
<g id="レイヤー_3">
	
		<line fill="none" stroke="#FFFF00" stroke-linecap="round" stroke-linejoin="round" stroke-miterlimit="10" x1="331.003" y1="545.12" x2="374.047" y2="572.283"/>
	
		<line fill="none" stroke="#FFFF00" stroke-linecap="round" stroke-linejoin="round" stroke-miterlimit="10" x1="419.183" y1="494.28" x2="419.211" y2="545.161"/>
	
		<line fill="none" stroke="#FFFF00" stroke-linecap="round" stroke-linejoin="round" stroke-miterlimit="10" x1="507.363" y1="545.12" x2="464.319" y2="572.283"/>
	
		<line fill="none" stroke="#FFFF00" stroke-linecap="round" stroke-linejoin="round" stroke-miterlimit="10" x1="507.425" y1="646.906" x2="466.955" y2="616.129"/>
	
		<line fill="none" stroke="#FFFF00" stroke-linecap="round" stroke-linejoin="round" stroke-miterlimit="10" x1="419.115" y1="697.853" x2="419.279" y2="646.972"/>
	
		<line fill="none" stroke="#FFFF00" stroke-linecap="round" stroke-linejoin="round" stroke-miterlimit="10" x1="330.941" y1="646.906" x2="375.019" y2="621.49"/>
	
		<line fill="none" stroke="#FFFF00" stroke-linecap="round" stroke-linejoin="round" stroke-miterlimit="10" x1="286.934" y1="519.704" x2="104.264" y2="414.138"/>
	
		<line fill="none" stroke="#FFFF00" stroke-linecap="round" stroke-linejoin="round" stroke-miterlimit="10" x1="419.119" y1="232.428" x2="419.207" y2="443.408"/>
	
		<line fill="none" stroke="#FFFF00" stroke-linecap="round" stroke-linejoin="round" stroke-miterlimit="10" x1="734.103" y1="414.138" x2="551.432" y2="519.704"/>
	
		<line fill="none" stroke="#FFFF00" stroke-linecap="round" stroke-linejoin="round" stroke-miterlimit="10" x1="734.229" y1="777.777" x2="551.471" y2="672.363"/>
	
		<line fill="none" stroke="#FFFF00" stroke-linecap="round" stroke-linejoin="round" stroke-miterlimit="10" x1="418.995" y1="959.706" x2="419.274" y2="748.725"/>
	
		<line fill="none" stroke="#FFFF00" stroke-linecap="round" stroke-linejoin="round" stroke-miterlimit="10" x1="104.137" y1="777.777" x2="286.9" y2="672.371"/>
</g>
</svg>
