<?xml version="1.0" encoding="utf-8"?>
<!-- Generator: Adobe Illustrator 23.0.3, SVG Export Plug-In . SVG Version: 6.00 Build 0)  -->
<svg version="1.1" xmlns="http://www.w3.org/2000/svg" xmlns:xlink="http://www.w3.org/1999/xlink" x="0px" y="0px"
	 width="595.28px" height="841.89px" viewBox="0 0 595.28 841.89" enable-background="new 0 0 595.28 841.89" xml:space="preserve">
<g id="レイヤー_1">
	
		<rect x="90.016" y="318.99" fill="none" stroke="#000000" stroke-width="2" stroke-miterlimit="10" width="410.086" height="410.083"/>
</g>
<g id="レイヤー_4">
	<path fill="none" stroke="#0000FF" stroke-width="2" stroke-miterlimit="10" d="M154.631,524.031
		c-7.072-81.912,65.919-149.305,140.428-140.206"/>
	<line fill="none" stroke="#0000FF" stroke-width="2" stroke-miterlimit="10" x1="148.658" y1="377.631" x2="192.54" y2="421.512"/>
	<path fill="none" stroke="#0000FF" stroke-width="2" stroke-miterlimit="10" d="M435.486,524.031
		c7.072-81.912-65.919-149.305-140.428-140.206"/>
	
		<line fill="none" stroke="#0000FF" stroke-width="2" stroke-miterlimit="10" x1="441.459" y1="377.632" x2="397.577" y2="421.512"/>
	<path fill="none" stroke="#0000FF" stroke-width="2" stroke-miterlimit="10" d="M154.631,524.031
		c-7.072,81.912,65.919,149.305,140.428,140.206"/>
	<line fill="none" stroke="#0000FF" stroke-width="2" stroke-miterlimit="10" x1="148.657" y1="670.43" x2="192.54" y2="626.551"/>
	<path fill="none" stroke="#0000FF" stroke-width="2" stroke-miterlimit="10" d="M435.486,524.031
		c7.072,81.912-65.919,149.305-140.428,140.206"/>
	<line fill="none" stroke="#0000FF" stroke-width="2" stroke-miterlimit="10" x1="441.459" y1="670.43" x2="397.577" y2="626.551"/>
	
		<line fill="none" stroke="#0000FF" stroke-width="2" stroke-miterlimit="10" x1="295.057" y1="471.545" x2="295.057" y2="318.163"/>
	
		<line fill="none" stroke="#0000FF" stroke-width="2" stroke-miterlimit="10" x1="295.057" y1="729.072" x2="295.057" y2="576.518"/>
	<line fill="none" stroke="#0000FF" stroke-width="2" stroke-miterlimit="10" x1="242.574" y1="524.031" x2="89.412" y2="524.031"/>
	
		<line fill="none" stroke="#0000FF" stroke-width="2" stroke-miterlimit="10" x1="500.103" y1="524.031" x2="347.547" y2="524.031"/>
	<path fill="none" stroke="#0000FF" stroke-width="2" stroke-miterlimit="10" d="M441.459,670.431
		c1.685,22.648-10.648,45.981-28.648,58.642"/>
	<path fill="none" stroke="#0000FF" stroke-width="2" stroke-miterlimit="10" d="M441.459,670.431
		c22.648,1.685,45.981-10.648,58.642-28.648"/>
	<path fill="none" stroke="#0000FF" stroke-width="2" stroke-miterlimit="10" d="M148.657,670.43
		c-22.648,1.685-45.981-10.647-58.642-28.647"/>
	<path fill="none" stroke="#0000FF" stroke-width="2" stroke-miterlimit="10" d="M148.657,670.43
		c-1.686,22.648,10.648,45.981,28.648,58.642"/>
	<path fill="none" stroke="#0000FF" stroke-width="2" stroke-miterlimit="10" d="M441.46,377.633
		c22.648-1.686,45.981,10.647,58.642,28.647"/>
	<path fill="none" stroke="#0000FF" stroke-width="2" stroke-miterlimit="10" d="M441.46,377.633
		c1.685-22.648-10.647-45.981-28.647-58.642"/>
	<path fill="none" stroke="#0000FF" stroke-width="2" stroke-miterlimit="10" d="M148.658,377.631
		c-1.686-22.648,10.647-45.981,28.647-58.642"/>
	<path fill="none" stroke="#0000FF" stroke-width="2" stroke-miterlimit="10" d="M148.658,377.631
		c-22.648-1.685-45.981,10.648-58.642,28.648"/>
</g>
<g id="レイヤー_3">
	<path fill="none" stroke="#FF0000" stroke-width="2" stroke-miterlimit="10" d="M192.54,421.512
		c39.859-0.234,79.106,17.04,102.517,50.033"/>
	<path fill="none" stroke="#FF0000" stroke-width="2" stroke-miterlimit="10" d="M90.014,471.545
		c25.924-33.65,64.504-49.808,102.526-50.033"/>
	<path fill="none" stroke="#FF0000" stroke-width="2" stroke-miterlimit="10" d="M192.537,421.5
		c-0.232-39.857,17.043-79.102,50.035-102.511"/>
	<path fill="none" stroke="#FF0000" stroke-width="2" stroke-miterlimit="10" d="M242.57,524.031
		c-33.652-25.925-49.811-64.507-50.033-102.531"/>
	<path fill="none" stroke="#FF0000" stroke-width="2" stroke-miterlimit="10" d="M397.577,421.512
		c-39.859-0.234-79.106,17.041-102.517,50.033"/>
	<path fill="none" stroke="#FF0000" stroke-width="2" stroke-miterlimit="10" d="M500.103,471.545
		c-25.924-33.65-64.504-49.809-102.526-50.033"/>
	<path fill="none" stroke="#FF0000" stroke-width="2" stroke-miterlimit="10" d="M347.547,524.031
		c33.652-25.925,49.81-64.507,50.033-102.531"/>
	<path fill="none" stroke="#FF0000" stroke-width="2" stroke-miterlimit="10" d="M192.54,626.551
		c39.859,0.234,79.106-17.041,102.517-50.033"/>
	<path fill="none" stroke="#FF0000" stroke-width="2" stroke-miterlimit="10" d="M90.014,576.518
		c25.924,33.65,64.504,49.809,102.526,50.033"/>
	<path fill="none" stroke="#FF0000" stroke-width="2" stroke-miterlimit="10" d="M242.57,524.031
		c-33.652,25.925-49.811,64.507-50.033,102.531"/>
	<path fill="none" stroke="#FF0000" stroke-width="2" stroke-miterlimit="10" d="M397.577,626.551
		c-39.859,0.234-79.106-17.041-102.517-50.033"/>
	<path fill="none" stroke="#FF0000" stroke-width="2" stroke-miterlimit="10" d="M500.103,576.518
		c-25.924,33.65-64.504,49.809-102.526,50.033"/>
	<path fill="none" stroke="#FF0000" stroke-width="2" stroke-miterlimit="10" d="M397.58,626.563
		c0.232,39.857-17.043,79.102-50.035,102.512"/>
	<path fill="none" stroke="#FF0000" stroke-width="2" stroke-miterlimit="10" d="M347.547,524.031
		c33.652,25.925,49.81,64.507,50.033,102.531"/>
	
		<rect x="257.945" y="486.918" transform="matrix(0.7071 -0.7071 0.7071 0.7071 -284.1314 362.1446)" fill="none" stroke="#FF0000" stroke-width="2" stroke-miterlimit="10" width="74.227" height="74.227"/>
	<polyline fill="none" stroke="#FF0000" stroke-width="2" stroke-miterlimit="10" points="500.103,471.545 435.486,524.031 
		500.103,576.518 	"/>
	<polyline fill="none" stroke="#FF0000" stroke-width="2" stroke-miterlimit="10" points="90.831,470.5 154.155,524.031 
		90.014,576.518 	"/>
	
		<line fill="none" stroke="#FF0000" stroke-width="2" stroke-miterlimit="10" x1="441.459" y1="670.431" x2="500.102" y2="729.072"/>
	<line fill="none" stroke="#FF0000" stroke-width="2" stroke-miterlimit="10" x1="148.658" y1="377.631" x2="90.016" y2="318.99"/>
	<line fill="none" stroke="#FF0000" stroke-width="2" stroke-miterlimit="10" x1="148.657" y1="670.43" x2="90.668" y2="729.071"/>
	<path fill="none" stroke="#FF0000" stroke-width="2" stroke-miterlimit="10" d="M192.537,626.563
		c-0.232,39.857,17.043,79.102,50.035,102.512"/>
	<polyline fill="none" stroke="#FF0000" stroke-width="2" stroke-miterlimit="10" points="241.145,729.074 295.059,664.237 
		347.545,729.074 	"/>
	<polyline fill="none" stroke="#FF0000" stroke-width="2" stroke-miterlimit="10" points="347.545,318.988 295.059,383.825 
		242.572,318.989 	"/>
	<line fill="none" stroke="#FF0000" stroke-width="2" stroke-miterlimit="10" x1="441.459" y1="377.632" x2="500.102" y2="318.99"/>
	<path fill="none" stroke="#FF0000" stroke-width="2" stroke-miterlimit="10" d="M397.58,421.5
		c0.232-39.857-17.043-79.102-50.035-102.512"/>
</g>
</svg>
