<svg id="SvgjsSvg1006" width="865.1999999999999" height="401.4" xmlns="http://www.w3.org/2000/svg" version="1.1" xmlns:xlink="http://www.w3.org/1999/xlink" xmlns:svgjs="http://svgjs.com/svgjs" viewBox="0 0 865.1999999999999 401.4"><defs id="SvgjsDefs1007"></defs><path id="SvgjsPath1008" d="M159.84313920912655,203.53896283706982L195.8478606675995,206.7369882369208" stroke="#000000"></path><path id="SvgjsPath1009" d="M159.89543122807748,197.10960718230783L195.88068567869624,194.5025036166822" stroke="#000000"></path><path id="SvgjsPath1010" d="M159.89543122807748,197.10960718230783L159.84313920912655,203.53896283706982" stroke="#0000ff"></path><path id="SvgjsPath1011" d="M158.9169705036554,190.7550573307832L194.94452007397342,182.1965126655793" stroke="#000000"></path><path id="SvgjsPath1012" d="M158.9169705036554,190.7550573307832L159.89543122807748,197.10960718230783" stroke="#0000ff"></path><path id="SvgjsPath1013" d="M156.93305161761913,184.6393601566532L192.95424405827748,169.6579670798656" stroke="#000000"></path><path id="SvgjsPath1014" d="M156.93305161761913,184.6393601566532L158.9169705036554,190.7550573307832" stroke="#0000ff"></path><path id="SvgjsPath1015" d="M153.99493077379486,178.92051980493287L189.82298694640778,156.7043604150593" stroke="#000000"></path><path id="SvgjsPath1016" d="M153.99493077379486,178.92051980493287L156.93305161761913,184.6393601566532" stroke="#0000ff"></path><path id="SvgjsPath1017" d="M150.17851387711812,173.74628978280236L185.34793659861353,143.15075295829507" stroke="#000000"></path><path id="SvgjsPath1018" d="M150.17851387711812,173.74628978280236L153.99493077379486,178.92051980493287" stroke="#0000ff"></path><path id="SvgjsPath1019" d="M145.58239941395072,169.25035538685972L179.27962250406847,128.74681943214497" stroke="#000000"></path><path id="SvgjsPath1020" d="M145.58239941395072,169.25035538685972L150.17851387711812,173.74628978280236" stroke="#0000ff"></path><path id="SvgjsPath1021" d="M140.3253367904748,165.5488716797185L171.2026135577167,113.21236995013287" stroke="#000000"></path><path id="SvgjsPath1022" d="M140.3253367904748,165.5488716797185L145.58239941395072,169.25035538685972" stroke="#0000ff"></path><path id="SvgjsPath1023" d="M134.54314947818736,162.73746705610864L160.52383101598625,96.16963020900766" stroke="#000000"></path><path id="SvgjsPath1024" d="M134.54314947818736,162.73746705610864L140.3253367904748,165.5488716797185" stroke="#0000ff"></path><path id="SvgjsPath1025" d="M128.38522511593123,160.8887765050749L146.3374570344703,77.15414265908407" stroke="#000000"></path><path id="SvgjsPath1026" d="M128.38522511593123,160.8887765050749L134.54314947818736,162.73746705610864" stroke="#0000ff"></path><path id="SvgjsPath1027" d="M122.01052972015032,160.0505598256447L127.27382617251467,55.4682974316795" stroke="#000000"></path><path id="SvgjsPath1028" d="M122.01052972015032,160.0505598256447L128.38522511593123,160.8887765050749" stroke="#0000ff"></path><path id="SvgjsPath1029" d="M159.84313920912655,203.53896283706982L120,200" stroke="#000000"></path><path id="SvgjsPath1030" d="M159.89543122807748,197.10960718230783L120,200" stroke="#000000"></path><path id="SvgjsPath1031" d="M159.89543122807748,197.10960718230783L159.84313920912655,203.53896283706982" stroke="#0000ff"></path><path id="SvgjsPath1032" d="M158.9169705036554,190.7550573307832L120,200" stroke="#000000"></path><path id="SvgjsPath1033" d="M158.9169705036554,190.7550573307832L159.89543122807748,197.10960718230783" stroke="#0000ff"></path><path id="SvgjsPath1034" d="M156.93305161761913,184.6393601566532L120,200" stroke="#000000"></path><path id="SvgjsPath1035" d="M156.93305161761913,184.6393601566532L158.9169705036554,190.7550573307832" stroke="#0000ff"></path><path id="SvgjsPath1036" d="M153.99493077379486,178.92051980493287L120,200" stroke="#000000"></path><path id="SvgjsPath1037" d="M153.99493077379486,178.92051980493287L156.93305161761913,184.6393601566532" stroke="#0000ff"></path><path id="SvgjsPath1038" d="M150.17851387711812,173.74628978280236L120,200" stroke="#000000"></path><path id="SvgjsPath1039" d="M150.17851387711812,173.74628978280236L153.99493077379486,178.92051980493287" stroke="#0000ff"></path><path id="SvgjsPath1040" d="M145.58239941395072,169.25035538685972L120,200" stroke="#000000"></path><path id="SvgjsPath1041" d="M145.58239941395072,169.25035538685972L150.17851387711812,173.74628978280236" stroke="#0000ff"></path><path id="SvgjsPath1042" d="M140.3253367904748,165.5488716797185L120,200" stroke="#000000"></path><path id="SvgjsPath1043" d="M140.3253367904748,165.5488716797185L145.58239941395072,169.25035538685972" stroke="#0000ff"></path><path id="SvgjsPath1044" d="M134.54314947818736,162.73746705610864L120,200" stroke="#000000"></path><path id="SvgjsPath1045" d="M134.54314947818736,162.73746705610864L140.3253367904748,165.5488716797185" stroke="#0000ff"></path><path id="SvgjsPath1046" d="M128.38522511593123,160.8887765050749L120,200" stroke="#000000"></path><path id="SvgjsPath1047" d="M128.38522511593123,160.8887765050749L134.54314947818736,162.73746705610864" stroke="#0000ff"></path><path id="SvgjsPath1048" d="M122.01052972015032,160.0505598256447L120,200" stroke="#000000"></path><path id="SvgjsPath1049" d="M122.01052972015032,160.0505598256447L128.38522511593123,160.8887765050749" stroke="#0000ff"></path><path id="SvgjsPath1050" d="M240.16850063712226,203.53860587222138L280,200" stroke="#000000"></path><path id="SvgjsPath1051" d="M240.1105366156298,197.11025899653788L280,200" stroke="#000000"></path><path id="SvgjsPath1052" d="M240.1105366156298,197.11025899653788L240.16850063712226,203.53860587222138" stroke="#0000ff"></path><path id="SvgjsPath1053" d="M241.0872490257275,190.75574832572065L280,200" stroke="#000000"></path><path id="SvgjsPath1054" d="M241.0872490257275,190.75574832572065L240.1105366156298,197.11025899653788" stroke="#0000ff"></path><path id="SvgjsPath1055" d="M243.07680455059548,184.64417979487666L280,200" stroke="#000000"></path><path id="SvgjsPath1056" d="M243.07680455059548,184.64417979487666L241.0872490257275,190.75574832572065" stroke="#0000ff"></path><path id="SvgjsPath1057" d="M246.01650316995926,178.9250687823323L280,200" stroke="#000000"></path><path id="SvgjsPath1058" d="M246.01650316995926,178.9250687823323L243.07680455059548,184.64417979487666" stroke="#0000ff"></path><path id="SvgjsPath1059" d="M249.82489579043087,173.7542681036076L280,200" stroke="#000000"></path><path id="SvgjsPath1060" d="M249.82489579043087,173.7542681036076L246.01650316995926,178.9250687823323" stroke="#0000ff"></path><path id="SvgjsPath1061" d="M254.41419889773775,169.25558831999334L280,200" stroke="#000000"></path><path id="SvgjsPath1062" d="M254.41419889773775,169.25558831999334L249.82489579043087,173.7542681036076" stroke="#0000ff"></path><path id="SvgjsPath1063" d="M259.6766302615511,165.55919327687312L280,200" stroke="#000000"></path><path id="SvgjsPath1064" d="M259.6766302615511,165.55919327687312L254.41419889773775,169.25558831999334" stroke="#0000ff"></path><path id="SvgjsPath1065" d="M265.46336134622527,162.7481710819569L280,200" stroke="#000000"></path><path id="SvgjsPath1066" d="M265.46336134622527,162.7481710819569L259.6766302615511,165.55919327687312" stroke="#0000ff"></path><path id="SvgjsPath1067" d="M271.61638075995677,160.89786649800027L280,200" stroke="#000000"></path><path id="SvgjsPath1068" d="M271.61638075995677,160.89786649800027L265.46336134622527,162.7481710819569" stroke="#0000ff"></path><path id="SvgjsPath1069" d="M277.9902594696096,160.0510620934674L280,200" stroke="#000000"></path><path id="SvgjsPath1070" d="M277.9902594696096,160.0510620934674L271.61638075995677,160.89786649800027" stroke="#0000ff"></path><path id="SvgjsPath1071" d="M195.8478606675995,206.7369882369208L204.16664857389998,206.7369882369208" stroke="#000000"></path><path id="SvgjsPath1072" d="M195.88068567869624,194.5025036166822L204.11355189778735,194.5025036166822" stroke="#000000"></path><path id="SvgjsPath1073" d="M195.88068567869624,194.5025036166822L195.8478606675995,206.7369882369208" stroke="#0000ff"></path><path id="SvgjsPath1074" d="M194.94452007397342,182.1965126655793L205.0580043114271,182.1965126655793" stroke="#000000"></path><path id="SvgjsPath1075" d="M194.94452007397342,182.1965126655793L195.88068567869624,194.5025036166822" stroke="#0000ff"></path><path id="SvgjsPath1076" d="M192.95424405827748,169.6579670798656L207.04233333829995,169.6579670798656" stroke="#000000"></path><path id="SvgjsPath1077" d="M192.95424405827748,169.6579670798656L194.94452007397342,182.1965126655793" stroke="#0000ff"></path><path id="SvgjsPath1078" d="M189.82298694640778,156.7043604150593L210.1854314306867,156.7043604150593" stroke="#000000"></path><path id="SvgjsPath1079" d="M189.82298694640778,156.7043604150593L192.95424405827748,169.6579670798656" stroke="#0000ff"></path><path id="SvgjsPath1080" d="M185.34793659861353,143.15075295829507L214.63958404776707,143.15075295829507" stroke="#000000"></path><path id="SvgjsPath1081" d="M185.34793659861353,143.15075295829507L189.82298694640778,156.7043604150593" stroke="#0000ff"></path><path id="SvgjsPath1082" d="M179.27962250406847,128.74681943214497L220.70240390717032,128.74681943214497" stroke="#000000"></path><path id="SvgjsPath1083" d="M179.27962250406847,128.74681943214497L185.34793659861353,143.15075295829507" stroke="#0000ff"></path><path id="SvgjsPath1084" d="M171.2026135577167,113.21236995013287L228.78699827194316,113.21236995013287" stroke="#000000"></path><path id="SvgjsPath1085" d="M171.2026135577167,113.21236995013287L179.27962250406847,128.74681943214497" stroke="#0000ff"></path><path id="SvgjsPath1086" d="M160.52383101598625,96.16963020900766L239.48267210557248,96.16963020900765" stroke="#000000"></path><path id="SvgjsPath1087" d="M160.52383101598625,96.16963020900766L171.2026135577167,113.21236995013287" stroke="#0000ff"></path><path id="SvgjsPath1088" d="M146.3374570344703,77.15414265908407L253.66146547706322,77.15414265908407" stroke="#000000"></path><path id="SvgjsPath1089" d="M146.3374570344703,77.15414265908407L160.52383101598625,96.16963020900766" stroke="#0000ff"></path><path id="SvgjsPath1090" d="M127.27382617251467,55.4682974316795L272.72893759384834,55.4682974316795" stroke="#000000"></path><path id="SvgjsPath1091" d="M127.27382617251467,55.4682974316795L146.3374570344703,77.15414265908407" stroke="#0000ff"></path><path id="SvgjsPath1092" d="M204.16664857389998,206.7369882369208L240.16850063712226,203.53860587222138" stroke="#000000"></path><path id="SvgjsPath1093" d="M204.11355189778735,194.5025036166822L240.1105366156298,197.11025899653788" stroke="#000000"></path><path id="SvgjsPath1094" d="M204.11355189778735,194.5025036166822L204.16664857389998,206.7369882369208" stroke="#0000ff"></path><path id="SvgjsPath1095" d="M205.0580043114271,182.1965126655793L241.0872490257275,190.75574832572065" stroke="#000000"></path><path id="SvgjsPath1096" d="M205.0580043114271,182.1965126655793L204.11355189778735,194.5025036166822" stroke="#0000ff"></path><path id="SvgjsPath1097" d="M207.04233333829995,169.6579670798656L243.07680455059548,184.64417979487666" stroke="#000000"></path><path id="SvgjsPath1098" d="M207.04233333829995,169.6579670798656L205.0580043114271,182.1965126655793" stroke="#0000ff"></path><path id="SvgjsPath1099" d="M210.1854314306867,156.7043604150593L246.01650316995926,178.9250687823323" stroke="#000000"></path><path id="SvgjsPath1100" d="M210.1854314306867,156.7043604150593L207.04233333829995,169.6579670798656" stroke="#0000ff"></path><path id="SvgjsPath1101" d="M214.63958404776707,143.15075295829507L249.82489579043087,173.7542681036076" stroke="#000000"></path><path id="SvgjsPath1102" d="M214.63958404776707,143.15075295829507L210.1854314306867,156.7043604150593" stroke="#0000ff"></path><path id="SvgjsPath1103" d="M220.70240390717032,128.74681943214497L254.41419889773775,169.25558831999334" stroke="#000000"></path><path id="SvgjsPath1104" d="M220.70240390717032,128.74681943214497L214.63958404776707,143.15075295829507" stroke="#0000ff"></path><path id="SvgjsPath1105" d="M228.78699827194316,113.21236995013287L259.6766302615511,165.55919327687312" stroke="#000000"></path><path id="SvgjsPath1106" d="M228.78699827194316,113.21236995013287L220.70240390717032,128.74681943214497" stroke="#0000ff"></path><path id="SvgjsPath1107" d="M239.48267210557248,96.16963020900765L265.46336134622527,162.7481710819569" stroke="#000000"></path><path id="SvgjsPath1108" d="M239.48267210557248,96.16963020900765L228.78699827194316,113.21236995013287" stroke="#0000ff"></path><path id="SvgjsPath1109" d="M253.66146547706322,77.15414265908407L271.61638075995677,160.89786649800027" stroke="#000000"></path><path id="SvgjsPath1110" d="M253.66146547706322,77.15414265908407L239.48267210557248,96.16963020900765" stroke="#0000ff"></path><path id="SvgjsPath1111" d="M272.72893759384834,55.4682974316795L277.9902594696096,160.0510620934674" stroke="#000000"></path><path id="SvgjsPath1112" d="M272.72893759384834,55.4682974316795L253.66146547706322,77.15414265908407" stroke="#0000ff"></path></svg>