<?xml version="1.0" encoding="utf-8"?>
<!-- Generator: Adobe Illustrator 25.4.1, SVG Export Plug-In . SVG Version: 6.00 Build 0)  -->
<svg version="1.1" id="Layer_1" xmlns="http://www.w3.org/2000/svg" xmlns:xlink="http://www.w3.org/1999/xlink" x="0px" y="0px"
	 viewBox="0 0 1517.5 1437.5" enable-background="new 0 0 1517.5 1437.5" xml:space="preserve">
<g>
	<path fill="none" stroke="#FF0000" stroke-miterlimit="10" d="M992.1,899c0.2-0.1,1.2-0.5,2,0c0.6,0.4,0.8,1,1,1.7
		c0.4,1.6,0.1,3,0,3.4c-0.6,2.5-2.2,4.3-3,5.1c-3.1,3.2-7,4.6-8.9,5.1c-7.5,2.2-14.4,0.8-17.8,0c-13.1-3.2-22.3-11.2-26.7-15.4
		c-6.8-6.6-18.8-20.3-26.7-46.2c-11.6-38.2-5.1-73.5,0-92.4"/>
	<path fill="none" stroke="#FF0000" stroke-miterlimit="10" d="M1152.1,621.9c-13.8-13.8-41.1-37.1-80-46.2
		c-26.3-6.2-44.2-2.6-53.3,0c-5.8,1.7-17.3,5.7-26.7,15.4c-2.4,2.5-7,7.9-8.9,15.4c-0.5,2-1.2,6,0,10.3c0.3,1.1,1.1,3.3,3,5.1
		c0.3,0.3,1.4,1.3,3,1.7c0.7,0.2,1.3,0.4,2,0c0.8-0.5,1-1.5,1-1.7"/>
	<path fill="none" stroke="#FF0000" stroke-miterlimit="10" d="M752.1,206.2c0.2-0.1,1.2-0.5,2,0c0.6,0.4,0.8,1,1,1.7
		c0.4,1.6,0.1,3,0,3.4c-0.6,2.5-2.2,4.3-3,5.1c-3.1,3.2-7,4.6-8.9,5.1c-7.5,2.2-14.4,0.8-17.8,0c-13.1-3.2-22.3-11.2-26.7-15.4
		c-6.3-6.1-17.1-18.3-24.9-40.7"/>
	<path fill="none" stroke="#FF0000" stroke-miterlimit="10" d="M752.1,760.4c-0.2-0.1-1-0.8-1-1.7c0-0.7,0.5-1.2,1-1.7
		c1.2-1.2,2.5-1.6,3-1.7c2.5-0.7,4.8-0.3,5.9,0c4.4,1.1,7.4,3.7,8.9,5.1c5.6,5.4,7.9,12,8.9,15.4c3.7,12.9,1.4,24.9,0,30.8
		c-2.3,9.2-8.2,26.5-26.7,46.2c-27.3,29.1-61.1,41.1-80,46.2"/>
	<path fill="none" stroke="#FF0000" stroke-miterlimit="10" d="M912.1,1037.6c-13.8-13.8-41.1-37.1-80-46.2
		c-26.3-6.2-44.2-2.6-53.3,0c-5.8,1.7-17.3,5.7-26.7,15.4c-2.4,2.5-7,7.9-8.9,15.4c-0.5,2-1.2,6,0,10.3c0.3,1.1,1.1,3.3,3,5.1
		c0.3,0.3,1.4,1.3,3,1.7c0.7,0.2,1.3,0.4,2,0c0.8-0.5,1-1.5,1-1.7"/>
	<path fill="none" stroke="#FF0000" stroke-miterlimit="10" d="M272.1,483.3c0,0.2-0.2,1.2-1,1.7c-0.6,0.4-1.3,0.2-2,0
		c-1.6-0.4-2.6-1.4-3-1.7c-1.9-1.8-2.6-4-3-5.1c-1.2-4.3-0.5-8.3,0-10.3c1.9-7.5,6.5-12.9,8.9-15.4c9.3-9.7,20.9-13.7,26.7-15.4
		c9.1-2.6,27-6.2,53.3,0c38.9,9.1,66.2,32.3,80,46.2"/>
	<path fill="none" stroke="#FF0000" stroke-miterlimit="10" d="M512.1,344.7c0.2-0.1,1.2-0.5,2,0c0.6,0.4,0.8,1,1,1.7
		c0.4,1.6,0.1,3,0,3.4c-0.6,2.5-2.2,4.3-3,5.1c-3.1,3.2-7,4.6-8.9,5.1c-7.5,2.2-14.4,0.8-17.8,0c-13.1-3.2-22.3-11.2-26.7-15.4
		c-6.8-6.6-18.8-20.3-26.7-46.2c-4.4-14.5-6.2-28.7-6.4-41.6"/>
	<path fill="none" stroke="#FF0000" stroke-miterlimit="10" d="M512.1,621.9c-0.2-0.1-1-0.8-1-1.7c0-0.7,0.5-1.2,1-1.7
		c1.2-1.2,2.5-1.6,3-1.7c2.5-0.7,4.8-0.3,5.9,0c4.4,1.1,7.4,3.7,8.9,5.1c5.6,5.4,7.9,12,8.9,15.4c3.7,12.9,1.4,24.9,0,30.8
		c-2.3,9.2-8.2,26.5-26.7,46.2c-27.3,29.1-61.1,41.1-80,46.2"/>
	<path fill="none" stroke="#FF0000" stroke-miterlimit="10" d="M672.1,899c-5.1,18.9-11.6,54.2,0,92.4c7.8,25.9,19.8,39.6,26.7,46.2
		c4.4,4.2,13.6,12.2,26.7,15.4c3.4,0.8,10.3,2.2,17.8,0c1.9-0.6,5.8-1.9,8.9-5.1c0.8-0.8,2.3-2.6,3-5.1c0.1-0.4,0.4-1.8,0-3.4
		c-0.2-0.7-0.4-1.3-1-1.7c-0.8-0.5-1.8-0.1-2,0"/>
	<path fill="none" stroke="#FF0000" stroke-miterlimit="10" d="M512.1,899c0,0.2-0.2,1.2-1,1.7c-0.6,0.4-1.3,0.2-2,0
		c-1.6-0.4-2.6-1.4-3-1.7c-1.9-1.8-2.6-4-3-5.1c-1.2-4.3-0.5-8.3,0-10.3c1.9-7.5,6.5-12.9,8.9-15.4c9.3-9.7,20.9-13.7,26.7-15.4
		c9.1-2.6,27-6.2,53.3,0c38.9,9.1,66.2,32.3,80,46.2"/>
	<path fill="none" stroke="#FF0000" stroke-miterlimit="10" d="M672.1,1176.1c18.9-5.1,52.7-17.1,80-46.2
		c18.5-19.7,24.4-37,26.7-46.2c1.4-5.9,3.7-17.9,0-30.8c-1-3.4-3.3-10-8.9-15.4c-1.5-1.4-4.5-4.1-8.9-5.1c-1.1-0.3-3.4-0.7-5.9,0
		c-0.4,0.1-1.8,0.6-3,1.7c-0.5,0.5-1,1-1,1.7c0,1,0.8,1.6,1,1.7"/>
	<path fill="none" stroke="#FF0000" stroke-miterlimit="10" d="M512.1,344.7c0,0.2-0.2,1.2-1,1.7c-0.6,0.4-1.3,0.2-2,0
		c-1.6-0.4-2.6-1.4-3-1.7c-1.9-1.8-2.6-4-3-5.1c-1.2-4.3-0.5-8.3,0-10.3c1.9-7.5,6.5-12.9,8.9-15.4c9.3-9.7,20.9-13.7,26.7-15.4
		c9.1-2.6,27-6.2,53.3,0c38.9,9.1,66.2,32.3,80,46.2"/>
	<path fill="none" stroke="#FF0000" stroke-miterlimit="10" d="M512.1,621.9c0,0.2-0.2,1.2-1,1.7c-0.6,0.4-1.3,0.2-2,0
		c-1.6-0.4-2.6-1.4-3-1.7c-1.9-1.8-2.6-4-3-5.1c-1.2-4.3-0.5-8.3,0-10.3c1.9-7.5,6.5-12.9,8.9-15.4c9.3-9.7,20.9-13.7,26.7-15.4
		c9.1-2.6,27-6.2,53.3,0c38.9,9.1,66.2,32.3,80,46.2"/>
	<path fill="none" stroke="#FF0000" stroke-miterlimit="10" d="M512.1,344.7c-0.2-0.1-1-0.8-1-1.7c0-0.7,0.5-1.2,1-1.7
		c1.2-1.2,2.5-1.6,3-1.7c2.5-0.7,4.8-0.3,5.9,0c4.4,1.1,7.4,3.7,8.9,5.1c5.6,5.4,7.9,12,8.9,15.4c3.7,12.9,1.4,24.9,0,30.8
		c-2.3,9.2-8.2,26.5-26.7,46.2c-27.3,29.1-61.1,41.1-80,46.2c-5.1,18.9-11.6,54.2,0,92.4c7.8,25.9,19.8,39.6,26.7,46.2
		c4.4,4.2,13.6,12.2,26.7,15.4c3.4,0.8,10.3,2.2,17.8,0c1.9-0.6,5.8-1.9,8.9-5.1c0.8-0.8,2.3-2.6,3-5.1c0.1-0.4,0.4-1.8,0-3.4
		c-0.2-0.7-0.4-1.3-1-1.7c-0.8-0.5-1.8-0.1-2,0"/>
	<path fill="none" stroke="#FF0000" stroke-miterlimit="10" d="M752.1,483.3c0,0.2-0.2,1.2-1,1.7c-0.6,0.4-1.3,0.2-2,0
		c-1.6-0.4-2.6-1.4-3-1.7c-1.9-1.8-2.6-4-3-5.1c-1.2-4.3-0.5-8.3,0-10.3c1.9-7.5,6.5-12.9,8.9-15.4c9.3-9.7,20.9-13.7,26.7-15.4
		c9.1-2.6,27-6.2,53.3,0c38.9,9.1,66.2,32.3,80,46.2"/>
	<path fill="none" stroke="#FF0000" stroke-miterlimit="10" d="M752.1,760.4c0,0.2-0.2,1.2-1,1.7c-0.6,0.4-1.3,0.2-2,0
		c-1.6-0.4-2.6-1.4-3-1.7c-1.9-1.8-2.6-4-3-5.1c-1.2-4.3-0.5-8.3,0-10.3c1.9-7.5,6.5-12.9,8.9-15.4c9.3-9.7,20.9-13.7,26.7-15.4
		c9.1-2.6,27-6.2,53.3,0c38.9,9.1,66.2,32.3,80,46.2"/>
	<path fill="none" stroke="#FF0000" stroke-miterlimit="10" d="M992.1,621.9c-0.2-0.1-1-0.8-1-1.7c0-0.7,0.5-1.2,1-1.7
		c1.2-1.2,2.5-1.6,3-1.7c2.5-0.7,4.8-0.3,5.9,0c4.4,1.1,7.4,3.7,8.9,5.1c5.6,5.4,7.9,12,8.9,15.4c3.7,12.9,1.4,24.9,0,30.8
		c-2.3,9.2-8.2,26.5-26.7,46.2c-27.3,29.1-61.1,41.1-80,46.2"/>
	<path fill="none" stroke="#FF0000" stroke-miterlimit="10" d="M912.1,483.3c-5.1,18.9-11.6,54.2,0,92.4
		c7.8,25.9,19.8,39.6,26.7,46.2c4.4,4.2,13.6,12.2,26.7,15.4c3.4,0.8,10.3,2.2,17.8,0c1.9-0.6,5.8-1.9,8.9-5.1
		c0.8-0.8,2.3-2.6,3-5.1c0.1-0.4,0.4-1.8,0-3.4c-0.2-0.7-0.4-1.3-1-1.7c-0.8-0.5-1.8-0.1-2,0"/>
	<path fill="none" stroke="#FF0000" stroke-miterlimit="10" d="M992.1,344.7c-0.2-0.1-1-0.8-1-1.7c0-0.7,0.5-1.2,1-1.7
		c1.2-1.2,2.5-1.6,3-1.7c2.5-0.7,4.8-0.3,5.9,0c4.4,1.1,7.4,3.7,8.9,5.1c5.6,5.4,7.9,12,8.9,15.4c3.7,12.9,1.4,24.9,0,30.8
		c-2.3,9.2-8.2,26.5-26.7,46.2c-27.3,29.1-61.1,41.1-80,46.2"/>
	<path fill="none" stroke="#FF0000" stroke-miterlimit="10" d="M752.1,206.2c0,0.2-0.2,1.2-1,1.7c-0.6,0.4-1.3,0.2-2,0
		c-1.6-0.4-2.6-1.4-3-1.7c-1.9-1.8-2.6-4-3-5.1c-1.2-4.3-0.5-8.3,0-10.3c1.9-7.5,6.5-12.9,8.9-15.4c7.9-8.2,17.4-12.4,23.7-14.4"/>
	<path fill="none" stroke="#FF0000" stroke-miterlimit="10" d="M672.1,344.7c18.9-5.1,52.7-17.1,80-46.2
		c18.5-19.7,24.4-37,26.7-46.2c1.4-5.9,3.7-17.9,0-30.8c-1-3.4-3.3-10-8.9-15.4c-1.5-1.4-4.5-4.1-8.9-5.1c-1.1-0.3-3.4-0.7-5.9,0
		c-0.4,0.1-1.8,0.6-3,1.7c-0.5,0.5-1,1-1,1.7c0,1,0.8,1.6,1,1.7"/>
	<path fill="none" stroke="#FF0000" stroke-miterlimit="10" d="M752.1,760.4c0.2-0.1,1.2-0.5,2,0c0.6,0.4,0.8,1,1,1.7
		c0.4,1.6,0.1,3,0,3.4c-0.6,2.5-2.2,4.3-3,5.1c-3.1,3.2-7,4.6-8.9,5.1c-7.5,2.2-14.4,0.8-17.8,0c-13.1-3.2-22.3-11.2-26.7-15.4
		c-6.8-6.6-18.8-20.3-26.7-46.2c-11.6-38.2-5.1-73.5,0-92.4"/>
	<path fill="none" stroke="#FF0000" stroke-miterlimit="10" d="M912.1,206.2c-9.9-9.9-26.9-24.7-50-35.6"/>
	<path fill="none" stroke="#FF0000" stroke-miterlimit="10" d="M672.1,344.7c-5.1,18.9-11.6,54.2,0,92.4
		c7.8,25.9,19.8,39.6,26.7,46.2c4.4,4.2,13.6,12.2,26.7,15.4c3.4,0.8,10.3,2.2,17.8,0c1.9-0.6,5.8-1.9,8.9-5.1
		c0.8-0.8,2.3-2.6,3-5.1c0.1-0.4,0.4-1.8,0-3.4c-0.2-0.7-0.4-1.3-1-1.7c-0.8-0.5-1.8-0.1-2,0"/>
	<path fill="none" stroke="#FF0000" stroke-miterlimit="10" d="M752.1,483.3c-0.2-0.1-1-0.8-1-1.7c0-0.7,0.5-1.2,1-1.7
		c1.2-1.2,2.5-1.6,3-1.7c2.5-0.7,4.8-0.3,5.9,0c4.4,1.1,7.4,3.7,8.9,5.1c5.6,5.4,7.9,12,8.9,15.4c3.7,12.9,1.4,24.9,0,30.8
		c-2.3,9.2-8.2,26.5-26.7,46.2c-27.3,29.1-61.1,41.1-80,46.2"/>
	<path fill="none" stroke="#FF0000" stroke-miterlimit="10" d="M1152.1,899c18.9-5.1,52.7-17.1,80-46.2c18.5-19.7,24.4-37,26.7-46.2
		c1.4-5.9,3.7-17.9,0-30.8c-1-3.4-3.3-10-8.9-15.4c-1.5-1.4-4.5-4.1-8.9-5.1c-1.1-0.3-3.4-0.7-5.9,0c-0.4,0.1-1.8,0.6-3,1.7
		c-0.5,0.5-1,1-1,1.7c0,1,0.8,1.6,1,1.7"/>
	<path fill="none" stroke="#FF0000" stroke-miterlimit="10" d="M912.1,1037.6c18.9-5.1,52.7-17.1,80-46.2
		c18.5-19.7,24.4-37,26.7-46.2c1.4-5.9,3.7-17.9,0-30.8c-1-3.4-3.3-10-8.9-15.4c-1.5-1.4-4.5-4.1-8.9-5.1c-1.1-0.3-3.4-0.7-5.9,0
		c-0.4,0.1-1.8,0.6-3,1.7c-0.5,0.5-1,1-1,1.7c0,1,0.8,1.6,1,1.7"/>
	<path fill="none" stroke="#FF0000" stroke-miterlimit="10" d="M1152.1,899c-13.8-13.8-41.1-37.1-80-46.2c-26.3-6.2-44.2-2.6-53.3,0
		c-5.8,1.7-17.3,5.7-26.7,15.4c-2.4,2.5-7,7.9-8.9,15.4c-0.5,2-1.2,6,0,10.3c0.3,1.1,1.1,3.3,3,5.1c0.3,0.3,1.4,1.3,3,1.7
		c0.7,0.2,1.3,0.4,2,0c0.8-0.5,1-1.5,1-1.7"/>
	<path fill="none" stroke="#FF0000" stroke-miterlimit="10" d="M992.1,1176.1c0.2-0.1,1.2-0.5,2,0c0.6,0.4,0.8,1,1,1.7
		c0.4,1.6,0.1,3,0,3.4c-0.6,2.5-2.2,4.3-3,5.1c-3.1,3.2-7,4.6-8.9,5.1c-7.5,2.2-14.4,0.8-17.8,0c-13.1-3.2-22.3-11.2-26.7-15.4
		c-6.8-6.6-18.8-20.3-26.7-46.2c-11.6-38.2-5.1-73.5,0-92.4"/>
	<path fill="none" stroke="#FF0000" stroke-miterlimit="10" d="M1152.1,899c-5.1,18.9-11.6,54.2,0,92.4
		c7.8,25.9,19.8,39.6,26.7,46.2c4.4,4.2,13.6,12.2,26.7,15.4c3.4,0.8,10.3,2.2,17.8,0c1.9-0.6,5.8-1.9,8.9-5.1
		c0.8-0.8,2.3-2.6,3-5.1c0.1-0.4,0.4-1.8,0-3.4c-0.2-0.7-0.4-1.3-1-1.7c-0.8-0.5-1.8-0.1-2,0"/>
	<path fill="none" stroke="#FF0000" stroke-miterlimit="10" d="M1232.1,1037.6c0,0.2-0.2,1.2-1,1.7c-0.6,0.4-1.3,0.2-2,0
		c-1.6-0.4-2.6-1.4-3-1.7c-1.9-1.8-2.6-4-3-5.1c-1.2-4.3-0.5-8.3,0-10.3c1.9-7.5,6.5-12.9,8.9-15.4c9.3-9.7,20.9-13.7,26.7-15.4
		c8.4-2.4,24.5-5.5,47.7-1.1"/>
	<path fill="none" stroke="#FF0000" stroke-miterlimit="10" d="M1232.1,1037.6c-0.2-0.1-1-0.8-1-1.7c0-0.7,0.5-1.2,1-1.7
		c1.2-1.2,2.5-1.6,3-1.7c2.5-0.7,4.8-0.3,5.9,0c4.4,1.1,7.4,3.7,8.9,5.1c5.6,5.4,7.9,12,8.9,15.4c3.2,11.1,2,21.5,0.6,27.9"/>
	<path fill="none" stroke="#FF0000" stroke-miterlimit="10" d="M1207.7,1150.8c-20.9,14.5-42.1,21.7-55.6,25.3"/>
	<path fill="none" stroke="#FF0000" stroke-miterlimit="10" d="M1152.1,621.9c-5.1,18.9-11.6,54.2,0,92.4
		c7.8,25.9,19.8,39.6,26.7,46.2c4.4,4.2,13.6,12.2,26.7,15.4c3.4,0.8,10.3,2.2,17.8,0c1.9-0.6,5.8-1.9,8.9-5.1
		c0.8-0.8,2.3-2.6,3-5.1c0.1-0.4,0.4-1.8,0-3.4c-0.2-0.7-0.4-1.3-1-1.7c-0.8-0.5-1.8-0.1-2,0"/>
	<path fill="none" stroke="#FF0000" stroke-miterlimit="10" d="M1152.1,621.9c18.9-5.1,52.7-17.1,80-46.2
		c18.5-19.7,24.4-37,26.7-46.2c1.4-5.9,3.7-17.9,0-30.8c-1-3.4-3.3-10-8.9-15.4c-1.5-1.4-4.5-4.1-8.9-5.1c-1.1-0.3-3.4-0.7-5.9,0
		c-0.4,0.1-1.8,0.6-3,1.7c-0.5,0.5-1,1-1,1.7c0,1,0.8,1.6,1,1.7"/>
	<path fill="none" stroke="#FF0000" stroke-miterlimit="10" d="M1232.1,760.4c0,0.2-0.2,1.2-1,1.7c-0.6,0.4-1.3,0.2-2,0
		c-1.6-0.4-2.6-1.4-3-1.7c-1.9-1.8-2.6-4-3-5.1c-1.2-4.3-0.5-8.3,0-10.3c1.9-7.5,6.5-12.9,8.9-15.4c9.3-9.7,20.9-13.7,26.7-15.4
		c9.1-2.6,27-6.2,53.3,0c14.8,3.5,27.9,9,39.2,15.2"/>
	<path fill="none" stroke="#FF0000" stroke-miterlimit="10" d="M992.1,344.7c0,0.2-0.2,1.2-1,1.7c-0.6,0.4-1.3,0.2-2,0
		c-1.6-0.4-2.6-1.4-3-1.7c-1.9-1.8-2.6-4-3-5.1c-1.2-4.3-0.5-8.3,0-10.3c1.9-7.5,6.5-12.9,8.9-15.4c9.3-9.7,20.9-13.7,26.7-15.4
		c9.1-2.6,27-6.2,53.3,0c38.9,9.1,66.2,32.3,80,46.2"/>
	<path fill="none" stroke="#FF0000" stroke-miterlimit="10" d="M912.1,206.2c9.1-2.4,21.6-6.5,35.2-13.3"/>
	<path fill="none" stroke="#FF0000" stroke-miterlimit="10" d="M912.1,206.2c-5.1,18.9-11.6,54.2,0,92.4
		c7.8,25.9,19.8,39.6,26.7,46.2c4.4,4.2,13.6,12.2,26.7,15.4c3.4,0.8,10.3,2.2,17.8,0c1.9-0.6,5.8-1.9,8.9-5.1
		c0.8-0.8,2.3-2.6,3-5.1c0.1-0.4,0.4-1.8,0-3.4c-0.2-0.7-0.4-1.3-1-1.7c-0.8-0.5-1.8-0.1-2,0"/>
	<path fill="none" stroke="#FF0000" stroke-miterlimit="10" d="M992.1,1176.1c-0.2-0.1-1-0.8-1-1.7c0-0.7,0.5-1.2,1-1.7
		c1.2-1.2,2.5-1.6,3-1.7c2.5-0.7,4.8-0.3,5.9,0c4.4,1.1,7.4,3.7,8.9,5.1c5.6,5.4,7.9,12,8.9,15.4c3.7,12.9,1.4,24.9,0,30.8
		c-2.3,9.2-8.2,26.5-26.7,46.2c-27.3,29.1-61.1,41.1-80,46.2"/>
	<path fill="none" stroke="#FF0000" stroke-miterlimit="10" d="M992.1,1176.1c0,0.2-0.2,1.2-1,1.7c-0.6,0.4-1.3,0.2-2,0
		c-1.6-0.4-2.6-1.4-3-1.7c-1.9-1.8-2.6-4-3-5.1c-1.2-4.3-0.5-8.3,0-10.3c1.9-7.5,6.5-12.9,8.9-15.4c9.3-9.7,20.9-13.7,26.7-15.4
		c9.1-2.6,27-6.2,53.3,0c38.9,9.1,66.2,32.3,80,46.2"/>
	<path fill="none" stroke="#FF0000" stroke-miterlimit="10" d="M1146.1,1213c0.9-15,3.7-27.8,6.1-36.9"/>
	<path fill="none" stroke="#FF0000" stroke-miterlimit="10" d="M1232.1,483.3c0.2-0.1,1.2-0.5,2,0c0.6,0.4,0.8,1,1,1.7
		c0.4,1.6,0.1,3,0,3.4c-0.6,2.5-2.2,4.3-3,5.1c-3.1,3.2-7,4.6-8.9,5.1c-7.5,2.2-14.4,0.8-17.8,0c-13.1-3.2-22.3-11.2-26.7-15.4
		c-6.8-6.6-18.8-20.3-26.7-46.2c-11.6-38.2-5.1-73.5,0-92.4"/>
	<path fill="none" stroke="#FF0000" stroke-miterlimit="10" d="M1232.1,483.3c0,0.2-0.2,1.2-1,1.7c-0.6,0.4-1.3,0.2-2,0
		c-1.6-0.4-2.6-1.4-3-1.7c-1.9-1.8-2.6-4-3-5.1c-1.2-4.3-0.5-8.3,0-10.3c1.9-7.5,6.5-12.9,8.9-15.4c8.9-9.2,19.7-13.3,25.7-15.1"/>
	<path fill="none" stroke="#FF0000" stroke-miterlimit="10" d="M1176.6,336.4c-9.4,3.9-17.8,6.6-24.5,8.4"/>
	<path fill="none" stroke="#FF0000" stroke-miterlimit="10" d="M752.1,1314.7c0,0.2-0.2,1.2-1,1.7c-0.6,0.4-1.3,0.2-2,0
		c-1.6-0.4-2.6-1.4-3-1.7c-1.9-1.8-2.6-4-3-5.1c-1.2-4.3-0.5-8.3,0-10.3c1.9-7.5,6.5-12.9,8.9-15.4c9.3-9.7,20.9-13.7,26.7-15.4
		c9.1-2.6,27-6.2,53.3,0c38.9,9.1,66.2,32.3,80,46.2"/>
	<path fill="none" stroke="#FF0000" stroke-miterlimit="10" d="M912.1,1314.7c-1.8,6.7-3.7,15.4-5,25.5"/>
	<path fill="none" stroke="#FF0000" stroke-miterlimit="10" d="M512.1,899c0.2-0.1,1.2-0.5,2,0c0.6,0.4,0.8,1,1,1.7
		c0.4,1.6,0.1,3,0,3.4c-0.6,2.5-2.2,4.3-3,5.1c-3.1,3.2-7,4.6-8.9,5.1c-7.5,2.2-14.4,0.8-17.8,0c-13.1-3.2-22.3-11.2-26.7-15.4
		c-6.8-6.6-18.8-20.3-26.7-46.2c-11.6-38.2-5.1-73.5,0-92.4"/>
	<path fill="none" stroke="#FF0000" stroke-miterlimit="10" d="M272.1,760.4c0,0.2-0.2,1.2-1,1.7c-0.6,0.4-1.3,0.2-2,0
		c-1.6-0.4-2.6-1.4-3-1.7c-1.9-1.8-2.6-4-3-5.1c-1.2-4.3-0.5-8.3,0-10.3c1.9-7.5,6.5-12.9,8.9-15.4c9.3-9.7,20.9-13.7,26.7-15.4
		c9.1-2.6,27-6.2,53.3,0c38.9,9.1,66.2,32.3,80,46.2"/>
	<path fill="none" stroke="#FF0000" stroke-miterlimit="10" d="M432.1,1037.6c18.9-5.1,52.7-17.1,80-46.2
		c18.5-19.7,24.4-37,26.7-46.2c1.4-5.9,3.7-17.9,0-30.8c-1-3.4-3.3-10-8.9-15.4c-1.5-1.4-4.5-4.1-8.9-5.1c-1.1-0.3-3.4-0.7-5.9,0
		c-0.4,0.1-1.8,0.6-3,1.7c-0.5,0.5-1,1-1,1.7c0,1,0.8,1.6,1,1.7"/>
	<path fill="none" stroke="#FF0000" stroke-miterlimit="10" d="M192.1,899c-3.7,13.6-8,35.7-5.8,61.3"/>
	<path fill="none" stroke="#FF0000" stroke-miterlimit="10" d="M192.1,621.9c-5.1,18.9-11.6,54.2,0,92.4
		c7.8,25.9,19.8,39.6,26.7,46.2c4.4,4.2,13.6,12.2,26.7,15.4c3.4,0.8,10.3,2.2,17.8,0c1.9-0.6,5.8-1.9,8.9-5.1
		c0.8-0.8,2.3-2.6,3-5.1c0.1-0.4,0.4-1.8,0-3.4c-0.2-0.7-0.4-1.3-1-1.7c-0.8-0.5-1.8-0.1-2,0"/>
	<path fill="none" stroke="#FF0000" stroke-miterlimit="10" d="M163.2,875.2c12.6,8.4,22.4,17.1,29,23.8"/>
	<path fill="none" stroke="#FF0000" stroke-miterlimit="10" d="M272.1,760.4c-0.2-0.1-1-0.8-1-1.7c0-0.7,0.5-1.2,1-1.7
		c1.2-1.2,2.5-1.6,3-1.7c2.5-0.7,4.8-0.3,5.9,0c4.4,1.1,7.4,3.7,8.9,5.1c5.6,5.4,7.9,12,8.9,15.4c3.7,12.9,1.4,24.9,0,30.8
		c-2.3,9.2-8.2,26.5-26.7,46.2c-27.3,29.1-61.1,41.1-80,46.2"/>
	<path fill="none" stroke="#FF0000" stroke-miterlimit="10" d="M192.1,621.9c18.9-5.1,52.7-17.1,80-46.2
		c18.5-19.7,24.4-37,26.7-46.2c1.4-5.9,3.7-17.9,0-30.8c-1-3.4-3.3-10-8.9-15.4c-1.5-1.4-4.5-4.1-8.9-5.1c-1.1-0.3-3.4-0.7-5.9,0
		c-0.4,0.1-1.8,0.6-3,1.7c-0.5,0.5-1,1-1,1.7c0,1,0.8,1.6,1,1.7"/>
	<path fill="none" stroke="#FF0000" stroke-miterlimit="10" d="M219.5,484c4.6,4.3,13.5,11.7,25.9,14.7c3.4,0.8,10.3,2.2,17.8,0
		c1.9-0.6,5.8-1.9,8.9-5.1c0.8-0.8,2.3-2.6,3-5.1c0.1-0.4,0.4-1.8,0-3.4c-0.2-0.7-0.4-1.3-1-1.7c-0.8-0.5-1.8-0.1-2,0"/>
	<path fill="none" stroke="#FF0000" stroke-miterlimit="10" d="M192.1,621.9c-4.9-4.9-11.4-10.9-19.6-17.1"/>
	<path fill="none" stroke="#FF0000" stroke-miterlimit="10" d="M272.1,1037.6c0.2-0.1,1.2-0.5,2,0c0.6,0.4,0.8,1,1,1.7
		c0.4,1.6,0.1,3,0,3.4c-0.6,2.5-2.2,4.3-3,5.1c-3.1,3.2-7,4.6-8.9,5.1c-7.5,2.2-14.4,0.8-17.8,0c-11.3-2.8-19.7-9.1-24.6-13.5"/>
	<path fill="none" stroke="#FF0000" stroke-miterlimit="10" d="M672.1,1176.1c-5.1,18.9-11.6,54.2,0,92.4
		c7.8,25.9,19.8,39.6,26.7,46.2c4.4,4.2,13.6,12.2,26.7,15.4c3.4,0.8,10.3,2.2,17.8,0c1.9-0.6,5.8-1.9,8.9-5.1
		c0.8-0.8,2.3-2.6,3-5.1c0.1-0.4,0.4-1.8,0-3.4c-0.2-0.7-0.4-1.3-1-1.7c-0.8-0.5-1.8-0.1-2,0"/>
	<path fill="none" stroke="#FF0000" stroke-miterlimit="10" d="M512.1,1176.1c0,0.2-0.2,1.2-1,1.7c-0.6,0.4-1.3,0.2-2,0
		c-1.6-0.4-2.6-1.4-3-1.7c-1.9-1.8-2.6-4-3-5.1c-1.2-4.3-0.5-8.3,0-10.3c1.9-7.5,6.5-12.9,8.9-15.4c9.3-9.7,20.9-13.7,26.7-15.4
		c9.1-2.6,27-6.2,53.3,0c38.9,9.1,66.2,32.3,80,46.2"/>
	<path fill="none" stroke="#FF0000" stroke-miterlimit="10" d="M752.1,1314.7c-0.2-0.1-1-0.8-1-1.7c0-0.7,0.5-1.2,1-1.7
		c1.2-1.2,2.5-1.6,3-1.7c2.5-0.7,4.8-0.3,5.9,0c4.4,1.1,7.4,3.7,8.9,5.1c5.6,5.4,7.9,12,8.9,15.4c3.5,12.2,1.7,23.6,0.2,29.7"/>
	<path fill="none" stroke="#FF0000" stroke-miterlimit="10" d="M432.1,1037.6c-5.1,18.9-11.6,54.2,0,92.4
		c7.8,25.9,19.8,39.6,26.7,46.2c4.4,4.2,13.6,12.2,26.7,15.4c3.4,0.8,10.3,2.2,17.8,0c1.9-0.6,5.8-1.9,8.9-5.1
		c0.8-0.8,2.3-2.6,3-5.1c0.1-0.4,0.4-1.8,0-3.4c-0.2-0.7-0.4-1.3-1-1.7c-0.8-0.5-1.8-0.1-2,0"/>
	<path fill="none" stroke="#FF0000" stroke-miterlimit="10" d="M432.1,1037.6c-13.8-13.8-41.1-37.1-80-46.2
		c-26.3-6.2-44.2-2.6-53.3,0c-5.8,1.7-17.3,5.7-26.7,15.4c-2.4,2.5-7,7.9-8.9,15.4c-0.5,2-1.2,6,0,10.3c0.3,1.1,1.1,3.3,3,5.1
		c0.3,0.3,1.4,1.3,3,1.7c0.7,0.2,1.3,0.4,2,0c0.8-0.5,1-1.5,1-1.7"/>
	<path fill="none" stroke="#FF0000" stroke-miterlimit="10" d="M272.1,1037.6c-0.2-0.1-1-0.8-1-1.7c0-0.7,0.5-1.2,1-1.7
		c1.2-1.2,2.5-1.6,3-1.7c2.5-0.7,4.8-0.3,5.9,0c4.4,1.1,7.4,3.7,8.9,5.1c5.6,5.4,7.9,12,8.9,15.4c3.7,12.9,1.4,24.9,0,30.8
		c-2.1,8.5-7.3,24-22.8,41.8"/>
	<path fill="none" stroke="#FF0000" stroke-miterlimit="10" d="M512.1,1176.1c-0.2-0.1-1-0.8-1-1.7c0-0.7,0.5-1.2,1-1.7
		c1.2-1.2,2.5-1.6,3-1.7c2.5-0.7,4.8-0.3,5.9,0c4.4,1.1,7.4,3.7,8.9,5.1c5.6,5.4,7.9,12,8.9,15.4c3.7,12.9,1.4,24.9,0,30.8
		c-2.3,9.2-8.2,26.5-26.7,46.2c-10.4,11.1-21.8,19.7-32.9,26.4"/>
</g>
<g>
	<path fill="none" stroke="#0000FF" stroke-miterlimit="10" d="M992.1,899c-0.2,0.1-1.2,0.5-2,0c-0.6-0.4-0.8-1-1-1.7
		c-0.4-1.6-0.1-3,0-3.4c0.6-2.5,2.2-4.3,3-5.1c3.1-3.2,7-4.6,8.9-5.1c7.5-2.2,14.4-0.8,17.8,0c13.1,3.2,22.3,11.2,26.7,15.4
		c6.8,6.6,18.8,20.3,26.7,46.2c11.6,38.2,5.1,73.5,0,92.4"/>
	<path fill="none" stroke="#0000FF" stroke-miterlimit="10" d="M1072.1,483.3c13.8,13.8,41.1,37.1,80,46.2c26.3,6.2,44.2,2.6,53.3,0
		c5.8-1.7,17.3-5.7,26.7-15.4c2.4-2.5,7-7.9,8.9-15.4c0.5-2,1.2-6,0-10.3c-0.3-1.1-1.1-3.3-3-5.1c-0.3-0.3-1.4-1.3-3-1.7
		c-0.7-0.2-1.3-0.4-2,0c-0.8,0.5-1,1.5-1,1.7"/>
	<path fill="none" stroke="#0000FF" stroke-miterlimit="10" d="M1232.1,483.3c0.2,0.1,1,0.8,1,1.7c0,0.7-0.5,1.2-1,1.7
		c-1.2,1.2-2.5,1.6-3,1.7c-2.5,0.7-4.8,0.3-5.9,0c-4.4-1.1-7.4-3.7-8.9-5.1c-5.6-5.4-7.9-12-8.9-15.4c-3.7-12.9-1.4-24.9,0-30.8
		c2.1-8.5,7.3-24,22.8-41.8"/>
	<path fill="none" stroke="#0000FF" stroke-miterlimit="10" d="M1232.1,483.3c-0.2,0.1-1.2,0.5-2,0c-0.6-0.4-0.8-1-1-1.7
		c-0.4-1.6-0.1-3,0-3.4c0.6-2.5,2.2-4.3,3-5.1c3.1-3.2,7-4.6,8.9-5.1c7.5-2.2,14.4-0.8,17.8,0c11.3,2.8,19.7,9.1,24.6,13.5"/>
	<path fill="none" stroke="#0000FF" stroke-miterlimit="10" d="M992.1,344.7c0.2,0.1,1,0.8,1,1.7c0,0.7-0.5,1.2-1,1.7
		c-1.2,1.2-2.5,1.6-3,1.7c-2.5,0.7-4.8,0.3-5.9,0c-4.4-1.1-7.4-3.7-8.9-5.1c-5.6-5.4-7.9-12-8.9-15.4c-3.7-12.9-1.4-24.9,0-30.8
		c2.3-9.2,8.2-26.5,26.7-46.2c10.4-11.1,21.8-19.7,32.9-26.4"/>
	<path fill="none" stroke="#0000FF" stroke-miterlimit="10" d="M1072.1,760.4c13.8,13.8,41.1,37.1,80,46.2c26.3,6.2,44.2,2.6,53.3,0
		c5.8-1.7,17.3-5.7,26.7-15.4c2.4-2.5,7-7.9,8.9-15.4c0.5-2,1.2-6,0-10.3c-0.3-1.1-1.1-3.3-3-5.1c-0.3-0.3-1.4-1.3-3-1.7
		c-0.7-0.2-1.3-0.4-2,0c-0.8,0.5-1,1.5-1,1.7"/>
	<path fill="none" stroke="#0000FF" stroke-miterlimit="10" d="M752.1,1037.6c0.2,0.1,1,0.8,1,1.7c0,0.7-0.5,1.2-1,1.7
		c-1.2,1.2-2.5,1.6-3,1.7c-2.5,0.7-4.8,0.3-5.9,0c-4.4-1.1-7.4-3.7-8.9-5.1c-5.6-5.4-7.9-12-8.9-15.4c-3.7-12.9-1.4-24.9,0-30.8
		c2.3-9.2,8.2-26.5,26.7-46.2c27.3-29.1,61.1-41.1,80-46.2"/>
	<path fill="none" stroke="#0000FF" stroke-miterlimit="10" d="M512.1,899c-0.2,0.1-1.2,0.5-2,0c-0.6-0.4-0.8-1-1-1.7
		c-0.4-1.6-0.1-3,0-3.4c0.6-2.5,2.2-4.3,3-5.1c3.1-3.2,7-4.6,8.9-5.1c7.5-2.2,14.4-0.8,17.8,0c13.1,3.2,22.3,11.2,26.7,15.4
		c6.8,6.6,18.8,20.3,26.7,46.2c11.6,38.2,5.1,73.5,0,92.4"/>
	<path fill="none" stroke="#0000FF" stroke-miterlimit="10" d="M992.1,344.7c0-0.2,0.2-1.2,1-1.7c0.6-0.4,1.3-0.2,2,0
		c1.6,0.4,2.6,1.4,3,1.7c1.9,1.8,2.6,4,3,5.1c1.2,4.3,0.5,8.3,0,10.3c-1.9,7.5-6.5,12.9-8.9,15.4c-9.3,9.7-20.9,13.7-26.7,15.4
		c-9.1,2.6-27,6.2-53.3,0c-38.9-9.1-66.2-32.3-80-46.2"/>
	<path fill="none" stroke="#0000FF" stroke-miterlimit="10" d="M1072.1,483.3c5.1-18.9,11.6-54.2,0-92.4
		c-7.8-25.9-19.8-39.6-26.7-46.2c-4.4-4.2-13.6-12.2-26.7-15.4c-3.4-0.8-10.3-2.2-17.8,0c-1.9,0.6-5.8,1.9-8.9,5.1
		c-0.8,0.8-2.3,2.6-3,5.1c-0.1,0.4-0.4,1.8,0,3.4c0.2,0.7,0.4,1.3,1,1.7c0.8,0.5,1.8,0.1,2,0"/>
	<path fill="none" stroke="#0000FF" stroke-miterlimit="10" d="M992.1,621.9c0.2,0.1,1,0.8,1,1.7c0,0.7-0.5,1.2-1,1.7
		c-1.2,1.2-2.5,1.6-3,1.7c-2.5,0.7-4.8,0.3-5.9,0c-4.4-1.1-7.4-3.7-8.9-5.1c-5.6-5.4-7.9-12-8.9-15.4c-3.7-12.9-1.4-24.9,0-30.8
		c2.3-9.2,8.2-26.5,26.7-46.2c27.3-29.1,61.1-41.1,80-46.2"/>
	<path fill="none" stroke="#0000FF" stroke-miterlimit="10" d="M752.1,206.2c0.2,0.1,1,0.8,1,1.7c0,0.7-0.5,1.2-1,1.7
		c-1.2,1.2-2.5,1.6-3,1.7c-2.5,0.7-4.8,0.3-5.9,0c-4.4-1.1-7.4-3.7-8.9-5.1c-5.6-5.4-7.9-12-8.9-15.4c-3.5-12.2-1.7-23.6-0.2-29.7"
		/>
	<path fill="none" stroke="#0000FF" stroke-miterlimit="10" d="M1072.1,760.4c-18.9,5.1-52.7,17.1-80,46.2
		c-18.5,19.7-24.4,37-26.7,46.2c-1.4,5.9-3.7,17.9,0,30.8c1,3.4,3.3,10,8.9,15.4c1.5,1.4,4.5,4.1,8.9,5.1c1.1,0.3,3.4,0.7,5.9,0
		c0.4-0.1,1.8-0.6,3-1.7c0.5-0.5,1-1,1-1.7c0-1-0.8-1.6-1-1.7"/>
	<path fill="none" stroke="#0000FF" stroke-miterlimit="10" d="M992.1,899c0-0.2,0.2-1.2,1-1.7c0.6-0.4,1.3-0.2,2,0
		c1.6,0.4,2.6,1.4,3,1.7c1.9,1.8,2.6,4,3,5.1c1.2,4.3,0.5,8.3,0,10.3c-1.9,7.5-6.5,12.9-8.9,15.4c-9.3,9.7-20.9,13.7-26.7,15.4
		c-9.1,2.6-27,6.2-53.3,0c-38.9-9.1-66.2-32.3-80-46.2"/>
	<path fill="none" stroke="#0000FF" stroke-miterlimit="10" d="M992.1,621.9c-0.2,0.1-1.2,0.5-2,0c-0.6-0.4-0.8-1-1-1.7
		c-0.4-1.6-0.1-3,0-3.4c0.6-2.5,2.2-4.3,3-5.1c3.1-3.2,7-4.6,8.9-5.1c7.5-2.2,14.4-0.8,17.8,0c13.1,3.2,22.3,11.2,26.7,15.4
		c6.8,6.6,18.8,20.3,26.7,46.2c11.6,38.2,5.1,73.5,0,92.4"/>
	<path fill="none" stroke="#0000FF" stroke-miterlimit="10" d="M832.1,899c5.1-18.9,11.6-54.2,0-92.4c-7.8-25.9-19.8-39.6-26.7-46.2
		c-4.4-4.2-13.6-12.2-26.7-15.4c-3.4-0.8-10.3-2.2-17.8,0c-1.9,0.6-5.8,1.9-8.9,5.1c-0.8,0.8-2.3,2.6-3,5.1c-0.1,0.4-0.4,1.8,0,3.4
		c0.2,0.7,0.4,1.3,1,1.7c0.8,0.5,1.8,0.1,2,0"/>
	<path fill="none" stroke="#0000FF" stroke-miterlimit="10" d="M992.1,621.9c0-0.2,0.2-1.2,1-1.7c0.6-0.4,1.3-0.2,2,0
		c1.6,0.4,2.6,1.4,3,1.7c1.9,1.8,2.6,4,3,5.1c1.2,4.3,0.5,8.3,0,10.3c-1.9,7.5-6.5,12.9-8.9,15.4c-9.3,9.7-20.9,13.7-26.7,15.4
		c-9.1,2.6-27,6.2-53.3,0c-38.9-9.1-66.2-32.3-80-46.2"/>
	<path fill="none" stroke="#0000FF" stroke-miterlimit="10" d="M592.1,483.3c13.8,13.8,41.1,37.1,80,46.2c26.3,6.2,44.2,2.6,53.3,0
		c5.8-1.7,17.3-5.7,26.7-15.4c2.4-2.5,7-7.9,8.9-15.4c0.5-2,1.2-6,0-10.3c-0.3-1.1-1.1-3.3-3-5.1c-0.3-0.3-1.4-1.3-3-1.7
		c-0.7-0.2-1.3-0.4-2,0c-0.8,0.5-1,1.5-1,1.7"/>
	<path fill="none" stroke="#0000FF" stroke-miterlimit="10" d="M832.1,344.7c5.1-18.9,11.6-54.2,0-92.4
		c-7.8-25.9-19.8-39.6-26.7-46.2c-4.4-4.2-13.6-12.2-26.7-15.4c-3.4-0.8-10.3-2.2-17.8,0c-1.9,0.6-5.8,1.9-8.9,5.1
		c-0.8,0.8-2.3,2.6-3,5.1c-0.1,0.4-0.4,1.8,0,3.4c0.2,0.7,0.4,1.3,1,1.7c0.8,0.5,1.8,0.1,2,0"/>
	<path fill="none" stroke="#0000FF" stroke-miterlimit="10" d="M592.1,760.4c13.8,13.8,41.1,37.1,80,46.2c26.3,6.2,44.2,2.6,53.3,0
		c5.8-1.7,17.3-5.7,26.7-15.4c2.4-2.5,7-7.9,8.9-15.4c0.5-2,1.2-6,0-10.3c-0.3-1.1-1.1-3.3-3-5.1c-0.3-0.3-1.4-1.3-3-1.7
		c-0.7-0.2-1.3-0.4-2,0c-0.8,0.5-1,1.5-1,1.7"/>
	<path fill="none" stroke="#0000FF" stroke-miterlimit="10" d="M832.1,621.9c5.1-18.9,11.6-54.2,0-92.4
		c-7.8-25.9-19.8-39.6-26.7-46.2c-4.4-4.2-13.6-12.2-26.7-15.4c-3.4-0.8-10.3-2.2-17.8,0c-1.9,0.6-5.8,1.9-8.9,5.1
		c-0.8,0.8-2.3,2.6-3,5.1c-0.1,0.4-0.4,1.8,0,3.4c0.2,0.7,0.4,1.3,1,1.7c0.8,0.5,1.8,0.1,2,0"/>
	<path fill="none" stroke="#0000FF" stroke-miterlimit="10" d="M832.1,344.7c-18.9,5.1-52.7,17.1-80,46.2
		c-18.5,19.7-24.4,37-26.7,46.2c-1.4,5.9-3.7,17.9,0,30.8c1,3.4,3.3,10,8.9,15.4c1.5,1.4,4.5,4.1,8.9,5.1c1.1,0.3,3.4,0.7,5.9,0
		c0.4-0.1,1.8-0.6,3-1.7c0.5-0.5,1-1,1-1.7c0-1-0.8-1.6-1-1.7"/>
	<path fill="none" stroke="#0000FF" stroke-miterlimit="10" d="M752.1,206.2c0-0.2,0.2-1.2,1-1.7c0.6-0.4,1.3-0.2,2,0
		c1.6,0.4,2.6,1.4,3,1.7c1.9,1.8,2.6,4,3,5.1c1.2,4.3,0.5,8.3,0,10.3c-1.9,7.5-6.5,12.9-8.9,15.4c-9.3,9.7-20.9,13.7-26.7,15.4
		c-9.1,2.6-27,6.2-53.3,0c-38.9-9.1-66.2-32.3-80-46.2"/>
	<path fill="none" stroke="#0000FF" stroke-miterlimit="10" d="M832.1,621.9c-18.9,5.1-52.7,17.1-80,46.2
		c-18.5,19.7-24.4,37-26.7,46.2c-1.4,5.9-3.7,17.9,0,30.8c1,3.4,3.3,10,8.9,15.4c1.5,1.4,4.5,4.1,8.9,5.1c1.1,0.3,3.4,0.7,5.9,0
		c0.4-0.1,1.8-0.6,3-1.7c0.5-0.5,1-1,1-1.7c0-1-0.8-1.6-1-1.7"/>
	<path fill="none" stroke="#0000FF" stroke-miterlimit="10" d="M352.1,899c13.8,13.8,41.1,37.1,80,46.2c26.3,6.2,44.2,2.6,53.3,0
		c5.8-1.7,17.3-5.7,26.7-15.4c2.4-2.5,7-7.9,8.9-15.4c0.5-2,1.2-6,0-10.3c-0.3-1.1-1.1-3.3-3-5.1c-0.3-0.3-1.4-1.3-3-1.7
		c-0.7-0.2-1.3-0.4-2,0c-0.8,0.5-1,1.5-1,1.7"/>
	<path fill="none" stroke="#0000FF" stroke-miterlimit="10" d="M592.1,760.4c-18.9,5.1-52.7,17.1-80,46.2
		c-18.5,19.7-24.4,37-26.7,46.2c-1.4,5.9-3.7,17.9,0,30.8c1,3.4,3.3,10,8.9,15.4c1.5,1.4,4.5,4.1,8.9,5.1c1.1,0.3,3.4,0.7,5.9,0
		c0.4-0.1,1.8-0.6,3-1.7c0.5-0.5,1-1,1-1.7c0-1-0.8-1.6-1-1.7"/>
	<path fill="none" stroke="#0000FF" stroke-miterlimit="10" d="M512.1,621.9c-0.2,0.1-1.2,0.5-2,0c-0.6-0.4-0.8-1-1-1.7
		c-0.4-1.6-0.1-3,0-3.4c0.6-2.5,2.2-4.3,3-5.1c3.1-3.2,7-4.6,8.9-5.1c7.5-2.2,14.4-0.8,17.8,0c13.1,3.2,22.3,11.2,26.7,15.4
		c6.8,6.6,18.8,20.3,26.7,46.2c11.6,38.2,5.1,73.5,0,92.4"/>
	<path fill="none" stroke="#0000FF" stroke-miterlimit="10" d="M1232.1,1037.6c0-0.2,0.2-1.2,1-1.7c0.6-0.4,1.3-0.2,2,0
		c1.6,0.4,2.6,1.4,3,1.7c1.9,1.8,2.6,4,3,5.1c1.2,4.3,0.5,8.3,0,10.3c-1.9,7.5-6.5,12.9-8.9,15.4c-9.3,9.7-20.9,13.7-26.7,15.4
		c-9.1,2.6-27,6.2-53.3,0c-38.9-9.1-66.2-32.3-80-46.2"/>
	<path fill="none" stroke="#0000FF" stroke-miterlimit="10" d="M992.1,1176.1c0.2,0.1,1,0.8,1,1.7c0,0.7-0.5,1.2-1,1.7
		c-1.2,1.2-2.5,1.6-3,1.7c-2.5,0.7-4.8,0.3-5.9,0c-4.4-1.1-7.4-3.7-8.9-5.1c-5.6-5.4-7.9-12-8.9-15.4c-3.7-12.9-1.4-24.9,0-30.8
		c2.3-9.2,8.2-26.5,26.7-46.2c27.3-29.1,61.1-41.1,80-46.2"/>
	<path fill="none" stroke="#0000FF" stroke-miterlimit="10" d="M592.1,206.2c1.8-6.7,3.7-15.4,5-25.5"/>
	<path fill="none" stroke="#0000FF" stroke-miterlimit="10" d="M592.1,206.2c-18.9,5.1-52.7,17.1-80,46.2
		c-18.5,19.7-24.4,37-26.7,46.2c-1.4,5.9-3.7,17.9,0,30.8c1,3.4,3.3,10,8.9,15.4c1.5,1.4,4.5,4.1,8.9,5.1c1.1,0.3,3.4,0.7,5.9,0
		c0.4-0.1,1.8-0.6,3-1.7c0.5-0.5,1-1,1-1.7c0-1-0.8-1.6-1-1.7"/>
	<path fill="none" stroke="#0000FF" stroke-miterlimit="10" d="M1312.1,621.9c3.7-13.6,8-35.7,5.8-61.3"/>
	<path fill="none" stroke="#0000FF" stroke-miterlimit="10" d="M1312.1,899c-18.9,5.1-52.7,17.1-80,46.2
		c-18.5,19.7-24.4,37-26.7,46.2c-1.4,5.9-3.7,17.9,0,30.8c1,3.4,3.3,10,8.9,15.4c1.5,1.4,4.5,4.1,8.9,5.1c1.1,0.3,3.4,0.7,5.9,0
		c0.4-0.1,1.8-0.6,3-1.7c0.5-0.5,1-1,1-1.7c0-1-0.8-1.6-1-1.7"/>
	<path fill="none" stroke="#0000FF" stroke-miterlimit="10" d="M1284.8,1036.9c-4.6-4.3-13.5-11.7-25.9-14.7
		c-3.4-0.8-10.3-2.2-17.8,0c-1.9,0.6-5.8,1.9-8.9,5.1c-0.8,0.8-2.3,2.6-3,5.1c-0.1,0.4-0.4,1.8,0,3.4c0.2,0.7,0.4,1.3,1,1.7
		c0.8,0.5,1.8,0.1,2,0"/>
	<path fill="none" stroke="#0000FF" stroke-miterlimit="10" d="M832.1,1176.1c5.1-18.9,11.6-54.2,0-92.4
		c-7.8-25.9-19.8-39.6-26.7-46.2c-4.4-4.2-13.6-12.2-26.7-15.4c-3.4-0.8-10.3-2.2-17.8,0c-1.9,0.6-5.8,1.9-8.9,5.1
		c-0.8,0.8-2.3,2.6-3,5.1c-0.1,0.4-0.4,1.8,0,3.4c0.2,0.7,0.4,1.3,1,1.7c0.8,0.5,1.8,0.1,2,0"/>
	<path fill="none" stroke="#0000FF" stroke-miterlimit="10" d="M512.1,1176.1c0.2,0.1,1,0.8,1,1.7c0,0.7-0.5,1.2-1,1.7
		c-1.2,1.2-2.5,1.6-3,1.7c-2.5,0.7-4.8,0.3-5.9,0c-4.4-1.1-7.4-3.7-8.9-5.1c-5.6-5.4-7.9-12-8.9-15.4c-3.7-12.9-1.4-24.9,0-30.8
		c2.3-9.2,8.2-26.5,26.7-46.2c27.3-29.1,61.1-41.1,80-46.2"/>
	<path fill="none" stroke="#0000FF" stroke-miterlimit="10" d="M752.1,1037.6c0-0.2,0.2-1.2,1-1.7c0.6-0.4,1.3-0.2,2,0
		c1.6,0.4,2.6,1.4,3,1.7c1.9,1.8,2.6,4,3,5.1c1.2,4.3,0.5,8.3,0,10.3c-1.9,7.5-6.5,12.9-8.9,15.4c-9.3,9.7-20.9,13.7-26.7,15.4
		c-9.1,2.6-27,6.2-53.3,0c-38.9-9.1-66.2-32.3-80-46.2"/>
	<path fill="none" stroke="#0000FF" stroke-miterlimit="10" d="M752.1,1314.7c0-0.2,0.2-1.2,1-1.7c0.6-0.4,1.3-0.2,2,0
		c1.6,0.4,2.6,1.4,3,1.7c1.9,1.8,2.6,4,3,5.1c1.2,4.3,0.5,8.3,0,10.3c-1.9,7.5-6.5,12.9-8.9,15.4c-7.9,8.2-17.4,12.4-23.7,14.4"/>
	<path fill="none" stroke="#0000FF" stroke-miterlimit="10" d="M1312.1,899c5.1-18.9,11.6-54.2,0-92.4
		c-7.8-25.9-19.8-39.6-26.7-46.2c-4.4-4.2-13.6-12.2-26.7-15.4c-3.4-0.8-10.3-2.2-17.8,0c-1.9,0.6-5.8,1.9-8.9,5.1
		c-0.8,0.8-2.3,2.6-3,5.1c-0.1,0.4-0.4,1.8,0,3.4c0.2,0.7,0.4,1.3,1,1.7c0.8,0.5,1.8,0.1,2,0"/>
	<path fill="none" stroke="#0000FF" stroke-miterlimit="10" d="M1232.1,760.4c0.2,0.1,1,0.8,1,1.7c0,0.7-0.5,1.2-1,1.7
		c-1.2,1.2-2.5,1.6-3,1.7c-2.5,0.7-4.8,0.3-5.9,0c-4.4-1.1-7.4-3.7-8.9-5.1c-5.6-5.4-7.9-12-8.9-15.4c-3.7-12.9-1.4-24.9,0-30.8
		c2.3-9.2,8.2-26.5,26.7-46.2c27.3-29.1,61.1-41.1,80-46.2"/>
	<path fill="none" stroke="#0000FF" stroke-miterlimit="10" d="M1312.1,621.9c6.6,6.6,16.4,15.4,29,23.8"/>
	<path fill="none" stroke="#0000FF" stroke-miterlimit="10" d="M1312.1,899c4.9,4.9,11.4,10.9,19.6,17.1"/>
	<path fill="none" stroke="#0000FF" stroke-miterlimit="10" d="M992.1,1176.1c0-0.2,0.2-1.2,1-1.7c0.6-0.4,1.3-0.2,2,0
		c1.6,0.4,2.6,1.4,3,1.7c1.9,1.8,2.6,4,3,5.1c1.2,4.3,0.5,8.3,0,10.3c-1.9,7.5-6.5,12.9-8.9,15.4c-9.3,9.7-20.9,13.7-26.7,15.4
		c-9.1,2.6-27,6.2-53.3,0c-38.9-9.1-66.2-32.3-80-46.2"/>
	<path fill="none" stroke="#0000FF" stroke-miterlimit="10" d="M992.1,1176.1c-0.2,0.1-1.2,0.5-2,0c-0.6-0.4-0.8-1-1-1.7
		c-0.4-1.6-0.1-3,0-3.4c0.6-2.5,2.2-4.3,3-5.1c3.1-3.2,7-4.6,8.9-5.1c7.5-2.2,14.4-0.8,17.8,0c13.1,3.2,22.3,11.2,26.7,15.4
		c6.8,6.6,18.8,20.3,26.7,46.2c4.4,14.5,6.2,28.7,6.4,41.6"/>
	<path fill="none" stroke="#0000FF" stroke-miterlimit="10" d="M752.1,1314.7c-0.2,0.1-1.2,0.5-2,0c-0.6-0.4-0.8-1-1-1.7
		c-0.4-1.6-0.1-3,0-3.4c0.6-2.5,2.2-4.3,3-5.1c3.1-3.2,7-4.6,8.9-5.1c7.5-2.2,14.4-0.8,17.8,0c13.1,3.2,22.3,11.2,26.7,15.4
		c6.3,6.1,17.1,18.3,24.9,40.7"/>
	<path fill="none" stroke="#0000FF" stroke-miterlimit="10" d="M832.1,1176.1c-18.9,5.1-52.7,17.1-80,46.2
		c-18.5,19.7-24.4,37-26.7,46.2c-1.4,5.9-3.7,17.9,0,30.8c1,3.4,3.3,10,8.9,15.4c1.5,1.4,4.5,4.1,8.9,5.1c1.1,0.3,3.4,0.7,5.9,0
		c0.4-0.1,1.8-0.6,3-1.7c0.5-0.5,1-1,1-1.7c0-1-0.8-1.6-1-1.7"/>
	<path fill="none" stroke="#0000FF" stroke-miterlimit="10" d="M592.1,483.3c5.1-18.9,11.6-54.2,0-92.4
		c-7.8-25.9-19.8-39.6-26.7-46.2c-4.4-4.2-13.6-12.2-26.7-15.4c-3.4-0.8-10.3-2.2-17.8,0c-1.9,0.6-5.8,1.9-8.9,5.1
		c-0.8,0.8-2.3,2.6-3,5.1c-0.1,0.4-0.4,1.8,0,3.4c0.2,0.7,0.4,1.3,1,1.7c0.8,0.5,1.8,0.1,2,0"/>
	<path fill="none" stroke="#0000FF" stroke-miterlimit="10" d="M512.1,621.9c0.2,0.1,1,0.8,1,1.7c0,0.7-0.5,1.2-1,1.7
		c-1.2,1.2-2.5,1.6-3,1.7c-2.5,0.7-4.8,0.3-5.9,0c-4.4-1.1-7.4-3.7-8.9-5.1c-5.6-5.4-7.9-12-8.9-15.4c-3.7-12.9-1.4-24.9,0-30.8
		c2.3-9.2,8.2-26.5,26.7-46.2c27.3-29.1,61.1-41.1,80-46.2"/>
	<path fill="none" stroke="#0000FF" stroke-miterlimit="10" d="M512.1,621.9c0-0.2,0.2-1.2,1-1.7c0.6-0.4,1.3-0.2,2,0
		c1.6,0.4,2.6,1.4,3,1.7c1.9,1.8,2.6,4,3,5.1c1.2,4.3,0.5,8.3,0,10.3c-1.9,7.5-6.5,12.9-8.9,15.4c-9.3,9.7-20.9,13.7-26.7,15.4
		c-9.1,2.6-27,6.2-53.3,0c-38.9-9.1-66.2-32.3-80-46.2"/>
	<path fill="none" stroke="#0000FF" stroke-miterlimit="10" d="M272.1,483.3c0.2,0.1,1,0.8,1,1.7c0,0.7-0.5,1.2-1,1.7
		c-1.2,1.2-2.5,1.6-3,1.7c-2.5,0.7-4.8,0.3-5.9,0c-4.4-1.1-7.4-3.7-8.9-5.1c-5.6-5.4-7.9-12-8.9-15.4c-3.2-11.1-2-21.5-0.6-27.9"/>
	<path fill="none" stroke="#0000FF" stroke-miterlimit="10" d="M512.1,344.7c0-0.2,0.2-1.2,1-1.7c0.6-0.4,1.3-0.2,2,0
		c1.6,0.4,2.6,1.4,3,1.7c1.9,1.8,2.6,4,3,5.1c1.2,4.3,0.5,8.3,0,10.3c-1.9,7.5-6.5,12.9-8.9,15.4c-9.3,9.7-20.9,13.7-26.7,15.4
		c-9.1,2.6-27,6.2-53.3,0c-38.9-9.1-66.2-32.3-80-46.2"/>
	<path fill="none" stroke="#0000FF" stroke-miterlimit="10" d="M272.1,760.4c0.2,0.1,1,0.8,1,1.7c0,0.7-0.5,1.2-1,1.7
		c-1.2,1.2-2.5,1.6-3,1.7c-2.5,0.7-4.8,0.3-5.9,0c-4.4-1.1-7.4-3.7-8.9-5.1c-5.6-5.4-7.9-12-8.9-15.4c-3.7-12.9-1.4-24.9,0-30.8
		c2.3-9.2,8.2-26.5,26.7-46.2c27.3-29.1,61.1-41.1,80-46.2"/>
	<path fill="none" stroke="#0000FF" stroke-miterlimit="10" d="M272.1,483.3c0-0.2,0.2-1.2,1-1.7c0.6-0.4,1.3-0.2,2,0
		c1.6,0.4,2.6,1.4,3,1.7c1.9,1.8,2.6,4,3,5.1c1.2,4.3,0.5,8.3,0,10.3c-1.9,7.5-6.5,12.9-8.9,15.4c-9.3,9.7-20.9,13.7-26.7,15.4
		c-8.4,2.4-24.5,5.5-47.7,1.1"/>
	<path fill="none" stroke="#0000FF" stroke-miterlimit="10" d="M272.1,483.3c-0.2,0.1-1.2,0.5-2,0c-0.6-0.4-0.8-1-1-1.7
		c-0.4-1.6-0.1-3,0-3.4c0.6-2.5,2.2-4.3,3-5.1c3.1-3.2,7-4.6,8.9-5.1c7.5-2.2,14.4-0.8,17.8,0c13.1,3.2,22.3,11.2,26.7,15.4
		c6.8,6.6,18.8,20.3,26.7,46.2c11.6,38.2,5.1,73.5,0,92.4"/>
	<path fill="none" stroke="#0000FF" stroke-miterlimit="10" d="M592.1,1314.7c9.9,9.9,26.9,24.7,50,35.7"/>
	<path fill="none" stroke="#0000FF" stroke-miterlimit="10" d="M358.2,307.9c-0.9,15-3.7,27.8-6.1,36.9"/>
	<path fill="none" stroke="#0000FF" stroke-miterlimit="10" d="M296.5,370c20.9-14.5,42.1-21.7,55.6-25.3"/>
	<path fill="none" stroke="#0000FF" stroke-miterlimit="10" d="M512.1,1176.1c0-0.2,0.2-1.2,1-1.7c0.6-0.4,1.3-0.2,2,0
		c1.6,0.4,2.6,1.4,3,1.7c1.9,1.8,2.6,4,3,5.1c1.2,4.3,0.5,8.3,0,10.3c-1.9,7.5-6.5,12.9-8.9,15.4c-9.3,9.7-20.9,13.7-26.7,15.4
		c-9.1,2.6-27,6.2-53.3,0c-38.9-9.1-66.2-32.3-80-46.2"/>
	<path fill="none" stroke="#0000FF" stroke-miterlimit="10" d="M592.1,1314.7c5.1-18.9,11.6-54.2,0-92.4
		c-7.8-25.9-19.8-39.6-26.7-46.2c-4.4-4.2-13.6-12.2-26.7-15.4c-3.4-0.8-10.3-2.2-17.8,0c-1.9,0.6-5.8,1.9-8.9,5.1
		c-0.8,0.8-2.3,2.6-3,5.1c-0.1,0.4-0.4,1.8,0,3.4c0.2,0.7,0.4,1.3,1,1.7c0.8,0.5,1.8,0.1,2,0"/>
	<path fill="none" stroke="#0000FF" stroke-miterlimit="10" d="M592.1,1314.7c-9.1,2.4-21.6,6.5-35.2,13.3"/>
	<path fill="none" stroke="#0000FF" stroke-miterlimit="10" d="M352.1,899c-18.9,5.1-52.7,17.1-80,46.2
		c-18.5,19.7-24.4,37-26.7,46.2c-1.4,5.9-3.7,17.9,0,30.8c1,3.4,3.3,10,8.9,15.4c1.5,1.4,4.5,4.1,8.9,5.1c1.1,0.3,3.4,0.7,5.9,0
		c0.4-0.1,1.8-0.6,3-1.7c0.5-0.5,1-1,1-1.7c0-1-0.8-1.6-1-1.7"/>
	<path fill="none" stroke="#0000FF" stroke-miterlimit="10" d="M352.1,899c5.1-18.9,11.6-54.2,0-92.4c-7.8-25.9-19.8-39.6-26.7-46.2
		c-4.4-4.2-13.6-12.2-26.7-15.4c-3.4-0.8-10.3-2.2-17.8,0c-1.9,0.6-5.8,1.9-8.9,5.1c-0.8,0.8-2.3,2.6-3,5.1c-0.1,0.4-0.4,1.8,0,3.4
		c0.2,0.7,0.4,1.3,1,1.7c0.8,0.5,1.8,0.1,2,0"/>
	<path fill="none" stroke="#0000FF" stroke-miterlimit="10" d="M272.1,760.4c0-0.2,0.2-1.2,1-1.7c0.6-0.4,1.3-0.2,2,0
		c1.6,0.4,2.6,1.4,3,1.7c1.9,1.8,2.6,4,3,5.1c1.2,4.3,0.5,8.3,0,10.3c-1.9,7.5-6.5,12.9-8.9,15.4c-9.3,9.7-20.9,13.7-26.7,15.4
		c-9.1,2.6-27,6.2-53.3,0c-14.8-3.5-27.9-9-39.2-15.2"/>
	<path fill="none" stroke="#0000FF" stroke-miterlimit="10" d="M272.1,1037.6c-0.2,0.1-1.2,0.5-2,0c-0.6-0.4-0.8-1-1-1.7
		c-0.4-1.6-0.1-3,0-3.4c0.6-2.5,2.2-4.3,3-5.1c3.1-3.2,7-4.6,8.9-5.1c7.5-2.2,14.4-0.8,17.8,0c13.1,3.2,22.3,11.2,26.7,15.4
		c6.8,6.6,18.8,20.3,26.7,46.2c11.6,38.2,5.1,73.5,0,92.4"/>
	<path fill="none" stroke="#0000FF" stroke-miterlimit="10" d="M327.7,1184.5c9.4-3.9,17.8-6.6,24.5-8.4"/>
	<path fill="none" stroke="#0000FF" stroke-miterlimit="10" d="M272.1,1037.6c0-0.2,0.2-1.2,1-1.7c0.6-0.4,1.3-0.2,2,0
		c1.6,0.4,2.6,1.4,3,1.7c1.9,1.8,2.6,4,3,5.1c1.2,4.3,0.5,8.3,0,10.3c-1.9,7.5-6.5,12.9-8.9,15.4c-8.9,9.2-19.7,13.3-25.7,15.1"/>
</g>
<circle fill="none" stroke="#000000" stroke-miterlimit="10" cx="752.1" cy="760.4" r="600"/>
</svg>
