<?xml version="1.0" encoding="utf-8"?>
<!-- Generator: Adobe Illustrator 16.0.3, SVG Export Plug-In . SVG Version: 6.00 Build 0)  -->
<!DOCTYPE svg PUBLIC "-//W3C//DTD SVG 1.1//EN" "http://www.w3.org/Graphics/SVG/1.1/DTD/svg11.dtd">
<svg version="1.1"
	 id="svg2" xmlns:svg="http://www.w3.org/2000/svg" xmlns:rdf="http://www.w3.org/1999/02/22-rdf-syntax-ns#" xmlns:dc="http://purl.org/dc/elements/1.1/" xmlns:cc="http://creativecommons.org/ns#"
	 xmlns="http://www.w3.org/2000/svg" xmlns:xlink="http://www.w3.org/1999/xlink" x="0px" y="0px" width="3456px" height="6912px"
	 viewBox="0 0 3456 6912" enable-background="new 0 0 3456 6912" xml:space="preserve">
<path opacity="0.3" fill="none" stroke="#FF0000" stroke-linecap="round" stroke-linejoin="round" d="M1039.344,2949.601
	l0.884-11.264 M1036.708,2960.588l2.636-10.987 M1032.386,2971.027l4.322-10.439 M1026.483,2980.662l5.902-9.634 M1019.146,2989.254
	l7.337-8.592 M1010.556,2996.592l8.591-7.338 M1000.923,3002.497l9.633-5.904 M990.484,3006.821l10.438-4.324 M979.498,3009.459
	l10.986-2.638 M968.234,3010.345l11.264-0.886 M1184.216,2938.337l0.893,11.263 M1185.108,2949.6l2.641,10.983 M1187.75,2960.583
	l4.326,10.435 M1192.075,2971.019l5.903,9.63 M1205.313,2989.238l-7.335-8.589 M1213.901,2996.575l-8.587-7.337 M1223.53,3002.479
	l-9.629-5.905 M1223.53,3002.479l10.434,4.328 M1244.947,3009.451l-10.983-2.644 M1256.209,3010.345l-11.263-0.895
	 M1327.366,2949.606l0.884-11.264 M1327.366,2949.606l-2.636,10.987 M1324.73,2960.593l-4.322,10.439 M1314.505,2980.667
	l5.902-9.634 M1307.169,2989.259l7.336-8.592 M1298.578,2996.598l8.591-7.339 M1288.945,3002.501l9.633-5.904 M1278.506,3006.826
	l10.438-4.324 M1267.52,3009.464l10.986-2.638 M1256.256,3010.351l11.264-0.887 M1473.13,2949.605l-0.893-11.263 M1473.13,2949.605
	l2.642,10.983 M1480.097,2971.023l-4.325-10.435 M1480.097,2971.023l5.903,9.63 M1486,2980.653l7.335,8.589 M1501.923,2996.58
	l-8.587-7.337 M1501.923,2996.58l9.629,5.905 M1521.986,3006.812l-10.434-4.328 M1521.986,3006.812l10.983,2.644 M1544.231,3010.351
	l-11.263-0.895 M1183.346,2926.896l0.884,11.264 M1183.346,2926.896l-2.636-10.987 M1180.71,2915.909l-4.322-10.439
	 M1176.388,2905.469l-5.902-9.634 M1163.149,2887.243l7.336,8.593 M1154.558,2879.904l8.591,7.338 M1144.925,2874l9.633,5.904
	 M1134.487,2869.676l10.438,4.325 M1123.5,2867.038l10.986,2.638 M1112.237,2866.151l11.264,0.886 M1328.218,2938.16l0.893-11.263
	 M1331.752,2915.914l-2.641,10.983 M1336.078,2905.478l-4.326,10.436 M1341.98,2895.848l-5.903,9.63 M1349.316,2887.259
	l-7.335,8.589 M1357.903,2879.922l-8.587,7.337 M1367.532,2874.017l-9.629,5.905 M1367.532,2874.017l10.434-4.327
	 M1388.949,2867.046l-10.983,2.644 M1400.212,2866.151l-11.263,0.895 M1471.368,2926.891l0.884,11.264 M1468.732,2915.904
	l2.636,10.987 M1464.41,2905.465l4.322,10.439 M1464.41,2905.465l-5.902-9.634 M1451.171,2887.238l7.337,8.593 M1442.581,2879.899
	l8.591,7.339 M1432.947,2873.996l9.633,5.904 M1422.509,2869.671l10.438,4.325 M1411.523,2867.033l10.986,2.638 M1400.259,2866.146
	l11.264,0.887 M1616.24,2938.155l0.893-11.263 M1619.774,2915.909l-2.642,10.983 M1624.1,2905.473l-4.326,10.436 M1630.002,2895.843
	l-5.902,9.63 M1637.338,2887.254l-7.335,8.589 M1645.925,2879.917l-8.587,7.337 M1655.555,2874.012l-9.629,5.905 M1665.989,2869.685
	l-10.434,4.327 M1676.971,2867.042l-10.983,2.644 M1688.234,2866.146l-11.263,0.896 M463.347,2949.498l0.884-11.264
	 M460.711,2960.485l2.636-10.987 M456.389,2970.924l4.322-10.439 M450.486,2980.558l5.902-9.634 M443.149,2989.15l7.337-8.592
	 M434.559,2996.489l8.591-7.338 M424.926,3002.393l9.633-5.904 M414.487,3006.717l10.438-4.324 M403.501,3009.355l10.986-2.638
	 M392.237,3010.242l11.264-0.886 M608.219,2938.234l0.893,11.263 M609.111,2949.497l2.641,10.983 M611.752,2960.48l4.326,10.435
	 M616.078,2970.915l5.903,9.63 M629.316,2989.134l-7.335-8.589 M637.904,2996.471l-8.587-7.337 M647.533,3002.376l-9.629-5.905
	 M647.533,3002.376l10.434,4.328 M668.95,3009.347l-10.983-2.644 M680.212,3010.242l-11.263-0.895 M751.369,2949.502l0.884-11.264
	 M751.369,2949.502l-2.636,10.987 M748.733,2960.49l-4.322,10.439 M738.508,2980.563l5.902-9.634 M731.172,2989.155l7.336-8.592
	 M722.581,2996.494l8.591-7.339 M712.948,3002.398l9.633-5.904 M702.509,3006.722l10.438-4.324 M691.523,3009.36l10.986-2.638
	 M680.259,3010.247l11.264-0.887 M897.133,2949.501l-0.893-11.263 M897.133,2949.501l2.642,10.983 M904.1,2970.92l-4.325-10.435
	 M904.1,2970.92l5.903,9.63 M910.003,2980.55l7.335,8.589 M925.926,2996.476l-8.587-7.337 M925.926,2996.476l9.629,5.905
	 M945.989,3006.708l-10.434-4.328 M945.989,3006.708l10.983,2.644 M968.234,3010.247l-11.263-0.895 M607.349,2926.792l0.884,11.264
	 M607.349,2926.792l-2.636-10.987 M604.713,2915.805l-4.322-10.439 M600.391,2905.366l-5.902-9.634 M587.152,2887.139l7.336,8.593
	 M578.561,2879.801l8.591,7.338 M568.928,2873.897l9.633,5.904 M558.49,2869.572l10.438,4.325 M547.503,2866.934l10.986,2.638
	 M536.24,2866.048l11.264,0.886 M752.221,2938.056l0.893-11.263 M755.755,2915.81l-2.641,10.983 M760.081,2905.375l-4.326,10.436
	 M765.983,2895.745l-5.903,9.63 M773.319,2887.156l-7.335,8.589 M781.906,2879.819l-8.587,7.337 M791.535,2873.914l-9.629,5.905
	 M791.535,2873.914l10.434-4.327 M812.952,2866.943l-10.983,2.644 M824.215,2866.048l-11.263,0.895 M895.371,2926.787l0.884,11.264
	 M892.735,2915.8l2.636,10.987 M888.413,2905.361l4.322,10.439 M888.413,2905.361l-5.902-9.634 M875.174,2887.134l7.337,8.593
	 M866.583,2879.796l8.591,7.339 M856.95,2873.892l9.633,5.904 M846.512,2869.567l10.438,4.325 M835.526,2866.929l10.986,2.638
	 M824.262,2866.042l11.264,0.887 M1040.243,2938.051l0.893-11.263 M1043.777,2915.805l-2.642,10.983 M1048.103,2905.37
	l-4.326,10.436 M1054.005,2895.74l-5.902,9.63 M1061.341,2887.151l-7.335,8.589 M1069.928,2879.814l-8.587,7.337 M1079.558,2873.909
	l-9.629,5.905 M1089.992,2869.582l-10.434,4.327 M1100.974,2866.938l-10.983,2.644 M1112.237,2866.042l-11.263,0.896
	 M1616.279,2949.394l0.884-11.264 M1613.644,2960.381l2.636-10.987 M1609.321,2970.82l4.322-10.439 M1603.419,2980.455l5.902-9.634
	 M1596.082,2989.047l7.337-8.592 M1587.491,2996.385l8.591-7.338 M1577.858,3002.29l9.633-5.904 M1567.42,3006.614l10.438-4.324
	 M1556.434,3009.252l10.986-2.638 M1545.17,3010.138l11.264-0.886 M1761.151,2938.13l0.893,11.263 M1762.044,2949.393l2.642,10.983
	 M1764.686,2960.376l4.325,10.435 M1769.011,2970.812l5.903,9.63 M1782.249,2989.031l-7.335-8.589 M1790.836,2996.368l-8.587-7.337
	 M1800.465,3002.272l-9.629-5.905 M1800.465,3002.272l10.435,4.328 M1821.883,3009.244l-10.983-2.644 M1833.145,3010.138
	l-11.262-0.895 M1904.301,2949.399l0.885-11.264 M1904.301,2949.399l-2.635,10.987 M1901.666,2960.386l-4.322,10.439
	 M1891.441,2980.459l5.902-9.634 M1884.104,2989.052l7.337-8.592 M1875.514,2996.391l8.591-7.339 M1865.881,3002.294l9.633-5.904
	 M1855.441,3006.619l10.439-4.324 M1844.455,3009.257l10.986-2.638 M1833.191,3010.144l11.264-0.887 M2050.066,2949.398
	l-0.893-11.263 M2050.066,2949.398l2.641,10.983 M2057.033,2970.816l-4.326-10.435 M2057.033,2970.816l5.902,9.63
	 M2062.936,2980.446l7.336,8.589 M2078.858,2996.373l-8.587-7.337 M2078.858,2996.373l9.629,5.905 M2098.922,3006.605l-10.435-4.328
	 M2098.922,3006.605l10.982,2.644 M2121.167,3010.144l-11.263-0.895 M1760.281,2926.688l0.885,11.264 M1760.281,2926.688
	l-2.635-10.987 M1757.646,2915.702l-4.322-10.439 M1753.324,2905.262l-5.902-9.634 M1740.085,2887.036l7.337,8.593
	 M1731.494,2879.697l8.591,7.338 M1721.861,2873.793l9.633,5.904 M1711.422,2869.469l10.438,4.325 M1700.436,2866.831l10.986,2.638
	 M1689.172,2865.944l11.264,0.886 M1905.154,2937.953l0.893-11.263 M1908.688,2915.707l-2.641,10.983 M1913.014,2905.271
	l-4.326,10.436 M1918.916,2895.641l-5.902,9.63 M1926.252,2887.052l-7.336,8.589 M1934.839,2879.715l-8.587,7.337 M1944.468,2873.81
	l-9.629,5.905 M1944.468,2873.81l10.435-4.327 M1965.885,2866.839l-10.982,2.644 M1977.147,2865.944l-11.263,0.895
	 M2048.304,2926.684l0.884,11.264 M2045.668,2915.697l2.636,10.987 M2041.346,2905.258l4.322,10.439 M2041.346,2905.258
	l-5.902-9.634 M2028.107,2887.031l7.336,8.593 M2019.516,2879.692l8.592,7.339 M2009.883,2873.789l9.633,5.904 M1999.445,2869.464
	l10.438,4.325 M1988.459,2866.826l10.986,2.638 M1977.194,2865.939l11.265,0.887 M464.231,2937.948l0.893-11.263 M465.124,2926.685
	l2.642-10.983 M472.09,2905.266l-4.325,10.436 M477.993,2895.636l-5.902,9.63 M485.329,2887.047l-7.336,8.589 M493.917,2879.71
	l-8.588,7.337 M503.545,2873.805l-9.629,5.905 M513.979,2869.478l-10.434,4.327 M524.961,2866.834l-10.982,2.644 M536.225,2865.939
	l-11.264,0.896"/>
<path fill="none" stroke="#FFFF00" stroke-linecap="round" stroke-linejoin="round" d="M1039.344,2949.601l71.955,11.383
	 M1036.708,2960.588l71.89,23.345 M1032.386,2971.027l71.517,36.427 M1026.483,2980.662l70.515,51.219 M1019.146,2989.254
	l68.358,68.344 M1074.83,3085.043l-64.274-88.451 M1058.143,3114.78l-57.22-112.283 M990.484,3006.821l45.731,140.726
	 M1007.19,3184.273l-27.692-174.814 M1039.344,2949.601l-71.109-11.249 M1036.708,2960.588l-68.474-22.237 M1032.386,2971.027
	l-64.151-32.676 M1026.483,2980.662l-58.249-42.31 M968.234,2938.352l50.912,50.902 M1010.556,2996.592l-42.321-58.24
	 M1000.923,3002.497l-32.688-64.145 M990.484,3006.821l-22.25-68.469 M979.498,3009.459l-11.264-71.107 M1184.216,2938.337
	l71.994,0.014 M1256.209,2938.352l-71.101,11.248 M1187.75,2960.583l68.46-22.231 M1192.075,2971.019l64.134-32.667
	 M1197.978,2980.649l58.231-42.297 M1205.313,2989.238l50.896-50.886 M1213.901,2996.575l42.309-58.223 M1223.53,3002.479
	l32.68-64.127 M1256.209,2938.352l-22.246,68.455 M1244.947,3009.451l11.263-71.099 M1256.209,3010.345v-71.993 M1111.298,2960.984
	h1.847 M1108.598,2983.934h7.248 M1103.903,3007.455h16.638 M1096.999,3031.881h30.446 M1087.505,3057.598h49.434 M1074.83,3085.043
	h74.783 M1058.143,3114.78h108.158 M1036.216,3147.547h152.012 M1007.19,3184.273h210.063 M1112.222,2938.323l71.994,0.015
	 M1113.146,2960.984l71.963-11.384 M1115.846,2983.934l71.904-23.35 M1120.541,3007.455l71.535-36.436 M1127.445,3031.881
	l70.533-51.232 M1136.939,3057.598l68.375-68.36 M1149.613,3085.043l64.288-88.469 M1223.53,3002.479l-57.229,112.3
	 M1188.228,3147.547l45.736-140.74 M1217.253,3184.273l27.693-174.823 M1256.209,3226.314v-215.969 M1328.25,2938.342l71.994-0.015
	 M1327.366,2949.606l71.955,11.383 M1324.73,2960.593l71.89,23.346 M1391.925,3007.459l-71.518-36.427 M1314.505,2980.667
	l70.516,51.219 M1307.169,2989.259l68.358,68.344 M1298.578,2996.598l64.274,88.451 M1288.945,3002.501l57.22,112.283
	 M1324.238,3147.552l-45.731-140.727 M1267.52,3009.464l27.692,174.814 M1328.25,2938.342l-71.994,0.015 M1327.366,2949.606
	l-71.109-11.249 M1256.256,2938.357l68.474,22.236 M1256.256,2938.357l64.151,32.675 M1314.505,2980.667l-58.249-42.31
	 M1307.169,2989.259l-50.913-50.902 M1298.578,2996.598l-42.322-58.241 M1288.945,3002.501l-32.688-64.145 M1278.506,3006.826
	l-22.25-68.469 M1267.52,3009.464l-11.264-71.107 M1544.231,2938.357l-71.994-0.015 M1473.13,2949.605l71.101-11.248
	 M1475.772,2960.588l68.459-22.231 M1480.097,2971.023l64.134-32.667 M1486,2980.653l58.231-42.296 M1493.335,2989.243
	l50.896-50.886 M1501.923,2996.58l42.309-58.223 M1511.552,3002.484l32.68-64.127 M1521.986,3006.812l22.246-68.455
	 M1532.969,3009.456l11.263-71.099 M1399.32,2960.989h1.847 M1396.62,2983.939h7.248 M1391.925,3007.459h16.638 M1385.021,3031.886
	h30.446 M1375.527,3057.603h49.434 M1362.853,3085.048h74.783 M1346.165,3114.785h108.158 M1324.238,3147.552h152.012
	 M1295.212,3184.278h210.063 M1400.244,2938.328l71.994,0.015 M1401.167,2960.989l71.963-11.384 M1403.868,2983.939l71.904-23.351
	 M1408.563,3007.459l71.534-36.436 M1415.467,3031.886l70.533-51.232 M1424.961,3057.603l68.375-68.36 M1437.635,3085.048
	l64.288-88.469 M1454.323,3114.785l57.229-112.3 M1476.25,3147.552l45.736-140.74 M1505.275,3184.278l27.693-174.823
	 M1183.346,2926.896l71.955-11.383 M1180.71,2915.909l71.89-23.346 M1176.388,2905.469l71.517-36.427 M1170.486,2895.835
	l70.515-51.22 M1163.149,2887.243l68.358-68.344 M1154.558,2879.904l64.275-88.451 M1144.925,2874l57.22-112.284 M1134.487,2869.676
	l45.731-140.726 M1123.5,2867.038l27.692-174.814 M1112.237,2938.145l71.109-11.25 M1180.71,2915.909l-68.474,22.236
	 M1176.388,2905.469l-64.151,32.676 M1170.486,2895.835l-58.249,42.31 M1163.149,2887.243l-50.913,50.902 M1154.558,2879.904
	l-42.321,58.241 M1144.925,2874l-32.688,64.145 M1134.487,2869.676l-22.25,68.469 M1112.237,2938.145l11.264-71.107
	 M1329.111,2926.897l71.101,11.248 M1400.212,2938.145l-68.459-22.231 M1400.212,2938.145l-64.134-32.667 M1400.212,2938.145
	l-58.231-42.297 M1349.316,2887.259l50.896,50.886 M1400.212,2938.145l-42.309-58.223 M1400.212,2938.145l-32.68-64.128
	 M1400.212,2938.145l-22.246-68.455 M1388.949,2867.046l11.263,71.099 M1400.212,2866.151v71.994 M1255.301,2915.512h1.847
	 M1252.601,2892.563h7.248 M1247.905,2869.042h16.638 M1241.001,2844.616h30.446 M1231.507,2818.899h49.434 M1218.833,2791.454
	h74.783 M1202.146,2761.717h108.158 M1180.218,2728.95h152.012 M1151.193,2692.223h210.063 M1257.148,2915.512l71.963,11.385
	 M1259.848,2892.563l71.904,23.351 M1264.543,2869.042l71.534,36.436 M1271.447,2844.616l70.533,51.232 M1280.941,2818.899
	l68.375,68.36 M1293.616,2791.454l64.288,88.469 M1310.303,2761.717l57.229,112.3 M1332.23,2728.95l45.736,140.74
	 M1388.949,2867.046l-27.693-174.823 M1400.212,2650.183v215.969 M1543.323,2915.507l-71.955,11.383 M1468.732,2915.904
	l71.89-23.346 M1535.927,2869.038l-71.517,36.427 M1458.508,2895.831l70.515-51.22 M1451.171,2887.238l68.358-68.344
	 M1442.581,2879.899l64.274-88.451 M1432.947,2873.996l57.22-112.284 M1422.509,2869.671l45.731-140.726 M1411.523,2867.033
	l27.692-174.814 M1400.259,2938.14l71.994,0.015 M1471.368,2926.891l-71.109,11.25 M1468.732,2915.904l-68.474,22.236
	 M1464.41,2905.465l-64.151,32.675 M1458.508,2895.831l-58.25,42.31 M1451.171,2887.238l-50.913,50.902 M1442.581,2879.899
	l-42.322,58.241 M1432.947,2873.996l-32.688,64.145 M1422.509,2869.671l-22.25,68.469 M1411.523,2867.033l-11.264,71.107
	 M1617.133,2926.892l71.101,11.248 M1619.774,2915.909l68.459,22.231 M1624.1,2905.473l64.134,32.667 M1630.002,2895.843
	l58.231,42.297 M1688.234,2938.14l-50.896-50.886 M1645.925,2879.917l42.309,58.223 M1655.555,2874.012l32.679,64.128
	 M1665.989,2869.685l22.245,68.455 M1688.234,2938.14l-11.263-71.099 M1543.323,2915.507h1.847 M1540.623,2892.558h7.248
	 M1535.927,2869.038h16.638 M1529.023,2844.611h30.446 M1519.529,2818.894h49.434 M1506.855,2791.449h74.783 M1490.167,2761.712
	h108.158 M1468.24,2728.945h152.012 M1439.215,2692.218h210.063 M1545.17,2915.507l71.963,11.385 M1547.87,2892.558l71.904,23.351
	 M1552.565,2869.038l71.535,36.436 M1559.469,2844.611l70.533,51.232 M1568.963,2818.894l68.375,68.36 M1581.638,2791.449
	l64.287,88.469 M1598.326,2761.712l57.229,112.3 M1665.989,2869.685l-45.736-140.74 M1649.278,2692.218l27.693,174.823
	 M1040.228,2938.337l71.994-0.015 M968.234,3010.345v215.969 M1040.228,2938.337l-71.994,0.014 M968.234,3010.345v-71.993
	 M1112.237,2866.151v-215.969 M1112.237,2866.151v71.994 M463.347,2949.498l71.955,11.383 M460.711,2960.485l71.89,23.345
	 M456.389,2970.924l71.517,36.427 M450.486,2980.558l70.515,51.219 M443.149,2989.15l68.358,68.344 M498.833,3084.94l-64.274-88.451
	 M482.146,3114.676l-57.22-112.283 M414.487,3006.717l45.731,140.726 M431.193,3184.17l-27.692-174.814 M463.347,2949.498
	l-71.109-11.249 M460.711,2960.485l-68.474-22.237 M456.389,2970.924l-64.151-32.676 M450.486,2980.558l-58.249-42.31
	 M392.237,2938.249l50.912,50.902 M434.559,2996.489l-42.321-58.24 M424.926,3002.393l-32.688-64.145 M414.487,3006.717
	l-22.25-68.469 M403.501,3009.355l-11.264-71.107 M608.219,2938.234l71.994,0.014 M680.212,2938.249l-71.101,11.248
	 M611.752,2960.48l68.46-22.231 M616.078,2970.915l64.134-32.667 M621.981,2980.545l58.231-42.297 M629.316,2989.134l50.896-50.886
	 M637.904,2996.471l42.309-58.223 M647.533,3002.376l32.68-64.127 M680.212,2938.249l-22.246,68.455 M668.95,3009.347l11.263-71.099
	 M680.212,3010.242v-71.993 M535.301,2960.881h1.847 M532.601,2983.83h7.248 M527.906,3007.351h16.638 M521.001,3031.777h30.446
	 M511.508,3057.495h49.434 M498.833,3084.94h74.783 M482.146,3114.676h108.158 M460.219,3147.443h152.012 M431.193,3184.17h210.063
	 M536.225,2938.219l71.994,0.015 M537.148,2960.881l71.963-11.384 M539.849,2983.83l71.904-23.35 M544.543,3007.351l71.535-36.436
	 M551.448,3031.777l70.533-51.232 M560.942,3057.495l68.375-68.36 M573.616,3084.94l64.288-88.469 M647.533,3002.376l-57.229,112.3
	 M612.231,3147.443l45.736-140.74 M641.256,3184.17l27.693-174.823 M680.212,3226.21v-215.969 M752.253,2938.239l71.994-0.015
	 M751.369,2949.502l71.955,11.383 M748.733,2960.49l71.89,23.346 M815.928,3007.356l-71.518-36.427 M738.508,2980.563l70.516,51.219
	 M731.172,2989.155l68.358,68.344 M722.581,2996.494l64.274,88.451 M712.948,3002.398l57.22,112.283 M748.241,3147.449
	l-45.731-140.727 M691.523,3009.36l27.692,174.814 M752.253,2938.239l-71.994,0.015 M751.369,2949.502l-71.109-11.249
	 M680.259,2938.253l68.474,22.236 M680.259,2938.253l64.151,32.675 M738.508,2980.563l-58.249-42.31 M731.172,2989.155
	l-50.913-50.902 M722.581,2996.494l-42.322-58.241 M712.948,3002.398l-32.688-64.145 M702.509,3006.722l-22.25-68.469
	 M691.523,3009.36l-11.264-71.107 M968.234,2938.253l-71.994-0.015 M897.133,2949.501l71.101-11.248 M899.775,2960.485
	l68.459-22.231 M904.1,2970.92l64.134-32.667 M910.003,2980.55l58.231-42.296 M917.338,2989.139l50.896-50.886 M925.926,2996.476
	l42.309-58.223 M935.555,3002.381l32.68-64.127 M945.989,3006.708l22.246-68.455 M956.972,3009.352l11.263-71.099 M823.323,2960.886
	h1.847 M820.623,2983.835h7.248 M815.928,3007.356h16.638 M809.024,3031.782h30.446 M799.53,3057.5h49.434 M786.855,3084.945h74.783
	 M770.167,3114.681h108.158 M748.241,3147.449h152.012 M719.215,3184.175h210.063 M824.247,2938.224l71.994,0.015 M825.17,2960.886
	l71.963-11.384 M827.871,2983.835l71.904-23.351 M832.566,3007.356l71.534-36.436 M839.47,3031.782l70.533-51.232 M848.964,3057.5
	l68.375-68.36 M861.638,3084.945l64.288-88.469 M878.326,3114.681l57.229-112.3 M900.253,3147.449l45.736-140.74 M929.278,3184.175
	l27.693-174.823 M607.349,2926.792l71.955-11.383 M604.713,2915.805l71.89-23.346 M600.391,2905.366l71.517-36.427
	 M594.489,2895.732l70.515-51.22 M587.152,2887.139l68.358-68.344 M578.561,2879.801l64.275-88.451 M568.928,2873.897l57.22-112.284
	 M558.49,2869.572l45.731-140.726 M547.503,2866.934l27.692-174.814 M536.24,2938.042l71.109-11.25 M604.713,2915.805
	l-68.474,22.236 M600.391,2905.366l-64.151,32.676 M594.489,2895.732l-58.249,42.31 M587.152,2887.139l-50.913,50.902
	 M578.561,2879.801l-42.321,58.241 M568.928,2873.897l-32.688,64.145 M558.49,2869.572l-22.25,68.469 M536.24,2938.042
	l11.264-71.107 M753.114,2926.793l71.101,11.248 M824.215,2938.042l-68.459-22.231 M824.215,2938.042l-64.134-32.667
	 M824.215,2938.042l-58.231-42.297 M773.319,2887.156l50.896,50.886 M824.215,2938.042l-42.309-58.223 M824.215,2938.042
	l-32.68-64.128 M824.215,2938.042l-22.246-68.455 M812.952,2866.943l11.263,71.099 M824.215,2866.048v71.994 M679.304,2915.409
	h1.847 M676.604,2892.459h7.248 M671.908,2868.939h16.638 M665.004,2844.512h30.446 M655.51,2818.795h49.434 M642.836,2791.35
	h74.783 M626.148,2761.613h108.158 M604.221,2728.846h152.012 M575.196,2692.12h210.063 M681.151,2915.409l71.963,11.385
	 M683.851,2892.459l71.904,23.351 M688.546,2868.939l71.534,36.436 M695.45,2844.512l70.533,51.232 M704.944,2818.795l68.375,68.36
	 M717.619,2791.35l64.288,88.469 M734.306,2761.613l57.229,112.3 M756.233,2728.846l45.736,140.74 M812.952,2866.943
	l-27.693-174.823 M824.215,2650.079v215.969 M967.326,2915.404l-71.955,11.383 M892.735,2915.8l71.89-23.346 M959.93,2868.934
	l-71.517,36.427 M882.511,2895.727l70.515-51.22 M875.174,2887.134l68.358-68.344 M866.583,2879.796l64.274-88.451 M856.95,2873.892
	l57.22-112.284 M846.512,2869.567l45.731-140.726 M835.526,2866.929l27.692-174.814 M824.262,2938.037l71.994,0.015
	 M895.371,2926.787l-71.109,11.25 M892.735,2915.8l-68.474,22.236 M888.413,2905.361l-64.151,32.675 M882.511,2895.727l-58.25,42.31
	 M875.174,2887.134l-50.913,50.902 M866.583,2879.796l-42.322,58.241 M856.95,2873.892l-32.688,64.145 M846.512,2869.567
	l-22.25,68.469 M835.526,2866.929l-11.264,71.107 M1041.136,2926.789l71.101,11.248 M1043.777,2915.805l68.459,22.231
	 M1048.103,2905.37l64.134,32.667 M1054.005,2895.74l58.231,42.297 M1112.237,2938.037l-50.896-50.886 M1069.928,2879.814
	l42.309,58.223 M1079.558,2873.909l32.679,64.128 M1089.992,2869.582l22.245,68.455 M1112.237,2938.037l-11.263-71.099
	 M967.326,2915.404h1.847 M964.625,2892.455h7.248 M959.93,2868.934h16.638 M953.026,2844.507h30.446 M943.532,2818.791h49.434
	 M930.858,2791.345h74.783 M914.17,2761.608h108.158 M892.243,2728.841h152.012 M863.218,2692.115h210.063 M969.173,2915.404
	l71.963,11.385 M971.873,2892.455l71.904,23.351 M976.568,2868.934l71.535,36.436 M983.472,2844.507l70.533,51.232
	 M992.966,2818.791l68.375,68.36 M1005.641,2791.345l64.287,88.469 M1022.329,2761.608l57.229,112.3 M1089.992,2869.582
	l-45.736-140.74 M1073.281,2692.115l27.693,174.823 M1616.279,2949.394l71.955,11.383 M1613.644,2960.381l71.89,23.345
	 M1609.321,2970.82l71.517,36.427 M1603.419,2980.455l70.515,51.219 M1596.082,2989.047l68.358,68.344 M1651.766,3084.836
	l-64.274-88.451 M1635.078,3114.573l-57.22-112.283 M1567.42,3006.614l45.731,140.726 M1584.125,3184.066l-27.692-174.814
	 M1616.279,2949.394l-71.109-11.249 M1613.644,2960.381l-68.474-22.237 M1609.321,2970.82l-64.151-32.676 M1603.419,2980.455
	l-58.249-42.31 M1545.17,2938.145l50.912,50.902 M1587.491,2996.385l-42.321-58.24 M1577.858,3002.29l-32.688-64.145
	 M1567.42,3006.614l-22.25-68.469 M1556.434,3009.252l-11.264-71.107 M1761.151,2938.13l71.993,0.014 M1833.145,2938.145
	l-71.101,11.248 M1764.686,2960.376l68.459-22.231 M1769.011,2970.812l64.134-32.667 M1774.914,2980.442l58.23-42.297
	 M1782.249,2989.031l50.896-50.886 M1790.836,2996.368l42.309-58.223 M1800.465,3002.272l32.68-64.127 M1833.145,2938.145
	l-22.245,68.455 M1821.883,3009.244l11.262-71.099 M1833.145,3010.138v-71.993 M1688.234,2960.777h1.847 M1685.534,2983.727h7.248
	 M1680.838,3007.248h16.638 M1673.934,3031.674h30.446 M1664.44,3057.391h49.434 M1651.766,3084.836h74.783 M1635.078,3114.573
	h108.158 M1613.151,3147.34h152.013 M1584.125,3184.066h210.064 M1689.157,2938.116l71.994,0.015 M1690.081,2960.777l71.963-11.384
	 M1692.781,2983.727l71.904-23.35 M1697.476,3007.248l71.535-36.436 M1704.38,3031.674l70.534-51.232 M1713.875,3057.391
	l68.375-68.36 M1726.549,3084.836l64.287-88.469 M1800.465,3002.272l-57.229,112.3 M1765.164,3147.34l45.735-140.74
	 M1794.189,3184.066l27.693-174.823 M1833.145,3226.107v-215.969 M1905.186,2938.135l71.994-0.015 M1904.301,2949.399l71.955,11.383
	 M1901.666,2960.386l71.89,23.346 M1968.861,3007.252l-71.518-36.427 M1891.441,2980.459l70.516,51.219 M1884.104,2989.052
	l68.358,68.344 M1875.514,2996.391l64.274,88.451 M1865.881,3002.294l57.219,112.283 M1901.174,3147.345l-45.732-140.727
	 M1844.455,3009.257l27.693,174.814 M1905.186,2938.135l-71.994,0.015 M1904.301,2949.399l-71.109-11.249 M1833.191,2938.15
	l68.475,22.236 M1833.191,2938.15l64.152,32.675 M1891.441,2980.459l-58.25-42.31 M1884.104,2989.052l-50.913-50.902
	 M1875.514,2996.391l-42.322-58.241 M1865.881,3002.294l-32.689-64.145 M1855.441,3006.619l-22.25-68.469 M1844.455,3009.257
	l-11.264-71.107 M2121.167,2938.15l-71.993-0.015 M2050.066,2949.398l71.101-11.248 M2052.707,2960.381l68.46-22.231
	 M2057.033,2970.816l64.134-32.667 M2062.936,2980.446l58.231-42.296 M2070.271,2989.036l50.896-50.886 M2078.858,2996.373
	l42.309-58.223 M2088.487,3002.277l32.68-64.127 M2098.922,3006.605l22.245-68.455 M2109.904,3009.249l11.263-71.099
	 M1976.256,2960.782h1.848 M1973.556,2983.732h7.247 M1968.861,3007.252h16.637 M1961.957,3031.679h30.445 M1952.463,3057.396
	h49.434 M1939.788,3084.841h74.782 M1923.1,3114.578h108.158 M1901.174,3147.345h152.012 M1872.148,3184.071h210.062
	 M1977.18,2938.121l71.994,0.015 M1978.104,2960.782l71.963-11.384 M1980.803,2983.732l71.904-23.351 M1985.498,3007.252
	l71.535-36.436 M1992.402,3031.679l70.533-51.232 M2001.896,3057.396l68.375-68.36 M2014.57,3084.841l64.288-88.469
	 M2031.258,3114.578l57.229-112.3 M2053.186,3147.345l45.736-140.74 M2082.211,3184.071l27.693-174.823 M1760.281,2926.688
	l71.955-11.383 M1757.646,2915.702l71.89-23.346 M1753.324,2905.262l71.517-36.427 M1747.422,2895.628l70.515-51.22
	 M1740.085,2887.036l68.358-68.344 M1731.494,2879.697l64.274-88.451 M1721.861,2873.793l57.22-112.284 M1711.422,2869.469
	l45.732-140.726 M1700.436,2866.831l27.692-174.814 M1689.172,2937.938l71.109-11.25 M1757.646,2915.702l-68.474,22.236
	 M1753.324,2905.262l-64.152,32.676 M1747.422,2895.628l-58.25,42.31 M1740.085,2887.036l-50.913,50.902 M1731.494,2879.697
	l-42.322,58.241 M1721.861,2873.793l-32.688,64.145 M1711.422,2869.469l-22.25,68.469 M1689.172,2937.938l11.264-71.107
	 M1906.047,2926.69l71.101,11.248 M1977.147,2937.938l-68.46-22.231 M1977.147,2937.938l-64.134-32.667 M1977.147,2937.938
	l-58.231-42.297 M1926.252,2887.052l50.896,50.886 M1977.147,2937.938l-42.309-58.223 M1977.147,2937.938l-32.68-64.128
	 M1977.147,2937.938l-22.245-68.455 M1965.885,2866.839l11.263,71.099 M1977.147,2865.944v71.994 M1832.236,2915.305h1.848
	 M1829.536,2892.356h7.247 M1824.841,2868.835h16.638 M1817.937,2844.409h30.446 M1808.443,2818.692h49.434 M1795.769,2791.247
	h74.782 M1779.081,2761.51h108.157 M1757.154,2728.743h152.012 M1728.128,2692.016h210.063 M1834.084,2915.305l71.963,11.385
	 M1836.783,2892.356l71.904,23.351 M1841.479,2868.835l71.535,36.436 M1848.383,2844.409l70.533,51.232 M1857.877,2818.692
	l68.375,68.36 M1870.551,2791.247l64.288,88.469 M1887.238,2761.51l57.229,112.3 M1909.166,2728.743l45.736,140.74
	 M1965.885,2866.839l-27.693-174.823 M1977.147,2649.976v215.969 M2120.258,2915.3l-71.954,11.383 M2045.668,2915.697l71.891-23.346
	 M2112.863,2868.831l-71.518,36.427 M2035.443,2895.624l70.516-51.22 M2028.107,2887.031l68.357-68.344 M2019.516,2879.692
	l64.275-88.451 M2009.883,2873.789l57.221-112.284 M1999.445,2869.464l45.73-140.726 M1988.459,2866.826l27.691-174.814
	 M1977.194,2937.933l71.993,0.015 M2048.304,2926.684l-71.109,11.25 M2045.668,2915.697l-68.474,22.236 M2041.346,2905.258
	l-64.151,32.675 M2035.443,2895.624l-58.249,42.31 M2028.107,2887.031l-50.913,50.902 M2019.516,2879.692l-42.321,58.241
	 M2009.883,2873.789l-32.688,64.145 M1999.445,2869.464l-22.251,68.469 M1988.459,2866.826l-11.265,71.107 M2120.113,2915.3h1.197
	 M2117.388,2892.351h3.95 M2112.863,2868.831h7.856 M2105.959,2844.404h15.223 M2096.465,2818.687h24.255 M2083.791,2791.242h37.376
	 M2067.104,2761.505h54.063 M2045.176,2728.738h75.544 M2016.15,2692.011h105.017 M1617.164,2938.13l71.994-0.015 M1545.17,3010.138
	v215.969 M1617.164,2938.13l-71.994,0.014 M1545.17,3010.138v-71.993 M1689.172,2865.944v-215.969 M1689.172,2865.944v71.994
	 M465.124,2926.685l71.102,11.248 M467.765,2915.702l68.46,22.231 M472.09,2905.266l64.135,32.667 M477.993,2895.636l58.232,42.297
	 M536.225,2937.933l-50.896-50.886 M493.917,2879.71l42.309,58.223 M536.225,2937.933l-32.68-64.128 M536.225,2937.933
	l-22.246-68.455 M536.225,2937.933l-11.264-71.099 M392.238,2892.351h3.623 M392.237,2868.831h8.319 M392.237,2844.404h15.223
	 M392.237,2818.687h24.717 M392.237,2791.242h37.393 M392.237,2761.505h54.08 M392.237,2728.738h76.006 M392.237,2692.011h105.032
	 M393.161,2915.3l71.963,11.385 M395.861,2892.351l71.904,23.351 M472.09,2905.266l-71.534-36.436 M407.459,2844.404l70.533,51.232
	 M416.954,2818.687l68.375,68.36 M429.629,2791.242l64.287,88.469 M446.317,2761.505l57.229,112.3 M513.979,2869.478l-45.736-140.74
	 M497.269,2692.011l27.692,174.823 M392.237,2937.962l71.994-0.015 M464.231,2937.948l71.994-0.015 M536.225,2937.933v-71.994
	 M536.225,2865.939v-215.968"/>
<path opacity="0.3" fill="none" stroke="#0000FF" stroke-linecap="round" stroke-linejoin="round" d="M1108.598,2983.934l2.7-22.949
	 M1103.903,3007.455l4.695-23.521 M1096.999,3031.881l6.904-24.426 M1087.505,3057.598l9.494-25.717 M1074.83,3085.043
	l12.675-27.445 M1058.143,3114.78l16.688-29.736 M1036.216,3147.547l21.927-32.767 M1036.216,3147.547l-29.026,36.727
	 M968.234,3226.314l38.956-42.041 M1113.146,2960.984l2.7,22.949 M1120.541,3007.455l-4.695-23.521 M1120.541,3007.455l6.904,24.426
	 M1136.939,3057.598l-9.494-25.717 M1149.613,3085.043l-12.674-27.445 M1166.301,3114.78l-16.688-29.736 M1188.228,3147.547
	l-21.927-32.767 M1217.253,3184.273l-29.025-36.727 M1256.209,3226.314l-38.956-42.041 M1112.222,2938.323l-0.923,22.662
	 M1112.222,2938.323l0.924,22.662 M1396.62,2983.939l2.7-22.95 M1391.925,3007.459l4.695-23.521 M1385.021,3031.886l6.904-24.426
	 M1375.527,3057.603l9.494-25.717 M1362.853,3085.048l12.674-27.445 M1346.165,3114.785l16.688-29.736 M1324.238,3147.552
	l21.927-32.767 M1324.238,3147.552l-29.025,36.726 M1256.256,3226.319l38.956-42.041 M1401.167,2960.989l2.7,22.95
	 M1403.868,2983.939l4.695,23.521 M1415.467,3031.886l-6.904-24.426 M1424.961,3057.603l-9.494-25.717 M1437.635,3085.048
	l-12.674-27.445 M1437.635,3085.048l16.688,29.737 M1476.25,3147.552l-21.927-32.767 M1505.275,3184.278l-29.025-36.726
	 M1544.231,3226.319l-38.956-42.041 M1400.244,2938.328l-0.924,22.662 M1401.167,2960.989l-0.923-22.662 M1252.601,2892.563
	l2.7,22.949 M1247.905,2869.042l4.695,23.521 M1241.001,2844.616l6.904,24.427 M1231.507,2818.899l9.494,25.717 M1218.833,2791.454
	l12.674,27.445 M1202.146,2761.717l16.688,29.737 M1202.146,2761.717l-21.927-32.767 M1151.193,2692.223l29.025,36.727
	 M1151.193,2692.223l-38.956-42.041 M1259.848,2892.563l-2.7,22.949 M1259.848,2892.563l4.695-23.521 M1271.447,2844.616
	l-6.904,24.427 M1280.941,2818.899l-9.494,25.717 M1293.616,2791.454l-12.674,27.445 M1310.303,2761.717l-16.688,29.737
	 M1332.23,2728.95l-21.927,32.767 M1361.256,2692.223l-29.025,36.727 M1400.212,2650.183l-38.956,42.041 M1256.224,2938.174
	l-0.923-22.662 M1257.148,2915.512l-0.924,22.662 M1540.623,2892.558l2.7,22.949 M1535.927,2869.038l4.695,23.521
	 M1529.023,2844.611l6.904,24.427 M1519.529,2818.894l9.494,25.717 M1506.855,2791.449l12.674,27.445 M1506.855,2791.449
	l-16.688-29.737 M1468.24,2728.945l21.927,32.767 M1468.24,2728.945l-29.025-36.727 M1400.259,2650.178l38.956,42.041
	 M1547.87,2892.558l-2.7,22.949 M1547.87,2892.558l4.695-23.521 M1559.469,2844.611l-6.904,24.427 M1568.963,2818.894l-9.494,25.717
	 M1581.638,2791.449l-12.675,27.445 M1598.326,2761.712l-16.688,29.737 M1598.326,2761.712l21.927-32.767 M1620.252,2728.945
	l29.026-36.727 M1688.234,2650.178l-38.956,42.041 M1543.323,2915.507l0.924,22.662 M1545.17,2915.507l-0.923,22.662
	 M532.601,2983.83l2.7-22.949 M527.906,3007.351l4.695-23.521 M521.001,3031.777l6.904-24.426 M511.508,3057.495l9.494-25.717
	 M498.833,3084.94l12.675-27.445 M482.146,3114.676l16.688-29.736 M460.219,3147.443l21.927-32.767 M460.219,3147.443
	l-29.026,36.727 M392.237,3226.21l38.956-42.041 M537.148,2960.881l2.7,22.949 M544.543,3007.351l-4.695-23.521 M544.543,3007.351
	l6.904,24.426 M560.942,3057.495l-9.494-25.717 M573.616,3084.94l-12.674-27.445 M590.304,3114.676l-16.688-29.736
	 M612.231,3147.443l-21.927-32.767 M641.256,3184.17l-29.025-36.727 M680.212,3226.21l-38.956-42.041 M536.225,2938.219
	l-0.923,22.662 M536.225,2938.219l0.924,22.662 M820.623,2983.835l2.7-22.95 M815.928,3007.356l4.695-23.521 M809.024,3031.782
	l6.904-24.426 M799.53,3057.5l9.494-25.717 M786.855,3084.945l12.674-27.445 M770.167,3114.681l16.688-29.736 M748.241,3147.449
	l21.927-32.767 M748.241,3147.449l-29.025,36.726 M680.259,3226.216l38.956-42.041 M825.17,2960.886l2.7,22.95 M827.871,2983.835
	l4.695,23.521 M839.47,3031.782l-6.904-24.426 M848.964,3057.5l-9.494-25.717 M861.638,3084.945l-12.674-27.445 M861.638,3084.945
	l16.688,29.737 M900.253,3147.449l-21.927-32.767 M929.278,3184.175l-29.025-36.726 M968.234,3226.216l-38.956-42.041
	 M824.247,2938.224l-0.924,22.662 M825.17,2960.886l-0.923-22.662 M676.604,2892.459l2.7,22.949 M671.908,2868.939l4.695,23.521
	 M665.004,2844.512l6.904,24.427 M655.51,2818.795l9.494,25.717 M642.836,2791.35l12.674,27.445 M626.148,2761.613l16.688,29.737
	 M626.148,2761.613l-21.927-32.767 M575.196,2692.12l29.025,36.727 M575.196,2692.12l-38.956-42.041 M683.851,2892.459l-2.7,22.949
	 M683.851,2892.459l4.695-23.521 M695.45,2844.512l-6.904,24.427 M704.944,2818.795l-9.494,25.717 M717.619,2791.35l-12.674,27.445
	 M734.306,2761.613l-16.688,29.737 M756.233,2728.846l-21.927,32.767 M785.259,2692.12l-29.025,36.727 M824.215,2650.079
	l-38.956,42.041 M680.227,2938.071l-0.923-22.662 M681.151,2915.409l-0.924,22.662 M964.625,2892.455l2.7,22.949 M959.93,2868.934
	l4.695,23.521 M953.026,2844.507l6.904,24.427 M943.532,2818.791l9.494,25.717 M930.858,2791.345l12.674,27.445 M930.858,2791.345
	l-16.688-29.737 M892.243,2728.841l21.927,32.767 M892.243,2728.841l-29.025-36.727 M824.262,2650.074l38.956,42.041
	 M971.873,2892.455l-2.7,22.949 M971.873,2892.455l4.695-23.521 M983.472,2844.507l-6.904,24.427 M992.966,2818.791l-9.494,25.717
	 M1005.641,2791.345l-12.675,27.445 M1022.329,2761.608l-16.688,29.737 M1022.329,2761.608l21.927-32.767 M1044.255,2728.841
	l29.026-36.727 M1112.237,2650.074l-38.956,42.041 M967.326,2915.404l0.924,22.662 M969.173,2915.404l-0.923,22.662
	 M1685.534,2983.727l2.7-22.949 M1680.838,3007.248l4.695-23.521 M1673.934,3031.674l6.904-24.426 M1664.44,3057.391l9.494-25.717
	 M1651.766,3084.836l12.675-27.445 M1635.078,3114.573l16.688-29.736 M1613.151,3147.34l21.927-32.767 M1613.151,3147.34
	l-29.026,36.727 M1545.17,3226.107l38.956-42.041 M1690.081,2960.777l2.7,22.949 M1697.476,3007.248l-4.695-23.521
	 M1697.476,3007.248l6.904,24.426 M1713.875,3057.391l-9.494-25.717 M1726.549,3084.836l-12.674-27.445 M1743.236,3114.573
	l-16.688-29.736 M1765.164,3147.34l-21.928-32.767 M1794.189,3184.066l-29.025-36.727 M1833.145,3226.107l-38.955-42.041
	 M1689.157,2938.116l-0.923,22.662 M1689.157,2938.116l0.924,22.662 M1973.556,2983.732l2.7-22.95 M1968.861,3007.252l4.694-23.521
	 M1961.957,3031.679l6.904-24.426 M1952.463,3057.396l9.494-25.717 M1939.788,3084.841l12.675-27.445 M1923.1,3114.578
	l16.688-29.736 M1901.174,3147.345l21.926-32.767 M1901.174,3147.345l-29.025,36.726 M1833.191,3226.112l38.957-42.041
	 M1978.104,2960.782l2.699,22.95 M1980.803,2983.732l4.695,23.521 M1992.402,3031.679l-6.904-24.426 M2001.896,3057.396
	l-9.494-25.717 M2014.57,3084.841l-12.674-27.445 M2014.57,3084.841l16.688,29.737 M2053.186,3147.345l-21.928-32.767
	 M2082.211,3184.071l-29.025-36.726 M2121.167,3226.112l-38.956-42.041 M1977.18,2938.121l-0.924,22.662 M1978.104,2960.782
	l-0.924-22.662 M1829.536,2892.356l2.7,22.949 M1824.841,2868.835l4.695,23.521 M1817.937,2844.409l6.904,24.427 M1808.443,2818.692
	l9.493,25.717 M1795.769,2791.247l12.675,27.445 M1779.081,2761.51l16.688,29.737 M1779.081,2761.51l-21.927-32.767
	 M1728.128,2692.016l29.026,36.727 M1728.128,2692.016l-38.956-42.041 M1836.783,2892.356l-2.699,22.949 M1836.783,2892.356
	l4.695-23.521 M1848.383,2844.409l-6.904,24.427 M1857.877,2818.692l-9.494,25.717 M1870.551,2791.247l-12.674,27.445
	 M1887.238,2761.51l-16.688,29.737 M1909.166,2728.743l-21.928,32.767 M1938.191,2692.016l-29.025,36.727 M1977.147,2649.976
	l-38.956,42.041 M1833.16,2937.967l-0.924-22.662 M1834.084,2915.305l-0.924,22.662 M2117.559,2892.351l2.699,22.949
	 M2112.863,2868.831l4.695,23.521 M2105.959,2844.404l6.904,24.427 M2096.465,2818.687l9.494,25.717 M2083.791,2791.242
	l12.674,27.445 M2083.791,2791.242l-16.688-29.737 M2045.176,2728.738l21.928,32.767 M2045.176,2728.738l-29.025-36.727
	 M1977.194,2649.971l38.956,42.041 M2120.258,2915.3l0.924,22.662 M395.861,2892.351l-2.7,22.949 M395.861,2892.351l4.695-23.521
	 M407.459,2844.404l-6.903,24.427 M416.954,2818.687l-9.494,25.717 M429.629,2791.242l-12.676,27.445 M446.317,2761.505
	l-16.688,29.737 M446.317,2761.505l21.926-32.767 M468.243,2728.738l29.026-36.727 M536.225,2649.971l-38.956,42.041
	 M393.161,2915.3l-0.923,22.948"/>
<path opacity="0.3333" fill="none" stroke="#0000FF" stroke-linecap="round" stroke-linejoin="round" d="M536.225,2649.971V2534.5
	 M824.262,2650.074V2534.5 M1112.237,2650.074V2534.5 M1400.259,2650.178V2534.5 M1689.172,2649.976V2534.5 M1977.194,2649.971
	V2534.5 M1833.623,3226.526v115.471 M1545.586,3226.422v115.574 M1257.611,3226.422v115.574 M969.589,3226.319v115.678
	 M680.676,3226.521v115.476"/>
<path fill="none" stroke="#000000" stroke-linecap="round" stroke-linejoin="round" d="M968.234,3226.314h287.975
	 M1256.256,3226.319h287.975 M1112.237,2650.183h287.975 M1400.259,2650.178h287.975 M392.237,3010.242v215.969 M392.237,3010.242
	v-71.993 M392.237,3226.21h287.975 M680.259,3226.216h287.975 M536.24,2650.079h287.975 M824.262,2650.074h287.975
	 M1545.17,3226.107h287.975 M1833.191,3226.112h287.976 M1689.172,2649.976h287.975 M1977.194,2649.971h143.973 M2121.167,3226.112
	v-215.969 M2121.167,3010.144l0.015-72.181 M392.237,2649.971h143.988 M392.237,2938.249v-288.066 M2121.167,2938.15v-288.179
	 M392.237,2650.183V2534.5 M392.237,2534.5h1728.93 M2121.167,2649.971V2534.5 M2121.338,3226.314v115.683 M2121.338,3341.997
	H392.654 M392.654,3226.526v115.471"/>
</svg>
