<?xml version="1.0" encoding="utf-8"?>
<!-- Generator: Adobe Illustrator 16.0.3, SVG Export Plug-In . SVG Version: 6.00 Build 0)  -->
<!DOCTYPE svg PUBLIC "-//W3C//DTD SVG 1.1//EN" "http://www.w3.org/Graphics/SVG/1.1/DTD/svg11.dtd">
<svg version="1.1"
	 id="svg2" xmlns:svg="http://www.w3.org/2000/svg" xmlns:cc="http://creativecommons.org/ns#" xmlns:dc="http://purl.org/dc/elements/1.1/" xmlns:rdf="http://www.w3.org/1999/02/22-rdf-syntax-ns#"
	 xmlns="http://www.w3.org/2000/svg" xmlns:xlink="http://www.w3.org/1999/xlink" x="0px" y="0px" width="3456px" height="6912px"
	 viewBox="0 0 3456 6912" enable-background="new 0 0 3456 6912" xml:space="preserve">
<path fill="none" stroke="#FF0000" stroke-linecap="round" stroke-linejoin="round" d="M-3497.599,3084.092l12.233-155.819
	 M-3534.06,3236.076l36.461-151.984 M-3593.85,3380.482l59.79-144.406 M-3675.496,3513.758l81.646-133.275 M-3776.988,3632.617
	l101.492-118.859 M-3895.827,3734.133l118.839-101.516 M-4029.085,3815.809l133.258-81.676 M-4173.48,3875.627l144.396-59.818
	 M-4325.456,3912.119l151.976-36.492 M-4481.273,3924.383l155.817-12.264 M-1493.549,2928.272l12.35,155.802 M-1481.199,3084.074
	l36.539,151.938 M-1444.66,3236.012l59.836,144.35 M-1384.824,3380.361l81.654,133.217 M-1201.699,3632.391l-101.471-118.812
	 M-1082.906,3733.887l-118.793-101.496 M-949.707,3815.568l-133.199-81.682 M-949.707,3815.568l144.336,59.865 M-653.439,3912.004
	l-151.932-36.57 M-497.641,3924.383l-155.799-12.379 M486.684,3084.16l12.234-155.82 M486.684,3084.16l-36.461,151.984
	 M450.223,3236.145l-59.789,144.406 M308.785,3513.826l81.648-133.275 M207.293,3632.684l101.492-118.857 M88.455,3734.203
	l118.838-101.52 M-44.803,3815.875l133.258-81.672 M-189.199,3875.695l144.396-59.82 M-341.176,3912.188l151.977-36.492
	 M-496.992,3924.451l155.816-12.264 M2503.082,3084.143l-12.35-155.803 M2503.082,3084.143l36.539,151.938 M2599.457,3380.43
	l-59.836-144.35 M2599.457,3380.43l81.656,133.215 M2681.113,3513.645l101.469,118.814 M2901.375,3733.953l-118.793-101.494
	 M2901.375,3733.953l133.201,81.684 M3178.912,3875.5l-144.336-59.863 M3178.912,3875.5l151.932,36.574 M3486.641,3924.451
	l-155.797-12.377 M-1505.576,2769.998l12.232,155.82 M-1505.576,2769.998l-36.459-151.983 M-1542.035,2618.015l-59.793-144.408
	 M-1601.828,2473.606l-81.645-133.274 M-1784.965,2221.474l101.492,118.858 M-1903.805,2119.956l118.84,101.518 M-2037.062,2038.283
	l133.258,81.673 M-2181.459,1978.463l144.396,59.82 M-2333.434,1941.971l151.975,36.492 M-2489.252,1929.707l155.818,12.264
	 M498.473,2925.818l12.348-155.802 M547.361,2618.078l-36.541,151.938 M607.195,2473.729l-59.834,144.35 M688.852,2340.513
	l-81.656,133.216 M790.322,2221.698l-101.471,118.814 M909.117,2120.205l-118.795,101.493 M1042.316,2038.521l-133.199,81.685
	 M1042.316,2038.521l144.336-59.863 M1338.582,1942.085l-151.93,36.572 M1494.383,1929.707l-155.801,12.378 M2478.705,2769.93
	l12.234,155.82 M2442.246,2617.947l36.459,151.982 M2382.455,2473.54l59.791,144.407 M2382.455,2473.54l-81.646-133.275
	 M2199.316,2221.406l101.492,118.858 M2080.477,2119.889l118.84,101.518 M1947.219,2038.215l133.258,81.674 M1802.824,1978.395
	l144.395,59.82 M1650.848,1941.902l151.977,36.492 M1495.031,1929.639l155.816,12.264 M4482.756,2925.75l12.346-155.801
	 M4531.645,2618.01l-36.543,151.939 M4591.48,2473.661l-59.836,144.349 M4673.133,2340.445l-81.652,133.216 M4774.604,2221.631
	l-101.471,118.814 M4893.396,2120.137l-118.793,101.494 M5026.6,2038.453l-133.203,81.684 M5170.936,1978.59l-144.336,59.863
	 M5322.863,1942.018l-151.928,36.572 M5478.664,1929.639l-155.801,12.379"/>
<path fill="none" stroke="#000000" stroke-linecap="round" stroke-linejoin="round" d="M-3485.365,2928.272l995.908-0.203
	 M-3497.599,3084.092l995.366,157.467 M-3534.06,3236.076l994.474,322.945 M-3593.85,3380.482l989.314,503.904 M-3675.496,3513.758
	l975.453,708.527 M-3776.988,3632.617l945.615,945.422 M-3006.703,4957.699l-889.124-1223.566 M-3237.546,5369.051
	l-791.539-1553.242 M-4173.48,3875.627l632.611,1946.697 M-3942.387,6330.371l-383.069-2418.252 M-4481.273,3924.383v2987.549
	 M-3485.365,2928.272l-995.908,0.202 M-3497.599,3084.092l-983.675-155.617 M-3534.06,3236.076l-947.214-307.602 M-3593.85,3380.482
	l-887.424-452.008 M-3675.496,3513.758l-805.777-585.283 M-4481.273,2928.475l704.285,704.143 M-3895.827,3734.133l-585.446-805.658
	 M-4029.085,3815.809l-452.188-887.334 M-4173.48,3875.627l-307.793-947.152 M-4325.456,3912.119l-155.817-983.645
	 M-4481.273,3924.383v-995.908 M-1493.549,2928.272l995.908,0.202 M-497.641,2928.475l-983.559,155.6 M-1444.66,3236.012
	l947.02-307.537 M-1384.824,3380.361l887.184-451.887 M-1303.17,3513.578l805.529-585.104 M-1201.699,3632.391l704.059-703.916
	 M-1082.906,3733.887l585.266-805.412 M-949.707,3815.568l452.066-887.094 M-497.641,2928.475l-307.73,946.959 M-653.439,3912.004
	l155.799-983.529 M-497.641,3924.383v-995.908 M-2502.232,3241.559h25.551 M-2539.586,3559.021h100.258 M-2604.535,3884.387h230.156
	 M-2700.043,4222.285h421.172 M-2831.373,4578.039h683.834 M-3006.703,4957.699h1034.492 M-3237.546,5369.051h1496.179
	 M-3540.869,5822.324h2102.824 M-3942.387,6330.371h2905.859 M-4481.273,6911.932h3983.633 M-2489.457,2928.069l995.908,0.203
	 M-2476.682,3241.559l995.482-157.484 M-2439.328,3559.021l994.668-323.01 M-2374.379,3884.387l989.555-504.025 M-2278.871,4222.285
	l975.701-708.707 M-2147.539,4578.039l945.84-945.648 M-1972.211,4957.699l889.305-1223.812 M-949.707,3815.568l-791.66,1553.482
	 M-1438.045,5822.324l632.674-1946.891 M-1036.527,6330.371l383.088-2418.367 M-497.641,6911.932V3924.383 M498.918,2928.34
	l995.908-0.203 M486.684,3084.16l995.365,157.465 M450.223,3236.145l994.473,322.945 M1379.748,3884.455l-989.314-503.904
	 M308.785,3513.826l975.455,708.527 M207.293,3632.684l945.617,945.424 M88.455,3734.203l889.123,1223.562 M-44.803,3815.875
	l791.537,1553.244 M443.414,5822.393l-632.613-1946.697 M-341.176,3912.188l383.07,2418.25 M498.918,2928.34l-995.91,0.203
	 M486.684,3084.16l-983.676-155.617 M-496.992,2928.543l947.215,307.602 M-496.992,2928.543l887.426,452.008 M308.785,3513.826
	l-805.777-585.283 M207.293,3632.684l-704.285-704.141 M88.455,3734.203l-585.447-805.66 M-44.803,3815.875l-452.189-887.332
	 M-189.199,3875.695l-307.793-947.152 M-341.176,3912.188l-155.816-983.645 M3486.641,2928.543l-995.908-0.203 M2503.082,3084.143
	l983.559-155.6 M2539.621,3236.08l947.02-307.537 M2599.457,3380.43l887.184-451.887 M2681.113,3513.645l805.527-585.102
	 M2782.582,3632.459l704.059-703.916 M2901.375,3733.953l585.266-805.41 M3034.576,3815.637l452.064-887.094 M3178.912,3875.5
	l307.729-946.957 M3330.844,3912.074l155.797-983.531 M3486.641,3924.451v-995.908 M1482.049,3241.625h25.553 M1444.695,3559.09
	h100.26 M1379.748,3884.455h230.154 M1284.24,4222.354h421.17 M1152.91,4578.107h683.832 M977.578,4957.766H2012.07
	 M746.734,5369.119h1496.18 M443.414,5822.393h2102.822 M41.895,6330.438h2905.859 M-496.992,6912h3983.633 M1494.826,2928.137
	l995.906,0.203 M1507.602,3241.625l995.48-157.482 M1544.955,3559.09l994.666-323.01 M1609.902,3884.455l989.555-504.025
	 M1705.41,4222.354l975.703-708.709 M1836.742,4578.107l945.84-945.648 M2012.07,4957.766l889.305-1223.812 M2242.914,5369.119
	l791.662-1553.482 M2546.236,5822.393L3178.912,3875.5 M2947.754,6330.438l383.09-2418.363 M3486.641,6912V3924.451
	 M-1505.576,2769.998l995.365-157.466 M-1542.035,2618.015l994.471-322.946 M-1601.828,2473.606l989.316-503.904
	 M-1683.473,2340.332l975.453-708.527 M-1784.965,2221.474l945.613-945.423 M-1903.805,2119.956l889.125-1223.564
	 M-2037.062,2038.283l791.539-1553.244 M-2181.459,1978.463l632.611-1946.697 M-2333.434,1941.971l383.07-2418.25
	 M-2489.252,1929.707v-2987.548 M-2489.252,2925.615l983.676-155.617 M-1542.035,2618.015l-947.217,307.601 M-1601.828,2473.606
	l-887.424,452.009 M-1683.473,2340.332l-805.779,585.283 M-1784.965,2221.474l-704.287,704.142 M-1903.805,2119.956
	l-585.447,805.659 M-2037.062,2038.283l-452.189,887.332 M-2181.459,1978.463l-307.793,947.152 M-2489.252,2925.615l155.818-983.645
	 M-2489.252,1929.707v995.908 M510.82,2770.017l983.562,155.599 M1494.383,2925.615l-947.021-307.537 M1494.383,2925.615
	l-887.188-451.887 M1494.383,2925.615l-805.531-585.103 M790.322,2221.698l704.061,703.917 M1494.383,2925.615l-585.266-805.41
	 M1494.383,2925.615l-452.066-887.095 M1494.383,2925.615l-307.73-946.958 M1338.582,1942.085l155.801,983.53 M1494.383,1929.707
	v995.908 M-510.211,2612.532h25.553 M-547.564,2295.068h100.26 M-612.512,1969.702h230.156 M-708.02,1631.805h421.17
	 M-839.352,1276.051h683.832 M-1014.68,896.392H19.809 M-1245.523,485.039H250.654 M-1548.848,31.766H553.977 M-1950.363-476.279
	H955.496 M-2489.252-1057.841h3983.635 M-484.658,2612.532l995.479,157.484 M-447.305,2295.068l994.666,323.01 M-382.355,1969.702
	l989.551,504.026 M-286.85,1631.805l975.701,708.708 M-155.52,1276.051l945.842,945.647 M19.809,896.392l889.309,1223.813
	 M250.654,485.039l791.662,1553.481 M553.977,31.766l632.676,1946.892 M1338.582,1942.085L955.496-476.279 M1494.383-1057.841
	v2987.548 M3474.07,2612.465l-995.365,157.465 M2442.246,2617.947L3436.715,2295 M3371.77,1969.635l-989.314,503.905
	 M2300.809,2340.265l975.453-708.528 M2199.316,2221.406l945.613-945.424 M2080.477,2119.889L2969.6,896.324 M1947.219,2038.215
	l791.539-1553.244 M1802.824,1978.395L2435.436,31.698 M1650.848,1941.902l383.07-2418.25 M1495.031,2925.547l995.908,0.203
	 M2478.705,2769.93l-983.674,155.617 M2442.246,2617.947l-947.215,307.6 M2382.455,2473.54l-887.424,452.007 M2300.809,2340.265
	l-805.777,585.282 M2199.316,2221.406l-704.285,704.141 M2080.477,2119.889l-585.445,805.658 M1947.219,2038.215l-452.188,887.332
	 M1802.824,1978.395l-307.793,947.152 M1650.848,1941.902l-155.816,983.645 M4482.756,2925.75l995.908-0.203 M4495.102,2769.949
	l983.562,155.598 M4531.645,2618.01l947.02,307.537 M4591.48,2473.661l887.184,451.886 M4673.133,2340.445l805.531,585.102
	 M5478.664,2925.547l-704.061-703.916 M4893.396,2120.137l585.268,805.41 M5026.6,2038.453l452.064,887.094 M5170.936,1978.59
	l307.729,946.957 M5478.664,2925.547l-155.801-983.529 M5478.664,1929.639v995.908 M3474.07,2612.465h25.553 M3436.715,2295h100.262
	 M3371.77,1969.635h230.156 M3276.262,1631.736h421.17 M3144.93,1275.982h683.834 M2969.6,896.324h1034.494 M2738.758,484.971
	h1496.178 M2435.436,31.698h2102.822 M2033.918-476.348h2905.859 M1495.031-1057.908h3983.633 M3486.848,2925.953l995.908-0.203
	 M3499.623,2612.465l995.479,157.484 M3536.977,2295l994.668,323.01 M3601.926,1969.635l989.555,504.026 M3697.432,1631.736
	l975.701,708.709 M3828.764,1275.982l945.84,945.648 M4004.094,896.324l889.303,1223.812 M4234.936,484.971L5026.6,2038.453
	 M5170.936,1978.59L4538.258,31.698 M4939.777-476.348l383.086,2418.365 M5478.664-1057.908v2987.547"/>
<path fill="none" stroke="#0000FF" stroke-linecap="round" stroke-linejoin="round" d="M-2539.586,3559.021l37.354-317.463
	 M-2604.535,3884.387l64.949-325.365 M-2700.043,4222.285l95.508-337.898 M-2831.373,4578.039l131.33-355.754 M-3006.703,4957.699
	l175.33-379.66 M-3237.546,5369.051l230.843-411.352 M-3540.869,5822.324l303.323-453.273 M-3540.869,5822.324l-401.518,508.047
	 M-4481.273,6911.932l538.887-581.561 M-2476.682,3241.559l37.354,317.463 M-2374.379,3884.387l-64.949-325.365 M-2374.379,3884.387
	l95.508,337.898 M-2147.539,4578.039l-131.332-355.754 M-1972.211,4957.699l-175.328-379.66 M-1741.367,5369.051l-230.844-411.352
	 M-1438.045,5822.324l-303.322-453.273 M-1036.527,6330.371l-401.518-508.047 M-497.641,6911.932l-538.887-581.561
	 M-2489.457,2928.069l-12.775,313.489 M-2489.457,2928.069l12.775,313.489 M1444.695,3559.09l37.354-317.465 M1379.748,3884.455
	l64.947-325.365 M1284.24,4222.354l95.508-337.898 M1152.91,4578.107l131.33-355.754 M977.578,4957.766l175.332-379.658
	 M746.734,5369.119l230.844-411.354 M443.414,5822.393l303.32-453.273 M443.414,5822.393l-401.52,508.045 M-496.992,6912
	l538.887-581.562 M1507.602,3241.625l37.354,317.465 M1544.955,3559.09l64.947,325.365 M1705.41,4222.354l-95.508-337.898
	 M1836.742,4578.107l-131.332-355.754 M2012.07,4957.766l-175.328-379.658 M2012.07,4957.766l230.844,411.354 M2546.236,5822.393
	l-303.322-453.273 M2947.754,6330.438l-401.518-508.045 M3486.641,6912l-538.887-581.562 M1494.826,2928.137l-12.777,313.488
	 M1507.602,3241.625l-12.775-313.488 M-547.564,2295.068l37.354,317.464 M-612.512,1969.702l64.947,325.366 M-708.02,1631.805
	l95.508,337.897 M-839.352,1276.051l131.332,355.754 M-1014.68,896.392l175.328,379.659 M-1245.523,485.039l230.844,411.353
	 M-1245.523,485.039l-303.324-453.273 M-1950.363-476.279l401.516,508.045 M-1950.363-476.279l-538.889-581.562 M-447.305,2295.068
	l-37.354,317.464 M-447.305,2295.068l64.949-325.366 M-286.85,1631.805l-95.506,337.897 M-155.52,1276.051l-131.33,355.754
	 M19.809,896.392l-175.328,379.659 M250.654,485.039L19.809,896.392 M553.977,31.766L250.654,485.039 M955.496-476.279
	L553.977,31.766 M1494.383-1057.841L955.496-476.279 M-497.436,2926.021l-12.775-313.488 M-484.658,2612.532l-12.777,313.488
	 M3436.715,2295l37.355,317.465 M3371.77,1969.635L3436.715,2295 M3276.262,1631.736l95.508,337.898 M3144.93,1275.982
	l131.332,355.754 M2969.6,896.324l175.33,379.658 M2969.6,896.324l-230.842-411.354 M2435.436,31.698l303.322,453.272
	 M2435.436,31.698l-401.518-508.046 M1495.031-1057.908l538.887,581.561 M3536.977,2295l-37.354,317.465 M3536.977,2295
	l64.949-325.365 M3697.432,1631.736l-95.506,337.898 M3828.764,1275.982l-131.332,355.754 M4004.094,896.324l-175.33,379.658
	 M4234.936,484.971l-230.842,411.354 M4234.936,484.971l303.322-453.272 M4538.258,31.698l401.52-508.046 M5478.664-1057.908
	l-538.887,581.561 M3474.07,2612.465l12.777,313.488 M3499.623,2612.465l-12.775,313.488"/>
</svg>
