<?xml version="1.0" encoding="utf-8"?>
<!-- Generator: Adobe Illustrator 24.3.0, SVG Export Plug-In . SVG Version: 6.00 Build 0)  -->
<svg version="1.1" id="Layer_1" xmlns="http://www.w3.org/2000/svg" xmlns:xlink="http://www.w3.org/1999/xlink" x="0px" y="0px"
	 viewBox="0 0 612 792" style="enable-background:new 0 0 612 792;" xml:space="preserve">
<style type="text/css">
	.st0{fill:none;stroke:#231F20;stroke-miterlimit:10;}
	.st1{fill:none;stroke:#231F20;stroke-width:0.25;stroke-miterlimit:10;}
	.st2{fill:none;stroke:#0000FF;stroke-width:0.25;stroke-miterlimit:10;}
	.st3{fill:none;stroke:#FF0000;stroke-width:0.25;stroke-miterlimit:10;}
	.st4{fill:none;stroke:#000000;stroke-width:0.25;stroke-miterlimit:10;}
</style>
<path class="st2" d="M312,512.8c-43.6-16.3-43.7-16.4-60.1-60.1"/>
<path class="st2" d="M251.9,452.7c43.6,16.3,43.7,16.4,60.1,60.1"/>
<path class="st2" d="M372,452.7c-43.6,16.3-43.7,16.4-60.1,60.1"/>
<path class="st2" d="M312,512.8c43.6-16.3,43.7-16.4,60.1-60.1"/>
<path class="st2" d="M432.1,392.6C388.5,409,388.4,409,372,452.7"/>
<path class="st2" d="M372,452.7c43.6-16.3,43.7-16.4,60.1-60.1"/>
<path class="st3" d="M312,452.7c-43.6-16.3-43.7-16.4-60.1-60.1"/>
<path class="st3" d="M251.9,392.6c43.6,16.3,43.7,16.4,60.1,60.1"/>
<path class="st3" d="M251.9,512.8c-43.6-16.3-43.7-16.4-60.1-60.1"/>
<path class="st3" d="M191.9,452.7c43.6,16.3,43.7,16.4,60.1,60.1"/>
<path class="st3" d="M372,392.6C328.4,409,328.3,409,312,452.7"/>
<path class="st3" d="M312,452.7c43.6-16.3,43.7-16.4,60.1-60.1"/>
<path class="st3" d="M432.1,452.7c-43.6,16.3-43.7,16.4-60.1,60.1"/>
<path class="st3" d="M372,512.8c43.6-16.3,43.7-16.4,60.1-60.1"/>
<path class="st3" d="M432.1,332.6c-43.6,16.3-43.7,16.4-60.1,60.1"/>
<path class="st3" d="M372,392.6c43.6-16.3,43.7-16.4,60.1-60.1"/>
<path class="st2" d="M312,392.6c-43.6-16.3-43.7-16.4-60.1-60.1"/>
<path class="st2" d="M251.9,332.6c43.6,16.3,43.7,16.4,60.1,60.1"/>
<path class="st2" d="M251.9,452.7c-43.6-16.3-43.7-16.4-60.1-60.1"/>
<path class="st2" d="M191.9,392.6c43.6,16.3,43.7,16.4,60.1,60.1"/>
<path class="st3" d="M251.9,392.6c-43.6-16.3-43.7-16.4-60.1-60.1"/>
<path class="st3" d="M191.9,332.6c43.6,16.3,43.7,16.4,60.1,60.1"/>
<path class="st2" d="M251.9,332.6c-43.6-16.3-43.7-16.4-60.1-60.1"/>
<path class="st2" d="M191.9,272.5c43.6,16.3,43.7,16.4,60.1,60.1"/>
<path class="st2" d="M372,332.6c-43.6,16.3-43.7,16.4-60.1,60.1"/>
<path class="st2" d="M312,392.6c43.6-16.3,43.7-16.4,60.1-60.1"/>
<path class="st2" d="M432.1,272.5c-43.6,16.3-43.7,16.4-60.1,60.1"/>
<path class="st2" d="M372,332.6c43.6-16.3,43.7-16.4,60.1-60.1"/>
<path class="st3" d="M312,332.6c-43.6-16.3-43.7-16.4-60.1-60.1"/>
<path class="st3" d="M251.9,272.5c43.6,16.3,43.7,16.4,60.1,60.1"/>
<path class="st3" d="M492.2,512.8c-43.6-16.3-43.7-16.4-60.1-60.1"/>
<path class="st3" d="M432.1,452.7c43.6,16.3,43.7,16.4,60.1,60.1"/>
<path class="st2" d="M492.2,452.7c-43.6-16.3-43.7-16.4-60.1-60.1"/>
<path class="st2" d="M432.1,392.6c43.6,16.3,43.7,16.4,60.1,60.1"/>
<path class="st3" d="M492.2,392.6c-43.6-16.3-43.7-16.4-60.1-60.1"/>
<path class="st3" d="M432.1,332.6c43.6,16.3,43.7,16.4,60.1,60.1"/>
<path class="st2" d="M492.2,332.6c-43.6-16.3-43.7-16.4-60.1-60.1"/>
<path class="st2" d="M432.1,272.5c43.6,16.3,43.7,16.4,60.1,60.1"/>
<path class="st3" d="M492.2,512.8c43.6-16.3,43.7-16.4,60.1-60.1"/>
<path class="st3" d="M552.2,452.7c-43.6,16.3-43.7,16.4-60.1,60.1"/>
<path class="st2" d="M492.2,452.7c43.6-16.3,43.7-16.4,60.1-60.1"/>
<path class="st2" d="M552.2,392.6c-43.6,16.3-43.7,16.4-60.1,60.1"/>
<path class="st3" d="M492.2,392.6c43.6-16.3,43.7-16.4,60.1-60.1"/>
<path class="st3" d="M552.2,332.6c-43.6,16.3-43.7,16.4-60.1,60.1"/>
<path class="st2" d="M492.2,332.6c43.6-16.3,43.7-16.4,60.1-60.1"/>
<path class="st2" d="M552.2,272.5c-43.6,16.3-43.7,16.4-60.1,60.1"/>
<path class="st3" d="M372,272.5c-43.6,16.3-43.7,16.4-60.1,60.1"/>
<path class="st3" d="M312,332.6c43.6-16.3,43.7-16.4,60.1-60.1"/>
<line class="st2" x1="312" y1="452.7" x2="312" y2="392.6"/>
<line class="st2" x1="312" y1="332.6" x2="312" y2="272.5"/>
<line class="st3" x1="312" y1="392.6" x2="312" y2="332.6"/>
<line class="st3" x1="312" y1="512.8" x2="312" y2="452.7"/>
<line class="st2" x1="432.1" y1="392.6" x2="432.1" y2="332.6"/>
<line class="st2" x1="432.1" y1="512.8" x2="432.1" y2="452.7"/>
<line class="st3" x1="432.1" y1="452.7" x2="432.1" y2="392.6"/>
<line class="st3" x1="432.1" y1="332.6" x2="432.1" y2="272.5"/>
<line class="st2" x1="492.2" y1="392.6" x2="492.2" y2="332.6"/>
<line class="st2" x1="492.2" y1="512.8" x2="492.2" y2="452.7"/>
<line class="st3" x1="492.2" y1="452.7" x2="492.2" y2="392.6"/>
<line class="st3" x1="492.2" y1="332.6" x2="492.2" y2="272.5"/>
<path class="st3" d="M131.8,512.8c-43.6-16.3-43.7-16.4-60.1-60.1"/>
<path class="st3" d="M71.7,452.7c43.6,16.3,43.7,16.4,60.1,60.1"/>
<path class="st2" d="M131.8,452.7c-43.6-16.3-43.7-16.4-60.1-60.1"/>
<path class="st2" d="M71.7,392.6c43.6,16.3,43.7,16.4,60.1,60.1"/>
<path class="st3" d="M131.8,392.6c-43.6-16.3-43.7-16.4-60.1-60.1"/>
<path class="st3" d="M71.7,332.6c43.6,16.3,43.7,16.4,60.1,60.1"/>
<path class="st2" d="M131.8,332.6c-43.6-16.3-43.7-16.4-60.1-60.1"/>
<path class="st2" d="M71.7,272.5c43.6,16.3,43.7,16.4,60.1,60.1"/>
<path class="st3" d="M131.8,512.8c43.6-16.3,43.7-16.4,60.1-60.1"/>
<path class="st3" d="M191.9,452.7c-43.6,16.3-43.7,16.4-60.1,60.1"/>
<path class="st2" d="M131.8,452.7c43.6-16.3,43.7-16.4,60.1-60.1"/>
<path class="st2" d="M191.9,392.6c-43.6,16.3-43.7,16.4-60.1,60.1"/>
<path class="st3" d="M131.8,392.6c43.6-16.3,43.7-16.4,60.1-60.1"/>
<path class="st3" d="M191.9,332.6c-43.6,16.3-43.7,16.4-60.1,60.1"/>
<path class="st2" d="M131.8,332.6c43.6-16.3,43.7-16.4,60.1-60.1"/>
<path class="st2" d="M191.9,272.5c-43.6,16.3-43.7,16.4-60.1,60.1"/>
<line class="st2" x1="131.8" y1="392.6" x2="131.8" y2="332.6"/>
<line class="st2" x1="131.8" y1="512.8" x2="131.8" y2="452.7"/>
<line class="st3" x1="131.8" y1="452.7" x2="131.8" y2="392.6"/>
<line class="st3" x1="131.8" y1="332.6" x2="131.8" y2="272.5"/>
<line class="st2" x1="191.9" y1="392.6" x2="191.9" y2="332.6"/>
<line class="st2" x1="191.9" y1="512.8" x2="191.9" y2="452.7"/>
<line class="st3" x1="191.9" y1="452.7" x2="191.9" y2="392.6"/>
<line class="st3" x1="191.9" y1="332.6" x2="191.9" y2="272.5"/>
<path class="st3" d="M432.1,572.8c-43.6,16.3-43.7,16.4-60.1,60.1"/>
<path class="st3" d="M372,632.9c43.6-16.3,43.7-16.4,60.1-60.1"/>
<path class="st2" d="M312,632.9c-43.6-16.3-43.7-16.4-60.1-60.1"/>
<path class="st2" d="M251.9,572.8c43.6,16.3,43.7,16.4,60.1,60.1"/>
<path class="st3" d="M251.9,632.9c-43.6-16.3-43.7-16.4-60.1-60.1"/>
<path class="st3" d="M191.9,572.8c43.6,16.3,43.7,16.4,60.1,60.1"/>
<path class="st2" d="M251.9,572.8c-43.6-16.3-43.7-16.4-60.1-60.1"/>
<path class="st2" d="M191.9,512.8c43.6,16.3,43.7,16.4,60.1,60.1"/>
<path class="st2" d="M372,572.8c-43.6,16.3-43.7,16.4-60.1,60.1"/>
<path class="st2" d="M312,632.9c43.6-16.3,43.7-16.4,60.1-60.1"/>
<path class="st2" d="M432.1,512.8c-43.6,16.3-43.7,16.4-60.1,60.1"/>
<path class="st2" d="M372,572.8c43.6-16.3,43.7-16.4,60.1-60.1"/>
<path class="st3" d="M312,572.8c-43.6-16.3-43.7-16.4-60.1-60.1"/>
<path class="st3" d="M251.9,512.8c43.6,16.3,43.7,16.4,60.1,60.1"/>
<path class="st3" d="M492.2,632.9c-43.6-16.3-43.7-16.4-60.1-60.1"/>
<path class="st3" d="M432.1,572.8c43.6,16.3,43.7,16.4,60.1,60.1"/>
<path class="st2" d="M492.2,572.8c-43.6-16.3-43.7-16.4-60.1-60.1"/>
<path class="st2" d="M432.1,512.8c43.6,16.3,43.7,16.4,60.1,60.1"/>
<path class="st3" d="M492.2,632.9c43.6-16.3,43.7-16.4,60.1-60.1"/>
<path class="st3" d="M552.2,572.8c-43.6,16.3-43.7,16.4-60.1,60.1"/>
<path class="st2" d="M492.2,572.8c43.6-16.3,43.7-16.4,60.1-60.1"/>
<path class="st2" d="M552.2,512.8c-43.6,16.3-43.7,16.4-60.1,60.1"/>
<path class="st3" d="M372,512.8c-43.6,16.3-43.7,16.4-60.1,60.1"/>
<path class="st3" d="M312,572.8c43.6-16.3,43.7-16.4,60.1-60.1"/>
<line class="st2" x1="312" y1="572.8" x2="312" y2="512.8"/>
<line class="st3" x1="312" y1="632.9" x2="312" y2="572.8"/>
<line class="st2" x1="432.1" y1="632.9" x2="432.1" y2="572.8"/>
<line class="st3" x1="432.1" y1="572.8" x2="432.1" y2="512.8"/>
<line class="st2" x1="492.2" y1="632.9" x2="492.2" y2="572.8"/>
<line class="st3" x1="492.2" y1="572.8" x2="492.2" y2="512.8"/>
<path class="st3" d="M131.8,632.9c-43.6-16.3-43.7-16.4-60.1-60.1"/>
<path class="st3" d="M71.7,572.8c43.6,16.3,43.7,16.4,60.1,60.1"/>
<path class="st2" d="M131.8,572.8c-43.6-16.3-43.7-16.4-60.1-60.1"/>
<path class="st2" d="M71.7,512.8c43.6,16.3,43.7,16.4,60.1,60.1"/>
<path class="st3" d="M131.8,632.9c43.6-16.3,43.7-16.4,60.1-60.1"/>
<path class="st3" d="M191.9,572.8c-43.6,16.3-43.7,16.4-60.1,60.1"/>
<path class="st2" d="M131.8,572.8c43.6-16.3,43.7-16.4,60.1-60.1"/>
<path class="st2" d="M191.9,512.8c-43.6,16.3-43.7,16.4-60.1,60.1"/>
<line class="st2" x1="131.8" y1="632.9" x2="131.8" y2="572.8"/>
<line class="st3" x1="131.8" y1="572.8" x2="131.8" y2="512.8"/>
<line class="st2" x1="191.9" y1="632.9" x2="191.9" y2="572.8"/>
<line class="st3" x1="191.9" y1="572.8" x2="191.9" y2="512.8"/>
<rect x="71.7" y="272.5" class="st4" width="480.5" height="360.4"/>
</svg>
