<?xml version="1.0" encoding="utf-8"?>
<!-- Generator: Adobe Illustrator 23.0.3, SVG Export Plug-In . SVG Version: 6.00 Build 0)  -->
<svg version="1.1" xmlns="http://www.w3.org/2000/svg" xmlns:xlink="http://www.w3.org/1999/xlink" x="0px" y="0px"
	 width="595.28px" height="841.89px" viewBox="0 0 595.28 841.89" enable-background="new 0 0 595.28 841.89" xml:space="preserve">
<g id="CutLine">
	<polygon fill="none" stroke="#000000" stroke-width="2" stroke-miterlimit="10" points="543.484,552.257 451.418,659.334 
		318.148,706.035 179.382,679.843 72.304,587.777 25.605,454.507 51.796,315.74 143.862,208.662 277.132,161.962 415.898,188.155 
		522.977,280.221 569.676,413.492 	"/>
</g>
<g id="ValleyLine">
	<path fill="none" stroke="#0000FF" stroke-miterlimit="10" d="M215.917,432.115c-47.961,51.293-54.203,93.963-44.743,144.27"/>
	<path fill="none" stroke="#0000FF" stroke-miterlimit="10" d="M255.147,503.831c-35.269,17.221-61.529,42.835-83.973,72.554"/>
	<path fill="none" stroke="#0000FF" stroke-miterlimit="10" d="M258.411,362.283c-68.401-15.888-108.475,0.041-147.313,33.387"/>
	<path fill="none" stroke="#0000FF" stroke-miterlimit="10" d="M215.917,432.115c-32.548-21.934-67.861-31.869-104.82-36.446"/>
	<path fill="none" stroke="#0000FF" stroke-miterlimit="10" d="M340.133,364.167c-20.439-67.182-54.272-93.923-102.569-110.884"/>
	<path fill="none" stroke="#0000FF" stroke-miterlimit="10" d="M258.411,362.282c2.721-39.154-6.332-74.703-20.847-108.999"/>
	<path fill="none" stroke="#0000FF" stroke-miterlimit="10" d="M379.363,435.883c47.961-51.293,54.203-93.963,44.742-144.271"/>
	<path fill="none" stroke="#0000FF" stroke-miterlimit="10" d="M340.133,364.167c35.27-17.221,61.529-42.836,83.973-72.555"/>
	<path fill="none" stroke="#0000FF" stroke-miterlimit="10" d="M336.871,505.715c68.4,15.889,108.475-0.04,147.313-33.386"/>
	<path fill="none" stroke="#0000FF" stroke-miterlimit="10" d="M379.363,435.884c32.549,21.933,67.861,31.867,104.82,36.445"/>
	<path fill="none" stroke="#0000FF" stroke-miterlimit="10" d="M255.147,503.831c20.441,67.182,54.273,93.922,102.572,110.884"/>
	<path fill="none" stroke="#0000FF" stroke-miterlimit="10" d="M336.871,505.715c-2.721,39.153,6.332,74.704,20.848,109"/>
	<path fill="none" stroke="#0000FF" stroke-miterlimit="10" d="M143.862,208.662c39.04,10.461,69.933,25.882,93.708,44.623"/>
	<path fill="none" stroke="#0000FF" stroke-miterlimit="10" d="M25.603,454.506c28.578-28.578,57.381-47.623,85.498-58.841"/>
	<path fill="none" stroke="#0000FF" stroke-miterlimit="10" d="M179.38,679.844c-10.461-39.039-12.552-73.504-8.209-103.465"/>
	<path fill="none" stroke="#0000FF" stroke-miterlimit="10" d="M451.418,659.338c-39.039-10.461-69.932-25.883-93.707-44.623"/>
	<path fill="none" stroke="#0000FF" stroke-miterlimit="10" d="M569.678,413.493c-28.578,28.579-57.381,47.622-85.498,58.841"/>
	<path fill="none" stroke="#0000FF" stroke-miterlimit="10" d="M415.9,188.154c10.461,39.039,12.551,73.504,8.209,103.465"/>
	<path fill="none" stroke="#0000FF" stroke-miterlimit="10" d="M340.146,364.17c-8.721,26.002-23.602,49.657-42.506,69.829"/>
	<path fill="none" stroke="#0000FF" stroke-miterlimit="10" d="M258.417,362.273c18.16,20.552,31.205,45.268,39.223,71.726"/>
	<path fill="none" stroke="#0000FF" stroke-miterlimit="10" d="M215.912,432.103c26.879-5.451,54.807-4.391,81.729,1.896"/>
	<path fill="none" stroke="#0000FF" stroke-miterlimit="10" d="M255.134,503.83c8.719-26.004,23.601-49.658,42.506-69.831"/>
	<path fill="none" stroke="#0000FF" stroke-miterlimit="10" d="M336.863,505.727c-18.162-20.553-31.207-45.27-39.223-71.728"/>
	<path fill="none" stroke="#0000FF" stroke-miterlimit="10" d="M379.369,435.895c-26.881,5.451-54.807,4.391-81.729-1.896"/>
</g>
<g id="MountainLine">
	<path fill="none" stroke="#FF0000" stroke-miterlimit="10" d="M237.57,253.285c60.574,47.75,74.936,117.044,60.07,180.714"/>
	<path fill="none" stroke="#FF0000" stroke-miterlimit="10" d="M277.132,161.962c70.606,70.605,83.012,142.578,63.014,202.208"/>
	<path fill="none" stroke="#FF0000" stroke-miterlimit="10" d="M111.101,395.665c71.639-28.585,138.832-6.375,186.539,38.334"/>
	<path fill="none" stroke="#FF0000" stroke-miterlimit="10" d="M51.794,315.741c96.449-25.844,164.982-0.601,206.623,46.533"/>
	<path fill="none" stroke="#FF0000" stroke-miterlimit="10" d="M171.171,576.379c11.064-76.333,63.894-123.42,126.469-142.38"/>
	<path fill="none" stroke="#FF0000" stroke-miterlimit="10" d="M72.301,587.779c25.844-96.449,81.971-143.18,143.61-155.676"/>
	<path fill="none" stroke="#FF0000" stroke-miterlimit="10" d="M357.711,614.715c-60.575-47.75-74.938-117.045-60.071-180.716"/>
	<path fill="none" stroke="#FF0000" stroke-miterlimit="10" d="M318.148,706.039c-70.607-70.608-83.012-142.579-63.014-202.209"/>
	<path fill="none" stroke="#FF0000" stroke-miterlimit="10" d="M484.18,472.334c-71.641,28.584-138.832,6.377-186.54-38.335"/>
	<path fill="none" stroke="#FF0000" stroke-miterlimit="10" d="M543.486,552.26c-96.449,25.842-164.982,0.6-206.623-46.533"/>
	<path fill="none" stroke="#FF0000" stroke-miterlimit="10" d="M424.109,291.619c-11.066,76.333-63.895,123.42-126.469,142.38"/>
	<path fill="none" stroke="#FF0000" stroke-miterlimit="10" d="M522.979,280.219c-25.844,96.45-81.971,143.18-143.609,155.676"/>
</g>
</svg>
