<?xml version="1.0" encoding="utf-8"?>
<!-- Generator: Adobe Illustrator 23.0.3, SVG Export Plug-In . SVG Version: 6.00 Build 0)  -->
<svg version="1.1" xmlns="http://www.w3.org/2000/svg" xmlns:xlink="http://www.w3.org/1999/xlink" x="0px" y="0px"
	 width="841.89px" height="1190.55px" viewBox="0 0 841.89 1190.55" enable-background="new 0 0 841.89 1190.55"
	 xml:space="preserve">
<g id="Cut">
	<rect x="-432" y="258" fill="none" stroke="#000000" stroke-width="2" stroke-miterlimit="10" width="1152" height="924.003"/>
</g>
<g id="Valley">
	<path fill="none" stroke="#0000FF" stroke-miterlimit="10" d="M360,360C308.608,432,308.608,432,360,504"/>
	<path fill="none" stroke="#0000FF" stroke-miterlimit="10" d="M216,359.999C164.608,432,164.608,432,216,504"/>
	<path fill="none" stroke="#0000FF" stroke-miterlimit="10" d="M648,359.999c-51.393,72.001-51.393,72.001,0,144"/>
	<path fill="none" stroke="#0000FF" stroke-miterlimit="10" d="M504,359.998c-51.393,72.001-51.393,72.001,0,144.001"/>
	<path fill="none" stroke="#0000FF" stroke-miterlimit="10" d="M216,504c51.393,72,51.393,72,0,144"/>
	<path fill="none" stroke="#0000FF" stroke-miterlimit="10" d="M360,504c51.393,72,51.393,72,0,144"/>
	<path fill="none" stroke="#0000FF" stroke-miterlimit="10" d="M504,504.001c51.393,72.001,51.393,72.001,0,144.001"/>
	<path fill="none" stroke="#0000FF" stroke-miterlimit="10" d="M648,504.002c51.393,72,51.393,72,0,144"/>
	<line fill="none" stroke="#0000FF" stroke-miterlimit="10" x1="288" y1="360" x2="288" y2="504"/>
	<line fill="none" stroke="#0000FF" stroke-miterlimit="10" x1="432" y1="360" x2="432" y2="504"/>
	<line fill="none" stroke="#0000FF" stroke-miterlimit="10" x1="576" y1="359.999" x2="576" y2="504"/>
	<path fill="none" stroke="#0000FF" stroke-miterlimit="10" d="M360,647.998c-51.392,72.002-51.392,72.002,0,144"/>
	<path fill="none" stroke="#0000FF" stroke-miterlimit="10" d="M216,647.998c-51.392,72.001-51.392,72.001,0,144"/>
	<path fill="none" stroke="#0000FF" stroke-miterlimit="10" d="M648,647.998c-51.393,72-51.393,72,0,144"/>
	<path fill="none" stroke="#0000FF" stroke-miterlimit="10" d="M504,647.997c-51.393,72.001-51.393,72.001,0,144.001"/>
	<line fill="none" stroke="#0000FF" stroke-miterlimit="10" x1="288" y1="647.999" x2="288" y2="791.998"/>
	<line fill="none" stroke="#0000FF" stroke-miterlimit="10" x1="432" y1="647.998" x2="432" y2="791.999"/>
	<line fill="none" stroke="#0000FF" stroke-miterlimit="10" x1="576" y1="647.998" x2="576" y2="791.998"/>
	<path fill="none" stroke="#0000FF" stroke-miterlimit="10" d="M216,792c51.393,72,51.393,72,0,144"/>
	<path fill="none" stroke="#0000FF" stroke-miterlimit="10" d="M360,792.001c51.393,72.001,51.393,72.001,0,144.001"/>
	<path fill="none" stroke="#0000FF" stroke-miterlimit="10" d="M504,792.002c51.393,72,51.393,72,0,144"/>
	<path fill="none" stroke="#0000FF" stroke-miterlimit="10" d="M648,792.002c51.393,72,51.393,72,0,144"/>
	<path fill="none" stroke="#0000FF" stroke-miterlimit="10" d="M360,935.998c-51.392,72.002-51.392,72.002,0,144"/>
	<path fill="none" stroke="#0000FF" stroke-miterlimit="10" d="M216,935.998c-51.392,72.002-51.392,72.002,0,144"/>
	<path fill="none" stroke="#0000FF" stroke-miterlimit="10" d="M648,935.998c-51.393,72-51.393,72,0,144"/>
	<path fill="none" stroke="#0000FF" stroke-miterlimit="10" d="M504,935.998c-51.393,72-51.393,72,0,144"/>
	<line fill="none" stroke="#0000FF" stroke-miterlimit="10" x1="288" y1="936" x2="288" y2="1079.998"/>
	<line fill="none" stroke="#0000FF" stroke-miterlimit="10" x1="432" y1="935.998" x2="432" y2="1080"/>
	<line fill="none" stroke="#0000FF" stroke-miterlimit="10" x1="576" y1="935.998" x2="576" y2="1079.998"/>
	<path fill="none" stroke="#0000FF" stroke-miterlimit="10" d="M244.477,258c19.844,34.303,10.352,47.602-28.477,102"/>
	<path fill="none" stroke="#0000FF" stroke-miterlimit="10" d="M388.47,257.989c19.853,34.312,10.363,47.608-28.47,102.012"/>
	<path fill="none" stroke="#0000FF" stroke-miterlimit="10" d="M532.475,257.998c19.847,34.306,10.355,47.604-28.475,102.004"/>
	<path fill="none" stroke="#0000FF" stroke-miterlimit="10" d="M676.476,257.999c19.846,34.305,10.354,47.603-28.476,102.003"/>
	<path fill="none" stroke="#0000FF" stroke-miterlimit="10" d="M-216,360c-51.392,72.001-51.392,72.001,0,144"/>
	<path fill="none" stroke="#0000FF" stroke-miterlimit="10" d="M-360,360C-411.392,432-411.392,432-360,504"/>
	<path fill="none" stroke="#0000FF" stroke-miterlimit="10" d="M72,359.999C20.607,432,20.607,432,72,503.999"/>
	<path fill="none" stroke="#0000FF" stroke-miterlimit="10" d="M-72,359.999c-51.393,72.001-51.393,72.001,0,144"/>
	<path fill="none" stroke="#0000FF" stroke-miterlimit="10" d="M-360,504c51.393,72.001,51.393,72.001,0,144.001"/>
	<path fill="none" stroke="#0000FF" stroke-miterlimit="10" d="M-216,504.001c51.393,72,51.393,72,0,144"/>
	<path fill="none" stroke="#0000FF" stroke-miterlimit="10" d="M-72,504.001c51.393,72.001,51.393,72.001,0,144.001"/>
	<path fill="none" stroke="#0000FF" stroke-miterlimit="10" d="M72,504.002c51.393,72.001,51.393,72.001,0,144.001"/>
	<line fill="none" stroke="#0000FF" stroke-miterlimit="10" x1="-288" y1="360" x2="-288" y2="504"/>
	<line fill="none" stroke="#0000FF" stroke-miterlimit="10" x1="-144" y1="360" x2="-144" y2="504"/>
	<line fill="none" stroke="#0000FF" stroke-miterlimit="10" x1="0" y1="360" x2="0" y2="504"/>
	<path fill="none" stroke="#0000FF" stroke-miterlimit="10" d="M-216,647.999c-51.392,72.002-51.392,72.002,0,144"/>
	<path fill="none" stroke="#0000FF" stroke-miterlimit="10" d="M-360,647.999c-51.392,72-51.392,72,0,144"/>
	<path fill="none" stroke="#0000FF" stroke-miterlimit="10" d="M72,647.999c-51.393,72-51.393,72,0,144"/>
	<path fill="none" stroke="#0000FF" stroke-miterlimit="10" d="M-72,647.997c-51.393,72.002-51.393,72.002,0,144.002"/>
	<line fill="none" stroke="#0000FF" stroke-miterlimit="10" x1="-288" y1="647.999" x2="-288" y2="791.999"/>
	<line fill="none" stroke="#0000FF" stroke-miterlimit="10" x1="-144" y1="647.999" x2="-144" y2="791.999"/>
	<line fill="none" stroke="#0000FF" stroke-miterlimit="10" x1="0" y1="647.999" x2="0" y2="791.999"/>
	<path fill="none" stroke="#0000FF" stroke-miterlimit="10" d="M-360,792.001c51.393,72,51.393,72,0,144"/>
	<path fill="none" stroke="#0000FF" stroke-miterlimit="10" d="M-216,792.001c51.393,72.002,51.393,72.002,0,144.002"/>
	<path fill="none" stroke="#0000FF" stroke-miterlimit="10" d="M-72,792.003c51.393,72,51.393,72,0,144"/>
	<path fill="none" stroke="#0000FF" stroke-miterlimit="10" d="M72,792.003c51.393,72,51.393,72,0,144"/>
	<path fill="none" stroke="#0000FF" stroke-miterlimit="10" d="M-216,935.999c-51.392,72.002-51.392,72.002,0,144"/>
	<path fill="none" stroke="#0000FF" stroke-miterlimit="10" d="M-360,935.999c-51.392,72.002-51.392,72.002,0,144"/>
	<path fill="none" stroke="#0000FF" stroke-miterlimit="10" d="M72,935.999c-51.393,72-51.393,72,0,144"/>
	<path fill="none" stroke="#0000FF" stroke-miterlimit="10" d="M-72,935.999c-51.393,72-51.393,72,0,144"/>
	<line fill="none" stroke="#0000FF" stroke-miterlimit="10" x1="-288" y1="936.001" x2="-288" y2="1079.999"/>
	<line fill="none" stroke="#0000FF" stroke-miterlimit="10" x1="-144" y1="935.999" x2="-144" y2="1080.001"/>
	<line fill="none" stroke="#0000FF" stroke-miterlimit="10" x1="0" y1="935.999" x2="0" y2="1079.999"/>
	<path fill="none" stroke="#0000FF" stroke-miterlimit="10" d="M-331.524,257.998C-311.678,292.303-321.17,305.601-360,360"/>
	<path fill="none" stroke="#0000FF" stroke-miterlimit="10" d="M-187.526,257.996c19.848,34.308,10.357,47.605-28.474,102.006"/>
	<path fill="none" stroke="#0000FF" stroke-miterlimit="10" d="M-43.528,257.993c19.85,34.31,10.36,47.606-28.472,102.009"/>
	<path fill="none" stroke="#0000FF" stroke-miterlimit="10" d="M100.471,257.991c19.853,34.312,10.362,47.607-28.471,102.012"/>
	<path fill="none" stroke="#0000FF" stroke-miterlimit="10" d="M244.477,1182c19.844-34.303,10.352-47.602-28.477-102"/>
	<path fill="none" stroke="#0000FF" stroke-miterlimit="10" d="M388.47,1182.011c19.853-34.312,10.363-47.608-28.47-102.012"/>
	<path fill="none" stroke="#0000FF" stroke-miterlimit="10" d="M532.475,1182.002c19.847-34.306,10.355-47.604-28.475-102.004"/>
	<path fill="none" stroke="#0000FF" stroke-miterlimit="10" d="M676.476,1182.001c19.846-34.305,10.354-47.603-28.476-102.003"/>
	<path fill="none" stroke="#0000FF" stroke-miterlimit="10" d="M-331.524,1182.002c19.846-34.305,10.354-47.603-28.476-102.003"/>
	<path fill="none" stroke="#0000FF" stroke-miterlimit="10" d="M-187.526,1182.004c19.848-34.308,10.357-47.605-28.474-102.006"/>
	<path fill="none" stroke="#0000FF" stroke-miterlimit="10" d="M-43.528,1182.006c19.85-34.31,10.36-47.606-28.472-102.009"/>
	<path fill="none" stroke="#0000FF" stroke-miterlimit="10" d="M100.471,1182.009c19.853-34.312,10.362-47.607-28.471-102.012"/>
	<line fill="none" stroke="#0000FF" stroke-miterlimit="10" x1="144" y1="360" x2="144" y2="504"/>
	<line fill="none" stroke="#0000FF" stroke-miterlimit="10" x1="144" y1="648" x2="144" y2="791.998"/>
	<line fill="none" stroke="#0000FF" stroke-miterlimit="10" x1="144" y1="936" x2="144" y2="1079.998"/>
</g>
<g id="Mountain">
	<path fill="none" stroke="#FF0000" stroke-miterlimit="10" d="M288,504c0-54,90-144,144-144"/>
	<path fill="none" stroke="#FF0000" stroke-miterlimit="10" d="M432,504c-54,0-144-90-144-144"/>
	<path fill="none" stroke="#FF0000" stroke-miterlimit="10" d="M144,504c0-54,90-144,144-144"/>
	<path fill="none" stroke="#FF0000" stroke-miterlimit="10" d="M288,504c-54,0-143.999-90-144-144"/>
	<path fill="none" stroke="#FF0000" stroke-miterlimit="10" d="M576,503.999c0-54,90-144,144-144"/>
	<path fill="none" stroke="#FF0000" stroke-miterlimit="10" d="M720,503.999c-54,0-144-90-144-144"/>
	<path fill="none" stroke="#FF0000" stroke-miterlimit="10" d="M432,503.999c0-53.999,90-143.999,144-144"/>
	<path fill="none" stroke="#FF0000" stroke-miterlimit="10" d="M576,504c-54,0-144-90-144-144"/>
	<path fill="none" stroke="#FF0000" stroke-miterlimit="10" d="M-288,504c0-54,90-144,144-144"/>
	<path fill="none" stroke="#FF0000" stroke-miterlimit="10" d="M-144,504c-53.999,0-144-90-144-144"/>
	<path fill="none" stroke="#FF0000" stroke-miterlimit="10" d="M-432,504c0-53.999,90-143.999,144-144"/>
	<path fill="none" stroke="#FF0000" stroke-miterlimit="10" d="M-288,504.001c-54,0-144-90-144-144"/>
	<path fill="none" stroke="#FF0000" stroke-miterlimit="10" d="M0,503.999C0,450,90,360,144,359.999"/>
	<path fill="none" stroke="#FF0000" stroke-miterlimit="10" d="M144,504C90,504,0,414,0,360"/>
	<path fill="none" stroke="#FF0000" stroke-miterlimit="10" d="M-144,504c0-54,90-144,144-144"/>
	<path fill="none" stroke="#FF0000" stroke-miterlimit="10" d="M0,504c-54,0-144-90-144-144"/>
	<path fill="none" stroke="#FF0000" stroke-miterlimit="10" d="M288,791.998c0-53.999,90-143.999,144-144"/>
	<path fill="none" stroke="#FF0000" stroke-miterlimit="10" d="M432,791.999c-54,0-144-90-144-144"/>
	<path fill="none" stroke="#FF0000" stroke-miterlimit="10" d="M144,791.999c0-53.999,90-143.999,144-144"/>
	<path fill="none" stroke="#FF0000" stroke-miterlimit="10" d="M288,792c-54,0-143.999-90-144-144"/>
	<path fill="none" stroke="#FF0000" stroke-miterlimit="10" d="M576,791.998c0-54,90-144,144-144"/>
	<path fill="none" stroke="#FF0000" stroke-miterlimit="10" d="M720,791.998c-54,0-144-90-144-144"/>
	<path fill="none" stroke="#FF0000" stroke-miterlimit="10" d="M432,791.998c0-54,90-144,144-144"/>
	<path fill="none" stroke="#FF0000" stroke-miterlimit="10" d="M576,791.998c-54,0-144-90-144-144"/>
	<path fill="none" stroke="#FF0000" stroke-miterlimit="10" d="M288,1079.998c0-53.998,90-143.998,144-144"/>
	<path fill="none" stroke="#FF0000" stroke-miterlimit="10" d="M432,1080c-54,0-144-90-144-144"/>
	<path fill="none" stroke="#FF0000" stroke-miterlimit="10" d="M144,1080c0-54,90-144,144-144"/>
	<path fill="none" stroke="#FF0000" stroke-miterlimit="10" d="M288,1080c-54,0-143.999-90-144-144"/>
	<path fill="none" stroke="#FF0000" stroke-miterlimit="10" d="M576,1079.998c0-54,90-144,144-144"/>
	<path fill="none" stroke="#FF0000" stroke-miterlimit="10" d="M720,1079.998c-54,0-144-90-144-144"/>
	<path fill="none" stroke="#FF0000" stroke-miterlimit="10" d="M432,1079.998c0-54,90-144,144-144"/>
	<path fill="none" stroke="#FF0000" stroke-miterlimit="10" d="M576,1079.998c-54,0-144-90-144-144"/>
	<path fill="none" stroke="#FF0000" stroke-miterlimit="10" d="M-288,791.999c0-54,90-144,144-144"/>
	<path fill="none" stroke="#FF0000" stroke-miterlimit="10" d="M-144,791.999c-53.999,0-144-90-144-144"/>
	<path fill="none" stroke="#FF0000" stroke-miterlimit="10" d="M-432,791.999c0-53.998,90-143.998,144-144"/>
	<path fill="none" stroke="#FF0000" stroke-miterlimit="10" d="M-288,792.001c-54,0-144-90-144-144"/>
	<path fill="none" stroke="#FF0000" stroke-miterlimit="10" d="M0,791.999c0-54,90-144,144-144"/>
	<path fill="none" stroke="#FF0000" stroke-miterlimit="10" d="M144,791.999c-54,0-144-90-144-144"/>
	<path fill="none" stroke="#FF0000" stroke-miterlimit="10" d="M-144,791.999c0-54,90-144,144-144"/>
	<path fill="none" stroke="#FF0000" stroke-miterlimit="10" d="M0,791.999c-54,0-144-90-144-144"/>
	<path fill="none" stroke="#FF0000" stroke-miterlimit="10" d="M-288,1079.999c0-53.998,90-143.998,144-144"/>
	<path fill="none" stroke="#FF0000" stroke-miterlimit="10" d="M-144,1080.001c-53.999,0-144-90-144-144"/>
	<path fill="none" stroke="#FF0000" stroke-miterlimit="10" d="M-432,1080.001c0-54,90-144,144-144"/>
	<path fill="none" stroke="#FF0000" stroke-miterlimit="10" d="M-288,1080.001c-54,0-144-90-144-144"/>
	<path fill="none" stroke="#FF0000" stroke-miterlimit="10" d="M0,1079.999c0-54,90-144,144-144"/>
	<path fill="none" stroke="#FF0000" stroke-miterlimit="10" d="M144,1079.999c-54,0-144-90-144-144"/>
	<path fill="none" stroke="#FF0000" stroke-miterlimit="10" d="M-144,1079.999c0-54,90-144,144-144"/>
	<path fill="none" stroke="#FF0000" stroke-miterlimit="10" d="M0,1079.999c-54,0-144-90-144-144"/>
	<path fill="none" stroke="#FF0000" stroke-miterlimit="10" d="M144,503.999c51.393,72.001,51.393,72.001,0,144.001"/>
	<path fill="none" stroke="#FF0000" stroke-miterlimit="10" d="M288,504c51.393,72,51.393,72,0,144"/>
	<path fill="none" stroke="#FF0000" stroke-miterlimit="10" d="M432,504c51.393,72,51.393,72,0,144"/>
	<path fill="none" stroke="#FF0000" stroke-miterlimit="10" d="M576,504.001c51.393,72.001,51.393,72.001,0,144.001"/>
	<path fill="none" stroke="#FF0000" stroke-miterlimit="10" d="M144,791.999C195.393,864,195.393,864,144,936"/>
	<path fill="none" stroke="#FF0000" stroke-miterlimit="10" d="M288,792c51.393,72,51.393,72,0,144"/>
	<path fill="none" stroke="#FF0000" stroke-miterlimit="10" d="M432,792c51.393,72,51.393,72,0,144"/>
	<path fill="none" stroke="#FF0000" stroke-miterlimit="10" d="M576,792.002c51.393,72,51.393,72,0,144"/>
	<path fill="none" stroke="#FF0000" stroke-miterlimit="10" d="M172.478,258c19.843,34.303,10.35,47.602-28.478,101.999"/>
	<path fill="none" stroke="#FF0000" stroke-miterlimit="10" d="M316.477,257.999C336.321,292.303,326.829,305.602,288,360"/>
	<path fill="none" stroke="#FF0000" stroke-miterlimit="10" d="M460.469,257.987C480.324,292.3,470.834,305.595,432,360"/>
	<path fill="none" stroke="#FF0000" stroke-miterlimit="10" d="M604.467,257.984c19.857,34.316,10.368,47.61-28.467,102.018"/>
	<path fill="none" stroke="#FF0000" stroke-miterlimit="10" d="M172.478,1182c19.843-34.303,10.35-47.602-28.478-101.999"/>
	<path fill="none" stroke="#FF0000" stroke-miterlimit="10" d="M316.477,1182c19.844-34.303,10.352-47.602-28.477-102"/>
	<path fill="none" stroke="#FF0000" stroke-miterlimit="10" d="M460.469,1182.014C480.324,1147.7,470.834,1134.405,432,1080"/>
	<path fill="none" stroke="#FF0000" stroke-miterlimit="10" d="M604.467,1182.016c19.857-34.316,10.368-47.61-28.467-102.018"/>
	<path fill="none" stroke="#FF0000" stroke-miterlimit="10" d="M-432,503.999c51.393,72,51.393,72,0,144"/>
	<path fill="none" stroke="#FF0000" stroke-miterlimit="10" d="M-288,504c51.393,72.001,51.393,72.001,0,144.001"/>
	<path fill="none" stroke="#FF0000" stroke-miterlimit="10" d="M-144,504c51.393,72,51.393,72,0,144"/>
	<path fill="none" stroke="#FF0000" stroke-miterlimit="10" d="M0,504.001c51.393,72.001,51.393,72.001,0,144.001"/>
	<path fill="none" stroke="#FF0000" stroke-miterlimit="10" d="M-432,791.999c51.393,72.002,51.393,72.002,0,144.002"/>
	<path fill="none" stroke="#FF0000" stroke-miterlimit="10" d="M-288,792.001c51.393,72,51.393,72,0,144"/>
	<path fill="none" stroke="#FF0000" stroke-miterlimit="10" d="M-144,792.001c51.393,72,51.393,72,0,144"/>
	<path fill="none" stroke="#FF0000" stroke-miterlimit="10" d="M0,792.003c51.393,72,51.393,72,0,144"/>
	<path fill="none" stroke="#FF0000" stroke-miterlimit="10" d="M-403.523,257.998C-383.679,292.302-393.171,305.601-432,360"/>
	<path fill="none" stroke="#FF0000" stroke-miterlimit="10" d="M-259.524,257.999C-239.679,292.303-249.171,305.602-288,360"/>
	<path fill="none" stroke="#FF0000" stroke-miterlimit="10" d="M-115.524,257.998C-95.678,292.303-105.17,305.601-144,360"/>
	<path fill="none" stroke="#FF0000" stroke-miterlimit="10" d="M28.471,257.991C48.323,292.303,38.833,305.599,0,360.002"/>
	<path fill="none" stroke="#FF0000" stroke-miterlimit="10" d="M-403.523,1182.002c19.845-34.304,10.353-47.603-28.477-102.002"/>
	<path fill="none" stroke="#FF0000" stroke-miterlimit="10" d="M-259.524,1182.001c19.845-34.304,10.353-47.603-28.476-102.001"/>
	<path fill="none" stroke="#FF0000" stroke-miterlimit="10" d="M-115.524,1182.002C-95.678,1147.697-105.17,1134.399-144,1080"/>
	<path fill="none" stroke="#FF0000" stroke-miterlimit="10" d="M28.471,1182.009c19.852-34.311,10.362-47.607-28.471-102.011"/>
</g>
</svg>
