<?xml version="1.0" encoding="utf-8"?>
<!-- Generator: Adobe Illustrator 25.4.1, SVG Export Plug-In . SVG Version: 6.00 Build 0)  -->
<svg version="1.1" id="Layer_1" xmlns="http://www.w3.org/2000/svg" xmlns:xlink="http://www.w3.org/1999/xlink" x="0px" y="0px"
	 viewBox="0 0 612 792" enable-background="new 0 0 612 792" xml:space="preserve">
<line fill="none" stroke="#0000FF" stroke-miterlimit="10" x1="76.9" y1="364.2" x2="113.1" y2="363.9"/>
<line fill="none" stroke="#0000FF" stroke-miterlimit="10" x1="293.5" y1="364" x2="329.7" y2="363.8"/>
<line fill="none" stroke="#0000FF" stroke-miterlimit="10" x1="401.7" y1="364" x2="437.9" y2="363.7"/>
<line fill="none" stroke="#0000FF" stroke-miterlimit="10" x1="401.7" y1="256" x2="437.9" y2="255.8"/>
<line fill="none" stroke="#0000FF" stroke-miterlimit="10" x1="185.2" y1="363.9" x2="221.3" y2="364"/>
<line fill="none" stroke="#0000FF" stroke-miterlimit="10" x1="77.2" y1="255.9" x2="113.2" y2="255.9"/>
<line fill="none" stroke="#0000FF" stroke-miterlimit="10" x1="257.2" y1="291.9" x2="257.2" y2="328"/>
<line fill="none" stroke="#0000FF" stroke-miterlimit="10" x1="257.2" y1="184" x2="257.2" y2="220.2"/>
<line fill="none" stroke="#0000FF" stroke-miterlimit="10" x1="365.7" y1="184" x2="365.8" y2="220.2"/>
<line fill="none" stroke="#0000FF" stroke-miterlimit="10" x1="366" y1="399.8" x2="366" y2="436"/>
<line fill="none" stroke="#0000FF" stroke-miterlimit="10" x1="365.9" y1="291.9" x2="366" y2="328"/>
<line fill="none" stroke="#0000FF" stroke-miterlimit="10" x1="149.2" y1="291.8" x2="149.2" y2="328"/>
<line fill="none" stroke="#0000FF" stroke-miterlimit="10" x1="149.4" y1="184" x2="149.5" y2="220.2"/>
<g>
	<path fill="none" stroke="#FF0000" stroke-miterlimit="10" d="M149.2,291.8c-4.6,4.6-10.9,7.4-18,7.4c-14,0-25.4-11.4-25.4-25.4
		c0-7,2.8-13.4,7.4-18"/>
	<path fill="none" stroke="#FF0000" stroke-miterlimit="10" d="M149.2,220.2c4.6-4.6,10.9-7.4,18-7.4c14,0,25.4,11.4,25.4,25.4
		c0,7-2.8,13.4-7.4,18"/>
	<path fill="none" stroke="#FF0000" stroke-miterlimit="10" d="M185.1,255.9c4.6,4.6,7.4,10.9,7.4,18c0,14-11.4,25.4-25.4,25.4
		c-7,0-13.4-2.8-18-7.4"/>
	<path fill="none" stroke="#FF0000" stroke-miterlimit="10" d="M113.2,255.9c-4.6-4.6-7.4-10.9-7.4-18c0-14,11.4-25.4,25.4-25.4
		c7,0,13.4,2.8,18,7.4"/>
	<line fill="none" stroke="#0000FF" stroke-miterlimit="10" x1="149.2" y1="291.8" x2="174.9" y2="281.2"/>
	<line fill="none" stroke="#FF0000" stroke-miterlimit="10" x1="174.9" y1="281.2" x2="166.9" y2="273.8"/>
	<line fill="none" stroke="#0000FF" stroke-miterlimit="10" x1="174.5" y1="281.4" x2="185.1" y2="255.9"/>
	<line fill="none" stroke="#0000FF" stroke-miterlimit="10" x1="185.1" y1="255.9" x2="174.4" y2="230.2"/>
	<line fill="none" stroke="#FF0000" stroke-miterlimit="10" x1="174.4" y1="230.2" x2="166.8" y2="238.2"/>
	<line fill="none" stroke="#0000FF" stroke-miterlimit="10" x1="174.6" y1="230.6" x2="149.1" y2="220"/>
	<line fill="none" stroke="#0000FF" stroke-miterlimit="10" x1="149.1" y1="220" x2="123.4" y2="230.7"/>
	<line fill="none" stroke="#FF0000" stroke-miterlimit="10" x1="123.4" y1="230.7" x2="131.2" y2="238.2"/>
	<line fill="none" stroke="#0000FF" stroke-miterlimit="10" x1="123.9" y1="230.5" x2="113.2" y2="255.9"/>
	<line fill="none" stroke="#0000FF" stroke-miterlimit="10" x1="113.5" y1="255.9" x2="124.1" y2="281.6"/>
	<line fill="none" stroke="#FF0000" stroke-miterlimit="10" x1="124.1" y1="281.6" x2="131.3" y2="273.9"/>
	<line fill="none" stroke="#0000FF" stroke-miterlimit="10" x1="123.9" y1="281.1" x2="149.4" y2="291.8"/>
	<path fill="none" stroke="#FF0000" stroke-miterlimit="10" d="M166.9,273.8c-11.7-11.9-11.8-23.8-0.1-35.6"/>
	<path fill="none" stroke="#FF0000" stroke-miterlimit="10" d="M166.8,238.2c-11.9,11.7-23.9,11.8-35.7,0"/>
	<path fill="none" stroke="#FF0000" stroke-miterlimit="10" d="M131.2,238.2c11.7,11.9,11.9,23.9,0.2,35.7"/>
	<path fill="none" stroke="#FF0000" stroke-miterlimit="10" d="M131.3,273.9c11.9-11.7,23.8-11.8,35.6-0.1"/>
</g>
<g>
	<path fill="none" stroke="#FF0000" stroke-miterlimit="10" d="M257.5,291.8c-4.6,4.6-10.9,7.4-18,7.4c-14,0-25.4-11.4-25.4-25.4
		c0-7,2.8-13.4,7.4-18"/>
	<path fill="none" stroke="#FF0000" stroke-miterlimit="10" d="M257.5,220c4.6-4.6,10.9-7.4,18-7.4c14,0,25.4,11.4,25.4,25.4
		c0,7-2.8,13.4-7.4,18"/>
	<path fill="none" stroke="#FF0000" stroke-miterlimit="10" d="M293.4,255.9c4.6,4.6,7.4,10.9,7.4,18c0,14-11.4,25.4-25.4,25.4
		c-7,0-13.4-2.8-18-7.4"/>
	<path fill="none" stroke="#FF0000" stroke-miterlimit="10" d="M221.5,255.9c-4.6-4.6-7.4-10.9-7.4-18c0-14,11.4-25.4,25.4-25.4
		c7,0,13.4,2.8,18,7.4"/>
	<line fill="none" stroke="#0000FF" stroke-miterlimit="10" x1="257.5" y1="291.8" x2="283.2" y2="281.2"/>
	<line fill="none" stroke="#FF0000" stroke-miterlimit="10" x1="283.2" y1="281.2" x2="275.2" y2="273.8"/>
	<line fill="none" stroke="#0000FF" stroke-miterlimit="10" x1="282.7" y1="281.4" x2="293.4" y2="255.9"/>
	<line fill="none" stroke="#0000FF" stroke-miterlimit="10" x1="293.4" y1="255.9" x2="282.7" y2="230.2"/>
	<line fill="none" stroke="#FF0000" stroke-miterlimit="10" x1="282.7" y1="230.2" x2="275.1" y2="238.2"/>
	<line fill="none" stroke="#0000FF" stroke-miterlimit="10" x1="282.9" y1="230.6" x2="257.4" y2="220"/>
	<line fill="none" stroke="#0000FF" stroke-miterlimit="10" x1="257.4" y1="220" x2="231.7" y2="230.7"/>
	<line fill="none" stroke="#FF0000" stroke-miterlimit="10" x1="231.7" y1="230.7" x2="239.4" y2="238.2"/>
	<line fill="none" stroke="#0000FF" stroke-miterlimit="10" x1="232.1" y1="230.5" x2="221.5" y2="255.9"/>
	<line fill="none" stroke="#0000FF" stroke-miterlimit="10" x1="221.8" y1="255.9" x2="232.4" y2="281.6"/>
	<line fill="none" stroke="#FF0000" stroke-miterlimit="10" x1="232.4" y1="281.6" x2="239.6" y2="273.9"/>
	<line fill="none" stroke="#0000FF" stroke-miterlimit="10" x1="232.2" y1="281.1" x2="257.7" y2="291.8"/>
	<path fill="none" stroke="#FF0000" stroke-miterlimit="10" d="M275.2,273.8c-11.7-11.9-11.8-23.8-0.1-35.6"/>
	<path fill="none" stroke="#FF0000" stroke-miterlimit="10" d="M275.1,238.2c-11.9,11.7-23.9,11.8-35.7,0"/>
	<path fill="none" stroke="#FF0000" stroke-miterlimit="10" d="M239.4,238.2c11.7,11.9,11.9,23.9,0.2,35.7"/>
	<path fill="none" stroke="#FF0000" stroke-miterlimit="10" d="M239.6,273.9c11.9-11.7,23.8-11.8,35.6-0.1"/>
</g>
<g>
	<path fill="none" stroke="#FF0000" stroke-miterlimit="10" d="M149,400c-4.6,4.6-10.9,7.4-18,7.4c-14,0-25.4-11.4-25.4-25.4
		c0-7,2.8-13.4,7.4-18"/>
	<path fill="none" stroke="#FF0000" stroke-miterlimit="10" d="M149,328.1c4.6-4.6,10.9-7.4,18-7.4c14,0,25.4,11.4,25.4,25.4
		c0,7-2.8,13.4-7.4,18"/>
	<path fill="none" stroke="#FF0000" stroke-miterlimit="10" d="M184.9,364.1c4.6,4.6,7.4,10.9,7.4,18c0,14-11.4,25.4-25.4,25.4
		c-7,0-13.4-2.8-18-7.4"/>
	<path fill="none" stroke="#FF0000" stroke-miterlimit="10" d="M113.1,364.1c-4.6-4.6-7.4-10.9-7.4-18c0-14,11.4-25.4,25.4-25.4
		c7,0,13.4,2.8,18,7.4"/>
	<line fill="none" stroke="#0000FF" stroke-miterlimit="10" x1="149" y1="400" x2="174.8" y2="389.3"/>
	<line fill="none" stroke="#FF0000" stroke-miterlimit="10" x1="174.8" y1="389.3" x2="166.8" y2="382"/>
	<line fill="none" stroke="#0000FF" stroke-miterlimit="10" x1="174.3" y1="389.5" x2="184.9" y2="364.1"/>
	<line fill="none" stroke="#0000FF" stroke-miterlimit="10" x1="184.9" y1="364.1" x2="174.2" y2="338.3"/>
	<line fill="none" stroke="#FF0000" stroke-miterlimit="10" x1="174.2" y1="338.3" x2="166.7" y2="346.3"/>
	<line fill="none" stroke="#0000FF" stroke-miterlimit="10" x1="174.4" y1="338.8" x2="149" y2="328.1"/>
	<line fill="none" stroke="#0000FF" stroke-miterlimit="10" x1="148.9" y1="328.2" x2="123.2" y2="338.9"/>
	<line fill="none" stroke="#FF0000" stroke-miterlimit="10" x1="123.2" y1="338.9" x2="131" y2="346.3"/>
	<line fill="none" stroke="#0000FF" stroke-miterlimit="10" x1="123.7" y1="338.7" x2="113" y2="364.1"/>
	<line fill="none" stroke="#0000FF" stroke-miterlimit="10" x1="113.3" y1="364.1" x2="124" y2="389.8"/>
	<line fill="none" stroke="#FF0000" stroke-miterlimit="10" x1="124" y1="389.8" x2="131.2" y2="382"/>
	<line fill="none" stroke="#0000FF" stroke-miterlimit="10" x1="123.8" y1="389.3" x2="149.2" y2="400"/>
	<path fill="none" stroke="#FF0000" stroke-miterlimit="10" d="M166.8,382c-11.7-11.9-11.8-23.8-0.1-35.6"/>
	<path fill="none" stroke="#FF0000" stroke-miterlimit="10" d="M166.7,346.3c-11.9,11.7-23.9,11.8-35.7,0"/>
	<path fill="none" stroke="#FF0000" stroke-miterlimit="10" d="M131,346.3c11.7,11.9,11.9,23.9,0.2,35.7"/>
	<path fill="none" stroke="#FF0000" stroke-miterlimit="10" d="M131.2,382c11.9-11.7,23.8-11.8,35.6-0.1"/>
</g>
<g>
	<path fill="none" stroke="#FF0000" stroke-miterlimit="10" d="M257.3,399.7c-4.6,4.6-10.9,7.4-18,7.4c-14,0-25.4-11.4-25.4-25.4
		c0-7,2.8-13.4,7.4-18"/>
	<path fill="none" stroke="#FF0000" stroke-miterlimit="10" d="M257.3,327.8c4.6-4.6,10.9-7.4,18-7.4c14,0,25.4,11.4,25.4,25.4
		c0,7-2.8,13.4-7.4,18"/>
	<path fill="none" stroke="#FF0000" stroke-miterlimit="10" d="M293.2,363.8c4.6,4.6,7.4,10.9,7.4,18c0,14-11.4,25.4-25.4,25.4
		c-7,0-13.4-2.8-18-7.4"/>
	<path fill="none" stroke="#FF0000" stroke-miterlimit="10" d="M221.4,363.8c-4.6-4.6-7.4-10.9-7.4-18c0-14,11.4-25.4,25.4-25.4
		c7,0,13.4,2.8,18,7.4"/>
	<line fill="none" stroke="#0000FF" stroke-miterlimit="10" x1="257.3" y1="399.7" x2="283.1" y2="389"/>
	<line fill="none" stroke="#FF0000" stroke-miterlimit="10" x1="283.1" y1="389" x2="275.1" y2="381.7"/>
	<line fill="none" stroke="#0000FF" stroke-miterlimit="10" x1="282.6" y1="389.2" x2="293.3" y2="363.8"/>
	<line fill="none" stroke="#0000FF" stroke-miterlimit="10" x1="293.2" y1="363.8" x2="282.5" y2="338"/>
	<line fill="none" stroke="#FF0000" stroke-miterlimit="10" x1="282.5" y1="338" x2="275" y2="346"/>
	<line fill="none" stroke="#0000FF" stroke-miterlimit="10" x1="282.7" y1="338.5" x2="257.3" y2="327.8"/>
	<line fill="none" stroke="#0000FF" stroke-miterlimit="10" x1="257.3" y1="327.9" x2="231.5" y2="338.5"/>
	<line fill="none" stroke="#FF0000" stroke-miterlimit="10" x1="231.5" y1="338.5" x2="239.3" y2="346"/>
	<line fill="none" stroke="#0000FF" stroke-miterlimit="10" x1="232" y1="338.3" x2="221.3" y2="363.8"/>
	<line fill="none" stroke="#0000FF" stroke-miterlimit="10" x1="221.6" y1="363.8" x2="232.3" y2="389.5"/>
	<line fill="none" stroke="#FF0000" stroke-miterlimit="10" x1="232.3" y1="389.5" x2="239.5" y2="381.7"/>
	<line fill="none" stroke="#0000FF" stroke-miterlimit="10" x1="232.1" y1="389" x2="257.5" y2="399.7"/>
	<path fill="none" stroke="#FF0000" stroke-miterlimit="10" d="M275.1,381.7c-11.7-11.9-11.8-23.8-0.1-35.6"/>
	<path fill="none" stroke="#FF0000" stroke-miterlimit="10" d="M275,346c-11.9,11.7-23.9,11.8-35.7,0"/>
	<path fill="none" stroke="#FF0000" stroke-miterlimit="10" d="M239.3,346c11.7,11.9,11.9,23.9,0.2,35.7"/>
	<path fill="none" stroke="#FF0000" stroke-miterlimit="10" d="M239.5,381.7c11.9-11.7,23.8-11.8,35.6-0.1"/>
</g>
<g>
	<path fill="none" stroke="#FF0000" stroke-miterlimit="10" d="M365.8,292c-4.6,4.6-10.9,7.4-18,7.4c-14,0-25.4-11.4-25.4-25.4
		c0-7,2.8-13.4,7.4-18"/>
	<path fill="none" stroke="#FF0000" stroke-miterlimit="10" d="M365.8,220.1c4.6-4.6,10.9-7.4,18-7.4c14,0,25.4,11.4,25.4,25.4
		c0,7-2.8,13.4-7.4,18"/>
	<path fill="none" stroke="#FF0000" stroke-miterlimit="10" d="M401.6,256c4.6,4.6,7.4,10.9,7.4,18c0,14-11.4,25.4-25.4,25.4
		c-7,0-13.4-2.8-18-7.4"/>
	<path fill="none" stroke="#FF0000" stroke-miterlimit="10" d="M329.8,256c-4.6-4.6-7.4-10.9-7.4-18c0-14,11.4-25.4,25.4-25.4
		c7,0,13.4,2.8,18,7.4"/>
	<line fill="none" stroke="#0000FF" stroke-miterlimit="10" x1="365.8" y1="292" x2="391.5" y2="281.3"/>
	<line fill="none" stroke="#FF0000" stroke-miterlimit="10" x1="391.5" y1="281.3" x2="383.5" y2="273.9"/>
	<line fill="none" stroke="#0000FF" stroke-miterlimit="10" x1="391" y1="281.5" x2="401.7" y2="256"/>
	<line fill="none" stroke="#0000FF" stroke-miterlimit="10" x1="401.6" y1="256" x2="391" y2="230.3"/>
	<line fill="none" stroke="#FF0000" stroke-miterlimit="10" x1="391" y1="230.3" x2="383.4" y2="238.3"/>
	<line fill="none" stroke="#0000FF" stroke-miterlimit="10" x1="391.2" y1="230.8" x2="365.7" y2="220.1"/>
	<line fill="none" stroke="#0000FF" stroke-miterlimit="10" x1="365.7" y1="220.2" x2="340" y2="230.8"/>
	<line fill="none" stroke="#FF0000" stroke-miterlimit="10" x1="340" y1="230.8" x2="347.7" y2="238.3"/>
	<line fill="none" stroke="#0000FF" stroke-miterlimit="10" x1="340.4" y1="230.6" x2="329.8" y2="256.1"/>
	<line fill="none" stroke="#0000FF" stroke-miterlimit="10" x1="330" y1="256" x2="340.7" y2="281.8"/>
	<line fill="none" stroke="#FF0000" stroke-miterlimit="10" x1="340.7" y1="281.8" x2="347.9" y2="274"/>
	<line fill="none" stroke="#0000FF" stroke-miterlimit="10" x1="340.5" y1="281.3" x2="366" y2="292"/>
	<path fill="none" stroke="#FF0000" stroke-miterlimit="10" d="M383.5,273.9c-11.7-11.9-11.8-23.8-0.1-35.6"/>
	<path fill="none" stroke="#FF0000" stroke-miterlimit="10" d="M383.4,238.3c-11.9,11.7-23.9,11.8-35.7,0"/>
	<path fill="none" stroke="#FF0000" stroke-miterlimit="10" d="M347.7,238.3c11.7,11.9,11.9,23.9,0.2,35.7"/>
	<path fill="none" stroke="#FF0000" stroke-miterlimit="10" d="M347.9,274c11.9-11.7,23.8-11.8,35.6-0.1"/>
</g>
<g>
	<path fill="none" stroke="#FF0000" stroke-miterlimit="10" d="M365.6,399.8c-4.6,4.6-10.9,7.4-18,7.4c-14,0-25.4-11.4-25.4-25.4
		c0-7,2.8-13.4,7.4-18"/>
	<path fill="none" stroke="#FF0000" stroke-miterlimit="10" d="M365.6,328c4.6-4.6,10.9-7.4,18-7.4c14,0,25.4,11.4,25.4,25.4
		c0,7-2.8,13.4-7.4,18"/>
	<path fill="none" stroke="#FF0000" stroke-miterlimit="10" d="M401.5,363.9c4.6,4.6,7.4,10.9,7.4,18c0,14-11.4,25.4-25.4,25.4
		c-7,0-13.4-2.8-18-7.4"/>
	<path fill="none" stroke="#FF0000" stroke-miterlimit="10" d="M329.6,363.9c-4.6-4.6-7.4-10.9-7.4-18c0-14,11.4-25.4,25.4-25.4
		c7,0,13.4,2.8,18,7.4"/>
	<line fill="none" stroke="#0000FF" stroke-miterlimit="10" x1="365.6" y1="399.8" x2="391.3" y2="389.2"/>
	<line fill="none" stroke="#FF0000" stroke-miterlimit="10" x1="391.3" y1="389.2" x2="383.3" y2="381.8"/>
	<line fill="none" stroke="#0000FF" stroke-miterlimit="10" x1="390.9" y1="389.4" x2="401.5" y2="363.9"/>
	<line fill="none" stroke="#0000FF" stroke-miterlimit="10" x1="401.5" y1="363.9" x2="390.8" y2="338.2"/>
	<line fill="none" stroke="#FF0000" stroke-miterlimit="10" x1="390.8" y1="338.2" x2="383.3" y2="346.2"/>
	<line fill="none" stroke="#0000FF" stroke-miterlimit="10" x1="391" y1="338.6" x2="365.6" y2="328"/>
	<line fill="none" stroke="#0000FF" stroke-miterlimit="10" x1="365.5" y1="328" x2="339.8" y2="338.7"/>
	<line fill="none" stroke="#FF0000" stroke-miterlimit="10" x1="339.8" y1="338.7" x2="347.6" y2="346.2"/>
	<line fill="none" stroke="#0000FF" stroke-miterlimit="10" x1="340.3" y1="338.5" x2="329.6" y2="364"/>
	<line fill="none" stroke="#0000FF" stroke-miterlimit="10" x1="329.9" y1="363.9" x2="340.5" y2="389.6"/>
	<line fill="none" stroke="#FF0000" stroke-miterlimit="10" x1="340.5" y1="389.6" x2="347.8" y2="381.9"/>
	<line fill="none" stroke="#0000FF" stroke-miterlimit="10" x1="340.4" y1="389.2" x2="365.8" y2="399.8"/>
	<path fill="none" stroke="#FF0000" stroke-miterlimit="10" d="M383.3,381.8c-11.7-11.9-11.8-23.8-0.1-35.6"/>
	<path fill="none" stroke="#FF0000" stroke-miterlimit="10" d="M383.3,346.2c-11.9,11.7-23.9,11.8-35.7,0"/>
	<path fill="none" stroke="#FF0000" stroke-miterlimit="10" d="M347.6,346.2c11.7,11.9,11.9,23.9,0.2,35.7"/>
	<path fill="none" stroke="#FF0000" stroke-miterlimit="10" d="M347.8,381.9c11.9-11.7,23.8-11.8,35.6-0.1"/>
</g>
<line fill="none" stroke="#0000FF" stroke-miterlimit="10" x1="149.2" y1="399.8" x2="149.4" y2="435.9"/>
<line fill="none" stroke="#0000FF" stroke-miterlimit="10" x1="257.4" y1="399.9" x2="257.2" y2="435.9"/>
<line fill="none" stroke="#0000FF" stroke-miterlimit="10" x1="77" y1="472.7" x2="113.2" y2="472.4"/>
<line fill="none" stroke="#0000FF" stroke-miterlimit="10" x1="293.7" y1="472.5" x2="329.9" y2="472.2"/>
<line fill="none" stroke="#0000FF" stroke-miterlimit="10" x1="401.8" y1="472.5" x2="438.1" y2="472.2"/>
<line fill="none" stroke="#0000FF" stroke-miterlimit="10" x1="185.3" y1="472.4" x2="221.5" y2="472.5"/>
<line fill="none" stroke="#0000FF" stroke-miterlimit="10" x1="366.1" y1="508.3" x2="366.2" y2="544.5"/>
<g>
	<path fill="none" stroke="#FF0000" stroke-miterlimit="10" d="M149.2,508.5c-4.6,4.6-10.9,7.4-18,7.4c-14,0-25.4-11.4-25.4-25.4
		c0-7,2.8-13.4,7.4-18"/>
	<path fill="none" stroke="#FF0000" stroke-miterlimit="10" d="M149.2,436.6c4.6-4.6,10.9-7.4,18-7.4c14,0,25.4,11.4,25.4,25.4
		c0,7-2.8,13.4-7.4,18"/>
	<path fill="none" stroke="#FF0000" stroke-miterlimit="10" d="M185.1,472.6c4.6,4.6,7.4,10.9,7.4,18c0,14-11.4,25.4-25.4,25.4
		c-7,0-13.4-2.8-18-7.4"/>
	<path fill="none" stroke="#FF0000" stroke-miterlimit="10" d="M113.2,472.6c-4.6-4.6-7.4-10.9-7.4-18c0-14,11.4-25.4,25.4-25.4
		c7,0,13.4,2.8,18,7.4"/>
	<line fill="none" stroke="#0000FF" stroke-miterlimit="10" x1="149.2" y1="508.5" x2="174.9" y2="497.8"/>
	<line fill="none" stroke="#FF0000" stroke-miterlimit="10" x1="174.9" y1="497.8" x2="166.9" y2="490.5"/>
	<line fill="none" stroke="#0000FF" stroke-miterlimit="10" x1="174.4" y1="498" x2="185.1" y2="472.6"/>
	<line fill="none" stroke="#0000FF" stroke-miterlimit="10" x1="185.1" y1="472.6" x2="174.4" y2="446.8"/>
	<line fill="none" stroke="#FF0000" stroke-miterlimit="10" x1="174.4" y1="446.8" x2="166.8" y2="454.8"/>
	<line fill="none" stroke="#0000FF" stroke-miterlimit="10" x1="174.6" y1="447.3" x2="149.1" y2="436.6"/>
	<line fill="none" stroke="#0000FF" stroke-miterlimit="10" x1="149.1" y1="436.7" x2="123.4" y2="447.3"/>
	<line fill="none" stroke="#FF0000" stroke-miterlimit="10" x1="123.4" y1="447.3" x2="131.1" y2="454.8"/>
	<line fill="none" stroke="#0000FF" stroke-miterlimit="10" x1="123.8" y1="447.2" x2="113.2" y2="472.6"/>
	<line fill="none" stroke="#0000FF" stroke-miterlimit="10" x1="113.5" y1="472.6" x2="124.1" y2="498.3"/>
	<line fill="none" stroke="#FF0000" stroke-miterlimit="10" x1="124.1" y1="498.3" x2="131.3" y2="490.5"/>
	<line fill="none" stroke="#0000FF" stroke-miterlimit="10" x1="123.9" y1="497.8" x2="149.4" y2="508.5"/>
	<path fill="none" stroke="#FF0000" stroke-miterlimit="10" d="M166.9,490.5c-11.7-11.9-11.8-23.8-0.1-35.6"/>
	<path fill="none" stroke="#FF0000" stroke-miterlimit="10" d="M166.8,454.8c-11.9,11.7-23.9,11.8-35.7,0"/>
	<path fill="none" stroke="#FF0000" stroke-miterlimit="10" d="M131.1,454.8c11.7,11.9,11.9,23.9,0.2,35.7"/>
	<path fill="none" stroke="#FF0000" stroke-miterlimit="10" d="M131.3,490.5c11.9-11.7,23.8-11.8,35.6-0.1"/>
</g>
<g>
	<path fill="none" stroke="#FF0000" stroke-miterlimit="10" d="M257.5,508.2c-4.6,4.6-10.9,7.4-18,7.4c-14,0-25.4-11.4-25.4-25.4
		c0-7,2.8-13.4,7.4-18"/>
	<path fill="none" stroke="#FF0000" stroke-miterlimit="10" d="M257.5,436.3c4.6-4.6,10.9-7.4,18-7.4c14,0,25.4,11.4,25.4,25.4
		c0,7-2.8,13.4-7.4,18"/>
	<path fill="none" stroke="#FF0000" stroke-miterlimit="10" d="M293.4,472.2c4.6,4.6,7.4,10.9,7.4,18c0,14-11.4,25.4-25.4,25.4
		c-7,0-13.4-2.8-18-7.4"/>
	<path fill="none" stroke="#FF0000" stroke-miterlimit="10" d="M221.5,472.2c-4.6-4.6-7.4-10.9-7.4-18c0-14,11.4-25.4,25.4-25.4
		c7,0,13.4,2.8,18,7.4"/>
	<line fill="none" stroke="#0000FF" stroke-miterlimit="10" x1="257.5" y1="508.2" x2="283.2" y2="497.5"/>
	<line fill="none" stroke="#FF0000" stroke-miterlimit="10" x1="283.2" y1="497.5" x2="275.2" y2="490.1"/>
	<line fill="none" stroke="#0000FF" stroke-miterlimit="10" x1="282.7" y1="497.7" x2="293.4" y2="472.2"/>
	<line fill="none" stroke="#0000FF" stroke-miterlimit="10" x1="293.4" y1="472.2" x2="282.7" y2="446.5"/>
	<line fill="none" stroke="#FF0000" stroke-miterlimit="10" x1="282.7" y1="446.5" x2="275.1" y2="454.5"/>
	<line fill="none" stroke="#0000FF" stroke-miterlimit="10" x1="282.9" y1="447" x2="257.4" y2="436.3"/>
	<line fill="none" stroke="#0000FF" stroke-miterlimit="10" x1="257.4" y1="436.4" x2="231.7" y2="447"/>
	<line fill="none" stroke="#FF0000" stroke-miterlimit="10" x1="231.7" y1="447" x2="239.5" y2="454.5"/>
	<line fill="none" stroke="#0000FF" stroke-miterlimit="10" x1="232.2" y1="446.8" x2="221.5" y2="472.3"/>
	<line fill="none" stroke="#0000FF" stroke-miterlimit="10" x1="221.8" y1="472.2" x2="232.4" y2="498"/>
	<line fill="none" stroke="#FF0000" stroke-miterlimit="10" x1="232.4" y1="498" x2="239.6" y2="490.2"/>
	<line fill="none" stroke="#0000FF" stroke-miterlimit="10" x1="232.2" y1="497.5" x2="257.7" y2="508.2"/>
	<path fill="none" stroke="#FF0000" stroke-miterlimit="10" d="M275.2,490.1c-11.7-11.9-11.8-23.8-0.1-35.6"/>
	<path fill="none" stroke="#FF0000" stroke-miterlimit="10" d="M275.1,454.5c-11.9,11.7-23.9,11.8-35.7,0"/>
	<path fill="none" stroke="#FF0000" stroke-miterlimit="10" d="M239.5,454.5c11.7,11.9,11.9,23.9,0.2,35.7"/>
	<path fill="none" stroke="#FF0000" stroke-miterlimit="10" d="M239.6,490.2c11.9-11.7,23.8-11.8,35.6-0.1"/>
</g>
<g>
	<path fill="none" stroke="#FF0000" stroke-miterlimit="10" d="M365.8,508.3c-4.6,4.6-10.9,7.4-18,7.4c-14,0-25.4-11.4-25.4-25.4
		c0-7,2.8-13.4,7.4-18"/>
	<path fill="none" stroke="#FF0000" stroke-miterlimit="10" d="M365.8,436.5c4.6-4.6,10.9-7.4,18-7.4c14,0,25.4,11.4,25.4,25.4
		c0,7-2.8,13.4-7.4,18"/>
	<path fill="none" stroke="#FF0000" stroke-miterlimit="10" d="M401.7,472.4c4.6,4.6,7.4,10.9,7.4,18c0,14-11.4,25.4-25.4,25.4
		c-7,0-13.4-2.8-18-7.4"/>
	<path fill="none" stroke="#FF0000" stroke-miterlimit="10" d="M329.8,472.4c-4.6-4.6-7.4-10.9-7.4-18c0-14,11.4-25.4,25.4-25.4
		c7,0,13.4,2.8,18,7.4"/>
	<line fill="none" stroke="#0000FF" stroke-miterlimit="10" x1="365.8" y1="508.3" x2="391.5" y2="497.7"/>
	<line fill="none" stroke="#FF0000" stroke-miterlimit="10" x1="391.5" y1="497.7" x2="383.5" y2="490.3"/>
	<line fill="none" stroke="#0000FF" stroke-miterlimit="10" x1="391" y1="497.9" x2="401.7" y2="472.4"/>
	<line fill="none" stroke="#0000FF" stroke-miterlimit="10" x1="401.6" y1="472.4" x2="391" y2="446.7"/>
	<line fill="none" stroke="#FF0000" stroke-miterlimit="10" x1="391" y1="446.7" x2="383.4" y2="454.7"/>
	<line fill="none" stroke="#0000FF" stroke-miterlimit="10" x1="391.2" y1="447.1" x2="365.7" y2="436.5"/>
	<line fill="none" stroke="#0000FF" stroke-miterlimit="10" x1="365.7" y1="436.5" x2="340" y2="447.2"/>
	<line fill="none" stroke="#FF0000" stroke-miterlimit="10" x1="340" y1="447.2" x2="347.7" y2="454.7"/>
	<line fill="none" stroke="#0000FF" stroke-miterlimit="10" x1="340.4" y1="447" x2="329.8" y2="472.5"/>
	<line fill="none" stroke="#0000FF" stroke-miterlimit="10" x1="330" y1="472.4" x2="340.7" y2="498.1"/>
	<line fill="none" stroke="#FF0000" stroke-miterlimit="10" x1="340.7" y1="498.1" x2="347.9" y2="490.4"/>
	<line fill="none" stroke="#0000FF" stroke-miterlimit="10" x1="340.5" y1="497.7" x2="366" y2="508.3"/>
	<path fill="none" stroke="#FF0000" stroke-miterlimit="10" d="M383.5,490.3c-11.7-11.9-11.8-23.8-0.1-35.6"/>
	<path fill="none" stroke="#FF0000" stroke-miterlimit="10" d="M383.4,454.7c-11.9,11.7-23.9,11.8-35.7,0"/>
	<path fill="none" stroke="#FF0000" stroke-miterlimit="10" d="M347.7,454.7c11.7,11.9,11.9,23.9,0.2,35.7"/>
	<path fill="none" stroke="#FF0000" stroke-miterlimit="10" d="M347.9,490.4c11.9-11.7,23.8-11.8,35.6-0.1"/>
</g>
<line fill="none" stroke="#0000FF" stroke-miterlimit="10" x1="149.4" y1="508.3" x2="149.6" y2="544.4"/>
<line fill="none" stroke="#0000FF" stroke-miterlimit="10" x1="257.6" y1="508.4" x2="257.3" y2="544.4"/>
<line fill="none" stroke="#0000FF" stroke-miterlimit="10" x1="185.1" y1="255.9" x2="221.5" y2="256"/>
<line fill="none" stroke="#0000FF" stroke-miterlimit="10" x1="293.5" y1="256" x2="329.8" y2="256.1"/>
<rect x="77.2" y="184" fill="none" stroke="#000000" stroke-miterlimit="10" width="360.4" height="360.4"/>
<line fill="none" stroke="#FFFF00" stroke-miterlimit="10" x1="329.9" y1="363.9" x2="347.6" y2="346.2"/>
<line fill="none" stroke="#FFFF00" stroke-miterlimit="10" x1="347.8" y1="381.9" x2="329.7" y2="363.8"/>
<line fill="none" stroke="#FFFF00" stroke-miterlimit="10" x1="401.7" y1="364" x2="383.3" y2="346.2"/>
<line fill="none" stroke="#FFFF00" stroke-miterlimit="10" x1="383.3" y1="381.8" x2="401.7" y2="364"/>
<line fill="none" stroke="#FFFF00" stroke-miterlimit="10" x1="347.8" y1="381.9" x2="366" y2="399.8"/>
<line fill="none" stroke="#FFFF00" stroke-miterlimit="10" x1="383.3" y1="381.8" x2="366" y2="399.8"/>
<line fill="none" stroke="#FFFF00" stroke-miterlimit="10" x1="347.6" y1="346.2" x2="366" y2="328"/>
<line fill="none" stroke="#FFFF00" stroke-miterlimit="10" x1="383.3" y1="346.2" x2="366" y2="328"/>
<line fill="none" stroke="#FFFF00" stroke-miterlimit="10" x1="329.9" y1="472.4" x2="347.6" y2="454.7"/>
<line fill="none" stroke="#FFFF00" stroke-miterlimit="10" x1="347.8" y1="490.4" x2="329.7" y2="472.2"/>
<line fill="none" stroke="#FFFF00" stroke-miterlimit="10" x1="401.7" y1="472.5" x2="383.3" y2="454.7"/>
<line fill="none" stroke="#FFFF00" stroke-miterlimit="10" x1="383.3" y1="490.2" x2="401.7" y2="472.5"/>
<line fill="none" stroke="#FFFF00" stroke-miterlimit="10" x1="347.8" y1="490.4" x2="366" y2="508.2"/>
<line fill="none" stroke="#FFFF00" stroke-miterlimit="10" x1="383.3" y1="490.2" x2="366" y2="508.2"/>
<line fill="none" stroke="#FFFF00" stroke-miterlimit="10" x1="347.6" y1="454.7" x2="366" y2="436.5"/>
<line fill="none" stroke="#FFFF00" stroke-miterlimit="10" x1="383.3" y1="454.7" x2="366" y2="436.5"/>
<line fill="none" stroke="#FFFF00" stroke-miterlimit="10" x1="329.9" y1="256.2" x2="347.6" y2="238.5"/>
<line fill="none" stroke="#FFFF00" stroke-miterlimit="10" x1="347.8" y1="274.2" x2="329.7" y2="256.1"/>
<line fill="none" stroke="#FFFF00" stroke-miterlimit="10" x1="401.7" y1="256.3" x2="383.3" y2="238.5"/>
<line fill="none" stroke="#FFFF00" stroke-miterlimit="10" x1="383.3" y1="274.1" x2="401.7" y2="256.3"/>
<line fill="none" stroke="#FFFF00" stroke-miterlimit="10" x1="347.8" y1="274.2" x2="366" y2="292.1"/>
<line fill="none" stroke="#FFFF00" stroke-miterlimit="10" x1="383.3" y1="274.1" x2="366" y2="292.1"/>
<line fill="none" stroke="#FFFF00" stroke-miterlimit="10" x1="347.6" y1="238.5" x2="366" y2="220.3"/>
<line fill="none" stroke="#FFFF00" stroke-miterlimit="10" x1="383.3" y1="238.5" x2="366" y2="220.3"/>
<line fill="none" stroke="#FFFF00" stroke-miterlimit="10" x1="221.3" y1="363.9" x2="239" y2="346.2"/>
<line fill="none" stroke="#FFFF00" stroke-miterlimit="10" x1="239.2" y1="381.9" x2="221.1" y2="363.8"/>
<line fill="none" stroke="#FFFF00" stroke-miterlimit="10" x1="293.5" y1="364" x2="274.7" y2="346.2"/>
<line fill="none" stroke="#FFFF00" stroke-miterlimit="10" x1="274.7" y1="381.8" x2="293.5" y2="364"/>
<line fill="none" stroke="#FFFF00" stroke-miterlimit="10" x1="239.2" y1="381.9" x2="257.4" y2="399.8"/>
<line fill="none" stroke="#FFFF00" stroke-miterlimit="10" x1="274.7" y1="381.8" x2="257.4" y2="399.8"/>
<line fill="none" stroke="#FFFF00" stroke-miterlimit="10" x1="239" y1="346.2" x2="257.4" y2="328"/>
<line fill="none" stroke="#FFFF00" stroke-miterlimit="10" x1="274.7" y1="346.2" x2="257.4" y2="328"/>
<line fill="none" stroke="#FFFF00" stroke-miterlimit="10" x1="221.3" y1="472.4" x2="239" y2="454.7"/>
<line fill="none" stroke="#FFFF00" stroke-miterlimit="10" x1="239.2" y1="490.4" x2="221.1" y2="472.2"/>
<line fill="none" stroke="#FFFF00" stroke-miterlimit="10" x1="293.1" y1="472.5" x2="274.7" y2="454.7"/>
<line fill="none" stroke="#FFFF00" stroke-miterlimit="10" x1="274.7" y1="490.2" x2="293.1" y2="472.5"/>
<line fill="none" stroke="#FFFF00" stroke-miterlimit="10" x1="239.2" y1="490.4" x2="257.4" y2="508.2"/>
<line fill="none" stroke="#FFFF00" stroke-miterlimit="10" x1="274.7" y1="490.2" x2="257.4" y2="508.2"/>
<line fill="none" stroke="#FFFF00" stroke-miterlimit="10" x1="239" y1="454.7" x2="257.4" y2="436.5"/>
<line fill="none" stroke="#FFFF00" stroke-miterlimit="10" x1="274.7" y1="454.7" x2="257.4" y2="436.5"/>
<line fill="none" stroke="#FFFF00" stroke-miterlimit="10" x1="221.3" y1="256.2" x2="239" y2="238.5"/>
<line fill="none" stroke="#FFFF00" stroke-miterlimit="10" x1="239.2" y1="274.2" x2="221.1" y2="256.1"/>
<line fill="none" stroke="#FFFF00" stroke-miterlimit="10" x1="293.1" y1="256.3" x2="274.7" y2="238.5"/>
<line fill="none" stroke="#FFFF00" stroke-miterlimit="10" x1="274.7" y1="274.1" x2="293.1" y2="256.3"/>
<line fill="none" stroke="#FFFF00" stroke-miterlimit="10" x1="239.2" y1="274.2" x2="257.4" y2="292.1"/>
<line fill="none" stroke="#FFFF00" stroke-miterlimit="10" x1="274.7" y1="274.1" x2="257.4" y2="292.1"/>
<line fill="none" stroke="#FFFF00" stroke-miterlimit="10" x1="239" y1="238.5" x2="257.4" y2="220.3"/>
<line fill="none" stroke="#FFFF00" stroke-miterlimit="10" x1="274.7" y1="238.5" x2="257.4" y2="220.3"/>
<line fill="none" stroke="#FFFF00" stroke-miterlimit="10" x1="113.1" y1="363.9" x2="130.8" y2="346.2"/>
<line fill="none" stroke="#FFFF00" stroke-miterlimit="10" x1="131" y1="381.9" x2="112.9" y2="363.8"/>
<line fill="none" stroke="#FFFF00" stroke-miterlimit="10" x1="184.9" y1="364" x2="166.5" y2="346.2"/>
<line fill="none" stroke="#FFFF00" stroke-miterlimit="10" x1="166.5" y1="381.8" x2="184.9" y2="364"/>
<line fill="none" stroke="#FFFF00" stroke-miterlimit="10" x1="131" y1="381.9" x2="149.2" y2="399.8"/>
<line fill="none" stroke="#FFFF00" stroke-miterlimit="10" x1="166.5" y1="381.8" x2="149.2" y2="399.8"/>
<line fill="none" stroke="#FFFF00" stroke-miterlimit="10" x1="130.8" y1="346.2" x2="149.2" y2="328"/>
<line fill="none" stroke="#FFFF00" stroke-miterlimit="10" x1="166.5" y1="346.2" x2="149.2" y2="328"/>
<line fill="none" stroke="#FFFF00" stroke-miterlimit="10" x1="113.1" y1="472.4" x2="130.8" y2="454.7"/>
<line fill="none" stroke="#FFFF00" stroke-miterlimit="10" x1="131" y1="490.4" x2="112.9" y2="472.2"/>
<line fill="none" stroke="#FFFF00" stroke-miterlimit="10" x1="184.9" y1="472.5" x2="166.5" y2="454.7"/>
<line fill="none" stroke="#FFFF00" stroke-miterlimit="10" x1="166.5" y1="490.2" x2="184.9" y2="472.5"/>
<line fill="none" stroke="#FFFF00" stroke-miterlimit="10" x1="131" y1="490.4" x2="149.2" y2="508.2"/>
<line fill="none" stroke="#FFFF00" stroke-miterlimit="10" x1="166.5" y1="490.2" x2="149.2" y2="508.2"/>
<line fill="none" stroke="#FFFF00" stroke-miterlimit="10" x1="130.8" y1="454.7" x2="149.2" y2="436.5"/>
<line fill="none" stroke="#FFFF00" stroke-miterlimit="10" x1="166.5" y1="454.7" x2="149.2" y2="436.5"/>
<line fill="none" stroke="#FFFF00" stroke-miterlimit="10" x1="113.2" y1="255.9" x2="130.8" y2="238.5"/>
<line fill="none" stroke="#FFFF00" stroke-miterlimit="10" x1="131" y1="274.2" x2="113.2" y2="255.9"/>
<line fill="none" stroke="#FFFF00" stroke-miterlimit="10" x1="184.9" y1="256.3" x2="166.5" y2="238.5"/>
<line fill="none" stroke="#FFFF00" stroke-miterlimit="10" x1="166.5" y1="274.1" x2="184.9" y2="256.3"/>
<line fill="none" stroke="#FFFF00" stroke-miterlimit="10" x1="131" y1="274.2" x2="149.2" y2="292.1"/>
<line fill="none" stroke="#FFFF00" stroke-miterlimit="10" x1="166.5" y1="274.1" x2="149.2" y2="292.1"/>
<line fill="none" stroke="#FFFF00" stroke-miterlimit="10" x1="130.8" y1="238.5" x2="149.2" y2="220.3"/>
<line fill="none" stroke="#FFFF00" stroke-miterlimit="10" x1="166.5" y1="238.5" x2="149.2" y2="220.3"/>
</svg>
