<?xml version="1.0" encoding="utf-8"?>
<!-- Generator: Adobe Illustrator 23.0.3, SVG Export Plug-In . SVG Version: 6.00 Build 0)  -->
<svg version="1.1" xmlns="http://www.w3.org/2000/svg" xmlns:xlink="http://www.w3.org/1999/xlink" x="0px" y="0px"
	 width="595.28px" height="841.89px" viewBox="0 0 595.28 841.89" enable-background="new 0 0 595.28 841.89" xml:space="preserve">
<g id="CutLine">
	<path fill="none" stroke="#000000" stroke-width="2" stroke-miterlimit="10" d="M126.404,692.606
		c-5.701,0-11.336-0.515-16.703-1.571c-30.466-6.002-54.54-27.373-62.826-55.773c-7.797-26.723-0.072-54.5,20.662-74.297
		c9.428-9.004,24-16.189,26.827-17.536l25.617,53.655c-3.55,1.693-9.634,5.287-11.413,6.911c-4.597,4.392-6.16,9.316-4.615,14.61
		c1.602,5.485,6.97,12.067,17.24,14.092c5.868,1.151,14.054,0.156,19.043-2.326c20.482-10.184,34.075-38.003,45.712-66.553
		c10.878-26.688,17.786-54.561,25.1-84.071c5.622-22.688,11.437-46.146,19.265-69.326c23.03-68.194,60.896-138.432,106.62-197.774
		c4.781-6.203,9.089-11.545,13.173-16.331c9.32-10.928,24.104-26.733,44.792-37.778c26.648-14.228,58.277-14.629,82.545-1.054
		c29.947,16.755,42.71,52.773,33.308,93.999c-11.06,48.482-45.359,83.963-75.621,115.267l-3.867,4.003
		c-29.141,30.215-56.643,60.426-72.859,97.722c-9.523,21.9-23.419,63.314-9.485,94.624c12.003,26.974,46.905,35.768,76.166,32.521
		c24.645-2.738,63.266-18.146,61.973-47.844c-0.516-11.828-3.532-40.254-20.361-48.744c-9.103-4.589-31.607-1.369-46.987,9.656
		c-4.073,2.92-8.363,9.702-8.68,17.017c-0.268,6.164,2.485,9.343,4.914,11.425l-38.695,45.144
		c-17.525-15.021-26.624-36.027-25.622-59.146c1.072-24.694,13.884-48.746,33.439-62.764c28.115-20.155,74.379-31.58,108.403-14.422
		c32.087,16.184,50.907,51.428,52.991,99.246c2.754,63.228-55.674,102.959-114.814,109.525c-26.623,2.952-53.861-0.643-76.7-10.136
		c-27.969-11.62-48.837-31.436-60.349-57.307c-22.025-49.491-7.109-104.812,9.283-142.508
		c20.15-46.349,52.837-82.367,84.587-115.287l3.915-4.053c26.072-26.97,53.031-54.858,60.4-87.165
		c2.594-11.368,1.944-25.355-4.367-28.886c-6.673-3.731-16.686-3.099-25.511,1.615c-9.095,4.856-17.596,12.23-27.559,23.913
		c-3.487,4.087-7.082,8.548-11.312,14.038c-41.818,54.27-76.404,118.377-97.386,180.507c-7.041,20.847-12.31,42.102-17.886,64.603
		c-7.499,30.261-15.254,61.55-27.752,92.212c-16.04,39.351-36.143,78.381-74.297,97.352
		C154.923,689.475,140.462,692.606,126.404,692.606z"/>
</g>
<g id="ValleyLine">
</g>
<g id="MountainLine">
	<path fill="none" stroke="#FF0000" stroke-miterlimit="10" d="M396.594,559.701c-25.859-22.162-15.574-59.856,5.792-75.173
		c22.393-16.053,56.566-22.694,77.696-12.038c25.688,12.956,35.358,43.8,36.675,73.992c2.074,47.62-47.149,74.105-88.393,78.686
		c-41.295,4.585-88.531-9.363-106.607-49.98c-16.586-37.275-6.172-82.792,9.385-118.568c17.996-41.389,47.756-74.396,78.724-106.503
		c29.038-30.108,62.26-62.973,71.901-105.245c4.943-21.674,2.745-49.367-18.839-61.442c-16.733-9.362-37.521-7.478-54.026,1.334
		c-14.337,7.653-25.72,18.587-36.176,30.846c-4.217,4.942-8.276,10.038-12.241,15.184c-42.83,55.583-79.552,122.66-102.003,189.142
		c-17.27,51.134-24.478,104.757-45.002,155.106c-12.322,30.229-29.157,66.613-60.003,81.95c-10.989,5.466-25.933,7.256-38.027,4.875
		c-39.102-7.705-56.21-51.873-27.38-79.4c5.605-5.353,16.409-10.925,19.105-12.211"/>
</g>
</svg>
