<?xml version="1.0" encoding="utf-8"?>
<!-- Generator: Adobe Illustrator 23.0.3, SVG Export Plug-In . SVG Version: 6.00 Build 0)  -->
<svg version="1.1" xmlns="http://www.w3.org/2000/svg" xmlns:xlink="http://www.w3.org/1999/xlink" x="0px" y="0px"
	 width="595.28px" height="841.89px" viewBox="0 0 595.28 841.89" enable-background="new 0 0 595.28 841.89" xml:space="preserve">
<g id="CutLine">
	
		<rect x="33.589" y="193.362" fill="none" stroke="#000000" stroke-width="2" stroke-miterlimit="10" width="529.411" height="462.813"/>
</g>
<g id="ValleyLine">
	<path fill="none" stroke="#0000FF" stroke-miterlimit="10" d="M121.826,631.086c5.679,8.523,7.584,16.971,7.09,25.089"/>
	<path fill="none" stroke="#0000FF" stroke-miterlimit="10" d="M210.06,631.086c-9.502-19.207-26.98-23.941-44.117-23.941
		c-17.139,0-34.616,4.734-44.118,23.941"/>
	<path fill="none" stroke="#0000FF" stroke-miterlimit="10" d="M210.06,631.086c-5.679,8.523-7.585,16.971-7.09,25.089"/>
	<path fill="none" stroke="#0000FF" stroke-miterlimit="10" d="M386.528,631.086c5.68,8.523,7.587,16.971,7.092,25.089"/>
	<path fill="none" stroke="#0000FF" stroke-miterlimit="10" d="M474.765,631.086c-9.502-19.207-26.979-23.943-44.117-23.941
		c-17.139-0.002-34.616,4.734-44.119,23.941"/>
	<path fill="none" stroke="#0000FF" stroke-miterlimit="10" d="M474.765,631.086c-5.681,8.523-7.586,16.971-7.092,25.089"/>
	<path fill="none" stroke="#0000FF" stroke-miterlimit="10" d="M342.412,401.847c-9.502-19.208-26.979-23.944-44.117-23.943
		c-17.139-0.001-34.616,4.735-44.118,23.943"/>
	<path fill="none" stroke="#0000FF" stroke-miterlimit="10" d="M254.177,554.674c11.882,17.832,7.246,35.336-1.324,50.178v-0.002
		c-8.568,14.844-21.408,27.61-42.793,26.236"/>
	<path fill="none" stroke="#0000FF" stroke-miterlimit="10" d="M210.06,478.26c-11.882,17.832-7.247,35.336,1.324,50.178
		c8.568,14.842,21.408,27.608,42.793,26.236"/>
	<path fill="none" stroke="#0000FF" stroke-miterlimit="10" d="M210.06,478.26c21.386,1.375,34.225-11.394,42.793-26.236v0.002
		c8.569-14.843,13.206-32.346,1.324-50.179"/>
	<path fill="none" stroke="#0000FF" stroke-miterlimit="10" d="M386.528,478.26c-21.384,1.375-34.225-11.394-42.794-26.236
		l0.002,0.002c-8.57-14.843-13.207-32.346-1.324-50.179"/>
	<path fill="none" stroke="#0000FF" stroke-miterlimit="10" d="M342.412,554.674c21.384,1.372,34.224-11.395,42.793-26.238v0.002
		c8.569-14.842,13.206-32.346,1.323-50.178"/>
	<path fill="none" stroke="#0000FF" stroke-miterlimit="10" d="M342.412,554.674c-11.883,17.832-7.246,35.336,1.324,50.178
		l-0.001-0.002c8.568,14.842,21.409,27.61,42.793,26.236"/>
	<path fill="none" stroke="#0000FF" stroke-miterlimit="10" d="M342.412,554.674c-9.503-19.208-26.979-23.943-44.118-23.943h0.002
		c-17.14,0-34.616,4.735-44.119,23.943"/>
	<path fill="none" stroke="#0000FF" stroke-miterlimit="10" d="M518.881,401.846c9.502-19.207,26.98-23.943,44.118-23.943"/>
	<path fill="none" stroke="#0000FF" stroke-miterlimit="10" d="M518.881,554.672c11.883,17.834,7.246,35.338-1.324,50.18
		l0.002-0.002c-8.569,14.842-21.409,27.61-42.794,26.236"/>
	<path fill="none" stroke="#0000FF" stroke-miterlimit="10" d="M518.881,554.672c9.503-19.206,26.98-23.943,44.119-23.941"/>
	<path fill="none" stroke="#0000FF" stroke-miterlimit="10" d="M474.765,478.258c-11.884,17.834-7.246,35.338,1.324,50.18
		l-0.001-0.002c8.569,14.844,21.409,27.61,42.793,26.236"/>
	<path fill="none" stroke="#0000FF" stroke-miterlimit="10" d="M474.765,478.258c-9.503-19.206-26.98-23.941-44.119-23.94h0.002
		c-17.139-0.001-34.616,4.734-44.119,23.942"/>
	<path fill="none" stroke="#0000FF" stroke-miterlimit="10" d="M474.765,478.258c21.384,1.374,34.225-11.392,42.794-26.235
		l-0.002,0.002c8.57-14.842,13.207-32.346,1.324-50.179"/>
	<path fill="none" stroke="#0000FF" stroke-miterlimit="10" d="M77.707,401.847c-9.502-19.207-26.979-23.943-44.118-23.941"/>
	<path fill="none" stroke="#0000FF" stroke-miterlimit="10" d="M121.825,478.26c9.502-19.208,26.98-23.942,44.119-23.941
		l-0.002-0.001c17.139,0,34.616,4.734,44.119,23.942"/>
	<path fill="none" stroke="#0000FF" stroke-miterlimit="10" d="M121.825,478.26c-21.386,1.375-34.225-11.394-42.793-26.235v0.002
		c-8.569-14.843-13.206-32.346-1.324-50.18"/>
	<path fill="none" stroke="#0000FF" stroke-miterlimit="10" d="M77.707,554.674c21.385,1.374,34.225-11.395,42.794-26.236
		c8.57-14.842,13.206-32.346,1.324-50.178"/>
	<path fill="none" stroke="#0000FF" stroke-miterlimit="10" d="M77.707,554.674c-11.882,17.832-7.246,35.336,1.324,50.178v-0.002
		c8.569,14.844,21.409,27.61,42.794,26.236"/>
	<path fill="none" stroke="#0000FF" stroke-miterlimit="10" d="M77.707,554.674c-9.502-19.208-26.979-23.943-44.119-23.943"/>
	<path fill="none" stroke="#0000FF" stroke-miterlimit="10" d="M121.825,325.434c11.882,17.833,7.246,35.337-1.324,50.179v-0.002
		c-8.568,14.843-21.408,27.61-42.794,26.236"/>
	<path fill="none" stroke="#0000FF" stroke-miterlimit="10" d="M77.707,249.02c-11.882,17.832-7.246,35.336,1.325,50.178
		l-0.001-0.001c8.569,14.843,21.409,27.61,42.793,26.236"/>
	<path fill="none" stroke="#0000FF" stroke-miterlimit="10" d="M77.707,249.02c-9.502-19.207-26.98-23.943-44.118-23.943"/>
	<path fill="none" stroke="#0000FF" stroke-miterlimit="10" d="M77.707,249.02c21.386,1.374,34.225-11.394,42.795-26.237
		l-0.001,0.002c5.197-9.002,8.949-18.984,8.445-29.424"/>
	<path fill="none" stroke="#0000FF" stroke-miterlimit="10" d="M254.177,249.02c-21.386,1.374-34.225-11.394-42.794-26.237
		l0.001,0.002c-5.197-9.002-8.949-18.984-8.444-29.424"/>
	<path fill="none" stroke="#0000FF" stroke-miterlimit="10" d="M210.06,325.434c21.384,1.374,34.224-11.394,42.793-26.237v0.002
		c8.569-14.843,13.206-32.346,1.324-50.178"/>
	<path fill="none" stroke="#0000FF" stroke-miterlimit="10" d="M210.06,325.434c-11.882,17.833-7.247,35.336,1.324,50.179v-0.002
		c8.568,14.842,21.408,27.61,42.793,26.236"/>
	<path fill="none" stroke="#0000FF" stroke-miterlimit="10" d="M210.06,325.434c-9.502-19.207-26.98-23.943-44.119-23.942h0.002
		c-17.139-0.001-34.616,4.735-44.119,23.942"/>
	<path fill="none" stroke="#0000FF" stroke-miterlimit="10" d="M386.528,325.433c11.884,17.833,7.246,35.336-1.323,50.179v-0.002
		c-8.568,14.842-21.408,27.61-42.793,26.236"/>
	<path fill="none" stroke="#0000FF" stroke-miterlimit="10" d="M342.412,249.02c-11.883,17.833-7.246,35.336,1.324,50.177
		c8.568,14.843,21.408,27.61,42.792,26.236"/>
	<path fill="none" stroke="#0000FF" stroke-miterlimit="10" d="M342.412,249.02c-9.502-19.207-26.979-23.943-44.117-23.942
		c-17.139-0.001-34.616,4.735-44.118,23.943"/>
	<path fill="none" stroke="#0000FF" stroke-miterlimit="10" d="M342.412,249.02c21.385,1.374,34.226-11.393,42.794-26.236
		l-0.001,0.002c5.197-9.002,8.948-18.983,8.444-29.423"/>
	<path fill="none" stroke="#0000FF" stroke-miterlimit="10" d="M518.881,249.02c9.502-19.208,26.98-23.943,44.118-23.942"/>
	<path fill="none" stroke="#0000FF" stroke-miterlimit="10" d="M518.881,249.02c-21.385,1.374-34.226-11.393-42.794-26.236
		l0.001,0.002c-5.197-9.002-8.948-18.983-8.444-29.423"/>
	<path fill="none" stroke="#0000FF" stroke-miterlimit="10" d="M474.765,325.433c21.383,1.374,34.224-11.394,42.792-26.236
		c8.57-14.842,13.207-32.345,1.324-50.178"/>
	<path fill="none" stroke="#0000FF" stroke-miterlimit="10" d="M474.765,325.433c-11.884,17.833-7.246,35.335,1.323,50.177
		c8.568,14.842,21.408,27.609,42.793,26.235"/>
	<path fill="none" stroke="#0000FF" stroke-miterlimit="10" d="M474.765,325.433c-9.503-19.208-26.98-23.943-44.119-23.942h0.002
		c-17.139-0.001-34.616,4.735-44.119,23.942"/>
</g>
<g id="MountainLine">
	<path fill="none" stroke="#FF0000" stroke-miterlimit="10" d="M121.826,631.086c-5.602-26.115,26.979-42.148,44.118-42.15"/>
	<path fill="none" stroke="#FF0000" stroke-miterlimit="10" d="M121.826,631.086c-19.815,17.909-49.992-2.289-58.563-17.131"/>
	<path fill="none" stroke="#FF0000" stroke-miterlimit="10" d="M121.826,631.086c11.973,3.865,17.772,13.95,19.661,25.089"/>
	<path fill="none" stroke="#FF0000" stroke-miterlimit="10" d="M210.06,631.086c5.601-26.115-26.98-42.148-44.117-42.15"/>
	<path fill="none" stroke="#FF0000" stroke-miterlimit="10" d="M210.06,631.086c19.817,17.909,49.994-2.289,58.562-17.131"/>
	<path fill="none" stroke="#FF0000" stroke-miterlimit="10" d="M210.06,631.086c-11.972,3.865-17.772,13.95-19.662,25.089"/>
	<path fill="none" stroke="#FF0000" stroke-miterlimit="10" d="M386.528,631.086c-5.6-26.115,26.98-42.15,44.118-42.15"/>
	<path fill="none" stroke="#FF0000" stroke-miterlimit="10" d="M386.528,631.086c-19.815,17.907-49.991-2.291-58.561-17.131"/>
	<path fill="none" stroke="#FF0000" stroke-miterlimit="10" d="M386.528,631.086c11.974,3.865,17.773,13.95,19.663,25.089"/>
	<path fill="none" stroke="#FF0000" stroke-miterlimit="10" d="M474.765,631.086c5.601-26.115-26.979-42.15-44.118-42.15"/>
	<path fill="none" stroke="#FF0000" stroke-miterlimit="10" d="M474.765,631.086c19.815,17.907,49.992-2.291,58.562-17.131"/>
	<path fill="none" stroke="#FF0000" stroke-miterlimit="10" d="M474.765,631.086c-11.974,3.865-17.772,13.95-19.663,25.089"/>
	<path fill="none" stroke="#FF0000" stroke-miterlimit="10" d="M254.177,401.847c-5.601-26.115,26.979-42.151,44.117-42.151"/>
	<path fill="none" stroke="#FF0000" stroke-miterlimit="10" d="M254.177,401.847c-19.817,17.907-49.994-2.29-58.562-17.132"/>
	<path fill="none" stroke="#FF0000" stroke-miterlimit="10" d="M254.177,401.847c25.417,8.207,23.013,44.439,14.445,59.282"/>
	<path fill="none" stroke="#FF0000" stroke-miterlimit="10" d="M342.412,401.847c5.601-26.115-26.979-42.151-44.118-42.151"/>
	<path fill="none" stroke="#FF0000" stroke-miterlimit="10" d="M342.412,401.847c19.815,17.907,49.992-2.29,58.562-17.132"/>
	<path fill="none" stroke="#FF0000" stroke-miterlimit="10" d="M342.412,401.847c-25.418,8.207-23.014,44.439-14.445,59.282"/>
	<path fill="none" stroke="#FF0000" stroke-miterlimit="10" d="M254.177,554.674c-19.815,17.907-49.994-2.291-58.562-17.133"/>
	<path fill="none" stroke="#FF0000" stroke-miterlimit="10" d="M254.177,554.674c25.417,8.205,23.013,44.439,14.445,59.281"/>
	<path fill="none" stroke="#FF0000" stroke-miterlimit="10" d="M254.177,554.674c-5.601-26.116,26.979-42.15,44.117-42.152"/>
	<path fill="none" stroke="#FF0000" stroke-miterlimit="10" d="M210.06,478.26c-25.417,8.206-23.013,44.439-14.445,59.281"/>
	<path fill="none" stroke="#FF0000" stroke-miterlimit="10" d="M210.06,478.26c5.601-26.115-26.98-42.149-44.117-42.15"/>
	<path fill="none" stroke="#FF0000" stroke-miterlimit="10" d="M210.06,478.26c19.816,17.907,49.993-2.29,58.562-17.131"/>
	<path fill="none" stroke="#FF0000" stroke-miterlimit="10" d="M386.528,478.26c25.418,8.206,23.014,44.439,14.445,59.281"/>
	<path fill="none" stroke="#FF0000" stroke-miterlimit="10" d="M386.528,478.26c-5.601-26.115,26.98-42.149,44.118-42.151"/>
	<path fill="none" stroke="#FF0000" stroke-miterlimit="10" d="M386.528,478.26c-19.816,17.907-49.992-2.29-58.561-17.131"/>
	<path fill="none" stroke="#FF0000" stroke-miterlimit="10" d="M342.412,554.674c19.815,17.907,49.992-2.291,58.562-17.133"/>
	<path fill="none" stroke="#FF0000" stroke-miterlimit="10" d="M342.412,554.674c-25.418,8.205-23.014,44.439-14.445,59.281"/>
	<path fill="none" stroke="#FF0000" stroke-miterlimit="10" d="M342.412,554.674c5.601-26.116-26.979-42.15-44.118-42.152"/>
	<path fill="none" stroke="#FF0000" stroke-miterlimit="10" d="M518.881,401.846c-5.601-26.115,26.98-42.15,44.118-42.151"/>
	<path fill="none" stroke="#FF0000" stroke-miterlimit="10" d="M518.881,401.846c-19.815,17.908-49.992-2.289-58.562-17.132"/>
	<path fill="none" stroke="#FF0000" stroke-miterlimit="10" d="M518.881,401.846c25.418,8.207,23.014,44.44,14.445,59.282"/>
	<path fill="none" stroke="#FF0000" stroke-miterlimit="10" d="M518.881,554.672c-19.815,17.909-49.992-2.289-58.562-17.131"/>
	<path fill="none" stroke="#FF0000" stroke-miterlimit="10" d="M518.881,554.672c25.418,8.207,23.014,44.441,14.445,59.283"/>
	<path fill="none" stroke="#FF0000" stroke-miterlimit="10" d="M518.881,554.672c-5.601-26.114,26.98-42.15,44.118-42.15"/>
	<path fill="none" stroke="#FF0000" stroke-miterlimit="10" d="M474.765,478.258c-25.418,8.208-23.014,44.441-14.445,59.283"/>
	<path fill="none" stroke="#FF0000" stroke-miterlimit="10" d="M474.765,478.258c5.601-26.113-26.98-42.148-44.117-42.149"/>
	<path fill="none" stroke="#FF0000" stroke-miterlimit="10" d="M474.765,478.258c19.815,17.909,49.992-2.288,58.562-17.13"/>
	<path fill="none" stroke="#FF0000" stroke-miterlimit="10" d="M77.707,401.847c5.601-26.115-26.979-42.15-44.117-42.151"/>
	<path fill="none" stroke="#FF0000" stroke-miterlimit="10" d="M77.707,401.847c19.817,17.908,49.994-2.29,58.562-17.131"/>
	<path fill="none" stroke="#FF0000" stroke-miterlimit="10" d="M77.707,401.847c-25.417,8.207-23.013,44.44-14.445,59.282"/>
	<path fill="none" stroke="#FF0000" stroke-miterlimit="10" d="M121.825,478.26c25.417,8.208,23.013,44.439,14.445,59.281"/>
	<path fill="none" stroke="#FF0000" stroke-miterlimit="10" d="M121.825,478.26c-5.601-26.114,26.98-42.149,44.118-42.15"/>
	<path fill="none" stroke="#FF0000" stroke-miterlimit="10" d="M121.825,478.26c-19.817,17.907-49.992-2.29-58.562-17.131"/>
	<path fill="none" stroke="#FF0000" stroke-miterlimit="10" d="M77.707,554.674c19.816,17.907,49.993-2.291,58.562-17.133"/>
	<path fill="none" stroke="#FF0000" stroke-miterlimit="10" d="M77.707,554.674c-25.417,8.208-23.013,44.439-14.445,59.281"/>
	<path fill="none" stroke="#FF0000" stroke-miterlimit="10" d="M77.707,554.674c5.601-26.116-26.979-42.15-44.117-42.152"/>
	<path fill="none" stroke="#FF0000" stroke-miterlimit="10" d="M140.532,193.361c3.712,13.514,0.802,29.756-4.262,38.528"/>
	<path fill="none" stroke="#FF0000" stroke-miterlimit="10" d="M191.352,193.361c-3.712,13.514-0.802,29.756,4.262,38.528"/>
	<path fill="none" stroke="#FF0000" stroke-miterlimit="10" d="M121.825,325.434c-19.814,17.908-49.992-2.29-58.562-17.131"/>
	<path fill="none" stroke="#FF0000" stroke-miterlimit="10" d="M121.825,325.434c25.417,8.208,23.013,44.44,14.446,59.282"/>
	<path fill="none" stroke="#FF0000" stroke-miterlimit="10" d="M121.825,325.434c-5.601-26.115,26.98-42.15,44.118-42.151"/>
	<path fill="none" stroke="#FF0000" stroke-miterlimit="10" d="M77.707,249.02c-25.417,8.206-23.013,44.439-14.445,59.282"/>
	<path fill="none" stroke="#FF0000" stroke-miterlimit="10" d="M77.707,249.02c5.601-26.116-26.98-42.15-44.117-42.151"/>
	<path fill="none" stroke="#FF0000" stroke-miterlimit="10" d="M77.707,249.02c19.817,17.908,49.994-2.29,58.563-17.131"/>
	<path fill="none" stroke="#FF0000" stroke-miterlimit="10" d="M254.177,249.02c25.417,8.206,23.013,44.439,14.445,59.281"/>
	<path fill="none" stroke="#FF0000" stroke-miterlimit="10" d="M254.177,249.02c-5.601-26.116,26.979-42.15,44.117-42.151"/>
	<path fill="none" stroke="#FF0000" stroke-miterlimit="10" d="M254.177,249.02c-19.817,17.907-49.994-2.29-58.563-17.131"/>
	<path fill="none" stroke="#FF0000" stroke-miterlimit="10" d="M210.06,325.434c19.814,17.908,49.991-2.29,58.562-17.132"/>
	<path fill="none" stroke="#FF0000" stroke-miterlimit="10" d="M210.06,325.434c-25.417,8.208-23.014,44.44-14.445,59.281"/>
	<path fill="none" stroke="#FF0000" stroke-miterlimit="10" d="M210.06,325.434c5.601-26.115-26.98-42.15-44.118-42.151"/>
	<path fill="none" stroke="#FF0000" stroke-miterlimit="10" d="M405.236,193.36c3.713,13.514,0.802,29.757-4.262,38.529"/>
	<path fill="none" stroke="#FF0000" stroke-miterlimit="10" d="M456.057,193.361c-3.713,13.513-0.802,29.756,4.262,38.527"/>
	<path fill="none" stroke="#FF0000" stroke-miterlimit="10" d="M386.528,325.433c-19.814,17.908-49.992-2.29-58.561-17.131"/>
	<path fill="none" stroke="#FF0000" stroke-miterlimit="10" d="M386.528,325.433c25.418,8.207,23.015,44.441,14.446,59.282"/>
	<path fill="none" stroke="#FF0000" stroke-miterlimit="10" d="M386.528,325.433c-5.601-26.115,26.98-42.15,44.118-42.151"/>
	<path fill="none" stroke="#FF0000" stroke-miterlimit="10" d="M342.412,249.02c-25.418,8.207-23.014,44.44-14.445,59.282"/>
	<path fill="none" stroke="#FF0000" stroke-miterlimit="10" d="M342.412,249.02c5.601-26.115-26.979-42.15-44.117-42.15"/>
	<path fill="none" stroke="#FF0000" stroke-miterlimit="10" d="M342.412,249.02c19.815,17.908,49.992-2.29,58.563-17.131"/>
	<path fill="none" stroke="#FF0000" stroke-miterlimit="10" d="M518.881,249.02c25.418,8.207,23.014,44.44,14.445,59.282"/>
	<path fill="none" stroke="#FF0000" stroke-miterlimit="10" d="M518.881,249.02c-5.601-26.115,26.98-42.15,44.118-42.151"/>
	<path fill="none" stroke="#FF0000" stroke-miterlimit="10" d="M518.881,249.02c-19.816,17.908-49.992-2.29-58.562-17.131"/>
	<path fill="none" stroke="#FF0000" stroke-miterlimit="10" d="M474.765,325.433c19.815,17.908,49.991-2.29,58.562-17.131"/>
	<path fill="none" stroke="#FF0000" stroke-miterlimit="10" d="M474.765,325.433c-25.418,8.207-23.015,44.441-14.445,59.281"/>
	<path fill="none" stroke="#FF0000" stroke-miterlimit="10" d="M474.765,325.433c5.601-26.116-26.98-42.15-44.118-42.151"/>
</g>
</svg>
