<svg xmlns="http://www.w3.org/2000/svg" viewBox="-49.09089965820313 -49.09089965820313 698.1817993164062 589.0907958984375"><line stroke="#000" opacity="1" x1="272.7279968261719" y1="0" x2="327.2720031738281" y2="0" stroke-width="1.6363633219401041"/><line stroke="#000" opacity="1" x1="272.7279968261719" y1="0" x2="245.4550018310547" y2="0" stroke-width="1.6363633219401041"/><line stroke="#000" opacity="1" x1="327.2720031738281" y1="0" x2="354.5450134277344" y2="0" stroke-width="1.6363633219401041"/><line stroke="#000" opacity="1" x1="190.90899658203125" y1="0" x2="245.4550018310547" y2="0" stroke-width="1.6363633219401041"/><line stroke="#000" opacity="1" x1="109.09100341796875" y1="0" x2="163.63600158691406" y2="0" stroke-width="1.6363633219401041"/><line stroke="#000" opacity="1" x1="109.09100341796875" y1="0" x2="81.81800079345703" y2="0" stroke-width="1.6363633219401041"/><line stroke="#000" opacity="1" x1="163.63600158691406" y1="0" x2="190.90899658203125" y2="0" stroke-width="1.6363633219401041"/><line stroke="#000" opacity="1" x1="81.81800079345703" y1="0" x2="0" y2="0" stroke-width="1.6363633219401041"/><line stroke="#000" opacity="1" x1="436.3630065917969" y1="0" x2="490.90899658203125" y2="0" stroke-width="1.6363633219401041"/><line stroke="#000" opacity="1" x1="436.3630065917969" y1="0" x2="409.09100341796875" y2="0" stroke-width="1.6363633219401041"/><line stroke="#000" opacity="1" x1="490.90899658203125" y1="0" x2="518.1820068359375" y2="0" stroke-width="1.6363633219401041"/><line stroke="#000" opacity="1" x1="409.09100341796875" y1="0" x2="354.5450134277344" y2="0" stroke-width="1.6363633219401041"/><line stroke="#000" opacity="1" x1="518.1820068359375" y1="0" x2="600" y2="0" stroke-width="1.6363633219401041"/><line stroke="#000" opacity="1" x1="600" y1="81.81800079345703" x2="600" y2="0" stroke-width="1.6363633219401041"/><line stroke="#000" opacity="1" x1="600" y1="381.8179931640625" x2="600" y2="300" stroke-width="1.6363633219401041"/><line stroke="#000" opacity="1" x1="600" y1="381.8179931640625" x2="600" y2="409.09100341796875" stroke-width="1.6363633219401041"/><line stroke="#000" opacity="1" x1="600" y1="218.1820068359375" x2="600" y2="272.7279968261719" stroke-width="1.6363633219401041"/><line stroke="#000" opacity="1" x1="600" y1="218.1820068359375" x2="600" y2="190.90899658203125" stroke-width="1.6363633219401041"/><line stroke="#000" opacity="1" x1="600" y1="272.7279968261719" x2="600" y2="300" stroke-width="1.6363633219401041"/><line stroke="#000" opacity="1" x1="600" y1="109.09100341796875" x2="600" y2="190.90899658203125" stroke-width="1.6363633219401041"/><line stroke="#000" opacity="1" x1="600" y1="109.09100341796875" x2="600" y2="81.81800079345703" stroke-width="1.6363633219401041"/><line stroke="#000" opacity="1" x1="600" y1="409.09100341796875" x2="600" y2="490.90899658203125" stroke-width="1.6363633219401041"/><line stroke="#000" opacity="1" x1="436.3630065917969" y1="490.90899658203125" x2="490.90899658203125" y2="490.90899658203125" stroke-width="1.6363633219401041"/><line stroke="#000" opacity="1" x1="436.3630065917969" y1="490.90899658203125" x2="409.09100341796875" y2="490.90899658203125" stroke-width="1.6363633219401041"/><line stroke="#000" opacity="1" x1="490.90899658203125" y1="490.90899658203125" x2="518.1820068359375" y2="490.90899658203125" stroke-width="1.6363633219401041"/><line stroke="#000" opacity="1" x1="409.09100341796875" y1="490.90899658203125" x2="354.5450134277344" y2="490.90899658203125" stroke-width="1.6363633219401041"/><line stroke="#000" opacity="1" x1="518.1820068359375" y1="490.90899658203125" x2="600" y2="490.90899658203125" stroke-width="1.6363633219401041"/><line stroke="#000" opacity="1" x1="272.7279968261719" y1="490.90899658203125" x2="327.2720031738281" y2="490.90899658203125" stroke-width="1.6363633219401041"/><line stroke="#000" opacity="1" x1="272.7279968261719" y1="490.90899658203125" x2="245.4550018310547" y2="490.90899658203125" stroke-width="1.6363633219401041"/><line stroke="#000" opacity="1" x1="327.2720031738281" y1="490.90899658203125" x2="354.5450134277344" y2="490.90899658203125" stroke-width="1.6363633219401041"/><line stroke="#000" opacity="1" x1="190.90899658203125" y1="490.90899658203125" x2="245.4550018310547" y2="490.90899658203125" stroke-width="1.6363633219401041"/><line stroke="#000" opacity="1" x1="109.09100341796875" y1="490.90899658203125" x2="163.63600158691406" y2="490.90899658203125" stroke-width="1.6363633219401041"/><line stroke="#000" opacity="1" x1="109.09100341796875" y1="490.90899658203125" x2="81.81800079345703" y2="490.90899658203125" stroke-width="1.6363633219401041"/><line stroke="#000" opacity="1" x1="163.63600158691406" y1="490.90899658203125" x2="190.90899658203125" y2="490.90899658203125" stroke-width="1.6363633219401041"/><line stroke="#000" opacity="1" x1="81.81800079345703" y1="490.90899658203125" x2="0" y2="490.90899658203125" stroke-width="1.6363633219401041"/><line stroke="#000" opacity="1" x1="0" y1="272.7279968261719" x2="0" y2="218.1820068359375" stroke-width="1.6363633219401041"/><line stroke="#000" opacity="1" x1="0" y1="272.7279968261719" x2="0" y2="300" stroke-width="1.6363633219401041"/><line stroke="#000" opacity="1" x1="0" y1="218.1820068359375" x2="0" y2="190.90899658203125" stroke-width="1.6363633219401041"/><line stroke="#000" opacity="1" x1="0" y1="381.8179931640625" x2="0" y2="300" stroke-width="1.6363633219401041"/><line stroke="#000" opacity="1" x1="0" y1="381.8179931640625" x2="0" y2="409.09100341796875" stroke-width="1.6363633219401041"/><line stroke="#000" opacity="1" x1="0" y1="109.09100341796875" x2="0" y2="190.90899658203125" stroke-width="1.6363633219401041"/><line stroke="#000" opacity="1" x1="0" y1="109.09100341796875" x2="0" y2="81.81800079345703" stroke-width="1.6363633219401041"/><line stroke="#000" opacity="1" x1="0" y1="409.09100341796875" x2="0" y2="490.90899658203125" stroke-width="1.6363633219401041"/><line stroke="#000" opacity="1" x1="0" y1="81.81800079345703" x2="0" y2="0" stroke-width="1.6363633219401041"/><line stroke="#f00" opacity="0.5" x1="109.09100341796875" y1="327.2720031738281" x2="81.81800079345703" y2="327.2720031738281" stroke-width="1.6363633219401041"/><line stroke="#f00" opacity="0.5" x1="54.54499816894531" y1="272.7279968261719" x2="54.54499816894531" y2="300" stroke-width="1.6363633219401041"/><line stroke="#f00" opacity="0.5" x1="109.09100341796875" y1="163.63699340820312" x2="81.81800079345703" y2="163.63699340820312" stroke-width="1.6363633219401041"/><line stroke="#f00" opacity="0.5" x1="54.54499816894531" y1="218.1820068359375" x2="54.54499816894531" y2="190.90899658203125" stroke-width="1.6363633219401041"/><line stroke="#f00" opacity="0.5" x1="163.63600158691406" y1="163.63699340820312" x2="190.90899658203125" y2="163.63699340820312" stroke-width="1.6363633219401041"/><line stroke="#f00" opacity="1" x1="218.1820068359375" y1="218.1820068359375" x2="218.1820068359375" y2="190.90899658203125" stroke-width="1.6363633219401041"/><line stroke="#f00" opacity="0.5" x1="163.63600158691406" y1="327.2720031738281" x2="190.90899658203125" y2="327.2720031738281" stroke-width="1.6363633219401041"/><line stroke="#f00" opacity="1" x1="218.1820068359375" y1="272.7279968261719" x2="218.1820068359375" y2="300" stroke-width="1.6363633219401041"/><line stroke="#f00" opacity="0.5" x1="272.7279968261719" y1="436.3630065917969" x2="245.4550018310547" y2="436.3630065917969" stroke-width="1.6363633219401041"/><line stroke="#f00" opacity="0.5" x1="218.1820068359375" y1="381.8179931640625" x2="218.1820068359375" y2="409.09100341796875" stroke-width="1.6363633219401041"/><line stroke="#f00" opacity="0.5" x1="327.2720031738281" y1="436.3630065917969" x2="354.5450134277344" y2="436.3630065917969" stroke-width="1.6363633219401041"/><line stroke="#f00" opacity="0.5" x1="381.8179931640625" y1="381.8179931640625" x2="381.8179931640625" y2="409.09100341796875" stroke-width="1.6363633219401041"/><line stroke="#f00" opacity="0.5" x1="272.7279968261719" y1="54.54499816894531" x2="245.4550018310547" y2="54.54499816894531" stroke-width="1.6363633219401041"/><line stroke="#f00" opacity="0.5" x1="218.1820068359375" y1="109.09100341796875" x2="218.1820068359375" y2="81.81800079345703" stroke-width="1.6363633219401041"/><line stroke="#f00" opacity="0.5" x1="327.2720031738281" y1="54.54499816894531" x2="354.5450134277344" y2="54.54499816894531" stroke-width="1.6363633219401041"/><line stroke="#f00" opacity="0.5" x1="381.8179931640625" y1="109.09100341796875" x2="381.8179931640625" y2="81.81800079345703" stroke-width="1.6363633219401041"/><line stroke="#f00" opacity="0.5" x1="436.3630065917969" y1="327.2720031738281" x2="409.09100341796875" y2="327.2720031738281" stroke-width="1.6363633219401041"/><line stroke="#f00" opacity="1" x1="381.8179931640625" y1="272.7279968261719" x2="381.8179931640625" y2="300" stroke-width="1.6363633219401041"/><line stroke="#f00" opacity="0.5" x1="436.3630065917969" y1="163.63699340820312" x2="409.09100341796875" y2="163.63699340820312" stroke-width="1.6363633219401041"/><line stroke="#f00" opacity="1" x1="381.8179931640625" y1="218.1820068359375" x2="381.8179931640625" y2="190.90899658203125" stroke-width="1.6363633219401041"/><line stroke="#f00" opacity="0.5" x1="490.90899658203125" y1="163.63699340820312" x2="518.1820068359375" y2="163.63699340820312" stroke-width="1.6363633219401041"/><line stroke="#f00" opacity="0.5" x1="545.4550170898438" y1="218.1820068359375" x2="545.4550170898438" y2="190.90899658203125" stroke-width="1.6363633219401041"/><line stroke="#f00" opacity="0.5" x1="490.90899658203125" y1="327.2720031738281" x2="518.1820068359375" y2="327.2720031738281" stroke-width="1.6363633219401041"/><line stroke="#f00" opacity="0.5" x1="545.4550170898438" y1="272.7279968261719" x2="545.4550170898438" y2="300" stroke-width="1.6363633219401041"/><line stroke="#f00" opacity="1" x1="436.3630065917969" y1="381.8179931640625" x2="436.3630065917969" y2="409.09100341796875" stroke-width="1.6363633219401041"/><line stroke="#f00" opacity="1" x1="436.3630065917969" y1="109.09100341796875" x2="436.3630065917969" y2="81.81800079345703" stroke-width="1.6363633219401041"/><line stroke="#f00" opacity="1" x1="490.90899658203125" y1="109.09100341796875" x2="490.90899658203125" y2="81.81800079345703" stroke-width="1.6363633219401041"/><line stroke="#f00" opacity="1" x1="490.90899658203125" y1="381.8179931640625" x2="490.90899658203125" y2="409.09100341796875" stroke-width="1.6363633219401041"/><line stroke="#f00" opacity="1" x1="109.09100341796875" y1="381.8179931640625" x2="109.09100341796875" y2="409.09100341796875" stroke-width="1.6363633219401041"/><line stroke="#f00" opacity="1" x1="109.09100341796875" y1="109.09100341796875" x2="109.09100341796875" y2="81.81800079345703" stroke-width="1.6363633219401041"/><line stroke="#f00" opacity="1" x1="163.63600158691406" y1="109.09100341796875" x2="163.63600158691406" y2="81.81800079345703" stroke-width="1.6363633219401041"/><line stroke="#f00" opacity="1" x1="163.63600158691406" y1="381.8179931640625" x2="163.63600158691406" y2="409.09100341796875" stroke-width="1.6363633219401041"/><line stroke="#f00" opacity="1" x1="218.1820068359375" y1="381.8179931640625" x2="190.90899658203125" y2="381.8179931640625" stroke-width="1.6363633219401041"/><line stroke="#f00" opacity="1" x1="190.90899658203125" y1="409.09100341796875" x2="163.63600158691406" y2="409.09100341796875" stroke-width="1.6363633219401041"/><line stroke="#f00" opacity="1" x1="109.09100341796875" y1="409.09100341796875" x2="81.81800079345703" y2="409.09100341796875" stroke-width="1.6363633219401041"/><line stroke="#f00" opacity="1" x1="381.8179931640625" y1="381.8179931640625" x2="409.09100341796875" y2="381.8179931640625" stroke-width="1.6363633219401041"/><line stroke="#f00" opacity="1" x1="409.09100341796875" y1="409.09100341796875" x2="436.3630065917969" y2="409.09100341796875" stroke-width="1.6363633219401041"/><line stroke="#f00" opacity="1" x1="490.90899658203125" y1="409.09100341796875" x2="518.1820068359375" y2="409.09100341796875" stroke-width="1.6363633219401041"/><line stroke="#f00" opacity="1" x1="218.1820068359375" y1="109.09100341796875" x2="190.90899658203125" y2="109.09100341796875" stroke-width="1.6363633219401041"/><line stroke="#f00" opacity="1" x1="190.90899658203125" y1="81.81800079345703" x2="163.63600158691406" y2="81.81800079345703" stroke-width="1.6363633219401041"/><line stroke="#f00" opacity="1" x1="109.09100341796875" y1="81.81800079345703" x2="81.81800079345703" y2="81.81800079345703" stroke-width="1.6363633219401041"/><line stroke="#f00" opacity="1" x1="381.8179931640625" y1="109.09100341796875" x2="409.09100341796875" y2="109.09100341796875" stroke-width="1.6363633219401041"/><line stroke="#f00" opacity="1" x1="409.09100341796875" y1="81.81800079345703" x2="436.3630065917969" y2="81.81800079345703" stroke-width="1.6363633219401041"/><line stroke="#f00" opacity="1" x1="490.90899658203125" y1="81.81800079345703" x2="518.1820068359375" y2="81.81800079345703" stroke-width="1.6363633219401041"/><line stroke="#00f" opacity="0.75" x1="109.09100341796875" y1="272.7279968261719" x2="81.81800079345703" y2="327.2720031738281" stroke-width="1.6363633219401041"/><line stroke="#00f" opacity="0.75" x1="109.09100341796875" y1="272.7279968261719" x2="54.54499816894531" y2="300" stroke-width="1.6363633219401041"/><line stroke="#00f" opacity="0.75" x1="81.81800079345703" y1="327.2720031738281" x2="54.54499816894531" y2="300" stroke-width="1.6363633219401041"/><line stroke="#00f" opacity="0.75" x1="109.09100341796875" y1="218.1820068359375" x2="81.81800079345703" y2="163.63699340820312" stroke-width="1.6363633219401041"/><line stroke="#00f" opacity="0.75" x1="109.09100341796875" y1="218.1820068359375" x2="54.54499816894531" y2="190.90899658203125" stroke-width="1.6363633219401041"/><line stroke="#00f" opacity="0.75" x1="81.81800079345703" y1="163.63699340820312" x2="54.54499816894531" y2="190.90899658203125" stroke-width="1.6363633219401041"/><line stroke="#00f" opacity="0.75" x1="163.63600158691406" y1="218.1820068359375" x2="190.90899658203125" y2="163.63699340820312" stroke-width="1.6363633219401041"/><line stroke="#00f" opacity="0.75" x1="163.63600158691406" y1="218.1820068359375" x2="218.1820068359375" y2="190.90899658203125" stroke-width="1.6363633219401041"/><line stroke="#00f" opacity="0.75" x1="190.90899658203125" y1="163.63699340820312" x2="218.1820068359375" y2="190.90899658203125" stroke-width="1.6363633219401041"/><line stroke="#00f" opacity="0.75" x1="163.63600158691406" y1="272.7279968261719" x2="190.90899658203125" y2="327.2720031738281" stroke-width="1.6363633219401041"/><line stroke="#00f" opacity="0.75" x1="163.63600158691406" y1="272.7279968261719" x2="218.1820068359375" y2="300" stroke-width="1.6363633219401041"/><line stroke="#00f" opacity="0.75" x1="190.90899658203125" y1="327.2720031738281" x2="218.1820068359375" y2="300" stroke-width="1.6363633219401041"/><line stroke="#00f" opacity="0.75" x1="272.7279968261719" y1="381.8179931640625" x2="245.4550018310547" y2="436.3630065917969" stroke-width="1.6363633219401041"/><line stroke="#00f" opacity="0.75" x1="272.7279968261719" y1="381.8179931640625" x2="218.1820068359375" y2="409.09100341796875" stroke-width="1.6363633219401041"/><line stroke="#00f" opacity="0.75" x1="245.4550018310547" y1="436.3630065917969" x2="218.1820068359375" y2="409.09100341796875" stroke-width="1.6363633219401041"/><line stroke="#00f" opacity="0.75" x1="327.2720031738281" y1="381.8179931640625" x2="354.5450134277344" y2="436.3630065917969" stroke-width="1.6363633219401041"/><line stroke="#00f" opacity="0.75" x1="327.2720031738281" y1="381.8179931640625" x2="381.8179931640625" y2="409.09100341796875" stroke-width="1.6363633219401041"/><line stroke="#00f" opacity="0.75" x1="354.5450134277344" y1="436.3630065917969" x2="381.8179931640625" y2="409.09100341796875" stroke-width="1.6363633219401041"/><line stroke="#00f" opacity="0.75" x1="272.7279968261719" y1="109.09100341796875" x2="245.4550018310547" y2="54.54499816894531" stroke-width="1.6363633219401041"/><line stroke="#00f" opacity="0.75" x1="272.7279968261719" y1="109.09100341796875" x2="218.1820068359375" y2="81.81800079345703" stroke-width="1.6363633219401041"/><line stroke="#00f" opacity="0.75" x1="245.4550018310547" y1="54.54499816894531" x2="218.1820068359375" y2="81.81800079345703" stroke-width="1.6363633219401041"/><line stroke="#00f" opacity="0.75" x1="327.2720031738281" y1="109.09100341796875" x2="354.5450134277344" y2="54.54499816894531" stroke-width="1.6363633219401041"/><line stroke="#00f" opacity="0.75" x1="327.2720031738281" y1="109.09100341796875" x2="381.8179931640625" y2="81.81800079345703" stroke-width="1.6363633219401041"/><line stroke="#00f" opacity="0.75" x1="354.5450134277344" y1="54.54499816894531" x2="381.8179931640625" y2="81.81800079345703" stroke-width="1.6363633219401041"/><line stroke="#00f" opacity="0.75" x1="436.3630065917969" y1="272.7279968261719" x2="409.09100341796875" y2="327.2720031738281" stroke-width="1.6363633219401041"/><line stroke="#00f" opacity="0.75" x1="436.3630065917969" y1="272.7279968261719" x2="381.8179931640625" y2="300" stroke-width="1.6363633219401041"/><line stroke="#00f" opacity="0.75" x1="409.09100341796875" y1="327.2720031738281" x2="381.8179931640625" y2="300" stroke-width="1.6363633219401041"/><line stroke="#00f" opacity="0.75" x1="436.3630065917969" y1="218.1820068359375" x2="409.09100341796875" y2="163.63699340820312" stroke-width="1.6363633219401041"/><line stroke="#00f" opacity="0.75" x1="436.3630065917969" y1="218.1820068359375" x2="381.8179931640625" y2="190.90899658203125" stroke-width="1.6363633219401041"/><line stroke="#00f" opacity="0.75" x1="409.09100341796875" y1="163.63699340820312" x2="381.8179931640625" y2="190.90899658203125" stroke-width="1.6363633219401041"/><line stroke="#00f" opacity="0.75" x1="490.90899658203125" y1="218.1820068359375" x2="518.1820068359375" y2="163.63699340820312" stroke-width="1.6363633219401041"/><line stroke="#00f" opacity="0.75" x1="490.90899658203125" y1="218.1820068359375" x2="545.4550170898438" y2="190.90899658203125" stroke-width="1.6363633219401041"/><line stroke="#00f" opacity="0.75" x1="518.1820068359375" y1="163.63699340820312" x2="545.4550170898438" y2="190.90899658203125" stroke-width="1.6363633219401041"/><line stroke="#00f" opacity="0.75" x1="490.90899658203125" y1="272.7279968261719" x2="518.1820068359375" y2="327.2720031738281" stroke-width="1.6363633219401041"/><line stroke="#00f" opacity="0.75" x1="490.90899658203125" y1="272.7279968261719" x2="545.4550170898438" y2="300" stroke-width="1.6363633219401041"/><line stroke="#00f" opacity="0.75" x1="518.1820068359375" y1="327.2720031738281" x2="545.4550170898438" y2="300" stroke-width="1.6363633219401041"/><line stroke="#00f" opacity="1" x1="409.09100341796875" y1="381.8179931640625" x2="409.09100341796875" y2="409.09100341796875" stroke-width="1.6363633219401041"/><line stroke="#00f" opacity="1" x1="409.09100341796875" y1="109.09100341796875" x2="409.09100341796875" y2="81.81800079345703" stroke-width="1.6363633219401041"/><line stroke="#00f" opacity="1" x1="518.1820068359375" y1="109.09100341796875" x2="518.1820068359375" y2="81.81800079345703" stroke-width="1.6363633219401041"/><line stroke="#00f" opacity="1" x1="518.1820068359375" y1="381.8179931640625" x2="518.1820068359375" y2="409.09100341796875" stroke-width="1.6363633219401041"/><line stroke="#00f" opacity="1" x1="81.81800079345703" y1="381.8179931640625" x2="81.81800079345703" y2="409.09100341796875" stroke-width="1.6363633219401041"/><line stroke="#00f" opacity="1" x1="81.81800079345703" y1="109.09100341796875" x2="81.81800079345703" y2="81.81800079345703" stroke-width="1.6363633219401041"/><line stroke="#00f" opacity="1" x1="190.90899658203125" y1="109.09100341796875" x2="190.90899658203125" y2="81.81800079345703" stroke-width="1.6363633219401041"/><line stroke="#00f" opacity="1" x1="190.90899658203125" y1="381.8179931640625" x2="190.90899658203125" y2="409.09100341796875" stroke-width="1.6363633219401041"/><line stroke="#00f" opacity="1" x1="190.90899658203125" y1="381.8179931640625" x2="163.63600158691406" y2="381.8179931640625" stroke-width="1.6363633219401041"/><line stroke="#00f" opacity="1" x1="109.09100341796875" y1="381.8179931640625" x2="81.81800079345703" y2="381.8179931640625" stroke-width="1.6363633219401041"/><line stroke="#00f" opacity="1" x1="218.1820068359375" y1="409.09100341796875" x2="190.90899658203125" y2="409.09100341796875" stroke-width="1.6363633219401041"/><line stroke="#00f" opacity="0.5" x1="272.7279968261719" y1="300" x2="272.7279968261719" y2="272.7279968261719" stroke-width="1.6363633219401041"/><line stroke="#00f" opacity="0.5" x1="272.7279968261719" y1="218.1820068359375" x2="272.7279968261719" y2="190.90899658203125" stroke-width="1.6363633219401041"/><line stroke="#00f" opacity="1" x1="409.09100341796875" y1="381.8179931640625" x2="436.3630065917969" y2="381.8179931640625" stroke-width="1.6363633219401041"/><line stroke="#00f" opacity="1" x1="490.90899658203125" y1="381.8179931640625" x2="518.1820068359375" y2="381.8179931640625" stroke-width="1.6363633219401041"/><line stroke="#00f" opacity="1" x1="381.8179931640625" y1="409.09100341796875" x2="409.09100341796875" y2="409.09100341796875" stroke-width="1.6363633219401041"/><line stroke="#00f" opacity="0.5" x1="327.2720031738281" y1="300" x2="327.2720031738281" y2="272.7279968261719" stroke-width="1.6363633219401041"/><line stroke="#00f" opacity="0.5" x1="327.2720031738281" y1="218.1820068359375" x2="327.2720031738281" y2="190.90899658203125" stroke-width="1.6363633219401041"/><line stroke="#00f" opacity="1" x1="190.90899658203125" y1="109.09100341796875" x2="163.63600158691406" y2="109.09100341796875" stroke-width="1.6363633219401041"/><line stroke="#00f" opacity="1" x1="109.09100341796875" y1="109.09100341796875" x2="81.81800079345703" y2="109.09100341796875" stroke-width="1.6363633219401041"/><line stroke="#00f" opacity="1" x1="218.1820068359375" y1="81.81800079345703" x2="190.90899658203125" y2="81.81800079345703" stroke-width="1.6363633219401041"/><line stroke="#00f" opacity="1" x1="409.09100341796875" y1="109.09100341796875" x2="436.3630065917969" y2="109.09100341796875" stroke-width="1.6363633219401041"/><line stroke="#00f" opacity="1" x1="490.90899658203125" y1="109.09100341796875" x2="518.1820068359375" y2="109.09100341796875" stroke-width="1.6363633219401041"/><line stroke="#00f" opacity="1" x1="381.8179931640625" y1="81.81800079345703" x2="409.09100341796875" y2="81.81800079345703" stroke-width="1.6363633219401041"/><line stroke="#f00" opacity="1" x1="436.3630065917969" y1="272.7279968261719" x2="436.3630065917969" y2="327.2720031738281" stroke-width="1.6363633219401041"/><line stroke="#f00" opacity="1" x1="436.3630065917969" y1="327.2720031738281" x2="436.3630065917969" y2="381.8179931640625" stroke-width="1.6363633219401041"/><line stroke="#f00" opacity="1" x1="436.3630065917969" y1="490.90899658203125" x2="436.3630065917969" y2="409.09100341796875" stroke-width="1.6363633219401041"/><line stroke="#f00" opacity="1" x1="436.3630065917969" y1="272.7279968261719" x2="381.8179931640625" y2="272.7279968261719" stroke-width="1.6363633219401041"/><line stroke="#f00" opacity="1" x1="381.8179931640625" y1="272.7279968261719" x2="327.2720031738281" y2="272.7279968261719" stroke-width="1.6363633219401041"/><line stroke="#f00" opacity="1" x1="327.2720031738281" y1="272.7279968261719" x2="272.7279968261719" y2="272.7279968261719" stroke-width="1.6363633219401041"/><line stroke="#f00" opacity="1" x1="272.7279968261719" y1="272.7279968261719" x2="218.1820068359375" y2="272.7279968261719" stroke-width="1.6363633219401041"/><line stroke="#f00" opacity="0.5" x1="436.3630065917969" y1="272.7279968261719" x2="436.3630065917969" y2="218.1820068359375" stroke-width="1.6363633219401041"/><line stroke="#f00" opacity="0.5" x1="436.3630065917969" y1="272.7279968261719" x2="490.90899658203125" y2="272.7279968261719" stroke-width="1.6363633219401041"/><line stroke="#f00" opacity="1" x1="436.3630065917969" y1="218.1820068359375" x2="436.3630065917969" y2="163.63699340820312" stroke-width="1.6363633219401041"/><line stroke="#f00" opacity="1" x1="436.3630065917969" y1="163.63699340820312" x2="436.3630065917969" y2="109.09100341796875" stroke-width="1.6363633219401041"/><line stroke="#f00" opacity="1" x1="436.3630065917969" y1="0" x2="436.3630065917969" y2="81.81800079345703" stroke-width="1.6363633219401041"/><line stroke="#f00" opacity="1" x1="436.3630065917969" y1="218.1820068359375" x2="381.8179931640625" y2="218.1820068359375" stroke-width="1.6363633219401041"/><line stroke="#f00" opacity="1" x1="381.8179931640625" y1="218.1820068359375" x2="327.2720031738281" y2="218.1820068359375" stroke-width="1.6363633219401041"/><line stroke="#f00" opacity="1" x1="327.2720031738281" y1="218.1820068359375" x2="272.7279968261719" y2="218.1820068359375" stroke-width="1.6363633219401041"/><line stroke="#f00" opacity="1" x1="272.7279968261719" y1="218.1820068359375" x2="218.1820068359375" y2="218.1820068359375" stroke-width="1.6363633219401041"/><line stroke="#f00" opacity="0.5" x1="436.3630065917969" y1="218.1820068359375" x2="490.90899658203125" y2="218.1820068359375" stroke-width="1.6363633219401041"/><line stroke="#f00" opacity="1" x1="490.90899658203125" y1="218.1820068359375" x2="490.90899658203125" y2="163.63699340820312" stroke-width="1.6363633219401041"/><line stroke="#f00" opacity="1" x1="490.90899658203125" y1="163.63699340820312" x2="490.90899658203125" y2="109.09100341796875" stroke-width="1.6363633219401041"/><line stroke="#f00" opacity="1" x1="490.90899658203125" y1="0" x2="490.90899658203125" y2="81.81800079345703" stroke-width="1.6363633219401041"/><line stroke="#f00" opacity="1" x1="490.90899658203125" y1="218.1820068359375" x2="545.4550170898438" y2="218.1820068359375" stroke-width="1.6363633219401041"/><line stroke="#f00" opacity="1" x1="545.4550170898438" y1="218.1820068359375" x2="600" y2="218.1820068359375" stroke-width="1.6363633219401041"/><line stroke="#f00" opacity="0.5" x1="490.90899658203125" y1="218.1820068359375" x2="490.90899658203125" y2="272.7279968261719" stroke-width="1.6363633219401041"/><line stroke="#f00" opacity="1" x1="490.90899658203125" y1="272.7279968261719" x2="490.90899658203125" y2="327.2720031738281" stroke-width="1.6363633219401041"/><line stroke="#f00" opacity="1" x1="490.90899658203125" y1="327.2720031738281" x2="490.90899658203125" y2="381.8179931640625" stroke-width="1.6363633219401041"/><line stroke="#f00" opacity="1" x1="490.90899658203125" y1="490.90899658203125" x2="490.90899658203125" y2="409.09100341796875" stroke-width="1.6363633219401041"/><line stroke="#f00" opacity="1" x1="490.90899658203125" y1="272.7279968261719" x2="545.4550170898438" y2="272.7279968261719" stroke-width="1.6363633219401041"/><line stroke="#f00" opacity="1" x1="545.4550170898438" y1="272.7279968261719" x2="600" y2="272.7279968261719" stroke-width="1.6363633219401041"/><line stroke="#f00" opacity="1" x1="109.09100341796875" y1="272.7279968261719" x2="109.09100341796875" y2="327.2720031738281" stroke-width="1.6363633219401041"/><line stroke="#f00" opacity="1" x1="109.09100341796875" y1="327.2720031738281" x2="109.09100341796875" y2="381.8179931640625" stroke-width="1.6363633219401041"/><line stroke="#f00" opacity="1" x1="109.09100341796875" y1="490.90899658203125" x2="109.09100341796875" y2="409.09100341796875" stroke-width="1.6363633219401041"/><line stroke="#f00" opacity="1" x1="109.09100341796875" y1="272.7279968261719" x2="54.54499816894531" y2="272.7279968261719" stroke-width="1.6363633219401041"/><line stroke="#f00" opacity="1" x1="54.54499816894531" y1="272.7279968261719" x2="0" y2="272.7279968261719" stroke-width="1.6363633219401041"/><line stroke="#f00" opacity="0.5" x1="109.09100341796875" y1="272.7279968261719" x2="109.09100341796875" y2="218.1820068359375" stroke-width="1.6363633219401041"/><line stroke="#f00" opacity="0.5" x1="109.09100341796875" y1="272.7279968261719" x2="163.63600158691406" y2="272.7279968261719" stroke-width="1.6363633219401041"/><line stroke="#f00" opacity="1" x1="109.09100341796875" y1="218.1820068359375" x2="109.09100341796875" y2="163.63699340820312" stroke-width="1.6363633219401041"/><line stroke="#f00" opacity="1" x1="109.09100341796875" y1="163.63699340820312" x2="109.09100341796875" y2="109.09100341796875" stroke-width="1.6363633219401041"/><line stroke="#f00" opacity="1" x1="109.09100341796875" y1="0" x2="109.09100341796875" y2="81.81800079345703" stroke-width="1.6363633219401041"/><line stroke="#f00" opacity="1" x1="109.09100341796875" y1="218.1820068359375" x2="54.54499816894531" y2="218.1820068359375" stroke-width="1.6363633219401041"/><line stroke="#f00" opacity="1" x1="54.54499816894531" y1="218.1820068359375" x2="0" y2="218.1820068359375" stroke-width="1.6363633219401041"/><line stroke="#f00" opacity="0.5" x1="109.09100341796875" y1="218.1820068359375" x2="163.63600158691406" y2="218.1820068359375" stroke-width="1.6363633219401041"/><line stroke="#f00" opacity="1" x1="163.63600158691406" y1="218.1820068359375" x2="163.63600158691406" y2="163.63699340820312" stroke-width="1.6363633219401041"/><line stroke="#f00" opacity="1" x1="163.63600158691406" y1="163.63699340820312" x2="163.63600158691406" y2="109.09100341796875" stroke-width="1.6363633219401041"/><line stroke="#f00" opacity="1" x1="163.63600158691406" y1="0" x2="163.63600158691406" y2="81.81800079345703" stroke-width="1.6363633219401041"/><line stroke="#f00" opacity="1" x1="163.63600158691406" y1="218.1820068359375" x2="218.1820068359375" y2="218.1820068359375" stroke-width="1.6363633219401041"/><line stroke="#f00" opacity="0.5" x1="163.63600158691406" y1="218.1820068359375" x2="163.63600158691406" y2="272.7279968261719" stroke-width="1.6363633219401041"/><line stroke="#f00" opacity="1" x1="163.63600158691406" y1="272.7279968261719" x2="163.63600158691406" y2="327.2720031738281" stroke-width="1.6363633219401041"/><line stroke="#f00" opacity="1" x1="163.63600158691406" y1="327.2720031738281" x2="163.63600158691406" y2="381.8179931640625" stroke-width="1.6363633219401041"/><line stroke="#f00" opacity="1" x1="163.63600158691406" y1="490.90899658203125" x2="163.63600158691406" y2="409.09100341796875" stroke-width="1.6363633219401041"/><line stroke="#f00" opacity="1" x1="163.63600158691406" y1="272.7279968261719" x2="218.1820068359375" y2="272.7279968261719" stroke-width="1.6363633219401041"/><line stroke="#f00" opacity="1" x1="272.7279968261719" y1="381.8179931640625" x2="272.7279968261719" y2="436.3630065917969" stroke-width="1.6363633219401041"/><line stroke="#f00" opacity="1" x1="272.7279968261719" y1="436.3630065917969" x2="272.7279968261719" y2="490.90899658203125" stroke-width="1.6363633219401041"/><line stroke="#f00" opacity="1" x1="272.7279968261719" y1="381.8179931640625" x2="218.1820068359375" y2="381.8179931640625" stroke-width="1.6363633219401041"/><line stroke="#f00" opacity="1" x1="163.63600158691406" y1="381.8179931640625" x2="109.09100341796875" y2="381.8179931640625" stroke-width="1.6363633219401041"/><line stroke="#f00" opacity="1" x1="0" y1="381.8179931640625" x2="81.81800079345703" y2="381.8179931640625" stroke-width="1.6363633219401041"/><line stroke="#f00" opacity="0.5" x1="272.7279968261719" y1="300" x2="272.7279968261719" y2="381.8179931640625" stroke-width="1.6363633219401041"/><line stroke="#f00" opacity="0.5" x1="272.7279968261719" y1="272.7279968261719" x2="272.7279968261719" y2="218.1820068359375" stroke-width="1.6363633219401041"/><line stroke="#f00" opacity="0.5" x1="272.7279968261719" y1="109.09100341796875" x2="272.7279968261719" y2="190.90899658203125" stroke-width="1.6363633219401041"/><line stroke="#f00" opacity="0.5" x1="272.7279968261719" y1="381.8179931640625" x2="327.2720031738281" y2="381.8179931640625" stroke-width="1.6363633219401041"/><line stroke="#f00" opacity="1" x1="327.2720031738281" y1="381.8179931640625" x2="327.2720031738281" y2="436.3630065917969" stroke-width="1.6363633219401041"/><line stroke="#f00" opacity="1" x1="327.2720031738281" y1="436.3630065917969" x2="327.2720031738281" y2="490.90899658203125" stroke-width="1.6363633219401041"/><line stroke="#f00" opacity="1" x1="327.2720031738281" y1="381.8179931640625" x2="381.8179931640625" y2="381.8179931640625" stroke-width="1.6363633219401041"/><line stroke="#f00" opacity="1" x1="436.3630065917969" y1="381.8179931640625" x2="490.90899658203125" y2="381.8179931640625" stroke-width="1.6363633219401041"/><line stroke="#f00" opacity="1" x1="600" y1="381.8179931640625" x2="518.1820068359375" y2="381.8179931640625" stroke-width="1.6363633219401041"/><line stroke="#f00" opacity="0.5" x1="327.2720031738281" y1="300" x2="327.2720031738281" y2="381.8179931640625" stroke-width="1.6363633219401041"/><line stroke="#f00" opacity="0.5" x1="327.2720031738281" y1="272.7279968261719" x2="327.2720031738281" y2="218.1820068359375" stroke-width="1.6363633219401041"/><line stroke="#f00" opacity="0.5" x1="327.2720031738281" y1="109.09100341796875" x2="327.2720031738281" y2="190.90899658203125" stroke-width="1.6363633219401041"/><line stroke="#f00" opacity="1" x1="272.7279968261719" y1="109.09100341796875" x2="272.7279968261719" y2="54.54499816894531" stroke-width="1.6363633219401041"/><line stroke="#f00" opacity="1" x1="272.7279968261719" y1="54.54499816894531" x2="272.7279968261719" y2="0" stroke-width="1.6363633219401041"/><line stroke="#f00" opacity="1" x1="272.7279968261719" y1="109.09100341796875" x2="218.1820068359375" y2="109.09100341796875" stroke-width="1.6363633219401041"/><line stroke="#f00" opacity="1" x1="163.63600158691406" y1="109.09100341796875" x2="109.09100341796875" y2="109.09100341796875" stroke-width="1.6363633219401041"/><line stroke="#f00" opacity="1" x1="0" y1="109.09100341796875" x2="81.81800079345703" y2="109.09100341796875" stroke-width="1.6363633219401041"/><line stroke="#f00" opacity="0.5" x1="272.7279968261719" y1="109.09100341796875" x2="327.2720031738281" y2="109.09100341796875" stroke-width="1.6363633219401041"/><line stroke="#f00" opacity="1" x1="327.2720031738281" y1="109.09100341796875" x2="327.2720031738281" y2="54.54499816894531" stroke-width="1.6363633219401041"/><line stroke="#f00" opacity="1" x1="327.2720031738281" y1="54.54499816894531" x2="327.2720031738281" y2="0" stroke-width="1.6363633219401041"/><line stroke="#f00" opacity="1" x1="327.2720031738281" y1="109.09100341796875" x2="381.8179931640625" y2="109.09100341796875" stroke-width="1.6363633219401041"/><line stroke="#f00" opacity="1" x1="436.3630065917969" y1="109.09100341796875" x2="490.90899658203125" y2="109.09100341796875" stroke-width="1.6363633219401041"/><line stroke="#f00" opacity="1" x1="600" y1="109.09100341796875" x2="518.1820068359375" y2="109.09100341796875" stroke-width="1.6363633219401041"/><line stroke="#00f" opacity="1" x1="409.09100341796875" y1="327.2720031738281" x2="409.09100341796875" y2="381.8179931640625" stroke-width="1.6363633219401041"/><line stroke="#00f" opacity="1" x1="409.09100341796875" y1="490.90899658203125" x2="409.09100341796875" y2="409.09100341796875" stroke-width="1.6363633219401041"/><line stroke="#00f" opacity="1" x1="381.8179931640625" y1="300" x2="327.2720031738281" y2="300" stroke-width="1.6363633219401041"/><line stroke="#00f" opacity="1" x1="327.2720031738281" y1="300" x2="272.7279968261719" y2="300" stroke-width="1.6363633219401041"/><line stroke="#00f" opacity="1" x1="272.7279968261719" y1="300" x2="218.1820068359375" y2="300" stroke-width="1.6363633219401041"/><line stroke="#00f" opacity="1" x1="381.8179931640625" y1="272.7279968261719" x2="381.8179931640625" y2="218.1820068359375" stroke-width="1.6363633219401041"/><line stroke="#00f" opacity="0.5" x1="436.3630065917969" y1="327.2720031738281" x2="490.90899658203125" y2="327.2720031738281" stroke-width="1.6363633219401041"/><line stroke="#00f" opacity="1" x1="409.09100341796875" y1="163.63699340820312" x2="409.09100341796875" y2="109.09100341796875" stroke-width="1.6363633219401041"/><line stroke="#00f" opacity="1" x1="409.09100341796875" y1="0" x2="409.09100341796875" y2="81.81800079345703" stroke-width="1.6363633219401041"/><line stroke="#00f" opacity="1" x1="381.8179931640625" y1="190.90899658203125" x2="327.2720031738281" y2="190.90899658203125" stroke-width="1.6363633219401041"/><line stroke="#00f" opacity="1" x1="327.2720031738281" y1="190.90899658203125" x2="272.7279968261719" y2="190.90899658203125" stroke-width="1.6363633219401041"/><line stroke="#00f" opacity="1" x1="272.7279968261719" y1="190.90899658203125" x2="218.1820068359375" y2="190.90899658203125" stroke-width="1.6363633219401041"/><line stroke="#00f" opacity="0.5" x1="436.3630065917969" y1="163.63699340820312" x2="490.90899658203125" y2="163.63699340820312" stroke-width="1.6363633219401041"/><line stroke="#00f" opacity="1" x1="518.1820068359375" y1="163.63699340820312" x2="518.1820068359375" y2="109.09100341796875" stroke-width="1.6363633219401041"/><line stroke="#00f" opacity="1" x1="518.1820068359375" y1="0" x2="518.1820068359375" y2="81.81800079345703" stroke-width="1.6363633219401041"/><line stroke="#00f" opacity="1" x1="545.4550170898438" y1="190.90899658203125" x2="600" y2="190.90899658203125" stroke-width="1.6363633219401041"/><line stroke="#00f" opacity="0.5" x1="545.4550170898438" y1="218.1820068359375" x2="545.4550170898438" y2="272.7279968261719" stroke-width="1.6363633219401041"/><line stroke="#00f" opacity="1" x1="518.1820068359375" y1="327.2720031738281" x2="518.1820068359375" y2="381.8179931640625" stroke-width="1.6363633219401041"/><line stroke="#00f" opacity="1" x1="518.1820068359375" y1="490.90899658203125" x2="518.1820068359375" y2="409.09100341796875" stroke-width="1.6363633219401041"/><line stroke="#00f" opacity="1" x1="545.4550170898438" y1="300" x2="600" y2="300" stroke-width="1.6363633219401041"/><line stroke="#00f" opacity="1" x1="81.81800079345703" y1="327.2720031738281" x2="81.81800079345703" y2="381.8179931640625" stroke-width="1.6363633219401041"/><line stroke="#00f" opacity="1" x1="81.81800079345703" y1="490.90899658203125" x2="81.81800079345703" y2="409.09100341796875" stroke-width="1.6363633219401041"/><line stroke="#00f" opacity="1" x1="54.54499816894531" y1="300" x2="0" y2="300" stroke-width="1.6363633219401041"/><line stroke="#00f" opacity="0.5" x1="54.54499816894531" y1="272.7279968261719" x2="54.54499816894531" y2="218.1820068359375" stroke-width="1.6363633219401041"/><line stroke="#00f" opacity="0.5" x1="109.09100341796875" y1="327.2720031738281" x2="163.63600158691406" y2="327.2720031738281" stroke-width="1.6363633219401041"/><line stroke="#00f" opacity="1" x1="81.81800079345703" y1="163.63699340820312" x2="81.81800079345703" y2="109.09100341796875" stroke-width="1.6363633219401041"/><line stroke="#00f" opacity="1" x1="81.81800079345703" y1="0" x2="81.81800079345703" y2="81.81800079345703" stroke-width="1.6363633219401041"/><line stroke="#00f" opacity="1" x1="54.54499816894531" y1="190.90899658203125" x2="0" y2="190.90899658203125" stroke-width="1.6363633219401041"/><line stroke="#00f" opacity="0.5" x1="109.09100341796875" y1="163.63699340820312" x2="163.63600158691406" y2="163.63699340820312" stroke-width="1.6363633219401041"/><line stroke="#00f" opacity="1" x1="190.90899658203125" y1="163.63699340820312" x2="190.90899658203125" y2="109.09100341796875" stroke-width="1.6363633219401041"/><line stroke="#00f" opacity="1" x1="190.90899658203125" y1="0" x2="190.90899658203125" y2="81.81800079345703" stroke-width="1.6363633219401041"/><line stroke="#00f" opacity="1" x1="218.1820068359375" y1="218.1820068359375" x2="218.1820068359375" y2="272.7279968261719" stroke-width="1.6363633219401041"/><line stroke="#00f" opacity="1" x1="190.90899658203125" y1="327.2720031738281" x2="190.90899658203125" y2="381.8179931640625" stroke-width="1.6363633219401041"/><line stroke="#00f" opacity="1" x1="190.90899658203125" y1="490.90899658203125" x2="190.90899658203125" y2="409.09100341796875" stroke-width="1.6363633219401041"/><line stroke="#00f" opacity="1" x1="245.4550018310547" y1="436.3630065917969" x2="245.4550018310547" y2="490.90899658203125" stroke-width="1.6363633219401041"/><line stroke="#00f" opacity="1" x1="163.63600158691406" y1="409.09100341796875" x2="109.09100341796875" y2="409.09100341796875" stroke-width="1.6363633219401041"/><line stroke="#00f" opacity="1" x1="0" y1="409.09100341796875" x2="81.81800079345703" y2="409.09100341796875" stroke-width="1.6363633219401041"/><line stroke="#00f" opacity="0.5" x1="218.1820068359375" y1="300" x2="218.1820068359375" y2="381.8179931640625" stroke-width="1.6363633219401041"/><line stroke="#00f" opacity="0.5" x1="272.7279968261719" y1="436.3630065917969" x2="327.2720031738281" y2="436.3630065917969" stroke-width="1.6363633219401041"/><line stroke="#00f" opacity="1" x1="354.5450134277344" y1="436.3630065917969" x2="354.5450134277344" y2="490.90899658203125" stroke-width="1.6363633219401041"/><line stroke="#00f" opacity="1" x1="436.3630065917969" y1="409.09100341796875" x2="490.90899658203125" y2="409.09100341796875" stroke-width="1.6363633219401041"/><line stroke="#00f" opacity="1" x1="600" y1="409.09100341796875" x2="518.1820068359375" y2="409.09100341796875" stroke-width="1.6363633219401041"/><line stroke="#00f" opacity="0.5" x1="381.8179931640625" y1="300" x2="381.8179931640625" y2="381.8179931640625" stroke-width="1.6363633219401041"/><line stroke="#00f" opacity="1" x1="245.4550018310547" y1="54.54499816894531" x2="245.4550018310547" y2="0" stroke-width="1.6363633219401041"/><line stroke="#00f" opacity="1" x1="163.63600158691406" y1="81.81800079345703" x2="109.09100341796875" y2="81.81800079345703" stroke-width="1.6363633219401041"/><line stroke="#00f" opacity="1" x1="0" y1="81.81800079345703" x2="81.81800079345703" y2="81.81800079345703" stroke-width="1.6363633219401041"/><line stroke="#00f" opacity="0.5" x1="218.1820068359375" y1="190.90899658203125" x2="218.1820068359375" y2="109.09100341796875" stroke-width="1.6363633219401041"/><line stroke="#00f" opacity="0.5" x1="272.7279968261719" y1="54.54499816894531" x2="327.2720031738281" y2="54.54499816894531" stroke-width="1.6363633219401041"/><line stroke="#00f" opacity="1" x1="354.5450134277344" y1="54.54499816894531" x2="354.5450134277344" y2="0" stroke-width="1.6363633219401041"/><line stroke="#00f" opacity="1" x1="436.3630065917969" y1="81.81800079345703" x2="490.90899658203125" y2="81.81800079345703" stroke-width="1.6363633219401041"/><line stroke="#00f" opacity="1" x1="600" y1="81.81800079345703" x2="518.1820068359375" y2="81.81800079345703" stroke-width="1.6363633219401041"/><line stroke="#00f" opacity="0.5" x1="381.8179931640625" y1="190.90899658203125" x2="381.8179931640625" y2="109.09100341796875" stroke-width="1.6363633219401041"/></svg>